<svg width="41" height="41" viewBox="0 0 41 41" fill="none" xmlns="http://www.w3.org/2000/svg">
<ellipse cx="20.0129" cy="20.0131" rx="20.0129" ry="20.0131" fill="#F7F2F2"/>
<ellipse cx="20.0129" cy="20.0131" rx="20.0129" ry="20.0131" fill="url(#paint0_radial_3301_520)" fill-opacity="0.7"/>
<path d="M20.5078 12.1875C18.7762 12.1895 17.1161 12.8782 15.8917 14.1026C14.6673 15.3271 13.9785 16.9872 13.9766 18.7188C13.9766 24.3074 19.9141 28.5305 20.1664 28.7086C20.2675 28.7759 20.3863 28.8119 20.5078 28.8119C20.6293 28.8119 20.7481 28.7759 20.8492 28.7086C21.1016 28.5305 27.0391 24.3074 27.0391 18.7188C27.0371 16.9872 26.3484 15.3271 25.1239 14.1026C23.8995 12.8782 22.2394 12.1895 20.5078 12.1875V12.1875ZM20.5078 16.3438C20.9775 16.3438 21.4367 16.483 21.8273 16.744C22.2179 17.005 22.5223 17.3759 22.702 17.8099C22.8818 18.2439 22.9288 18.7214 22.8372 19.1821C22.7455 19.6428 22.5193 20.066 22.1872 20.3981C21.855 20.7303 21.4319 20.9565 20.9712 21.0481C20.5104 21.1398 20.0329 21.0927 19.5989 20.913C19.165 20.7332 18.794 20.4288 18.5331 20.0382C18.2721 19.6477 18.1328 19.1885 18.1328 18.7188C18.1328 18.0889 18.383 17.4848 18.8284 17.0394C19.2738 16.594 19.8779 16.3438 20.5078 16.3438V16.3438Z" fill="url(#paint1_linear_3301_520)"/>
<defs>
<radialGradient id="paint0_radial_3301_520" cx="0" cy="0" r="1" gradientUnits="userSpaceOnUse" gradientTransform="translate(12.7952 7.87402) rotate(55.9681) scale(30.4835 30.4834)">
<stop stop-color="white"/>
<stop offset="0.697917" stop-color="white" stop-opacity="0"/>
<stop offset="1" stop-color="white" stop-opacity="0"/>
</radialGradient>
<linearGradient id="paint1_linear_3301_520" x1="20.5078" y1="11.6374" x2="7.30311" y2="39.6535" gradientUnits="userSpaceOnUse">
<stop stop-color="#E3BEBE"/>
<stop offset="1" stop-color="#E3BEBE" stop-opacity="0"/>
</linearGradient>
</defs>
</svg>
