<svg width="74" height="30" viewBox="0 0 74 30" fill="none" xmlns="http://www.w3.org/2000/svg">
<path id="Vector" d="M19.9706 23.3216L12.8862 12.3287L19.9095 1.33567H14.7489L10.0463 8.78645L5.40488 1.33567H0.0610722L7.08436 12.3287L0 23.3216H5.22167L9.92423 15.6021L14.6573 23.3216H19.9706ZM28.9919 7.16806C24.8695 7.16806 22.5182 9.61094 22.0907 12.3287H26.2436C26.4879 11.5042 27.2818 10.6186 28.8086 10.6186C30.3049 10.6186 31.4042 11.382 31.4042 12.8478V13.5806H27.9536C23.9229 13.5806 21.48 15.4433 21.48 18.6802C21.48 21.8559 23.9229 23.688 26.9765 23.688C29.0224 23.688 30.6713 22.8941 31.6485 21.6116V23.3216H35.7707V13.0004C35.7707 9.1529 33.0531 7.16806 28.9919 7.16806ZM28.1979 20.2375C26.8238 20.2375 25.9382 19.5657 25.9382 18.4664C25.9382 17.3366 26.9154 16.6648 28.2895 16.6648H31.4042V17.3671C31.4042 19.1993 29.9079 20.2375 28.1979 20.2375ZM48.1247 7.80931C45.9264 7.80931 44.1247 8.60324 42.9641 10.2217C43.2694 7.25968 44.4605 5.79393 47.4532 5.33589L53.1025 4.45034V0.572266L47.0257 1.64103C40.7963 2.67925 38.8725 6.83217 38.8725 13.7638C38.8725 19.9932 41.8956 23.688 47.2393 23.688C52.0336 23.688 54.9955 20.0238 54.9955 15.6265C54.9955 10.8934 52.2472 7.80931 48.1247 7.80931ZM47.0257 19.9627C44.7049 19.9627 43.4224 18.1 43.4224 15.596C43.4224 13.1837 44.7658 11.4431 47.0562 11.4431C49.2853 11.4431 50.5373 13.2448 50.5373 15.6265C50.5373 18.0084 49.3157 19.9627 47.0257 19.9627ZM66.887 7.16806C64.5661 7.16806 63.0698 8.17576 62.2758 9.36664V7.44289H58.001V29.4288H62.4592V21.7948C63.2529 22.8941 64.7492 23.688 66.7648 23.688C70.6429 23.688 73.727 20.6345 73.727 15.4433C73.727 10.1606 70.6429 7.16806 66.887 7.16806ZM65.8181 19.8405C63.7416 19.8405 62.3675 18.1611 62.3675 15.5044V15.3822C62.3675 12.7256 63.7416 11.0156 65.8181 11.0156C67.8946 11.0156 69.2383 12.7561 69.2383 15.4433C69.2383 18.1305 67.8946 19.8405 65.8181 19.8405Z" fill="black"/>
</svg>
