<svg width="28" height="28" viewBox="0 0 28 28" fill="none" xmlns="http://www.w3.org/2000/svg">
<path d="M14.4959 2.00995C15.2278 2.08362 16.092 2.42253 16.7687 2.89773C17.4712 3.39136 18.0743 4.11338 18.4862 4.93486C18.5708 5.108 18.6591 5.28113 18.6774 5.31797C18.751 5.45796 18.9606 6.10262 19.0158 6.37153C19.3468 7.87819 19.1886 9.34065 18.5598 10.6742C18.4053 10.9983 18.2729 11.2157 17.8757 11.8014C17.7249 12.0188 16.96 12.726 16.6474 12.936C15.8052 13.4959 14.9777 13.7538 13.9994 13.7538C13.3375 13.7501 12.7968 13.647 12.179 13.3965C11.9841 13.3191 11.5942 13.1091 11.4729 13.0171C11.4104 12.9692 11.3478 12.9286 11.3331 12.9286C11.2743 12.9286 10.7815 12.494 10.4578 12.1587C8.90217 10.5342 8.3873 7.93345 9.178 5.69003C9.24052 5.52058 9.30304 5.35113 9.32511 5.31429C9.3435 5.27745 9.42808 5.108 9.51267 4.93486C10.2372 3.46504 11.5538 2.40779 13.08 2.07257C13.3191 2.021 14.2127 1.98048 14.4959 2.00995Z" stroke="#99ACD3" stroke-width="3.5"/>
<path d="M11.3848 14.3138C12.3373 14.7927 13.3523 14.9916 14.4409 14.918C15.1875 14.8664 15.8605 14.6822 16.6034 14.3249C16.8093 14.2254 16.9969 14.1444 17.019 14.1444C17.041 14.1444 17.1881 14.2144 17.3426 14.2991C17.7398 14.5164 17.9494 14.6269 18.2841 14.8074C18.4459 14.8958 18.7217 15.0469 18.9019 15.1427C19.0785 15.2421 19.2292 15.3232 19.2366 15.3232C19.244 15.3232 19.38 15.3968 19.5382 15.4816C19.7 15.57 19.9685 15.7173 20.1413 15.8094C20.5642 16.0341 20.9063 16.222 21.2924 16.432C21.4689 16.5314 21.6197 16.6125 21.6271 16.6125C21.6344 16.6125 21.7705 16.6825 21.9287 16.7709C22.2854 16.9698 22.8334 17.2645 23.0283 17.364C23.2416 17.4782 23.6792 17.9276 23.7785 18.1413C23.9698 18.5465 23.9771 18.5944 23.9955 19.729C24.0065 20.6204 23.9992 20.8415 23.9514 21.0293C23.8925 21.254 23.7601 21.4898 23.6057 21.6482C23.488 21.7661 23.168 21.9392 23.0099 21.9724C22.8407 22.0092 5.15844 22.0092 4.98927 21.9724C4.81274 21.9355 4.49646 21.755 4.36407 21.615C4.30155 21.5524 4.19857 21.3903 4.13237 21.2577L4.01469 21.0146L4.00365 20.0126C3.98894 18.9369 4.01469 18.6275 4.15444 18.2849C4.29051 17.9423 4.68402 17.515 5.02605 17.3382C5.15844 17.2682 5.73216 16.9588 6.07051 16.7709C6.22865 16.6825 6.36472 16.6125 6.37208 16.6125C6.37943 16.6125 6.53022 16.5314 6.70675 16.432C7.01567 16.2625 7.14071 16.1962 7.85786 15.8094C8.03071 15.7173 8.29918 15.57 8.461 15.4816C8.61914 15.3932 8.75521 15.3232 8.76257 15.3232C8.76992 15.3232 8.92071 15.2421 9.09724 15.1427C9.27744 15.0469 9.55327 14.8958 9.71509 14.8074C9.87691 14.7227 10.0902 14.6048 10.1932 14.5496C10.2925 14.4943 10.5168 14.3764 10.6897 14.2843L11.0023 14.1223L11.3848 14.3138Z" stroke="#99ACD3" stroke-width="3.5"/>
</svg>
