<svg width="103" height="32" viewBox="0 0 103 32" fill="none" xmlns="http://www.w3.org/2000/svg">
<path d="M18.2456 15.748V24.2482C18.3323 25.2515 18.1739 26.2608 17.7841 27.1893C17.3943 28.1177 16.7847 28.9376 16.0079 29.5784C13.8804 30.8672 11.4014 31.4544 8.92177 31.2566C2.9856 31.2566 0.017547 29.0189 0.017547 24.5124C-0.0570495 23.5571 0.106971 22.5983 0.494864 21.7222C0.882758 20.846 1.48235 20.08 2.23972 19.4931C4.2723 18.3026 6.61963 17.7605 8.96839 17.9391H13.7857V15.748C13.8351 15.2487 13.7486 14.7453 13.5352 14.2912C13.3218 13.837 12.9895 13.4491 12.5736 13.1684C11.3396 12.5809 9.97418 12.3239 8.61101 12.4225C7.04801 12.3975 5.4864 12.5277 3.94909 12.811C3.31197 12.9353 2.87683 12.9042 2.65927 12.7022C2.38705 12.331 2.27002 11.8684 2.33295 11.4124V10.8064C2.28465 10.3366 2.3999 9.86461 2.65927 9.46998C3.00652 9.16047 3.44053 8.96517 3.90248 8.91055C5.35269 8.68787 6.81744 8.57359 8.28464 8.56867C10.8804 8.38839 13.4712 8.98334 15.7282 10.278C16.5655 10.9088 17.2297 11.7411 17.6589 12.6974C18.0882 13.6538 18.2686 14.7032 18.1834 15.748M13.7857 23.9996V21.2802H8.96839C7.8027 21.1974 6.63774 21.4509 5.61181 22.0105C5.24377 22.2812 4.95175 22.6422 4.76392 23.0587C4.5761 23.4752 4.49882 23.933 4.53956 24.3881C4.49611 24.8351 4.57089 25.2858 4.75634 25.6948C4.94179 26.1039 5.23144 26.4571 5.5963 26.7191C6.58513 27.2552 7.70651 27.4978 8.82854 27.4183C10.1419 27.5214 11.4584 27.2635 12.6358 26.6724C13.042 26.3641 13.3613 25.9559 13.5629 25.4875C13.7644 25.0191 13.8412 24.5065 13.7857 23.9996Z" fill="#000034"/>
<path d="M22.5839 24.605V2.05688C22.5261 1.50706 22.6697 0.954942 22.9879 0.502908C23.4409 0.187452 23.9938 0.049213 24.5419 0.114415H25.1169C25.665 0.049213 26.2179 0.187452 26.6708 0.502908C26.9891 0.954942 27.1326 1.50706 27.0748 2.05688V23.7348C27.0034 24.5671 27.1705 25.4026 27.5566 26.1434C27.7349 26.3823 27.9712 26.5719 28.2431 26.6942C28.5149 26.8166 28.8135 26.8677 29.1105 26.8427C29.5938 26.7787 30.0842 26.8889 30.4936 27.1535C30.7364 27.5939 30.8342 28.0996 30.7733 28.5987V29.0338C30.83 29.5357 30.709 30.0416 30.4314 30.4635C30.0168 30.7958 29.5149 31.0009 28.9862 31.054C28.7799 31.08 28.571 31.08 28.3647 31.054C27.5741 31.0967 26.7834 30.972 26.0443 30.6882C25.3052 30.4043 24.6344 29.9677 24.0757 29.4068C22.9514 28.0517 22.3946 26.3145 22.5217 24.5584" fill="#000034"/>
<path d="M33.7089 24.605V2.05688C33.6511 1.50706 33.7946 0.954942 34.1129 0.502908C34.5658 0.187452 35.1188 0.049213 35.6669 0.114415H36.2419C36.79 0.049213 37.3429 0.187452 37.7958 0.502908C38.1141 0.954942 38.2576 1.50706 38.1998 2.05688V23.7348C38.1284 24.5671 38.2955 25.4026 38.6816 26.1434C38.8599 26.3823 39.0962 26.5719 39.3681 26.6942C39.6399 26.8166 39.9385 26.8677 40.2355 26.8427C40.7188 26.7787 41.2092 26.8889 41.6186 27.1535C41.8614 27.5939 41.9592 28.0996 41.8983 28.5987V29.0338C41.955 29.5357 41.834 30.0416 41.5564 30.4635C41.1418 30.7958 40.6399 31.0009 40.1112 31.054C39.9049 31.08 39.696 31.08 39.4897 31.054C38.6991 31.0967 37.9084 30.972 37.1693 30.6882C36.4302 30.4043 35.7594 29.9677 35.2007 29.4068C34.0764 28.0517 33.5196 26.3145 33.6467 24.5584" fill="#000034"/>
<path d="M44.865 21.8549V2.05734C44.7708 1.78228 44.7557 1.48632 44.8214 1.2031C44.887 0.919873 45.0308 0.660738 45.2364 0.455158C45.442 0.249579 45.7011 0.10578 45.9843 0.0401318C46.2675 -0.0255168 46.5635 -0.0103873 46.8385 0.083785H47.3669C47.642 -0.0103873 47.938 -0.0255168 48.2212 0.0401318C48.5044 0.10578 48.7635 0.249579 48.9691 0.455158C49.1747 0.660738 49.3184 0.919873 49.3841 1.2031C49.4497 1.48632 49.4346 1.78228 49.3405 2.05734V11.3812C50.5318 9.48532 52.6763 8.53739 55.7739 8.53739C61.8551 8.53739 64.8905 11.723 64.8802 18.0943V21.8549C64.8802 28.0708 61.5391 31.1787 54.857 31.1787C52.1737 31.3583 49.5229 30.5081 47.4446 28.8012C46.5441 27.8846 45.8485 26.7873 45.4038 25.5818C44.9591 24.3763 44.7754 23.0901 44.865 21.8083M60.4047 21.7151V17.9545C60.5544 16.493 60.1248 15.0312 59.2082 13.8831C57.984 12.9638 56.4573 12.5418 54.9348 12.702C53.3929 12.5413 51.8465 12.9625 50.5992 13.8831C50.1331 14.4454 49.7843 15.0953 49.5735 15.7946C49.3627 16.4938 49.294 17.2282 49.3715 17.9545V21.7151C49.2965 22.4364 49.3664 23.1654 49.5773 23.8592C49.7881 24.5531 50.1355 25.1978 50.5992 25.7554C51.8465 26.676 53.3929 27.0972 54.9348 26.9364C56.4601 27.1004 57.9912 26.6843 59.2237 25.7709C60.1338 24.6261 60.5579 23.1696 60.4047 21.7151Z" fill="#000034"/>
<path d="M67.4907 11.6911V11.256C67.438 10.8077 67.5483 10.3554 67.8015 9.98173C68.1314 9.68823 68.5438 9.50372 68.9825 9.45339L71.2979 9.01828L71.8263 4.90026C71.8441 4.43444 72.0132 3.9871 72.308 3.62599C72.7007 3.37669 73.1661 3.26719 73.6289 3.3152H74.1883C74.6366 3.26108 75.0894 3.37151 75.4625 3.62599C75.7144 4.00024 75.8247 4.45206 75.7734 4.90026V9.01828H81.896C82.4128 8.95839 82.9344 9.07918 83.3723 9.36015C83.6952 9.80936 83.8291 10.3673 83.7452 10.9141V11.4425C83.8291 11.9893 83.6952 12.5472 83.3723 12.9964C82.9369 13.2841 82.4147 13.4105 81.896 13.3539H75.7734V23.2837C75.7734 25.8323 76.9077 27.1065 79.1921 27.1065C80.3852 27.117 81.575 26.9814 82.7351 26.7025C83.4603 26.5574 83.942 26.5885 84.1803 26.7957C84.4805 27.2137 84.6085 27.7311 84.5377 28.2409V28.7693C84.589 29.3122 84.4636 29.8572 84.1803 30.3232C83.7779 30.6854 83.2729 30.9135 82.7351 30.9759C81.5658 31.1894 80.3806 31.3037 79.1921 31.3178C73.9241 31.3178 71.2979 28.6449 71.2979 23.2682V13.3694H69.0291C68.5955 13.4206 68.1584 13.3099 67.8015 13.0586C67.546 12.7036 67.4349 12.2648 67.4907 11.831" fill="#000034"/>
<path d="M87.3356 21.9646V17.6757C87.2619 16.4314 87.4553 15.1858 87.9029 14.0225C88.3506 12.8593 89.042 11.8053 89.9308 10.9314C92.0361 9.206 94.7209 8.34997 97.4364 8.5383C98.5903 8.53049 99.7401 8.67682 100.855 8.97341C101.392 9.04567 101.892 9.28488 102.285 9.65716C102.556 10.1272 102.671 10.6716 102.611 11.2111V11.7861C102.647 12.0418 102.629 12.3021 102.56 12.5507C102.49 12.7994 102.37 13.0311 102.207 13.2313C101.959 13.4281 101.477 13.4281 100.762 13.2313C99.7178 12.9003 98.6242 12.7531 97.5297 12.7962C95.9658 12.6391 94.3967 13.041 93.1009 13.9306C92.6282 14.4559 92.2706 15.0743 92.0512 15.746C91.8317 16.4178 91.7552 17.128 91.8266 17.831V21.9646C91.7472 22.6826 91.8257 23.4093 92.0565 24.0938C92.2874 24.7782 92.665 25.404 93.163 25.9272C94.5511 26.8041 96.1901 27.1975 97.8249 27.0461C98.9586 27.0097 100.087 26.8745 101.197 26.6421C101.427 26.5604 101.671 26.5265 101.914 26.5425C102.157 26.5585 102.394 26.6242 102.611 26.7353C102.86 26.9322 102.984 27.3983 102.984 28.1339V28.6622C103.047 29.208 102.915 29.7583 102.611 30.2162C102.207 30.5931 101.697 30.8371 101.15 30.9155C100.02 31.1811 98.8615 31.3064 97.7006 31.2884C90.8528 31.2884 87.4237 28.2219 87.4133 22.0889" fill="#000034"/>
</svg>
