<svg width="33" height="33" viewBox="0 0 33 33" fill="none" xmlns="http://www.w3.org/2000/svg">
<g clip-path="url(#clip0_3301_358)">
<path d="M32.4831 20.5158C30.2794 29.3552 21.3266 34.7347 12.4861 32.5304C3.64942 30.3267 -1.73004 21.3733 0.474619 12.5347C2.67735 3.69433 11.6302 -1.68554 20.4679 0.51815C29.3076 2.72184 34.6868 11.6762 32.4829 20.516L32.483 20.5158H32.4831Z" fill="#F7931A"/>
<path d="M23.7766 14.1498C24.1051 11.954 22.4333 10.7737 20.1474 9.98632L20.889 7.01193L19.0784 6.56077L18.3564 9.45685C17.8804 9.33813 17.3916 9.22627 16.9058 9.11538L17.6329 6.20018L15.8235 5.74902L15.0815 8.72245C14.6876 8.63276 14.3007 8.54413 13.9253 8.45073L13.9274 8.44138L11.4306 7.81787L10.9489 9.75171C10.9489 9.75171 12.2923 10.0596 12.2639 10.0786C12.9971 10.2616 13.1297 10.7469 13.1077 11.1316L12.263 14.5202C12.3135 14.533 12.379 14.5515 12.4512 14.5806C12.3908 14.5656 12.3265 14.5492 12.2598 14.5332L11.0758 19.2801C10.9862 19.5028 10.7588 19.8371 10.2462 19.7102C10.2643 19.7365 8.93018 19.3818 8.93018 19.3818L8.03125 21.4543L10.3875 22.0417C10.8258 22.1516 11.2553 22.2666 11.6783 22.3748L10.9291 25.3833L12.7376 25.8345L13.4796 22.8579C13.9737 22.992 14.4531 23.1157 14.9225 23.2324L14.183 26.1949L15.9937 26.6461L16.7429 23.6432C19.8303 24.2275 22.1519 23.9919 23.129 21.1993C23.9164 18.9509 23.0898 17.6541 21.4655 16.8084C22.6486 16.5355 23.5397 15.7574 23.7773 14.1501L23.7767 14.1497L23.7766 14.1498ZM19.6398 19.9507C19.0803 22.1991 15.2947 20.9837 14.0674 20.6789L15.0616 16.6931C16.2889 16.9995 20.2246 17.6059 19.6399 19.9507H19.6398ZM20.1998 14.1172C19.6894 16.1624 16.5386 15.1234 15.5165 14.8686L16.4179 11.2537C17.44 11.5085 20.7315 11.984 20.2 14.1172H20.1998Z" fill="white"/>
</g>
<defs>
<clipPath id="clip0_3301_358">
<rect width="33" height="33" fill="white"/>
</clipPath>
</defs>
</svg>
