<svg width="40" height="40" viewBox="0 0 40 40" fill="none" xmlns="http://www.w3.org/2000/svg">
<path d="M33.2719 4.28251C33.2719 4.28251 36.2321 2.89736 35.9854 6.26128C35.9032 7.64644 35.1631 12.4944 34.5875 17.7382L32.614 33.2717C32.614 33.2717 32.4496 35.5472 30.9695 35.943C29.4893 36.3387 27.2692 34.5579 26.858 34.1621C26.5291 33.8653 20.6909 29.413 18.6351 27.2364C18.0595 26.6427 17.4017 25.4554 18.7173 24.0703L27.3514 14.1765C28.3382 12.9892 29.3249 10.2189 25.2134 13.5828L13.7014 22.982C13.7014 22.982 12.3858 23.9714 9.91894 23.0809L4.57404 21.1022C4.57404 21.1022 2.60054 19.6181 5.97193 18.1339C14.1948 13.4838 24.309 8.73472 33.2719 4.28251Z" fill="#000034" fill-opacity="0.74"/>
</svg>
