<svg width="40" height="40" viewBox="0 0 40 40" fill="none" xmlns="http://www.w3.org/2000/svg">
<path d="M38.4409 6.74697C36.997 4.79587 34.3312 4 29.2401 4H10.7595C5.55187 4 2.8409 4.84721 1.40245 6.92445C0 8.94977 0 11.9339 0 16.0641V23.9361C0 31.9375 1.664 36 10.7595 36H29.2403C33.6552 36 36.1017 35.2977 37.6844 33.5759C39.3075 31.8102 40 28.9272 40 23.9361V16.0641C40 11.7085 39.8915 8.70673 38.4409 6.74697ZM25.6801 21.0869L17.2881 26.0726C17.1005 26.1841 16.8954 26.2394 16.6905 26.2394C16.4585 26.2394 16.227 26.1684 16.0219 26.0273C15.6359 25.7613 15.4001 25.2857 15.4001 24.7726V14.8331C15.4001 14.3209 15.6352 13.8457 16.0205 13.5796C16.4059 13.3136 16.8853 13.2954 17.2852 13.5315L25.6772 18.4851C26.1041 18.7371 26.3723 19.2382 26.3729 19.7848C26.3734 20.3319 26.1065 20.8337 25.6801 21.0869Z" fill="#000034" fill-opacity="0.74"/>
</svg>
