<svg width="32" height="32" viewBox="0 0 32 32" fill="none" xmlns="http://www.w3.org/2000/svg">
    <path
        d="M29.3337 16.0001C29.3337 23.3601 23.3603 29.3334 16.0003 29.3334C8.64033 29.3334 2.66699 23.3601 2.66699 16.0001C2.66699 8.64008 8.64033 2.66675 16.0003 2.66675M29.3337 8.00008V2.66675M29.3337 2.66675H24.0003M29.3337 2.66675L22.667 9.33341M16.3283 20.6131V22.8412M13.5555 20.6131V22.8412M16.3283 9.50789V11.7337M13.5555 9.50789V11.7337M14.5524 11.7337H10.6725M14.5524 20.6131H10.6725M12.4434 11.7332H17.9902C19.2191 11.7332 20.216 12.8401 20.216 13.9613C20.216 15.1902 19.2191 16.1871 17.9902 16.1871H12.4434V11.7332ZM12.4485 16.1734H18.7873C20.1939 16.1734 21.3281 17.1714 21.3281 18.4015C21.3281 19.6304 20.1939 20.6273 18.7873 20.6273H12.4485V16.1734Z"
        stroke="#98A2B3" stroke-width="2" stroke-miterlimit="10" stroke-linecap="round" stroke-linejoin="round"/>
</svg>
