<svg width="32" height="32" viewBox="0 0 32 32" fill="none" xmlns="http://www.w3.org/2000/svg">
    <path
        d="M17.0003 8C17.0003 7.44772 16.5526 7 16.0003 7C15.448 7 15.0003 7.44772 15.0003 8L17.0003 8ZM15.0003 26.6667C15.0003 27.219 15.448 27.6667 16.0003 27.6667C16.5526 27.6667 17.0003 27.219 17.0003 26.6667H15.0003ZM16.0003 8.02171L15.2567 8.69031C15.4464 8.90124 15.7167 9.02171 16.0003 9.02171C16.284 9.02171 16.5543 8.90124 16.744 8.69031L16.0003 8.02171ZM7.9744 4.38058L7.78736 5.36293L7.9744 4.38058ZM13.6526 26.9108L13.1777 27.7908H13.1777L13.6526 26.9108ZM7.9744 24.9773L7.78736 25.9596L7.9744 24.9773ZM24.0262 4.38058L24.2133 5.36293L24.0262 4.38058ZM18.3481 26.9108L18.823 27.7908L18.3481 26.9108ZM24.0262 24.9773L24.2133 25.9596L24.0262 24.9773ZM15.0003 8L15.0003 26.6667H17.0003L17.0003 8L15.0003 8ZM16.744 7.35312C15.6431 6.12877 12.7663 4.275 8.16144 3.39823L7.78736 5.36293C12.0923 6.1826 14.5258 7.8774 15.2567 8.69031L16.744 7.35312ZM14.1275 26.0307C12.6667 25.2424 10.6797 24.4744 8.16144 23.9949L7.78736 25.9596C10.1112 26.4021 11.9032 27.103 13.1777 27.7908L14.1275 26.0307ZM1.66699 9.39482V19.0066H3.66699V9.39482H1.66699ZM8.16144 23.9949C6.78194 23.7323 5.82291 23.5484 5.12682 23.3416C4.42457 23.1328 4.1746 22.9496 4.06163 22.8098L2.50595 24.0667C3.00978 24.6903 3.74717 25.018 4.55706 25.2587C5.37311 25.5012 6.45099 25.7052 7.78736 25.9596L8.16144 23.9949ZM1.66699 19.0066C1.66699 20.2063 1.66559 21.1879 1.74999 21.9616C1.83563 22.7467 2.02179 23.4675 2.50595 24.0667L4.06163 22.8098C3.92899 22.6456 3.80675 22.3732 3.73819 21.7448C3.6684 21.1049 3.66699 20.2524 3.66699 19.0066H1.66699ZM8.16144 3.39823C7.06964 3.19035 6.11862 3.00534 5.32184 3.00012C4.4556 2.99444 3.68115 3.1971 2.97736 3.80017L4.27872 5.31888C4.53596 5.09844 4.80626 4.99678 5.30872 5.00007C5.88065 5.00383 6.62229 5.1411 7.78736 5.36293L8.16144 3.39823ZM3.66699 9.39482C3.66699 8.02491 3.66982 7.1138 3.77522 6.43688C3.87356 5.80527 4.04125 5.52236 4.27872 5.31888L2.97736 3.80017C2.25378 4.4202 1.94095 5.21767 1.79903 6.1292C1.66416 6.99542 1.66699 8.09021 1.66699 9.39482H3.66699ZM16.744 8.69031C17.4748 7.8774 19.9083 6.1826 24.2133 5.36293L23.8392 3.39823C19.2343 4.275 16.3575 6.12877 15.2567 7.35312L16.744 8.69031ZM18.823 27.7908C20.0975 27.103 21.8895 26.4021 24.2133 25.9596L23.8392 23.9949C21.321 24.4744 19.334 25.2424 17.8732 26.0307L18.823 27.7908ZM28.3337 9.39482V19.0066H30.3337V9.39482H28.3337ZM24.2133 25.9596C25.5497 25.7052 26.6275 25.5012 27.4436 25.2587C28.2535 25.018 28.9909 24.6903 29.4947 24.0667L27.939 22.8098C27.8261 22.9496 27.5761 23.1328 26.8738 23.3416C26.1777 23.5484 25.2187 23.7323 23.8392 23.9949L24.2133 25.9596ZM28.3337 19.0066C28.3337 20.2524 28.3323 21.1049 28.2625 21.7448C28.1939 22.3732 28.0717 22.6456 27.939 22.8098L29.4947 24.0667C29.9789 23.4675 30.165 22.7467 30.2507 21.9616C30.3351 21.1879 30.3337 20.2063 30.3337 19.0066H28.3337ZM24.2133 5.36293C25.3784 5.1411 26.12 5.00383 26.6919 5.00007C27.1944 4.99678 27.4647 5.09844 27.7219 5.31888L29.0233 3.80017C28.3195 3.1971 27.545 2.99444 26.6788 3.00012C25.882 3.00534 24.931 3.19035 23.8392 3.39823L24.2133 5.36293ZM30.3337 9.39482C30.3337 8.09021 30.3365 6.99542 30.2016 6.1292C30.0597 5.21767 29.7469 4.4202 29.0233 3.80017L27.7219 5.31888C27.9594 5.52236 28.1271 5.80527 28.2254 6.43688C28.3308 7.1138 28.3337 8.02491 28.3337 9.39482H30.3337ZM13.1777 27.7908C13.841 28.1488 14.3704 28.4348 14.7742 28.6289C14.9773 28.7265 15.173 28.813 15.3551 28.8764C15.5257 28.9357 15.7531 29 16.0003 29V27C16.0828 27 16.1027 27.0189 16.0125 26.9875C15.9337 26.9601 15.8154 26.9104 15.6409 26.8264C15.2895 26.6575 14.8097 26.3989 14.1275 26.0307L13.1777 27.7908ZM17.8732 26.0307C17.1909 26.3989 16.7111 26.6575 16.3598 26.8264C16.1852 26.9104 16.0669 26.9601 15.9882 26.9875C15.898 27.0189 15.9178 27 16.0003 27V29C16.2475 29 16.4749 28.9357 16.6456 28.8764C16.8277 28.813 17.0234 28.7265 17.2264 28.6289C17.6302 28.4348 18.1597 28.1488 18.823 27.7908L17.8732 26.0307Z"
        fill="#98A2B3"/>
</svg>
