<svg width="32" height="32" viewBox="0 0 32 32" fill="none" xmlns="http://www.w3.org/2000/svg">
    <path
        d="M24.9997 2.6665C24.9997 2.11422 24.552 1.6665 23.9997 1.6665C23.4474 1.6665 22.9997 2.11422 22.9997 2.6665H24.9997ZM22.9997 5.33317C22.9997 5.88546 23.4474 6.33317 23.9997 6.33317C24.552 6.33317 24.9997 5.88546 24.9997 5.33317H22.9997ZM8.99967 2.6665C8.99967 2.11422 8.55196 1.6665 7.99967 1.6665C7.44739 1.6665 6.99967 2.11422 6.99967 2.6665H8.99967ZM6.99967 5.33317C6.99967 5.88546 7.44739 6.33317 7.99967 6.33317C8.55196 6.33317 8.99967 5.88546 8.99967 5.33317H6.99967ZM15.9937 16.3332C15.4414 16.3332 14.9937 16.7809 14.9937 17.3332C14.9937 17.8855 15.4414 18.3332 15.9937 18.3332V16.3332ZM16.0057 18.3332C16.5579 18.3332 17.0057 17.8855 17.0057 17.3332C17.0057 16.7809 16.5579 16.3332 16.0057 16.3332V18.3332ZM15.9937 21.6665C15.4414 21.6665 14.9937 22.1142 14.9937 22.6665C14.9937 23.2188 15.4414 23.6665 15.9937 23.6665V21.6665ZM16.0057 23.6665C16.5579 23.6665 17.0057 23.2188 17.0057 22.6665C17.0057 22.1142 16.5579 21.6665 16.0057 21.6665V23.6665ZM21.321 16.3332C20.7688 16.3332 20.321 16.7809 20.321 17.3332C20.321 17.8855 20.7688 18.3332 21.321 18.3332V16.3332ZM21.333 18.3332C21.8853 18.3332 22.333 17.8855 22.333 17.3332C22.333 16.7809 21.8853 16.3332 21.333 16.3332V18.3332ZM10.6663 16.3332C10.1141 16.3332 9.66634 16.7809 9.66634 17.3332C9.66634 17.8855 10.1141 18.3332 10.6663 18.3332V16.3332ZM10.6783 18.3332C11.2306 18.3332 11.6783 17.8855 11.6783 17.3332C11.6783 16.7809 11.2306 16.3332 10.6783 16.3332V18.3332ZM10.6663 21.6665C10.1141 21.6665 9.66634 22.1142 9.66634 22.6665C9.66634 23.2188 10.1141 23.6665 10.6663 23.6665V21.6665ZM10.6783 23.6665C11.2306 23.6665 11.6783 23.2188 11.6783 22.6665C11.6783 22.1142 11.2306 21.6665 10.6783 21.6665V23.6665ZM4.66634 9.6665C4.11406 9.6665 3.66634 10.1142 3.66634 10.6665C3.66634 11.2188 4.11406 11.6665 4.66634 11.6665V9.6665ZM27.333 11.6665C27.8853 11.6665 28.333 11.2188 28.333 10.6665C28.333 10.1142 27.8853 9.6665 27.333 9.6665V11.6665ZM3.99967 9.6665C3.44739 9.6665 2.99967 10.1142 2.99967 10.6665C2.99967 11.2188 3.44739 11.6665 3.99967 11.6665V9.6665ZM27.9997 11.6665C28.552 11.6665 28.9997 11.2188 28.9997 10.6665C28.9997 10.1142 28.552 9.6665 27.9997 9.6665V11.6665ZM22.9997 2.6665V5.33317H24.9997V2.6665H22.9997ZM6.99967 2.6665V5.33317H8.99967V2.6665H6.99967ZM15.9937 18.3332H16.0057V16.3332H15.9937V18.3332ZM15.9937 23.6665H16.0057V21.6665H15.9937V23.6665ZM21.321 18.3332H21.333V16.3332H21.321V18.3332ZM10.6663 18.3332H10.6783V16.3332H10.6663V18.3332ZM10.6663 23.6665H10.6783V21.6665H10.6663V23.6665ZM4.66634 11.6665H27.333V9.6665H4.66634V11.6665ZM14.733 4.99984H17.2663V2.99984H14.733V4.99984ZM27.6663 16.3242V17.0088H29.6663V16.3242H27.6663ZM17.2663 28.3332H14.733V30.3332H17.2663V28.3332ZM4.33301 17.0088V16.3242H2.33301V17.0088H4.33301ZM14.733 28.3332C12.0155 28.3332 10.086 28.3307 8.62239 28.118C7.19605 27.9106 6.35862 27.5217 5.7366 26.8493L4.2684 28.2074C5.31587 29.3398 6.65669 29.8533 8.33472 30.0972C9.97548 30.3356 12.0765 30.3332 14.733 30.3332V28.3332ZM2.33301 17.0088C2.33301 19.8875 2.33119 22.1397 2.54934 23.8938C2.77014 25.6693 3.23119 27.086 4.2684 28.2074L5.7366 26.8493C5.10432 26.1657 4.73062 25.2276 4.53405 23.647C4.33483 22.0451 4.33301 19.9399 4.33301 17.0088H2.33301ZM27.6663 17.0088C27.6663 19.9399 27.6645 22.0451 27.4653 23.647C27.2687 25.2276 26.895 26.1657 26.2627 26.8493L27.7309 28.2074C28.7682 27.086 29.2292 25.6693 29.45 23.8938C29.6682 22.1397 29.6663 19.8875 29.6663 17.0088H27.6663ZM17.2663 30.3332C19.9229 30.3332 22.0239 30.3356 23.6646 30.0972C25.3427 29.8533 26.6835 29.3398 27.7309 28.2074L26.2627 26.8493C25.6407 27.5217 24.8033 27.9106 23.377 28.118C21.9133 28.3307 19.9838 28.3332 17.2663 28.3332V30.3332ZM17.2663 4.99984C19.9838 4.99984 21.9133 5.00231 23.377 5.21505C24.8033 5.42236 25.6407 5.81127 26.2627 6.48373L27.7309 5.12565C26.6835 3.99326 25.3427 3.47974 23.6646 3.23584C22.0239 2.99736 19.9229 2.99984 17.2663 2.99984V4.99984ZM29.6663 16.3242C29.6663 13.4455 29.6682 11.1933 29.45 9.43918C29.2292 7.66373 28.7682 6.24696 27.7309 5.12565L26.2627 6.48373C26.895 7.16728 27.2687 8.10537 27.4653 9.68601C27.6645 11.2879 27.6663 13.3931 27.6663 16.3242H29.6663ZM14.733 2.99984C12.0765 2.99984 9.97548 2.99736 8.33472 3.23584C6.65669 3.47974 5.31587 3.99326 4.2684 5.12565L5.7366 6.48373C6.35862 5.81127 7.19605 5.42236 8.62239 5.21505C10.086 5.00231 12.0155 4.99984 14.733 4.99984V2.99984ZM4.33301 16.3242C4.33301 13.3931 4.33483 11.2879 4.53405 9.68601C4.73062 8.10537 5.10432 7.16728 5.7366 6.48373L4.2684 5.12565C3.23119 6.24696 2.77014 7.66373 2.54934 9.43918C2.33119 11.1933 2.33301 13.4455 2.33301 16.3242H4.33301ZM3.99967 11.6665H27.9997V9.6665H3.99967V11.6665Z"
        fill="#98A2B3"/>
</svg>
