<svg width="32" height="32" viewBox="0 0 32 32" fill="none" xmlns="http://www.w3.org/2000/svg">
    <path
        d="M25.1737 20.7L24.1756 20.6383L25.1737 20.7ZM26.9981 7.39487C27.0322 6.84364 26.6129 6.36915 26.0617 6.33508C25.5105 6.301 25.036 6.72024 25.0019 7.27147L26.9981 7.39487ZM6.99818 7.27291C6.9649 6.72163 6.49102 6.30171 5.93974 6.33499C5.38846 6.36827 4.96854 6.84215 5.00182 7.39343L6.99818 7.27291ZM6.80614 20.6867L7.80433 20.6264L6.80614 20.6867ZM24.001 27.0503L24.8213 27.6223V27.6223L24.001 27.0503ZM22.4009 28.5545L21.8807 27.7005H21.8807L22.4009 28.5545ZM7.97158 27.0463L8.79238 26.4751L8.79238 26.4751L7.97158 27.0463ZM9.57207 28.5531L10.0928 27.6993L9.57207 28.5531ZM4 6.33317C3.44772 6.33317 3 6.78089 3 7.33317C3 7.88546 3.44772 8.33317 4 8.33317V6.33317ZM28 8.33317C28.5523 8.33317 29 7.88546 29 7.33317C29 6.78089 28.5523 6.33317 28 6.33317V8.33317ZM20.4974 5.45547L19.5976 5.89168L19.5976 5.89168L20.4974 5.45547ZM11.5448 5.56151L12.4547 5.97629L11.5448 5.56151ZM12.9564 3.21739L13.5651 4.01081L13.5651 4.01081L12.9564 3.21739ZM13.3276 2.97866L12.8581 2.09572V2.09572L13.3276 2.97866ZM19.069 3.19558L19.6668 2.39398L19.6668 2.39398L19.069 3.19558ZM18.7027 2.96611L18.2422 3.85375V3.85376L18.7027 2.96611ZM11.6667 21.9998C11.6667 22.5521 12.1144 22.9998 12.6667 22.9998C13.219 22.9998 13.6667 22.5521 13.6667 21.9998H11.6667ZM13.6667 13.9998C13.6667 13.4476 13.219 12.9998 12.6667 12.9998C12.1144 12.9998 11.6667 13.4476 11.6667 13.9998H13.6667ZM18.3333 21.9998C18.3333 22.5521 18.781 22.9998 19.3333 22.9998C19.8856 22.9998 20.3333 22.5521 20.3333 21.9998H18.3333ZM20.3333 13.9998C20.3333 13.4476 19.8856 12.9998 19.3333 12.9998C18.781 12.9998 18.3333 13.4476 18.3333 13.9998H20.3333ZM26.1718 20.7617L26.9981 7.39487L25.0019 7.27147L24.1756 20.6383L26.1718 20.7617ZM5.00182 7.39343L5.80796 20.747L7.80433 20.6264L6.99818 7.27291L5.00182 7.39343ZM24.1756 20.6383C24.0688 22.3652 23.9921 23.5899 23.8415 24.5388C23.6936 25.4717 23.4874 26.0385 23.1807 26.4784L24.8213 27.6223C25.3706 26.8344 25.6453 25.9337 25.8168 24.8521C25.9859 23.7866 26.0674 22.4498 26.1718 20.7617L24.1756 20.6383ZM15.9903 30.3332C17.6817 30.3332 19.0209 30.3342 20.0949 30.2313C21.185 30.1268 22.101 29.9082 22.9212 29.4085L21.8807 27.7005C21.4228 27.9795 20.8442 28.1503 19.904 28.2404C18.9476 28.3321 17.7206 28.3332 15.9903 28.3332V30.3332ZM23.1807 26.4784C22.8369 26.9715 22.3941 27.3877 21.8807 27.7005L22.9212 29.4085C23.6716 28.9514 24.3187 28.3431 24.8213 27.6223L23.1807 26.4784ZM5.80796 20.747C5.91002 22.4375 5.98975 23.7761 6.15751 24.8432C6.3278 25.9263 6.60159 26.8283 7.15078 27.6175L8.79238 26.4751C8.48583 26.0346 8.28013 25.4668 8.13325 24.5325C7.98384 23.5822 7.90873 22.3558 7.80433 20.6264L5.80796 20.747ZM15.9903 28.3332C14.2578 28.3332 13.0291 28.3321 12.0715 28.2402C11.1301 28.1499 10.551 27.9788 10.0928 27.6993L9.05136 29.4068C9.87218 29.9075 10.7891 30.1264 11.8805 30.2311C12.9557 30.3342 14.2967 30.3332 15.9903 30.3332V28.3332ZM7.15078 27.6175C7.65318 28.3394 8.30046 28.9488 9.05136 29.4068L10.0928 27.6993C9.57901 27.386 9.13614 26.969 8.79238 26.4751L7.15078 27.6175ZM4 8.33317H10.7372V6.33317H4V8.33317ZM10.7372 8.33317H21.4076V6.33317H10.7372V8.33317ZM21.4076 8.33317H28V6.33317H21.4076V8.33317ZM19.5976 5.89168L20.5078 7.76938L22.3075 6.89696L21.3972 5.01926L19.5976 5.89168ZM10.6349 5.14674L9.82731 6.9184L11.6472 7.74794L12.4547 5.97629L10.6349 5.14674ZM12.4547 5.97629C12.7569 5.31347 12.9568 4.87715 13.1424 4.55193C13.3185 4.24321 13.4449 4.10302 13.5651 4.01081L12.3477 2.42398C11.9404 2.73648 11.6556 3.12188 11.4052 3.56081C11.1642 3.98324 10.9221 4.51662 10.6349 5.14674L12.4547 5.97629ZM16.046 1.6665C15.3535 1.6665 14.7678 1.66555 14.2834 1.70964C13.7802 1.75546 13.3114 1.85469 12.8581 2.09572L13.7971 3.8616C13.9308 3.79048 14.1108 3.73363 14.4648 3.70141C14.8377 3.66746 15.3176 3.6665 16.046 3.6665V1.6665ZM13.5651 4.01081C13.6381 3.95475 13.7157 3.90484 13.7971 3.8616L12.8581 2.09572C12.6792 2.19085 12.5085 2.30064 12.3477 2.42398L13.5651 4.01081ZM21.3972 5.01926C21.1026 4.41146 20.854 3.89659 20.6094 3.48901C20.3551 3.0654 20.0693 2.69417 19.6668 2.39398L18.4711 3.99717C18.5901 4.08595 18.7162 4.22101 18.8946 4.51829C19.0826 4.83159 19.2876 5.25219 19.5976 5.89168L21.3972 5.01926ZM16.046 3.6665C16.7567 3.6665 17.2246 3.66743 17.5885 3.69998C17.9339 3.73087 18.1104 3.78538 18.2422 3.85375L19.1632 2.07846C18.7175 1.84723 18.2588 1.75194 17.7667 1.70793C17.2932 1.66558 16.7215 1.6665 16.046 1.6665V3.6665ZM19.6668 2.39398C19.5078 2.27536 19.3393 2.16983 19.1632 2.07846L18.2422 3.85376C18.3222 3.89529 18.3988 3.94325 18.4711 3.99718L19.6668 2.39398ZM13.6667 21.9998L13.6667 13.9998H11.6667L11.6667 21.9998H13.6667ZM20.3333 21.9998V13.9998H18.3333V21.9998H20.3333Z"
        fill="#98A2B3"/>
</svg>
