<svg width="32" height="32" viewBox="0 0 32 32" fill="none" xmlns="http://www.w3.org/2000/svg">
    <path
        d="M6.93491 25.1521L6.23111 25.8625L6.93491 25.1521ZM11.1424 5.58281C11.6484 5.36153 11.8792 4.77194 11.6579 4.26593C11.4367 3.75991 10.8471 3.52908 10.3411 3.75036L11.1424 5.58281ZM27.8747 11.4716L28.7986 11.0889L27.8747 11.4716ZM20.5279 4.12486L20.9106 3.20098L20.5279 4.12486ZM16.6215 3.72628L17.1469 4.57713L16.6215 3.72628ZM16.4597 3.83441L15.8746 3.02338L16.4597 3.83441ZM28.2733 15.3781L27.4224 14.8527L28.2733 15.3781ZM28.1652 15.5399L27.3541 14.9549L28.1652 15.5399ZM7.63871 24.4417C2.0361 18.8912 3.78492 8.80018 11.1424 5.58281L10.3411 3.75036C1.66757 7.54322 -0.358128 19.3345 6.23111 25.8625L7.63871 24.4417ZM26.4117 20.7149C23.3467 27.9783 13.344 30.0939 7.63871 24.4417L6.23111 25.8625C12.9596 32.5284 24.6486 30.0374 28.2543 21.4925L26.4117 20.7149ZM28.7986 11.0889C28.0661 9.32062 26.9925 7.71388 25.6391 6.36046L24.2249 7.77467C25.3926 8.94237 26.3189 10.3286 26.9508 11.8543L28.7986 11.0889ZM25.6391 6.36046C24.2857 5.00704 22.6789 3.93344 20.9106 3.20098L20.1452 5.04874C21.6709 5.68069 23.0572 6.60697 24.2249 7.77467L25.6391 6.36046ZM14.333 8.4224V11.2366H16.333V8.4224H14.333ZM20.763 17.6666H23.5772V15.6666H20.763V17.6666ZM20.9106 3.20098C20.0441 2.84207 19.2396 2.50213 18.4957 2.38243C17.6576 2.24756 16.8921 2.3839 16.0961 2.87543L17.1469 4.57713C17.5329 4.33874 17.8125 4.29821 18.178 4.35703C18.6378 4.43101 19.1954 4.65531 20.1452 5.04874L20.9106 3.20098ZM16.333 8.4224C16.333 7.12436 16.3372 6.2935 16.4557 5.67858C16.5598 5.13884 16.7323 4.87079 17.0447 4.64543L15.8746 3.02338C15.0604 3.61074 14.6695 4.37826 14.4919 5.30012C14.3287 6.14681 14.333 7.20359 14.333 8.4224H16.333ZM16.0961 2.87543C16.0316 2.91526 15.9361 2.97903 15.8746 3.02338L17.0447 4.64543C17.0674 4.62904 17.1231 4.59184 17.1469 4.57713L16.0961 2.87543ZM14.333 11.2366C14.333 12.4882 14.3308 13.5275 14.4413 14.3489C14.5556 15.1991 14.8067 15.9641 15.4211 16.5785L16.8353 15.1643C16.6545 14.9834 16.5079 14.7109 16.4235 14.0824C16.3351 13.4252 16.333 12.5447 16.333 11.2366H14.333ZM20.763 15.6666C19.4549 15.6666 18.5744 15.6645 17.9171 15.5761C17.2887 15.4916 17.0161 15.3451 16.8353 15.1643L15.4211 16.5785C16.0354 17.1929 16.8004 17.444 17.6506 17.5583C18.4721 17.6687 19.5114 17.6666 20.763 17.6666V15.6666ZM26.9508 11.8543C27.3442 12.8041 27.5685 13.3618 27.6425 13.8216C27.7013 14.1871 27.6608 14.4666 27.4224 14.8527L29.1241 15.9035C29.6157 15.1075 29.752 14.342 29.6171 13.5038C29.4974 12.76 29.1575 11.9554 28.7986 11.0889L26.9508 11.8543ZM23.5772 17.6666C24.796 17.6666 25.8528 17.6708 26.6994 17.5077C27.6213 17.33 28.3888 16.9392 28.9762 16.1249L27.3541 14.9549C27.1288 15.2673 26.8607 15.4398 26.321 15.5438C25.7061 15.6623 24.8752 15.6666 23.5772 15.6666V17.6666ZM27.4224 14.8527C27.4077 14.8765 27.3705 14.9322 27.3541 14.9549L28.9762 16.1249C29.0205 16.0634 29.0843 15.968 29.1241 15.9035L27.4224 14.8527Z"
        fill="#98A2B3"/>
</svg>
