<svg width="32" height="32" viewBox="0 0 32 32" fill="none" xmlns="http://www.w3.org/2000/svg">
    <path
        d="M30.0408 3.37361C30.4313 2.98309 30.4313 2.34992 30.0408 1.9594C29.6502 1.56887 29.0171 1.56887 28.6266 1.9594L30.0408 3.37361ZM25.9599 4.62606C25.5694 5.01659 25.5694 5.64975 25.9599 6.04028C26.3504 6.4308 26.9836 6.4308 27.3741 6.04028L25.9599 4.62606ZM25.9959 15.6824L25.2888 14.9752V14.9752L25.9959 15.6824ZM22.1247 16.6502L22.8318 15.9431L22.1247 16.6502ZM25.0281 16.6502L25.7352 17.3573V17.3573L25.0281 16.6502ZM15.35 6.97205L14.6429 6.26494L15.35 6.97205ZM15.35 9.87549L14.6429 10.5826L15.35 9.87549ZM16.3178 6.00424L17.0249 6.71135L16.3178 6.00424ZM6.04077 27.3736C6.43129 26.9831 6.43129 26.3499 6.04077 25.9594C5.65024 25.5689 5.01708 25.5689 4.62655 25.9594L6.04077 27.3736ZM1.95989 28.6261C1.56936 29.0166 1.56936 29.6498 1.95989 30.0403C2.35041 30.4308 2.98357 30.4308 3.3741 30.0403L1.95989 28.6261ZM15.6828 25.9954L16.3899 26.7025V26.7025L15.6828 25.9954ZM16.6507 22.1242L17.3578 21.4171L16.6507 22.1242ZM16.6507 25.0276L15.9435 24.3205H15.9435L16.6507 25.0276ZM6.97254 15.3495L7.67965 16.0566L6.97254 15.3495ZM9.87597 15.3495L9.16887 16.0566L9.87597 15.3495ZM6.00473 16.3173L5.29762 15.6102H5.29762L6.00473 16.3173ZM13.2932 11.9594C12.9027 12.3499 12.9027 12.9831 13.2932 13.3736C13.6837 13.7641 14.3169 13.7641 14.7074 13.3736L13.2932 11.9594ZM16.7074 11.3736C17.098 10.9831 17.098 10.3499 16.7074 9.9594C16.3169 9.56887 15.6837 9.56887 15.2932 9.9594L16.7074 11.3736ZM18.6266 17.2927C18.236 17.6833 18.236 18.3164 18.6266 18.7069C19.0171 19.0975 19.6502 19.0975 20.0408 18.7069L18.6266 17.2927ZM22.0408 16.7069C22.4313 16.3164 22.4313 15.6833 22.0408 15.2927C21.6502 14.9022 21.0171 14.9022 20.6266 15.2927L22.0408 16.7069ZM28.6266 1.9594L25.9599 4.62606L27.3741 6.04028L30.0408 3.37361L28.6266 1.9594ZM15.6107 5.29713L14.6429 6.26494L16.0571 7.67916L17.0249 6.71135L15.6107 5.29713ZM14.6429 10.5826L21.4176 17.3573L22.8318 15.9431L16.0571 9.16838L14.6429 10.5826ZM25.7352 17.3573L26.703 16.3895L25.2888 14.9752L24.321 15.9431L25.7352 17.3573ZM26.703 16.3895C29.7661 13.3264 29.7661 8.36019 26.703 5.29713L25.2888 6.71135C27.5708 8.99336 27.5708 12.6932 25.2888 14.9752L26.703 16.3895ZM17.0249 6.71135C19.3069 4.42933 23.0068 4.42933 25.2888 6.71135L26.703 5.29713C23.64 2.23407 18.6738 2.23407 15.6107 5.29713L17.0249 6.71135ZM16.0571 9.16838C15.7511 8.86237 15.6696 8.60686 15.6671 8.43085C15.6646 8.2615 15.7327 8.00357 16.0571 7.67916L14.6429 6.26494C14.0283 6.8795 13.6554 7.63232 13.6673 8.45946C13.679 9.27993 14.067 10.0067 14.6429 10.5826L16.0571 9.16838ZM24.321 15.9431C24.015 16.2491 23.7595 16.3306 23.5835 16.3331C23.4141 16.3355 23.1562 16.2675 22.8318 15.9431L21.4176 17.3573C22.0321 17.9718 22.7849 18.3447 23.6121 18.3329C24.4326 18.3212 25.1593 17.9332 25.7352 17.3573L24.321 15.9431ZM4.62655 25.9594L1.95989 28.6261L3.3741 30.0403L6.04077 27.3736L4.62655 25.9594ZM6.71183 17.0244L7.67965 16.0566L6.26543 14.6424L5.29762 15.6102L6.71183 17.0244ZM9.16887 16.0566L15.9435 22.8313L17.3578 21.4171L10.5831 14.6424L9.16887 16.0566ZM15.9435 24.3205L14.9757 25.2883L16.3899 26.7025L17.3578 25.7347L15.9435 24.3205ZM14.9757 25.2883C12.6937 27.5703 8.99385 27.5703 6.71183 25.2883L5.29762 26.7025C8.36068 29.7656 13.3269 29.7656 16.3899 26.7025L14.9757 25.2883ZM5.29762 15.6102C2.23456 18.6733 2.23456 23.6395 5.29762 26.7025L6.71183 25.2883C4.42982 23.0063 4.42982 19.3064 6.71183 17.0244L5.29762 15.6102ZM10.5831 14.6424C10.0071 14.0665 9.28042 13.6785 8.45995 13.6668C7.63281 13.6549 6.87999 14.0278 6.26543 14.6424L7.67965 16.0566C8.00406 15.7322 8.26198 15.6641 8.43134 15.6666C8.60735 15.6691 8.86286 15.7506 9.16887 16.0566L10.5831 14.6424ZM17.3578 25.7347C17.9337 25.1588 18.3217 24.4321 18.3334 23.6116C18.3452 22.7845 17.9723 22.0316 17.3578 21.4171L15.9435 22.8313C16.268 23.1557 16.336 23.4136 16.3336 23.583C16.3311 23.759 16.2496 24.0145 15.9435 24.3205L17.3578 25.7347ZM14.7074 13.3736L16.7074 11.3736L15.2932 9.9594L13.2932 11.9594L14.7074 13.3736ZM20.0408 18.7069L22.0408 16.7069L20.6266 15.2927L18.6266 17.2927L20.0408 18.7069Z"
        fill="#98A2B3"/>
</svg>
