<svg width="32" height="32" viewBox="0 0 32 32" fill="none" xmlns="http://www.w3.org/2000/svg">
    <path
        d="M22.6668 11.9998C22.6637 8.05705 22.604 6.01478 21.4564 4.61641C21.2348 4.34636 20.9871 4.09874 20.7171 3.87712C19.242 2.6665 17.0503 2.6665 12.667 2.6665C8.28368 2.6665 6.09203 2.6665 4.6169 3.87711C4.34685 4.09874 4.09923 4.34636 3.8776 4.61641C2.66699 6.09154 2.66699 8.28319 2.66699 12.6665C2.66699 17.0498 2.66699 19.2415 3.8776 20.7166C4.09923 20.9866 4.34685 21.2343 4.61689 21.4559C6.01527 22.6035 8.05754 22.6632 12.0003 22.6663M20.0001 29.3332H21.3335C25.1047 29.3332 26.9903 29.3332 28.1619 28.1616C29.3335 26.99 29.3335 25.1044 29.3335 21.3332V19.9998C29.3335 16.2286 29.3335 14.343 28.1619 13.1714C26.9903 11.9998 25.1047 11.9998 21.3335 11.9998H20.0001C16.2289 11.9998 14.3433 11.9998 13.1717 13.1714C12.0001 14.343 12.0001 16.2286 12.0001 19.9998V21.3332C12.0001 25.1044 12.0001 26.99 13.1717 28.1616C14.3433 29.3332 16.2289 29.3332 20.0001 29.3332Z"
        stroke="#98A2B3" stroke-width="2" stroke-linecap="round" stroke-linejoin="round"/>
</svg>
