<svg width="32" height="32" viewBox="0 0 32 32" fill="none" xmlns="http://www.w3.org/2000/svg">
    <path fill-rule="evenodd" clip-rule="evenodd"
          d="M15.9997 2.33325H15.9234H15.9234C13.0025 2.33323 10.7083 2.33322 8.91704 2.57404C7.0815 2.82083 5.62516 3.33687 4.48089 4.48114C3.33663 5.6254 2.82058 7.08174 2.5738 8.91728C2.33298 10.7085 2.33299 13.0027 2.33301 15.9237V15.9237V15.9999V16.0761V16.0762C2.33299 18.9971 2.33298 21.2913 2.5738 23.0826C2.82058 24.9181 3.33663 26.3744 4.48089 27.5187C5.62516 28.663 7.0815 29.179 8.91704 29.4258C10.7083 29.6666 13.0025 29.6666 15.9234 29.6666H15.9997H16.0759C18.9969 29.6666 21.2911 29.6666 23.0823 29.4258C24.9179 29.179 26.3742 28.663 27.5185 27.5187C28.6627 26.3744 29.1788 24.9181 29.4256 23.0826C29.6664 21.2913 29.6664 18.9971 29.6663 16.0762V15.9999V15.9237C29.6664 13.0027 29.6664 10.7085 29.4256 8.91728C29.1788 7.08174 28.6627 5.6254 27.5185 4.48114C26.3742 3.33687 24.9179 2.82083 23.0823 2.57404C21.2911 2.33322 18.9969 2.33323 16.0759 2.33325H16.0759H15.9997ZM5.89511 5.89535C6.60583 5.18462 7.56977 4.77317 9.18353 4.55621C10.8261 4.33538 12.9858 4.33325 15.9997 4.33325C19.0135 4.33325 21.1733 4.33538 22.8158 4.55621C24.4296 4.77317 25.3935 5.18462 26.1042 5.89535C26.815 6.60608 27.2264 7.57001 27.4434 9.18378C27.6642 10.8263 27.6663 12.9861 27.6663 15.9999C27.6663 19.0138 27.6642 21.1735 27.4434 22.8161C27.2264 24.4298 26.815 25.3938 26.1042 26.1045C25.3935 26.8152 24.4296 27.2267 22.8158 27.4436C21.1733 27.6645 19.0135 27.6666 15.9997 27.6666C12.9858 27.6666 10.8261 27.6645 9.18353 27.4436C7.56977 27.2267 6.60583 26.8152 5.89511 26.1045C5.18438 25.3938 4.77293 24.4298 4.55596 22.8161C4.33513 21.1735 4.33301 19.0138 4.33301 15.9999C4.33301 12.9861 4.33513 10.8263 4.55596 9.18378C4.77293 7.57001 5.18438 6.60608 5.89511 5.89535ZM20.7071 12.7071C21.0976 12.3166 21.0976 11.6835 20.7071 11.2929C20.3166 10.9024 19.6835 10.9024 19.2929 11.2929L15.9997 14.5858L12.7071 11.2934C12.3165 10.9029 11.6834 10.9029 11.2929 11.2934C10.9024 11.684 10.9024 12.3171 11.2929 12.7077L14.5855 16L11.2929 19.2923C10.9024 19.6829 10.9024 20.316 11.2929 20.7066C11.6834 21.0971 12.3165 21.0971 12.7071 20.7066L15.9997 17.4142L19.2929 20.7071C19.6835 21.0976 20.3166 21.0976 20.7071 20.7071C21.0976 20.3165 21.0976 19.6834 20.7071 19.2929L17.414 16L20.7071 12.7071Z"
          fill="#98A2B3"/>
</svg>
