<svg width="32" height="32" viewBox="0 0 32 32" fill="none" xmlns="http://www.w3.org/2000/svg">
    <path
        d="M4.66699 17.3332V16.2616C4.66699 12.3051 4.66699 10.3268 5.29224 8.74682C6.29741 6.20679 8.42318 4.20323 11.1181 3.25585C12.7945 2.66655 14.8934 2.66655 19.0912 2.66655C21.49 2.66655 22.6894 2.66655 23.6473 3.00329C25.1873 3.54465 26.402 4.68954 26.9764 6.14099C27.3337 7.04384 27.3337 8.17427 27.3337 10.4351V17.3332M4.66699 15.9998C4.66699 13.5452 6.65684 11.5554 9.11144 11.5554C9.99915 11.5554 11.0457 11.7109 11.9088 11.4797C12.6757 11.2742 13.2747 10.6752 13.4802 9.90832C13.7114 9.04522 13.5559 7.99866 13.5559 7.11095C13.5559 4.65635 15.5457 2.6665 18.0003 2.6665M10.0003 22.9593C9.92643 21.3721 8.82905 21.3332 7.34039 21.3332C5.04719 21.3332 4.66699 21.8746 4.66699 23.9998V26.6665C4.66699 28.7918 5.04719 29.3332 7.34039 29.3332C8.82905 29.3332 9.92643 29.2942 10.0003 27.707M27.3337 21.3332L24.9641 27.5928C24.525 28.753 24.3054 29.3331 23.9576 29.3331C23.6098 29.3331 23.3903 28.753 22.9511 27.5928L20.5815 21.3332M17.1683 21.3332H15.5937C14.9645 21.3332 14.6499 21.3332 14.4017 21.4347C13.5566 21.7803 13.5681 22.5928 13.5681 23.3332C13.5681 24.0735 13.5566 24.8861 14.4017 25.2317C14.6499 25.3332 14.9645 25.3332 15.5937 25.3332C16.223 25.3332 16.5376 25.3332 16.7857 25.4347C17.6197 25.7757 17.6195 26.5714 17.6194 27.3038V27.3626C17.6195 28.0949 17.6197 28.8906 16.7857 29.2317C16.5376 29.3332 16.223 29.3332 15.5937 29.3332H13.8788"
        stroke="#98A2B3" stroke-width="2" stroke-linecap="round"/>
</svg>
