<svg width="32" height="32" viewBox="0 0 32 32" fill="none" xmlns="http://www.w3.org/2000/svg">
    <path
        d="M16.667 2.6665H17.0306C21.3789 2.6665 23.553 2.6665 25.0629 3.73028C25.4955 4.03507 25.8796 4.39654 26.2034 4.80369C27.3337 6.22473 27.3337 8.27098 27.3337 12.3635V15.7574C27.3337 19.7083 27.3337 21.6838 26.7084 23.2615C25.7032 25.7979 23.5775 27.7987 20.8825 28.7447C19.2062 29.3332 17.1072 29.3332 12.9094 29.3332C10.5107 29.3332 9.31128 29.3332 8.35336 28.9969C6.81338 28.4563 5.59866 27.313 5.02428 25.8636C4.66699 24.9621 4.66699 23.8333 4.66699 21.5756V15.9998M27.3337 15.9998C27.3337 18.4544 25.3438 20.4443 22.8892 20.4443C22.0015 20.4443 20.9549 20.2887 20.0918 20.52C19.325 20.7255 18.726 21.3245 18.5205 22.0914C18.2892 22.9545 18.4448 24.001 18.4448 24.8887C18.4448 27.3433 16.4549 29.3332 14.0003 29.3332M9.33366 13.3332V2.6665M9.33366 13.3332C10.2673 13.3332 12.0116 10.6741 12.667 9.99984M9.33366 13.3332C8.40002 13.3332 6.6557 10.6741 6.00033 9.99984"
        stroke="#98A2B3" stroke-width="2" stroke-linecap="round" stroke-linejoin="round"/>
</svg>
