<svg width="32" height="32" viewBox="0 0 32 32" fill="none" xmlns="http://www.w3.org/2000/svg">
    <path
        d="M4.35416 29.2815L4.38031 28.2819H4.3803L4.35416 29.2815ZM2.7151 27.4214L3.71208 27.4991L2.7151 27.4214ZM6.38623 18.5925L5.65139 17.9143L6.38623 18.5925ZM2.75109 26.9594L1.75411 26.8817H1.75411L2.75109 26.9594ZM14.3345 25.5389L13.6408 24.8186L14.3345 25.5389ZM4.72748 29.2913L4.70133 30.2909H4.70134L4.72748 29.2913ZM28.8216 7.17441L29.7044 6.70472L28.8216 7.17441ZM26.8727 13.4625L26.179 12.7423L26.8727 13.4625ZM28.7608 11.4008L27.892 10.9056L28.7608 11.4008ZM24.9208 3.1896L24.4354 4.0639L24.9208 3.1896ZM18.7653 5.18044L19.5001 5.85868L18.7653 5.18044ZM20.7835 3.25174L20.2724 2.39225L20.7835 3.25174ZM18.0408 4.62606C17.6502 4.23554 17.0171 4.23554 16.6266 4.62606C16.236 5.01659 16.236 5.64975 16.6266 6.04028L18.0408 4.62606ZM25.9599 15.3736C26.3504 15.7641 26.9836 15.7641 27.3741 15.3736C27.7646 14.9831 27.7646 14.3499 27.3741 13.9594L25.9599 15.3736ZM18.667 28.3332C18.1147 28.3332 17.667 28.7809 17.667 29.3332C17.667 29.8855 18.1147 30.3332 18.667 30.3332V28.3332ZM29.3337 30.3332C29.8859 30.3332 30.3337 29.8855 30.3337 29.3332C30.3337 28.7809 29.8859 28.3332 29.3337 28.3332V30.3332ZM26.179 12.7423L13.6408 24.8186L15.0282 26.2591L27.5664 14.1828L26.179 12.7423ZM7.12107 19.2707L19.5001 5.85868L18.0304 4.5022L5.65139 17.9143L7.12107 19.2707ZM4.75362 28.2916L4.38031 28.2819L4.32802 30.2812L4.70133 30.2909L4.75362 28.2916ZM3.71208 27.4991L3.74807 27.0371L1.75411 26.8817L1.71812 27.3437L3.71208 27.4991ZM4.3803 28.2819C4.16761 28.2763 3.99915 28.2718 3.8545 28.2642C3.70925 28.2566 3.61406 28.247 3.54866 28.2361C3.42569 28.2156 3.51757 28.2087 3.60872 28.3121L2.10816 29.6344C2.44209 30.0133 2.86418 30.1496 3.21955 30.2089C3.54389 30.263 3.94001 30.271 4.32802 30.2812L4.3803 28.2819ZM1.71812 27.3437C1.68718 27.7408 1.65404 28.1389 1.67242 28.4687C1.69229 28.8253 1.77722 29.2588 2.10816 29.6344L3.60872 28.3121C3.69689 28.4122 3.677 28.4952 3.66932 28.3574C3.66015 28.1929 3.67672 27.9529 3.71208 27.4991L1.71812 27.3437ZM5.65139 17.9143C4.08354 19.613 3.13206 20.6249 2.58143 21.8923L4.41578 22.6893C4.80043 21.8039 5.46227 21.068 7.12107 19.2707L5.65139 17.9143ZM3.74807 27.0371C3.93989 24.575 4.03038 23.5763 4.41578 22.6893L2.58143 21.8923C2.03154 23.158 1.93545 24.5541 1.75411 26.8817L3.74807 27.0371ZM13.6408 24.8186C11.5841 26.7996 10.7457 27.5822 9.72725 27.98L10.4549 29.843C11.9323 29.2659 13.0909 28.1251 15.0282 26.2591L13.6408 24.8186ZM4.70134 30.2909C7.36262 30.3605 8.97523 30.4209 10.4549 29.843L9.72725 27.98C8.71108 28.3769 7.57991 28.3655 4.75362 28.2916L4.70134 30.2909ZM26.2791 5.75639C27.3527 6.85309 27.7317 7.2549 27.9388 7.64409L29.7044 6.70472C29.3281 5.99737 28.683 5.35299 27.7083 4.35732L26.2791 5.75639ZM27.5664 14.1828C28.5693 13.2169 29.2329 12.5919 29.6296 11.8959L27.892 10.9056C27.6739 11.2882 27.2838 11.6782 26.179 12.7423L27.5664 14.1828ZM27.9388 7.64409C28.4816 8.66446 28.4636 9.90253 27.892 10.9056L29.6296 11.8959C30.5411 10.2966 30.5692 8.33019 29.7044 6.70472L27.9388 7.64409ZM27.7083 4.35732C26.735 3.36305 26.1026 2.70191 25.4062 2.3153L24.4354 4.0639C24.8125 4.27323 25.2042 4.65828 26.2791 5.75639L27.7083 4.35732ZM19.5001 5.85868C20.5429 4.72886 20.9236 4.33195 21.2947 4.11122L20.2724 2.39225C19.5877 2.79945 18.9748 3.47903 18.0304 4.5022L19.5001 5.85868ZM25.4062 2.3153C23.7998 1.42347 21.8518 1.4529 20.2724 2.39225L21.2947 4.11122C22.2628 3.53546 23.4517 3.51778 24.4354 4.0639L25.4062 2.3153ZM16.6266 6.04028L25.9599 15.3736L27.3741 13.9594L18.0408 4.62606L16.6266 6.04028ZM18.667 30.3332H29.3337V28.3332H18.667V30.3332Z"
        fill="#98A2B3"/>
</svg>
