<svg width="32" height="32" viewBox="0 0 32 32" xmlns="http://www.w3.org/2000/svg">
    <path
        d="M18.2438 13.441L17.4029 12.8999L17.4029 12.8999L18.2438 13.441ZM12.333 11.9999C12.333 12.5522 12.7807 12.9999 13.333 12.9999C13.8853 12.9999 14.333 12.5522 14.333 11.9999H12.333ZM14.9997 17.9999C14.9997 18.5522 15.4474 18.9999 15.9997 18.9999C16.552 18.9999 16.9997 18.5522 16.9997 17.9999H14.9997ZM15.989 21.6666C15.4367 21.6666 14.989 22.1143 14.989 22.6666C14.989 23.2189 15.4367 23.6666 15.989 23.6666V21.6666ZM16.001 23.6666C16.5533 23.6666 17.001 23.2189 17.001 22.6666C17.001 22.1143 16.5533 21.6666 16.001 21.6666V23.6666ZM15.9997 27.6666C12.9858 27.6666 10.8261 27.6645 9.18353 27.4436C7.56977 27.2267 6.60583 26.8152 5.8951 26.1045L4.48089 27.5187C5.62516 28.663 7.0815 29.179 8.91704 29.4258C10.7238 29.6687 13.0424 29.6666 15.9997 29.6666V27.6666ZM2.33301 15.9999C2.33301 18.9572 2.33088 21.2758 2.5738 23.0826C2.82058 24.9181 3.33663 26.3744 4.48089 27.5187L5.8951 26.1045C5.18438 25.3938 4.77293 24.4298 4.55596 22.8161C4.33513 21.1735 4.33301 19.0138 4.33301 15.9999H2.33301ZM27.6663 15.9999C27.6663 19.0138 27.6642 21.1735 27.4434 22.8161C27.2264 24.4298 26.815 25.3938 26.1042 26.1045L27.5185 27.5187C28.6627 26.3744 29.1788 24.9181 29.4256 23.0826C29.6685 21.2758 29.6663 18.9572 29.6663 15.9999H27.6663ZM15.9997 29.6666C18.957 29.6666 21.2755 29.6687 23.0823 29.4258C24.9179 29.179 26.3742 28.663 27.5185 27.5187L26.1042 26.1045C25.3935 26.8152 24.4296 27.2267 22.8158 27.4436C21.1733 27.6645 19.0135 27.6666 15.9997 27.6666V29.6666ZM15.9997 4.33325C19.0135 4.33325 21.1733 4.33538 22.8158 4.55621C24.4296 4.77317 25.3935 5.18462 26.1042 5.89535L27.5185 4.48114C26.3742 3.33687 24.9179 2.82083 23.0823 2.57404C21.2755 2.33113 18.957 2.33325 15.9997 2.33325V4.33325ZM29.6663 15.9999C29.6663 13.0426 29.6685 10.7241 29.4256 8.91728C29.1788 7.08174 28.6627 5.6254 27.5185 4.48114L26.1042 5.89535C26.815 6.60608 27.2264 7.57001 27.4434 9.18378C27.6642 10.8263 27.6663 12.9861 27.6663 15.9999H29.6663ZM15.9997 2.33325C13.0424 2.33325 10.7238 2.33113 8.91704 2.57404C7.0815 2.82083 5.62516 3.33687 4.48089 4.48114L5.8951 5.89535C6.60583 5.18462 7.56977 4.77317 9.18353 4.55621C10.8261 4.33538 12.9858 4.33325 15.9997 4.33325V2.33325ZM4.33301 15.9999C4.33301 12.9861 4.33513 10.8263 4.55596 9.18378C4.77293 7.57001 5.18438 6.60608 5.8951 5.89535L4.48089 4.48114C3.33663 5.6254 2.82058 7.08174 2.5738 8.91728C2.33088 10.7241 2.33301 13.0426 2.33301 15.9999H4.33301ZM17.6663 11.9999C17.6663 12.3332 17.5695 12.6408 17.4029 12.8999L19.0848 13.9821C19.4529 13.41 19.6663 12.7284 19.6663 11.9999H17.6663ZM14.333 11.9999C14.333 11.0794 15.0792 10.3333 15.9997 10.3333V8.33325C13.9746 8.33325 12.333 9.97487 12.333 11.9999H14.333ZM15.9997 10.3333C16.9201 10.3333 17.6663 11.0794 17.6663 11.9999H19.6663C19.6663 9.97487 18.0247 8.33325 15.9997 8.33325V10.3333ZM14.9997 17.3333V17.9999H16.9997V17.3333H14.9997ZM17.4029 12.8999C17.235 13.1608 17.0248 13.4308 16.7779 13.7376C16.5414 14.0315 16.2635 14.3684 16.0143 14.7109C15.5229 15.3863 14.9997 16.2676 14.9997 17.3333H16.9997C16.9997 16.9262 17.2001 16.4806 17.6315 15.8876C17.8437 15.596 18.077 15.3133 18.3361 14.9914C18.5846 14.6825 18.8542 14.3404 19.0848 13.9821L17.4029 12.8999ZM15.989 23.6666H16.001V21.6666H15.989V23.6666Z"/>
</svg>
