<svg width="32" height="32" viewBox="0 0 32 32" fill="none" xmlns="http://www.w3.org/2000/svg">
    <path
        d="M21.9559 11.292L21.2588 12.0089L21.9559 11.292ZM27.9236 22.7805L26.9372 22.9445L27.9236 22.7805ZM10.0441 11.292L10.7412 12.0089H10.7412L10.0441 11.292ZM4.07636 22.7805L5.06282 22.9445H5.06282L4.07636 22.7805ZM16.8841 15C16.8841 14.4477 16.4363 14 15.8841 14C15.3318 14 14.8841 14.4477 14.8841 15L16.8841 15ZM14.8841 24.3333C14.8841 24.8856 15.3318 25.3333 15.8841 25.3333C16.4363 25.3333 16.8841 24.8856 16.8841 24.3333H14.8841ZM17.3142 17.6051C17.6484 18.0448 18.2758 18.1303 18.7155 17.7961C19.1551 17.4619 19.2407 16.8346 18.9065 16.3949L17.3142 17.6051ZM14.3296 21.803C13.9181 21.4347 13.2859 21.4697 12.9176 21.8812C12.5492 22.2928 12.5843 22.925 12.9958 23.2933L14.3296 21.803ZM17.9881 4.78064L17.2311 5.43404V5.43404L17.9881 4.78064ZM19.5886 5.62961L19.5748 6.62952L19.5886 5.62961ZM12.4114 5.62961L12.3976 4.62971L12.4114 5.62961ZM14.0119 4.78064L13.2549 4.12724L13.2549 4.12724L14.0119 4.78064ZM10.9193 8.06752L11.7435 7.50125V7.50125L10.9193 8.06752ZM21.0807 8.06752L21.905 8.63379L21.0807 8.06752ZM22.3245 6.25716L21.5003 5.69089L22.3245 6.25716ZM22.1747 5.18939L22.3235 4.20053L22.1747 5.18939ZM9.67549 6.25716L8.85127 6.82342V6.82343L9.67549 6.25716ZM9.82532 5.18939L9.97412 6.17826L9.82532 5.18939ZM21.2588 12.0089C23.5074 14.1954 26.1039 17.9314 26.9372 22.9445L28.9101 22.6166C27.9931 17.0995 25.1411 12.9943 22.6531 10.5751L21.2588 12.0089ZM26.9372 22.9445C27.2006 24.5294 26.6153 25.9255 25.5013 26.9597C24.3718 28.0083 22.7069 28.6667 20.9222 28.6667V30.6667C23.1763 30.6667 25.3376 29.8407 26.862 28.4255C28.4018 26.996 29.2978 24.9491 28.9101 22.6166L26.9372 22.9445ZM9.34692 10.5751C6.8589 12.9943 4.0069 17.0995 3.08989 22.6166L5.06282 22.9445C5.89605 17.9314 8.49261 14.1954 10.7412 12.0089L9.34692 10.5751ZM3.08989 22.6166C2.7022 24.9491 3.59819 26.996 5.13799 28.4255C6.66238 29.8407 8.82366 30.6667 11.0778 30.6667V28.6667C9.29314 28.6667 7.62815 28.0083 6.49874 26.9597C5.38474 25.9255 4.7994 24.5294 5.06282 22.9445L3.08989 22.6166ZM14.563 10.6667H17.437V8.66667H14.563V10.6667ZM20.9222 28.6667H11.0778V30.6667H20.9222V28.6667ZM10.7412 12.0089C11.4291 11.34 11.6524 11.1325 12.2162 10.9029L11.4617 9.05065C10.5031 9.44115 10.0373 9.90378 9.34692 10.5751L10.7412 12.0089ZM14.563 8.66667C13.2992 8.66667 12.4373 8.6532 11.4617 9.05065L12.2162 10.9029C12.7629 10.6801 13.2096 10.6667 14.563 10.6667V8.66667ZM22.6531 10.5751C21.9627 9.90378 21.4969 9.44115 20.5383 9.05065L19.7838 10.9029C20.3476 11.1325 20.5709 11.34 21.2588 12.0089L22.6531 10.5751ZM17.437 10.6667C18.7904 10.6667 19.2371 10.6801 19.7838 10.9029L20.5383 9.05065C19.5627 8.6532 18.7008 8.66667 17.437 8.66667V10.6667ZM15.8841 18.5324C15.021 18.5324 14.6281 18.3916 14.4717 18.2863C14.4 18.238 14.3333 18.1832 14.3333 17.9193H12.3333C12.3333 18.6947 12.6145 19.4466 13.3543 19.945C14.0096 20.3864 14.8921 20.5324 15.8841 20.5324V18.5324ZM14.3333 17.9193C14.3333 17.792 14.4011 17.5946 14.6741 17.3931C14.9469 17.1919 15.3714 17.0372 15.8841 17.0372V15.0372C14.988 15.0372 14.1372 15.3039 13.4867 15.7838C12.8366 16.2635 12.3333 17.0071 12.3333 17.9193H14.3333ZM17.6667 21.4145C17.6667 21.7104 17.5615 21.8674 17.3367 22.0024C17.0513 22.1738 16.5615 22.2965 15.8841 22.2965V24.2965C16.7434 24.2965 17.6449 24.1503 18.3666 23.7168C19.1489 23.2469 19.6667 22.4628 19.6667 21.4145H17.6667ZM15.8841 20.5324C16.7552 20.5324 17.2094 20.6665 17.4247 20.8069C17.5501 20.8887 17.6667 21.0083 17.6667 21.4145H19.6667C19.6667 20.4763 19.3195 19.6549 18.5173 19.1317C17.8051 18.6672 16.868 18.5324 15.8841 18.5324V20.5324ZM16.8841 16.0372L16.8841 15L14.8841 15L14.8841 16.0372L16.8841 16.0372ZM14.8841 23.2965V24.3333H16.8841V23.2965H14.8841ZM15.8841 17.0372C16.5972 17.0372 17.105 17.3299 17.3142 17.6051L18.9065 16.3949C18.2423 15.5211 17.0834 15.0372 15.8841 15.0372V17.0372ZM15.8841 22.2965C15.1729 22.2965 14.6202 22.063 14.3296 21.803L12.9958 23.2933C13.7212 23.9424 14.7804 24.2965 15.8841 24.2965V22.2965ZM21.5003 5.69089L20.2565 7.50125L21.905 8.63379L23.1487 6.82342L21.5003 5.69089ZM17.0109 8.66667H14.9891V10.6667H17.0109V8.66667ZM11.7435 7.50125L10.4997 5.69089L8.85127 6.82343L10.095 8.63379L11.7435 7.50125ZM14.9891 8.66667C14.2568 8.66667 13.7545 8.66619 13.3643 8.64135C12.981 8.61693 12.7795 8.57207 12.6398 8.51719L11.9084 10.3786C12.3254 10.5425 12.7619 10.607 13.2372 10.6373C13.7057 10.6671 14.2825 10.6667 14.9891 10.6667V8.66667ZM10.095 8.63379C10.5849 9.34675 11.015 10.0276 11.9084 10.3786L12.6398 8.51719C12.4197 8.43071 12.3178 8.33715 11.7435 7.50125L10.095 8.63379ZM20.2565 7.50125C19.6822 8.33715 19.5803 8.43071 19.3602 8.51719L20.0916 10.3786C20.985 10.0276 21.4151 9.34675 21.905 8.63379L20.2565 7.50125ZM17.0109 10.6667C17.7175 10.6667 18.2943 10.6671 18.7628 10.6373C19.2381 10.607 19.6746 10.5425 20.0916 10.3786L19.3602 8.51719C19.2205 8.57207 19.019 8.61693 18.6357 8.64135C18.2455 8.66619 17.7432 8.66667 17.0109 8.66667V10.6667ZM10.4997 5.69089C10.4208 5.57608 10.3716 5.50536 10.3325 5.43793C10.288 5.36105 10.3134 5.38133 10.3267 5.46695C10.3349 5.52023 10.3411 5.61624 10.3095 5.73453C10.2758 5.86039 10.2096 5.97205 10.1252 6.057C9.97718 6.20597 9.85377 6.19637 9.97412 6.17826L9.67653 4.20053C9.38507 4.24438 9.00263 4.34919 8.70634 4.64743C8.35545 5.00063 8.29881 5.44011 8.35012 5.77227C8.39445 6.05929 8.51964 6.29824 8.60154 6.43975C8.68889 6.59069 8.79262 6.73805 8.85127 6.82342L10.4997 5.69089ZM23.1487 6.82342C23.2074 6.73805 23.3111 6.59069 23.3985 6.43975C23.4804 6.29824 23.6055 6.05929 23.6499 5.77227C23.7012 5.44011 23.6446 5.00064 23.2937 4.64743C22.9974 4.34919 22.6149 4.24438 22.3235 4.20053L22.0259 6.17826C22.1462 6.19637 22.0228 6.20597 21.8748 6.05699C21.7904 5.97205 21.7242 5.86038 21.6905 5.73453C21.6589 5.61624 21.6651 5.52023 21.6733 5.46695C21.6866 5.38133 21.712 5.36105 21.6675 5.43793C21.6284 5.50536 21.5792 5.57607 21.5003 5.69089L23.1487 6.82342ZM14.7689 5.43404C14.9128 5.26731 15.0707 5.04841 15.1969 4.87753C15.3373 4.68749 15.4702 4.51177 15.6067 4.35695C15.9339 3.98573 16.0558 4 16 4V2C15.0978 2 14.4496 2.64505 14.1064 3.03439C13.9077 3.25984 13.7303 3.49684 13.5881 3.68933C13.4318 3.90099 13.335 4.03443 13.2549 4.12724L14.7689 5.43404ZM16 4C15.9442 4 16.0661 3.98573 16.3933 4.35695C16.5298 4.51177 16.6627 4.68749 16.8031 4.87753C16.9293 5.04841 17.0872 5.26731 17.2311 5.43404L18.7451 4.12724C18.665 4.03443 18.5682 3.90099 18.4119 3.68933C18.2697 3.49684 18.0923 3.25984 17.8936 3.03439C17.5504 2.64505 16.9022 2 16 2V4ZM9.97412 6.17826C10.15 6.1518 10.3798 6.1928 10.8308 6.32552C11.2018 6.4347 11.8079 6.63806 12.4252 6.62952L12.3976 4.62971C12.1545 4.63307 11.8908 4.55263 11.3955 4.40688C10.9802 4.28467 10.3472 4.09961 9.67653 4.20053L9.97412 6.17826ZM22.3235 4.20053C21.6528 4.09961 21.0198 4.28467 20.6045 4.40688C20.1092 4.55263 19.8455 4.63307 19.6024 4.62971L19.5748 6.62952C20.1921 6.63806 20.7982 6.4347 21.1692 6.32552C21.6202 6.1928 21.85 6.1518 22.0259 6.17826L22.3235 4.20053ZM17.2311 5.43404C17.4605 5.69981 17.751 6.00993 18.1428 6.2442C18.5568 6.49179 19.0257 6.62192 19.5748 6.62952L19.6024 4.62971C19.3731 4.62653 19.2544 4.57865 19.1692 4.52769C19.0617 4.4634 18.9412 4.35442 18.7451 4.12724L17.2311 5.43404ZM13.2549 4.12724C13.0588 4.35442 12.9383 4.4634 12.8308 4.52769C12.7456 4.57865 12.6269 4.62653 12.3976 4.62971L12.4252 6.62952C12.9743 6.62192 13.4432 6.49179 13.8572 6.2442C14.249 6.00992 14.5395 5.69981 14.7689 5.43404L13.2549 4.12724Z"
        fill="#98A2B3"/>
</svg>
