<svg width="32" height="32" viewBox="0 0 32 32" fill="none" xmlns="http://www.w3.org/2000/svg">
    <path
        d="M7.26678 18.4798L8.12349 18.9956L8.12573 18.9918L7.26678 18.4798ZM5.73345 21.0264L4.87675 20.5106L4.8766 20.5109L5.73345 21.0264ZM7.17345 24.9331L6.85285 25.8803L6.85656 25.8816L7.17345 24.9331ZM24.8668 24.9331L24.5529 23.9836L24.5499 23.9846L24.8668 24.9331ZM26.3068 21.0264L27.1643 20.5119L27.1635 20.5106L26.3068 21.0264ZM24.7734 18.4798L23.9073 18.9795L23.9119 18.9876L23.9167 18.9956L24.7734 18.4798ZM18.4934 4.26643L18.2195 5.22818C18.5851 5.3323 18.9781 5.22015 19.2337 4.93878C19.4893 4.6574 19.5632 4.25546 19.4245 3.90155L18.4934 4.26643ZM13.5601 4.26643L12.6291 3.90155C12.4904 4.25546 12.5643 4.6574 12.8199 4.93878C13.0755 5.22015 13.4685 5.3323 13.834 5.22818L13.5601 4.26643ZM13.2001 28.2398L12.4925 28.9463L12.493 28.9469L13.2001 28.2398ZM16.0268 2.87976C11.0612 2.87976 7.02678 6.91414 7.02678 11.8798H9.02678C9.02678 8.01871 12.1657 4.87976 16.0268 4.87976V2.87976ZM7.02678 11.8798V15.7331H9.02678V11.8798H7.02678ZM7.02678 15.7331C7.02678 16.0193 6.96202 16.438 6.83822 16.8839C6.71451 17.3296 6.55412 17.7223 6.40784 17.9677L8.12573 18.9918C8.39278 18.5439 8.61239 17.9699 8.76535 17.4189C8.91822 16.8682 9.02678 16.2602 9.02678 15.7331H7.02678ZM6.41008 17.9639L4.87675 20.5106L6.59015 21.5422L8.12348 18.9956L6.41008 17.9639ZM4.8766 20.5109C4.26188 21.5325 4.13361 22.6787 4.51068 23.697C4.8873 24.7141 5.72964 25.5001 6.85285 25.8803L7.49405 23.9859C6.88392 23.7794 6.53293 23.3987 6.38623 23.0025C6.23995 22.6075 6.25835 22.0937 6.5903 21.542L4.8766 20.5109ZM6.85656 25.8816C12.8089 27.8703 19.2313 27.8703 25.1837 25.8816L24.5499 23.9846C19.0089 25.8359 13.0313 25.8359 7.49034 23.9846L6.85656 25.8816ZM25.1807 25.8826C27.4061 25.1469 28.3719 22.5247 27.1643 20.5119L25.4493 21.5409C26.0016 22.4615 25.5542 23.6526 24.5529 23.9836L25.1807 25.8826ZM27.1635 20.5106L25.6301 17.9639L23.9167 18.9956L25.4501 21.5422L27.1635 20.5106ZM25.6396 17.98C25.4958 17.7307 25.3371 17.3339 25.2145 16.8869C25.0916 16.4389 25.0268 16.0196 25.0268 15.7331H23.0268C23.0268 16.2599 23.1353 16.8673 23.2857 17.4159C23.4365 17.9656 23.6511 18.5355 23.9073 18.9795L25.6396 17.98ZM25.0268 15.7331V11.8798H23.0268V15.7331H25.0268ZM25.0268 11.8798C25.0268 6.92747 20.9791 2.87976 16.0268 2.87976V4.87976C19.8745 4.87976 23.0268 8.03204 23.0268 11.8798H25.0268ZM18.7674 3.30467C16.9759 2.79446 15.0776 2.79446 13.2862 3.30467L13.834 5.22818C15.2674 4.81996 16.7862 4.81996 18.2195 5.22818L18.7674 3.30467ZM14.4912 4.6313C14.7319 4.01701 15.3296 3.58643 16.0268 3.58643V1.58643C14.4839 1.58643 13.1617 2.54251 12.6291 3.90155L14.4912 4.6313ZM16.0268 3.58643C16.7239 3.58643 17.3217 4.01701 17.5624 4.6313L19.4245 3.90155C18.8919 2.54251 17.5696 1.58643 16.0268 1.58643V3.58643ZM19.0268 25.4131C19.0268 27.0608 17.6745 28.4131 16.0268 28.4131V30.4131C18.7791 30.4131 21.0268 28.1654 21.0268 25.4131H19.0268ZM16.0268 28.4131C15.2101 28.4131 14.4479 28.0734 13.9072 27.5327L12.493 28.9469C13.3923 29.8462 14.6568 30.4131 16.0268 30.4131V28.4131ZM13.9078 27.5332C13.3453 26.9699 13.0286 26.2069 13.0268 25.4108L11.0268 25.4153C11.0298 26.7397 11.5567 28.0091 12.4925 28.9463L13.9078 27.5332Z"
        fill="#98A2B3"/>
</svg>
