<svg width="32" height="32" viewBox="0 0 32 32" fill="none" xmlns="http://www.w3.org/2000/svg">
    <path
        d="M22.1663 5.31587C22.6443 5.59242 23.2561 5.42905 23.5326 4.95099C23.8091 4.47293 23.6458 3.86121 23.1677 3.58466L22.1663 5.31587ZM30.047 13.1342C29.9371 12.593 29.4093 12.2433 28.868 12.3532C28.3268 12.463 27.9771 12.9909 28.0869 13.5321L30.047 13.1342ZM10.667 15.6667C10.1147 15.6667 9.66699 16.1144 9.66699 16.6667C9.66699 17.219 10.1147 17.6667 10.667 17.6667V15.6667ZM15.3337 21.3333L14.4654 21.8295C14.6412 22.137 14.9665 22.3287 15.3207 22.3333C15.6749 22.3379 16.0051 22.1547 16.1887 21.8519L15.3337 21.3333ZM29.6815 7.60421C30.1993 7.4121 30.4633 6.8366 30.2712 6.31881C30.0791 5.80102 29.5036 5.537 28.9858 5.72912L29.6815 7.60421ZM16.0003 1.6665C8.08424 1.6665 1.66699 8.08376 1.66699 15.9998H3.66699C3.66699 9.18833 9.18881 3.6665 16.0003 3.6665V1.6665ZM1.66699 15.9998C1.66699 23.9159 8.08424 30.3332 16.0003 30.3332V28.3332C9.18881 28.3332 3.66699 22.8113 3.66699 15.9998H1.66699ZM16.0003 30.3332C23.9164 30.3332 30.3337 23.9159 30.3337 15.9998H28.3337C28.3337 22.8113 22.8118 28.3332 16.0003 28.3332V30.3332ZM23.1677 3.58466C21.0585 2.36452 18.6094 1.6665 16.0003 1.6665V3.6665C18.2484 3.6665 20.3532 4.26708 22.1663 5.31587L23.1677 3.58466ZM30.3337 15.9998C30.3337 15.0194 30.2351 14.061 30.047 13.1342L28.0869 13.5321C28.2486 14.3286 28.3337 15.1538 28.3337 15.9998H30.3337ZM10.667 16.6667C10.667 17.6667 10.6659 17.6667 10.6647 17.6667C10.6644 17.6667 10.6633 17.6667 10.6625 17.6667C10.6611 17.6667 10.6596 17.6666 10.6582 17.6666C10.6554 17.6666 10.6527 17.6666 10.6501 17.6665C10.645 17.6664 10.6403 17.6663 10.636 17.6661C10.6275 17.6658 10.6208 17.6654 10.6158 17.665C10.606 17.6643 10.6033 17.6637 10.6077 17.6644C10.6162 17.6657 10.6537 17.6721 10.718 17.6925C10.8454 17.7331 11.0882 17.8322 11.4269 18.0692C12.107 18.5453 13.1828 19.585 14.4654 21.8295L16.2019 20.8372C14.8178 18.415 13.5603 17.1213 12.5738 16.4308C12.0791 16.0845 11.6553 15.8919 11.3244 15.7867C11.1595 15.7342 11.0199 15.7041 10.9086 15.6872C10.853 15.6787 10.8048 15.6736 10.7644 15.6706C10.7441 15.6691 10.7259 15.6681 10.7096 15.6675C10.7015 15.6672 10.6939 15.667 10.6868 15.6669C10.6832 15.6668 10.6798 15.6667 10.6765 15.6667C10.6748 15.6667 10.6732 15.6667 10.6716 15.6667C10.6709 15.6667 10.6697 15.6667 10.6693 15.6667C10.6681 15.6667 10.667 15.6667 10.667 16.6667ZM15.3337 21.3333C16.1887 21.8519 16.1887 21.8519 16.1887 21.852C16.1887 21.8519 16.1887 21.8519 16.1888 21.8518C16.1889 21.8516 16.1891 21.8512 16.1895 21.8507C16.1901 21.8495 16.1913 21.8477 16.1929 21.8451C16.196 21.8399 16.201 21.8318 16.2076 21.8209C16.221 21.7991 16.2413 21.7661 16.2683 21.7226C16.3224 21.6354 16.4032 21.5061 16.5089 21.3399C16.7202 21.0075 17.0306 20.528 17.424 19.9442C18.2115 18.7755 19.328 17.1939 20.6453 15.5396C21.9647 13.8828 23.4732 12.1685 25.0433 10.726C26.6246 9.27314 28.2109 8.14985 29.6815 7.60421L28.9858 5.72912C27.1623 6.4057 25.3515 7.72686 23.6902 9.25319C22.0177 10.7898 20.4379 12.5894 19.0808 14.2937C17.7217 16.0005 16.5735 17.6273 15.7654 18.8266C15.361 19.4268 15.0408 19.9213 14.8211 20.2668C14.7113 20.4396 14.6264 20.5753 14.5687 20.6684C14.5398 20.7149 14.5177 20.7509 14.5026 20.7755C14.4951 20.7878 14.4893 20.7973 14.4852 20.8039C14.4832 20.8072 14.4817 20.8097 14.4806 20.8116C14.48 20.8125 14.4796 20.8132 14.4792 20.8137C14.4791 20.814 14.4789 20.8143 14.4788 20.8144C14.4787 20.8146 14.4786 20.8148 15.3337 21.3333Z"
        fill="#98A2B3"/>
</svg>
