<svg width="32" height="32" viewBox="0 0 32 32" fill="none" xmlns="http://www.w3.org/2000/svg">
    <path fill-rule="evenodd" clip-rule="evenodd"
          d="M15.9997 2.33325H15.9234H15.9234C13.0025 2.33323 10.7083 2.33322 8.91704 2.57404C7.0815 2.82083 5.62516 3.33687 4.48089 4.48114C3.33663 5.6254 2.82058 7.08174 2.5738 8.91728C2.33298 10.7085 2.33299 13.0027 2.33301 15.9237V15.9237V15.9999V16.0761V16.0762C2.33299 18.9971 2.33298 21.2913 2.5738 23.0826C2.82058 24.9181 3.33663 26.3744 4.48089 27.5187C5.62516 28.663 7.0815 29.179 8.91704 29.4258C10.7083 29.6666 13.0025 29.6666 15.9234 29.6666H15.9997H16.0759C18.9969 29.6666 21.2911 29.6666 23.0823 29.4258C24.9179 29.179 26.3742 28.663 27.5185 27.5187C28.6627 26.3744 29.1788 24.9181 29.4256 23.0826C29.6664 21.2913 29.6664 18.9971 29.6663 16.0762V15.9999V15.9237C29.6664 13.0027 29.6664 10.7085 29.4256 8.91728C29.1788 7.08174 28.6627 5.6254 27.5185 4.48114C26.3742 3.33687 24.9179 2.82083 23.0823 2.57404C21.2911 2.33322 18.9969 2.33323 16.0759 2.33325H16.0759H15.9997ZM5.89511 5.89535C6.60583 5.18462 7.56977 4.77317 9.18353 4.55621C10.8261 4.33538 12.9858 4.33325 15.9997 4.33325C19.0135 4.33325 21.1733 4.33538 22.8158 4.55621C24.4296 4.77317 25.3935 5.18462 26.1042 5.89535C26.815 6.60608 27.2264 7.57001 27.4434 9.18378C27.6642 10.8263 27.6663 12.9861 27.6663 15.9999C27.6663 19.0138 27.6642 21.1735 27.4434 22.8161C27.2264 24.4298 26.815 25.3938 26.1042 26.1045C25.3935 26.8152 24.4296 27.2267 22.8158 27.4436C21.1733 27.6645 19.0135 27.6666 15.9997 27.6666C12.9858 27.6666 10.8261 27.6645 9.18353 27.4436C7.56977 27.2267 6.60583 26.8152 5.89511 26.1045C5.18438 25.3938 4.77293 24.4298 4.55596 22.8161C4.33513 21.1735 4.33301 19.0138 4.33301 15.9999C4.33301 12.9861 4.33513 10.8263 4.55596 9.18378C4.77293 7.57001 5.18438 6.60608 5.89511 5.89535ZM22.0708 12.6757C22.444 12.2686 22.4165 11.636 22.0094 11.2628C21.6023 10.8897 20.9697 10.9172 20.5965 11.3243L13.9689 18.5544L11.3741 15.9596C10.9836 15.569 10.3504 15.569 9.95989 15.9596C9.56936 16.3501 9.56936 16.9832 9.95989 17.3738L13.2932 20.7071C13.4861 20.9 13.7494 21.0057 14.0221 20.9998C14.2947 20.9938 14.5532 20.8768 14.7375 20.6757L22.0708 12.6757Z"
          fill="#98A2B3"/>
</svg>
