<svg width="32" height="32" viewBox="0 0 32 32" fill="none" xmlns="http://www.w3.org/2000/svg">
    <path
        d="M8.7701 20.642C6.88374 21.7652 1.93782 24.0587 4.95022 26.9286C6.42175 28.3305 8.06065 29.3332 10.1212 29.3332H21.8788C23.9393 29.3332 25.5783 28.3305 27.0498 26.9286C30.0622 24.0587 25.1163 21.7652 23.2299 20.6419C18.8064 18.008 13.1936 18.008 8.7701 20.642Z"
        stroke="#98A2B3" stroke-width="2"/>
    <path
        d="M22 8.6665C22 11.9802 19.3137 14.6665 16 14.6665C12.6863 14.6665 10 11.9802 10 8.6665C10 5.3528 12.6863 2.6665 16 2.6665C19.3137 2.6665 22 5.3528 22 8.6665Z"
        stroke="#98A2B3" stroke-width="2"/>
</svg>
