<svg width="32" height="32" viewBox="0 0 32 32" fill="none" xmlns="http://www.w3.org/2000/svg">
    <path
        d="M6.90708 20.3952L6.40141 19.5325H6.40141L6.90708 20.3952ZM19.7602 20.3952L20.2659 19.5325V19.5325L19.7602 20.3952ZM3.51163 25.896L2.82756 26.6254H2.82756L3.51163 25.896ZM23.1557 25.896L22.4716 25.1666H22.4716L23.1557 25.896ZM23.1294 6.73235C22.6396 6.477 22.0357 6.66698 21.7803 7.15669C21.5249 7.6464 21.7149 8.25039 22.2046 8.50574L23.1294 6.73235ZM24.667 9.33333L23.8302 9.8808C24.0262 10.1804 24.3674 10.3524 24.7248 10.3317C25.0822 10.311 25.4013 10.1008 25.5614 9.78055L24.667 9.33333ZM29.7809 4.89443C30.2749 4.64744 30.4751 4.04676 30.2281 3.55279C29.9811 3.05881 29.3804 2.85858 28.8864 3.10557L29.7809 4.89443ZM7.41276 21.2579C11.0325 19.1363 15.6348 19.1363 19.2546 21.2579L20.2659 19.5325C16.0217 17.0447 10.6457 17.0447 6.40141 19.5325L7.41276 21.2579ZM8.10802 29H18.5593V27H8.10802V29ZM4.19569 25.1666C3.67861 24.6816 3.65382 24.3769 3.67062 24.2257C3.69454 24.0102 3.85029 23.6972 4.27029 23.2926C5.13076 22.4635 6.46579 21.813 7.41276 21.2579L6.40141 19.5325C5.6716 19.9602 3.97006 20.8045 2.88258 21.8523C2.3286 22.3861 1.78253 23.1071 1.68283 24.0049C1.576 24.967 2.0058 25.8547 2.82756 26.6254L4.19569 25.1666ZM19.2546 21.2579C20.2015 21.813 21.5366 22.4635 22.397 23.2926C22.817 23.6972 22.9728 24.0102 22.9967 24.2257C23.0135 24.3769 22.9887 24.6816 22.4716 25.1666L23.8398 26.6254C24.6615 25.8547 25.0913 24.967 24.9845 24.0049C24.8848 23.1071 24.3387 22.3861 23.7847 21.8523C22.6973 20.8045 20.9957 19.9602 20.2659 19.5325L19.2546 21.2579ZM22.4716 25.1666C21.2557 26.3069 20.0326 27 18.5593 27V29C20.7491 29 22.4396 27.9385 23.8398 26.6254L22.4716 25.1666ZM2.82756 26.6254C4.22768 27.9385 5.91823 29 8.10802 29V27C6.63469 27 5.41163 26.3069 4.19569 25.1666L2.82756 26.6254ZM17.667 9.33333C17.667 11.7266 15.7269 13.6667 13.3337 13.6667V15.6667C16.8315 15.6667 19.667 12.8311 19.667 9.33333H17.667ZM13.3337 13.6667C10.9404 13.6667 9.00033 11.7266 9.00033 9.33333H7.00033C7.00033 12.8311 9.83586 15.6667 13.3337 15.6667V13.6667ZM9.00033 9.33333C9.00033 6.9401 10.9404 5 13.3337 5V3C9.83586 3 7.00033 5.83553 7.00033 9.33333H9.00033ZM13.3337 5C15.7269 5 17.667 6.9401 17.667 9.33333H19.667C19.667 5.83553 16.8315 3 13.3337 3V5ZM22.667 7.61905C22.2046 8.50574 22.2045 8.50565 22.2043 8.50557C22.2043 8.50554 22.2041 8.50546 22.204 8.50541C22.2038 8.50531 22.2036 8.50523 22.2035 8.50515C22.2032 8.50499 22.203 8.50487 22.2028 8.5048C22.2025 8.50465 22.2026 8.50466 22.2029 8.50483C22.2035 8.50517 22.2054 8.50615 22.2084 8.50776C22.2144 8.51098 22.2249 8.51671 22.2395 8.52484C22.2688 8.54113 22.3142 8.56693 22.3719 8.60151C22.488 8.67102 22.6507 8.77402 22.8312 8.90449C23.2074 9.17648 23.5943 9.52034 23.8302 9.8808L25.5038 8.78587C25.073 8.1273 24.4599 7.61402 24.0028 7.28362C23.7666 7.1129 23.5543 6.9784 23.3996 6.8857C23.3219 6.83917 23.2579 6.8027 23.2116 6.77698C23.1885 6.76411 23.1697 6.75391 23.1559 6.74645C23.1489 6.74272 23.1432 6.73967 23.1388 6.73732C23.1366 6.73614 23.1347 6.73514 23.1331 6.73431C23.1323 6.7339 23.1316 6.73353 23.131 6.7332C23.1307 6.73304 23.1304 6.73289 23.1301 6.73275C23.13 6.73268 23.1298 6.73258 23.1297 6.73254C23.1295 6.73245 23.1294 6.73235 22.667 7.61905ZM24.667 9.33333C25.5614 9.78055 25.5613 9.78071 25.5613 9.78085C25.5613 9.78088 25.5612 9.78101 25.5612 9.78106C25.5611 9.78118 25.5611 9.78123 25.5611 9.78122C25.5611 9.78121 25.5612 9.78096 25.5615 9.78047C25.562 9.77949 25.5629 9.77758 25.5644 9.77474C25.5672 9.76908 25.572 9.75976 25.5786 9.74698C25.5918 9.72141 25.6124 9.68205 25.6399 9.63051C25.6951 9.52735 25.7782 9.37576 25.8866 9.18854C26.1039 8.81315 26.4201 8.29943 26.8141 7.7479C27.6249 6.61273 28.6744 5.44767 29.7809 4.89443L28.8864 3.10557C27.3263 3.88566 26.0424 5.38727 25.1866 6.58543C24.7472 7.20057 24.3967 7.77019 24.1557 8.18646C24.035 8.39507 23.941 8.5664 23.8764 8.6872C23.844 8.74763 23.819 8.79551 23.8016 8.82919C23.7929 8.84604 23.7861 8.85934 23.7813 8.86889C23.7788 8.87367 23.7769 8.87751 23.7754 8.88039C23.7747 8.88183 23.7741 8.88303 23.7736 8.88399C23.7734 8.88446 23.7732 8.88488 23.773 8.88524C23.7729 8.88541 23.7728 8.88563 23.7728 8.88572C23.7727 8.88593 23.7726 8.88612 24.667 9.33333Z"
        fill="#98A2B3"/>
</svg>
