<svg width="32" height="32" viewBox="0 0 32 32" fill="none" xmlns="http://www.w3.org/2000/svg">
    <path
        d="M28.3535 18.5503L27.7433 19.3426L28.3535 18.5503ZM30.2056 22.4924L29.4291 21.8622V21.8622L30.2056 22.4924ZM27.6984 23.0002C27.1461 23.0002 26.6984 23.4479 26.6984 24.0002C26.6984 24.5524 27.1461 25.0002 27.6984 25.0002V23.0002ZM25.4231 16.3376C24.873 16.2878 24.3868 16.6934 24.3371 17.2434C24.2873 17.7934 24.6928 18.2797 25.2429 18.3294L25.4231 16.3376ZM3.64587 18.5503L4.25599 19.3426H4.25599L3.64587 18.5503ZM1.79374 22.4924L2.57018 21.8622L2.57018 21.8622L1.79374 22.4924ZM4.30095 25.0002C4.85324 25.0002 5.30095 24.5524 5.30095 24.0002C5.30095 23.4479 4.85324 23.0002 4.30095 23.0002V25.0002ZM6.75644 18.3294C7.30648 18.2797 7.71203 17.7934 7.66227 17.2434C7.61251 16.6934 7.12628 16.2878 6.57624 16.3376L6.75644 18.3294ZM7.33301 15.6668C7.88529 15.6668 8.33301 15.2191 8.33301 14.6668C8.33301 14.1145 7.88529 13.6668 7.33301 13.6668V15.6668ZM7.33301 9.00016C7.88529 9.00016 8.33301 8.55245 8.33301 8.00016C8.33301 7.44788 7.88529 7.00016 7.33301 7.00016V9.00016ZM10.778 20.1484L10.2521 19.2979L10.778 20.1484ZM21.2212 20.1484L21.7471 19.2979L21.2212 20.1484ZM8.01923 24.8634L7.31592 25.5743L8.01923 24.8634ZM23.98 24.8634L23.2767 24.1525L23.98 24.8634ZM27.7433 19.3426C28.3027 19.7734 28.9558 20.1865 29.3855 20.7305C29.5828 20.9802 29.6534 21.1679 29.6646 21.3005C29.6731 21.4015 29.6587 21.5793 29.4291 21.8622L30.982 23.1225C31.4828 22.5056 31.7163 21.8288 31.6575 21.132C31.6012 20.4668 31.2889 19.9135 30.9549 19.4907C30.3221 18.6897 29.3188 18.0316 28.9636 17.758L27.7433 19.3426ZM29.4291 21.8622C28.7686 22.676 28.2311 23.0002 27.6984 23.0002V25.0002C29.1638 25.0002 30.2156 24.0669 30.982 23.1225L29.4291 21.8622ZM25.2429 18.3294C26.0966 18.4067 26.9562 18.7364 27.7433 19.3426L28.9636 17.758C27.8912 16.9322 26.6745 16.4508 25.4231 16.3376L25.2429 18.3294ZM26.333 11.3335C26.333 12.6222 25.2883 13.6668 23.9997 13.6668V15.6668C26.3929 15.6668 28.333 13.7267 28.333 11.3335H26.333ZM23.9997 9.00016C25.2883 9.00016 26.333 10.0448 26.333 11.3335H28.333C28.333 8.94026 26.3929 7.00016 23.9997 7.00016V9.00016ZM3.03575 17.758C2.68049 18.0316 1.67719 18.6897 1.0444 19.4907C0.710419 19.9135 0.3981 20.4668 0.341869 21.132C0.28298 21.8288 0.516548 22.5056 1.01729 23.1225L2.57018 21.8622C2.34062 21.5793 2.32622 21.4015 2.33476 21.3005C2.34596 21.1679 2.41647 20.9802 2.61378 20.7305C3.04354 20.1865 3.69661 19.7734 4.25599 19.3426L3.03575 17.758ZM1.01729 23.1225C1.78376 24.0669 2.83549 25.0002 4.30095 25.0002V23.0002C3.76827 23.0002 3.2307 22.676 2.57018 21.8622L1.01729 23.1225ZM6.57624 16.3376C5.32487 16.4508 4.10814 16.9322 3.03575 17.758L4.25599 19.3426C5.04314 18.7364 5.9027 18.4067 6.75644 18.3294L6.57624 16.3376ZM2.99967 11.3335C2.99967 13.7267 4.93977 15.6668 7.33301 15.6668V13.6668C6.04434 13.6668 4.99967 12.6222 4.99967 11.3335H2.99967ZM7.33301 7.00016C4.93977 7.00016 2.99967 8.94026 2.99967 11.3335H4.99967C4.99967 10.0448 6.04434 9.00016 7.33301 9.00016V7.00016ZM11.304 20.9989C14.1764 19.2228 17.8229 19.2228 20.6953 20.9989L21.7471 19.2979C18.2301 17.1231 13.7691 17.1231 10.2521 19.2979L11.304 20.9989ZM11.7538 27.6668H20.2455V25.6668H11.7538V27.6668ZM8.72254 24.1525C8.33015 23.7643 8.32534 23.5371 8.33537 23.4418C8.35132 23.2903 8.45808 23.048 8.78474 22.716C9.46411 22.0254 10.5146 21.487 11.304 20.9989L10.2521 19.2979C9.67908 19.6522 8.26237 20.3951 7.35903 21.3133C6.89433 21.7857 6.43086 22.4296 6.34636 23.2324C6.25596 24.0913 6.6205 24.8863 7.31592 25.5743L8.72254 24.1525ZM20.6953 20.9989C21.4846 21.487 22.5351 22.0254 23.2145 22.716C23.5412 23.048 23.6479 23.2903 23.6639 23.4418C23.6739 23.5371 23.6691 23.7643 23.2767 24.1525L24.6833 25.5743C25.3788 24.8863 25.7433 24.0913 25.6529 23.2324C25.5684 22.4296 25.1049 21.7857 24.6402 21.3133C23.7369 20.3951 22.3202 19.6522 21.7471 19.2979L20.6953 20.9989ZM23.2767 24.1525C22.3 25.1188 21.3558 25.6668 20.2455 25.6668V27.6668C22.1114 27.6668 23.5345 26.7109 24.6833 25.5743L23.2767 24.1525ZM7.31592 25.5743C8.46475 26.7109 9.88785 27.6668 11.7538 27.6668V25.6668C10.6435 25.6668 9.69925 25.1188 8.72254 24.1525L7.31592 25.5743ZM19.6663 10.0002C19.6663 12.0252 18.0247 13.6668 15.9996 13.6668V15.6668C19.1292 15.6668 21.6663 13.1298 21.6663 10.0002H19.6663ZM15.9996 13.6668C13.9746 13.6668 12.333 12.0252 12.333 10.0002H10.333C10.333 13.1298 12.87 15.6668 15.9996 15.6668V13.6668ZM12.333 10.0002C12.333 7.97512 13.9746 6.3335 15.9996 6.3335V4.3335C12.87 4.3335 10.333 6.87055 10.333 10.0002H12.333ZM15.9996 6.3335C18.0247 6.3335 19.6663 7.97512 19.6663 10.0002H21.6663C21.6663 6.87055 19.1292 4.3335 15.9996 4.3335V6.3335Z"
        fill="#98A2B3"/>
</svg>
