<svg width="32" height="32" viewBox="0 0 32 32" fill="none" xmlns="http://www.w3.org/2000/svg">
    <path
        d="M22.667 6.66667L29.3337 6.66667M22.667 10.6667L29.3337 10.6667M26.667 14.6667H29.3337M6.77458 20.3952C10.5837 18.0905 15.417 18.0905 19.2261 20.3952C20.8504 21.378 25.1094 23.3848 22.5154 25.896C21.2483 27.1227 19.837 28 18.0627 28H7.93799C6.16367 28 4.75238 27.1227 3.48523 25.896C0.891226 23.3848 5.15021 21.378 6.77458 20.3952ZM18.0003 9.33333C18.0003 12.2789 15.6125 14.6667 12.667 14.6667C9.72147 14.6667 7.33366 12.2789 7.33366 9.33333C7.33366 6.38781 9.72147 4 12.667 4C15.6125 4 18.0003 6.38781 18.0003 9.33333Z"
        stroke="#98A2B3" stroke-width="2" stroke-linecap="round"/>
</svg>
