<svg width="32" height="32" viewBox="0 0 32 32" fill="none" xmlns="http://www.w3.org/2000/svg">
    <path fill-rule="evenodd" clip-rule="evenodd"
          d="M15.9996 3.66675C13.2382 3.66675 10.9996 5.90532 10.9996 8.66675C10.9996 11.4282 13.2382 13.6667 15.9996 13.6667C18.761 13.6667 20.9996 11.4282 20.9996 8.66675C20.9996 5.90532 18.761 3.66675 15.9996 3.66675ZM8.99958 8.66675C8.99958 4.80075 12.1336 1.66675 15.9996 1.66675C19.8656 1.66675 22.9996 4.80075 22.9996 8.66675C22.9996 12.5327 19.8656 15.6667 15.9996 15.6667C12.1336 15.6667 8.99958 12.5327 8.99958 8.66675ZM16.5266 19.7972C13.5939 19.3836 10.5468 19.9539 7.94796 21.5014C7.72412 21.6347 7.47883 21.7739 7.22191 21.9196L7.22183 21.9197C6.27169 22.4587 5.16233 23.0881 4.38887 23.8451C3.9087 24.3151 3.70402 24.7028 3.67128 25.0024C3.64528 25.2402 3.7054 25.6324 4.30625 26.2048C5.68738 27.5206 7.09081 28.3334 8.78741 28.3334H16.6663C17.2185 28.3334 17.6663 28.7811 17.6663 29.3334C17.6663 29.8857 17.2185 30.3334 16.6663 30.3334H8.78741C6.363 30.3334 4.48862 29.1409 2.92669 27.6529C2.02133 26.7903 1.57004 25.8196 1.68312 24.7851C1.78945 23.8124 2.37432 23.0184 2.98988 22.4159C3.9741 21.4525 5.41078 20.642 6.3612 20.1058L6.36133 20.1057L6.36178 20.1054C6.57843 19.9832 6.76979 19.8752 6.92474 19.783C9.92798 17.9947 13.4368 17.3416 16.8059 17.8168C18.0311 17.9896 19.2246 18.3115 20.3775 18.7821C20.8888 18.9908 21.1341 19.5745 20.9254 20.0858C20.7167 20.5972 20.133 20.8425 19.6217 20.6338C18.6216 20.2256 17.5881 19.9469 16.5266 19.7972ZM25.6663 20.0001C25.6663 19.4478 25.2185 19.0001 24.6663 19.0001C24.114 19.0001 23.6663 19.4478 23.6663 20.0001V23.6667H19.9996C19.4473 23.6667 18.9996 24.1145 18.9996 24.6667C18.9996 25.219 19.4473 25.6667 19.9996 25.6667H23.6663V29.3334C23.6663 29.8857 24.114 30.3334 24.6663 30.3334C25.2185 30.3334 25.6663 29.8857 25.6663 29.3334V25.6667H29.3329C29.8852 25.6667 30.3329 25.219 30.3329 24.6667C30.3329 24.1145 29.8852 23.6667 29.3329 23.6667H25.6663V20.0001Z"
          fill="#98A2B3"/>
</svg>
