<svg width="32" height="32" viewBox="0 0 32 32" fill="none" xmlns="http://www.w3.org/2000/svg">
    <path
        d="M13.3337 8.33333C12.7814 8.33333 12.3337 8.78105 12.3337 9.33333C12.3337 9.88562 12.7814 10.3333 13.3337 10.3333V8.33333ZM4.22909 26.4379L4.9362 25.7308L4.9362 25.7308L4.22909 26.4379ZM21.0356 4.1363L20.7768 5.10222V5.10222L21.0356 4.1363ZM23.0003 9.33333C23.0003 9.88562 23.448 10.3333 24.0003 10.3333C24.5526 10.3333 25.0003 9.88562 25.0003 9.33333H23.0003ZM23.864 6.96472L24.83 6.7059V6.7059L23.864 6.96472ZM20.3337 18.6667C20.3337 20.3235 21.6768 21.6667 23.3337 21.6667V19.6667C22.7814 19.6667 22.3337 19.219 22.3337 18.6667H20.3337ZM23.3337 21.6667C24.9905 21.6667 26.3337 20.3235 26.3337 18.6667H24.3337C24.3337 19.219 23.8859 19.6667 23.3337 19.6667V21.6667ZM26.3337 18.6667C26.3337 17.0098 24.9905 15.6667 23.3337 15.6667V17.6667C23.8859 17.6667 24.3337 18.1144 24.3337 18.6667H26.3337ZM23.3337 15.6667C21.6768 15.6667 20.3337 17.0098 20.3337 18.6667H22.3337C22.3337 18.1144 22.7814 17.6667 23.3337 17.6667V15.6667ZM28.3337 17.3333V20H30.3337V17.3333H28.3337ZM21.3337 27H13.3337V29H21.3337V27ZM3.66699 17.3333V14.6667H1.66699V17.3333H3.66699ZM13.3337 10.3333H21.3337V8.33333H13.3337V10.3333ZM13.3337 27C10.7912 27 8.98501 26.9979 7.61479 26.8137C6.27334 26.6333 5.50048 26.2951 4.9362 25.7308L3.52198 27.145C4.5198 28.1428 5.78507 28.5856 7.34829 28.7958C8.88276 29.0021 10.8478 29 13.3337 29V27ZM1.66699 17.3333C1.66699 19.8192 1.66487 21.7842 1.87117 23.3187C2.08134 24.8819 2.52417 26.1472 3.52198 27.145L4.9362 25.7308C4.37192 25.1665 4.03369 24.3937 3.85334 23.0522C3.66912 21.682 3.66699 19.8758 3.66699 17.3333H1.66699ZM28.3337 20C28.3337 21.9139 28.3315 23.2487 28.1961 24.2558C28.0646 25.2342 27.824 25.7523 27.455 26.1213L28.8692 27.5355C29.6717 26.733 30.0169 25.7225 30.1783 24.5223C30.3358 23.351 30.3337 21.8573 30.3337 20H28.3337ZM21.3337 29C23.191 29 24.6846 29.0021 25.856 28.8446C27.0561 28.6833 28.0666 28.3381 28.8692 27.5355L27.455 26.1213C27.086 26.4903 26.5679 26.7309 25.5895 26.8625C24.5824 26.9979 23.2475 27 21.3337 27V29ZM30.3337 17.3333C30.3337 15.476 30.3358 13.9824 30.1783 12.811C30.0169 11.6109 29.6717 10.6004 28.8692 9.7978L27.455 11.212C27.824 11.581 28.0646 12.0991 28.1961 13.0775C28.3315 14.0846 28.3337 15.4194 28.3337 17.3333H30.3337ZM21.3337 10.3333C23.2475 10.3333 24.5824 10.3355 25.5895 10.4709C26.5679 10.6024 27.086 10.843 27.455 11.212L28.8692 9.7978C28.0666 8.99524 27.0561 8.65005 25.856 8.4887C24.6846 8.33121 23.191 8.33333 21.3337 8.33333V10.3333ZM13.3337 5H18.667V3H13.3337V5ZM18.667 5C19.9713 5 20.4273 5.00859 20.7768 5.10222L21.2944 3.17037C20.6265 2.99141 19.8426 3 18.667 3V5ZM25.0003 9.33333C25.0003 8.15775 25.0089 7.37379 24.83 6.7059L22.8981 7.22354C22.9917 7.57299 23.0003 8.02899 23.0003 9.33333H25.0003ZM20.7768 5.10222C21.8121 5.37962 22.6207 6.18827 22.8981 7.22354L24.83 6.7059C24.3676 4.98044 23.0199 3.63271 21.2944 3.17037L20.7768 5.10222ZM13.3337 3C10.8478 3 8.88276 2.99788 7.3483 3.20418C5.78507 3.41435 4.5198 3.85717 3.52198 4.85499L4.9362 6.2692C5.50048 5.70492 6.27334 5.3667 7.61479 5.18634C8.98501 5.00212 10.7912 5 13.3337 5V3ZM3.66699 14.6667C3.66699 12.1242 3.66912 10.318 3.85334 8.9478C4.03369 7.60635 4.37192 6.83348 4.9362 6.2692L3.52198 4.85499C2.52417 5.85281 2.08134 7.11807 1.87117 8.6813C1.66487 10.2158 1.66699 12.1808 1.66699 14.6667H3.66699Z"
        fill="#98A2B3"/>
</svg>
