<svg width="32" height="32" viewBox="0 0 32 32" fill="none" xmlns="http://www.w3.org/2000/svg">
    <path
        d="M9.33366 9.65749C8.78137 9.65749 8.33366 10.1052 8.33366 10.6575C8.33366 11.2098 8.78137 11.6575 9.33366 11.6575V9.65749ZM28.1621 28.161L27.4548 27.4541L28.1621 28.161ZM4.22909 6.88443L4.93637 7.59137L4.22909 6.88443ZM10.667 5.33317V4.33317H10.6598L10.6525 4.33328L10.667 5.33317ZM13.3337 6.33317C13.8859 6.33317 14.3337 5.88546 14.3337 5.33317C14.3337 4.78089 13.8859 4.33317 13.3337 4.33317V6.33317ZM20.3337 18.6665C20.3337 20.3234 21.6768 21.6665 23.3337 21.6665V19.6665C22.7814 19.6665 22.3337 19.2188 22.3337 18.6665H20.3337ZM23.3337 21.6665C24.9905 21.6665 26.3337 20.3234 26.3337 18.6665H24.3337C24.3337 19.2188 23.8859 19.6665 23.3337 19.6665V21.6665ZM26.3337 18.6665C26.3337 17.0097 24.9905 15.6665 23.3337 15.6665V17.6665C23.8859 17.6665 24.3337 18.1142 24.3337 18.6665H26.3337ZM23.3337 15.6665C21.6768 15.6665 20.3337 17.0097 20.3337 18.6665H22.3337C22.3337 18.1142 22.7814 17.6665 23.3337 17.6665V15.6665ZM26.3337 9.33317C26.3337 5.09899 22.9012 1.6665 18.667 1.6665V3.6665C21.7966 3.6665 24.3337 6.20356 24.3337 9.33317H26.3337ZM18.667 1.6665C14.4328 1.6665 11.0003 5.09899 11.0003 9.33317H13.0003C13.0003 6.20356 15.5374 3.6665 18.667 3.6665V1.6665ZM26.1803 10.8654C26.281 10.3695 26.3337 9.85698 26.3337 9.33317H24.3337C24.3337 9.72261 24.2945 10.1019 24.2203 10.4676L26.1803 10.8654ZM11.0003 9.33317C11.0003 9.85698 11.053 10.3695 11.1537 10.8654L13.1137 10.4676C13.0395 10.1019 13.0003 9.7226 13.0003 9.33317H11.0003ZM28.3337 18.6614V21.3293H30.3337V18.6614H28.3337ZM21.3337 28.3332H13.3337V30.3332H21.3337V28.3332ZM3.66699 18.6614V15.9934H1.66699V18.6614H3.66699ZM9.33366 11.6575H21.3337V9.65749H9.33366V11.6575ZM13.3337 28.3332C10.7912 28.3332 8.98503 28.331 7.61485 28.1467C6.27349 27.9663 5.50067 27.628 4.93637 27.0634L3.52181 28.4773C4.51961 29.4755 5.78491 29.9186 7.34823 30.1289C8.88273 30.3353 10.8478 30.3332 13.3337 30.3332V28.3332ZM1.66699 18.6614C1.66699 21.1485 1.66487 23.1144 1.87116 24.6495C2.08131 26.2133 2.52408 27.479 3.52181 28.4773L4.93637 27.0634C4.372 26.4987 4.03372 25.7254 3.85335 24.3831C3.66911 23.0122 3.66699 21.205 3.66699 18.6614H1.66699ZM28.3337 21.3293C28.3337 23.2441 28.3315 24.5796 28.1961 25.5873C28.0646 26.5663 27.8239 27.0848 27.4548 27.4541L28.8694 28.868C29.6718 28.0651 30.017 27.0543 30.1783 25.8537C30.3358 24.6818 30.3337 23.1876 30.3337 21.3293H28.3337ZM21.3337 30.3332C23.191 30.3332 24.6846 30.3353 25.8561 30.1777C27.0563 30.0163 28.0668 29.6709 28.8694 28.868L27.4548 27.4541C27.0858 27.8233 26.5677 28.064 25.5894 28.1956C24.5823 28.331 23.2476 28.3332 21.3337 28.3332V30.3332ZM30.3337 18.6614C30.3337 16.8031 30.3358 15.3088 30.1783 14.137C30.017 12.9364 29.6718 11.9255 28.8694 11.1227L27.4548 12.5366C27.8239 12.9058 28.0646 13.4243 28.1961 14.4033C28.3315 15.411 28.3337 16.7466 28.3337 18.6614H30.3337ZM21.3337 11.6575C23.2476 11.6575 24.5823 11.6596 25.5894 11.7951C26.5677 11.9267 27.0858 12.1673 27.4548 12.5366L28.8694 11.1227C28.0668 10.3198 27.0563 9.97438 25.8561 9.81293C24.6846 9.65536 23.191 9.65749 21.3337 9.65749V11.6575ZM3.66699 15.9934C3.66699 13.4498 3.66911 11.6426 3.85335 10.2716C4.03372 8.9294 4.372 8.156 4.93637 7.59137L3.52181 6.17749C2.52408 7.17571 2.08131 8.44143 1.87116 10.0053C1.66487 11.5404 1.66699 13.5063 1.66699 15.9934H3.66699ZM10.6525 4.33328C7.41586 4.38012 5.1088 4.58974 3.52181 6.17749L4.93637 7.59137C5.86427 6.66301 7.30595 6.38192 10.6815 6.33307L10.6525 4.33328ZM10.667 6.33317H13.3337V4.33317H10.667V6.33317Z"
        fill="#98A2B3"/>
</svg>
