<svg width="32" height="32" viewBox="0 0 32 32" fill="none" xmlns="http://www.w3.org/2000/svg">
    <path
        d="M7.99969 6.66684V9.33351M13.333 6.66684V9.33351M7.99969 22.6668V25.3335M13.333 22.6668V25.3335M25.7597 13.3335H6.25302C4.27969 13.3335 2.67969 11.7202 2.67969 9.76018V6.25351C2.67969 4.28018 4.29302 2.68018 6.25302 2.68018H25.7597C27.733 2.68018 29.333 4.29351 29.333 6.25351V9.76018C29.333 11.7202 27.7197 13.3335 25.7597 13.3335ZM25.7597 29.3335H6.25302C4.27969 29.3335 2.67969 27.7202 2.67969 25.7602V22.2535C2.67969 20.2802 4.29302 18.6802 6.25302 18.6802H25.7597C27.733 18.6802 29.333 20.2935 29.333 22.2535V25.7602C29.333 27.7202 27.7197 29.3335 25.7597 29.3335Z"
        stroke="#98A2B3" stroke-width="2" stroke-linecap="round" stroke-linejoin="round"/>
</svg>
