<svg width="32" height="32" viewBox="0 0 32 32" fill="none" xmlns="http://www.w3.org/2000/svg">
    <path
        d="M4.66699 17.3332V16.2616C4.66699 12.3051 4.66699 10.3268 5.29224 8.74682C6.29741 6.20679 8.42318 4.20323 11.1181 3.25585C12.7945 2.66655 14.8934 2.66655 19.0912 2.66655C21.49 2.66655 22.6894 2.66655 23.6473 3.00329C25.1873 3.54465 26.402 4.68954 26.9764 6.14099C27.3337 7.04384 27.3337 8.17427 27.3337 10.4351V17.3332M4.66699 15.9998C4.66699 13.5452 6.65684 11.5554 9.11144 11.5554C9.99915 11.5554 11.0457 11.7109 11.9088 11.4797C12.6757 11.2742 13.2747 10.6752 13.4802 9.90832C13.7114 9.04522 13.5559 7.99866 13.5559 7.11095C13.5559 4.65635 15.5457 2.6665 18.0003 2.6665M4.66699 21.3332L7.1768 25.3332M7.1768 25.3332L9.6866 29.3332M7.1768 25.3332L9.6866 21.3332M7.1768 25.3332L4.66699 29.3332M27.3337 29.3332H26.0788C24.8956 29.3332 24.3041 29.3332 23.9365 28.9426C23.569 28.5521 23.569 27.9236 23.569 26.6665V21.3332M13.4905 29.3331L14.0112 22.6685C14.0554 22.1032 14.0774 21.8205 14.2403 21.7678C14.4031 21.715 14.5699 21.9365 14.9034 22.3794L16.2334 24.1458C16.4143 24.3861 16.5047 24.5062 16.6253 24.5062C16.746 24.5062 16.8364 24.3861 17.0173 24.1458L18.348 22.3785C18.6812 21.9359 18.8479 21.7146 19.0107 21.7672C19.1735 21.8199 19.1957 22.1023 19.2402 22.6672L19.765 29.3331"
        stroke="#98A2B3" stroke-width="2" stroke-linecap="round" stroke-linejoin="round"/>
</svg>
