<svg width="120" height="120" viewBox="0 0 120 120" fill="none" xmlns="http://www.w3.org/2000/svg">
<path d="M105.14 70.4531C104.899 69.6741 104.413 68.9937 103.754 68.5125C103.096 68.0312 102.3 67.7748 101.484 67.7813L100.453 67.9688C93.7388 69.8219 86.6533 69.861 79.9193 68.0819C73.1852 66.3028 67.0435 62.7693 62.1208 57.8419C57.1981 52.9144 53.6705 46.7693 51.898 40.0335C50.1255 33.2977 50.1714 26.2123 52.031 19.5C52.1229 19.2281 52.1704 18.9432 52.1716 18.6563C52.2162 18.0513 52.1115 17.4447 51.8667 16.8897C51.6218 16.3347 51.2444 15.8484 50.7676 15.4734C50.2908 15.0985 49.7292 14.8464 49.1322 14.7393C48.5351 14.6322 47.9209 14.6735 47.3435 14.8594C39.463 17.0682 32.298 21.3019 26.5615 27.1393C20.825 32.9766 16.7168 40.2142 14.6456 48.132C12.5743 56.0499 12.6123 64.3721 14.7556 72.2707C16.8989 80.1693 21.0729 87.3692 26.8624 93.154C32.652 98.9388 39.8552 103.107 47.7555 105.244C55.6559 107.381 63.9781 107.412 71.8943 105.334C79.8104 103.257 87.0447 99.1426 92.8774 93.4013C98.7101 87.6601 102.938 80.4917 105.14 72.6094C105.376 71.91 105.376 71.1525 105.14 70.4531Z" fill="#A8C1EA"/>
</svg>
