<svg width="409" height="102" viewBox="0 0 409 102" fill="none" xmlns="http://www.w3.org/2000/svg">
<path d="M204.944 49.4275V69.9712C205.153 72.3959 204.772 74.8351 203.833 77.0791C202.894 79.3231 201.426 81.3046 199.555 82.8531C194.431 85.9682 188.46 87.3872 182.488 86.9093C168.191 86.9093 161.042 81.5011 161.042 70.6096C160.863 68.3009 161.258 65.9836 162.192 63.8661C163.126 61.7485 164.57 59.8973 166.394 58.4788C171.29 55.6016 176.943 54.2914 182.6 54.7231H194.203V49.4275C194.322 48.2208 194.113 47.0041 193.599 45.9066C193.085 44.809 192.285 43.8714 191.284 43.1931C188.311 41.7733 185.023 41.1521 181.74 41.3904C177.975 41.33 174.214 41.6445 170.511 42.3293C168.977 42.6298 167.929 42.5546 167.405 42.0664C166.749 41.1692 166.467 40.0513 166.619 38.9492V37.4845C166.503 36.3492 166.78 35.2083 167.405 34.2546C168.241 33.5066 169.287 33.0346 170.399 32.9025C173.892 32.3644 177.42 32.0882 180.954 32.0763C187.205 31.6406 193.445 33.0785 198.881 36.2075C200.898 37.7319 202.498 39.7434 203.531 42.0548C204.565 44.3662 205 46.9024 204.795 49.4275M194.203 69.3702V62.7978H182.6C179.793 62.5979 176.987 63.2105 174.516 64.563C173.63 65.2172 172.926 66.0897 172.474 67.0963C172.022 68.1028 171.835 69.2094 171.934 70.3092C171.829 71.3896 172.009 72.4787 172.456 73.4674C172.902 74.456 173.6 75.3096 174.479 75.9427C176.86 77.2386 179.561 77.8249 182.264 77.6327C185.427 77.8818 188.598 77.2585 191.433 75.83C192.411 75.0849 193.181 74.0983 193.666 72.9663C194.151 71.8342 194.336 70.5953 194.203 69.3702Z" fill="white"/>
<path d="M215.193 70.5465V16.6783C215.054 15.3648 215.4 14.0458 216.168 12.9658C217.261 12.2122 218.596 11.8819 219.919 12.0377H221.306C222.629 11.8819 223.963 12.2122 225.057 12.9658C225.825 14.0458 226.171 15.3648 226.032 16.6783V68.4676C225.859 70.4561 226.262 72.4521 227.194 74.2219C227.625 74.7926 228.195 75.2455 228.851 75.5377C229.507 75.83 230.228 75.9521 230.945 75.8925C232.111 75.7395 233.294 76.0027 234.282 76.635C234.868 77.6871 235.104 78.8952 234.957 80.0877V81.1272C235.094 82.3261 234.802 83.5346 234.132 84.5426C233.132 85.3365 231.92 85.8265 230.645 85.9534C230.146 86.0155 229.643 86.0155 229.144 85.9534C227.236 86.0554 225.328 85.7576 223.544 85.0795C221.761 84.4014 220.142 83.3582 218.793 82.0181C216.08 78.7809 214.736 74.6306 215.043 70.4352" fill="white"/>
<path d="M242.193 70.5465V16.6783C242.054 15.3648 242.4 14.0458 243.168 12.9658C244.261 12.2122 245.596 11.8819 246.918 12.0377H248.306C249.629 11.8819 250.963 12.2122 252.057 12.9658C252.825 14.0458 253.171 15.3648 253.032 16.6783V68.4676C252.859 70.4561 253.262 72.4521 254.194 74.2219C254.625 74.7926 255.195 75.2455 255.851 75.5377C256.507 75.83 257.228 75.9521 257.945 75.8925C259.111 75.7395 260.294 76.0027 261.282 76.635C261.868 77.6871 262.104 78.8952 261.957 80.0877V81.1272C262.094 82.3261 261.802 83.5346 261.132 84.5426C260.132 85.3365 258.92 85.8265 257.645 85.9534C257.146 86.0155 256.643 86.0155 256.144 85.9534C254.236 86.0554 252.328 85.7576 250.544 85.0795C248.761 84.4014 247.142 83.3582 245.793 82.0181C243.08 78.7809 241.736 74.6306 242.043 70.4352" fill="white"/>
<path d="M269.2 64.5319V16.9451C268.975 16.284 268.939 15.5726 269.096 14.8918C269.253 14.2111 269.596 13.5882 270.087 13.094C270.578 12.5999 271.197 12.2543 271.873 12.0965C272.55 11.9387 273.256 11.975 273.913 12.2014H275.175C275.832 11.975 276.539 11.9387 277.215 12.0965C277.892 12.2543 278.51 12.5999 279.001 13.094C279.492 13.5882 279.836 14.2111 279.992 14.8918C280.149 15.5726 280.113 16.284 279.888 16.9451V39.3565C282.733 34.7995 287.855 32.521 295.252 32.521C309.775 32.521 317.025 40.1782 317 55.4927V64.5319C317 79.4728 309.021 86.9433 293.063 86.9433C286.655 87.375 280.324 85.3312 275.361 81.2284C273.21 79.0253 271.549 76.3877 270.487 73.49C269.425 70.5924 268.986 67.5008 269.2 64.4198M306.312 64.1957V55.1565C306.669 51.6436 305.643 48.1299 303.454 45.3702C300.531 43.1606 296.885 42.1463 293.248 42.5314C289.566 42.145 285.873 43.1575 282.894 45.3702C281.781 46.7218 280.948 48.2841 280.445 49.9649C279.941 51.6457 279.777 53.4109 279.962 55.1565V64.1957C279.783 65.9295 279.95 67.6818 280.454 69.3496C280.957 71.0174 281.787 72.5671 282.894 73.9074C285.873 76.1201 289.566 77.1325 293.248 76.7461C296.891 77.1403 300.548 76.1402 303.491 73.9447C305.665 71.1928 306.678 67.6919 306.312 64.1957" fill="white"/>
<path d="M323.034 40.063V39.0225C322.907 37.9504 323.172 36.8687 323.78 35.9751C324.572 35.2732 325.562 34.8319 326.615 34.7116L332.173 33.671L333.441 23.8228C333.484 22.7088 333.89 21.639 334.598 20.7754C335.54 20.1792 336.657 19.9173 337.768 20.0322H339.111C340.187 19.9027 341.274 20.1668 342.17 20.7754C342.775 21.6704 343.039 22.7509 342.916 23.8228V33.671H357.613C358.853 33.5278 360.106 33.8166 361.157 34.4886C361.932 35.5629 362.253 36.8971 362.052 38.2049V39.4684C362.253 40.7762 361.932 42.1104 361.157 43.1847C360.112 43.8725 358.858 44.1749 357.613 44.0395H342.916V67.7867C342.916 73.8814 345.639 76.9288 351.122 76.9288C353.986 76.954 356.842 76.6295 359.627 75.9626C361.368 75.6157 362.524 75.69 363.096 76.1855C363.817 77.1852 364.124 78.4226 363.954 79.6417V80.9053C364.077 82.2037 363.776 83.5071 363.096 84.6216C362.13 85.4876 360.918 86.0331 359.627 86.1824C356.82 86.6929 353.975 86.9664 351.122 87C338.477 87 332.173 80.6079 332.173 67.7495V44.0767H326.727C325.686 44.1991 324.637 43.9344 323.78 43.3334C323.167 42.4844 322.9 41.435 323.034 40.3975" fill="white"/>
<path d="M371.037 64.482V54.1255C370.858 51.1211 371.327 48.1134 372.412 45.3044C373.497 42.4955 375.173 39.9505 377.327 37.8404C382.429 33.6741 388.936 31.6071 395.518 32.0618C398.314 32.043 401.101 32.3963 403.803 33.1125C405.104 33.287 406.316 33.8646 407.268 34.7635C407.926 35.8984 408.203 37.2131 408.059 38.5158V39.9042C408.145 40.5217 408.102 41.1502 407.934 41.7506C407.766 42.3509 407.475 42.9103 407.08 43.3939C406.477 43.8692 405.31 43.8692 403.577 43.3939C401.047 42.5946 398.396 42.2391 395.744 42.3432C391.953 41.964 388.151 42.9344 385.01 45.0824C383.864 46.3509 382.998 47.8441 382.466 49.4661C381.934 51.0881 381.748 52.8031 381.922 54.5007V64.482C381.729 66.2156 381.919 67.9703 382.479 69.6231C383.038 71.2759 383.953 72.7869 385.16 74.0504C388.525 76.1678 392.497 77.1177 396.459 76.7521C399.207 76.6641 401.941 76.3376 404.632 75.7764C405.188 75.5791 405.779 75.4974 406.369 75.5361C406.958 75.5748 407.533 75.7332 408.059 76.0016C408.662 76.4769 408.963 77.6026 408.963 79.3787V80.6545C409.115 81.9723 408.795 83.3012 408.059 84.4068C407.08 85.3168 405.844 85.9061 404.519 86.0954C401.78 86.7367 398.971 87.0392 396.158 86.9959C379.561 86.9959 371.251 79.5913 371.225 64.7821" fill="white"/>
<path d="M87.2049 60.2282C71.5305 60.2282 57.9353 63.6721 49.5701 68.55C49.3387 68.6858 48.8288 68.9453 48.6123 69.0958C51.1116 67.8579 54.0919 66.9187 56.8806 66.5565H56.8955C57.9213 66.4202 58.961 66.36 60.0017 66.36C60.4921 66.36 60.969 66.3752 61.4459 66.405C66.7914 66.7227 71.8765 68.7611 76.0234 72.1591C76.0519 72.1743 76.0809 72.1894 76.1098 72.2197C76.1533 72.25 76.1678 72.2803 76.1968 72.3101C78.2193 73.9869 80.0108 76.0102 81.4989 78.3061L81.9178 78.9551L81.9608 79.0309H81.9757L91.8286 94.2997C96.5958 101.685 106.16 103.618 113.21 98.6341C117.632 95.5229 120 90.4482 120 85.2835C120 82.1875 119.149 79.046 117.357 76.2824C110.884 66.2393 100.049 60.2282 88.477 60.2282H87.2049Z" fill="url(#paint0_linear_565_29761)"/>
<path d="M47.0867 7.67693L13.016 60.2768L9.04994 66.4014L7.39992 68.951L2.63903 76.312C1.88593 77.4733 1.30658 78.7102 0.872415 79.9774C-0.0539934 82.6924 -0.226844 85.5739 0.279006 88.3192C0.886933 91.6834 2.52289 94.8358 5.08481 97.2496C5.6206 97.7475 6.18406 98.2146 6.79199 98.6373C13.8557 103.615 23.451 101.684 28.2273 94.3081C28.2273 94.3081 36.1158 80.7316 39.6033 76.7641C39.8061 76.5229 40.0234 76.2818 40.2547 76.0401C42.3965 73.3705 45.017 71.1832 47.9255 69.569C48.2304 69.403 49.4308 68.7245 49.6626 68.5888C58.0429 63.7167 71.6628 60.2768 87.3654 60.2768H50.2706L60.1131 45.0866L72.6899 25.6725C74.4701 22.9126 75.324 19.79 75.324 16.6825C75.324 11.5088 72.9503 6.43998 68.522 3.33252C65.9451 1.52251 63.0216 0.632653 60.1131 0.602392C60.0242 0.6005 59.9366 0.60002 59.8477 0.60002C54.9158 0.60002 50.0578 3.08335 47.0867 7.67693Z" fill="url(#paint1_linear_565_29761)"/>
<defs>
<linearGradient id="paint0_linear_565_29761" x1="30.2097" y1="58.1409" x2="122.789" y2="86.4552" gradientUnits="userSpaceOnUse">
<stop stop-color="#000034"/>
<stop offset="0.262356" stop-color="#000034"/>
<stop offset="0.27221" stop-color="#000034"/>
<stop offset="1" stop-color="#3F7BDD"/>
</linearGradient>
<linearGradient id="paint1_linear_565_29761" x1="71.8869" y1="26.8635" x2="25.2737" y2="92.3564" gradientUnits="userSpaceOnUse">
<stop stop-color="#3F7BDD"/>
<stop offset="0.568518" stop-color="#3F65B3"/>
<stop offset="1" stop-color="#3F65B3"/>
</linearGradient>
</defs>
</svg>
