<svg width="175" height="54" viewBox="0 0 175 54" fill="none" xmlns="http://www.w3.org/2000/svg">
<path d="M48.6241 32C39.8415 32 32.2238 33.8403 27.5367 36.4467C27.407 36.5193 27.1213 36.6579 27 36.7384C28.4004 36.0769 30.0703 35.575 31.6329 35.3815H31.6412C32.216 35.3087 32.7986 35.2765 33.3817 35.2765C33.6565 35.2765 33.9237 35.2846 34.1909 35.3006C37.1861 35.4703 40.0354 36.5595 42.3589 38.3752C42.3749 38.3833 42.3911 38.3914 42.4074 38.4076C42.4317 38.4238 42.4398 38.44 42.4561 38.4559C43.5893 39.3519 44.5931 40.433 45.4269 41.6599L45.6616 42.0067L45.6857 42.0471H45.6941L51.2148 50.206C53.886 54.1521 59.2451 55.1851 63.1954 52.522C65.6729 50.8596 67 48.1479 67 45.3882C67 43.7338 66.523 42.0552 65.5186 40.5785C61.8921 35.212 55.821 32 49.3369 32H48.6241Z" fill="url(#paint0_linear_891_11791)"/>
<path d="M26.4091 3.7912L7.30018 31.9697L5.07577 35.2508L4.15034 36.6166L1.48013 40.56C1.05775 41.1821 0.732814 41.8448 0.489305 42.5236C-0.0302829 43.9781 -0.127228 45.5217 0.156484 46.9924C0.497447 48.7947 1.415 50.4834 2.85188 51.7765C3.15238 52.0433 3.46841 52.2935 3.80937 52.52C7.77116 55.1868 13.1528 54.1523 15.8316 50.2007C15.8316 50.2007 20.256 42.9276 22.212 40.8022C22.3257 40.673 22.4476 40.5438 22.5774 40.4144C23.7786 38.9842 25.2483 37.8124 26.8796 36.9476C27.0506 36.8587 27.7239 36.4952 27.8539 36.4225C32.5541 33.8125 40.193 31.9697 49 31.9697H28.1949L33.7152 23.8321L40.769 13.4317C41.7675 11.9531 42.2464 10.2803 42.2464 8.61562C42.2464 5.84397 40.9151 3.12855 38.4314 1.46384C36.9861 0.494194 35.3465 0.0174828 33.7152 0.00127029C33.6653 0.000259399 33.6162 0 33.5663 0C30.8002 0 28.0755 1.33036 26.4091 3.7912Z" fill="url(#paint1_linear_891_11791)"/>
<path d="M94.2776 13.557V20.924C94.2776 23.0253 93.5715 24.5696 92.1594 25.557C90.7473 26.519 88.5045 27 85.4311 27C79.8104 27 77 25.0506 77 21.1519C77 19.1772 77.6922 17.7342 79.0766 16.8228C80.4887 15.8861 82.6207 15.4177 85.4726 15.4177H90.0412V13.557C90.0412 12.4937 89.6536 11.7468 88.8783 11.3165C88.1307 10.8861 86.8848 10.6709 85.1404 10.6709C83.4791 10.6709 82.0254 10.7848 80.7795 11.0127C80.1703 11.1139 79.755 11.0886 79.5335 10.9367C79.3397 10.7595 79.2428 10.3797 79.2428 9.79747V9.26582C79.2428 8.70886 79.3397 8.32911 79.5335 8.12658C79.755 7.89873 80.1565 7.73418 80.7379 7.63291C82.2054 7.43038 83.5898 7.32911 84.8912 7.32911C88.0477 7.32911 90.4012 7.82279 91.9517 8.81013C93.5023 9.79747 94.2776 11.3797 94.2776 13.557ZM90.0412 20.7342V18.3797H85.4726C84.0329 18.3797 82.9668 18.5949 82.2746 19.0253C81.6101 19.4304 81.2779 20.1139 81.2779 21.0759C81.2779 22.0127 81.6101 22.6835 82.2746 23.0886C82.9392 23.4937 83.9636 23.6962 85.348 23.6962C87.037 23.6962 88.2415 23.481 88.9614 23.0506C89.6813 22.6203 90.0412 21.8481 90.0412 20.7342Z" fill="#000034"/>
<path d="M98.2744 21.2658V1.70886C98.2744 1.02532 98.399 0.56962 98.6482 0.341772C98.8974 0.113924 99.3958 0 100.143 0H100.683C101.431 0 101.929 0.113924 102.178 0.341772C102.428 0.56962 102.552 1.02532 102.552 1.70886V20.5063C102.552 21.4937 102.705 22.1899 103.009 22.5949C103.314 23 103.812 23.2025 104.504 23.2025C105.197 23.2025 105.626 23.2911 105.792 23.4684C105.986 23.6456 106.083 24.0633 106.083 24.7215V25.1013C106.083 25.7089 105.972 26.1266 105.75 26.3544C105.529 26.557 105.072 26.7215 104.38 26.8481C104.297 26.8734 104.103 26.8861 103.798 26.8861C102.054 26.8861 100.697 26.4177 99.7281 25.481C98.759 24.519 98.2744 23.1139 98.2744 21.2658Z" fill="#000034"/>
<path d="M108.695 21.2658V1.70886C108.695 1.02532 108.82 0.56962 109.069 0.341772C109.318 0.113924 109.817 0 110.564 0H111.104C111.852 0 112.35 0.113924 112.599 0.341772C112.848 0.56962 112.973 1.02532 112.973 1.70886V20.5063C112.973 21.4937 113.125 22.1899 113.43 22.5949C113.734 23 114.233 23.2025 114.925 23.2025C115.617 23.2025 116.046 23.2911 116.213 23.4684C116.406 23.6456 116.503 24.0633 116.503 24.7215V25.1013C116.503 25.7089 116.393 26.1266 116.171 26.3544C115.95 26.557 115.493 26.7215 114.8 26.8481C114.717 26.8734 114.524 26.8861 114.219 26.8861C112.475 26.8861 111.118 26.4177 110.149 25.481C109.18 24.519 108.695 23.1139 108.695 21.2658Z" fill="#000034"/>
<path d="M119.199 18.8734V1.70886C119.199 1.02532 119.324 0.56962 119.573 0.341772C119.822 0.113924 120.32 0 121.068 0H121.566C122.314 0 122.812 0.113924 123.062 0.341772C123.311 0.56962 123.435 1.02532 123.435 1.70886V9.79747C124.571 8.1519 126.606 7.32911 129.541 7.32911C135.3 7.32911 138.179 10.0886 138.179 15.6076V18.8734C138.179 24.2911 135.009 27 128.668 27C125.623 27 123.283 26.3165 121.649 24.9494C120.016 23.557 119.199 21.5316 119.199 18.8734ZM133.902 18.7975V15.5316C133.902 13.8608 133.514 12.6835 132.739 12C131.991 11.3165 130.648 10.9747 128.71 10.9747C126.744 10.9747 125.374 11.3165 124.598 12C123.823 12.6835 123.435 13.8608 123.435 15.5316V18.7975C123.435 20.443 123.823 21.6076 124.598 22.2911C125.374 22.9747 126.744 23.3165 128.71 23.3165C130.676 23.3165 132.033 22.9873 132.78 22.3291C133.528 21.6456 133.902 20.4684 133.902 18.7975Z" fill="#000034"/>
<path d="M140.448 10.0633V9.68355C140.448 9.1519 140.545 8.78481 140.739 8.58228C140.932 8.37975 141.306 8.22785 141.86 8.12658L144.061 7.74684L144.56 4.17722C144.643 3.62025 144.795 3.25316 145.016 3.07595C145.238 2.89873 145.653 2.81013 146.262 2.81013H146.802C147.411 2.81013 147.813 2.89873 148.007 3.07595C148.201 3.25316 148.298 3.62025 148.298 4.17722V7.74684H154.112C154.804 7.74684 155.261 7.8481 155.483 8.05063C155.732 8.25317 155.856 8.68355 155.856 9.34177V9.79747C155.856 10.4557 155.732 10.8861 155.483 11.0886C155.261 11.2911 154.804 11.3924 154.112 11.3924H148.298V20.0127C148.298 22.2152 149.377 23.3165 151.537 23.3165C152.783 23.3165 153.904 23.2025 154.901 22.9747C155.593 22.8481 156.05 22.8734 156.272 23.0506C156.493 23.2278 156.604 23.6456 156.604 24.3038V24.7595C156.604 25.3924 156.493 25.8354 156.272 26.0886C156.05 26.3418 155.593 26.5316 154.901 26.6582C153.628 26.8608 152.506 26.962 151.537 26.962C146.553 26.962 144.061 24.6329 144.061 19.9747V11.3924H141.901C141.32 11.3924 140.932 11.3038 140.739 11.1266C140.545 10.9494 140.448 10.5949 140.448 10.0633Z" fill="#000034"/>
<path d="M159.131 19.0253V15.3038C159.131 12.7468 159.948 10.7848 161.582 9.41772C163.243 8.02532 165.624 7.32911 168.725 7.32911C169.861 7.32911 170.94 7.4557 171.965 7.70886C172.657 7.86076 173.1 8.06329 173.294 8.31646C173.515 8.5443 173.626 8.97468 173.626 9.6076V10.1013C173.626 10.7595 173.502 11.1772 173.252 11.3544C173.003 11.5316 172.546 11.5316 171.882 11.3544C171.134 11.1013 170.11 10.9747 168.808 10.9747C166.815 10.9747 165.417 11.3038 164.614 11.962C163.811 12.6203 163.409 13.7468 163.409 15.3418V18.9114C163.409 20.557 163.825 21.7089 164.655 22.3671C165.514 23 166.995 23.3165 169.099 23.3165C169.902 23.3165 170.968 23.2025 172.297 22.9747C172.962 22.8481 173.405 22.8734 173.626 23.0506C173.875 23.2278 174 23.6329 174 24.2658V24.7215C174 25.3291 173.875 25.7595 173.626 26.0127C173.405 26.2658 172.948 26.4684 172.256 26.6203C171.176 26.8734 170.054 27 168.892 27C162.385 27 159.131 24.3418 159.131 19.0253Z" fill="#000034"/>
<path d="M77 52.1371V40.6627C77 38.8738 77.4975 37.5193 78.4925 36.5993C79.5047 35.6793 80.963 35.2193 82.8672 35.2193C84.8573 35.2193 86.3327 35.6623 87.2934 36.5482C88.2713 37.4341 88.7602 38.8056 88.7602 40.6627V42.886C88.7602 46.6001 86.976 48.4571 83.4076 48.4571C81.5891 48.4571 80.3282 47.9034 79.6248 46.796V52.1371C79.6248 52.5971 79.5476 52.9038 79.3932 53.0571C79.2388 53.2104 78.93 53.2871 78.4668 53.2871H78.158C77.6948 53.2871 77.386 53.2104 77.2316 53.0571C77.0772 52.9038 77 52.5971 77 52.1371ZM86.1097 42.9371V40.7393C86.1097 39.6149 85.8781 38.8227 85.4148 38.3627C84.9516 37.9027 84.111 37.6727 82.893 37.6727C81.6749 37.6727 80.8257 37.9027 80.3454 38.3627C79.865 38.8227 79.6248 39.6149 79.6248 40.7393V42.9371C79.6248 44.0445 79.865 44.8282 80.3454 45.2882C80.8257 45.7482 81.6749 45.9782 82.893 45.9782C84.111 45.9782 84.9516 45.7567 85.4148 45.3138C85.8781 44.8538 86.1097 44.0616 86.1097 42.9371Z" fill="url(#paint2_linear_891_11791)"/>
<path d="M100.073 42.9371V40.7393C100.073 39.6149 99.8329 38.8227 99.3525 38.3627C98.8893 37.9027 98.0573 37.6727 96.8564 37.6727C95.6383 37.6727 94.7891 37.9027 94.3088 38.3627C93.8284 38.8227 93.5882 39.6149 93.5882 40.7393V42.9371C93.5882 44.0445 93.8284 44.8282 94.3088 45.2882C94.7891 45.7482 95.6383 45.9782 96.8564 45.9782C98.0744 45.9782 98.9151 45.7567 99.3783 45.3138C99.8415 44.8538 100.073 44.0616 100.073 42.9371ZM96.8564 48.4571C94.832 48.4571 93.3395 48.0056 92.3788 47.1027C91.4181 46.1997 90.9377 44.8112 90.9377 42.9371V40.7393C90.9377 37.0593 92.9106 35.2193 96.8564 35.2193C98.8636 35.2193 100.339 35.6793 101.283 36.5993C102.243 37.5023 102.724 38.8823 102.724 40.7393V42.9371C102.724 44.743 102.226 46.1145 101.231 47.0516C100.253 47.9886 98.795 48.4571 96.8564 48.4571Z" fill="url(#paint3_linear_891_11791)"/>
<path d="M114.044 42.9371V40.7393C114.044 39.6149 113.804 38.8227 113.323 38.3627C112.86 37.9027 112.028 37.6727 110.827 37.6727C109.609 37.6727 108.76 37.9027 108.279 38.3627C107.799 38.8227 107.559 39.6149 107.559 40.7393V42.9371C107.559 44.0445 107.799 44.8282 108.279 45.2882C108.76 45.7482 109.609 45.9782 110.827 45.9782C112.045 45.9782 112.886 45.7567 113.349 45.3138C113.812 44.8538 114.044 44.0616 114.044 42.9371ZM110.827 48.4571C108.803 48.4571 107.31 48.0056 106.349 47.1027C105.389 46.1997 104.908 44.8112 104.908 42.9371V40.7393C104.908 37.0593 106.881 35.2193 110.827 35.2193C112.834 35.2193 114.31 35.6793 115.253 36.5993C116.214 37.5023 116.694 38.8823 116.694 40.7393V42.9371C116.694 44.743 116.197 46.1145 115.202 47.0516C114.224 47.9886 112.766 48.4571 110.827 48.4571Z" fill="url(#paint4_linear_891_11791)"/>
<path d="M119.162 44.5982V31.4371C119.162 30.9771 119.239 30.6704 119.394 30.5171C119.548 30.3638 119.857 30.2871 120.32 30.2871H120.655C121.118 30.2871 121.427 30.3638 121.581 30.5171C121.735 30.6704 121.813 30.9771 121.813 31.4371V44.0871C121.813 44.7516 121.907 45.2201 122.096 45.4927C122.284 45.7653 122.593 45.9016 123.022 45.9016C123.451 45.9016 123.717 45.9612 123.82 46.0804C123.94 46.1997 124 46.4808 124 46.9238V47.1793C124 47.5882 123.931 47.8693 123.794 48.0227C123.657 48.159 123.374 48.2697 122.945 48.3549C122.893 48.3719 122.773 48.3804 122.585 48.3804C121.504 48.3804 120.663 48.0653 120.063 47.4349C119.462 46.7875 119.162 45.8419 119.162 44.5982Z" fill="url(#paint5_linear_891_11791)"/>
<defs>
<linearGradient id="paint0_linear_891_11791" x1="37" y1="43" x2="63.2063" y2="23.1808" gradientUnits="userSpaceOnUse">
<stop offset="0.158705" stop-color="#1B3867"/>
<stop offset="0.566881" stop-color="#1C70DC"/>
<stop offset="0.977621" stop-color="#3565B5"/>
</linearGradient>
<linearGradient id="paint1_linear_891_11791" x1="-4.5" y1="60.5" x2="62.0194" y2="23.2461" gradientUnits="userSpaceOnUse">
<stop offset="0.158705" stop-color="#024BC0"/>
<stop offset="0.977621" stop-color="#3597F9"/>
</linearGradient>
<linearGradient id="paint2_linear_891_11791" x1="68" y1="29.999" x2="114.55" y2="63.5934" gradientUnits="userSpaceOnUse">
<stop offset="0.158705" stop-color="#024BC0"/>
<stop offset="0.977621" stop-color="#3597F9"/>
</linearGradient>
<linearGradient id="paint3_linear_891_11791" x1="68" y1="29.999" x2="114.55" y2="63.5934" gradientUnits="userSpaceOnUse">
<stop offset="0.158705" stop-color="#024BC0"/>
<stop offset="0.977621" stop-color="#3597F9"/>
</linearGradient>
<linearGradient id="paint4_linear_891_11791" x1="68" y1="29.999" x2="114.55" y2="63.5934" gradientUnits="userSpaceOnUse">
<stop offset="0.158705" stop-color="#024BC0"/>
<stop offset="0.977621" stop-color="#3597F9"/>
</linearGradient>
<linearGradient id="paint5_linear_891_11791" x1="68" y1="29.999" x2="114.55" y2="63.5934" gradientUnits="userSpaceOnUse">
<stop offset="0.158705" stop-color="#024BC0"/>
<stop offset="0.977621" stop-color="#3597F9"/>
</linearGradient>
</defs>
</svg>
