<svg width="301" height="244" viewBox="0 0 301 244" fill="none" xmlns="http://www.w3.org/2000/svg">
<g filter="url(#filter0_ddddd_978_36996)">
<rect width="155.999" height="180.998" rx="27.2967" transform="matrix(0.938142 -0.346251 0.706951 0.707262 17.0465 66.9878)" fill="url(#paint0_linear_978_36996)"/>
</g>
<g filter="url(#filter1_i_978_36996)">
<rect width="155.999" height="180.998" rx="27.3005" transform="matrix(0.938142 -0.346251 0.706951 0.707262 17.0465 54.9878)" fill="url(#paint1_linear_978_36996)"/>
</g>
<rect x="1.5687" y="0.344247" width="154.092" height="179.091" rx="26.3469" transform="matrix(0.938142 -0.346251 0.706951 0.707262 16.9002 55.6317)" stroke="white" stroke-width="1.90712"/>
<path d="M184.974 63.748C203.029 81.8112 198.243 103.623 174.283 112.466C150.323 121.31 116.263 113.835 98.2074 95.772C80.1521 77.7088 84.9388 55.8969 108.899 47.0537C132.859 38.2105 166.919 45.6848 184.974 63.748Z" stroke="#EBEEF5" stroke-width="11.5115"/>
<g filter="url(#filter2_ddddd_978_36996)">
<path d="M108.898 47.0525C106.651 44.8049 107.231 42.0649 110.442 41.2195C116.099 39.73 122.274 38.9171 128.732 38.8215C137.399 38.6933 146.368 39.8598 155.016 42.2401C163.664 44.6204 171.785 48.1574 178.814 52.6056C185.842 57.0537 191.611 62.3063 195.719 67.9987C199.828 73.6911 202.177 79.6868 202.603 85.5695C203.03 91.4522 201.524 97.0809 198.19 102.065C194.857 107.048 189.775 111.268 183.298 114.43C178.472 116.787 172.956 118.514 166.974 119.553C163.579 120.143 159.738 118.364 158.571 115.882V115.882C157.404 113.4 159.362 111.161 162.707 110.495C166.846 109.67 170.675 108.413 174.068 106.757C179.111 104.295 183.068 101.009 185.664 97.1283C188.26 93.2475 189.433 88.8646 189.1 84.2838C188.768 79.703 186.939 75.0342 183.74 70.6017C180.541 66.1691 176.049 62.0789 170.576 58.6152C165.102 55.1515 158.779 52.3973 152.045 50.5438C145.31 48.6903 138.327 47.7819 131.578 47.8818C127.039 47.949 122.68 48.4712 118.634 49.4251C115.365 50.196 111.144 49.3001 108.898 47.0525V47.0525Z" fill="url(#paint2_linear_978_36996)"/>
</g>
<path d="M108.898 46.0525C106.651 43.8049 107.231 41.0649 110.442 40.2195C116.099 38.73 122.274 37.9171 128.732 37.8215C137.399 37.6933 146.368 38.8598 155.016 41.2401C163.664 43.6204 171.785 47.1574 178.814 51.6056C185.842 56.0537 191.611 61.3063 195.719 66.9987C199.828 72.6911 202.177 78.6868 202.603 84.5695C203.03 90.4522 201.524 96.0809 198.19 101.065C194.857 106.048 189.775 110.268 183.298 113.43C178.472 115.787 172.956 117.514 166.974 118.553C163.579 119.143 159.738 117.364 158.571 114.882V114.882C157.404 112.4 159.362 110.161 162.707 109.495C166.846 108.67 170.675 107.413 174.068 105.757C179.111 103.295 183.068 100.009 185.664 96.1283C188.26 92.2475 189.433 87.8646 189.1 83.2838C188.768 78.703 186.939 74.0342 183.74 69.6017C180.541 65.1691 176.049 61.0789 170.576 57.6152C165.102 54.1515 158.779 51.3973 152.045 49.5438C145.31 47.6903 138.327 46.7819 131.578 46.8818C127.039 46.949 122.68 47.4712 118.634 48.4251C115.365 49.196 111.144 48.3001 108.898 46.0525V46.0525Z" fill="url(#paint3_linear_978_36996)"/>
<path d="M108.898 44.0525C106.651 41.8049 107.231 39.0649 110.442 38.2195C116.099 36.73 122.274 35.9171 128.732 35.8215C137.399 35.6933 146.368 36.8598 155.016 39.2401C163.664 41.6204 171.785 45.1574 178.814 49.6056C185.842 54.0537 191.611 59.3063 195.719 64.9987C199.828 70.6911 202.177 76.6868 202.603 82.5695C203.03 88.4522 201.524 94.0809 198.19 99.0647C194.857 104.048 189.775 108.268 183.298 111.43C178.472 113.787 172.956 115.514 166.974 116.553C163.579 117.143 159.738 115.364 158.571 112.882V112.882C157.404 110.4 159.362 108.161 162.707 107.495C166.846 106.67 170.675 105.413 174.068 103.757C179.111 101.295 183.068 98.0092 185.664 94.1283C188.26 90.2475 189.433 85.8646 189.1 81.2838C188.768 76.703 186.939 72.0342 183.74 67.6017C180.541 63.1691 176.049 59.0789 170.576 55.6152C165.102 52.1515 158.779 49.3973 152.045 47.5438C145.31 45.6903 138.327 44.7819 131.578 44.8818C127.039 44.949 122.68 45.4712 118.634 46.4251C115.365 47.196 111.144 46.3001 108.898 44.0525V44.0525Z" fill="url(#paint4_linear_978_36996)"/>
<path d="M108.898 43.0525C106.651 40.8049 107.231 38.0649 110.442 37.2195C116.099 35.73 122.274 34.9171 128.732 34.8215C137.399 34.6933 146.368 35.8598 155.016 38.2401C163.664 40.6204 171.785 44.1574 178.814 48.6056C185.842 53.0537 191.611 58.3063 195.719 63.9987C199.828 69.6911 202.177 75.6868 202.603 81.5695C203.03 87.4522 201.524 93.0809 198.19 98.0647C194.857 103.048 189.775 107.268 183.298 110.43C178.472 112.787 172.956 114.514 166.974 115.553C163.579 116.143 159.738 114.364 158.571 111.882V111.882C157.404 109.4 159.362 107.161 162.707 106.495C166.846 105.67 170.675 104.413 174.068 102.757C179.111 100.295 183.068 97.0092 185.664 93.1283C188.26 89.2475 189.433 84.8646 189.1 80.2838C188.768 75.703 186.939 71.0342 183.74 66.6017C180.541 62.1691 176.049 58.0789 170.576 54.6152C165.102 51.1515 158.779 48.3973 152.045 46.5438C145.31 44.6903 138.327 43.7819 131.578 43.8818C127.039 43.949 122.68 44.4712 118.634 45.4251C115.365 46.196 111.144 45.3001 108.898 43.0525V43.0525Z" fill="url(#paint5_linear_978_36996)"/>
<mask id="path-9-inside-1_978_36996" fill="white">
<path d="M108.898 41.0525C106.651 38.8049 107.231 36.0649 110.442 35.2195C116.099 33.73 122.274 32.9171 128.732 32.8215C137.399 32.6933 146.368 33.8598 155.016 36.2401C163.664 38.6204 171.785 42.1574 178.814 46.6056C185.842 51.0537 191.611 56.3063 195.719 61.9987C199.828 67.6911 202.177 73.6868 202.603 79.5695C203.03 85.4522 201.524 91.0809 198.19 96.0647C194.857 101.048 189.775 105.268 183.298 108.43C178.472 110.787 172.956 112.514 166.974 113.553C163.579 114.143 159.738 112.364 158.571 109.882V109.882C157.404 107.4 159.362 105.161 162.707 104.495C166.846 103.67 170.675 102.413 174.068 100.757C179.111 98.2948 183.068 95.0092 185.664 91.1283C188.26 87.2475 189.433 82.8646 189.1 78.2838C188.768 73.703 186.939 69.0342 183.74 64.6017C180.541 60.1691 176.049 56.0789 170.576 52.6152C165.102 49.1515 158.779 46.3973 152.045 44.5438C145.31 42.6903 138.327 41.7819 131.578 41.8818C127.039 41.949 122.68 42.4712 118.634 43.4251C115.365 44.196 111.144 43.3001 108.898 41.0525V41.0525Z"/>
</mask>
<path d="M108.898 41.0525C106.651 38.8049 107.231 36.0649 110.442 35.2195C116.099 33.73 122.274 32.9171 128.732 32.8215C137.399 32.6933 146.368 33.8598 155.016 36.2401C163.664 38.6204 171.785 42.1574 178.814 46.6056C185.842 51.0537 191.611 56.3063 195.719 61.9987C199.828 67.6911 202.177 73.6868 202.603 79.5695C203.03 85.4522 201.524 91.0809 198.19 96.0647C194.857 101.048 189.775 105.268 183.298 108.43C178.472 110.787 172.956 112.514 166.974 113.553C163.579 114.143 159.738 112.364 158.571 109.882V109.882C157.404 107.4 159.362 105.161 162.707 104.495C166.846 103.67 170.675 102.413 174.068 100.757C179.111 98.2948 183.068 95.0092 185.664 91.1283C188.26 87.2475 189.433 82.8646 189.1 78.2838C188.768 73.703 186.939 69.0342 183.74 64.6017C180.541 60.1691 176.049 56.0789 170.576 52.6152C165.102 49.1515 158.779 46.3973 152.045 44.5438C145.31 42.6903 138.327 41.7819 131.578 41.8818C127.039 41.949 122.68 42.4712 118.634 43.4251C115.365 44.196 111.144 43.3001 108.898 41.0525V41.0525Z" fill="#EBEEF5"/>
<path d="M108.898 41.0525C106.651 38.8049 107.231 36.0649 110.442 35.2195C116.099 33.73 122.274 32.9171 128.732 32.8215C137.399 32.6933 146.368 33.8598 155.016 36.2401C163.664 38.6204 171.785 42.1574 178.814 46.6056C185.842 51.0537 191.611 56.3063 195.719 61.9987C199.828 67.6911 202.177 73.6868 202.603 79.5695C203.03 85.4522 201.524 91.0809 198.19 96.0647C194.857 101.048 189.775 105.268 183.298 108.43C178.472 110.787 172.956 112.514 166.974 113.553C163.579 114.143 159.738 112.364 158.571 109.882V109.882C157.404 107.4 159.362 105.161 162.707 104.495C166.846 103.67 170.675 102.413 174.068 100.757C179.111 98.2948 183.068 95.0092 185.664 91.1283C188.26 87.2475 189.433 82.8646 189.1 78.2838C188.768 73.703 186.939 69.0342 183.74 64.6017C180.541 60.1691 176.049 56.0789 170.576 52.6152C165.102 49.1515 158.779 46.3973 152.045 44.5438C145.31 42.6903 138.327 41.7819 131.578 41.8818C127.039 41.949 122.68 42.4712 118.634 43.4251C115.365 44.196 111.144 43.3001 108.898 41.0525V41.0525Z" fill="url(#paint6_linear_978_36996)"/>
<path d="M108.898 41.0525C106.651 38.8049 107.231 36.0649 110.442 35.2195C116.099 33.73 122.274 32.9171 128.732 32.8215C137.399 32.6933 146.368 33.8598 155.016 36.2401C163.664 38.6204 171.785 42.1574 178.814 46.6056C185.842 51.0537 191.611 56.3063 195.719 61.9987C199.828 67.6911 202.177 73.6868 202.603 79.5695C203.03 85.4522 201.524 91.0809 198.19 96.0647C194.857 101.048 189.775 105.268 183.298 108.43C178.472 110.787 172.956 112.514 166.974 113.553C163.579 114.143 159.738 112.364 158.571 109.882V109.882C157.404 107.4 159.362 105.161 162.707 104.495C166.846 103.67 170.675 102.413 174.068 100.757C179.111 98.2948 183.068 95.0092 185.664 91.1283C188.26 87.2475 189.433 82.8646 189.1 78.2838C188.768 73.703 186.939 69.0342 183.74 64.6017C180.541 60.1691 176.049 56.0789 170.576 52.6152C165.102 49.1515 158.779 46.3973 152.045 44.5438C145.31 42.6903 138.327 41.7819 131.578 41.8818C127.039 41.949 122.68 42.4712 118.634 43.4251C115.365 44.196 111.144 43.3001 108.898 41.0525V41.0525Z" stroke="white" stroke-opacity="0.54" stroke-width="1.21174" mask="url(#path-9-inside-1_978_36996)"/>
<path d="M122.859 84.3295C123.147 84.6172 123.351 84.9303 123.472 85.2688C123.584 85.5992 123.645 85.9433 123.654 86.301C123.666 86.6468 123.637 87.0023 123.566 87.3675C123.488 87.7246 123.406 88.0778 123.319 88.427C123.269 88.6095 123.222 88.8238 123.178 89.07C123.134 89.3161 123.1 89.5583 123.077 89.7966C123.054 90.0349 123.054 90.2594 123.076 90.4701C123.09 90.6729 123.143 90.8281 123.236 90.936L128.135 89.1281L129.357 90.351L122.344 92.9396C122.269 92.8795 122.188 92.8056 122.1 92.7176C122.004 92.6217 121.932 92.5498 121.884 92.5018C121.501 92.1182 121.229 91.7371 121.068 91.3587C120.91 90.9684 120.824 90.5844 120.809 90.2068C120.795 89.8292 120.828 89.4559 120.909 89.0868C120.99 88.7177 121.075 88.3526 121.164 87.9915C121.235 87.7138 121.299 87.4439 121.356 87.182C121.414 86.92 121.443 86.6738 121.445 86.4434C121.45 86.201 121.417 85.9723 121.347 85.7573C121.27 85.5344 121.135 85.327 120.943 85.1351C120.528 84.7195 120.073 84.4824 119.579 84.424C119.085 84.3655 118.611 84.4204 118.155 84.5887C117.858 84.6983 117.614 84.832 117.424 84.9898C117.233 85.1477 117.081 85.3078 116.967 85.47C116.864 85.6284 116.787 85.7829 116.734 85.9336C116.674 86.0763 116.634 86.1894 116.616 86.2727L114.643 85.6058C114.769 85.1217 115.033 84.6742 115.434 84.2632C115.839 83.8403 116.386 83.5017 117.075 83.2474C118.252 82.813 119.328 82.7059 120.303 82.926C121.28 83.1343 122.132 83.6021 122.859 84.3295ZM131.898 80.9934C132.186 81.2811 132.39 81.5942 132.511 81.9327C132.623 82.2631 132.684 82.6072 132.693 82.9649C132.705 83.3107 132.676 83.6662 132.605 84.0313C132.527 84.3885 132.445 84.7417 132.358 85.0909C132.308 85.2734 132.261 85.4877 132.217 85.7339C132.173 85.98 132.139 86.2222 132.116 86.4605C132.093 86.6988 132.093 86.9233 132.115 87.134C132.128 87.3367 132.182 87.492 132.275 87.5998L137.174 85.792L138.396 87.0149L131.383 89.6035C131.308 89.5434 131.227 89.4695 131.139 89.3815C131.043 89.2856 130.971 89.2137 130.923 89.1657C130.54 88.782 130.268 88.401 130.107 88.0226C129.949 87.6323 129.863 87.2483 129.848 86.8707C129.834 86.4931 129.867 86.1198 129.948 85.7507C130.029 85.3816 130.114 85.0165 130.203 84.6554C130.274 84.3776 130.338 84.1078 130.395 83.8459C130.453 83.5839 130.482 83.3377 130.484 83.1072C130.489 82.8649 130.456 82.6362 130.386 82.4212C130.309 82.1982 130.174 81.9908 129.982 81.799C129.567 81.3834 129.112 81.1463 128.618 81.0879C128.124 81.0294 127.649 81.0843 127.194 81.2526C126.897 81.3622 126.653 81.4959 126.462 81.6537C126.272 81.8116 126.12 81.9717 126.006 82.1339C125.903 82.2923 125.826 82.4468 125.773 82.5975C125.712 82.7402 125.673 82.8533 125.655 82.9366L123.682 82.2697C123.808 81.7856 124.071 81.3381 124.473 80.9271C124.878 80.5042 125.425 80.1656 126.114 79.9112C127.291 79.4769 128.367 79.3698 129.342 79.5899C130.319 79.7982 131.171 80.266 131.898 80.9934ZM145.476 81.3489C145.82 81.6926 146.06 82.0417 146.196 82.3962C146.333 82.7506 146.35 83.0944 146.248 83.4276C146.145 83.7608 145.916 84.0754 145.558 84.3714C145.212 84.6635 144.731 84.923 144.116 85.15C143.395 85.4161 142.72 85.5612 142.091 85.5855C141.462 85.6097 140.889 85.5587 140.371 85.4326C139.853 85.3064 139.398 85.135 139.008 84.9181C138.619 84.6894 138.305 84.4552 138.066 84.2154C137.826 83.9756 137.649 83.7401 137.534 83.509C137.421 83.2659 137.361 83.0311 137.352 82.8046C137.335 82.57 137.356 82.3437 137.414 82.1254C137.471 81.9072 137.555 81.7011 137.666 81.507C136.923 81.4312 136.281 81.2904 135.742 81.0847C135.205 80.8671 134.721 80.5424 134.289 80.1108C133.978 79.7991 133.762 79.474 133.641 79.1355C133.523 78.7851 133.51 78.4453 133.602 78.116C133.694 77.7867 133.893 77.4779 134.2 77.1896C134.507 76.9013 134.925 76.6593 135.455 76.4636C136.081 76.2327 136.679 76.105 137.249 76.0805C137.83 76.052 138.367 76.0948 138.858 76.2089C139.36 76.319 139.806 76.4825 140.197 76.6993C140.588 76.9161 140.908 77.1484 141.155 77.3962C141.595 77.8358 141.827 78.2862 141.853 78.7473C141.87 79.2004 141.772 79.6032 141.558 79.9556C142.439 79.9805 143.196 80.106 143.829 80.3322C144.472 80.5544 145.021 80.8933 145.476 81.3489ZM139.934 83.4929C140.054 83.6128 140.214 83.7289 140.413 83.8413C140.613 83.9538 140.842 84.0385 141.103 84.0956C141.363 84.1528 141.65 84.1782 141.963 84.1721C142.268 84.1579 142.596 84.0863 142.945 83.9571C143.264 83.8398 143.507 83.706 143.677 83.556C143.846 83.406 143.953 83.2516 143.997 83.0929C144.034 82.9262 144.021 82.7612 143.96 82.598C143.89 82.4267 143.784 82.2691 143.64 82.1253C143.416 81.9014 143.162 81.7271 142.878 81.6023C142.593 81.4775 142.28 81.3962 141.937 81.3585C141.597 81.3089 141.235 81.2949 140.85 81.3166C140.458 81.3302 140.045 81.3676 139.613 81.4287C139.415 81.7534 139.331 82.0907 139.361 82.4406C139.384 82.7824 139.575 83.1332 139.934 83.4929ZM139.303 78.1128C139.199 78.0089 139.055 77.9088 138.872 77.8123C138.691 77.704 138.479 77.6233 138.238 77.5703C138.007 77.5133 137.754 77.4861 137.481 77.4885C137.208 77.4909 136.928 77.5449 136.642 77.6506C136.355 77.7562 136.142 77.8842 136.002 78.0344C135.865 78.1727 135.788 78.3212 135.773 78.4801C135.749 78.631 135.77 78.7821 135.834 78.9335C135.89 79.0768 135.978 79.2085 136.098 79.3284C136.402 79.6321 136.838 79.8651 137.406 80.0273C137.985 80.1856 138.71 80.2135 139.58 80.1112C139.789 79.7826 139.888 79.4613 139.879 79.1473C139.862 78.8253 139.67 78.4805 139.303 78.1128ZM151.071 81.2536C151.351 81.5334 151.451 81.8081 151.372 82.0779C151.304 82.3437 151.095 82.5412 150.745 82.6704C150.385 82.8034 149.995 82.827 149.575 82.7412C149.156 82.6553 148.806 82.4725 148.526 82.1928C148.247 81.913 148.141 81.6402 148.209 81.3743C148.269 81.1005 148.479 80.8971 148.84 80.764C149.19 80.6349 149.579 80.6172 150.006 80.7111C150.436 80.793 150.791 80.9738 151.071 81.2536ZM147.551 74.6254C147.982 74.2146 148.361 73.7519 148.688 73.2371C149.026 72.7185 149.238 72.1753 149.324 71.6076L150.676 71.1086L158.981 79.4175L157.056 80.1277L150.693 73.7612C150.574 74.0347 150.378 74.3316 150.103 74.6519C149.828 74.9722 149.541 75.2587 149.242 75.5113L147.551 74.6254ZM164.187 77.496C163.643 76.865 163.147 76.1727 162.699 75.4191C162.25 74.6655 161.87 73.9143 161.556 73.1655C161.246 72.4047 161.006 71.6781 160.836 70.9857C160.669 70.2814 160.589 69.671 160.595 69.1545L155.522 71.0269L154.276 69.78L161.639 67.0623L162.741 68.1653C162.687 68.5902 162.709 69.1348 162.807 69.7989C162.905 70.4631 163.092 71.1874 163.368 71.9718C163.636 72.7482 163.999 73.555 164.459 74.3921C164.929 75.2253 165.496 76.0173 166.159 76.7681L164.187 77.496Z" fill="#3F65B3"/>
<path d="M122.859 84.3295C123.147 84.6172 123.351 84.9303 123.472 85.2688C123.584 85.5992 123.645 85.9433 123.654 86.301C123.666 86.6468 123.637 87.0023 123.566 87.3675C123.488 87.7246 123.406 88.0778 123.319 88.427C123.269 88.6095 123.222 88.8238 123.178 89.07C123.134 89.3161 123.1 89.5583 123.077 89.7966C123.054 90.0349 123.054 90.2594 123.076 90.4701C123.09 90.6729 123.143 90.8281 123.236 90.936L128.135 89.1281L129.357 90.351L122.344 92.9396C122.269 92.8795 122.188 92.8056 122.1 92.7176C122.004 92.6217 121.932 92.5498 121.884 92.5018C121.501 92.1182 121.229 91.7371 121.068 91.3587C120.91 90.9684 120.824 90.5844 120.809 90.2068C120.795 89.8292 120.828 89.4559 120.909 89.0868C120.99 88.7177 121.075 88.3526 121.164 87.9915C121.235 87.7138 121.299 87.4439 121.356 87.182C121.414 86.92 121.443 86.6738 121.445 86.4434C121.45 86.201 121.417 85.9723 121.347 85.7573C121.27 85.5344 121.135 85.327 120.943 85.1351C120.528 84.7195 120.073 84.4824 119.579 84.424C119.085 84.3655 118.611 84.4204 118.155 84.5887C117.858 84.6983 117.614 84.832 117.424 84.9898C117.233 85.1477 117.081 85.3078 116.967 85.47C116.864 85.6284 116.787 85.7829 116.734 85.9336C116.674 86.0763 116.634 86.1894 116.616 86.2727L114.643 85.6058C114.769 85.1217 115.033 84.6742 115.434 84.2632C115.839 83.8403 116.386 83.5017 117.075 83.2474C118.252 82.813 119.328 82.7059 120.303 82.926C121.28 83.1343 122.132 83.6021 122.859 84.3295ZM131.898 80.9934C132.186 81.2811 132.39 81.5942 132.511 81.9327C132.623 82.2631 132.684 82.6072 132.693 82.9649C132.705 83.3107 132.676 83.6662 132.605 84.0313C132.527 84.3885 132.445 84.7417 132.358 85.0909C132.308 85.2734 132.261 85.4877 132.217 85.7339C132.173 85.98 132.139 86.2222 132.116 86.4605C132.093 86.6988 132.093 86.9233 132.115 87.134C132.128 87.3367 132.182 87.492 132.275 87.5998L137.174 85.792L138.396 87.0149L131.383 89.6035C131.308 89.5434 131.227 89.4695 131.139 89.3815C131.043 89.2856 130.971 89.2137 130.923 89.1657C130.54 88.782 130.268 88.401 130.107 88.0226C129.949 87.6323 129.863 87.2483 129.848 86.8707C129.834 86.4931 129.867 86.1198 129.948 85.7507C130.029 85.3816 130.114 85.0165 130.203 84.6554C130.274 84.3776 130.338 84.1078 130.395 83.8459C130.453 83.5839 130.482 83.3377 130.484 83.1072C130.489 82.8649 130.456 82.6362 130.386 82.4212C130.309 82.1982 130.174 81.9908 129.982 81.799C129.567 81.3834 129.112 81.1463 128.618 81.0879C128.124 81.0294 127.649 81.0843 127.194 81.2526C126.897 81.3622 126.653 81.4959 126.462 81.6537C126.272 81.8116 126.12 81.9717 126.006 82.1339C125.903 82.2923 125.826 82.4468 125.773 82.5975C125.712 82.7402 125.673 82.8533 125.655 82.9366L123.682 82.2697C123.808 81.7856 124.071 81.3381 124.473 80.9271C124.878 80.5042 125.425 80.1656 126.114 79.9112C127.291 79.4769 128.367 79.3698 129.342 79.5899C130.319 79.7982 131.171 80.266 131.898 80.9934ZM145.476 81.3489C145.82 81.6926 146.06 82.0417 146.196 82.3962C146.333 82.7506 146.35 83.0944 146.248 83.4276C146.145 83.7608 145.916 84.0754 145.558 84.3714C145.212 84.6635 144.731 84.923 144.116 85.15C143.395 85.4161 142.72 85.5612 142.091 85.5855C141.462 85.6097 140.889 85.5587 140.371 85.4326C139.853 85.3064 139.398 85.135 139.008 84.9181C138.619 84.6894 138.305 84.4552 138.066 84.2154C137.826 83.9756 137.649 83.7401 137.534 83.509C137.421 83.2659 137.361 83.0311 137.352 82.8046C137.335 82.57 137.356 82.3437 137.414 82.1254C137.471 81.9072 137.555 81.7011 137.666 81.507C136.923 81.4312 136.281 81.2904 135.742 81.0847C135.205 80.8671 134.721 80.5424 134.289 80.1108C133.978 79.7991 133.762 79.474 133.641 79.1355C133.523 78.7851 133.51 78.4453 133.602 78.116C133.694 77.7867 133.893 77.4779 134.2 77.1896C134.507 76.9013 134.925 76.6593 135.455 76.4636C136.081 76.2327 136.679 76.105 137.249 76.0805C137.83 76.052 138.367 76.0948 138.858 76.2089C139.36 76.319 139.806 76.4825 140.197 76.6993C140.588 76.9161 140.908 77.1484 141.155 77.3962C141.595 77.8358 141.827 78.2862 141.853 78.7473C141.87 79.2004 141.772 79.6032 141.558 79.9556C142.439 79.9805 143.196 80.106 143.829 80.3322C144.472 80.5544 145.021 80.8933 145.476 81.3489ZM139.934 83.4929C140.054 83.6128 140.214 83.7289 140.413 83.8413C140.613 83.9538 140.842 84.0385 141.103 84.0956C141.363 84.1528 141.65 84.1782 141.963 84.1721C142.268 84.1579 142.596 84.0863 142.945 83.9571C143.264 83.8398 143.507 83.706 143.677 83.556C143.846 83.406 143.953 83.2516 143.997 83.0929C144.034 82.9262 144.021 82.7612 143.96 82.598C143.89 82.4267 143.784 82.2691 143.64 82.1253C143.416 81.9014 143.162 81.7271 142.878 81.6023C142.593 81.4775 142.28 81.3962 141.937 81.3585C141.597 81.3089 141.235 81.2949 140.85 81.3166C140.458 81.3302 140.045 81.3676 139.613 81.4287C139.415 81.7534 139.331 82.0907 139.361 82.4406C139.384 82.7824 139.575 83.1332 139.934 83.4929ZM139.303 78.1128C139.199 78.0089 139.055 77.9088 138.872 77.8123C138.691 77.704 138.479 77.6233 138.238 77.5703C138.007 77.5133 137.754 77.4861 137.481 77.4885C137.208 77.4909 136.928 77.5449 136.642 77.6506C136.355 77.7562 136.142 77.8842 136.002 78.0344C135.865 78.1727 135.788 78.3212 135.773 78.4801C135.749 78.631 135.77 78.7821 135.834 78.9335C135.89 79.0768 135.978 79.2085 136.098 79.3284C136.402 79.6321 136.838 79.8651 137.406 80.0273C137.985 80.1856 138.71 80.2135 139.58 80.1112C139.789 79.7826 139.888 79.4613 139.879 79.1473C139.862 78.8253 139.67 78.4805 139.303 78.1128ZM151.071 81.2536C151.351 81.5334 151.451 81.8081 151.372 82.0779C151.304 82.3437 151.095 82.5412 150.745 82.6704C150.385 82.8034 149.995 82.827 149.575 82.7412C149.156 82.6553 148.806 82.4725 148.526 82.1928C148.247 81.913 148.141 81.6402 148.209 81.3743C148.269 81.1005 148.479 80.8971 148.84 80.764C149.19 80.6349 149.579 80.6172 150.006 80.7111C150.436 80.793 150.791 80.9738 151.071 81.2536ZM147.551 74.6254C147.982 74.2146 148.361 73.7519 148.688 73.2371C149.026 72.7185 149.238 72.1753 149.324 71.6076L150.676 71.1086L158.981 79.4175L157.056 80.1277L150.693 73.7612C150.574 74.0347 150.378 74.3316 150.103 74.6519C149.828 74.9722 149.541 75.2587 149.242 75.5113L147.551 74.6254ZM164.187 77.496C163.643 76.865 163.147 76.1727 162.699 75.4191C162.25 74.6655 161.87 73.9143 161.556 73.1655C161.246 72.4047 161.006 71.6781 160.836 70.9857C160.669 70.2814 160.589 69.671 160.595 69.1545L155.522 71.0269L154.276 69.78L161.639 67.0623L162.741 68.1653C162.687 68.5902 162.709 69.1348 162.807 69.7989C162.905 70.4631 163.092 71.1874 163.368 71.9718C163.636 72.7482 163.999 73.555 164.459 74.3921C164.929 75.2253 165.496 76.0173 166.159 76.7681L164.187 77.496Z" fill="url(#paint7_linear_978_36996)"/>
<path d="M190.073 143.471L183.84 137.235L188.614 135.473L189.145 136.004L185.182 137.466L187.35 139.635L190.883 138.331L191.404 138.853L187.871 140.157L190.354 142.641L194.627 141.063L195.158 141.594L190.073 143.471ZM195.76 132.835L196.572 132.536L202.805 138.772L201.993 139.071L198.998 136.075L194.51 137.731L197.505 140.728L196.694 141.027L190.46 134.791L191.272 134.492L193.979 137.2L198.468 135.544L195.76 132.835ZM206.061 139.849L205.273 140.14L200.637 129.927L201.401 129.645L206.061 139.849ZM210.052 135.531C210.497 135.366 210.809 135.177 210.988 134.963C211.168 134.741 211.127 134.497 210.863 134.234C210.737 134.108 210.601 134.01 210.455 133.94C210.318 133.868 210.153 133.818 209.962 133.79C209.771 133.762 209.542 133.752 209.278 133.759C209.021 133.764 208.704 133.774 208.327 133.79C208.025 133.803 207.734 133.812 207.455 133.816C207.17 133.814 206.9 133.795 206.645 133.758C206.384 133.714 206.137 133.641 205.903 133.539C205.67 133.436 205.454 133.286 205.257 133.088C204.879 132.71 204.76 132.335 204.9 131.963C205.048 131.588 205.452 131.278 206.113 131.035C206.535 130.879 206.908 130.778 207.232 130.732C207.565 130.683 207.808 130.66 207.961 130.66L208.304 131.248C208.172 131.248 207.961 131.26 207.67 131.285C207.388 131.307 207.027 131.399 206.59 131.561C206.415 131.625 206.263 131.702 206.133 131.791C206.006 131.871 205.913 131.962 205.854 132.066C205.788 132.165 205.765 132.272 205.783 132.388C205.795 132.499 205.864 132.617 205.99 132.743C206.116 132.869 206.256 132.965 206.41 133.031C206.563 133.098 206.736 133.145 206.927 133.173C207.12 133.192 207.334 133.199 207.569 133.195C207.812 133.187 208.085 133.177 208.388 133.164C208.699 133.147 209 133.139 209.293 133.137C209.588 133.127 209.873 133.145 210.148 133.192C210.417 133.232 210.678 133.308 210.932 133.42C211.179 133.525 211.414 133.689 211.635 133.911C212.055 134.331 212.162 134.727 211.956 135.099C211.758 135.467 211.297 135.785 210.573 136.053C210.032 136.252 209.582 136.369 209.224 136.403C208.871 136.443 208.63 136.462 208.498 136.461L208.17 135.855C208.206 135.859 208.279 135.861 208.388 135.861C208.492 135.856 208.629 135.846 208.801 135.832C208.966 135.812 209.152 135.781 209.359 135.737C209.574 135.691 209.805 135.622 210.052 135.531Z" fill="black"/>
<defs>
<filter id="filter0_ddddd_978_36996" x="0.548654" y="17.3679" width="281.543" height="208.298" filterUnits="userSpaceOnUse" color-interpolation-filters="sRGB">
<feFlood flood-opacity="0" result="BackgroundImageFix"/>
<feColorMatrix in="SourceAlpha" type="matrix" values="0 0 0 0 0 0 0 0 0 0 0 0 0 0 0 0 0 0 127 0" result="hardAlpha"/>
<feOffset/>
<feColorMatrix type="matrix" values="0 0 0 0 0 0 0 0 0 0 0 0 0 0 0 0 0 0 0.05 0"/>
<feBlend mode="normal" in2="BackgroundImageFix" result="effect1_dropShadow_978_36996"/>
<feColorMatrix in="SourceAlpha" type="matrix" values="0 0 0 0 0 0 0 0 0 0 0 0 0 0 0 0 0 0 127 0" result="hardAlpha"/>
<feOffset dx="-0.715527" dy="1.43105"/>
<feGaussianBlur stdDeviation="2.14658"/>
<feColorMatrix type="matrix" values="0 0 0 0 0 0 0 0 0 0 0 0 0 0 0 0 0 0 0.05 0"/>
<feBlend mode="normal" in2="effect1_dropShadow_978_36996" result="effect2_dropShadow_978_36996"/>
<feColorMatrix in="SourceAlpha" type="matrix" values="0 0 0 0 0 0 0 0 0 0 0 0 0 0 0 0 0 0 127 0" result="hardAlpha"/>
<feOffset dx="-4.29316" dy="6.43974"/>
<feGaussianBlur stdDeviation="3.9354"/>
<feColorMatrix type="matrix" values="0 0 0 0 0 0 0 0 0 0 0 0 0 0 0 0 0 0 0.04 0"/>
<feBlend mode="normal" in2="effect2_dropShadow_978_36996" result="effect3_dropShadow_978_36996"/>
<feColorMatrix in="SourceAlpha" type="matrix" values="0 0 0 0 0 0 0 0 0 0 0 0 0 0 0 0 0 0 127 0" result="hardAlpha"/>
<feOffset dx="-9.30185" dy="14.3105"/>
<feGaussianBlur stdDeviation="5.36645"/>
<feColorMatrix type="matrix" values="0 0 0 0 0 0 0 0 0 0 0 0 0 0 0 0 0 0 0.03 0"/>
<feBlend mode="normal" in2="effect3_dropShadow_978_36996" result="effect4_dropShadow_978_36996"/>
<feColorMatrix in="SourceAlpha" type="matrix" values="0 0 0 0 0 0 0 0 0 0 0 0 0 0 0 0 0 0 127 0" result="hardAlpha"/>
<feOffset dx="-17.1726" dy="25.759"/>
<feGaussianBlur stdDeviation="6.08198"/>
<feColorMatrix type="matrix" values="0 0 0 0 0 0 0 0 0 0 0 0 0 0 0 0 0 0 0.01 0"/>
<feBlend mode="normal" in2="effect4_dropShadow_978_36996" result="effect5_dropShadow_978_36996"/>
<feBlend mode="normal" in="SourceGraphic" in2="effect5_dropShadow_978_36996" result="shape"/>
</filter>
<filter id="filter1_i_978_36996" x="29.887" y="8.23096" width="248.625" height="172.597" filterUnits="userSpaceOnUse" color-interpolation-filters="sRGB">
<feFlood flood-opacity="0" result="BackgroundImageFix"/>
<feBlend mode="normal" in="SourceGraphic" in2="BackgroundImageFix" result="shape"/>
<feColorMatrix in="SourceAlpha" type="matrix" values="0 0 0 0 0 0 0 0 0 0 0 0 0 0 0 0 0 0 127 0" result="hardAlpha"/>
<feOffset dy="5.08566"/>
<feGaussianBlur stdDeviation="8.89991"/>
<feComposite in2="hardAlpha" operator="arithmetic" k2="-1" k3="1"/>
<feColorMatrix type="matrix" values="0 0 0 0 0 0 0 0 0 0 0 0 0 0 0 0 0 0 0.04 0"/>
<feBlend mode="normal" in2="shape" result="effect1_innerShadow_978_36996"/>
</filter>
<filter id="filter2_ddddd_978_36996" x="91.7788" y="31.7169" width="177.117" height="211.721" filterUnits="userSpaceOnUse" color-interpolation-filters="sRGB">
<feFlood flood-opacity="0" result="BackgroundImageFix"/>
<feColorMatrix in="SourceAlpha" type="matrix" values="0 0 0 0 0 0 0 0 0 0 0 0 0 0 0 0 0 0 127 0" result="hardAlpha"/>
<feOffset/>
<feColorMatrix type="matrix" values="0 0 0 0 0.00784314 0 0 0 0 0.376471 0 0 0 0 0.968627 0 0 0 0.2 0"/>
<feBlend mode="normal" in2="BackgroundImageFix" result="effect1_dropShadow_978_36996"/>
<feColorMatrix in="SourceAlpha" type="matrix" values="0 0 0 0 0 0 0 0 0 0 0 0 0 0 0 0 0 0 127 0" result="hardAlpha"/>
<feOffset dx="1.5767" dy="5.51844"/>
<feGaussianBlur stdDeviation="6.30679"/>
<feColorMatrix type="matrix" values="0 0 0 0 0.00784314 0 0 0 0 0.376471 0 0 0 0 0.968627 0 0 0 0.2 0"/>
<feBlend mode="normal" in2="effect1_dropShadow_978_36996" result="effect2_dropShadow_978_36996"/>
<feColorMatrix in="SourceAlpha" type="matrix" values="0 0 0 0 0 0 0 0 0 0 0 0 0 0 0 0 0 0 127 0" result="hardAlpha"/>
<feOffset dx="7.09513" dy="22.0737"/>
<feGaussianBlur stdDeviation="11.431"/>
<feColorMatrix type="matrix" values="0 0 0 0 0.00784314 0 0 0 0 0.376471 0 0 0 0 0.968627 0 0 0 0.17 0"/>
<feBlend mode="normal" in2="effect2_dropShadow_978_36996" result="effect3_dropShadow_978_36996"/>
<feColorMatrix in="SourceAlpha" type="matrix" values="0 0 0 0 0 0 0 0 0 0 0 0 0 0 0 0 0 0 127 0" result="hardAlpha"/>
<feOffset dx="16.5553" dy="48.8776"/>
<feGaussianBlur stdDeviation="15.3728"/>
<feColorMatrix type="matrix" values="0 0 0 0 0.00784314 0 0 0 0 0.376471 0 0 0 0 0.968627 0 0 0 0.1 0"/>
<feBlend mode="normal" in2="effect3_dropShadow_978_36996" result="effect4_dropShadow_978_36996"/>
<feColorMatrix in="SourceAlpha" type="matrix" values="0 0 0 0 0 0 0 0 0 0 0 0 0 0 0 0 0 0 127 0" result="hardAlpha"/>
<feOffset dx="29.1689" dy="86.7183"/>
<feGaussianBlur stdDeviation="18.5262"/>
<feColorMatrix type="matrix" values="0 0 0 0 0.00784314 0 0 0 0 0.376471 0 0 0 0 0.968627 0 0 0 0.03 0"/>
<feBlend mode="normal" in2="effect4_dropShadow_978_36996" result="effect5_dropShadow_978_36996"/>
<feBlend mode="normal" in="SourceGraphic" in2="effect5_dropShadow_978_36996" result="shape"/>
</filter>
<linearGradient id="paint0_linear_978_36996" x1="24.3942" y1="147.488" x2="3.3574" y2="156.604" gradientUnits="userSpaceOnUse">
<stop offset="0.029378" stop-color="#E4E6EF"/>
<stop offset="1" stop-color="#E4E6F3"/>
</linearGradient>
<linearGradient id="paint1_linear_978_36996" x1="77.9996" y1="0" x2="77.9996" y2="180.998" gradientUnits="userSpaceOnUse">
<stop stop-color="#F2F3F7"/>
<stop offset="1" stop-color="#F9FAFC"/>
</linearGradient>
<linearGradient id="paint2_linear_978_36996" x1="57.7085" y1="113.044" x2="57.9889" y2="113.642" gradientUnits="userSpaceOnUse">
<stop stop-color="#90B4FF"/>
<stop offset="1" stop-color="#93B0F7"/>
</linearGradient>
<linearGradient id="paint3_linear_978_36996" x1="57.7085" y1="112.044" x2="57.9889" y2="112.642" gradientUnits="userSpaceOnUse">
<stop stop-color="#90B4FF"/>
<stop offset="1" stop-color="#93B0F7"/>
</linearGradient>
<linearGradient id="paint4_linear_978_36996" x1="57.7085" y1="110.044" x2="57.9889" y2="110.642" gradientUnits="userSpaceOnUse">
<stop stop-color="#90B4FF"/>
<stop offset="1" stop-color="#93B0F7"/>
</linearGradient>
<linearGradient id="paint5_linear_978_36996" x1="57.7085" y1="109.044" x2="57.9889" y2="109.642" gradientUnits="userSpaceOnUse">
<stop stop-color="#90B4FF"/>
<stop offset="1" stop-color="#93B0F7"/>
</linearGradient>
<linearGradient id="paint6_linear_978_36996" x1="187.135" y1="165.34" x2="240.264" y2="101.814" gradientUnits="userSpaceOnUse">
<stop stop-color="#3F7BDD"/>
<stop offset="1" stop-color="#4282EC"/>
</linearGradient>
<linearGradient id="paint7_linear_978_36996" x1="138.959" y1="100.316" x2="159.299" y2="67.6938" gradientUnits="userSpaceOnUse">
<stop stop-color="#3F7BDD"/>
<stop offset="1" stop-color="#4282EC"/>
</linearGradient>
</defs>
</svg>
