<svg width="293" height="244" viewBox="0 0 293 244" fill="none" xmlns="http://www.w3.org/2000/svg">
<g filter="url(#filter0_d_978_40719)">
<rect width="155.961" height="180.973" rx="27.3" transform="matrix(0.938111 -0.346335 0.706854 0.70736 9.02051 66.9883)" fill="url(#paint0_linear_978_40719)"/>
</g>
<g filter="url(#filter1_i_978_40719)">
<rect width="155.961" height="180.973" rx="27.3" transform="matrix(0.938111 -0.346335 0.706854 0.70736 9.02048 54.9883)" fill="url(#paint1_linear_978_40719)"/>
</g>
<rect x="2.03976" y="0.447671" width="153.481" height="178.493" rx="26.06" transform="matrix(0.938111 -0.346335 0.706854 0.70736 8.83028 55.8257)" stroke="#3E4462" stroke-width="2.48"/>
<path d="M176.9 63.749C194.951 81.8122 190.165 103.624 166.213 112.466C142.261 121.309 108.211 113.835 90.1603 95.772C72.1099 77.7088 76.8958 55.8975 100.848 47.0547C124.8 38.212 158.85 45.6857 176.9 63.749Z" stroke="#7C83AC" stroke-width="11.5115"/>
<g filter="url(#filter2_ddddd_978_40719)">
<path d="M100.846 47.053C98.6002 44.8054 99.1799 42.0653 102.391 41.2198C108.046 39.7305 114.219 38.9176 120.676 38.822C129.34 38.6938 138.306 39.8603 146.952 42.2406C155.598 44.6209 163.716 48.1579 170.743 52.606C177.77 57.0542 183.537 62.3068 187.644 67.9992C191.751 73.6916 194.099 79.6873 194.526 85.57C194.953 91.4527 193.447 97.0814 190.114 102.065C186.782 107.049 181.701 111.268 175.226 114.431C170.401 116.787 164.887 118.514 158.907 119.554C155.512 120.144 151.672 118.365 150.506 115.883C149.339 113.4 151.297 111.161 154.642 110.495C158.779 109.671 162.607 108.414 165.998 106.758C171.04 104.295 174.996 101.01 177.592 97.1288C180.187 93.248 181.359 88.865 181.027 84.2843C180.695 79.7035 178.866 75.0347 175.668 70.6021C172.47 66.1696 167.979 62.0794 162.507 58.6157C157.035 55.152 150.714 52.3978 143.981 50.5443C137.249 48.6907 130.267 47.7824 123.521 47.8823C118.983 47.9494 114.625 48.4716 110.581 49.4255C107.312 50.1964 103.092 49.3006 100.846 47.053Z" fill="url(#paint2_linear_978_40719)"/>
</g>
<path d="M100.846 46.053C98.6002 43.8054 99.1799 41.0653 102.391 40.2198C108.046 38.7305 114.219 37.9176 120.676 37.822C129.34 37.6938 138.306 38.8603 146.952 41.2406C155.598 43.6209 163.716 47.1579 170.743 51.606C177.77 56.0542 183.537 61.3068 187.644 66.9992C191.751 72.6916 194.099 78.6873 194.526 84.57C194.953 90.4527 193.447 96.0814 190.114 101.065C186.782 106.049 181.701 110.268 175.226 113.431C170.401 115.787 164.887 117.514 158.907 118.554C155.512 119.144 151.672 117.365 150.506 114.883C149.339 112.4 151.297 110.161 154.642 109.495C158.779 108.671 162.607 107.414 165.998 105.758C171.04 103.295 174.996 100.01 177.592 96.1288C180.187 92.248 181.359 87.865 181.027 83.2843C180.695 78.7035 178.866 74.0347 175.668 69.6021C172.47 65.1696 167.979 61.0794 162.507 57.6157C157.035 54.152 150.714 51.3978 143.981 49.5443C137.249 47.6907 130.267 46.7824 123.52 46.8823C118.983 46.9494 114.625 47.4716 110.581 48.4255C107.312 49.1964 103.092 48.3006 100.846 46.053Z" fill="url(#paint3_linear_978_40719)"/>
<path d="M100.846 44.053C98.6002 41.8054 99.1799 39.0653 102.391 38.2198C108.046 36.7305 114.219 35.9176 120.676 35.822C129.34 35.6938 138.306 36.8603 146.952 39.2406C155.598 41.6209 163.716 45.1579 170.743 49.606C177.77 54.0542 183.537 59.3068 187.644 64.9992C191.751 70.6916 194.099 76.6873 194.526 82.57C194.953 88.4527 193.447 94.0814 190.114 99.0652C186.782 104.049 181.701 108.268 175.226 111.431C170.401 113.787 164.887 115.514 158.907 116.554C155.512 117.144 151.672 115.365 150.506 112.883C149.339 110.4 151.297 108.161 154.642 107.495C158.779 106.671 162.607 105.414 165.998 103.758C171.04 101.295 174.996 98.0096 177.592 94.1288C180.187 90.248 181.359 85.865 181.027 81.2843C180.695 76.7035 178.866 72.0347 175.668 67.6021C172.47 63.1696 167.979 59.0794 162.507 55.6157C157.035 52.152 150.714 49.3978 143.981 47.5443C137.249 45.6907 130.267 44.7824 123.52 44.8823C118.983 44.9494 114.625 45.4716 110.581 46.4255C107.312 47.1964 103.092 46.3006 100.846 44.053Z" fill="url(#paint4_linear_978_40719)"/>
<path d="M100.846 43.053C98.6002 40.8054 99.1799 38.0653 102.391 37.2198C108.046 35.7305 114.219 34.9176 120.676 34.822C129.34 34.6938 138.306 35.8603 146.952 38.2406C155.598 40.6209 163.716 44.1579 170.743 48.606C177.77 53.0542 183.537 58.3068 187.644 63.9992C191.751 69.6916 194.099 75.6873 194.526 81.57C194.953 87.4527 193.447 93.0814 190.114 98.0652C186.782 103.049 181.701 107.268 175.226 110.431C170.401 112.787 164.887 114.514 158.907 115.554C155.512 116.144 151.672 114.365 150.506 111.883C149.339 109.4 151.297 107.161 154.642 106.495C158.779 105.671 162.607 104.414 165.998 102.758C171.04 100.295 174.996 97.0096 177.592 93.1288C180.187 89.248 181.359 84.865 181.027 80.2843C180.695 75.7035 178.866 71.0347 175.668 66.6021C172.47 62.1696 167.979 58.0794 162.507 54.6157C157.035 51.152 150.714 48.3978 143.981 46.5443C137.249 44.6907 130.267 43.7824 123.52 43.8823C118.983 43.9494 114.625 44.4716 110.581 45.4255C107.312 46.1964 103.092 45.3006 100.846 43.053Z" fill="url(#paint5_linear_978_40719)"/>
<mask id="path-9-inside-1_978_40719" fill="white">
<path d="M100.846 41.053C98.6002 38.8054 99.1799 36.0653 102.391 35.2198C108.046 33.7305 114.219 32.9176 120.676 32.822C129.34 32.6938 138.306 33.8603 146.952 36.2406C155.598 38.6209 163.716 42.1579 170.743 46.606C177.77 51.0542 183.537 56.3068 187.644 61.9992C191.751 67.6916 194.099 73.6873 194.526 79.57C194.953 85.4527 193.447 91.0814 190.114 96.0652C186.782 101.049 181.701 105.268 175.226 108.431C170.401 110.787 164.887 112.514 158.907 113.554C155.512 114.144 151.672 112.365 150.506 109.883C149.339 107.4 151.297 105.161 154.642 104.495C158.779 103.671 162.607 102.414 165.998 100.758C171.04 98.2953 174.996 95.0096 177.592 91.1288C180.187 87.248 181.359 82.865 181.027 78.2843C180.695 73.7035 178.866 69.0347 175.668 64.6021C172.47 60.1696 167.979 56.0794 162.507 52.6157C157.035 49.152 150.714 46.3978 143.981 44.5443C137.249 42.6907 130.267 41.7824 123.52 41.8823C118.983 41.9494 114.625 42.4716 110.581 43.4255C107.312 44.1964 103.092 43.3006 100.846 41.053Z"/>
</mask>
<path d="M100.846 41.053C98.6002 38.8054 99.1799 36.0653 102.391 35.2198C108.046 33.7305 114.219 32.9176 120.676 32.822C129.34 32.6938 138.306 33.8603 146.952 36.2406C155.598 38.6209 163.716 42.1579 170.743 46.606C177.77 51.0542 183.537 56.3068 187.644 61.9992C191.751 67.6916 194.099 73.6873 194.526 79.57C194.953 85.4527 193.447 91.0814 190.114 96.0652C186.782 101.049 181.701 105.268 175.226 108.431C170.401 110.787 164.887 112.514 158.907 113.554C155.512 114.144 151.672 112.365 150.506 109.883C149.339 107.4 151.297 105.161 154.642 104.495C158.779 103.671 162.607 102.414 165.998 100.758C171.04 98.2953 174.996 95.0096 177.592 91.1288C180.187 87.248 181.359 82.865 181.027 78.2843C180.695 73.7035 178.866 69.0347 175.668 64.6021C172.47 60.1696 167.979 56.0794 162.507 52.6157C157.035 49.152 150.714 46.3978 143.981 44.5443C137.249 42.6907 130.267 41.7824 123.52 41.8823C118.983 41.9494 114.625 42.4716 110.581 43.4255C107.312 44.1964 103.092 43.3006 100.846 41.053Z" fill="#CCD1FF" fill-opacity="0.4"/>
<path d="M100.846 41.053C98.6002 38.8054 99.1799 36.0653 102.391 35.2198C108.046 33.7305 114.219 32.9176 120.676 32.822C129.34 32.6938 138.306 33.8603 146.952 36.2406C155.598 38.6209 163.716 42.1579 170.743 46.606C177.77 51.0542 183.537 56.3068 187.644 61.9992C191.751 67.6916 194.099 73.6873 194.526 79.57C194.953 85.4527 193.447 91.0814 190.114 96.0652C186.782 101.049 181.701 105.268 175.226 108.431C170.401 110.787 164.887 112.514 158.907 113.554C155.512 114.144 151.672 112.365 150.506 109.883C149.339 107.4 151.297 105.161 154.642 104.495C158.779 103.671 162.607 102.414 165.998 100.758C171.04 98.2953 174.996 95.0096 177.592 91.1288C180.187 87.248 181.359 82.865 181.027 78.2843C180.695 73.7035 178.866 69.0347 175.668 64.6021C172.47 60.1696 167.979 56.0794 162.507 52.6157C157.035 49.152 150.714 46.3978 143.981 44.5443C137.249 42.6907 130.267 41.7824 123.52 41.8823C118.983 41.9494 114.625 42.4716 110.581 43.4255C107.312 44.1964 103.092 43.3006 100.846 41.053Z" fill="url(#paint6_linear_978_40719)"/>
<path d="M100.846 41.053C98.6002 38.8054 99.1799 36.0653 102.391 35.2198C108.046 33.7305 114.219 32.9176 120.676 32.822C129.34 32.6938 138.306 33.8603 146.952 36.2406C155.598 38.6209 163.716 42.1579 170.743 46.606C177.77 51.0542 183.537 56.3068 187.644 61.9992C191.751 67.6916 194.099 73.6873 194.526 79.57C194.953 85.4527 193.447 91.0814 190.114 96.0652C186.782 101.049 181.701 105.268 175.226 108.431C170.401 110.787 164.887 112.514 158.907 113.554C155.512 114.144 151.672 112.365 150.506 109.883C149.339 107.4 151.297 105.161 154.642 104.495C158.779 103.671 162.607 102.414 165.998 100.758C171.04 98.2953 174.996 95.0096 177.592 91.1288C180.187 87.248 181.359 82.865 181.027 78.2843C180.695 73.7035 178.866 69.0347 175.668 64.6021C172.47 60.1696 167.979 56.0794 162.507 52.6157C157.035 49.152 150.714 46.3978 143.981 44.5443C137.249 42.6907 130.267 41.7824 123.52 41.8823C118.983 41.9494 114.625 42.4716 110.581 43.4255C107.312 44.1964 103.092 43.3006 100.846 41.053Z" stroke="white" stroke-opacity="0.54" stroke-width="1.21174" mask="url(#path-9-inside-1_978_40719)"/>
<path d="M114.806 84.33C115.094 84.6178 115.298 84.9309 115.419 85.2694C115.531 85.5999 115.592 85.9441 115.601 86.3018C115.613 86.6477 115.584 87.0032 115.513 87.3684C115.435 87.7257 115.352 88.079 115.266 88.4282C115.216 88.6107 115.169 88.8251 115.125 89.0713C115.081 89.3174 115.047 89.5597 115.024 89.798C115.001 90.0363 115 90.2609 115.022 90.4716C115.036 90.6744 115.09 90.8297 115.183 90.9376L120.081 89.1292L121.303 90.3524L114.29 92.9415C114.216 92.8815 114.134 92.8075 114.047 92.7196C113.951 92.6236 113.879 92.5517 113.831 92.5037C113.447 92.12 113.175 91.7389 113.015 91.3604C112.857 90.97 112.771 90.586 112.756 90.2084C112.742 89.8307 112.775 89.4573 112.856 89.0882C112.937 88.719 113.022 88.3538 113.111 87.9927C113.182 87.7149 113.246 87.445 113.303 87.183C113.361 86.921 113.391 86.6748 113.392 86.4443C113.397 86.2019 113.364 85.9731 113.295 85.7581C113.217 85.5351 113.082 85.3277 112.89 85.1358C112.475 84.7201 112.02 84.4831 111.527 84.4246C111.033 84.3662 110.558 84.4211 110.102 84.5894C109.805 84.699 109.561 84.8327 109.371 84.9906C109.18 85.1485 109.028 85.3086 108.915 85.4709C108.812 85.6293 108.734 85.7839 108.682 85.9346C108.621 86.0773 108.582 86.1904 108.563 86.2737L106.591 85.6067C106.716 85.1226 106.98 84.675 107.382 84.2639C107.787 83.841 108.334 83.5023 109.023 83.2479C110.2 82.8134 111.275 82.7062 112.25 82.9264C113.227 83.1346 114.079 83.6025 114.806 84.33ZM123.845 80.9931C124.133 81.2809 124.337 81.594 124.457 81.9325C124.57 82.263 124.631 82.6072 124.64 82.9649C124.652 83.3107 124.622 83.6663 124.552 84.0315C124.474 84.3888 124.391 84.742 124.305 85.0913C124.255 85.2738 124.208 85.4882 124.164 85.7343C124.119 85.9805 124.086 86.2227 124.063 86.4611C124.039 86.6994 124.039 86.924 124.061 87.1347C124.075 87.3375 124.128 87.4928 124.222 87.6006L129.12 85.7923L130.342 87.0154L123.329 89.6046C123.254 89.5446 123.173 89.4706 123.085 89.3827C122.989 89.2867 122.917 89.2148 122.87 89.1668C122.486 88.7831 122.214 88.402 122.054 88.0235C121.896 87.6331 121.809 87.2491 121.795 86.8714C121.78 86.4938 121.814 86.1204 121.895 85.7512C121.976 85.3821 122.061 85.0169 122.15 84.6558C122.22 84.378 122.285 84.1081 122.342 83.8461C122.4 83.5841 122.429 83.3378 122.431 83.1073C122.436 82.8649 122.403 82.6362 122.333 82.4212C122.256 82.1982 122.121 81.9908 121.929 81.7989C121.514 81.3832 121.059 81.1461 120.565 81.0877C120.071 81.0292 119.597 81.0842 119.141 81.2525C118.844 81.3621 118.6 81.4958 118.41 81.6537C118.219 81.8116 118.067 81.9717 117.953 82.134C117.85 82.2924 117.773 82.4469 117.72 82.5977C117.66 82.7404 117.62 82.8534 117.602 82.9368L115.629 82.2698C115.755 81.7857 116.019 81.338 116.421 80.927C116.825 80.504 117.372 80.1653 118.061 79.9109C119.238 79.4765 120.314 79.3693 121.289 79.5895C122.266 79.7977 123.118 80.2656 123.845 80.9931ZM137.422 81.3483C137.766 81.6921 138.006 82.0412 138.142 82.3957C138.279 82.7502 138.296 83.0941 138.194 83.4273C138.091 83.7606 137.861 84.0753 137.504 84.3713C137.157 84.6634 136.677 84.923 136.062 85.15C135.341 85.4162 134.666 85.5614 134.037 85.5856C133.408 85.6099 132.835 85.5589 132.317 85.4328C131.799 85.3066 131.345 85.1351 130.954 84.9183C130.565 84.6896 130.252 84.4553 130.012 84.2154C129.772 83.9756 129.595 83.7401 129.48 83.5089C129.368 83.2659 129.307 83.031 129.299 82.8044C129.282 82.5699 129.302 82.3434 129.36 82.1252C129.418 81.9069 129.502 81.7007 129.613 81.5066C128.869 81.4308 128.228 81.2901 127.688 81.0843C127.152 80.8666 126.668 80.542 126.236 80.1103C125.925 79.7985 125.709 79.4734 125.588 79.1349C125.47 78.7844 125.457 78.4446 125.549 78.1152C125.641 77.7858 125.84 77.477 126.147 77.1886C126.454 76.9002 126.872 76.6582 127.402 76.4625C128.028 76.2315 128.626 76.1038 129.196 76.0792C129.777 76.0507 130.313 76.0935 130.805 76.2076C131.307 76.3177 131.753 76.4812 132.144 76.6981C132.535 76.9149 132.854 77.1473 133.102 77.3951C133.541 77.8348 133.774 78.2852 133.799 78.7464C133.816 79.1995 133.718 79.6024 133.505 79.9549C134.386 79.9798 135.142 80.1053 135.775 80.3314C136.418 80.5537 136.967 80.8927 137.422 81.3483ZM131.88 83.4928C132 83.6127 132.16 83.7289 132.359 83.8413C132.559 83.9537 132.789 84.0385 133.049 84.0956C133.309 84.1527 133.596 84.1782 133.909 84.172C134.214 84.1579 134.542 84.0862 134.891 83.957C135.209 83.8396 135.453 83.7059 135.622 83.5558C135.792 83.4057 135.899 83.2513 135.943 83.0926C135.98 82.9259 135.967 82.7609 135.906 82.5976C135.836 82.4263 135.73 82.2687 135.586 82.1248C135.362 81.901 135.108 81.7266 134.824 81.6018C134.539 81.477 134.226 81.3957 133.883 81.358C133.544 81.3084 133.181 81.2944 132.797 81.3161C132.404 81.3297 131.991 81.3671 131.559 81.4283C131.361 81.753 131.277 82.0904 131.308 82.4403C131.33 82.7822 131.521 83.133 131.88 83.4928ZM131.249 78.1118C131.145 78.0079 131.002 77.9077 130.818 77.8113C130.637 77.703 130.426 77.6223 130.184 77.5693C129.953 77.5123 129.701 77.485 129.428 77.4874C129.155 77.4899 128.875 77.5439 128.588 77.6496C128.302 77.7553 128.089 77.8832 127.949 78.0335C127.811 78.1718 127.735 78.3204 127.719 78.4793C127.696 78.6302 127.717 78.7813 127.781 78.9327C127.837 79.0761 127.925 79.2078 128.045 79.3277C128.348 79.6315 128.784 79.8644 129.353 80.0267C129.932 80.185 130.657 80.2129 131.527 80.1106C131.735 79.7819 131.835 79.4605 131.826 79.1465C131.809 78.8245 131.617 78.4796 131.249 78.1118ZM143.017 81.2528C143.296 81.5326 143.397 81.8074 143.318 82.0772C143.25 82.3431 143.041 82.5406 142.691 82.6698C142.331 82.8029 141.941 82.8265 141.521 82.7407C141.101 82.6548 140.752 82.472 140.472 82.1922C140.193 81.9124 140.087 81.6395 140.155 81.3736C140.215 81.0998 140.425 80.8963 140.786 80.7632C141.136 80.634 141.524 80.6164 141.952 80.7102C142.382 80.7921 142.737 80.973 143.017 81.2528ZM139.497 74.6236C139.928 74.2127 140.308 73.7499 140.635 73.2351C140.973 72.7164 141.185 72.1731 141.27 71.6052L142.622 71.1062L150.926 79.4162L149.002 80.1266L142.639 73.7592C142.52 74.0327 142.324 74.3297 142.049 74.6501C141.774 74.9704 141.487 75.2569 141.188 75.5096L139.497 74.6236ZM156.132 77.4942C155.589 76.8631 155.093 76.1708 154.644 75.4171C154.196 74.6633 153.815 73.912 153.502 73.163C153.192 72.4022 152.952 71.6755 152.782 70.983C152.615 70.2786 152.535 69.668 152.541 69.1514L147.468 71.0243L146.222 69.7772L153.585 67.0588L154.687 68.1621C154.633 68.587 154.655 69.1316 154.753 69.7959C154.85 70.4602 155.037 71.1846 155.313 71.9691C155.581 72.7456 155.945 73.5525 156.404 74.3897C156.874 75.2231 157.441 76.0152 158.104 76.7662L156.132 77.4942Z" fill="#3F65B3"/>
<path d="M114.806 84.33C115.094 84.6178 115.298 84.9309 115.419 85.2694C115.531 85.5999 115.592 85.9441 115.601 86.3018C115.613 86.6477 115.584 87.0032 115.513 87.3684C115.435 87.7257 115.352 88.079 115.266 88.4282C115.216 88.6107 115.169 88.8251 115.125 89.0713C115.081 89.3174 115.047 89.5597 115.024 89.798C115.001 90.0363 115 90.2609 115.022 90.4716C115.036 90.6744 115.09 90.8297 115.183 90.9376L120.081 89.1292L121.303 90.3524L114.29 92.9415C114.216 92.8815 114.134 92.8075 114.047 92.7196C113.951 92.6236 113.879 92.5517 113.831 92.5037C113.447 92.12 113.175 91.7389 113.015 91.3604C112.857 90.97 112.771 90.586 112.756 90.2084C112.742 89.8307 112.775 89.4573 112.856 89.0882C112.937 88.719 113.022 88.3538 113.111 87.9927C113.182 87.7149 113.246 87.445 113.303 87.183C113.361 86.921 113.391 86.6748 113.392 86.4443C113.397 86.2019 113.364 85.9731 113.295 85.7581C113.217 85.5351 113.082 85.3277 112.89 85.1358C112.475 84.7201 112.02 84.4831 111.527 84.4246C111.033 84.3662 110.558 84.4211 110.102 84.5894C109.805 84.699 109.561 84.8327 109.371 84.9906C109.18 85.1485 109.028 85.3086 108.915 85.4709C108.812 85.6293 108.734 85.7839 108.682 85.9346C108.621 86.0773 108.582 86.1904 108.563 86.2737L106.591 85.6067C106.716 85.1226 106.98 84.675 107.382 84.2639C107.787 83.841 108.334 83.5023 109.023 83.2479C110.2 82.8134 111.275 82.7062 112.25 82.9264C113.227 83.1346 114.079 83.6025 114.806 84.33ZM123.845 80.9931C124.133 81.2809 124.337 81.594 124.457 81.9325C124.57 82.263 124.631 82.6072 124.64 82.9649C124.652 83.3107 124.622 83.6663 124.552 84.0315C124.474 84.3888 124.391 84.742 124.305 85.0913C124.255 85.2738 124.208 85.4882 124.164 85.7343C124.119 85.9805 124.086 86.2227 124.063 86.4611C124.039 86.6994 124.039 86.924 124.061 87.1347C124.075 87.3375 124.128 87.4928 124.222 87.6006L129.12 85.7923L130.342 87.0154L123.329 89.6046C123.254 89.5446 123.173 89.4706 123.085 89.3827C122.989 89.2867 122.917 89.2148 122.87 89.1668C122.486 88.7831 122.214 88.402 122.054 88.0235C121.896 87.6331 121.809 87.2491 121.795 86.8714C121.78 86.4938 121.814 86.1204 121.895 85.7512C121.976 85.3821 122.061 85.0169 122.15 84.6558C122.22 84.378 122.285 84.1081 122.342 83.8461C122.4 83.5841 122.429 83.3378 122.431 83.1073C122.436 82.8649 122.403 82.6362 122.333 82.4212C122.256 82.1982 122.121 81.9908 121.929 81.7989C121.514 81.3832 121.059 81.1461 120.565 81.0877C120.071 81.0292 119.597 81.0842 119.141 81.2525C118.844 81.3621 118.6 81.4958 118.41 81.6537C118.219 81.8116 118.067 81.9717 117.953 82.134C117.85 82.2924 117.773 82.4469 117.72 82.5977C117.66 82.7404 117.62 82.8534 117.602 82.9368L115.629 82.2698C115.755 81.7857 116.019 81.338 116.421 80.927C116.825 80.504 117.372 80.1653 118.061 79.9109C119.238 79.4765 120.314 79.3693 121.289 79.5895C122.266 79.7977 123.118 80.2656 123.845 80.9931ZM137.422 81.3483C137.766 81.6921 138.006 82.0412 138.142 82.3957C138.279 82.7502 138.296 83.0941 138.194 83.4273C138.091 83.7606 137.861 84.0753 137.504 84.3713C137.157 84.6634 136.677 84.923 136.062 85.15C135.341 85.4162 134.666 85.5614 134.037 85.5856C133.408 85.6099 132.835 85.5589 132.317 85.4328C131.799 85.3066 131.345 85.1351 130.954 84.9183C130.565 84.6896 130.252 84.4553 130.012 84.2154C129.772 83.9756 129.595 83.7401 129.48 83.5089C129.368 83.2659 129.307 83.031 129.299 82.8044C129.282 82.5699 129.302 82.3434 129.36 82.1252C129.418 81.9069 129.502 81.7007 129.613 81.5066C128.869 81.4308 128.228 81.2901 127.688 81.0843C127.152 80.8666 126.668 80.542 126.236 80.1103C125.925 79.7985 125.709 79.4734 125.588 79.1349C125.47 78.7844 125.457 78.4446 125.549 78.1152C125.641 77.7858 125.84 77.477 126.147 77.1886C126.454 76.9002 126.872 76.6582 127.402 76.4625C128.028 76.2315 128.626 76.1038 129.196 76.0792C129.777 76.0507 130.313 76.0935 130.805 76.2076C131.307 76.3177 131.753 76.4812 132.144 76.6981C132.535 76.9149 132.854 77.1473 133.102 77.3951C133.541 77.8348 133.774 78.2852 133.799 78.7464C133.816 79.1995 133.718 79.6024 133.505 79.9549C134.386 79.9798 135.142 80.1053 135.775 80.3314C136.418 80.5537 136.967 80.8927 137.422 81.3483ZM131.88 83.4928C132 83.6127 132.16 83.7289 132.359 83.8413C132.559 83.9537 132.789 84.0385 133.049 84.0956C133.309 84.1527 133.596 84.1782 133.909 84.172C134.214 84.1579 134.542 84.0862 134.891 83.957C135.209 83.8396 135.453 83.7059 135.622 83.5558C135.792 83.4057 135.899 83.2513 135.943 83.0926C135.98 82.9259 135.967 82.7609 135.906 82.5976C135.836 82.4263 135.73 82.2687 135.586 82.1248C135.362 81.901 135.108 81.7266 134.824 81.6018C134.539 81.477 134.226 81.3957 133.883 81.358C133.544 81.3084 133.181 81.2944 132.797 81.3161C132.404 81.3297 131.991 81.3671 131.559 81.4283C131.361 81.753 131.277 82.0904 131.308 82.4403C131.33 82.7822 131.521 83.133 131.88 83.4928ZM131.249 78.1118C131.145 78.0079 131.002 77.9077 130.818 77.8113C130.637 77.703 130.426 77.6223 130.184 77.5693C129.953 77.5123 129.701 77.485 129.428 77.4874C129.155 77.4899 128.875 77.5439 128.588 77.6496C128.302 77.7553 128.089 77.8832 127.949 78.0335C127.811 78.1718 127.735 78.3204 127.719 78.4793C127.696 78.6302 127.717 78.7813 127.781 78.9327C127.837 79.0761 127.925 79.2078 128.045 79.3277C128.348 79.6315 128.784 79.8644 129.353 80.0267C129.932 80.185 130.657 80.2129 131.527 80.1106C131.735 79.7819 131.835 79.4605 131.826 79.1465C131.809 78.8245 131.617 78.4796 131.249 78.1118ZM143.017 81.2528C143.296 81.5326 143.397 81.8074 143.318 82.0772C143.25 82.3431 143.041 82.5406 142.691 82.6698C142.331 82.8029 141.941 82.8265 141.521 82.7407C141.101 82.6548 140.752 82.472 140.472 82.1922C140.193 81.9124 140.087 81.6395 140.155 81.3736C140.215 81.0998 140.425 80.8963 140.786 80.7632C141.136 80.634 141.524 80.6164 141.952 80.7102C142.382 80.7921 142.737 80.973 143.017 81.2528ZM139.497 74.6236C139.928 74.2127 140.308 73.7499 140.635 73.2351C140.973 72.7164 141.185 72.1731 141.27 71.6052L142.622 71.1062L150.926 79.4162L149.002 80.1266L142.639 73.7592C142.52 74.0327 142.324 74.3297 142.049 74.6501C141.774 74.9704 141.487 75.2569 141.188 75.5096L139.497 74.6236ZM156.132 77.4942C155.589 76.8631 155.093 76.1708 154.644 75.4171C154.196 74.6633 153.815 73.912 153.502 73.163C153.192 72.4022 152.952 71.6755 152.782 70.983C152.615 70.2786 152.535 69.668 152.541 69.1514L147.468 71.0243L146.222 69.7772L153.585 67.0588L154.687 68.1621C154.633 68.587 154.655 69.1316 154.753 69.7959C154.85 70.4602 155.037 71.1846 155.313 71.9691C155.581 72.7456 155.945 73.5525 156.404 74.3897C156.874 75.2231 157.441 76.0152 158.104 76.7662L156.132 77.4942Z" fill="url(#paint7_linear_978_40719)"/>
<path d="M181.998 143.474L175.766 137.237L180.54 135.474L181.071 136.005L177.108 137.468L179.275 139.637L182.808 138.333L183.33 138.855L179.797 140.159L182.279 142.643L186.552 141.066L187.083 141.597L181.998 143.474ZM187.686 132.836L188.497 132.537L194.73 138.773L193.918 139.073L190.923 136.076L186.436 137.733L189.43 140.73L188.619 141.03L182.386 134.793L183.198 134.493L185.905 137.202L190.393 135.545L187.686 132.836ZM197.986 139.851L197.198 140.142L192.562 129.927L193.326 129.645L197.986 139.851ZM201.976 135.532C202.422 135.367 202.734 135.178 202.912 134.964C203.093 134.741 203.051 134.498 202.787 134.234C202.661 134.108 202.526 134.01 202.38 133.941C202.242 133.869 202.078 133.818 201.887 133.791C201.695 133.763 201.467 133.752 201.202 133.76C200.945 133.764 200.629 133.774 200.252 133.79C199.95 133.803 199.659 133.812 199.38 133.817C199.095 133.815 198.825 133.795 198.57 133.758C198.309 133.715 198.062 133.642 197.828 133.539C197.595 133.436 197.379 133.286 197.182 133.088C196.804 132.71 196.685 132.335 196.825 131.963C196.973 131.588 197.378 131.279 198.038 131.035C198.46 130.879 198.833 130.778 199.157 130.732C199.49 130.684 199.733 130.66 199.886 130.66L200.229 131.249C200.097 131.248 199.886 131.26 199.595 131.285C199.313 131.307 198.953 131.399 198.515 131.561C198.34 131.626 198.188 131.702 198.059 131.791C197.931 131.871 197.838 131.963 197.779 132.067C197.713 132.165 197.69 132.272 197.708 132.389C197.72 132.499 197.789 132.617 197.915 132.743C198.041 132.869 198.181 132.966 198.335 133.032C198.488 133.099 198.661 133.146 198.852 133.174C199.045 133.193 199.259 133.2 199.494 133.195C199.737 133.188 200.01 133.177 200.313 133.164C200.624 133.148 200.925 133.139 201.218 133.138C201.513 133.128 201.798 133.146 202.073 133.192C202.342 133.232 202.603 133.308 202.856 133.42C203.104 133.526 203.338 133.69 203.56 133.912C203.98 134.332 204.087 134.728 203.881 135.099C203.683 135.468 203.222 135.786 202.498 136.054C201.957 136.253 201.507 136.37 201.148 136.404C200.796 136.444 200.554 136.463 200.423 136.462L200.095 135.856C200.131 135.86 200.204 135.862 200.313 135.862C200.417 135.857 200.554 135.847 200.725 135.833C200.891 135.813 201.077 135.781 201.284 135.738C201.499 135.691 201.729 135.623 201.976 135.532Z" fill="#AAAAAA"/>
<defs>
<filter id="filter0_d_978_40719" x="11.8595" y="20.2329" width="268.552" height="187.509" filterUnits="userSpaceOnUse" color-interpolation-filters="sRGB">
<feFlood flood-opacity="0" result="BackgroundImageFix"/>
<feColorMatrix in="SourceAlpha" type="matrix" values="0 0 0 0 0 0 0 0 0 0 0 0 0 0 0 0 0 0 127 0" result="hardAlpha"/>
<feOffset dy="10"/>
<feGaussianBlur stdDeviation="5"/>
<feComposite in2="hardAlpha" operator="out"/>
<feColorMatrix type="matrix" values="0 0 0 0 0.0625 0 0 0 0 0.0625 0 0 0 0 0.0625 0 0 0 0.12 0"/>
<feBlend mode="normal" in2="BackgroundImageFix" result="effect1_dropShadow_978_40719"/>
<feBlend mode="normal" in="SourceGraphic" in2="effect1_dropShadow_978_40719" result="shape"/>
</filter>
<filter id="filter1_i_978_40719" x="21.8595" y="8.23291" width="248.552" height="172.347" filterUnits="userSpaceOnUse" color-interpolation-filters="sRGB">
<feFlood flood-opacity="0" result="BackgroundImageFix"/>
<feBlend mode="normal" in="SourceGraphic" in2="BackgroundImageFix" result="shape"/>
<feColorMatrix in="SourceAlpha" type="matrix" values="0 0 0 0 0 0 0 0 0 0 0 0 0 0 0 0 0 0 127 0" result="hardAlpha"/>
<feOffset dy="4.83828"/>
<feGaussianBlur stdDeviation="8.46699"/>
<feComposite in2="hardAlpha" operator="arithmetic" k2="-1" k3="1"/>
<feColorMatrix type="matrix" values="0 0 0 0 0 0 0 0 0 0 0 0 0 0 0 0 0 0 0.04 0"/>
<feBlend mode="normal" in2="shape" result="effect1_innerShadow_978_40719"/>
</filter>
<filter id="filter2_ddddd_978_40719" x="83.7279" y="31.7174" width="177.09" height="211.721" filterUnits="userSpaceOnUse" color-interpolation-filters="sRGB">
<feFlood flood-opacity="0" result="BackgroundImageFix"/>
<feColorMatrix in="SourceAlpha" type="matrix" values="0 0 0 0 0 0 0 0 0 0 0 0 0 0 0 0 0 0 127 0" result="hardAlpha"/>
<feOffset/>
<feColorMatrix type="matrix" values="0 0 0 0 0.00784314 0 0 0 0 0.376471 0 0 0 0 0.968627 0 0 0 0.2 0"/>
<feBlend mode="normal" in2="BackgroundImageFix" result="effect1_dropShadow_978_40719"/>
<feColorMatrix in="SourceAlpha" type="matrix" values="0 0 0 0 0 0 0 0 0 0 0 0 0 0 0 0 0 0 127 0" result="hardAlpha"/>
<feOffset dx="1.5767" dy="5.51844"/>
<feGaussianBlur stdDeviation="6.30679"/>
<feColorMatrix type="matrix" values="0 0 0 0 0.00784314 0 0 0 0 0.376471 0 0 0 0 0.968627 0 0 0 0.2 0"/>
<feBlend mode="normal" in2="effect1_dropShadow_978_40719" result="effect2_dropShadow_978_40719"/>
<feColorMatrix in="SourceAlpha" type="matrix" values="0 0 0 0 0 0 0 0 0 0 0 0 0 0 0 0 0 0 127 0" result="hardAlpha"/>
<feOffset dx="7.09513" dy="22.0737"/>
<feGaussianBlur stdDeviation="11.431"/>
<feColorMatrix type="matrix" values="0 0 0 0 0.00784314 0 0 0 0 0.376471 0 0 0 0 0.968627 0 0 0 0.17 0"/>
<feBlend mode="normal" in2="effect2_dropShadow_978_40719" result="effect3_dropShadow_978_40719"/>
<feColorMatrix in="SourceAlpha" type="matrix" values="0 0 0 0 0 0 0 0 0 0 0 0 0 0 0 0 0 0 127 0" result="hardAlpha"/>
<feOffset dx="16.5553" dy="48.8776"/>
<feGaussianBlur stdDeviation="15.3728"/>
<feColorMatrix type="matrix" values="0 0 0 0 0.00784314 0 0 0 0 0.376471 0 0 0 0 0.968627 0 0 0 0.1 0"/>
<feBlend mode="normal" in2="effect3_dropShadow_978_40719" result="effect4_dropShadow_978_40719"/>
<feColorMatrix in="SourceAlpha" type="matrix" values="0 0 0 0 0 0 0 0 0 0 0 0 0 0 0 0 0 0 127 0" result="hardAlpha"/>
<feOffset dx="29.1689" dy="86.7183"/>
<feGaussianBlur stdDeviation="18.5262"/>
<feColorMatrix type="matrix" values="0 0 0 0 0.00784314 0 0 0 0 0.376471 0 0 0 0 0.968627 0 0 0 0.03 0"/>
<feBlend mode="normal" in2="effect4_dropShadow_978_40719" result="effect5_dropShadow_978_40719"/>
<feBlend mode="normal" in="SourceGraphic" in2="effect5_dropShadow_978_40719" result="shape"/>
</filter>
<linearGradient id="paint0_linear_978_40719" x1="11.4614" y1="191.355" x2="-59.4357" y2="31.3898" gradientUnits="userSpaceOnUse">
<stop offset="0.029378" stop-color="#2C3045"/>
<stop offset="1" stop-color="#6371AA"/>
</linearGradient>
<linearGradient id="paint1_linear_978_40719" x1="59.2914" y1="-52.7199" x2="252.826" y2="219.778" gradientUnits="userSpaceOnUse">
<stop stop-color="#121830"/>
<stop offset="0.9999" stop-color="#25242B"/>
</linearGradient>
<linearGradient id="paint2_linear_978_40719" x1="49.6713" y1="113.044" x2="49.9516" y2="113.643" gradientUnits="userSpaceOnUse">
<stop stop-color="#90B4FF"/>
<stop offset="1" stop-color="#93B0F7"/>
</linearGradient>
<linearGradient id="paint3_linear_978_40719" x1="49.6712" y1="112.044" x2="49.9516" y2="112.643" gradientUnits="userSpaceOnUse">
<stop stop-color="#90B4FF"/>
<stop offset="1" stop-color="#93B0F7"/>
</linearGradient>
<linearGradient id="paint4_linear_978_40719" x1="49.6712" y1="110.044" x2="49.9516" y2="110.643" gradientUnits="userSpaceOnUse">
<stop stop-color="#90B4FF"/>
<stop offset="1" stop-color="#93B0F7"/>
</linearGradient>
<linearGradient id="paint5_linear_978_40719" x1="49.6712" y1="109.044" x2="49.9516" y2="109.643" gradientUnits="userSpaceOnUse">
<stop stop-color="#90B4FF"/>
<stop offset="1" stop-color="#93B0F7"/>
</linearGradient>
<linearGradient id="paint6_linear_978_40719" x1="179.062" y1="165.341" x2="232.194" y2="101.828" gradientUnits="userSpaceOnUse">
<stop stop-color="#3F7BDD"/>
<stop offset="1" stop-color="#4282EC"/>
</linearGradient>
<linearGradient id="paint7_linear_978_40719" x1="130.899" y1="100.317" x2="151.242" y2="67.6994" gradientUnits="userSpaceOnUse">
<stop stop-color="#3F7BDD"/>
<stop offset="1" stop-color="#4282EC"/>
</linearGradient>
</defs>
</svg>
