<svg width="486" height="444" viewBox="0 0 486 444" fill="none" xmlns="http://www.w3.org/2000/svg">
<g filter="url(#filter0_d_994_37159)">
<rect width="331.478" height="175.818" rx="34" transform="matrix(0.938191 -0.346117 0.707107 0.707107 49 230.707)" fill="url(#paint0_linear_994_37159)"/>
</g>
<g filter="url(#filter1_i_994_37159)">
<rect width="331.478" height="175.818" rx="34" transform="matrix(0.938191 -0.346117 0.707107 0.707107 50.6895 219.73)" fill="url(#paint1_linear_994_37159)"/>
</g>
<rect x="1.9901" y="0.436642" width="329.058" height="173.399" rx="32.7904" transform="matrix(0.938191 -0.346117 0.707107 0.707107 50.5037 220.547)" stroke="#3E4462" stroke-width="2.41914"/>
<line y1="-0.606136" x2="297.294" y2="-0.606136" transform="matrix(0.938191 -0.346117 0.707107 0.707107 177.549 322.034)" stroke="#756767" stroke-width="1.21227"/>
<line y1="-0.15991" x2="297.294" y2="-0.15991" transform="matrix(0.938191 -0.346117 0.707107 0.707107 152.976 297.449)" stroke="#756767" stroke-width="0.31982"/>
<line y1="-0.15991" x2="297.294" y2="-0.15991" transform="matrix(0.938191 -0.346117 0.707107 0.707107 128.892 273.366)" stroke="#756767" stroke-width="0.31982"/>
<line y1="-0.15991" x2="297.294" y2="-0.15991" transform="matrix(0.938191 -0.346117 0.707107 0.707107 104.808 249.284)" stroke="#756767" stroke-width="0.31982"/>
<line y1="-0.15991" x2="297.294" y2="-0.15991" transform="matrix(0.938191 -0.346117 0.707107 0.707107 80.7241 225.202)" stroke="#756767" stroke-width="0.31982"/>
<path d="M175.024 318.562L223.655 300.633L272.217 282.728C281.391 279.345 289.692 275.138 296.937 270.198L311.427 260.317C318.168 255.72 327.038 252.698 337.09 251.572L356.466 249.403C368.406 248.067 376.304 241.581 376.175 233.218V233.218L374.561 207.021L371.236 189.96L363.033 147.054" stroke="url(#paint2_linear_994_37159)" stroke-width="5.33033" stroke-linecap="round"/>
<g filter="url(#filter2_d_994_37159)">
<rect width="198.281" height="229.022" rx="34" transform="matrix(0.938191 -0.346117 0.707107 0.707107 10.957 83.6279)" fill="url(#paint3_linear_994_37159)"/>
</g>
<g filter="url(#filter3_i_994_37159)">
<rect width="198.281" height="229.022" rx="34" transform="matrix(0.938191 -0.346117 0.707107 0.707107 10.9585 68.6284)" fill="url(#paint4_linear_994_37159)"/>
</g>
<rect x="1.9901" y="0.436642" width="195.862" height="226.603" rx="32.7904" transform="matrix(0.938191 -0.346117 0.707107 0.707107 10.7727 69.4451)" stroke="#3E4462" stroke-width="2.41914"/>
<circle cx="66.0936" cy="66.0936" r="58.7926" transform="matrix(0.938191 -0.346117 0.707107 0.707107 61.5249 76.7534)" stroke="#7C83AC" stroke-width="14.6021"/>
<g filter="url(#filter4_ddddd_994_37159)">
<path d="M128.703 59.0484C125.847 56.1922 126.584 52.7104 130.666 51.6363C141.162 48.8742 153.016 47.956 165.274 48.9929C180.4 50.2725 195.482 54.4735 208.657 61.0778C221.833 67.6821 232.527 76.4009 239.421 86.1588C246.314 95.9168 249.106 106.287 247.451 115.991C245.797 125.695 239.768 134.308 230.109 140.768C220.45 147.228 207.583 151.252 193.095 152.344C178.607 153.436 163.131 151.549 148.577 146.914C136.782 143.159 126.01 137.732 117.115 131.106C113.655 128.53 114.116 124.993 117.726 123.425C121.337 121.858 126.725 122.861 130.284 125.378C136.928 130.076 144.806 133.938 153.377 136.667C164.71 140.276 176.761 141.746 188.043 140.895C199.325 140.044 209.344 136.911 216.865 131.881C224.387 126.851 229.081 120.144 230.369 112.587C231.658 105.031 229.484 96.9559 224.116 89.3575C218.748 81.7591 210.421 74.9699 200.161 69.8273C189.901 64.6846 178.158 61.4133 166.379 60.4169C157.471 59.6634 148.837 60.2358 141.081 62.0638C136.925 63.0433 131.56 61.9045 128.703 59.0484Z" fill="url(#paint5_linear_994_37159)"/>
</g>
<path d="M128.703 57.1167C125.847 54.2605 126.584 50.7788 130.666 49.7047C141.162 46.9426 153.016 46.0243 165.274 47.0613C180.4 48.3409 195.482 52.5419 208.657 59.1462C221.833 65.7505 232.527 74.4692 239.421 84.2272C246.314 93.9851 249.106 104.356 247.451 114.059C245.797 123.763 239.768 132.376 230.109 138.836C220.45 145.296 207.583 149.32 193.095 150.412C178.607 151.505 163.131 149.617 148.577 144.983C136.782 141.227 126.01 135.801 117.115 129.175C113.655 126.598 114.116 123.061 117.726 121.494C121.337 119.926 126.725 120.93 130.284 123.447C136.928 128.144 144.806 132.006 153.377 134.735C164.71 138.344 176.761 139.814 188.043 138.963C199.325 138.113 209.344 134.979 216.865 129.949C224.387 124.919 229.081 118.212 230.369 110.656C231.658 103.1 229.484 95.0243 224.116 87.4259C218.748 79.8275 210.421 73.0383 200.161 67.8956C189.901 62.753 178.158 59.4817 166.379 58.4853C157.471 57.7317 148.837 58.3042 141.081 60.1322C136.925 61.1116 131.56 59.9729 128.703 57.1167Z" fill="url(#paint6_linear_994_37159)"/>
<path d="M128.703 57.1167C125.847 54.2605 126.584 50.7788 130.666 49.7047C141.162 46.9426 153.016 46.0243 165.274 47.0613C180.4 48.3409 195.482 52.5419 208.657 59.1462C221.833 65.7505 232.527 74.4692 239.421 84.2272C246.314 93.9851 249.106 104.356 247.451 114.059C245.797 123.763 239.768 132.376 230.109 138.836C220.45 145.296 207.583 149.32 193.095 150.412C178.607 151.505 163.131 149.617 148.577 144.983C136.782 141.227 126.01 135.801 117.115 129.175C113.655 126.598 114.116 123.061 117.726 121.494C121.337 119.926 126.725 120.93 130.284 123.447C136.928 128.144 144.806 132.006 153.377 134.735C164.71 138.344 176.761 139.814 188.043 138.963C199.325 138.113 209.344 134.979 216.865 129.949C224.387 124.919 229.081 118.212 230.369 110.656C231.658 103.1 229.484 95.0243 224.116 87.4259C218.748 79.8275 210.421 73.0383 200.161 67.8956C189.901 62.753 178.158 59.4817 166.379 58.4853C157.471 57.7317 148.837 58.3042 141.081 60.1322C136.925 61.1116 131.56 59.9729 128.703 57.1167Z" fill="url(#paint7_linear_994_37159)"/>
<path d="M128.703 55.1851C125.847 52.3289 126.584 48.8471 130.666 47.7731C141.162 45.011 153.016 44.0927 165.274 45.1296C180.4 46.4092 195.482 50.6102 208.657 57.2145C221.833 63.8188 232.527 72.5376 239.421 82.2955C246.314 92.0535 249.106 102.424 247.451 112.128C245.797 121.832 239.768 130.445 230.109 136.904C220.45 143.364 207.583 147.388 193.095 148.481C178.607 149.573 163.131 147.686 148.577 143.051C136.782 139.296 126.01 133.869 117.115 127.243C113.655 124.666 114.116 121.13 117.726 119.562C121.337 117.994 126.725 118.998 130.284 121.515C136.928 126.212 144.806 130.075 153.377 132.804C164.71 136.413 176.761 137.882 188.043 137.032C199.325 136.181 209.344 133.048 216.865 128.017C224.387 122.987 229.081 116.28 230.369 108.724C231.658 101.168 229.484 93.0926 224.116 85.4942C218.748 77.8958 210.421 71.1067 200.161 65.964C189.901 60.8213 178.158 57.5501 166.379 56.5536C157.471 55.8001 148.837 56.3726 141.081 58.2005C136.925 59.18 131.56 58.0413 128.703 55.1851Z" fill="url(#paint8_linear_994_37159)"/>
<path d="M128.703 55.1851C125.847 52.3289 126.584 48.8471 130.666 47.7731C141.162 45.011 153.016 44.0927 165.274 45.1296C180.4 46.4092 195.482 50.6102 208.657 57.2145C221.833 63.8188 232.527 72.5376 239.421 82.2955C246.314 92.0535 249.106 102.424 247.451 112.128C245.797 121.832 239.768 130.445 230.109 136.904C220.45 143.364 207.583 147.388 193.095 148.481C178.607 149.573 163.131 147.686 148.577 143.051C136.782 139.296 126.01 133.869 117.115 127.243C113.655 124.666 114.116 121.13 117.726 119.562C121.337 117.994 126.725 118.998 130.284 121.515C136.928 126.212 144.806 130.075 153.377 132.804C164.71 136.413 176.761 137.882 188.043 137.032C199.325 136.181 209.344 133.048 216.865 128.017C224.387 122.987 229.081 116.28 230.369 108.724C231.658 101.168 229.484 93.0926 224.116 85.4942C218.748 77.8958 210.421 71.1067 200.161 65.964C189.901 60.8213 178.158 57.5501 166.379 56.5536C157.471 55.8001 148.837 56.3726 141.081 58.2005C136.925 59.18 131.56 58.0413 128.703 55.1851Z" fill="url(#paint9_linear_994_37159)"/>
<path d="M128.703 53.2534C125.847 50.3973 126.584 46.9155 130.666 45.8414C141.162 43.0793 153.016 42.161 165.274 43.198C180.4 44.4776 195.482 48.6786 208.657 55.2829C221.833 61.8872 232.527 70.6059 239.421 80.3639C246.314 90.1218 249.106 100.492 247.451 110.196C245.797 119.9 239.768 128.513 230.109 134.973C220.45 141.433 207.583 145.457 193.095 146.549C178.607 147.641 163.131 145.754 148.577 141.119C136.782 137.364 126.01 131.938 117.115 125.311C113.655 122.735 114.116 119.198 117.726 117.63C121.337 116.063 126.725 117.067 130.284 119.583C136.928 124.281 144.806 128.143 153.377 130.872C164.71 134.481 176.761 135.951 188.043 135.1C199.325 134.25 209.344 131.116 216.865 126.086C224.387 121.056 229.081 114.349 230.369 106.793C231.658 99.2363 229.484 91.161 224.116 83.5626C218.748 75.9642 210.421 69.175 200.161 64.0324C189.901 58.8897 178.158 55.6184 166.379 54.622C157.471 53.8684 148.837 54.4409 141.081 56.2689C136.925 57.2483 131.56 56.1096 128.703 53.2534Z" fill="url(#paint10_linear_994_37159)"/>
<path d="M128.703 53.2534C125.847 50.3973 126.584 46.9155 130.666 45.8414C141.162 43.0793 153.016 42.161 165.274 43.198C180.4 44.4776 195.482 48.6786 208.657 55.2829C221.833 61.8872 232.527 70.6059 239.421 80.3639C246.314 90.1218 249.106 100.492 247.451 110.196C245.797 119.9 239.768 128.513 230.109 134.973C220.45 141.433 207.583 145.457 193.095 146.549C178.607 147.641 163.131 145.754 148.577 141.119C136.782 137.364 126.01 131.938 117.115 125.311C113.655 122.735 114.116 119.198 117.726 117.63C121.337 116.063 126.725 117.067 130.284 119.583C136.928 124.281 144.806 128.143 153.377 130.872C164.71 134.481 176.761 135.951 188.043 135.1C199.325 134.25 209.344 131.116 216.865 126.086C224.387 121.056 229.081 114.349 230.369 106.793C231.658 99.2363 229.484 91.161 224.116 83.5626C218.748 75.9642 210.421 69.175 200.161 64.0324C189.901 58.8897 178.158 55.6184 166.379 54.622C157.471 53.8684 148.837 54.4409 141.081 56.2689C136.925 57.2483 131.56 56.1096 128.703 53.2534Z" fill="url(#paint11_linear_994_37159)"/>
<mask id="path-18-inside-1_994_37159" fill="white">
<path d="M128.703 51.3218C125.847 48.4656 126.584 44.9839 130.666 43.9098C141.163 41.1475 153.017 40.2293 165.276 41.2665C180.403 42.5464 195.485 46.7479 208.66 53.3528C221.836 59.9578 232.53 68.6772 239.423 78.4358C246.316 88.1943 249.107 98.5651 247.45 108.269C245.794 117.973 239.764 126.586 230.103 133.045C220.442 139.504 207.574 143.527 193.085 144.618C178.595 145.709 163.119 143.82 148.564 139.184C136.77 135.427 125.999 129.999 117.104 123.372C113.645 120.795 114.107 117.258 117.718 115.691C121.329 114.124 126.717 115.129 130.276 117.646C136.919 122.344 144.796 126.207 153.368 128.937C164.701 132.548 176.752 134.019 188.035 133.169C199.317 132.32 209.338 129.187 216.861 124.157C224.383 119.127 229.079 112.421 230.369 104.865C231.658 97.3081 229.485 89.2325 224.118 81.6337C218.751 74.0348 210.423 67.2451 200.164 62.1019C189.904 56.9588 178.16 53.6871 166.38 52.6905C157.472 51.9367 148.838 52.5092 141.081 54.3373C136.925 55.3167 131.56 54.178 128.703 51.3218Z"/>
</mask>
<path d="M128.703 51.3218C125.847 48.4656 126.584 44.9839 130.666 43.9098C141.163 41.1475 153.017 40.2293 165.276 41.2665C180.403 42.5464 195.485 46.7479 208.66 53.3528C221.836 59.9578 232.53 68.6772 239.423 78.4358C246.316 88.1943 249.107 98.5651 247.45 108.269C245.794 117.973 239.764 126.586 230.103 133.045C220.442 139.504 207.574 143.527 193.085 144.618C178.595 145.709 163.119 143.82 148.564 139.184C136.77 135.427 125.999 129.999 117.104 123.372C113.645 120.795 114.107 117.258 117.718 115.691C121.329 114.124 126.717 115.129 130.276 117.646C136.919 122.344 144.796 126.207 153.368 128.937C164.701 132.548 176.752 134.019 188.035 133.169C199.317 132.32 209.338 129.187 216.861 124.157C224.383 119.127 229.079 112.421 230.369 104.865C231.658 97.3081 229.485 89.2325 224.118 81.6337C218.751 74.0348 210.423 67.2451 200.164 62.1019C189.904 56.9588 178.16 53.6871 166.38 52.6905C157.472 51.9367 148.838 52.5092 141.081 54.3373C136.925 55.3167 131.56 54.178 128.703 51.3218Z" fill="url(#paint12_linear_994_37159)" stroke="white" stroke-opacity="0.54" stroke-width="1.53706" mask="url(#path-18-inside-1_994_37159)"/>
<path d="M151.665 111.969C150.646 112.276 149.763 112.47 149.016 112.551C148.272 112.618 147.691 112.645 147.274 112.632L146.515 110.934C147.108 110.938 147.773 110.894 148.51 110.802C149.26 110.706 150.025 110.514 150.806 110.226C151.734 109.884 152.271 109.547 152.418 109.215C152.568 108.868 152.471 108.522 152.126 108.178C151.893 107.944 151.617 107.769 151.296 107.651C150.976 107.533 150.615 107.458 150.215 107.426C149.814 107.393 149.37 107.391 148.881 107.418C148.407 107.441 147.887 107.473 147.321 107.515C146.793 107.557 146.249 107.584 145.69 107.596C145.145 107.603 144.603 107.567 144.064 107.489C143.528 107.395 143.012 107.238 142.517 107.019C142.021 106.799 141.56 106.476 141.134 106.051C140.435 105.351 140.118 104.657 140.183 103.967C140.237 103.266 140.765 102.635 141.767 102.071L140.064 100.368L142.162 99.5938L143.804 101.236C144.49 101.038 145.139 100.896 145.752 100.809C146.354 100.711 146.849 100.654 147.236 100.636L148.237 102.327C147.735 102.36 147.165 102.424 146.526 102.522C145.9 102.614 145.244 102.786 144.558 103.039C143.832 103.307 143.388 103.61 143.228 103.946C143.057 104.273 143.144 104.608 143.489 104.953C143.692 105.156 143.918 105.308 144.167 105.411C144.407 105.503 144.69 105.565 145.017 105.597C145.333 105.619 145.697 105.623 146.107 105.611C146.508 105.588 146.954 105.555 147.445 105.513C148.159 105.471 148.849 105.453 149.516 105.456C150.186 105.445 150.824 105.494 151.43 105.604C152.027 105.703 152.588 105.877 153.114 106.127C153.654 106.372 154.146 106.718 154.592 107.164C155.261 107.833 155.563 108.512 155.499 109.202C155.434 109.892 154.84 110.541 153.718 111.15L155.618 113.05L153.52 113.825L151.665 111.969ZM165.221 96.5612C165.586 96.9262 165.845 97.3232 165.998 97.7525C166.141 98.1715 166.218 98.6079 166.23 99.0615C166.245 99.5 166.208 99.9508 166.118 100.414C166.019 100.867 165.914 101.315 165.805 101.758C165.742 101.989 165.682 102.261 165.626 102.573C165.57 102.885 165.527 103.192 165.498 103.494C165.469 103.796 165.468 104.081 165.496 104.348C165.514 104.606 165.582 104.802 165.7 104.939L171.914 102.647L173.465 104.198L164.568 107.48C164.473 107.404 164.37 107.31 164.259 107.199C164.137 107.077 164.046 106.986 163.985 106.925C163.499 106.438 163.153 105.955 162.95 105.475C162.749 104.98 162.64 104.493 162.621 104.014C162.603 103.536 162.645 103.062 162.747 102.594C162.85 102.126 162.958 101.663 163.071 101.205C163.16 100.853 163.242 100.511 163.315 100.179C163.387 99.8464 163.425 99.5341 163.427 99.2419C163.433 98.9345 163.392 98.6445 163.303 98.3719C163.204 98.0891 163.033 97.8261 162.79 97.5828C162.263 97.0557 161.686 96.7551 161.06 96.6809C160.433 96.6068 159.831 96.6764 159.252 96.8897C158.876 97.0286 158.567 97.1982 158.325 97.3984C158.083 97.5986 157.89 97.8015 157.746 98.0073C157.616 98.2081 157.517 98.4041 157.451 98.5952C157.374 98.7762 157.324 98.9195 157.301 99.0252L154.798 98.1793C154.957 97.5654 155.292 96.9979 155.802 96.4768C156.315 95.9405 157.009 95.5112 157.883 95.1886C159.376 94.6379 160.74 94.5021 161.977 94.7814C163.217 95.0455 164.298 95.6388 165.221 96.5612ZM176.687 92.3311C177.052 92.696 177.311 93.0931 177.464 93.5223C177.607 93.9414 177.684 94.3777 177.696 94.8313C177.711 95.2698 177.674 95.7206 177.585 96.1837C177.485 96.6367 177.381 97.0846 177.271 97.5274C177.208 97.7588 177.148 98.0306 177.092 98.3427C177.036 98.6548 176.994 98.962 176.964 99.2642C176.935 99.5664 176.934 99.8511 176.962 100.118C176.98 100.375 177.048 100.572 177.166 100.709L183.38 98.4167L184.931 99.9677L176.034 103.25C175.94 103.174 175.837 103.08 175.725 102.968C175.603 102.847 175.512 102.756 175.451 102.695C174.965 102.208 174.62 101.725 174.416 101.245C174.216 100.75 174.106 100.263 174.088 99.7843C174.069 99.3055 174.111 98.832 174.214 98.364C174.316 97.8959 174.424 97.4329 174.537 96.975C174.627 96.6228 174.708 96.2806 174.781 95.9484C174.854 95.6162 174.891 95.304 174.894 95.0117C174.899 94.7044 174.858 94.4144 174.769 94.1418C174.671 93.859 174.5 93.596 174.256 93.3527C173.729 92.8256 173.152 92.5249 172.526 92.4508C171.899 92.3766 171.297 92.4462 170.719 92.6596C170.342 92.7985 170.033 92.9681 169.791 93.1682C169.55 93.3684 169.357 93.5714 169.213 93.7772C169.082 93.978 168.983 94.174 168.917 94.3651C168.84 94.546 168.79 94.6894 168.767 94.7951L166.264 93.9492C166.423 93.3353 166.758 92.7678 167.268 92.2467C167.781 91.7104 168.475 91.281 169.349 90.9585C170.842 90.4077 172.207 90.272 173.443 90.5512C174.683 90.8154 175.764 91.4087 176.687 92.3311ZM189.543 96.8924C189.898 97.2472 190.026 97.5956 189.926 97.9377C189.839 98.2748 189.574 98.5253 189.131 98.689C188.673 98.8577 188.178 98.8876 187.646 98.7787C187.114 98.6698 186.67 98.438 186.315 98.0832C185.961 97.7284 185.826 97.3825 185.913 97.0453C185.989 96.6981 186.256 96.4401 186.713 96.2714C187.157 96.1076 187.65 96.0853 188.192 96.2043C188.738 96.3082 189.188 96.5376 189.543 96.8924ZM185.076 88.4867C185.623 87.9658 186.104 87.379 186.52 86.7263C186.948 86.0686 187.217 85.3798 187.325 84.6598L189.04 84.0271L199.577 94.5644L197.136 95.4649L189.062 87.391C188.912 87.7378 188.663 88.1143 188.314 88.5205C187.965 88.9266 187.601 89.2899 187.222 89.6102L185.076 88.4867Z" fill="#E9C058"/>
<defs>
<filter id="filter0_d_994_37159" x="47.9941" y="125.013" width="437.323" height="318.979" filterUnits="userSpaceOnUse" color-interpolation-filters="sRGB">
<feFlood flood-opacity="0" result="BackgroundImageFix"/>
<feColorMatrix in="SourceAlpha" type="matrix" values="0 0 0 0 0 0 0 0 0 0 0 0 0 0 0 0 0 0 127 0" result="hardAlpha"/>
<feOffset dy="81"/>
<feGaussianBlur stdDeviation="8.5"/>
<feComposite in2="hardAlpha" operator="out"/>
<feColorMatrix type="matrix" values="0 0 0 0 0.334479 0 0 0 0 0.34853 0 0 0 0 0.475 0 0 0 0.03 0"/>
<feBlend mode="normal" in2="BackgroundImageFix" result="effect1_dropShadow_994_37159"/>
<feBlend mode="normal" in="SourceGraphic" in2="effect1_dropShadow_994_37159" result="shape"/>
</filter>
<filter id="filter1_i_994_37159" x="66.6836" y="114.036" width="403.323" height="227.43" filterUnits="userSpaceOnUse" color-interpolation-filters="sRGB">
<feFlood flood-opacity="0" result="BackgroundImageFix"/>
<feBlend mode="normal" in="SourceGraphic" in2="BackgroundImageFix" result="shape"/>
<feColorMatrix in="SourceAlpha" type="matrix" values="0 0 0 0 0 0 0 0 0 0 0 0 0 0 0 0 0 0 127 0" result="hardAlpha"/>
<feOffset dy="6.45104"/>
<feGaussianBlur stdDeviation="11.2893"/>
<feComposite in2="hardAlpha" operator="arithmetic" k2="-1" k3="1"/>
<feColorMatrix type="matrix" values="0 0 0 0 0 0 0 0 0 0 0 0 0 0 0 0 0 0 0.04 0"/>
<feBlend mode="normal" in2="shape" result="effect1_innerShadow_994_37159"/>
</filter>
<filter id="filter2_d_994_37159" x="16.9512" y="24.0359" width="335.98" height="232.499" filterUnits="userSpaceOnUse" color-interpolation-filters="sRGB">
<feFlood flood-opacity="0" result="BackgroundImageFix"/>
<feColorMatrix in="SourceAlpha" type="matrix" values="0 0 0 0 0 0 0 0 0 0 0 0 0 0 0 0 0 0 127 0" result="hardAlpha"/>
<feOffset dy="10"/>
<feGaussianBlur stdDeviation="5"/>
<feComposite in2="hardAlpha" operator="out"/>
<feColorMatrix type="matrix" values="0 0 0 0 0.0625 0 0 0 0 0.0625 0 0 0 0 0.0625 0 0 0 0.12 0"/>
<feBlend mode="normal" in2="BackgroundImageFix" result="effect1_dropShadow_994_37159"/>
<feBlend mode="normal" in="SourceGraphic" in2="effect1_dropShadow_994_37159" result="shape"/>
</filter>
<filter id="filter3_i_994_37159" x="26.9526" y="9.03638" width="315.98" height="218.95" filterUnits="userSpaceOnUse" color-interpolation-filters="sRGB">
<feFlood flood-opacity="0" result="BackgroundImageFix"/>
<feBlend mode="normal" in="SourceGraphic" in2="BackgroundImageFix" result="shape"/>
<feColorMatrix in="SourceAlpha" type="matrix" values="0 0 0 0 0 0 0 0 0 0 0 0 0 0 0 0 0 0 127 0" result="hardAlpha"/>
<feOffset dy="6.45104"/>
<feGaussianBlur stdDeviation="11.2893"/>
<feComposite in2="hardAlpha" operator="arithmetic" k2="-1" k3="1"/>
<feColorMatrix type="matrix" values="0 0 0 0 0 0 0 0 0 0 0 0 0 0 0 0 0 0 0.04 0"/>
<feBlend mode="normal" in2="shape" result="effect1_innerShadow_994_37159"/>
</filter>
<filter id="filter4_ddddd_994_37159" x="94.7539" y="39.5784" width="237.162" height="270.067" filterUnits="userSpaceOnUse" color-interpolation-filters="sRGB">
<feFlood flood-opacity="0" result="BackgroundImageFix"/>
<feColorMatrix in="SourceAlpha" type="matrix" values="0 0 0 0 0 0 0 0 0 0 0 0 0 0 0 0 0 0 127 0" result="hardAlpha"/>
<feOffset/>
<feColorMatrix type="matrix" values="0 0 0 0 0.913725 0 0 0 0 0.752941 0 0 0 0 0.345098 0 0 0 0.2 0"/>
<feBlend mode="normal" in2="BackgroundImageFix" result="effect1_dropShadow_994_37159"/>
<feColorMatrix in="SourceAlpha" type="matrix" values="0 0 0 0 0 0 0 0 0 0 0 0 0 0 0 0 0 0 127 0" result="hardAlpha"/>
<feOffset dx="2" dy="7"/>
<feGaussianBlur stdDeviation="8"/>
<feColorMatrix type="matrix" values="0 0 0 0 0.913725 0 0 0 0 0.752941 0 0 0 0 0.345098 0 0 0 0.2 0"/>
<feBlend mode="normal" in2="effect1_dropShadow_994_37159" result="effect2_dropShadow_994_37159"/>
<feColorMatrix in="SourceAlpha" type="matrix" values="0 0 0 0 0 0 0 0 0 0 0 0 0 0 0 0 0 0 127 0" result="hardAlpha"/>
<feOffset dx="9" dy="28"/>
<feGaussianBlur stdDeviation="14.5"/>
<feColorMatrix type="matrix" values="0 0 0 0 0.913725 0 0 0 0 0.752941 0 0 0 0 0.345098 0 0 0 0.17 0"/>
<feBlend mode="normal" in2="effect2_dropShadow_994_37159" result="effect3_dropShadow_994_37159"/>
<feColorMatrix in="SourceAlpha" type="matrix" values="0 0 0 0 0 0 0 0 0 0 0 0 0 0 0 0 0 0 127 0" result="hardAlpha"/>
<feOffset dx="21" dy="62"/>
<feGaussianBlur stdDeviation="19.5"/>
<feColorMatrix type="matrix" values="0 0 0 0 0.913725 0 0 0 0 0.752941 0 0 0 0 0.345098 0 0 0 0.1 0"/>
<feBlend mode="normal" in2="effect3_dropShadow_994_37159" result="effect4_dropShadow_994_37159"/>
<feColorMatrix in="SourceAlpha" type="matrix" values="0 0 0 0 0 0 0 0 0 0 0 0 0 0 0 0 0 0 127 0" result="hardAlpha"/>
<feOffset dx="37" dy="110"/>
<feGaussianBlur stdDeviation="23.5"/>
<feColorMatrix type="matrix" values="0 0 0 0 0.913725 0 0 0 0 0.752941 0 0 0 0 0.345098 0 0 0 0.03 0"/>
<feBlend mode="normal" in2="effect4_dropShadow_994_37159" result="effect5_dropShadow_994_37159"/>
<feBlend mode="normal" in="SourceGraphic" in2="effect5_dropShadow_994_37159" result="shape"/>
</filter>
<linearGradient id="paint0_linear_994_37159" x1="24.3599" y1="185.904" x2="-11.8234" y2="7.29925" gradientUnits="userSpaceOnUse">
<stop offset="0.029378" stop-color="#2C3045"/>
<stop offset="1" stop-color="#6371AA"/>
</linearGradient>
<linearGradient id="paint1_linear_994_37159" x1="126.017" y1="-51.2181" x2="242.986" y2="309.081" gradientUnits="userSpaceOnUse">
<stop stop-color="#121830"/>
<stop offset="0.9999" stop-color="#25242B"/>
</linearGradient>
<linearGradient id="paint2_linear_994_37159" x1="275.532" y1="160.736" x2="244.206" y2="340.319" gradientUnits="userSpaceOnUse">
<stop stop-color="#E6BF60"/>
<stop offset="1" stop-color="#E8C35E" stop-opacity="0"/>
</linearGradient>
<linearGradient id="paint3_linear_994_37159" x1="14.5714" y1="242.161" x2="-74.8717" y2="39.4188" gradientUnits="userSpaceOnUse">
<stop offset="0.029378" stop-color="#2C3045"/>
<stop offset="1" stop-color="#6371AA"/>
</linearGradient>
<linearGradient id="paint4_linear_994_37159" x1="75.3799" y1="-66.7173" x2="319.925" y2="279.193" gradientUnits="userSpaceOnUse">
<stop stop-color="#121830"/>
<stop offset="0.9999" stop-color="#25242B"/>
</linearGradient>
<linearGradient id="paint5_linear_994_37159" x1="63.6444" y1="142.901" x2="64.0005" y2="143.662" gradientUnits="userSpaceOnUse">
<stop stop-color="#FCD87C"/>
<stop offset="1" stop-color="#F8DE9F"/>
</linearGradient>
<linearGradient id="paint6_linear_994_37159" x1="63.6444" y1="140.969" x2="64.0005" y2="141.73" gradientUnits="userSpaceOnUse">
<stop stop-color="#90B4FF"/>
<stop offset="1" stop-color="#93B0F7"/>
</linearGradient>
<linearGradient id="paint7_linear_994_37159" x1="63.6444" y1="140.969" x2="64.0005" y2="141.73" gradientUnits="userSpaceOnUse">
<stop stop-color="#FCD87C"/>
<stop offset="1" stop-color="#F8DE9F"/>
</linearGradient>
<linearGradient id="paint8_linear_994_37159" x1="63.6444" y1="139.038" x2="64.0005" y2="139.798" gradientUnits="userSpaceOnUse">
<stop stop-color="#90B4FF"/>
<stop offset="1" stop-color="#93B0F7"/>
</linearGradient>
<linearGradient id="paint9_linear_994_37159" x1="63.6444" y1="139.038" x2="64.0005" y2="139.798" gradientUnits="userSpaceOnUse">
<stop stop-color="#FCD87C"/>
<stop offset="1" stop-color="#F8DE9F"/>
</linearGradient>
<linearGradient id="paint10_linear_994_37159" x1="63.6444" y1="137.106" x2="64.0005" y2="137.867" gradientUnits="userSpaceOnUse">
<stop stop-color="#90B4FF"/>
<stop offset="1" stop-color="#93B0F7"/>
</linearGradient>
<linearGradient id="paint11_linear_994_37159" x1="63.6444" y1="137.106" x2="64.0005" y2="137.867" gradientUnits="userSpaceOnUse">
<stop stop-color="#FCD87C"/>
<stop offset="1" stop-color="#F8DE9F"/>
</linearGradient>
<linearGradient id="paint12_linear_994_37159" x1="123.532" y1="46.1502" x2="165.082" y2="158.775" gradientUnits="userSpaceOnUse">
<stop stop-color="#E9C058"/>
<stop offset="1" stop-color="#FEDA80"/>
</linearGradient>
</defs>
</svg>
