<svg width="35" height="35" viewBox="0 0 35 35" fill="none" xmlns="http://www.w3.org/2000/svg">
<circle cx="17.5" cy="17.5" r="17.5" fill="#3F7BDD" fill-opacity="0.12"/>
<path d="M7.08464 16.0423C7.08464 15.1569 7.34922 14.4843 7.87839 14.0246C8.40825 13.5642 9.01172 13.334 9.6888 13.334C10.1402 13.334 10.5784 13.434 11.0034 13.634C11.4291 13.8333 11.7808 14.1413 12.0586 14.5579C12.3016 14.9399 12.6141 15.2479 12.9961 15.4819C13.378 15.7166 13.786 15.8774 14.2201 15.9642L14.3763 15.6517C14.4284 15.5475 14.4891 15.452 14.5586 15.3652L13.6992 12.9694C13.5951 12.6743 13.5082 12.3878 13.4388 12.11C13.3694 11.8322 13.3346 11.5458 13.3346 11.2507C13.3346 10.1569 13.8121 9.18884 14.7669 8.34648C15.7218 7.50482 17.1194 7.08398 18.9596 7.08398C19.8451 7.08398 20.518 7.34891 20.9784 7.87878C21.4381 8.40794 21.668 9.00239 21.668 9.66211C21.668 10.1135 21.5683 10.5562 21.369 10.9902C21.169 11.4243 20.8607 11.7802 20.444 12.0579C20.0621 12.301 19.7541 12.6135 19.5201 12.9954C19.2853 13.3774 19.1246 13.7854 19.0378 14.2194L19.3503 14.3757C19.4544 14.4277 19.5499 14.4885 19.6367 14.5579L22.0326 13.6986C22.3277 13.5944 22.6141 13.5076 22.8919 13.4382C23.1697 13.3687 23.4475 13.334 23.7253 13.334C24.8364 13.334 25.8131 13.8114 26.6555 14.7663C27.4971 15.7211 27.918 17.1187 27.918 18.959C27.918 19.8444 27.6534 20.5173 27.1242 20.9777C26.5944 21.4375 25.9996 21.6673 25.3398 21.6673C24.8885 21.6673 24.4457 21.5677 24.0117 21.3684C23.5777 21.1684 23.2218 20.86 22.944 20.4434C22.701 20.0614 22.3885 19.7534 22.0065 19.5194C21.6246 19.2847 21.2166 19.1239 20.7826 19.0371L20.6263 19.3496C20.5742 19.4538 20.5135 19.5493 20.444 19.6361L21.3294 22.0319C21.4336 22.327 21.5162 22.6093 21.5773 22.8788C21.6378 23.1475 21.668 23.4295 21.668 23.7246C21.668 25.1309 21.0864 26.1812 19.9232 26.8757C18.76 27.5701 17.4666 27.9173 16.043 27.9173C15.1576 27.9173 14.485 27.6395 14.0253 27.084C13.5648 26.5284 13.3346 25.9121 13.3346 25.235C13.3346 24.801 13.4346 24.3798 13.6346 23.9715C13.8339 23.5638 14.1419 23.2211 14.5586 22.9434C14.9405 22.7003 15.2485 22.3878 15.4826 22.0059C15.7173 21.6239 15.878 21.2159 15.9648 20.7819L15.6523 20.6257C15.5482 20.5736 15.4527 20.5128 15.3659 20.4434L12.9701 21.3027C12.6923 21.4069 12.4273 21.4937 12.1753 21.5632C11.9239 21.6326 11.6593 21.6673 11.3815 21.6673C10.253 21.6847 9.25477 21.2159 8.38672 20.2611C7.51866 19.3062 7.08464 17.9 7.08464 16.0423ZM15.9388 17.5007C15.9388 17.9347 16.0909 18.3034 16.3951 18.6069C16.6985 18.9111 17.0673 19.0632 17.5013 19.0632C17.9353 19.0632 18.3041 18.9111 18.6076 18.6069C18.9117 18.3034 19.0638 17.9347 19.0638 17.5007C19.0638 17.0666 18.9117 16.6979 18.6076 16.3944C18.3041 16.0902 17.9353 15.9382 17.5013 15.9382C17.0673 15.9382 16.6985 16.0902 16.3951 16.3944C16.0909 16.6979 15.9388 17.0666 15.9388 17.5007Z" fill="#3F7BDD"/>
<path d="M7.08464 16.0423C7.08464 15.1569 7.34922 14.4843 7.87839 14.0246C8.40825 13.5642 9.01172 13.334 9.6888 13.334C10.1402 13.334 10.5784 13.434 11.0034 13.634C11.4291 13.8333 11.7808 14.1413 12.0586 14.5579C12.3016 14.9399 12.6141 15.2479 12.9961 15.4819C13.378 15.7166 13.786 15.8774 14.2201 15.9642L14.3763 15.6517C14.4284 15.5475 14.4891 15.452 14.5586 15.3652L13.6992 12.9694C13.5951 12.6743 13.5082 12.3878 13.4388 12.11C13.3694 11.8322 13.3346 11.5458 13.3346 11.2507C13.3346 10.1569 13.8121 9.18884 14.7669 8.34648C15.7218 7.50482 17.1194 7.08398 18.9596 7.08398C19.8451 7.08398 20.518 7.34891 20.9784 7.87878C21.4381 8.40794 21.668 9.00239 21.668 9.66211C21.668 10.1135 21.5683 10.5562 21.369 10.9902C21.169 11.4243 20.8607 11.7802 20.444 12.0579C20.0621 12.301 19.7541 12.6135 19.5201 12.9954C19.2853 13.3774 19.1246 13.7854 19.0378 14.2194L19.3503 14.3757C19.4544 14.4277 19.5499 14.4885 19.6367 14.5579L22.0326 13.6986C22.3277 13.5944 22.6141 13.5076 22.8919 13.4382C23.1697 13.3687 23.4475 13.334 23.7253 13.334C24.8364 13.334 25.8131 13.8114 26.6555 14.7663C27.4971 15.7211 27.918 17.1187 27.918 18.959C27.918 19.8444 27.6534 20.5173 27.1242 20.9777C26.5944 21.4375 25.9996 21.6673 25.3398 21.6673C24.8885 21.6673 24.4457 21.5677 24.0117 21.3684C23.5777 21.1684 23.2218 20.86 22.944 20.4434C22.701 20.0614 22.3885 19.7534 22.0065 19.5194C21.6246 19.2847 21.2166 19.1239 20.7826 19.0371L20.6263 19.3496C20.5742 19.4538 20.5135 19.5493 20.444 19.6361L21.3294 22.0319C21.4336 22.327 21.5162 22.6093 21.5773 22.8788C21.6378 23.1475 21.668 23.4295 21.668 23.7246C21.668 25.1309 21.0864 26.1812 19.9232 26.8757C18.76 27.5701 17.4666 27.9173 16.043 27.9173C15.1576 27.9173 14.485 27.6395 14.0253 27.084C13.5648 26.5284 13.3346 25.9121 13.3346 25.235C13.3346 24.801 13.4346 24.3798 13.6346 23.9715C13.8339 23.5638 14.1419 23.2211 14.5586 22.9434C14.9405 22.7003 15.2485 22.3878 15.4826 22.0059C15.7173 21.6239 15.878 21.2159 15.9648 20.7819L15.6523 20.6257C15.5482 20.5736 15.4527 20.5128 15.3659 20.4434L12.9701 21.3027C12.6923 21.4069 12.4273 21.4937 12.1753 21.5632C11.9239 21.6326 11.6593 21.6673 11.3815 21.6673C10.253 21.6847 9.25477 21.2159 8.38672 20.2611C7.51866 19.3062 7.08464 17.9 7.08464 16.0423ZM15.9388 17.5007C15.9388 17.9347 16.0909 18.3034 16.3951 18.6069C16.6985 18.9111 17.0673 19.0632 17.5013 19.0632C17.9353 19.0632 18.3041 18.9111 18.6076 18.6069C18.9117 18.3034 19.0638 17.9347 19.0638 17.5007C19.0638 17.0666 18.9117 16.6979 18.6076 16.3944C18.3041 16.0902 17.9353 15.9382 17.5013 15.9382C17.0673 15.9382 16.6985 16.0902 16.3951 16.3944C16.0909 16.6979 15.9388 17.0666 15.9388 17.5007Z" fill="url(#paint0_linear_3301_470)"/>
<defs>
<linearGradient id="paint0_linear_3301_470" x1="-4.92517" y1="10.3261" x2="-2.98358" y2="29.2513" gradientUnits="userSpaceOnUse">
<stop stop-color="#3F7BDD"/>
<stop offset="1" stop-color="#4282EC"/>
</linearGradient>
</defs>
</svg>
