<svg width="87" height="22" viewBox="0 0 87 22" fill="none" xmlns="http://www.w3.org/2000/svg">
<g id="vc-logo 1" clip-path="url(#clip0_1053_13213)">
<path id="Vector" d="M31.32 17.6171C27.666 17.6171 25.0125 14.6347 25.0125 10.9505C25.0125 7.26624 27.6225 4.10835 31.4505 4.10835C33.147 4.10835 34.365 4.50308 35.409 5.16098V8.40659H38.5845V3.66975L37.932 3.18729C36.192 1.82765 33.5385 1.08203 31.32 1.08203C25.8825 1.08203 21.489 5.51186 21.489 10.9505C21.489 16.389 25.8825 20.8189 31.32 20.8189C34.713 20.8189 37.236 19.4154 39.15 16.9592L36.627 15.0294C35.3655 16.6522 33.408 17.6171 31.32 17.6171ZM84.564 17.4417L84.39 12.8803V1.78379H77.865V4.98554H81.1275V12.5294C81.1275 15.775 78.648 18.0996 76.212 18.0996C73.776 18.0996 72.4275 16.3452 72.4275 13.0996V1.78379H66.294V4.98554H69.1215V13.5382C69.1215 18.0119 71.5575 21.082 75.9075 21.082C78.387 21.082 80.301 19.6785 81.432 17.4417H81.4755L81.9105 20.5119H87V17.4417H84.564ZM10.614 15.4241H10.527L5.829 1.52063H0V4.72238H3.306L8.961 20.5996H11.9625L17.835 4.72238H20.88V1.52063H15.399L10.614 15.4241ZM41.586 20.5557H44.805V17.3101H41.586V20.5557ZM54.027 5.468L53.8095 1.78379H47.9805V4.67852H51.069V17.4417H47.9805V20.5119H62.292V17.4855H54.375V9.8101C54.723 7.00308 56.811 4.63466 59.595 4.63466H59.6385L59.595 7.48554H62.727V1.73993H60.2475C57.42 1.73993 55.2885 3.27501 54.027 5.468Z" fill="black"/>
</g>
<defs>
<clipPath id="clip0_1053_13213">
<rect width="87" height="21.75" fill="white" transform="translate(0 0.125)"/>
</clipPath>
</defs>
</svg>
