<svg width="72" height="18" viewBox="0 0 72 18" fill="none" xmlns="http://www.w3.org/2000/svg">
<g id="vc-logo 1" clip-path="url(#clip0_1053_13476)">
<path id="Vector" d="M24.5775 14.4789C21.7935 14.4789 19.7718 12.1122 19.7718 9.18855C19.7718 6.26493 21.7604 3.75897 24.6769 3.75897C25.9695 3.75897 26.8975 4.07221 27.6929 4.59429V7.16986H30.1123V3.41092L29.6152 3.02806C28.2895 1.94911 26.2678 1.35742 24.5775 1.35742C20.4347 1.35742 17.0873 4.87273 17.0873 9.18855C17.0873 13.5044 20.4347 17.0197 24.5775 17.0197C27.1626 17.0197 29.0849 15.9059 30.5432 13.9568L28.6209 12.4254C27.6598 13.7132 26.1683 14.4789 24.5775 14.4789ZM65.144 14.3397L65.0114 10.72V1.9143H60.0401V4.45507H62.5258V10.4415C62.5258 13.0171 60.6366 14.8618 58.7806 14.8618C56.9247 14.8618 55.8972 13.4696 55.8972 10.894V1.9143H51.2241V4.45507H53.3784V11.2421C53.3784 14.7922 55.2344 17.2285 58.5486 17.2285C60.4378 17.2285 61.896 16.1148 62.7578 14.3397H62.7909L63.1223 16.7761H67V14.3397H65.144ZM8.80163 12.7387H8.73535L5.15595 1.70547H0.714844V4.24624H3.23368L7.54221 16.8457H9.82905L14.3033 4.24624H16.6233V1.70547H12.4473L8.80163 12.7387ZM32.3991 16.8109H34.8517V14.2353H32.3991V16.8109ZM41.8779 4.83793L41.7122 1.9143H37.2711V4.21143H39.6242V14.3397H37.2711V16.7761H48.175V14.3745H42.1431V8.28362C42.4082 6.0561 43.9991 4.17663 46.1202 4.17663H46.1533L46.1202 6.43896H48.5064V1.8795H46.6173C44.463 1.8795 42.8391 3.09767 41.8779 4.83793Z" fill="black"/>
</g>
<defs>
<clipPath id="clip0_1053_13476">
<rect width="71" height="18" fill="white" transform="translate(0.714844)"/>
</clipPath>
</defs>
</svg>
