<svg width="32" height="32" viewBox="0 0 32 32" fill="none" xmlns="http://www.w3.org/2000/svg">
    <path
        d="M2.66699 15.1998C2.66699 13.6555 2.9893 13.3332 4.53366 13.3332H27.467C29.0113 13.3332 29.3337 13.6555 29.3337 15.1998V16.7998C29.3337 18.3442 29.0113 18.6665 27.467 18.6665H4.53366C2.9893 18.6665 2.66699 18.3442 2.66699 16.7998V15.1998Z"
        stroke="#98A2B3" stroke-width="2" stroke-linecap="round"/>
    <path
        d="M2.66699 4.53317C2.66699 2.98881 2.9893 2.6665 4.53366 2.6665H27.467C29.0113 2.6665 29.3337 2.98881 29.3337 4.53317V6.13317C29.3337 7.67753 29.0113 7.99984 27.467 7.99984H4.53366C2.9893 7.99984 2.66699 7.67753 2.66699 6.13317V4.53317Z"
        stroke="#98A2B3" stroke-width="2" stroke-linecap="round"/>
    <path
        d="M2.66699 25.8665C2.66699 24.3221 2.9893 23.9998 4.53366 23.9998H27.467C29.0113 23.9998 29.3337 24.3221 29.3337 25.8665V27.4665C29.3337 29.0109 29.0113 29.3332 27.467 29.3332H4.53366C2.9893 29.3332 2.66699 29.0109 2.66699 27.4665V25.8665Z"
        stroke="#98A2B3" stroke-width="2" stroke-linecap="round"/>
</svg>
