<svg width="32" height="32" viewBox="0 0 32 32" fill="none" xmlns="http://www.w3.org/2000/svg">
    <path
        d="M26.667 11.9998C25.6068 6.6859 20.6841 2.6665 14.7727 2.6665C8.08764 2.6665 2.66699 7.80679 2.66699 14.1466C2.66699 17.1926 3.91791 19.9603 5.95839 22.0142C6.40765 22.4665 6.7076 23.0843 6.58654 23.7202C6.38676 24.7599 5.934 25.7298 5.27106 26.5381C7.01529 26.8597 8.82895 26.5701 10.3843 25.7502C10.9342 25.4603 11.2091 25.3154 11.4031 25.286C11.5389 25.2655 11.7158 25.2847 12.0003 25.3335M14.667 21.6821C14.667 25.5564 17.9507 28.6977 22.0003 28.6977C22.4765 28.6983 22.9513 28.6543 23.419 28.5664C23.7557 28.5032 23.924 28.4716 24.0415 28.4895C24.1591 28.5075 24.3256 28.5961 24.6587 28.7732C25.6009 29.2743 26.6996 29.4512 27.7562 29.2547C27.3546 28.7607 27.0803 28.1681 26.9593 27.5327C26.886 27.1441 27.0677 26.7665 27.3398 26.4901C28.5759 25.235 29.3337 23.5436 29.3337 21.6821C29.3337 17.8078 26.05 14.6665 22.0003 14.6665C17.9507 14.6665 14.667 17.8078 14.667 21.6821Z" stroke-width="2" stroke-linecap="round" stroke-linejoin="round"/>
</svg>
