<svg width="32" height="32" viewBox="0 0 32 32" fill="none" xmlns="http://www.w3.org/2000/svg">
    <path
        d="M16.0003 2.6665V5.33317M28.0003 6.6665L26.0003 8.6665M4.00028 6.6665L6.00028 8.6665M16.0003 29.3332C20.8059 29.3332 25.0848 26.2058 27.8366 23.5717C29.8327 21.6609 29.8327 18.3388 27.8366 16.428C25.0848 13.7939 20.8059 10.6665 16.0003 10.6665C11.1947 10.6665 6.91581 13.7939 4.16407 16.428C2.16797 18.3388 2.16797 21.6609 4.16407 23.5717C6.91581 26.2058 11.1947 29.3332 16.0003 29.3332ZM20.0003 19.9998C20.0003 22.209 18.2094 23.9998 16.0003 23.9998C13.7911 23.9998 12.0003 22.209 12.0003 19.9998C12.0003 17.7907 13.7911 15.9998 16.0003 15.9998C18.2094 15.9998 20.0003 17.7907 20.0003 19.9998Z"
        stroke="#98A2B3" stroke-width="2" stroke-linecap="round"/>
</svg>
