<svg width="32" height="32" viewBox="0 0 32 32" fill="none" xmlns="http://www.w3.org/2000/svg">
    <path
        d="M20.773 16C20.773 18.64 18.6396 20.7733 15.9996 20.7733C13.3596 20.7733 11.2263 18.64 11.2263 16C11.2263 13.36 13.3596 11.2267 15.9996 11.2267C18.6396 11.2267 20.773 13.36 20.773 16Z"
        stroke="#98A2B3" stroke-width="2" stroke-linecap="round" stroke-linejoin="round"/>
    <path
        d="M16.0049 26.66C20.5552 26.66 24.7961 23.9788 27.748 19.3383C28.9081 17.5208 28.9081 14.4658 27.748 12.6483C24.7961 8.00783 20.5552 5.32666 16.0049 5.32666C11.4545 5.32666 7.2136 8.00783 4.2617 12.6483C3.10157 14.4658 3.10157 17.5208 4.2617 19.3383C7.2136 23.9788 11.4545 26.66 16.0049 26.66Z"
        stroke="#98A2B3" stroke-width="2" stroke-linecap="round" stroke-linejoin="round"/>
</svg>

