<svg width="32" height="32" viewBox="0 0 32 32" fill="none" xmlns="http://www.w3.org/2000/svg">
    <path
        d="M19.3737 12.6267L12.627 19.3734M19.3737 12.6267C18.479 11.7321 17.2656 11.2295 16.0003 11.2295C15.3738 11.2295 14.7535 11.3529 14.1747 11.5926C13.5959 11.8324 13.07 12.1838 12.627 12.6267C12.184 13.0697 11.8326 13.5956 11.5929 14.1744C11.3531 14.7532 11.2297 15.3736 11.2297 16.0001C11.2297 17.2653 11.7323 18.4787 12.627 19.3734M19.3737 12.6267L29.3337 2.66675M12.627 19.3734L2.66699 29.3334M23.7603 7.69341C21.427 5.93341 18.7603 4.97341 16.0003 4.97341C11.2937 4.97341 6.90699 7.74675 3.85366 12.5467C2.65366 14.4267 2.65366 17.5867 3.85366 19.4667C4.90699 21.1201 6.13366 22.5467 7.46699 23.6934M11.227 26.0401C12.747 26.6801 14.3603 27.0267 16.0003 27.0267C20.707 27.0267 25.0937 24.2534 28.147 19.4534C29.347 17.5734 29.347 14.4134 28.147 12.5334C27.707 11.8401 27.227 11.1867 26.7337 10.5734M20.6803 16.9334C20.4997 17.8635 20.0452 18.7184 19.3753 19.3884C18.7053 20.0583 17.8504 20.5128 16.9203 20.6934"
        stroke="#98A2B3" stroke-width="2" stroke-linecap="round" stroke-linejoin="round"/>
</svg>
