<svg width="32" height="32" viewBox="0 0 32 32" fill="none" xmlns="http://www.w3.org/2000/svg">
    <path
        d="M2.66699 23.9998C2.66699 21.9459 2.66699 20.919 3.1293 20.1645C3.38798 19.7424 3.7429 19.3875 4.16504 19.1288C4.91945 18.6665 5.94641 18.6665 8.00033 18.6665C10.0542 18.6665 11.0812 18.6665 11.8356 19.1288C12.2578 19.3875 12.6127 19.7424 12.8714 20.1645C13.3337 20.919 13.3337 21.9459 13.3337 23.9998C13.3337 26.0538 13.3337 27.0807 12.8714 27.8351C12.6127 28.2573 12.2578 28.6122 11.8356 28.8709C11.0812 29.3332 10.0542 29.3332 8.00033 29.3332C5.94641 29.3332 4.91945 29.3332 4.16504 28.8709C3.7429 28.6122 3.38798 28.2573 3.1293 27.8351C2.66699 27.0807 2.66699 26.0538 2.66699 23.9998Z"
        stroke="#98A2B3" stroke-width="2"/>
    <path
        d="M18.667 23.9998C18.667 21.9459 18.667 20.919 19.1293 20.1645C19.388 19.7424 19.7429 19.3875 20.165 19.1288C20.9194 18.6665 21.9464 18.6665 24.0003 18.6665C26.0542 18.6665 27.0812 18.6665 27.8356 19.1288C28.2578 19.3875 28.6127 19.7424 28.8714 20.1645C29.3337 20.919 29.3337 21.9459 29.3337 23.9998C29.3337 26.0538 29.3337 27.0807 28.8714 27.8351C28.6127 28.2573 28.2578 28.6122 27.8356 28.8709C27.0812 29.3332 26.0542 29.3332 24.0003 29.3332C21.9464 29.3332 20.9194 29.3332 20.165 28.8709C19.7429 28.6122 19.388 28.2573 19.1293 27.8351C18.667 27.0807 18.667 26.0538 18.667 23.9998Z"
        stroke="#98A2B3" stroke-width="2"/>
    <path
        d="M2.66699 7.99984C2.66699 5.94592 2.66699 4.91896 3.1293 4.16455C3.38798 3.74241 3.7429 3.38749 4.16504 3.12881C4.91945 2.6665 5.94641 2.6665 8.00033 2.6665C10.0542 2.6665 11.0812 2.6665 11.8356 3.12881C12.2578 3.38749 12.6127 3.74241 12.8714 4.16455C13.3337 4.91896 13.3337 5.94592 13.3337 7.99984C13.3337 10.0538 13.3337 11.0807 12.8714 11.8351C12.6127 12.2573 12.2578 12.6122 11.8356 12.8709C11.0812 13.3332 10.0542 13.3332 8.00033 13.3332C5.94641 13.3332 4.91945 13.3332 4.16504 12.8709C3.7429 12.6122 3.38798 12.2573 3.1293 11.8351C2.66699 11.0807 2.66699 10.0538 2.66699 7.99984Z"
        stroke="#98A2B3" stroke-width="2"/>
    <path
        d="M18.667 7.99984C18.667 5.94592 18.667 4.91896 19.1293 4.16455C19.388 3.74241 19.7429 3.38749 20.165 3.12881C20.9194 2.6665 21.9464 2.6665 24.0003 2.6665C26.0542 2.6665 27.0812 2.6665 27.8356 3.12881C28.2578 3.38749 28.6127 3.74241 28.8714 4.16455C29.3337 4.91896 29.3337 5.94592 29.3337 7.99984C29.3337 10.0538 29.3337 11.0807 28.8714 11.8351C28.6127 12.2573 28.2578 12.6122 27.8356 12.8709C27.0812 13.3332 26.0542 13.3332 24.0003 13.3332C21.9464 13.3332 20.9194 13.3332 20.165 12.8709C19.7429 12.6122 19.388 12.2573 19.1293 11.8351C18.667 11.0807 18.667 10.0538 18.667 7.99984Z"
        stroke="#98A2B3" stroke-width="2"/>
</svg>
