<svg width="32" height="32" viewBox="0 0 32 32" xmlns="http://www.w3.org/2000/svg">
    <path
        d="M15.3205 22.6663C15.3205 23.2186 15.7682 23.6663 16.3205 23.6663C16.8728 23.6663 17.3205 23.2186 17.3205 22.6663H15.3205ZM14.9872 13.6663C14.4349 13.6663 13.9872 14.114 13.9872 14.6663C13.9872 15.2186 14.4349 15.6663 14.9872 15.6663V13.6663ZM16.1252 14.8616L16.8324 14.1545L16.1252 14.8616ZM15.9869 9.66632C15.4346 9.66632 14.9869 10.114 14.9869 10.6663C14.9869 11.2186 15.4346 11.6663 15.9869 11.6663V9.66632ZM15.9989 11.6663C16.5512 11.6663 16.9989 11.2186 16.9989 10.6663C16.9989 10.114 16.5512 9.66632 15.9989 9.66632V11.6663ZM15.9977 27.6666C12.9839 27.6666 10.8241 27.6645 9.18158 27.4436C7.56781 27.2267 6.60388 26.8152 5.89315 26.1045L4.47894 27.5187C5.6232 28.663 7.07954 29.179 8.91509 29.4258C10.7219 29.6687 13.0404 29.6666 15.9977 29.6666V27.6666ZM2.33105 15.9999C2.33105 18.9572 2.32893 21.2758 2.57185 23.0826C2.81863 24.9181 3.33467 26.3744 4.47894 27.5187L5.89315 26.1045C5.18243 25.3938 4.77098 24.4298 4.55401 22.8161C4.33318 21.1735 4.33105 19.0137 4.33105 15.9999H2.33105ZM27.6644 15.9999C27.6644 19.0138 27.6623 21.1735 27.4414 22.8161C27.2245 24.4298 26.813 25.3938 26.1023 26.1045L27.5165 27.5187C28.6608 26.3744 29.1768 24.9181 29.4236 23.0826C29.6665 21.2758 29.6644 18.9572 29.6644 15.9999H27.6644ZM15.9977 29.6666C18.955 29.6666 21.2736 29.6687 23.0804 29.4258C24.9159 29.179 26.3722 28.663 27.5165 27.5187L26.1023 26.1045C25.3916 26.8152 24.4276 27.2267 22.8139 27.4436C21.1713 27.6645 19.0116 27.6666 15.9977 27.6666V29.6666ZM15.9977 4.33325C19.0116 4.33325 21.1713 4.33538 22.8139 4.55621C24.4276 4.77317 25.3916 5.18462 26.1023 5.89535L27.5165 4.48114C26.3722 3.33687 24.9159 2.82083 23.0804 2.57404C21.2736 2.33113 18.955 2.33325 15.9977 2.33325V4.33325ZM29.6644 15.9999C29.6644 13.0426 29.6665 10.7241 29.4236 8.91728C29.1768 7.08174 28.6608 5.6254 27.5165 4.48114L26.1023 5.89535C26.813 6.60607 27.2245 7.57001 27.4414 9.18378C27.6623 10.8263 27.6644 12.9861 27.6644 15.9999H29.6644ZM15.9977 2.33325C13.0404 2.33325 10.7219 2.33113 8.91509 2.57404C7.07954 2.82083 5.6232 3.33687 4.47894 4.48114L5.89315 5.89535C6.60388 5.18462 7.56781 4.77317 9.18158 4.55621C10.8241 4.33538 12.9839 4.33325 15.9977 4.33325V2.33325ZM4.33105 15.9999C4.33105 12.9861 4.33318 10.8263 4.55401 9.18378C4.77098 7.57001 5.18243 6.60608 5.89315 5.89535L4.47894 4.48114C3.33467 5.6254 2.81863 7.08174 2.57185 8.91728C2.32893 10.7241 2.33105 13.0426 2.33105 15.9999H4.33105ZM15.3205 15.9997V22.6663H17.3205V15.9997H15.3205ZM14.9872 15.6663C15.148 15.6663 15.2718 15.6664 15.3775 15.6691C15.4837 15.6717 15.5468 15.6766 15.5854 15.6818C15.6234 15.6869 15.6107 15.689 15.573 15.6735C15.5273 15.6547 15.4699 15.6205 15.4181 15.5687L16.8324 14.1545C16.518 13.8401 16.1444 13.739 15.8519 13.6996C15.5883 13.6642 15.2732 13.6663 14.9872 13.6663V15.6663ZM17.3205 15.9997C17.3205 15.7137 17.3226 15.3986 17.2872 15.1349C17.2479 14.8425 17.1468 14.4689 16.8324 14.1545L15.4181 15.5687C15.3663 15.5169 15.3321 15.4596 15.3133 15.4139C15.2978 15.3762 15.2999 15.3634 15.305 15.4014C15.3102 15.44 15.3151 15.5032 15.3178 15.6094C15.3204 15.715 15.3205 15.8388 15.3205 15.9997H17.3205ZM15.9869 11.6663H15.9989V9.66632H15.9869V11.6663Z" />
</svg>
