<svg width="32" height="32" viewBox="0 0 32 32" fill="none" xmlns="http://www.w3.org/2000/svg">
    <path
        d="M29.3337 16.6668C29.3337 16.0117 29.3267 14.6897 29.3126 14.0326C29.2255 9.94523 29.1819 7.90154 27.6737 6.38763C26.1656 4.87372 24.0666 4.82098 19.8686 4.71551C17.2813 4.6505 14.7194 4.6505 12.1321 4.7155C7.9341 4.82097 5.8351 4.8737 4.32693 6.38761C2.81876 7.90152 2.77517 9.94521 2.68801 14.0326C2.65999 15.3468 2.65999 16.6533 2.68801 17.9676C2.77518 22.055 2.81876 24.0986 4.32693 25.6126C5.83511 27.1265 7.9341 27.1792 12.1321 27.2847C13.2024 27.3116 14.2684 27.3273 15.3337 27.332M3.24308 8.15768L11.8844 13.2329C15.2519 15.1447 16.7488 15.1447 20.1163 13.2329L28.7576 8.15768M29.3337 23.3334H18.667M29.3337 23.3334C29.3337 22.3998 26.6746 20.6555 26.0003 20.0001M29.3337 23.3334C29.3337 24.2671 26.6746 26.0114 26.0003 26.6667"
        stroke="#98A2B3" stroke-width="2" stroke-linecap="round" stroke-linejoin="round"/>
</svg>
