<svg width="32" height="32" viewBox="0 0 32 32" fill="none" xmlns="http://www.w3.org/2000/svg">
    <path
        d="M2.667 7.99986L11.8844 13.2225C15.2825 15.1479 16.7182 15.1479 20.1163 13.2225L29.3337 7.99986M12.1321 4.71525C14.7194 4.65025 17.2813 4.65025 19.8686 4.71526C24.0666 4.82074 26.1656 4.87348 27.6737 6.38739C29.1819 7.9013 29.2255 9.94498 29.3126 14.0324C29.3407 15.3466 29.3407 16.6531 29.3126 17.9673C29.2255 22.0547 29.1819 24.0984 27.6737 25.6123C26.1656 27.1262 24.0666 27.179 19.8686 27.2844C17.2813 27.3494 14.7194 27.3494 12.1321 27.2844C7.9341 27.179 5.83511 27.1262 4.32693 25.6123C2.81876 24.0984 2.77518 22.0547 2.68801 17.9673C2.65999 16.6531 2.65999 15.3466 2.68801 14.0323C2.77517 9.94497 2.81876 7.90128 4.32693 6.38737C5.8351 4.87346 7.9341 4.82072 12.1321 4.71525Z"
        stroke="#98A2B3" stroke-width="2" stroke-linejoin="round"/>
</svg>
