<svg width="32" height="32" viewBox="0 0 32 32" fill="none" xmlns="http://www.w3.org/2000/svg">
    <path
        d="M9.86825 22.5901L12.6283 25.3507M25.3484 19.5175C24.1766 20.6866 22.7079 21.5136 21.1007 21.9091C19.4934 22.3046 17.8088 22.2538 16.2283 21.762L10.5763 27.4031C10.1683 27.8232 9.36424 28.0752 8.78824 27.9912L6.1722 27.6312C5.30819 27.5111 4.50418 26.695 4.37218 25.8308L4.01218 23.2143C3.92817 22.6381 4.20418 21.834 4.60018 21.4259L10.2403 15.7847C9.28024 12.6641 10.0243 9.12337 12.4963 6.66287C16.0363 3.12214 21.7844 3.12214 25.3364 6.66287C28.8885 10.2036 28.8885 15.9768 25.3484 19.5175ZM18.995 14.8006C19.4724 14.8006 19.9302 14.6109 20.2678 14.2733C20.6054 13.9357 20.795 13.4777 20.795 13.0002C20.795 12.5228 20.6054 12.0648 20.2678 11.7272C19.9302 11.3896 19.4724 11.1999 18.995 11.1999C18.5176 11.1999 18.0598 11.3896 17.7222 11.7272C17.3846 12.0648 17.195 12.5228 17.195 13.0002C17.195 13.4777 17.3846 13.9357 17.7222 14.2733C18.0598 14.6109 18.5176 14.8006 18.995 14.8006Z"
        stroke="#98A2B3" stroke-width="2" stroke-linecap="round" stroke-linejoin="round"/>
</svg>
