<svg width="32" height="32" viewBox="0 0 32 32" fill="none" xmlns="http://www.w3.org/2000/svg">
    <path
        d="M8.92501 17.3088L8.34602 16.4934L8.34602 16.4934L8.92501 17.3088ZM6.32083 19.1581L5.74184 18.3427H5.74184L6.32083 19.1581ZM23.0756 17.3088L22.4967 18.1241L22.4967 18.1241L23.0756 17.3088ZM25.6798 19.1581L26.2588 18.3427V18.3427L25.6798 19.1581ZM27.2859 28.4218L26.5328 27.7639L27.2859 28.4218ZM27.7125 21.0425L28.6156 20.6131L28.6156 20.613L27.7125 21.0425ZM20.7465 16.2113L21.0039 15.245L20.7465 16.2113ZM4.71473 28.4218L5.46785 27.7639L4.71473 28.4218ZM4.28812 21.0425L5.1912 21.472L5.1912 21.472L4.28812 21.0425ZM11.2541 16.2113L10.9968 15.245L10.9968 15.245L11.2541 16.2113ZM2.70175 12.2068L1.70714 12.3105L2.70175 12.2068ZM5.10226 6.80607L4.55752 5.96747L5.10226 6.80607ZM4.30818 13.2727L4.57593 14.2362H4.57593L4.30818 13.2727ZM9.28052 4.9303L9.00598 3.96872V3.96872L9.28052 4.9303ZM8.62865 9.73179L7.63774 9.59726L8.62865 9.73179ZM6.1598 12.7515L6.44417 13.7102H6.44417L6.1598 12.7515ZM29.2989 12.2068L30.2935 12.3105L29.2989 12.2068ZM26.8984 6.80607L27.4431 5.96747L26.8984 6.80607ZM27.6925 13.2727L27.4247 14.2362L27.6925 13.2727ZM22.7201 4.9303L22.9947 3.96872V3.96872L22.7201 4.9303ZM23.372 9.73179L24.3629 9.59726L23.372 9.73179ZM25.8408 12.7515L25.5565 13.7102L25.8408 12.7515ZM8.34602 16.4934L5.74184 18.3427L6.89982 19.9734L9.504 18.1241L8.34602 16.4934ZM22.4967 18.1241L25.1008 19.9734L26.2588 18.3427L23.6546 16.4934L22.4967 18.1241ZM9.21143 30.3274H22.7892V28.3274H9.21143V30.3274ZM27.0003 23.7766C27.0003 25.0777 26.9986 25.9633 26.9182 26.6296C26.8403 27.2751 26.7023 27.5699 26.5328 27.7639L28.039 29.0797C28.584 28.4559 28.8031 27.7038 28.9038 26.8691C29.002 26.0552 29.0003 25.0271 29.0003 23.7766H27.0003ZM29.0003 23.7766C29.0003 22.4556 29.0234 21.4705 28.6156 20.6131L26.8095 21.472C26.9773 21.8249 27.0003 22.259 27.0003 23.7766H29.0003ZM3.00033 23.7766C3.00033 25.0271 2.99861 26.0552 3.09683 26.8691C3.19754 27.7038 3.41669 28.4559 3.96161 29.0797L5.46785 27.7639C5.29836 27.5699 5.16032 27.2751 5.08243 26.6296C5.00204 25.9633 5.00033 25.0777 5.00033 23.7766H3.00033ZM5.00033 23.7766C5.00033 22.259 5.02337 21.8249 5.1912 21.472L3.38503 20.6131C2.97728 21.4705 3.00033 22.4556 3.00033 23.7766H5.00033ZM10.9968 15.245C10.0302 15.5024 9.17673 15.9035 8.34602 16.4934L9.50399 18.1241C10.1425 17.6707 10.7785 17.3728 11.5114 17.1776L10.9968 15.245ZM11.5114 17.1776C12.1204 17.0155 12.7107 16.7288 13.1258 16.1763C13.5369 15.6293 13.667 14.9665 13.667 14.2814H11.667C11.667 14.7341 11.5784 14.9063 11.5269 14.9749C11.4795 15.0379 11.3634 15.1473 10.9968 15.245L11.5114 17.1776ZM23.6546 16.4934C22.8306 15.9083 21.9782 15.5044 21.0039 15.245L20.4892 17.1776C21.2279 17.3743 21.8632 17.6743 22.4967 18.1241L23.6546 16.4934ZM21.0039 15.245C20.6373 15.1473 20.5211 15.0379 20.4737 14.9749C20.4222 14.9063 20.3337 14.7341 20.3337 14.2814H18.3337C18.3337 14.9665 18.4637 15.6293 18.8748 16.1763C19.29 16.7288 19.8803 17.0155 20.4892 17.1776L21.0039 15.245ZM25.1008 19.9734C26.3506 20.8609 26.639 21.1135 26.8095 21.472L28.6156 20.613C28.1743 19.6851 27.3658 19.1288 26.2588 18.3427L25.1008 19.9734ZM5.74184 18.3427C4.63491 19.1288 3.82633 19.6851 3.38503 20.6131L5.1912 21.472C5.36168 21.1135 5.65007 20.8609 6.89982 19.9734L5.74184 18.3427ZM22.7892 30.3274C23.4436 30.3274 24.432 30.3506 25.352 30.2388C26.2217 30.133 27.3419 29.8778 28.039 29.0797L26.5328 27.7639C26.3646 27.9565 25.9273 28.154 25.1105 28.2534C24.3439 28.3466 23.5166 28.3274 22.7892 28.3274V30.3274ZM9.21143 28.3274C8.46549 28.3274 7.66311 28.3596 6.90044 28.2722C6.1059 28.1811 5.66166 27.9858 5.46785 27.7639L3.96161 29.0797C4.67884 29.9008 5.79205 30.1582 6.67265 30.2592C7.58511 30.3638 8.57555 30.3274 9.21143 30.3274V28.3274ZM20.3337 14.2814C20.3337 13.0676 19.6733 12.1911 18.8067 11.6709C17.976 11.1722 16.9417 10.9795 15.9773 11.0017C15.0106 11.024 13.9938 11.2647 13.1844 11.7631C12.3608 12.2701 11.667 13.1121 11.667 14.2814H13.667C13.667 14.0075 13.8065 13.7287 14.2329 13.4662C14.6735 13.1949 15.3234 13.0173 16.0234 13.0012C16.7256 12.985 17.3579 13.1339 17.7773 13.3856C18.1607 13.6158 18.3337 13.8985 18.3337 14.2814H20.3337ZM17.667 22.6667C17.667 23.5871 16.9208 24.3333 16.0003 24.3333V26.3333C18.0254 26.3333 19.667 24.6917 19.667 22.6667H17.667ZM16.0003 24.3333C15.0799 24.3333 14.3337 23.5871 14.3337 22.6667H12.3337C12.3337 24.6917 13.9753 26.3333 16.0003 26.3333V24.3333ZM14.3337 22.6667C14.3337 21.7462 15.0799 21 16.0003 21V19C13.9753 19 12.3337 20.6416 12.3337 22.6667H14.3337ZM16.0003 21C16.9208 21 17.667 21.7462 17.667 22.6667H19.667C19.667 20.6416 18.0254 19 16.0003 19V21ZM3.69637 12.1032C3.51207 10.3347 4.18892 8.59181 5.647 7.64468L4.55752 5.96747C2.35356 7.39911 1.4604 9.94273 1.70714 12.3105L3.69637 12.1032ZM4.04043 12.3093C3.85733 12.3601 3.78242 12.3161 3.77478 12.3112C3.76788 12.3068 3.75674 12.2982 3.74336 12.2749C3.72926 12.2504 3.70622 12.1978 3.69637 12.1032L1.70714 12.3105C1.77954 13.0053 2.1141 13.6212 2.69323 13.9935C3.26261 14.3596 3.94537 14.4115 4.57593 14.2362L4.04043 12.3093ZM5.647 7.64468C6.72384 6.94519 7.89704 6.36525 9.55505 5.89188L9.00598 3.96872C7.14815 4.49914 5.79372 5.16446 4.55752 5.96747L5.647 7.64468ZM9.61956 9.86632L10.2714 5.06483L8.28961 4.79577L7.63774 9.59726L9.61956 9.86632ZM5.87543 11.7928C5.27215 11.9718 4.66799 12.1349 4.04043 12.3093L4.57593 14.2362C5.1847 14.0671 5.81885 13.8957 6.44417 13.7102L5.87543 11.7928ZM30.2935 12.3105C30.5403 9.94273 29.6471 7.39911 27.4431 5.96747L26.3537 7.64468C27.8117 8.59181 28.4886 10.3347 28.3043 12.1032L30.2935 12.3105ZM27.4247 14.2362C28.0553 14.4115 28.738 14.3596 29.3074 13.9935C29.8865 13.6212 30.2211 13.0053 30.2935 12.3105L28.3043 12.1032C28.2944 12.1978 28.2714 12.2504 28.2573 12.2749C28.2439 12.2982 28.2328 12.3068 28.2259 12.3112C28.2182 12.3161 28.1433 12.3601 27.9602 12.3093L27.4247 14.2362ZM27.4431 5.96747C26.2069 5.16446 24.8525 4.49914 22.9947 3.96872L22.4456 5.89188C24.1036 6.36525 25.2768 6.94519 26.3537 7.64468L27.4431 5.96747ZM24.3629 9.59726L23.711 4.79577L21.7292 5.06483L22.3811 9.86632L24.3629 9.59726ZM25.5565 13.7102C26.1818 13.8957 26.816 14.0671 27.4247 14.2362L27.9602 12.3093C27.3327 12.1349 26.7285 11.9718 26.1252 11.7928L25.5565 13.7102ZM7.63774 9.59726C7.51565 10.4965 7.37159 10.8808 7.18902 11.1123C7.02167 11.3246 6.71162 11.5448 5.87543 11.7928L6.44417 13.7102C7.40458 13.4254 8.20412 13.0552 8.75962 12.3506C9.29991 11.6653 9.49197 10.8061 9.61956 9.86632L7.63774 9.59726ZM22.3811 9.86632C22.5087 10.8061 22.7007 11.6653 23.241 12.3506C23.7965 13.0552 24.5961 13.4254 25.5565 13.7102L26.1252 11.7928C25.289 11.5448 24.979 11.3246 24.8116 11.1123C24.6291 10.8808 24.485 10.4965 24.3629 9.59726L22.3811 9.86632ZM22.9947 3.96872C18.4706 2.67709 13.53 2.67709 9.00598 3.96872L9.55505 5.89188C13.7202 4.70271 18.2804 4.70271 22.4456 5.89188L22.9947 3.96872Z"
        fill="#98A2B3"/>
</svg>
