<svg width="32" height="32" viewBox="0 0 32 32" fill="none" xmlns="http://www.w3.org/2000/svg">
    <path
        d="M2.66699 16.0002C2.66699 12.2665 2.66699 10.3996 3.39362 8.97356C4.03277 7.71915 5.05264 6.69928 6.30706 6.06012C7.73313 5.3335 9.59998 5.3335 13.3337 5.3335H18.667C22.4007 5.3335 24.2675 5.3335 25.6936 6.06012C26.948 6.69928 27.9679 7.71915 28.607 8.97356C29.3337 10.3996 29.3337 12.2665 29.3337 16.0002C29.3337 19.7338 29.3337 21.6007 28.607 23.0268C27.9679 24.2812 26.948 25.301 25.6936 25.9402C24.2675 26.6668 22.4007 26.6668 18.667 26.6668H13.3337C9.59998 26.6668 7.73313 26.6668 6.30706 25.9402C5.05264 25.301 4.03277 24.2812 3.39362 23.0268C2.66699 21.6007 2.66699 19.7338 2.66699 16.0002Z"
        stroke="#98A2B3" stroke-width="2" stroke-linejoin="round"/>
</svg>
