<svg width="32" height="32" viewBox="0 0 32 32" fill="none" xmlns="http://www.w3.org/2000/svg">
    <path
        d="M18.667 18.6665L22.0003 21.9998M28.756 28.7555C27.9858 29.5257 26.737 29.5257 25.9668 28.7555L21.9113 24.7001C21.1411 23.9298 21.1411 22.6811 21.9113 21.9108C22.6816 21.1406 23.9303 21.1406 24.7006 21.9108L28.756 25.9663C29.5262 26.7365 29.5262 27.9853 28.756 28.7555ZM21.3337 11.9998C21.3337 6.84518 17.155 2.6665 12.0003 2.6665C6.84567 2.6665 2.66699 6.84518 2.66699 11.9998C2.66699 17.1545 6.84567 21.3332 12.0003 21.3332C17.155 21.3332 21.3337 17.1545 21.3337 11.9998Z"
        stroke="#98A2B3" stroke-width="2" stroke-linejoin="round"/>
</svg>
