<svg width="32" height="32" viewBox="0 0 32 32" xmlns="http://www.w3.org/2000/svg">
    <path
        d="M4.62028 27.0795L3.94328 27.8155L4.62028 27.0795ZM2.75129 23.7724L3.73032 23.5687L2.75129 23.7724ZM24.9047 12.9105L24.0341 13.4025L24.9047 12.9105ZM29.2494 23.7724L28.2703 23.5687L29.2494 23.7724ZM27.3804 27.0795L26.7034 26.3435L27.3804 27.0795ZM17.8693 3.63567L18.1843 2.68659L17.8693 3.63567ZM14.1313 3.63567L13.8163 2.68659L14.1313 3.63567ZM15.9897 20.3333C15.4374 20.3333 14.9897 20.781 14.9897 21.3333C14.9897 21.8855 15.4374 22.3333 15.9897 22.3333V20.3333ZM16.0016 22.3333C16.5539 22.3333 17.0016 21.8855 17.0016 21.3333C17.0016 20.781 16.5539 20.3333 16.0016 20.3333V22.3333ZM15.0003 17.3333C15.0003 17.8855 15.448 18.3333 16.0003 18.3333C16.5526 18.3333 17.0003 17.8855 17.0003 17.3333H15.0003ZM17.0003 11.9999C17.0003 11.4476 16.5526 10.9999 16.0003 10.9999C15.448 10.9999 15.0003 11.4476 15.0003 11.9999H17.0003ZM16.0003 27.6666C12.7585 27.6666 10.4096 27.6652 8.65171 27.4741C6.89168 27.2827 5.92053 26.9168 5.29728 26.3435L3.94328 27.8155C5.04537 28.8293 6.54601 29.2569 8.43555 29.4623C10.3272 29.668 12.8057 29.6666 16.0003 29.6666V27.6666ZM6.22535 12.4185C4.62744 15.2459 3.38865 17.4353 2.61853 19.2086C1.84965 20.979 1.46672 22.5076 1.77226 23.9761L3.73032 23.5687C3.55316 22.7172 3.73343 21.6621 4.453 20.0052C5.17132 18.3512 6.3462 16.2696 7.96653 13.4025L6.22535 12.4185ZM5.29728 26.3435C4.50371 25.6136 3.9538 24.6428 3.73032 23.5687L1.77226 23.9761C2.07989 25.4547 2.83848 26.7992 3.94328 27.8155L5.29728 26.3435ZM24.0341 13.4025C25.6544 16.2696 26.8293 18.3512 27.5477 20.0052C28.2672 21.6621 28.4475 22.7172 28.2703 23.5687L30.2284 23.9761C30.5339 22.5076 30.151 20.979 29.3821 19.2086C28.612 17.4353 27.3732 15.2459 25.7753 12.4185L24.0341 13.4025ZM16.0003 29.6666C19.1949 29.6666 21.6734 29.668 23.5651 29.4623C25.4546 29.2569 26.9553 28.8293 28.0574 27.8155L26.7034 26.3435C26.0801 26.9168 25.109 27.2827 23.3489 27.4741C21.591 27.6652 19.2422 27.6666 16.0003 27.6666V29.6666ZM28.2703 23.5687C28.0468 24.6428 27.4969 25.6136 26.7034 26.3435L28.0574 27.8155C29.1622 26.7992 29.9208 25.4547 30.2284 23.9761L28.2703 23.5687ZM25.7753 12.4185C24.1775 9.59122 22.9409 7.40028 21.8224 5.83185C20.7075 4.26847 19.5977 3.15575 18.1843 2.68659L17.5543 4.58475C18.3489 4.84852 19.1478 5.52592 20.194 6.99307C21.2367 8.45516 22.4137 10.5352 24.0341 13.4025L25.7753 12.4185ZM7.96653 13.4025C9.58697 10.5352 10.764 8.45516 11.8066 6.99307C12.8529 5.52592 13.6517 4.84852 14.4464 4.58475L13.8163 2.68659C12.4029 3.15575 11.2932 4.26847 10.1783 5.83185C9.05979 7.40028 7.82314 9.59122 6.22535 12.4185L7.96653 13.4025ZM18.1843 2.68659C16.7651 2.21547 15.2356 2.21547 13.8163 2.68659L14.4464 4.58475C15.4566 4.24942 16.5441 4.24942 17.5543 4.58475L18.1843 2.68659ZM15.9897 22.3333H16.0016V20.3333H15.9897V22.3333ZM17.0003 17.3333V11.9999H15.0003V17.3333H17.0003Z"
    />
</svg>
