<svg width="28" height="28" viewBox="0 0 28 28" fill="none" xmlns="http://www.w3.org/2000/svg">
<path d="M23.8176 2.0152C23.6338 2.04705 23.4353 2.11075 23.2735 2.18671C23.1583 2.24062 23.0162 2.35823 22.6706 2.68411C22.0628 3.25256 20.4894 4.806 17.8523 7.43753L15.6662 9.61823L15.5608 9.60108C14.7593 9.47366 13.877 9.60843 13.159 9.96861C12.2448 10.4268 11.588 11.1668 11.2179 12.1591C11.0561 12.5952 11.0194 12.8305 11.0194 13.47C11.0169 14.0041 11.0218 14.0482 11.088 14.3276C11.2081 14.8421 11.3797 15.2415 11.6541 15.6482C12.1321 16.3637 12.8747 16.915 13.7521 17.2066C14.1319 17.334 14.4456 17.3658 15.1343 17.3462C15.676 17.3291 15.8622 17.2972 16.2421 17.1502C16.8303 16.9223 17.2445 16.6553 17.6734 16.2289C18.1415 15.7609 18.4503 15.2488 18.6586 14.5971C18.7787 14.2197 18.8081 13.9502 18.791 13.3401C18.7762 12.806 18.7664 12.7325 18.6586 12.3478L18.5924 12.1077L19.6953 11.0002C25.3714 5.29604 25.3812 5.28624 25.6827 4.8795C25.8591 4.64673 25.918 4.50462 25.9694 4.21794C26.065 3.674 25.9351 3.15945 25.5993 2.72821C25.3543 2.41703 24.9915 2.17201 24.6068 2.0642C24.4009 2.00785 23.999 1.98089 23.8176 2.0152Z" fill="#99ACD3"/>
<path d="M13.578 3.37752C11.6223 3.63724 9.7376 4.48012 8.2622 5.74933C6.68387 7.1092 5.57365 8.91502 5.06388 10.9462C4.84085 11.843 4.79429 12.2645 4.79184 13.4087C4.79184 14.357 4.80654 14.5554 4.91683 15.1361C5.15211 16.3661 5.57855 17.5202 6.1741 18.5346C6.28439 18.7208 6.37262 18.8801 6.37262 18.8874C6.37262 18.8948 5.581 19.7033 4.61047 20.681C3.6424 21.6611 2.7552 22.5676 2.63756 22.6951C2.11308 23.2758 2.0028 23.5208 2.00034 24.1162C1.99789 24.371 2.0077 24.4543 2.05671 24.6062C2.22337 25.1404 2.57139 25.5569 3.05175 25.7946C3.41692 25.9759 3.75023 26.0347 4.11786 25.9808C4.55656 25.9146 4.78693 25.797 5.23298 25.4025C5.45846 25.2016 6.34076 24.3342 8.28916 22.4035L9.03912 21.6586L9.36753 21.8718C9.74005 22.1168 10.6371 22.5676 11.1885 22.7882C12.8722 23.462 14.7495 23.6457 16.6514 23.3174C17.7224 23.1361 18.9527 22.6828 19.9232 22.1143C22.8275 20.4163 24.7146 17.3315 24.9058 13.9747C24.9352 13.4553 24.9058 12.4458 24.8494 12.1224C24.6901 11.1864 23.9083 10.5175 22.9794 10.5175C22.6731 10.5175 22.4598 10.5616 22.2172 10.6743C21.6609 10.9315 21.2908 11.3775 21.1609 11.9508C21.1143 12.1591 21.1094 12.3453 21.1266 13.3352C21.1339 13.9061 21.1119 14.1928 21.0139 14.6706C20.656 16.4396 19.5164 17.998 17.9234 18.8948C17.3327 19.2255 16.5141 19.5098 15.8181 19.6225C15.4921 19.6739 14.4775 19.696 14.1123 19.6592C13.6246 19.6078 12.9016 19.4167 12.4016 19.2035C10.5488 18.4194 9.23273 16.8831 8.72541 14.9156C8.59552 14.4084 8.56611 14.1291 8.56611 13.3597C8.56856 12.5854 8.58571 12.4335 8.73766 11.8528C8.97294 10.9487 9.36998 10.1548 9.94102 9.43936C10.1542 9.17474 10.6371 8.69204 10.9066 8.47643C11.8649 7.70951 13.1148 7.20721 14.3427 7.0994C14.7814 7.06265 14.975 7.00874 15.2593 6.85193C15.8524 6.52605 16.2249 5.89144 16.2249 5.21273C16.2249 4.71044 16.0558 4.28165 15.7176 3.92392C15.4382 3.62989 15.1319 3.45347 14.7495 3.37507C14.5339 3.32851 13.931 3.33096 13.578 3.37752Z" fill="#99ACD3"/>
</svg>
