<svg width="41" height="41" viewBox="0 0 41 41" fill="none" xmlns="http://www.w3.org/2000/svg">
<ellipse cx="20.0129" cy="20.0131" rx="20.0129" ry="20.0131" fill="#F7F2F2"/>
<ellipse cx="20.0129" cy="20.0131" rx="20.0129" ry="20.0131" fill="url(#paint0_radial_3301_510)" fill-opacity="0.7"/>
<path d="M14 17.0005L20 20.7505L26 17.0005L20 13.2505L14 17.0005ZM27.5 17.0005V24.5005C27.5 24.8983 27.342 25.2798 27.0607 25.5611C26.7794 25.8424 26.3978 26.0005 26 26.0005H14C13.6022 26.0005 13.2206 25.8424 12.9393 25.5611C12.658 25.2798 12.5 24.8983 12.5 24.5005V17.0005C12.5 16.453 12.7925 15.9805 13.2275 15.718L20 11.4805L26.7725 15.718C27.2075 15.9805 27.5 16.453 27.5 17.0005Z" fill="url(#paint1_linear_3301_510)"/>
<defs>
<radialGradient id="paint0_radial_3301_510" cx="0" cy="0" r="1" gradientUnits="userSpaceOnUse" gradientTransform="translate(12.7952 7.87402) rotate(55.9681) scale(30.4835 30.4834)">
<stop stop-color="white"/>
<stop offset="0.697917" stop-color="white" stop-opacity="0"/>
<stop offset="1" stop-color="white" stop-opacity="0"/>
</radialGradient>
<linearGradient id="paint1_linear_3301_510" x1="20" y1="11" x2="10.5" y2="37.5" gradientUnits="userSpaceOnUse">
<stop stop-color="#E3BEBE"/>
<stop offset="1" stop-color="#E3BEBE" stop-opacity="0"/>
</linearGradient>
</defs>
</svg>
