<svg width="41" height="41" viewBox="0 0 41 41" fill="none" xmlns="http://www.w3.org/2000/svg">
<ellipse cx="20.0129" cy="20.0131" rx="20.0129" ry="20.0131" fill="#F7F2F2"/>
<ellipse cx="20.0129" cy="20.0131" rx="20.0129" ry="20.0131" fill="url(#paint0_radial_3301_515)" fill-opacity="0.7"/>
<path d="M26.993 23.5718C26.869 24.5186 26.4054 25.388 25.6885 26.0186C24.9715 26.6491 24.05 26.9979 23.0952 27C17.5288 27 13 22.4712 13 16.9048C13.0021 15.95 13.3509 15.0285 13.9814 14.3115C14.612 13.5946 15.4814 13.131 16.4282 13.007C16.6695 12.9802 16.9131 13.031 17.1236 13.152C17.3341 13.273 17.5006 13.458 17.5989 13.68L19.008 16.9679C19.0811 17.1386 19.1104 17.3248 19.0933 17.5097C19.0762 17.6945 19.0131 17.8722 18.9099 18.0265L17.7461 19.8072C18.2731 20.8766 19.1414 21.74 20.2138 22.2609L21.9735 21.0901C22.1276 20.9862 22.3057 20.9233 22.491 20.9074C22.6762 20.8914 22.8624 20.9229 23.0321 20.999L26.32 22.4011C26.542 22.4994 26.727 22.6659 26.848 22.8764C26.969 23.0869 27.0198 23.3305 26.993 23.5718V23.5718Z" fill="url(#paint1_linear_3301_515)"/>
<defs>
<radialGradient id="paint0_radial_3301_515" cx="0" cy="0" r="1" gradientUnits="userSpaceOnUse" gradientTransform="translate(12.7952 7.87402) rotate(55.9681) scale(30.4835 30.4834)">
<stop stop-color="white"/>
<stop offset="0.697917" stop-color="white" stop-opacity="0"/>
<stop offset="1" stop-color="white" stop-opacity="0"/>
</radialGradient>
<linearGradient id="paint1_linear_3301_515" x1="20" y1="12.5367" x2="10.6093" y2="37.8936" gradientUnits="userSpaceOnUse">
<stop stop-color="#E3BEBE"/>
<stop offset="1" stop-color="#E3BEBE" stop-opacity="0"/>
</linearGradient>
</defs>
</svg>
