<svg width="188" height="277" viewBox="0 0 188 277" fill="none" xmlns="http://www.w3.org/2000/svg">
<path d="M135.64 89.5189C111.086 89.5189 89.7884 94.6172 76.684 101.838C76.3215 102.039 75.5227 102.423 75.1836 102.646C79.0989 100.814 83.7676 99.4233 88.1362 98.8872H88.1596C89.7664 98.6853 91.3952 98.5963 93.0255 98.5963C93.7938 98.5963 94.5408 98.6188 95.2878 98.6629C103.662 99.1331 111.628 102.151 118.124 107.181C118.169 107.204 118.214 107.226 118.26 107.271C118.328 107.316 118.35 107.361 118.396 107.405C121.564 109.887 124.37 112.882 126.702 116.281L127.358 117.242L127.425 117.354H127.449L142.883 139.958C150.352 150.89 165.334 153.752 176.379 146.374C183.305 141.768 187.016 134.256 187.016 126.61C187.016 122.027 185.682 117.376 182.874 113.285C172.735 98.4176 155.762 89.5189 137.633 89.5189H135.64Z" fill="url(#paint0_linear_893_35183)"/>
<path d="M74.2591 10.9715L20.9554 89.2611L14.7505 98.3769L12.169 102.172L4.72057 113.128C3.54234 114.856 2.63595 116.697 1.95669 118.583C0.507324 122.624 0.236899 126.913 1.0283 130.999C1.97941 136.007 4.53888 140.699 8.547 144.291C9.38525 145.032 10.2668 145.728 11.2179 146.357C22.2692 153.766 37.281 150.892 44.7536 139.913C44.7536 139.913 57.0952 119.706 62.5513 113.801C62.8686 113.442 63.2086 113.083 63.5705 112.723C66.9214 108.75 71.0211 105.494 75.5715 103.091C76.0485 102.844 77.9265 101.835 78.2892 101.633C91.4003 94.381 112.709 89.2611 137.275 89.2611H79.2404L94.639 66.6519L114.316 37.7561C117.101 33.6482 118.437 29.0005 118.437 24.3754C118.437 16.6748 114.723 9.13045 107.795 4.50531C103.763 1.81129 99.1894 0.486832 94.639 0.441788C94.4999 0.43898 94.3629 0.438263 94.2238 0.438263C86.5078 0.438263 78.9075 4.13445 74.2591 10.9715Z" fill="url(#paint1_linear_893_35183)"/>
<path d="M33.5875 198.654V212.883C33.5875 216.942 32.2248 219.924 29.4995 221.831C26.7741 223.689 22.4457 224.619 16.514 224.619C5.66614 224.619 0.242188 220.853 0.242188 213.323C0.242188 209.509 1.57814 206.722 4.25003 204.962C6.97537 203.152 11.0901 202.248 16.5942 202.248H25.4115V198.654C25.4115 196.6 24.6633 195.158 23.1671 194.326C21.7242 193.495 19.3195 193.08 15.9529 193.08C12.7467 193.08 9.94118 193.3 7.53647 193.74C6.36083 193.935 5.55926 193.886 5.13176 193.593C4.75769 193.251 4.57066 192.517 4.57066 191.393V190.366C4.57066 189.29 4.75769 188.557 5.13176 188.165C5.55926 187.725 6.33411 187.407 7.45631 187.212C10.2885 186.821 12.9604 186.625 15.472 186.625C21.5639 186.625 26.1062 187.579 29.0987 189.486C32.0912 191.393 33.5875 194.449 33.5875 198.654ZM25.4115 212.516V207.969H16.5942C13.8154 207.969 11.7581 208.385 10.4221 209.216C9.13961 209.998 8.49835 211.318 8.49835 213.176C8.49835 214.986 9.13961 216.281 10.4221 217.064C11.7046 217.846 13.6818 218.237 16.3537 218.237C19.6134 218.237 21.938 217.822 23.3274 216.99C24.7168 216.159 25.4115 214.668 25.4115 212.516Z" fill="white"/>
<path d="M41.3013 213.543V175.77C41.3013 174.45 41.5418 173.569 42.0227 173.129C42.5037 172.689 43.4656 172.469 44.9084 172.469H45.9504C47.3932 172.469 48.3551 172.689 48.8361 173.129C49.317 173.569 49.5575 174.45 49.5575 175.77V212.076C49.5575 213.983 49.8514 215.328 50.4392 216.11C51.027 216.893 51.9889 217.284 53.3248 217.284C54.6608 217.284 55.4891 217.455 55.8097 217.797C56.1838 218.14 56.3708 218.946 56.3708 220.218V220.951C56.3708 222.125 56.1571 222.932 55.7296 223.372C55.3021 223.763 54.4203 224.081 53.0844 224.325C52.9241 224.374 52.55 224.398 51.9622 224.398C48.5956 224.398 45.9771 223.494 44.1068 221.685C42.2365 219.827 41.3013 217.113 41.3013 213.543Z" fill="white"/>
<path d="M61.4132 213.543V175.77C61.4132 174.45 61.6537 173.569 62.1346 173.129C62.6155 172.689 63.5774 172.469 65.0203 172.469H66.0623C67.5051 172.469 68.467 172.689 68.9479 173.129C69.4289 173.569 69.6694 174.45 69.6694 175.77V212.076C69.6694 213.983 69.9633 215.328 70.5511 216.11C71.1389 216.893 72.1008 217.284 73.4367 217.284C74.7727 217.284 75.601 217.455 75.9216 217.797C76.2957 218.14 76.4827 218.946 76.4827 220.218V220.951C76.4827 222.125 76.2689 222.932 75.8414 223.372C75.4139 223.763 74.5322 224.081 73.1963 224.325C73.0359 224.374 72.6619 224.398 72.0741 224.398C68.7075 224.398 66.089 223.494 64.2187 221.685C62.3484 219.827 61.4132 217.113 61.4132 213.543Z" fill="white"/>
<path d="M81.6854 208.922V175.77C81.6854 174.45 81.9258 173.569 82.4068 173.129C82.8877 172.689 83.8496 172.469 85.2924 172.469H86.2543C87.6971 172.469 88.659 172.689 89.14 173.129C89.6209 173.569 89.8614 174.45 89.8614 175.77V191.393C92.0523 188.214 95.98 186.625 101.644 186.625C112.76 186.625 118.317 191.955 118.317 202.615V208.922C118.317 219.386 112.198 224.619 99.9612 224.619C94.083 224.619 89.5675 223.298 86.4146 220.658C83.2618 217.968 81.6854 214.057 81.6854 208.922ZM110.061 208.776V202.468C110.061 199.241 109.313 196.967 107.817 195.647C106.374 194.326 103.782 193.666 100.041 193.666C96.2472 193.666 93.602 194.326 92.1058 195.647C90.6095 196.967 89.8614 199.241 89.8614 202.468V208.776C89.8614 211.954 90.6095 214.203 92.1058 215.524C93.602 216.844 96.2472 217.504 100.041 217.504C103.835 217.504 106.454 216.868 107.897 215.597C109.34 214.277 110.061 212.003 110.061 208.776Z" fill="white"/>
<path d="M122.695 191.906V191.173C122.695 190.146 122.882 189.437 123.256 189.046C123.63 188.654 124.352 188.361 125.42 188.165L129.669 187.432L130.631 180.537C130.791 179.462 131.085 178.753 131.512 178.41C131.94 178.068 132.741 177.897 133.917 177.897H134.959C136.135 177.897 136.91 178.068 137.284 178.41C137.658 178.753 137.845 179.462 137.845 180.537V187.432H149.067C150.403 187.432 151.284 187.627 151.712 188.019C152.193 188.41 152.433 189.241 152.433 190.512V191.393C152.433 192.664 152.193 193.495 151.712 193.886C151.284 194.278 150.403 194.473 149.067 194.473H137.845V211.123C137.845 215.377 139.929 217.504 144.097 217.504C146.502 217.504 148.666 217.284 150.59 216.844C151.926 216.599 152.807 216.648 153.235 216.99C153.662 217.333 153.876 218.14 153.876 219.411V220.291C153.876 221.514 153.662 222.369 153.235 222.858C152.807 223.347 151.926 223.714 150.59 223.958C148.132 224.35 145.967 224.545 144.097 224.545C134.478 224.545 129.669 220.047 129.669 211.049V194.473H125.501C124.378 194.473 123.63 194.302 123.256 193.96C122.882 193.617 122.695 192.933 122.695 191.906Z" fill="white"/>
<path d="M158.754 209.216V202.028C158.754 197.089 160.33 193.3 163.483 190.659C166.689 187.97 171.285 186.625 177.27 186.625C179.461 186.625 181.545 186.87 183.522 187.359C184.858 187.652 185.713 188.043 186.087 188.532C186.515 188.972 186.729 189.803 186.729 191.026V191.979C186.729 193.251 186.488 194.058 186.007 194.4C185.526 194.742 184.644 194.742 183.362 194.4C181.919 193.911 179.942 193.666 177.43 193.666C173.583 193.666 170.884 194.302 169.334 195.573C167.785 196.845 167.01 199.021 167.01 202.101V208.996C167.01 212.174 167.811 214.399 169.415 215.67C171.071 216.893 173.93 217.504 177.991 217.504C179.541 217.504 181.598 217.284 184.163 216.844C185.446 216.599 186.301 216.648 186.729 216.99C187.209 217.333 187.45 218.115 187.45 219.338V220.218C187.45 221.391 187.209 222.223 186.729 222.712C186.301 223.2 185.419 223.592 184.083 223.885C181.999 224.374 179.835 224.619 177.591 224.619C165.033 224.619 158.754 219.484 158.754 209.216Z" fill="white"/>
<path d="M48.4199 274.623V252.164C48.4199 248.662 49.3816 246.011 51.3051 244.21C53.2617 242.409 56.0806 241.509 59.7616 241.509C63.6085 241.509 66.4605 242.376 68.3177 244.11C70.208 245.844 71.1531 248.529 71.1531 252.164V256.515C71.1531 263.785 67.7042 267.42 60.8063 267.42C57.291 267.42 54.8535 266.336 53.4938 264.169V274.623C53.4938 275.524 53.3446 276.124 53.0461 276.424C52.7477 276.724 52.1507 276.874 51.2554 276.874H50.6584C49.763 276.874 49.1661 276.724 48.8676 276.424C48.5692 276.124 48.4199 275.524 48.4199 274.623ZM66.0294 256.615V252.314C66.0294 250.113 65.5817 248.562 64.6863 247.662C63.7909 246.761 62.1659 246.311 59.8114 246.311C57.4568 246.311 55.8153 246.761 54.8867 247.662C53.9581 248.562 53.4938 250.113 53.4938 252.314V256.615C53.4938 258.783 53.9581 260.317 54.8867 261.217C55.8153 262.118 57.4568 262.568 59.8114 262.568C62.1659 262.568 63.7909 262.135 64.6863 261.267C65.5817 260.367 66.0294 258.816 66.0294 256.615Z" fill="url(#paint2_linear_893_35183)"/>
<path d="M93.0216 256.615V252.314C93.0216 250.113 92.5573 248.562 91.6287 247.662C90.7333 246.761 89.1249 246.311 86.8035 246.311C84.449 246.311 82.8074 246.761 81.8788 247.662C80.9503 248.562 80.486 250.113 80.486 252.314V256.615C80.486 258.783 80.9503 260.317 81.8788 261.217C82.8074 262.118 84.449 262.568 86.8035 262.568C89.1581 262.568 90.7831 262.135 91.6785 261.267C92.5739 260.367 93.0216 258.816 93.0216 256.615ZM86.8035 267.42C82.8903 267.42 80.0051 266.536 78.148 264.769C76.2909 263.002 75.3623 260.284 75.3623 256.615V252.314C75.3623 245.11 79.1761 241.509 86.8035 241.509C90.6836 241.509 93.5356 242.409 95.3596 244.21C97.2167 245.978 98.1452 248.679 98.1452 252.314V256.615C98.1452 260.15 97.1835 262.835 95.2601 264.669C93.3698 266.503 90.5509 267.42 86.8035 267.42Z" fill="url(#paint3_linear_893_35183)"/>
<path d="M120.028 256.615V252.314C120.028 250.113 119.563 248.562 118.635 247.662C117.739 246.761 116.131 246.311 113.81 246.311C111.455 246.311 109.814 246.761 108.885 247.662C107.956 248.562 107.492 250.113 107.492 252.314V256.615C107.492 258.783 107.956 260.317 108.885 261.217C109.814 262.118 111.455 262.568 113.81 262.568C116.164 262.568 117.789 262.135 118.685 261.267C119.58 260.367 120.028 258.816 120.028 256.615ZM113.81 267.42C109.896 267.42 107.011 266.536 105.154 264.769C103.297 263.002 102.368 260.284 102.368 256.615V252.314C102.368 245.11 106.182 241.509 113.81 241.509C117.69 241.509 120.542 242.409 122.366 244.21C124.223 245.978 125.151 248.679 125.151 252.314V256.615C125.151 260.15 124.19 262.835 122.266 264.669C120.376 266.503 117.557 267.42 113.81 267.42Z" fill="url(#paint4_linear_893_35183)"/>
<path d="M129.922 259.867V234.106C129.922 233.205 130.071 232.605 130.369 232.305C130.668 232.005 131.265 231.855 132.16 231.855H132.807C133.702 231.855 134.299 232.005 134.598 232.305C134.896 232.605 135.045 233.205 135.045 234.106V258.866C135.045 260.167 135.228 261.084 135.593 261.618C135.957 262.151 136.554 262.418 137.383 262.418C138.213 262.418 138.727 262.535 138.926 262.768C139.158 263.002 139.274 263.552 139.274 264.419V264.919C139.274 265.719 139.141 266.27 138.876 266.57C138.61 266.837 138.063 267.053 137.234 267.22C137.135 267.253 136.903 267.27 136.538 267.27C134.449 267.27 132.824 266.653 131.663 265.419C130.502 264.152 129.922 262.301 129.922 259.867Z" fill="url(#paint5_linear_893_35183)"/>
<defs>
<linearGradient id="paint0_linear_893_35183" x1="46.3552" y1="86.429" x2="189.913" y2="132.89" gradientUnits="userSpaceOnUse">
<stop stop-color="#000034"/>
<stop offset="0.262356" stop-color="#000034"/>
<stop offset="0.27221" stop-color="#000034"/>
<stop offset="1" stop-color="#3F7BDD"/>
</linearGradient>
<linearGradient id="paint1_linear_893_35183" x1="113.059" y1="39.5287" x2="44.8792" y2="140.222" gradientUnits="userSpaceOnUse">
<stop stop-color="#3F7BDD"/>
<stop offset="0.568518" stop-color="#3F65B3"/>
<stop offset="1" stop-color="#3F65B3"/>
</linearGradient>
<linearGradient id="paint2_linear_893_35183" x1="123.177" y1="265.144" x2="110.858" y2="224.842" gradientUnits="userSpaceOnUse">
<stop stop-color="#3F7BDD"/>
<stop offset="0.568518" stop-color="#3F65B3"/>
<stop offset="1" stop-color="#3F65B3"/>
</linearGradient>
<linearGradient id="paint3_linear_893_35183" x1="123.177" y1="265.144" x2="110.858" y2="224.842" gradientUnits="userSpaceOnUse">
<stop stop-color="#3F7BDD"/>
<stop offset="0.568518" stop-color="#3F65B3"/>
<stop offset="1" stop-color="#3F65B3"/>
</linearGradient>
<linearGradient id="paint4_linear_893_35183" x1="123.177" y1="265.144" x2="110.858" y2="224.842" gradientUnits="userSpaceOnUse">
<stop stop-color="#3F7BDD"/>
<stop offset="0.568518" stop-color="#3F65B3"/>
<stop offset="1" stop-color="#3F65B3"/>
</linearGradient>
<linearGradient id="paint5_linear_893_35183" x1="123.177" y1="265.144" x2="110.858" y2="224.842" gradientUnits="userSpaceOnUse">
<stop stop-color="#3F7BDD"/>
<stop offset="0.568518" stop-color="#3F65B3"/>
<stop offset="1" stop-color="#3F65B3"/>
</linearGradient>
</defs>
</svg>
