<svg xmlns="http://www.w3.org/2000/svg" width="47" height="24" viewBox="0 0 47 24" fill="none">
  <path d="M0 22.1381V10.6636C0 8.87475 0.497514 7.52031 1.49254 6.60031C2.50473 5.68031 3.96296 5.22031 5.86724 5.22031C7.85729 5.22031 9.33268 5.66327 10.2934 6.5492C11.2713 7.43512 11.7602 8.8066 11.7602 10.6636V12.887C11.7602 16.601 9.97601 18.4581 6.40764 18.4581C4.58914 18.4581 3.3282 17.9044 2.62482 16.797V22.1381C2.62482 22.5981 2.54762 22.9048 2.39321 23.0581C2.23881 23.2114 1.93001 23.2881 1.46681 23.2881H1.15801C0.694804 23.2881 0.386002 23.2114 0.231601 23.0581C0.0772004 22.9048 0 22.5981 0 22.1381ZM9.10965 12.9381V10.7403C9.10965 9.61586 8.87805 8.82364 8.41485 8.36364C7.95165 7.90364 7.11102 7.67364 5.89297 7.67364C4.67492 7.67364 3.82571 7.90364 3.34535 8.36364C2.86499 8.82364 2.62482 9.61586 2.62482 10.7403V12.9381C2.62482 14.0455 2.86499 14.8292 3.34535 15.2892C3.82571 15.7492 4.67492 15.9792 5.89297 15.9792C7.11102 15.9792 7.95165 15.7577 8.41485 15.3148C8.87805 14.8548 9.10965 14.0625 9.10965 12.9381Z" fill="url(#paint0_linear_406_13344)"/>
  <path d="M23.0731 12.9381V10.7403C23.0731 9.61586 22.8329 8.82364 22.3525 8.36364C21.8893 7.90364 21.0573 7.67364 19.8564 7.67364C18.6383 7.67364 17.7891 7.90364 17.3088 8.36364C16.8284 8.82364 16.5882 9.61586 16.5882 10.7403V12.9381C16.5882 14.0455 16.8284 14.8292 17.3088 15.2892C17.7891 15.7492 18.6383 15.9792 19.8564 15.9792C21.0744 15.9792 21.9151 15.7577 22.3783 15.3148C22.8415 14.8548 23.0731 14.0625 23.0731 12.9381ZM19.8564 18.4581C17.832 18.4581 16.3395 18.0066 15.3788 17.1036C14.4181 16.2007 13.9377 14.8122 13.9377 12.9381V10.7403C13.9377 7.06031 15.9106 5.22031 19.8564 5.22031C21.8636 5.22031 23.339 5.68031 24.2826 6.60031C25.2433 7.50327 25.7236 8.88327 25.7236 10.7403V12.9381C25.7236 14.744 25.2261 16.1155 24.2311 17.0525C23.2532 17.9896 21.795 18.4581 19.8564 18.4581Z" fill="url(#paint1_linear_406_13344)"/>
  <path d="M37.0438 12.9381V10.7403C37.0438 9.61586 36.8036 8.82364 36.3232 8.36364C35.86 7.90364 35.028 7.67364 33.8271 7.67364C32.609 7.67364 31.7598 7.90364 31.2795 8.36364C30.7991 8.82364 30.5589 9.61586 30.5589 10.7403V12.9381C30.5589 14.0455 30.7991 14.8292 31.2795 15.2892C31.7598 15.7492 32.609 15.9792 33.8271 15.9792C35.0451 15.9792 35.8857 15.7577 36.3489 15.3148C36.8121 14.8548 37.0438 14.0625 37.0438 12.9381ZM33.8271 18.4581C31.8027 18.4581 30.3102 18.0066 29.3494 17.1036C28.3887 16.2007 27.9084 14.8122 27.9084 12.9381V10.7403C27.9084 7.06031 29.8813 5.22031 33.8271 5.22031C35.8343 5.22031 37.3097 5.68031 38.2532 6.60031C39.2139 7.50327 39.6943 8.88327 39.6943 10.7403V12.9381C39.6943 14.744 39.1968 16.1155 38.2018 17.0525C37.2239 17.9896 35.7657 18.4581 33.8271 18.4581Z" fill="url(#paint2_linear_406_13344)"/>
  <path d="M42.1621 14.5992V1.43809C42.1621 0.978086 42.2393 0.671419 42.3937 0.518086C42.5481 0.364753 42.8569 0.288086 43.3201 0.288086H43.6546C44.1178 0.288086 44.4267 0.364753 44.5811 0.518086C44.7355 0.671419 44.8127 0.978086 44.8127 1.43809V14.0881C44.8127 14.7525 44.907 15.221 45.0957 15.4936C45.2844 15.7662 45.5932 15.9025 46.0221 15.9025C46.451 15.9025 46.7169 15.9622 46.8199 16.0814C46.94 16.2007 47 16.4818 47 16.9248V17.1803C47 17.5892 46.9314 17.8703 46.7941 18.0236C46.6569 18.1599 46.3738 18.2707 45.9449 18.3559C45.8935 18.3729 45.7734 18.3814 45.5847 18.3814C44.5038 18.3814 43.6632 18.0662 43.0628 17.4359C42.4623 16.7885 42.1621 15.8429 42.1621 14.5992Z" fill="url(#paint3_linear_406_13344)"/>
  <defs>
    <linearGradient id="paint0_linear_406_13344" x1="38.673" y1="17.2954" x2="32.4444" y2="-3.33803" gradientUnits="userSpaceOnUse">
      <stop stop-color="#3F5E91"/>
      <stop offset="0.568518" stop-color="#3F65B3"/>
      <stop offset="1" stop-color="#3F65B3"/>
    </linearGradient>
    <linearGradient id="paint1_linear_406_13344" x1="38.673" y1="17.2954" x2="32.4444" y2="-3.33803" gradientUnits="userSpaceOnUse">
      <stop stop-color="#3F5E91"/>
      <stop offset="0.568518" stop-color="#3F65B3"/>
      <stop offset="1" stop-color="#3F65B3"/>
    </linearGradient>
    <linearGradient id="paint2_linear_406_13344" x1="38.673" y1="17.2954" x2="32.4444" y2="-3.33803" gradientUnits="userSpaceOnUse">
      <stop stop-color="#3F5E91"/>
      <stop offset="0.568518" stop-color="#3F65B3"/>
      <stop offset="1" stop-color="#3F65B3"/>
    </linearGradient>
    <linearGradient id="paint3_linear_406_13344" x1="38.673" y1="17.2954" x2="32.4444" y2="-3.33803" gradientUnits="userSpaceOnUse">
      <stop stop-color="#3F5E91"/>
      <stop offset="0.568518" stop-color="#3F65B3"/>
      <stop offset="1" stop-color="#3F65B3"/>
    </linearGradient>
  </defs>
</svg>