<svg xmlns="http://www.w3.org/2000/svg" width="97" height="27" viewBox="0 0 97 27" fill="none">
  <path d="M17.2776 13.557V20.924C17.2776 23.0253 16.5715 24.5696 15.1594 25.557C13.7473 26.519 11.5045 27 8.43112 27C2.81037 27 0 25.0506 0 21.1519C0 19.1772 0.69221 17.7342 2.07663 16.8228C3.48874 15.8861 5.62074 15.4177 8.47265 15.4177H13.0412V13.557C13.0412 12.4937 12.6536 11.7468 11.8783 11.3165C11.1307 10.8861 9.88476 10.6709 8.14039 10.6709C6.47908 10.6709 5.02544 10.7848 3.77947 11.0127C3.17032 11.1139 2.755 11.0886 2.53349 10.9367C2.33967 10.7595 2.24276 10.3797 2.24276 9.79747V9.26582C2.24276 8.70886 2.33967 8.32911 2.53349 8.12658C2.755 7.89873 3.15648 7.73418 3.73793 7.63291C5.20542 7.43038 6.58984 7.32911 7.89119 7.32911C11.0477 7.32911 13.4012 7.82279 14.9517 8.81013C16.5023 9.79747 17.2776 11.3797 17.2776 13.557ZM13.0412 20.7342V18.3797H8.47265C7.03285 18.3797 5.96685 18.5949 5.27464 19.0253C4.61012 19.4304 4.27786 20.1139 4.27786 21.0759C4.27786 22.0127 4.61012 22.6835 5.27464 23.0886C5.93916 23.4937 6.96363 23.6962 8.34805 23.6962C10.037 23.6962 11.2415 23.481 11.9614 23.0506C12.6813 22.6203 13.0412 21.8481 13.0412 20.7342Z" fill="#000034"/>
  <path d="M21.2744 21.2658V1.70886C21.2744 1.02532 21.399 0.56962 21.6482 0.341772C21.8974 0.113924 22.3958 0 23.1434 0H23.6833C24.4309 0 24.9293 0.113924 25.1785 0.341772C25.4277 0.56962 25.5523 1.02532 25.5523 1.70886V20.5063C25.5523 21.4937 25.7046 22.1899 26.0091 22.5949C26.3137 23 26.8121 23.2025 27.5043 23.2025C28.1965 23.2025 28.6257 23.2911 28.7918 23.4684C28.9856 23.6456 29.0825 24.0633 29.0825 24.7215V25.1013C29.0825 25.7089 28.9718 26.1266 28.7503 26.3544C28.5288 26.557 28.0719 26.7215 27.3797 26.8481C27.2966 26.8734 27.1028 26.8861 26.7983 26.8861C25.0539 26.8861 23.6972 26.4177 22.7281 25.481C21.759 24.519 21.2744 23.1139 21.2744 21.2658Z" fill="#000034"/>
  <path d="M31.6952 21.2658V1.70886C31.6952 1.02532 31.8198 0.56962 32.069 0.341772C32.3182 0.113924 32.8166 0 33.5642 0H34.1041C34.8517 0 35.3501 0.113924 35.5993 0.341772C35.8485 0.56962 35.9731 1.02532 35.9731 1.70886V20.5063C35.9731 21.4937 36.1253 22.1899 36.4299 22.5949C36.7345 23 37.2329 23.2025 37.9251 23.2025C38.6173 23.2025 39.0465 23.2911 39.2126 23.4684C39.4064 23.6456 39.5033 24.0633 39.5033 24.7215V25.1013C39.5033 25.7089 39.3926 26.1266 39.1711 26.3544C38.9496 26.557 38.4927 26.7215 37.8005 26.8481C37.7174 26.8734 37.5236 26.8861 37.219 26.8861C35.4747 26.8861 34.1179 26.4177 33.1488 25.481C32.1798 24.519 31.6952 23.1139 31.6952 21.2658Z" fill="#000034"/>
  <path d="M42.1991 18.8734V1.70886C42.1991 1.02532 42.3237 0.56962 42.5728 0.341772C42.822 0.113924 43.3204 0 44.068 0H44.5664C45.314 0 45.8124 0.113924 46.0616 0.341772C46.3108 0.56962 46.4354 1.02532 46.4354 1.70886V9.79747C47.5706 8.1519 49.6057 7.32911 52.5407 7.32911C58.2999 7.32911 61.1794 10.0886 61.1794 15.6076V18.8734C61.1794 24.2911 58.0091 27 51.6685 27C48.6228 27 46.2831 26.3165 44.6495 24.9494C43.0159 23.557 42.1991 21.5316 42.1991 18.8734ZM56.9016 18.7975V15.5316C56.9016 13.8608 56.5139 12.6835 55.7387 12C54.9911 11.3165 53.6482 10.9747 51.71 10.9747C49.7441 10.9747 48.3736 11.3165 47.5983 12C46.823 12.6835 46.4354 13.8608 46.4354 15.5316V18.7975C46.4354 20.443 46.823 21.6076 47.5983 22.2911C48.3736 22.9747 49.7441 23.3165 51.71 23.3165C53.6759 23.3165 55.0326 22.9873 55.7802 22.3291C56.5278 21.6456 56.9016 20.4684 56.9016 18.7975Z" fill="#000034"/>
  <path d="M63.4478 10.0633V9.68355C63.4478 9.1519 63.5448 8.78481 63.7386 8.58228C63.9324 8.37975 64.3062 8.22785 64.8599 8.12658L67.0612 7.74684L67.5596 4.17722C67.6426 3.62025 67.7949 3.25316 68.0164 3.07595C68.2379 2.89873 68.6533 2.81013 69.2624 2.81013H69.8023C70.4115 2.81013 70.813 2.89873 71.0068 3.07595C71.2006 3.25316 71.2975 3.62025 71.2975 4.17722V7.74684H77.1121C77.8043 7.74684 78.2611 7.8481 78.4826 8.05063C78.7318 8.25317 78.8564 8.68355 78.8564 9.34177V9.79747C78.8564 10.4557 78.7318 10.8861 78.4826 11.0886C78.2611 11.2911 77.8043 11.3924 77.1121 11.3924H71.2975V20.0127C71.2975 22.2152 72.3773 23.3165 74.537 23.3165C75.783 23.3165 76.9044 23.2025 77.9012 22.9747C78.5934 22.8481 79.0502 22.8734 79.2718 23.0506C79.4933 23.2278 79.604 23.6456 79.604 24.3038V24.7595C79.604 25.3924 79.4933 25.8354 79.2718 26.0886C79.0502 26.3418 78.5934 26.5316 77.9012 26.6582C76.6275 26.8608 75.5061 26.962 74.537 26.962C69.5531 26.962 67.0612 24.6329 67.0612 19.9747V11.3924H64.9015C64.32 11.3924 63.9324 11.3038 63.7386 11.1266C63.5448 10.9494 63.4478 10.5949 63.4478 10.0633Z" fill="#000034"/>
  <path d="M82.1313 19.0253V15.3038C82.1313 12.7468 82.9482 10.7848 84.5818 9.41772C86.2431 8.02532 88.6243 7.32911 91.7254 7.32911C92.8606 7.32911 93.9404 7.4557 94.9649 7.70886C95.6571 7.86076 96.1001 8.06329 96.294 8.31646C96.5155 8.5443 96.6262 8.97468 96.6262 9.6076V10.1013C96.6262 10.7595 96.5016 11.1772 96.2524 11.3544C96.0032 11.5316 95.5464 11.5316 94.8819 11.3544C94.1343 11.1013 93.1098 10.9747 91.8084 10.9747C89.8149 10.9747 88.4166 11.3038 87.6136 11.962C86.8107 12.6203 86.4092 13.7468 86.4092 15.3418V18.9114C86.4092 20.557 86.8245 21.7089 87.6552 22.3671C88.5135 23 89.9949 23.3165 92.0992 23.3165C92.9021 23.3165 93.9681 23.2025 95.2972 22.9747C95.9617 22.8481 96.4047 22.8734 96.6262 23.0506C96.8754 23.2278 97 23.6329 97 24.2658V24.7215C97 25.3291 96.8754 25.7595 96.6262 26.0127C96.4047 26.2658 95.9478 26.4684 95.2556 26.6203C94.1758 26.8734 93.0544 27 91.8915 27C85.3847 27 82.1313 24.3418 82.1313 19.0253Z" fill="#000034"/>
</svg>