<svg width="57" height="22" viewBox="0 0 57 22" fill="none" xmlns="http://www.w3.org/2000/svg">
<path id="Vector" d="M15.4397 17.3439L9.96263 8.96297L15.3925 0.582011H11.4027L7.76706 6.26242L4.17863 0.582011H0.0472163L5.47708 8.96297L0 17.3439H4.03699L7.67265 11.4586L11.3319 17.3439H15.4397ZM22.4143 5.02857C19.2272 5.02857 17.4093 6.89101 17.0788 8.96297H20.2895C20.4784 8.33438 21.0922 7.65925 22.2726 7.65925C23.4294 7.65925 24.2793 8.24126 24.2793 9.35873V9.91747H21.6116C18.4953 9.91747 16.6067 11.3376 16.6067 13.8053C16.6067 16.2265 18.4953 17.6233 20.8561 17.6233C22.4379 17.6233 23.7127 17.018 24.4682 16.0402V17.3439H27.6552V9.47513C27.6552 6.5418 25.5541 5.02857 22.4143 5.02857ZM21.8005 14.9926C20.7381 14.9926 20.0534 14.4804 20.0534 13.6423C20.0534 12.7809 20.8089 12.2688 21.8713 12.2688H24.2793V12.8042C24.2793 14.201 23.1225 14.9926 21.8005 14.9926ZM37.2063 5.51746C35.5067 5.51746 34.1138 6.12274 33.2166 7.35662C33.4526 5.09842 34.3734 3.98095 36.6871 3.63175L41.0547 2.95661V0L36.3566 0.814816C31.5405 1.60635 30.0532 4.77249 30.0532 10.0571C30.0532 14.8063 32.3905 17.6233 36.5218 17.6233C40.2284 17.6233 42.5183 14.8296 42.5183 11.4772C42.5183 7.86878 40.3935 5.51746 37.2063 5.51746ZM36.3566 14.7831C34.5623 14.7831 33.5709 13.363 33.5709 11.454C33.5709 9.61481 34.6094 8.28784 36.3802 8.28784C38.1036 8.28784 39.0715 9.66139 39.0715 11.4772C39.0715 13.2931 38.1271 14.7831 36.3566 14.7831ZM51.7119 5.02857C49.9176 5.02857 48.7607 5.79684 48.1468 6.70475V5.2381H44.8419V22H48.2886V16.1799C48.9023 17.018 50.0591 17.6233 51.6174 17.6233C54.6156 17.6233 57 15.2952 57 11.3376C57 7.31004 54.6156 5.02857 51.7119 5.02857ZM50.8855 14.6899C49.2801 14.6899 48.2177 13.4095 48.2177 11.3841V11.291C48.2177 9.2656 49.2801 7.9619 50.8855 7.9619C52.4908 7.9619 53.5297 9.28888 53.5297 11.3376C53.5297 13.3862 52.4908 14.6899 50.8855 14.6899Z" fill="black"/>
</svg>
