<svg width="28" height="28" viewBox="0 0 28 28" xmlns="http://www.w3.org/2000/svg">
    <path fill-rule="evenodd" clip-rule="evenodd" d="M2.33203 13.9993C2.33203 13.501 2.72578 13.0932 3.20704 13.0932L23.8449 13.0932L18.3385 7.39065C18.255 7.30706 18.1883 7.20707 18.1424 7.09651C18.0966 6.98595 18.0724 6.86705 18.0714 6.74673C18.0704 6.6264 18.0926 6.50708 18.1366 6.39572C18.1806 6.28435 18.2455 6.18318 18.3277 6.09809C18.4098 6.01301 18.5075 5.94572 18.6151 5.90016C18.7226 5.8546 18.8378 5.83167 18.954 5.83271C19.0702 5.83376 19.185 5.85876 19.2918 5.90625C19.3985 5.95374 19.4951 6.02278 19.5758 6.10932L26.5758 13.3587C26.7399 13.5286 26.832 13.7591 26.832 13.9993C26.832 14.2396 26.7399 14.4701 26.5758 14.64L19.5758 21.8894C19.4951 21.9759 19.3985 22.045 19.2918 22.0924C19.185 22.1399 19.0702 22.1649 18.954 22.166C18.8378 22.167 18.7226 22.1441 18.6151 22.0985C18.5075 22.053 18.4098 21.9857 18.3277 21.9006C18.2455 21.8155 18.1806 21.7143 18.1366 21.603C18.0926 21.4916 18.0704 21.3723 18.0714 21.252C18.0724 21.1317 18.0966 21.0127 18.1424 20.9022C18.1883 20.7916 18.255 20.6916 18.3385 20.608L23.8449 14.9055H3.20704C2.72578 14.9055 2.33203 14.4977 2.33203 13.9993Z" fill-opacity="0.7"/>
</svg>
