<svg width="28" height="28" viewBox="0 0 28 28" xmlns="http://www.w3.org/2000/svg">
    <path fill-rule="evenodd" clip-rule="evenodd" d="M25.668 14.0007C25.668 14.499 25.2742 14.9068 24.793 14.9068L4.15505 14.9068L9.66147 20.6094C9.74504 20.6929 9.8117 20.7929 9.85756 20.9035C9.90342 21.014 9.92756 21.133 9.92857 21.2533C9.92958 21.3736 9.90744 21.4929 9.86344 21.6043C9.81945 21.7156 9.75447 21.8168 9.67232 21.9019C9.59016 21.987 9.49246 22.0543 9.38493 22.0998C9.27739 22.1454 9.16217 22.1683 9.04599 22.1673C8.92981 22.1662 8.81499 22.1412 8.70823 22.0938C8.60148 22.0463 8.50493 21.9772 8.42421 21.8907L1.42416 14.6413C1.26012 14.4714 1.16797 14.2409 1.16797 14.0007C1.16797 13.7604 1.26012 13.5299 1.42416 13.36L8.42421 6.11063C8.50493 6.02408 8.60148 5.95504 8.70823 5.90755C8.81499 5.86006 8.92981 5.83506 9.04599 5.83402C9.16217 5.83297 9.27739 5.8559 9.38493 5.90146C9.49246 5.94703 9.59016 6.01431 9.67232 6.0994C9.75447 6.18448 9.81945 6.28565 9.86344 6.39702C9.90744 6.50838 9.92958 6.62771 9.92857 6.74803C9.92756 6.86835 9.90342 6.98726 9.85756 7.09781C9.8117 7.20837 9.74504 7.30836 9.66147 7.39195L4.15505 13.0945H24.793C25.2742 13.0945 25.668 13.5023 25.668 14.0007Z" fill-opacity="0.7"/>
</svg>
