<svg width="669" height="434" viewBox="0 0 669 434" fill="none" xmlns="http://www.w3.org/2000/svg">
<g filter="url(#filter0_d_968_37041)">
<rect width="312.658" height="412.418" rx="34" transform="matrix(0.939539 -0.342441 0.703821 0.710377 16.0391 129.027)" fill="url(#paint0_linear_968_37041)"/>
</g>
<g filter="url(#filter1_i_968_37041)">
<rect width="312.658" height="414.415" rx="34" transform="matrix(0.939539 -0.342441 0.703821 0.710377 17.0371 107.067)" fill="url(#paint1_linear_968_37041)"/>
</g>
<rect x="1.98847" y="0.445202" width="310.238" height="411.995" rx="32.79" transform="matrix(0.939539 -0.342441 0.703821 0.710377 16.844 107.877)" stroke="#3E4462" stroke-width="2.42"/>
<path d="M416.76 184.868C456.038 224.513 446.061 271.724 394.827 290.398C343.593 309.071 270.179 292.254 230.9 252.61C191.621 212.965 201.599 165.754 252.832 147.08C304.066 128.407 377.481 145.223 416.76 184.868Z" stroke="#EBEEF5" stroke-width="10.9516"/>
<g filter="url(#filter2_dddd_968_37041)">
<path d="M257.261 151.55C256.502 150.783 256.122 150.4 255.746 149.915C253.006 146.378 254.474 141.792 258.876 140.133C259.48 139.905 259.816 139.819 260.486 139.648C281.043 134.402 304.834 133.718 328.968 137.792C353.295 141.899 376.674 150.621 396.231 162.773C396.715 163.074 396.957 163.225 397.434 163.579C401.583 166.662 402.289 171.667 398.938 174.247C398.553 174.544 398.198 174.754 397.487 175.175C396.252 175.905 395.635 176.27 395.219 176.465C390.981 178.45 386.207 178.182 381.229 175.678C380.741 175.433 379.708 174.824 377.641 173.606C362.953 164.952 345.721 158.727 327.83 155.707C310.072 152.709 292.552 153.019 277.171 156.51C274.706 157.069 273.474 157.349 272.879 157.432C267.742 158.154 263.325 156.943 259.542 153.777C259.104 153.41 258.489 152.79 257.261 151.55Z" fill="url(#paint2_linear_968_37041)"/>
</g>
<path d="M257.261 148.556C256.502 147.789 256.122 147.406 255.746 146.921C253.006 143.384 254.474 138.798 258.876 137.139C259.48 136.911 259.816 136.825 260.486 136.654C281.361 131.326 305.565 130.706 330.067 134.987C354.759 139.301 378.399 148.358 397.997 160.893C398.474 161.198 398.712 161.35 399.181 161.709C403.265 164.832 403.838 169.83 400.402 172.361C400.008 172.652 399.646 172.857 398.922 173.266C397.665 173.978 397.036 174.333 396.614 174.522C392.308 176.447 387.526 176.121 382.601 173.566C382.118 173.316 381.099 172.698 379.062 171.462C364.315 162.514 346.867 156.036 328.686 152.86C310.642 149.707 292.804 149.968 277.171 153.516C274.706 154.075 273.474 154.355 272.879 154.438C267.742 155.16 263.325 153.949 259.542 150.783C259.104 150.416 258.489 149.796 257.261 148.556Z" fill="url(#paint3_linear_968_37041)"/>
<path d="M257.261 148.556C256.502 147.789 256.122 147.406 255.746 146.921C253.006 143.384 254.474 138.798 258.876 137.139C259.48 136.911 259.816 136.825 260.486 136.654C281.361 131.326 305.565 130.706 330.067 134.987C354.759 139.301 378.399 148.358 397.997 160.893C398.474 161.198 398.712 161.35 399.181 161.709C403.265 164.832 403.838 169.83 400.402 172.361C400.008 172.652 399.646 172.857 398.922 173.266C397.665 173.978 397.036 174.333 396.614 174.522C392.308 176.447 387.526 176.121 382.601 173.566C382.118 173.316 381.099 172.698 379.062 171.462C364.315 162.514 346.867 156.036 328.686 152.86C310.642 149.707 292.804 149.968 277.171 153.516C274.706 154.075 273.474 154.355 272.879 154.438C267.742 155.16 263.325 153.949 259.542 150.783C259.104 150.416 258.489 149.796 257.261 148.556Z" fill="url(#paint4_linear_968_37041)"/>
<path d="M257.261 145.561C256.502 144.795 256.122 144.411 255.746 143.926C253.006 140.39 254.474 135.803 258.876 134.144C259.48 133.916 259.816 133.831 260.486 133.66C281.716 128.241 306.381 127.693 331.289 132.21C356.386 136.761 380.308 146.195 399.934 159.157C400.403 159.467 400.638 159.622 401.097 159.985C405.107 163.152 405.532 168.141 402.003 170.615C401.598 170.899 401.229 171.098 400.49 171.496C399.209 172.185 398.568 172.53 398.139 172.712C393.76 174.57 388.97 174.18 384.105 171.57C383.629 171.314 382.626 170.686 380.621 169.429C365.822 160.153 348.14 153.389 329.638 150.034C311.276 146.705 293.084 146.91 277.171 150.521C274.706 151.08 273.474 151.36 272.879 151.444C267.742 152.165 263.325 150.954 259.542 147.788C259.104 147.421 258.489 146.801 257.261 145.561Z" fill="url(#paint5_linear_968_37041)"/>
<path d="M257.261 145.561C256.502 144.795 256.122 144.411 255.746 143.926C253.006 140.39 254.474 135.803 258.876 134.144C259.48 133.916 259.816 133.831 260.486 133.66C281.716 128.241 306.381 127.693 331.289 132.21C356.386 136.761 380.308 146.195 399.934 159.157C400.403 159.467 400.638 159.622 401.097 159.985C405.107 163.152 405.532 168.141 402.003 170.615C401.598 170.899 401.229 171.098 400.49 171.496C399.209 172.185 398.568 172.53 398.139 172.712C393.76 174.57 388.97 174.18 384.105 171.57C383.629 171.314 382.626 170.686 380.621 169.429C365.822 160.153 348.14 153.389 329.638 150.034C311.276 146.705 293.084 146.91 277.171 150.521C274.706 151.08 273.474 151.36 272.879 151.444C267.742 152.165 263.325 150.954 259.542 147.788C259.104 147.421 258.489 146.801 257.261 145.561Z" fill="url(#paint6_linear_968_37041)"/>
<path d="M257.261 142.567C256.501 141.8 256.122 141.417 255.746 140.931C253.006 137.395 254.474 132.808 258.876 131.15C259.48 130.922 259.816 130.836 260.486 130.665C281.955 125.186 306.932 124.689 332.112 129.366C357.48 134.079 381.587 143.771 401.222 157.022C401.686 157.335 401.918 157.492 402.371 157.858C406.329 161.054 406.654 166.036 403.063 168.471C402.652 168.75 402.278 168.945 401.529 169.334C400.232 170.01 399.583 170.347 399.149 170.524C394.722 172.336 389.929 171.903 385.105 169.256C384.633 168.997 383.642 168.362 381.659 167.092C366.832 157.593 348.996 150.635 330.279 147.158C311.705 143.707 293.273 143.872 277.171 147.527C274.706 148.086 273.474 148.366 272.879 148.449C267.742 149.171 263.325 147.96 259.542 144.793C259.104 144.426 258.489 143.807 257.261 142.567Z" fill="url(#paint7_linear_968_37041)"/>
<path d="M257.261 142.567C256.501 141.8 256.122 141.417 255.746 140.931C253.006 137.395 254.474 132.808 258.876 131.15C259.48 130.922 259.816 130.836 260.486 130.665C281.955 125.186 306.932 124.689 332.112 129.366C357.48 134.079 381.587 143.771 401.222 157.022C401.686 157.335 401.918 157.492 402.371 157.858C406.329 161.054 406.654 166.036 403.063 168.471C402.652 168.75 402.278 168.945 401.529 169.334C400.232 170.01 399.583 170.347 399.149 170.524C394.722 172.336 389.929 171.903 385.105 169.256C384.633 168.997 383.642 168.362 381.659 167.092C366.832 157.593 348.996 150.635 330.279 147.158C311.705 143.707 293.273 143.872 277.171 147.527C274.706 148.086 273.474 148.366 272.879 148.449C267.742 149.171 263.325 147.96 259.542 144.793C259.104 144.426 258.489 143.807 257.261 142.567Z" fill="url(#paint8_linear_968_37041)"/>
<mask id="path-9-inside-1_968_37041" fill="white">
<path d="M257.261 139.572C252.687 134.955 253.896 129.353 260.486 127.671C281.98 122.185 306.989 121.693 332.198 126.388C357.594 131.117 381.72 140.837 401.355 154.118C407.1 158.004 406.962 163.667 401.637 166.427C396.275 169.207 387.7 167.976 381.767 164.167C366.937 154.645 349.086 147.665 330.346 144.175C311.75 140.712 293.293 140.874 277.171 144.532C270.458 146.055 261.836 144.19 257.261 139.572Z"/>
</mask>
<path d="M257.261 139.572C252.687 134.955 253.896 129.353 260.486 127.671C281.98 122.185 306.989 121.693 332.198 126.388C357.594 131.117 381.72 140.837 401.355 154.118C407.1 158.004 406.962 163.667 401.637 166.427C396.275 169.207 387.7 167.976 381.767 164.167C366.937 154.645 349.086 147.665 330.346 144.175C311.75 140.712 293.293 140.874 277.171 144.532C270.458 146.055 261.836 144.19 257.261 139.572Z" fill="url(#paint9_linear_968_37041)" stroke="white" stroke-opacity="0.54" stroke-width="1.1528" mask="url(#path-9-inside-1_968_37041)"/>
<g filter="url(#filter3_d_968_37041)">
<path d="M382.936 165.964C383.521 165.442 383.814 165.18 384.236 164.893C387.857 162.434 395.361 162.645 400.147 165.341C400.705 165.656 400.944 165.818 401.423 166.141C420.126 178.806 434.082 194.254 441.421 210.607C448.722 226.875 449.09 243.179 442.643 257.536C442.446 257.976 442.347 258.197 442.061 258.61C439.881 261.766 433.093 263.035 427.661 261.303C426.949 261.076 426.388 260.845 425.267 260.385C423.473 259.648 422.576 259.28 422.038 259.015C417.203 256.625 415.18 253.68 415.967 250.175C416.054 249.786 416.378 248.975 417.025 247.352C421.329 236.569 420.812 224.475 415.396 212.407C409.955 200.283 399.843 188.797 386.317 179.213C384.446 177.888 383.511 177.225 383.126 176.906C379.258 173.703 378.605 170.535 381.204 167.574C381.463 167.279 381.954 166.841 382.936 165.964Z" fill="url(#paint10_linear_968_37041)"/>
</g>
<path d="M382.936 162.97C383.521 162.448 383.814 162.186 384.236 161.899C387.857 159.44 395.361 159.651 400.147 162.347C400.705 162.662 400.944 162.824 401.423 163.147C420.415 176.008 434.505 191.734 441.749 208.355C448.955 224.891 448.994 241.413 442.033 255.854C441.822 256.292 441.716 256.511 441.417 256.92C439.145 260.035 432.303 261.216 426.903 259.426C426.193 259.191 425.635 258.954 424.519 258.481C422.735 257.724 421.843 257.345 421.31 257.073C416.524 254.633 414.575 251.677 415.457 248.195C415.556 247.807 415.903 247.001 416.598 245.389C421.279 234.529 421.001 222.264 415.652 209.991C410.277 197.658 400.062 185.959 386.317 176.219C384.446 174.894 383.511 174.231 383.126 173.912C379.258 170.709 378.605 167.541 381.204 164.58C381.463 164.285 381.954 163.847 382.936 162.97Z" fill="url(#paint11_linear_968_37041)"/>
<path d="M382.936 162.97C383.521 162.448 383.814 162.186 384.236 161.899C387.857 159.44 395.361 159.651 400.147 162.347C400.705 162.662 400.944 162.824 401.423 163.147C420.415 176.008 434.505 191.734 441.749 208.355C448.955 224.891 448.994 241.413 442.033 255.854C441.822 256.292 441.716 256.511 441.417 256.92C439.145 260.035 432.303 261.216 426.903 259.426C426.193 259.191 425.635 258.954 424.519 258.481C422.735 257.724 421.843 257.345 421.31 257.073C416.524 254.633 414.575 251.677 415.457 248.195C415.556 247.807 415.903 247.001 416.598 245.389C421.279 234.529 421.001 222.264 415.652 209.991C410.277 197.658 400.062 185.959 386.317 176.219C384.446 174.894 383.511 174.231 383.126 173.912C379.258 170.709 378.605 167.541 381.204 164.58C381.463 164.285 381.954 163.847 382.936 162.97Z" fill="url(#paint12_linear_968_37041)"/>
<path d="M382.936 159.976C383.521 159.453 383.814 159.192 384.236 158.905C387.857 156.446 395.361 156.657 400.147 159.352C400.705 159.667 400.944 159.829 401.423 160.153C420.737 173.231 434.974 189.267 442.103 206.187C449.196 223.019 448.857 239.781 441.309 254.304C441.083 254.739 440.97 254.957 440.657 255.361C438.282 258.429 431.384 259.513 426.021 257.66C425.314 257.415 424.759 257.171 423.65 256.683C421.878 255.903 420.992 255.513 420.463 255.234C415.734 252.74 413.867 249.771 414.856 246.316C414.967 245.929 415.34 245.129 416.088 243.53C421.199 232.593 421.196 220.141 415.928 207.639C410.633 195.075 400.306 183.137 386.317 173.224C384.446 171.899 383.511 171.237 383.126 170.917C379.258 167.715 378.605 164.547 381.204 161.586C381.463 161.29 381.954 160.852 382.936 159.976Z" fill="url(#paint13_linear_968_37041)"/>
<path d="M382.936 159.976C383.521 159.453 383.814 159.192 384.236 158.905C387.857 156.446 395.361 156.657 400.147 159.352C400.705 159.667 400.944 159.829 401.423 160.153C420.737 173.231 434.974 189.267 442.103 206.187C449.196 223.019 448.857 239.781 441.309 254.304C441.083 254.739 440.97 254.957 440.657 255.361C438.282 258.429 431.384 259.513 426.021 257.66C425.314 257.415 424.759 257.171 423.65 256.683C421.878 255.903 420.992 255.513 420.463 255.234C415.734 252.74 413.867 249.771 414.856 246.316C414.967 245.929 415.34 245.129 416.088 243.53C421.199 232.593 421.196 220.141 415.928 207.639C410.633 195.075 400.306 183.137 386.317 173.224C384.446 171.899 383.511 171.237 383.126 170.917C379.258 167.715 378.605 164.547 381.204 161.586C381.463 161.29 381.954 160.852 382.936 159.976Z" fill="url(#paint14_linear_968_37041)"/>
<path d="M382.936 156.981C383.521 156.459 383.814 156.197 384.236 155.91C387.857 153.451 395.361 153.662 400.147 156.358C400.705 156.672 400.944 156.834 401.423 157.158C420.954 170.383 435.287 186.63 442.335 203.749C449.347 220.782 448.745 237.701 440.795 252.274C440.559 252.707 440.441 252.924 440.119 253.324C437.675 256.361 430.741 257.377 425.404 255.482C424.699 255.232 424.147 254.983 423.043 254.485C421.279 253.69 420.397 253.292 419.871 253.009C415.181 250.478 413.371 247.502 414.431 244.065C414.55 243.68 414.941 242.884 415.724 241.293C421.13 230.309 421.318 217.734 416.108 205.079C410.872 192.359 400.47 180.259 386.317 170.23C384.446 168.905 383.511 168.242 383.126 167.923C379.258 164.72 378.605 161.552 381.204 158.591C381.463 158.296 381.954 157.858 382.936 156.981Z" fill="url(#paint15_linear_968_37041)"/>
<path d="M382.936 156.981C383.521 156.459 383.814 156.197 384.236 155.91C387.857 153.451 395.361 153.662 400.147 156.358C400.705 156.672 400.944 156.834 401.423 157.158C420.954 170.383 435.287 186.63 442.335 203.749C449.347 220.782 448.745 237.701 440.795 252.274C440.559 252.707 440.441 252.924 440.119 253.324C437.675 256.361 430.741 257.377 425.404 255.482C424.699 255.232 424.147 254.983 423.043 254.485C421.279 253.69 420.397 253.292 419.871 253.009C415.181 250.478 413.371 247.502 414.431 244.065C414.55 243.68 414.941 242.884 415.724 241.293C421.13 230.309 421.318 217.734 416.108 205.079C410.872 192.359 400.47 180.259 386.317 170.23C384.446 168.905 383.511 168.242 383.126 167.923C379.258 164.72 378.605 161.552 381.204 158.591C381.463 158.296 381.954 157.858 382.936 156.981Z" fill="url(#paint16_linear_968_37041)"/>
<mask id="path-14-inside-2_968_37041" fill="white">
<path d="M382.936 153.987C387.037 150.324 395.602 150.222 401.423 154.164C420.976 167.404 435.32 183.673 442.359 200.813C449.362 217.866 448.732 234.802 440.741 249.38C438.285 253.86 429.878 254.692 422.978 251.574C416.226 248.522 413.482 242.83 415.685 238.377C421.122 227.388 421.331 214.8 416.127 202.129C410.897 189.394 400.488 177.276 386.317 167.235C380.726 163.275 378.903 157.588 382.936 153.987Z"/>
</mask>
<path d="M382.936 153.987C387.037 150.324 395.602 150.222 401.423 154.164C420.976 167.404 435.32 183.673 442.359 200.813C449.362 217.866 448.732 234.802 440.741 249.38C438.285 253.86 429.878 254.692 422.978 251.574C416.226 248.522 413.482 242.83 415.685 238.377C421.122 227.388 421.331 214.8 416.127 202.129C410.897 189.394 400.488 177.276 386.317 167.235C380.726 163.275 378.903 157.588 382.936 153.987Z" fill="url(#paint17_linear_968_37041)" stroke="white" stroke-opacity="0.54" stroke-width="1.1528" mask="url(#path-14-inside-2_968_37041)"/>
<g filter="url(#filter4_ddddd_968_37041)">
<path d="M390.773 170.698C391.429 170.227 391.757 169.991 392.218 169.738C396.211 167.548 403.777 168.2 408.271 171.122C408.791 171.459 409.009 171.629 409.445 171.969C420.55 180.628 429.551 190.308 435.978 200.504C436.234 200.909 436.361 201.112 436.568 201.557C438.337 205.378 435.238 209.545 429.997 210.393C429.387 210.492 428.873 210.532 427.845 210.613C426.119 210.747 425.255 210.815 424.706 210.822C419.192 210.889 414.851 209.094 411.922 205.538C411.631 205.184 411.087 204.377 409.999 202.761C405.498 196.076 399.573 189.701 392.448 183.878C390.731 182.474 389.872 181.772 389.525 181.439C386.009 178.065 385.766 174.91 388.809 172.163C389.11 171.891 389.664 171.493 390.773 170.698Z" fill="url(#paint18_linear_968_37041)"/>
</g>
<path d="M390.773 167.704C391.429 167.233 391.757 166.997 392.218 166.744C396.211 164.554 403.777 165.206 408.271 168.128C408.791 168.465 409.009 168.635 409.445 168.975C427.049 182.702 439.294 198.939 444.462 215.639C449.599 232.237 447.467 248.39 438.506 262.085C438.23 262.508 438.091 262.72 437.73 263.106C435.016 266.006 427.948 266.754 422.725 264.693C422.03 264.418 421.489 264.15 420.408 263.614C418.681 262.758 417.817 262.33 417.307 262.029C412.783 259.356 411.201 256.354 412.548 252.997C412.7 252.619 413.164 251.842 414.09 250.289C420.25 239.963 421.574 227.97 417.765 215.662C413.934 203.284 405.111 191.233 392.448 180.884C390.731 179.48 389.872 178.778 389.525 178.445C386.009 175.071 385.766 171.916 388.809 169.168C389.11 168.897 389.664 168.499 390.773 167.704Z" fill="url(#paint19_linear_968_37041)"/>
<path d="M390.773 167.704C391.429 167.233 391.757 166.997 392.218 166.744C396.211 164.554 403.777 165.206 408.271 168.128C408.791 168.465 409.009 168.635 409.445 168.975C427.049 182.702 439.294 198.939 444.462 215.639C449.599 232.237 447.467 248.39 438.506 262.085C438.23 262.508 438.091 262.72 437.73 263.106C435.016 266.006 427.948 266.754 422.725 264.693C422.03 264.418 421.489 264.15 420.408 263.614C418.681 262.758 417.817 262.33 417.307 262.029C412.783 259.356 411.201 256.354 412.548 252.997C412.7 252.619 413.164 251.842 414.09 250.289C420.25 239.963 421.574 227.97 417.765 215.662C413.934 203.284 405.111 191.233 392.448 180.884C390.731 179.48 389.872 178.778 389.525 178.445C386.009 175.071 385.766 171.916 388.809 169.168C389.11 168.897 389.664 168.499 390.773 167.704Z" fill="url(#paint20_linear_968_37041)"/>
<path d="M390.773 164.709C391.429 164.238 391.757 164.003 392.218 163.75C396.211 161.56 403.777 162.212 408.271 165.133C408.791 165.471 409.009 165.641 409.445 165.981C427.347 179.939 439.7 196.489 444.713 213.474C449.696 230.356 447.148 246.719 437.581 260.461C437.29 260.88 437.144 261.09 436.769 261.47C433.957 264.318 426.846 264.967 421.668 262.846C420.977 262.563 420.441 262.288 419.369 261.738C417.657 260.86 416.801 260.422 416.297 260.114C411.837 257.39 410.34 254.381 411.792 251.056C411.956 250.68 412.446 249.911 413.425 248.374C420.03 237.998 421.657 225.839 417.96 213.314C414.241 200.714 405.335 188.422 392.448 177.889C390.731 176.485 389.872 175.783 389.525 175.45C386.009 172.076 385.766 168.921 388.809 166.174C389.11 165.902 389.664 165.504 390.773 164.709Z" fill="url(#paint21_linear_968_37041)"/>
<path d="M390.773 164.709C391.429 164.238 391.757 164.003 392.218 163.75C396.211 161.56 403.777 162.212 408.271 165.133C408.791 165.471 409.009 165.641 409.445 165.981C427.347 179.939 439.7 196.489 444.713 213.474C449.696 230.356 447.148 246.719 437.581 260.461C437.29 260.88 437.144 261.09 436.769 261.47C433.957 264.318 426.846 264.967 421.668 262.846C420.977 262.563 420.441 262.288 419.369 261.738C417.657 260.86 416.801 260.422 416.297 260.114C411.837 257.39 410.34 254.381 411.792 251.056C411.956 250.68 412.446 249.911 413.425 248.374C420.03 237.998 421.657 225.839 417.96 213.314C414.241 200.714 405.335 188.422 392.448 177.889C390.731 176.485 389.872 175.783 389.525 175.45C386.009 172.076 385.766 168.921 388.809 166.174C389.11 165.902 389.664 165.504 390.773 164.709Z" fill="url(#paint22_linear_968_37041)"/>
<path d="M390.773 161.714C391.429 161.244 391.757 161.008 392.218 160.755C396.211 158.565 403.777 159.217 408.271 162.138C408.791 162.476 409.009 162.646 409.445 162.986C427.548 177.101 439.972 193.862 444.875 211.038C449.75 228.11 446.914 244.613 436.933 258.38C436.631 258.796 436.481 259.003 436.096 259.379C433.22 262.193 426.081 262.774 420.934 260.613C420.247 260.325 419.714 260.045 418.649 259.487C416.947 258.594 416.097 258.148 415.597 257.836C411.181 255.079 409.741 252.065 411.263 248.763C411.436 248.389 411.943 247.625 412.957 246.099C419.868 235.694 421.704 223.426 418.086 210.754C414.447 198.006 405.487 185.551 392.448 174.894C390.731 173.491 389.872 172.789 389.525 172.456C386.009 169.082 385.766 165.927 388.809 163.179C389.11 162.908 389.664 162.51 390.773 161.714Z" fill="url(#paint23_linear_968_37041)"/>
<path d="M390.773 161.714C391.429 161.244 391.757 161.008 392.218 160.755C396.211 158.565 403.777 159.217 408.271 162.138C408.791 162.476 409.009 162.646 409.445 162.986C427.548 177.101 439.972 193.862 444.875 211.038C449.75 228.11 446.914 244.613 436.933 258.38C436.631 258.796 436.481 259.003 436.096 259.379C433.22 262.193 426.081 262.774 420.934 260.613C420.247 260.325 419.714 260.045 418.649 259.487C416.947 258.594 416.097 258.148 415.597 257.836C411.181 255.079 409.741 252.065 411.263 248.763C411.436 248.389 411.943 247.625 412.957 246.099C419.868 235.694 421.704 223.426 418.086 210.754C414.447 198.006 405.487 185.551 392.448 174.894C390.731 173.491 389.872 172.789 389.525 172.456C386.009 169.082 385.766 165.927 388.809 163.179C389.11 162.908 389.664 162.51 390.773 161.714Z" fill="url(#paint24_linear_968_37041)"/>
<mask id="path-19-inside-3_968_37041" fill="white">
<path d="M390.773 158.72C395.408 155.393 404.072 155.802 409.445 159.992C427.569 174.123 440 190.906 444.892 208.102C449.755 225.194 446.889 241.711 436.864 255.48C433.779 259.717 425.154 260.029 418.572 256.569C412.112 253.173 410.079 247.419 412.907 243.179C419.85 232.772 421.709 220.492 418.099 207.805C414.468 195.041 405.503 182.57 392.448 171.9C387.295 167.688 386.198 162.003 390.773 158.72Z"/>
</mask>
<path d="M390.773 158.72C395.408 155.393 404.072 155.802 409.445 159.992C427.569 174.123 440 190.906 444.892 208.102C449.755 225.194 446.889 241.711 436.864 255.48C433.779 259.717 425.154 260.029 418.572 256.569C412.112 253.173 410.079 247.419 412.907 243.179C419.85 232.772 421.709 220.492 418.099 207.805C414.468 195.041 405.503 182.57 392.448 171.9C387.295 167.688 386.198 162.003 390.773 158.72Z" fill="url(#paint25_linear_968_37041)" stroke="white" stroke-opacity="0.54" stroke-width="1.1528" mask="url(#path-19-inside-3_968_37041)"/>
<g filter="url(#filter5_dd_968_37041)">
<path d="M423.079 201.597C424.037 201.431 424.517 201.348 425.136 201.292C430.51 200.809 437.385 203.641 439.795 207.332C440.072 207.757 440.171 207.959 440.368 208.362C446.769 221.47 448.733 234.826 446.013 247.32C442.675 262.652 432.428 276.016 416.537 285.763C400.646 295.511 379.806 301.215 356.586 302.173C333.366 303.132 308.782 299.302 285.866 291.156C262.95 283.011 242.704 270.905 227.626 256.333C212.547 241.761 203.295 225.36 201.01 209.152C198.726 192.944 203.509 177.638 214.769 165.123C223.867 155.01 236.872 147.076 252.663 141.918C253.297 141.711 253.614 141.607 254.285 141.464C259.194 140.417 266.356 142.471 269.581 145.852C270.022 146.314 270.322 146.718 270.921 147.525C271.901 148.843 272.39 149.502 272.635 149.926C274.751 153.599 273.771 156.397 269.678 158.362C269.206 158.589 268.077 158.996 265.82 159.81C254.69 163.824 245.486 169.675 238.905 176.989C230.137 186.735 226.413 198.653 228.192 211.274C229.971 223.895 237.175 236.666 248.917 248.013C260.658 259.36 276.423 268.786 294.268 275.129C312.112 281.472 331.255 284.455 349.336 283.708C367.417 282.962 383.646 278.52 396.02 270.93C408.394 263.34 416.372 252.934 418.972 240.995C420.943 231.94 419.755 222.304 415.563 212.783C414.82 211.096 414.448 210.253 414.334 209.875C413.169 206.03 415.133 203.395 420.091 202.151C420.578 202.029 421.411 201.885 423.079 201.597Z" fill="url(#paint26_linear_968_37041)"/>
</g>
<path d="M423.079 198.602C424.037 198.436 424.517 198.354 425.136 198.298C430.51 197.815 437.385 200.647 439.795 204.338C440.072 204.763 440.171 204.964 440.368 205.367C446.769 218.475 448.733 231.831 446.013 244.326C442.675 259.658 432.428 273.021 416.537 282.769C400.646 292.516 379.806 298.221 356.586 299.179C333.366 300.137 308.782 296.307 285.866 288.162C262.95 280.016 242.704 267.911 227.626 253.339C212.547 238.767 203.295 222.366 201.01 206.158C198.726 189.95 203.509 174.644 214.769 162.128C223.867 152.016 236.872 144.082 252.663 138.923C253.297 138.716 253.614 138.613 254.285 138.47C259.194 137.423 266.356 139.477 269.581 142.857C270.022 143.32 270.322 143.723 270.921 144.53C271.901 145.848 272.39 146.507 272.635 146.931C274.751 150.604 273.771 153.402 269.678 155.368C269.206 155.594 268.077 156.001 265.82 156.815C254.69 160.83 245.486 166.68 238.905 173.994C230.137 183.74 226.413 195.658 228.192 208.279C229.971 220.9 237.175 233.672 248.917 245.019C260.658 256.366 276.423 265.792 294.268 272.135C312.112 278.478 331.255 281.46 349.336 280.714C367.417 279.968 383.646 275.525 396.02 267.935C408.394 260.345 416.372 249.939 418.972 238C420.943 228.946 419.755 219.31 415.563 209.789C414.82 208.102 414.448 207.258 414.334 206.881C413.169 203.036 415.133 200.4 420.091 199.156C420.578 199.034 421.411 198.89 423.079 198.602Z" fill="url(#paint27_linear_968_37041)"/>
<path d="M423.079 198.602C424.037 198.436 424.517 198.354 425.136 198.298C430.51 197.815 437.385 200.647 439.795 204.338C440.072 204.763 440.171 204.964 440.368 205.367C446.769 218.475 448.733 231.831 446.013 244.326C442.675 259.658 432.428 273.021 416.537 282.769C400.646 292.516 379.806 298.221 356.586 299.179C333.366 300.137 308.782 296.307 285.866 288.162C262.95 280.016 242.704 267.911 227.626 253.339C212.547 238.767 203.295 222.366 201.01 206.158C198.726 189.95 203.509 174.644 214.769 162.128C223.867 152.016 236.872 144.082 252.663 138.923C253.297 138.716 253.614 138.613 254.285 138.47C259.194 137.423 266.356 139.477 269.581 142.857C270.022 143.32 270.322 143.723 270.921 144.53C271.901 145.848 272.39 146.507 272.635 146.931C274.751 150.604 273.771 153.402 269.678 155.368C269.206 155.594 268.077 156.001 265.82 156.815C254.69 160.83 245.486 166.68 238.905 173.994C230.137 183.74 226.413 195.658 228.192 208.279C229.971 220.9 237.175 233.672 248.917 245.019C260.658 256.366 276.423 265.792 294.268 272.135C312.112 278.478 331.255 281.46 349.336 280.714C367.417 279.968 383.646 275.525 396.02 267.935C408.394 260.345 416.372 249.939 418.972 238C420.943 228.946 419.755 219.31 415.563 209.789C414.82 208.102 414.448 207.258 414.334 206.881C413.169 203.036 415.133 200.4 420.091 199.156C420.578 199.034 421.411 198.89 423.079 198.602Z" fill="url(#paint28_linear_968_37041)"/>
<path d="M423.079 195.608C424.037 195.442 424.517 195.359 425.136 195.303C430.51 194.82 437.385 197.652 439.795 201.343C440.072 201.768 440.171 201.97 440.368 202.373C446.769 215.481 448.733 228.837 446.013 241.331C442.675 256.663 432.428 270.027 416.537 279.774C400.646 289.522 379.806 295.226 356.586 296.184C333.366 297.143 308.782 293.313 285.866 285.167C262.95 277.022 242.704 264.916 227.626 250.344C212.547 235.772 203.295 219.371 201.01 203.163C198.726 186.955 203.509 171.649 214.769 159.134C223.867 149.021 236.872 141.087 252.663 135.929C253.297 135.722 253.614 135.618 254.285 135.475C259.194 134.428 266.356 136.482 269.581 139.863C270.022 140.325 270.322 140.729 270.921 141.536C271.901 142.854 272.39 143.513 272.635 143.937C274.751 147.61 273.771 150.408 269.678 152.373C269.206 152.6 268.077 153.007 265.82 153.821C254.69 157.835 245.486 163.686 238.905 171C230.137 180.746 226.413 192.664 228.192 205.285C229.971 217.906 237.175 230.677 248.917 242.024C260.658 253.371 276.423 262.797 294.268 269.14C312.112 275.483 331.255 278.466 349.336 277.719C367.417 276.973 383.646 272.531 396.02 264.941C408.394 257.351 416.372 246.945 418.972 235.006C420.943 225.951 419.755 216.315 415.563 206.794C414.82 205.107 414.448 204.264 414.334 203.886C413.169 200.041 415.133 197.406 420.091 196.162C420.578 196.04 421.411 195.896 423.079 195.608Z" fill="url(#paint29_linear_968_37041)"/>
<path d="M423.079 195.608C424.037 195.442 424.517 195.359 425.136 195.303C430.51 194.82 437.385 197.652 439.795 201.343C440.072 201.768 440.171 201.97 440.368 202.373C446.769 215.481 448.733 228.837 446.013 241.331C442.675 256.663 432.428 270.027 416.537 279.774C400.646 289.522 379.806 295.226 356.586 296.184C333.366 297.143 308.782 293.313 285.866 285.167C262.95 277.022 242.704 264.916 227.626 250.344C212.547 235.772 203.295 219.371 201.01 203.163C198.726 186.955 203.509 171.649 214.769 159.134C223.867 149.021 236.872 141.087 252.663 135.929C253.297 135.722 253.614 135.618 254.285 135.475C259.194 134.428 266.356 136.482 269.581 139.863C270.022 140.325 270.322 140.729 270.921 141.536C271.901 142.854 272.39 143.513 272.635 143.937C274.751 147.61 273.771 150.408 269.678 152.373C269.206 152.6 268.077 153.007 265.82 153.821C254.69 157.835 245.486 163.686 238.905 171C230.137 180.746 226.413 192.664 228.192 205.285C229.971 217.906 237.175 230.677 248.917 242.024C260.658 253.371 276.423 262.797 294.268 269.14C312.112 275.483 331.255 278.466 349.336 277.719C367.417 276.973 383.646 272.531 396.02 264.941C408.394 257.351 416.372 246.945 418.972 235.006C420.943 225.951 419.755 216.315 415.563 206.794C414.82 205.107 414.448 204.264 414.334 203.886C413.169 200.041 415.133 197.406 420.091 196.162C420.578 196.04 421.411 195.896 423.079 195.608Z" fill="url(#paint30_linear_968_37041)"/>
<path d="M423.079 192.613C424.037 192.447 424.517 192.365 425.136 192.309C430.51 191.825 437.385 194.658 439.795 198.348C440.072 198.773 440.171 198.975 440.368 199.378C446.769 212.486 448.733 225.842 446.013 238.337C442.675 253.669 432.428 267.032 416.537 276.78C400.646 286.527 379.806 292.231 356.586 293.19C333.366 294.148 308.782 290.318 285.866 282.173C262.95 274.027 242.704 261.922 227.626 247.35C212.547 232.778 203.295 216.376 201.01 200.169C198.726 183.961 203.509 168.655 214.769 156.139C223.867 146.026 236.872 138.093 252.663 132.934C253.297 132.727 253.614 132.624 254.285 132.481C259.194 131.433 266.356 133.488 269.581 136.868C270.022 137.331 270.322 137.734 270.921 138.541C271.901 139.859 272.39 140.518 272.635 140.942C274.751 144.615 273.771 147.413 269.678 149.378C269.206 149.605 268.077 150.012 265.82 150.826C254.69 154.841 245.486 160.691 238.905 168.005C230.137 177.751 226.413 189.669 228.192 202.29C229.971 214.911 237.175 227.683 248.917 239.03C260.658 250.377 276.423 259.803 294.268 266.146C312.112 272.489 331.255 275.471 349.336 274.725C367.417 273.978 383.646 269.536 396.02 261.946C408.394 254.356 416.372 243.95 418.972 232.011C420.943 222.956 419.755 213.32 415.563 203.8C414.82 202.113 414.448 201.269 414.334 200.892C413.169 197.047 415.133 194.411 420.091 193.167C420.578 193.045 421.411 192.901 423.079 192.613Z" fill="url(#paint31_linear_968_37041)"/>
<path d="M423.079 192.613C424.037 192.447 424.517 192.365 425.136 192.309C430.51 191.825 437.385 194.658 439.795 198.348C440.072 198.773 440.171 198.975 440.368 199.378C446.769 212.486 448.733 225.842 446.013 238.337C442.675 253.669 432.428 267.032 416.537 276.78C400.646 286.527 379.806 292.231 356.586 293.19C333.366 294.148 308.782 290.318 285.866 282.173C262.95 274.027 242.704 261.922 227.626 247.35C212.547 232.778 203.295 216.376 201.01 200.169C198.726 183.961 203.509 168.655 214.769 156.139C223.867 146.026 236.872 138.093 252.663 132.934C253.297 132.727 253.614 132.624 254.285 132.481C259.194 131.433 266.356 133.488 269.581 136.868C270.022 137.331 270.322 137.734 270.921 138.541C271.901 139.859 272.39 140.518 272.635 140.942C274.751 144.615 273.771 147.413 269.678 149.378C269.206 149.605 268.077 150.012 265.82 150.826C254.69 154.841 245.486 160.691 238.905 168.005C230.137 177.751 226.413 189.669 228.192 202.29C229.971 214.911 237.175 227.683 248.917 239.03C260.658 250.377 276.423 259.803 294.268 266.146C312.112 272.489 331.255 275.471 349.336 274.725C367.417 273.978 383.646 269.536 396.02 261.946C408.394 254.356 416.372 243.95 418.972 232.011C420.943 222.956 419.755 213.32 415.563 203.8C414.82 202.113 414.448 201.269 414.334 200.892C413.169 197.047 415.133 194.411 420.091 193.167C420.578 193.045 421.411 192.901 423.079 192.613Z" fill="url(#paint32_linear_968_37041)"/>
<mask id="path-24-inside-4_968_37041" fill="white">
<path d="M423.079 189.618C429.856 188.448 437.945 191.423 440.368 196.384C446.769 209.492 448.733 222.849 446.012 235.344C442.674 250.676 432.426 264.04 416.534 273.787C400.641 283.534 379.799 289.238 356.577 290.196C333.356 291.153 308.771 287.321 285.855 279.174C262.939 271.027 242.694 258.92 227.617 244.347C212.54 229.773 203.29 213.371 201.009 197.162C198.727 180.954 203.514 165.649 214.778 153.134C223.88 143.022 236.888 135.09 252.682 129.934C258.931 127.893 267.322 130.671 270.939 135.542C274.585 140.452 271.98 145.611 265.834 147.827C254.703 151.84 245.495 157.689 238.913 165.002C230.141 174.747 226.414 186.665 228.19 199.287C229.967 211.908 237.169 224.68 248.91 236.028C260.65 247.376 276.415 256.804 294.259 263.148C312.104 269.492 331.248 272.476 349.33 271.73C367.412 270.985 383.641 266.543 396.017 258.954C408.392 251.364 416.372 240.957 418.971 229.018C420.943 219.963 419.755 210.326 415.563 200.805C413.346 195.771 416.228 190.802 423.079 189.618Z"/>
</mask>
<path d="M423.079 189.618C429.856 188.448 437.945 191.423 440.368 196.384C446.769 209.492 448.733 222.849 446.012 235.344C442.674 250.676 432.426 264.04 416.534 273.787C400.641 283.534 379.799 289.238 356.577 290.196C333.356 291.153 308.771 287.321 285.855 279.174C262.939 271.027 242.694 258.92 227.617 244.347C212.54 229.773 203.29 213.371 201.009 197.162C198.727 180.954 203.514 165.649 214.778 153.134C223.88 143.022 236.888 135.09 252.682 129.934C258.931 127.893 267.322 130.671 270.939 135.542C274.585 140.452 271.98 145.611 265.834 147.827C254.703 151.84 245.495 157.689 238.913 165.002C230.141 174.747 226.414 186.665 228.19 199.287C229.967 211.908 237.169 224.68 248.91 236.028C260.65 247.376 276.415 256.804 294.259 263.148C312.104 269.492 331.248 272.476 349.33 271.73C367.412 270.985 383.641 266.543 396.017 258.954C408.392 251.364 416.372 240.957 418.971 229.018C420.943 219.963 419.755 210.326 415.563 200.805C413.346 195.771 416.228 190.802 423.079 189.618Z" fill="url(#paint33_linear_968_37041)" stroke="white" stroke-opacity="0.54" stroke-width="1.1528" mask="url(#path-24-inside-4_968_37041)"/>
<g filter="url(#filter6_d_968_37041)">
<path d="M496.455 116.278C493.424 117.503 490.408 117.765 487.409 117.066C484.405 116.367 481.991 115.163 480.166 113.456C478.949 112.317 478.111 111.074 477.65 109.725C477.185 108.376 477.292 107.063 477.969 105.786C478.622 104.645 478.834 103.431 478.606 102.144C478.44 101.197 478.099 100.27 477.583 99.3623C477.253 98.7819 476.348 98.4062 475.468 98.4286C474.566 98.4517 473.698 98.6422 473.209 99.0974L468.11 103.845C467.381 104.516 466.634 105.131 465.87 105.69C465.107 106.25 464.22 106.733 463.209 107.141C459.465 108.654 454.865 108.788 449.408 107.545C443.954 106.301 438.747 103.358 433.788 98.7165C431.402 96.4835 430.495 94.42 431.068 92.5262C431.641 90.635 433.056 89.2333 435.315 88.3211C436.86 87.6969 438.644 87.3361 440.667 87.2386C442.691 87.1428 444.741 87.4283 446.814 88.095C448.676 88.7222 450.575 89.0669 452.513 89.1289C453.94 89.1759 455.308 89.1024 456.616 88.9086C457.451 88.7847 457.877 88.2415 457.696 87.6486C457.51 87.041 457.072 86.4285 456.292 86.0253L448.149 81.8201C446.998 81.2198 445.928 80.6173 444.942 80.0128C443.956 79.4083 443.088 78.7557 442.34 78.0552C439.346 75.2529 438.348 72.1294 439.346 68.6845C440.347 65.2415 443.997 62.2476 450.296 59.7029C453.327 58.4786 456.344 58.2154 459.346 58.9133C462.348 59.6139 464.737 60.7962 466.515 62.46C467.732 63.5984 468.583 64.8528 469.071 66.223C469.556 67.5942 469.459 68.9181 468.782 70.1948C468.129 71.336 467.917 72.55 468.145 73.8369C468.311 74.784 468.652 75.7114 469.168 76.619C469.498 77.1993 470.403 77.575 471.284 77.5526C472.184 77.5296 473.049 77.336 473.53 76.8776L478.571 72.0703C479.3 71.3994 480.044 70.8007 480.801 70.274C481.559 69.75 482.442 69.2839 483.453 68.8758C488.267 66.9313 493.429 66.9457 498.941 68.9191C504.453 70.8924 509.127 73.6743 512.963 77.2647C515.35 79.4977 516.211 81.5781 515.548 83.5057C514.887 85.4351 513.398 86.8679 511.08 87.8042C509.594 88.4043 507.883 88.7345 505.946 88.7948C504.014 88.8558 502.011 88.5529 499.937 87.8862C498.076 87.259 496.176 86.9143 494.238 86.8523C492.811 86.8053 491.443 86.8788 490.136 87.0726C489.3 87.1965 488.874 87.7397 489.056 88.3326C489.242 88.9402 489.679 89.5527 490.46 89.9559L498.602 94.1611C499.707 94.7177 500.718 95.2658 501.635 95.8055C502.55 96.3435 503.382 96.9628 504.131 97.6633C507.231 100.485 508.317 103.651 507.387 107.161C506.458 110.67 502.814 113.71 496.455 116.278ZM477.586 91.9313C479.072 91.3311 479.924 90.4377 480.144 89.2509C480.367 88.0649 479.894 86.9247 478.724 85.83C477.555 84.7354 476.04 84.0157 474.181 83.6709C472.323 83.3234 470.651 83.4498 469.165 84.0499C467.679 84.6501 466.827 85.5436 466.608 86.7303C466.384 87.9163 466.857 89.0566 468.027 90.1512C469.197 91.2458 470.711 91.9655 472.57 92.3103C474.428 92.6578 476.101 92.5314 477.586 91.9313Z" fill="url(#paint34_linear_968_37041)"/>
</g>
<g filter="url(#filter7_i_968_37041)">
<path d="M496.455 110.29C493.424 111.514 490.408 111.777 487.409 111.078C484.405 110.378 481.991 109.174 480.166 107.467C478.949 106.328 478.111 105.085 477.65 103.737C477.185 102.387 477.292 101.074 477.969 99.7977C478.622 98.6566 478.834 97.4426 478.606 96.1557C478.44 95.2085 478.099 94.2812 477.583 93.3736C477.253 92.7933 476.348 92.4175 475.468 92.44C474.566 92.463 473.698 92.6536 473.209 93.1087L468.11 97.8566C467.381 98.5274 466.634 99.1425 465.87 99.7017C465.107 100.261 464.22 100.745 463.209 101.153C459.465 102.665 454.865 102.8 449.408 101.556C443.954 100.312 438.747 97.3691 433.788 92.7279C431.402 90.4948 430.495 88.4314 431.068 86.5375C431.641 84.6464 433.056 83.2447 435.315 82.3324C436.86 81.7083 438.644 81.3474 440.667 81.2499C442.691 81.1542 444.741 81.4396 446.814 82.1064C448.676 82.7336 450.575 83.0782 452.513 83.1403C453.94 83.1872 455.308 83.1138 456.616 82.9199C457.451 82.796 457.877 82.2529 457.696 81.66C457.51 81.0524 457.072 80.4399 456.292 80.0367L448.149 75.8314C446.998 75.2311 445.928 74.6287 444.942 74.0242C443.956 73.4196 443.088 72.7671 442.34 72.0665C439.346 69.2643 438.348 66.1407 439.346 62.6959C440.347 59.2528 443.997 56.259 450.296 53.7143C453.327 52.4899 456.344 52.2267 459.346 52.9247C462.348 53.6253 464.737 54.8075 466.515 56.4714C467.732 57.6098 468.583 58.8641 469.071 60.2343C469.556 61.6055 469.459 62.9295 468.782 64.2062C468.129 65.3473 467.917 66.5613 468.145 67.8482C468.311 68.7954 468.652 69.7227 469.168 70.6303C469.498 71.2106 470.403 71.5864 471.284 71.5639C472.184 71.5409 473.049 71.3473 473.53 70.889L478.571 66.0816C479.3 65.4108 480.044 64.812 480.801 64.2853C481.559 63.7613 482.442 63.2953 483.453 62.8872C488.267 60.9426 493.429 60.9571 498.941 62.9304C504.453 64.9038 509.127 67.6856 512.963 71.276C515.35 73.5091 516.211 75.5894 515.548 77.5171C514.887 79.4464 513.398 80.8793 511.08 81.8155C509.594 82.4157 507.883 82.7459 505.946 82.8061C504.014 82.8671 502.011 82.5643 499.937 81.8975C498.076 81.2703 496.176 80.9257 494.238 80.8636C492.811 80.8167 491.443 80.8901 490.136 81.084C489.3 81.2079 488.874 81.751 489.056 82.3439C489.242 82.9515 489.679 83.5641 490.46 83.9672L498.602 88.1725C499.707 88.729 500.718 89.2771 501.635 89.8169C502.55 90.3549 503.382 90.9741 504.131 91.6747C507.231 94.4967 508.317 97.6626 507.387 101.172C506.458 104.682 502.814 107.721 496.455 110.29ZM477.586 85.9426C479.072 85.3425 479.924 84.449 480.144 83.2623C480.367 82.0763 479.894 80.936 478.724 79.8414C477.555 78.7467 476.04 78.027 474.181 77.6823C472.323 77.3348 470.651 77.4611 469.165 78.0613C467.679 78.6614 466.827 79.5549 466.608 80.7417C466.384 81.9276 466.857 83.0679 468.027 84.1625C469.197 85.2572 470.711 85.9769 472.57 86.3216C474.428 86.6691 476.101 86.5428 477.586 85.9426Z" fill="url(#paint35_linear_968_37041)"/>
</g>
<path d="M487.561 110.573L487.561 110.573C490.271 111.205 493.053 110.989 495.951 109.818C502.22 107.286 505.7 104.334 506.584 100.997C507.481 97.6102 506.43 94.6081 503.499 91.9403L503.491 91.9332L503.491 91.9331C502.785 91.2722 502.005 90.6926 501.153 90.1916L501.152 90.1913C500.257 89.6645 499.267 89.1274 498.18 88.58L498.17 88.575L498.17 88.575L490.028 84.3697C488.99 83.8338 488.469 83.055 488.258 82.3641C488.006 81.5419 488.59 80.743 489.837 80.5582C491.211 80.3544 492.647 80.2774 494.142 80.3266C496.202 80.3925 498.223 80.7591 500.198 81.4234C502.146 82.049 504 82.3251 505.775 82.269L505.775 82.269C507.597 82.2124 509.193 81.9029 510.576 81.344C512.735 80.4721 514.128 79.14 514.752 77.3189L514.752 77.3185C515.352 75.5733 514.597 73.6621 512.324 71.5345C508.573 68.0247 504.018 65.3157 498.65 63.394C493.418 61.5209 488.556 61.5008 483.956 63.3587C482.99 63.749 482.15 64.1924 481.434 64.6882C480.7 65.1987 479.975 65.7814 479.262 66.4374L474.224 71.2417C473.584 71.8525 472.475 72.075 471.448 72.1012C470.227 72.1324 468.903 71.6084 468.411 70.7425C467.868 69.7884 467.511 68.8145 467.337 67.822M487.561 110.573L468.145 67.8482M487.561 110.573C484.742 109.917 482.504 108.798 480.806 107.208C479.666 106.142 478.878 104.976 478.444 103.704L478.443 103.703C478.015 102.46 478.109 101.246 478.741 100.052M487.561 110.573L478.741 100.052M467.337 67.822C467.336 67.8218 467.336 67.8216 467.336 67.8215L468.145 67.8482M467.337 67.822C467.337 67.822 467.337 67.8221 467.337 67.8222L468.145 67.8482M467.337 67.822C467.094 66.4545 467.32 65.1627 468.01 63.9523M468.145 67.8482C467.917 66.5613 468.129 65.3473 468.782 64.2062M468.01 63.9523C468.009 63.9539 468.009 63.9555 468.008 63.9572L468.782 64.2062M468.01 63.9523C468.641 62.7608 468.727 61.5372 468.279 60.2719M468.01 63.9523C468.011 63.9505 468.012 63.9488 468.013 63.9471L468.782 64.2062M468.782 64.2062L468.279 60.2719M468.279 60.2719C468.279 60.272 468.279 60.2722 468.279 60.2724L469.071 60.2343L468.279 60.2717C468.279 60.2717 468.279 60.2718 468.279 60.2719ZM468.279 60.2719C467.817 58.9745 467.015 57.7962 465.875 56.7298C464.227 55.1873 462.016 54.0879 459.194 53.4291M468.279 60.2719L459.346 52.9247M459.194 53.4291L459.346 52.9247M459.194 53.4291C459.194 53.4291 459.193 53.429 459.193 53.4289L459.346 52.9247M459.194 53.4291C456.482 52.7986 453.698 53.0151 450.8 54.1858C444.588 56.6952 441.099 59.6038 440.147 62.8788M459.346 52.9247C456.344 52.2267 453.327 52.4899 450.296 53.7143C443.997 56.259 440.347 59.2528 439.346 62.6959M440.147 62.8788C440.147 62.8787 440.147 62.8787 440.147 62.8786L439.346 62.6959M440.147 62.8788C439.184 66.2019 440.152 69.1617 442.98 71.8081C443.686 72.4689 444.505 73.0858 445.441 73.6591C446.404 74.2498 447.452 74.84 448.583 75.4297M440.147 62.8788L439.346 62.6959M439.346 62.6959L448.583 75.4297M448.583 75.4297L448.582 75.4289L448.149 75.8314L448.585 75.4308C448.584 75.4304 448.584 75.4301 448.583 75.4297ZM478.741 100.052C479.431 98.8414 479.657 97.5497 479.415 96.1825C479.241 95.1897 478.883 94.2156 478.341 93.2614C477.848 92.3955 476.524 91.8715 475.303 91.9027C474.277 91.9289 473.169 92.1473 472.519 92.7521L467.422 97.498C467.422 97.4984 467.422 97.4988 467.421 97.4992C466.704 98.1581 465.973 98.7605 465.227 99.3069C464.505 99.8354 463.665 100.294 462.706 100.681C459.176 102.107 454.823 102.251 449.555 101.051C444.367 99.867 439.318 97.0462 434.428 92.4695C432.146 90.3345 431.35 88.4352 431.868 86.724C432.406 84.9461 433.724 83.6498 435.818 82.8039C437.266 82.2191 438.942 81.8786 440.858 81.7862C442.726 81.698 444.619 81.9594 446.554 82.5804C448.528 83.2448 450.549 83.6114 452.609 83.6773L478.741 100.052ZM478.09 86.4141C479.744 85.7462 480.707 84.7381 480.952 83.413C481.201 82.0886 480.666 80.8012 479.364 79.5829C478.062 78.3646 476.353 77.5512 474.277 77.1661C472.202 76.7782 470.314 76.9219 468.661 77.5898C467.008 78.2577 466.044 79.2658 465.799 80.5909C465.55 81.9153 466.085 83.2027 467.387 84.421C468.689 85.6393 470.398 86.4527 472.474 86.8378C474.549 87.2257 476.437 87.082 478.09 86.4141Z" stroke="#3E4462" stroke-width="1.38"/>
<g filter="url(#filter8_d_968_37041)">
<path d="M563.39 182.156C560.359 183.381 557.344 183.643 554.344 182.945C551.34 182.245 548.926 181.041 547.101 179.334C545.884 178.195 545.046 176.952 544.585 175.604C544.12 174.255 544.227 172.942 544.904 171.665C545.557 170.524 545.769 169.31 545.541 168.023C545.375 167.076 545.034 166.149 544.518 165.241C544.188 164.661 543.282 164.285 542.402 164.308C541.5 164.331 540.633 164.521 540.144 164.977L535.045 169.724C534.315 170.395 533.569 171.01 532.805 171.569C532.041 172.128 531.154 172.612 530.144 173.02C526.4 174.532 521.799 174.667 516.342 173.423C510.888 172.179 505.681 169.236 500.721 164.595C498.335 162.363 497.428 160.299 498.001 158.405C498.574 156.514 499.989 155.113 502.248 154.201C503.793 153.577 505.577 153.216 507.6 153.118C509.625 153.023 511.674 153.308 513.748 153.975C515.609 154.602 517.509 154.947 519.447 155.009C520.874 155.056 522.241 154.982 523.549 154.788C524.385 154.664 524.811 154.121 524.629 153.529C524.443 152.921 524.006 152.308 523.225 151.905L515.083 147.7C513.931 147.1 512.862 146.498 511.875 145.893C510.889 145.289 510.022 144.636 509.273 143.936C506.279 141.133 505.281 138.01 506.279 134.566C507.28 131.123 510.93 128.129 517.229 125.585C520.26 124.36 523.277 124.097 526.279 124.795C529.281 125.496 531.67 126.678 533.448 128.342C534.665 129.48 535.517 130.734 536.004 132.104C536.489 133.476 536.393 134.799 535.715 136.076C535.063 137.217 534.851 138.431 535.079 139.718C535.245 140.665 535.586 141.592 536.102 142.5C536.432 143.08 537.337 143.456 538.217 143.433C539.118 143.41 539.983 143.217 540.464 142.758L545.504 137.951C546.234 137.281 546.978 136.682 547.735 136.155C548.492 135.631 549.376 135.165 550.387 134.757C555.2 132.813 560.363 132.827 565.875 134.801C571.387 136.774 576.062 139.556 579.898 143.146C582.285 145.379 583.146 147.459 582.483 149.386C581.822 151.316 580.333 152.748 578.015 153.684C576.529 154.285 574.818 154.615 572.881 154.675C570.949 154.736 568.946 154.433 566.872 153.766C565.01 153.139 563.111 152.795 561.172 152.732C559.745 152.686 558.378 152.759 557.07 152.953C556.234 153.077 555.809 153.62 555.99 154.213C556.176 154.82 556.614 155.433 557.394 155.836L565.537 160.041C566.642 160.597 567.653 161.145 568.57 161.685C569.485 162.223 570.317 162.842 571.066 163.543C574.166 166.365 575.252 169.53 574.323 173.04C573.394 176.549 569.749 179.588 563.39 182.156ZM544.521 157.811C546.006 157.211 546.859 156.318 547.078 155.131C547.301 153.945 546.828 152.805 545.659 151.71C544.489 150.616 542.974 149.896 541.115 149.551C539.257 149.204 537.585 149.33 536.099 149.93C534.613 150.53 533.761 151.424 533.541 152.61C533.318 153.796 533.791 154.936 534.961 156.031C536.131 157.126 537.645 157.845 539.504 158.19C541.363 158.537 543.035 158.411 544.521 157.811Z" fill="url(#paint36_linear_968_37041)"/>
</g>
<g filter="url(#filter9_i_968_37041)">
<path d="M563.385 176.17C560.354 177.394 557.339 177.657 554.339 176.958C551.335 176.259 548.921 175.055 547.096 173.347C545.88 172.209 545.042 170.965 544.581 169.617C544.116 168.268 544.222 166.955 544.9 165.678C545.553 164.537 545.765 163.323 545.537 162.036C545.371 161.088 545.03 160.161 544.514 159.253C544.184 158.673 543.279 158.297 542.399 158.32C541.497 158.343 540.629 158.533 540.14 158.989L535.041 163.737C534.312 164.407 533.565 165.023 532.801 165.582C532.038 166.141 531.151 166.625 530.14 167.033C526.396 168.545 521.796 168.68 516.339 167.437C510.885 166.192 505.678 163.249 500.719 158.608C498.333 156.375 497.427 154.311 498 152.417C498.572 150.526 499.988 149.124 502.246 148.212C503.791 147.588 505.575 147.227 507.598 147.129C509.623 147.034 511.672 147.319 513.746 147.986C515.607 148.613 517.507 148.958 519.445 149.02C520.872 149.067 522.239 148.993 523.547 148.799C524.383 148.676 524.808 148.132 524.627 147.539C524.441 146.932 524.003 146.319 523.223 145.916L515.081 141.711C513.929 141.11 512.86 140.508 511.874 139.903C510.887 139.299 510.02 138.646 509.272 137.946C506.277 135.143 505.28 132.02 506.278 128.575C507.279 125.132 510.929 122.138 517.228 119.593C520.259 118.368 523.276 118.105 526.278 118.803C529.279 119.504 531.669 120.686 533.447 122.35C534.663 123.488 535.515 124.743 536.002 126.113C536.487 127.484 536.391 128.808 535.713 130.085C535.061 131.226 534.848 132.44 535.077 133.727C535.243 134.674 535.584 135.602 536.099 136.509C536.429 137.09 537.335 137.465 538.215 137.443C539.115 137.42 539.98 137.226 540.461 136.768L545.502 131.96C546.231 131.29 546.975 130.691 547.733 130.164C548.49 129.64 549.374 129.174 550.384 128.766C555.198 126.821 560.36 126.836 565.872 128.809C571.384 130.782 576.058 133.564 579.894 137.155C582.28 139.388 583.142 141.468 582.479 143.396C581.818 145.326 580.328 146.758 578.011 147.695C576.525 148.295 574.814 148.625 572.877 148.685C570.944 148.746 568.941 148.444 566.868 147.777C565.006 147.15 563.107 146.805 561.169 146.743C559.742 146.696 558.374 146.769 557.066 146.963C556.231 147.087 555.805 147.63 555.986 148.223C556.172 148.831 556.61 149.443 557.39 149.847L565.532 154.052C566.637 154.609 567.649 155.157 568.566 155.696C569.481 156.234 570.313 156.854 571.061 157.554C574.161 160.376 575.247 163.542 574.318 167.052C573.388 170.562 569.744 173.601 563.385 176.17ZM544.517 151.822C546.003 151.222 546.855 150.328 547.075 149.142C547.298 147.956 546.825 146.815 545.655 145.721C544.486 144.626 542.971 143.906 541.112 143.562C539.254 143.214 537.582 143.34 536.096 143.941C534.61 144.541 533.758 145.434 533.539 146.621C533.315 147.807 533.788 148.947 534.958 150.042C536.128 151.137 537.642 151.856 539.501 152.201C541.359 152.549 543.031 152.422 544.517 151.822Z" fill="url(#paint37_linear_968_37041)"/>
</g>
<path d="M554.492 176.454L554.492 176.454C557.201 177.085 559.983 176.869 562.881 175.698C569.15 173.166 572.631 170.214 573.514 166.877C574.411 163.49 573.36 160.488 570.429 157.82L570.421 157.813L570.421 157.813C569.715 157.152 568.935 156.572 568.083 156.071L568.083 156.071C567.188 155.544 566.197 155.007 565.11 154.46L565.1 154.455L565.1 154.455L556.958 150.249C555.921 149.713 555.4 148.934 555.189 148.243C554.937 147.421 555.52 146.622 556.767 146.437C558.142 146.234 559.578 146.157 561.073 146.206C563.133 146.272 565.154 146.638 567.128 147.303C569.077 147.928 570.93 148.204 572.705 148.148L572.706 148.148C574.527 148.092 576.123 147.782 577.507 147.223C579.665 146.351 581.059 145.019 581.683 143.198L581.683 143.198C582.283 141.452 581.528 139.541 579.254 137.413C575.504 133.903 570.948 131.194 565.581 129.273C560.349 127.399 555.487 127.379 550.888 129.237C549.922 129.628 549.082 130.071 548.365 130.567C547.631 131.077 546.907 131.66 546.193 132.316L541.155 137.121C540.515 137.732 539.406 137.954 538.379 137.98C537.159 138.011 535.834 137.487 535.342 136.621C534.8 135.667 534.442 134.693 534.268 133.701M554.492 176.454L535.077 133.727M554.492 176.454C551.673 175.797 549.435 174.678 547.736 173.089C546.597 172.023 545.809 170.857 545.374 169.584L545.374 169.583C544.946 168.34 545.039 167.126 545.672 165.932M554.492 176.454L545.672 165.932M534.268 133.701C534.268 133.701 534.268 133.701 534.268 133.7L535.077 133.727M534.268 133.701C534.268 133.701 534.268 133.701 534.268 133.701L535.077 133.727M534.268 133.701C534.025 132.333 534.251 131.042 534.942 129.831M535.077 133.727C534.848 132.44 535.061 131.226 535.713 130.085M534.942 129.831C534.941 129.833 534.94 129.834 534.939 129.836L535.713 130.085M534.942 129.831C535.573 128.64 535.658 127.416 535.21 126.15M534.942 129.831C534.943 129.829 534.944 129.828 534.945 129.826L535.713 130.085M535.713 130.085L535.21 126.15M535.21 126.15C535.211 126.151 535.211 126.151 535.211 126.151L536.002 126.113L535.21 126.15C535.21 126.15 535.21 126.15 535.21 126.15ZM535.21 126.15C534.749 124.853 533.946 123.675 532.807 122.608C531.159 121.066 528.948 119.966 526.126 119.308M535.21 126.15L526.278 118.803M526.126 119.308L526.278 118.803M526.126 119.308C526.125 119.307 526.125 119.307 526.125 119.307L526.278 118.803M526.126 119.308C523.413 118.677 520.63 118.893 517.732 120.064C511.52 122.574 508.031 125.483 507.079 128.758M526.278 118.803C523.276 118.105 520.259 118.368 517.228 119.593C510.929 122.138 507.279 125.132 506.278 128.575M507.079 128.758C507.079 128.758 507.079 128.758 507.079 128.757L506.278 128.575M507.079 128.758C506.116 132.081 507.084 135.041 509.911 137.687C510.617 138.348 511.437 138.965 512.372 139.538C513.336 140.129 514.383 140.719 515.515 141.309M507.079 128.758L506.278 128.575M506.278 128.575L515.515 141.309M515.515 141.309L515.513 141.308L515.081 141.711L515.517 141.31C515.516 141.31 515.515 141.309 515.515 141.309ZM545.672 165.932C546.362 164.721 546.588 163.43 546.346 162.062C546.171 161.07 545.814 160.095 545.271 159.141C544.779 158.275 543.455 157.751 542.234 157.782C541.208 157.809 540.1 158.027 539.45 158.632L534.353 163.378C534.353 163.378 534.352 163.379 534.352 163.379C533.635 164.038 532.904 164.641 532.157 165.187C531.436 165.716 530.596 166.174 529.636 166.561C526.107 167.987 521.754 168.131 516.486 166.931C511.298 165.747 506.249 162.926 501.359 158.349C499.078 156.214 498.282 154.315 498.8 152.604C499.338 150.826 500.656 149.529 502.75 148.684C504.198 148.099 505.873 147.758 507.789 147.666C509.657 147.578 511.55 147.839 513.485 148.46C515.459 149.124 517.481 149.491 519.54 149.557L545.672 165.932ZM545.021 152.294C546.674 151.626 547.638 150.618 547.883 149.292C548.132 147.968 547.597 146.681 546.295 145.462C544.993 144.244 543.284 143.43 541.208 143.045C539.133 142.657 537.246 142.801 535.592 143.469C533.939 144.137 532.975 145.145 532.73 146.47C532.481 147.795 533.017 149.082 534.318 150.301C535.62 151.519 537.329 152.332 539.405 152.717C541.48 153.105 543.368 152.962 545.021 152.294Z" stroke="#3E4462" stroke-width="1.38"/>
<g filter="url(#filter10_d_968_37041)">
<path d="M627.318 248.042C624.287 249.267 621.271 249.529 618.272 248.831C615.268 248.131 612.854 246.927 611.029 245.219C609.813 244.081 608.975 242.837 608.514 241.489C608.049 240.139 608.156 238.826 608.833 237.549C609.486 236.408 609.698 235.194 609.47 233.907C609.304 232.96 608.963 232.032 608.447 231.125C608.118 230.544 607.212 230.168 606.332 230.191C605.43 230.214 604.563 230.405 604.074 230.86L598.975 235.608C598.245 236.279 597.499 236.894 596.735 237.454C595.971 238.013 595.084 238.497 594.074 238.905C590.33 240.417 585.73 240.552 580.273 239.308C574.819 238.064 569.613 235.121 564.654 230.479C562.268 228.246 561.362 226.182 561.935 224.288C562.507 222.397 563.923 220.995 566.181 220.083C567.726 219.458 569.51 219.098 571.533 219C573.558 218.904 575.607 219.19 577.68 219.857C579.542 220.484 581.441 220.828 583.379 220.89C584.806 220.937 586.173 220.864 587.481 220.67C588.317 220.546 588.743 220.003 588.561 219.41C588.375 218.802 587.938 218.19 587.157 217.786L579.016 213.581C577.864 212.981 576.795 212.378 575.809 211.773C574.822 211.169 573.955 210.516 573.207 209.816C570.213 207.013 569.215 203.889 570.214 200.444C571.214 197.001 574.864 194.006 581.164 191.461C584.195 190.237 587.211 189.973 590.213 190.671C593.214 191.372 595.604 192.554 597.382 194.218C598.598 195.357 599.45 196.611 599.937 197.982C600.422 199.353 600.325 200.677 599.648 201.954C598.995 203.095 598.783 204.309 599.011 205.597C599.177 206.544 599.518 207.471 600.034 208.379C600.364 208.959 601.269 209.335 602.149 209.313C603.05 209.29 603.915 209.096 604.395 208.638L609.436 203.83C610.166 203.159 610.909 202.56 611.667 202.033C612.424 201.509 613.308 201.043 614.318 200.635C619.132 198.69 624.294 198.704 629.806 200.678C635.317 202.651 639.991 205.433 643.827 209.024C646.213 211.257 647.075 213.338 646.412 215.266C645.751 217.195 644.261 218.628 641.944 219.565C640.458 220.165 638.747 220.495 636.81 220.556C634.878 220.617 632.874 220.314 630.801 219.647C628.94 219.02 627.04 218.675 625.102 218.613C623.675 218.566 622.308 218.64 621 218.833C620.164 218.957 619.739 219.501 619.92 220.094C620.106 220.701 620.543 221.314 621.324 221.717L629.465 225.923C630.57 226.479 631.582 227.027 632.498 227.567C633.414 228.105 634.245 228.724 634.994 229.425C638.094 232.247 639.179 235.414 638.25 238.924C637.321 242.434 633.676 245.473 627.318 248.042ZM608.451 223.693C609.937 223.093 610.789 222.199 611.008 221.012C611.232 219.826 610.759 218.686 609.589 217.591C608.42 216.496 606.905 215.776 605.046 215.432C603.188 215.084 601.516 215.21 600.03 215.811C598.545 216.411 597.692 217.304 597.473 218.491C597.249 219.677 597.723 220.818 598.892 221.913C600.062 223.007 601.576 223.727 603.435 224.072C605.293 224.419 606.965 224.293 608.451 223.693Z" fill="url(#paint38_linear_968_37041)"/>
</g>
<g filter="url(#filter11_i_968_37041)">
<path d="M627.327 242.048C624.296 243.272 621.28 243.535 618.28 242.836C615.276 242.136 612.862 240.933 611.037 239.225C609.821 238.087 608.982 236.843 608.521 235.495C608.057 234.146 608.163 232.833 608.841 231.556C609.493 230.415 609.705 229.201 609.477 227.914C609.311 226.967 608.97 226.04 608.454 225.133C608.124 224.552 607.219 224.176 606.339 224.199C605.437 224.222 604.569 224.413 604.08 224.868L598.981 229.615C598.252 230.286 597.505 230.901 596.741 231.46C595.978 232.019 595.091 232.503 594.08 232.911C590.336 234.423 585.736 234.558 580.279 233.315C574.824 232.07 569.617 229.128 564.658 224.487C562.272 222.254 561.365 220.19 561.938 218.296C562.511 216.405 563.926 215.004 566.184 214.092C567.73 213.468 569.514 213.107 571.537 213.009C573.561 212.913 575.611 213.199 577.684 213.866C579.546 214.493 581.445 214.837 583.384 214.9C584.811 214.947 586.178 214.873 587.486 214.679C588.322 214.555 588.747 214.012 588.566 213.419C588.38 212.812 587.942 212.199 587.162 211.796L579.02 207.591C577.868 206.991 576.798 206.388 575.812 205.784C574.826 205.179 573.958 204.527 573.21 203.826C570.215 201.024 569.217 197.901 570.216 194.456C571.216 191.013 574.866 188.02 581.166 185.475C584.197 184.251 587.214 183.988 590.216 184.686C593.217 185.386 595.607 186.568 597.385 188.232C598.602 189.371 599.454 190.625 599.941 191.995C600.426 193.366 600.33 194.69 599.652 195.967C598.999 197.108 598.787 198.322 599.016 199.608C599.182 200.556 599.523 201.483 600.039 202.39C600.368 202.971 601.274 203.346 602.154 203.324C603.055 203.301 603.92 203.107 604.4 202.649L609.441 197.842C610.171 197.171 610.914 196.572 611.672 196.046C612.429 195.522 613.313 195.056 614.323 194.648C619.137 192.703 624.3 192.718 629.812 194.691C635.324 196.664 639.998 199.446 643.835 203.036C646.221 205.269 647.083 207.35 646.42 209.277C645.759 211.206 644.269 212.639 641.952 213.575C640.466 214.175 638.754 214.506 636.818 214.566C634.885 214.627 632.882 214.324 630.808 213.657C628.947 213.03 627.047 212.685 625.109 212.623C623.682 212.576 622.314 212.65 621.007 212.844C620.171 212.968 619.745 213.511 619.927 214.103C620.113 214.711 620.55 215.324 621.331 215.727L629.473 219.932C630.578 220.488 631.589 221.036 632.506 221.576C633.422 222.114 634.254 222.733 635.002 223.434C638.103 226.256 639.188 229.421 638.259 232.931C637.33 236.44 633.686 239.479 627.327 242.048ZM608.457 217.702C609.943 217.102 610.795 216.208 611.014 215.022C611.238 213.836 610.765 212.696 609.595 211.601C608.425 210.506 606.911 209.787 605.052 209.442C603.193 209.095 601.521 209.221 600.035 209.821C598.55 210.421 597.697 211.314 597.478 212.501C597.255 213.687 597.728 214.827 598.898 215.922C600.067 217.016 601.582 217.736 603.441 218.081C605.299 218.428 606.971 218.302 608.457 217.702Z" fill="url(#paint39_linear_968_37041)"/>
</g>
<path d="M618.433 242.332L618.433 242.332C621.143 242.963 623.924 242.747 626.823 241.576C633.092 239.044 636.572 236.093 637.456 232.756C638.353 229.369 637.301 226.367 634.37 223.7L634.362 223.692L634.362 223.692C633.656 223.031 632.876 222.452 632.024 221.951L632.024 221.951C631.129 221.424 630.138 220.887 629.051 220.339L629.041 220.334L629.041 220.334L620.899 216.129C619.861 215.593 619.34 214.815 619.129 214.124C618.877 213.302 619.461 212.503 620.708 212.318C622.082 212.114 623.518 212.037 625.013 212.086C627.073 212.152 629.095 212.519 631.069 213.183C633.017 213.809 634.871 214.085 636.646 214.029L636.647 214.029C638.468 213.972 640.064 213.663 641.448 213.104C643.606 212.232 645 210.9 645.624 209.079L645.624 209.078C646.224 207.333 645.468 205.422 643.195 203.295C639.445 199.785 634.889 197.076 629.521 195.155C624.289 193.282 619.426 193.262 614.827 195.119C613.861 195.509 613.021 195.953 612.304 196.449C611.57 196.959 610.846 197.542 610.132 198.198L605.095 203.002C604.454 203.613 603.346 203.835 602.319 203.861C601.098 203.892 599.773 203.368 599.281 202.503C598.739 201.549 598.381 200.575 598.207 199.582M618.433 242.332L599.016 199.608M618.433 242.332C615.614 241.675 613.375 240.556 611.677 238.967C610.538 237.901 609.75 236.735 609.315 235.462L609.315 235.461C608.886 234.218 608.98 233.004 609.612 231.81M618.433 242.332L609.612 231.81M598.207 199.582C598.207 199.582 598.207 199.582 598.207 199.582L599.016 199.608M598.207 199.582C598.207 199.582 598.207 199.582 598.207 199.582L599.016 199.608M598.207 199.582C597.964 198.215 598.19 196.923 598.88 195.713M599.016 199.608C598.787 198.322 598.999 197.108 599.652 195.967M598.88 195.713C598.88 195.714 598.879 195.716 598.878 195.718L599.652 195.967M598.88 195.713C599.511 194.521 599.597 193.298 599.149 192.033M598.88 195.713C598.881 195.711 598.882 195.709 598.883 195.708L599.652 195.967M599.652 195.967L599.149 192.033M599.149 192.033C599.149 192.033 599.149 192.033 599.149 192.033L599.941 191.995L599.149 192.032C599.149 192.032 599.149 192.033 599.149 192.033ZM599.149 192.033C598.688 190.735 597.885 189.557 596.745 188.491C595.097 186.948 592.886 185.849 590.064 185.19M599.149 192.033L590.216 184.686M590.064 185.19L590.216 184.686M590.064 185.19C590.064 185.19 590.063 185.19 590.063 185.19L590.216 184.686M590.064 185.19C587.351 184.56 584.568 184.776 581.67 185.947C575.458 188.456 571.969 191.364 571.017 194.639M590.216 184.686C587.214 183.988 584.197 184.251 581.166 185.475C574.866 188.02 571.216 191.013 570.216 194.456M571.017 194.639L570.216 194.456M571.017 194.639C570.054 197.962 571.022 200.922 573.85 203.568C574.556 204.229 575.375 204.846 576.311 205.419C577.274 206.009 578.322 206.6 579.453 207.189M571.017 194.639C571.017 194.639 571.017 194.639 571.017 194.639L570.216 194.456M570.216 194.456L579.453 207.189M579.453 207.189L579.452 207.189L579.02 207.591L579.455 207.19C579.454 207.19 579.454 207.19 579.453 207.189ZM609.612 231.81C610.303 230.6 610.528 229.308 610.286 227.941C610.112 226.949 609.754 225.975 609.212 225.02C608.719 224.155 607.395 223.631 606.174 223.662C605.148 223.688 604.04 223.906 603.39 224.511L598.293 229.257C598.293 229.257 598.292 229.257 598.292 229.258C597.575 229.917 596.844 230.519 596.097 231.065C595.376 231.594 594.536 232.052 593.576 232.44C590.047 233.865 585.694 234.009 580.425 232.809C575.237 231.625 570.188 228.805 565.298 224.228C563.016 222.093 562.22 220.194 562.738 218.483C563.276 216.705 564.594 215.409 566.688 214.563C568.136 213.978 569.812 213.638 571.728 213.546C573.596 213.457 575.489 213.719 577.424 214.34L609.612 231.81ZM583.478 215.437C583.478 215.437 583.479 215.437 583.479 215.437L583.384 214.9L583.478 215.437ZM608.961 218.173C610.614 217.506 611.578 216.498 611.823 215.172C612.072 213.848 611.537 212.561 610.235 211.343C608.933 210.124 607.224 209.311 605.148 208.926C603.072 208.538 601.185 208.682 599.532 209.349C597.878 210.017 596.914 211.025 596.669 212.35C596.42 213.675 596.956 214.962 598.258 216.18C599.56 217.399 601.269 218.212 603.345 218.597C605.42 218.985 607.308 218.841 608.961 218.173Z" stroke="#3E4462" stroke-width="1.38"/>
<g filter="url(#filter12_d_968_37041)">
<rect width="44.9505" height="41.9405" rx="9.75" transform="matrix(0.935285 -0.353895 0.698097 0.716003 52.0024 127.031)" fill="#D9D9D9"/>
<rect width="44.9505" height="41.9405" rx="9.75" transform="matrix(0.935285 -0.353895 0.698097 0.716003 52.0024 127.031)" fill="url(#paint40_linear_968_37041)"/>
<rect width="44.9505" height="41.9405" rx="9.75" transform="matrix(0.935285 -0.353895 0.698097 0.716003 52.0024 127.031)" fill="url(#paint41_linear_968_37041)"/>
</g>
<rect width="44.9505" height="41.9405" rx="9.75" transform="matrix(0.935285 -0.353895 0.698097 0.716003 52.002 122.04)" fill="url(#paint42_linear_968_37041)"/>
<rect width="44.9505" height="41.9405" rx="9.75" transform="matrix(0.935285 -0.353895 0.698097 0.716003 52.002 122.04)" fill="url(#paint43_linear_968_37041)"/>
<g filter="url(#filter13_d_968_37041)">
<rect width="44.9505" height="41.9405" rx="9.75" transform="matrix(0.935285 -0.353895 0.698097 0.716003 102.951 107.067)" fill="#D9D9D9"/>
<rect width="44.9505" height="41.9405" rx="9.75" transform="matrix(0.935285 -0.353895 0.698097 0.716003 102.951 107.067)" fill="url(#paint44_linear_968_37041)"/>
</g>
<rect width="44.9505" height="41.9405" rx="9.75" transform="matrix(0.935285 -0.353895 0.698097 0.716003 102.952 102.076)" fill="url(#paint45_linear_968_37041)"/>
<rect width="44.9505" height="41.9405" rx="9.75" transform="matrix(0.935285 -0.353895 0.698097 0.716003 102.952 102.076)" fill="url(#paint46_linear_968_37041)"/>
<g filter="url(#filter14_d_968_37041)">
<rect width="44.9505" height="41.9405" rx="9.75" transform="matrix(0.935285 -0.353895 0.698097 0.716003 153.9 87.1033)" fill="#D9D9D9"/>
<rect width="44.9505" height="41.9405" rx="9.75" transform="matrix(0.935285 -0.353895 0.698097 0.716003 153.9 87.1033)" fill="url(#paint47_linear_968_37041)"/>
<rect width="44.9505" height="41.9405" rx="9.75" transform="matrix(0.935285 -0.353895 0.698097 0.716003 153.9 87.1033)" fill="url(#paint48_linear_968_37041)"/>
</g>
<rect width="44.9505" height="41.9405" rx="9.75" transform="matrix(0.935285 -0.353895 0.698097 0.716003 153.899 82.1119)" fill="url(#paint49_linear_968_37041)"/>
<g filter="url(#filter15_d_968_37041)">
<rect width="44.9505" height="41.9405" rx="9.75" transform="matrix(0.935285 -0.353895 0.698097 0.716003 205.849 67.1396)" fill="#D9D9D9"/>
<rect width="44.9505" height="41.9405" rx="9.75" transform="matrix(0.935285 -0.353895 0.698097 0.716003 205.849 67.1396)" fill="url(#paint50_linear_968_37041)"/>
<rect width="44.9505" height="41.9405" rx="9.75" transform="matrix(0.935285 -0.353895 0.698097 0.716003 205.849 67.1396)" fill="url(#paint51_linear_968_37041)"/>
</g>
<rect width="44.9505" height="41.9405" rx="9.75" transform="matrix(0.935285 -0.353895 0.698097 0.716003 205.848 62.1483)" fill="url(#paint52_linear_968_37041)"/>
<rect width="44.9505" height="41.9405" rx="9.75" transform="matrix(0.935285 -0.353895 0.698097 0.716003 205.848 62.1483)" fill="url(#paint53_linear_968_37041)"/>
<g filter="url(#filter16_d_968_37041)">
<rect width="44.9505" height="41.9405" rx="9.75" transform="matrix(0.935285 -0.353895 0.698097 0.716003 256.797 47.1761)" fill="#D9D9D9"/>
<rect width="44.9505" height="41.9405" rx="9.75" transform="matrix(0.935285 -0.353895 0.698097 0.716003 256.797 47.1761)" fill="url(#paint54_linear_968_37041)"/>
</g>
<rect width="44.9505" height="41.9405" rx="9.75" transform="matrix(0.935285 -0.353895 0.698097 0.716003 256.797 42.1847)" fill="url(#paint55_linear_968_37041)"/>
<defs>
<filter id="filter0_d_968_37041" x="21.9976" y="30.9374" width="572.106" height="402.085" filterUnits="userSpaceOnUse" color-interpolation-filters="sRGB">
<feFlood flood-opacity="0" result="BackgroundImageFix"/>
<feColorMatrix in="SourceAlpha" type="matrix" values="0 0 0 0 0 0 0 0 0 0 0 0 0 0 0 0 0 0 127 0" result="hardAlpha"/>
<feOffset dy="10"/>
<feGaussianBlur stdDeviation="5"/>
<feComposite in2="hardAlpha" operator="out"/>
<feColorMatrix type="matrix" values="0 0 0 0 0.0625 0 0 0 0 0.0625 0 0 0 0 0.0625 0 0 0 0.12 0"/>
<feBlend mode="normal" in2="BackgroundImageFix" result="effect1_dropShadow_968_37041"/>
<feBlend mode="normal" in="SourceGraphic" in2="effect1_dropShadow_968_37041" result="shape"/>
</filter>
<filter id="filter1_i_968_37041" x="32.9956" y="8.97681" width="553.512" height="388.342" filterUnits="userSpaceOnUse" color-interpolation-filters="sRGB">
<feFlood flood-opacity="0" result="BackgroundImageFix"/>
<feBlend mode="normal" in="SourceGraphic" in2="BackgroundImageFix" result="shape"/>
<feColorMatrix in="SourceAlpha" type="matrix" values="0 0 0 0 0 0 0 0 0 0 0 0 0 0 0 0 0 0 127 0" result="hardAlpha"/>
<feOffset dy="4.83828"/>
<feGaussianBlur stdDeviation="8.46699"/>
<feComposite in2="hardAlpha" operator="arithmetic" k2="-1" k3="1"/>
<feColorMatrix type="matrix" values="0 0 0 0 0 0 0 0 0 0 0 0 0 0 0 0 0 0 0.04 0"/>
<feBlend mode="normal" in2="shape" result="effect1_innerShadow_968_37041"/>
</filter>
<filter id="filter2_dddd_968_37041" x="239.36" y="128.41" width="206.699" height="113.618" filterUnits="userSpaceOnUse" color-interpolation-filters="sRGB">
<feFlood flood-opacity="0" result="BackgroundImageFix"/>
<feColorMatrix in="SourceAlpha" type="matrix" values="0 0 0 0 0 0 0 0 0 0 0 0 0 0 0 0 0 0 127 0" result="hardAlpha"/>
<feOffset/>
<feColorMatrix type="matrix" values="0 0 0 0 0.980392 0 0 0 0 0.529412 0 0 0 0 0.521569 0 0 0 0.2 0"/>
<feBlend mode="normal" in2="BackgroundImageFix" result="effect1_dropShadow_968_37041"/>
<feColorMatrix in="SourceAlpha" type="matrix" values="0 0 0 0 0 0 0 0 0 0 0 0 0 0 0 0 0 0 127 0" result="hardAlpha"/>
<feOffset dx="1.5" dy="5.25"/>
<feGaussianBlur stdDeviation="6"/>
<feColorMatrix type="matrix" values="0 0 0 0 0.980392 0 0 0 0 0.529412 0 0 0 0 0.521569 0 0 0 0.2 0"/>
<feBlend mode="normal" in2="effect1_dropShadow_968_37041" result="effect2_dropShadow_968_37041"/>
<feColorMatrix in="SourceAlpha" type="matrix" values="0 0 0 0 0 0 0 0 0 0 0 0 0 0 0 0 0 0 127 0" result="hardAlpha"/>
<feOffset dx="6.75" dy="21"/>
<feGaussianBlur stdDeviation="10.875"/>
<feColorMatrix type="matrix" values="0 0 0 0 0.980392 0 0 0 0 0.529412 0 0 0 0 0.521569 0 0 0 0.17 0"/>
<feBlend mode="normal" in2="effect2_dropShadow_968_37041" result="effect3_dropShadow_968_37041"/>
<feColorMatrix in="SourceAlpha" type="matrix" values="0 0 0 0 0 0 0 0 0 0 0 0 0 0 0 0 0 0 127 0" result="hardAlpha"/>
<feOffset dx="15.75" dy="35"/>
<feGaussianBlur stdDeviation="14.625"/>
<feColorMatrix type="matrix" values="0 0 0 0 0.980392 0 0 0 0 0.529412 0 0 0 0 0.521569 0 0 0 0.1 0"/>
<feBlend mode="normal" in2="effect3_dropShadow_968_37041" result="effect4_dropShadow_968_37041"/>
<feBlend mode="normal" in="SourceGraphic" in2="effect4_dropShadow_968_37041" result="shape"/>
</filter>
<filter id="filter3_d_968_37041" x="372.144" y="163.176" width="138.061" height="216.656" filterUnits="userSpaceOnUse" color-interpolation-filters="sRGB">
<feFlood flood-opacity="0" result="BackgroundImageFix"/>
<feColorMatrix in="SourceAlpha" type="matrix" values="0 0 0 0 0 0 0 0 0 0 0 0 0 0 0 0 0 0 127 0" result="hardAlpha"/>
<feOffset dx="27.75" dy="82.5"/>
<feGaussianBlur stdDeviation="17.625"/>
<feColorMatrix type="matrix" values="0 0 0 0 0.345098 0 0 0 0 0.913725 0 0 0 0 0.572549 0 0 0 0.03 0"/>
<feBlend mode="normal" in2="BackgroundImageFix" result="effect1_dropShadow_968_37041"/>
<feBlend mode="normal" in="SourceGraphic" in2="effect1_dropShadow_968_37041" result="shape"/>
</filter>
<filter id="filter4_ddddd_968_37041" x="371.694" y="161.688" width="128.373" height="166.885" filterUnits="userSpaceOnUse" color-interpolation-filters="sRGB">
<feFlood flood-opacity="0" result="BackgroundImageFix"/>
<feColorMatrix in="SourceAlpha" type="matrix" values="0 0 0 0 0 0 0 0 0 0 0 0 0 0 0 0 0 0 127 0" result="hardAlpha"/>
<feOffset/>
<feColorMatrix type="matrix" values="0 0 0 0 0.266667 0 0 0 0 0.901961 0 0 0 0 0.611765 0 0 0 0.2 0"/>
<feBlend mode="normal" in2="BackgroundImageFix" result="effect1_dropShadow_968_37041"/>
<feColorMatrix in="SourceAlpha" type="matrix" values="0 0 0 0 0 0 0 0 0 0 0 0 0 0 0 0 0 0 127 0" result="hardAlpha"/>
<feOffset dx="1.5" dy="5.25"/>
<feGaussianBlur stdDeviation="6"/>
<feColorMatrix type="matrix" values="0 0 0 0 0.972549 0 0 0 0 0.486275 0 0 0 0 0.403922 0 0 0 0.2 0"/>
<feBlend mode="normal" in2="effect1_dropShadow_968_37041" result="effect2_dropShadow_968_37041"/>
<feColorMatrix in="SourceAlpha" type="matrix" values="0 0 0 0 0 0 0 0 0 0 0 0 0 0 0 0 0 0 127 0" result="hardAlpha"/>
<feOffset dx="6.75" dy="21"/>
<feGaussianBlur stdDeviation="10.875"/>
<feColorMatrix type="matrix" values="0 0 0 0 0.972549 0 0 0 0 0.486275 0 0 0 0 0.403922 0 0 0 0.17 0"/>
<feBlend mode="normal" in2="effect2_dropShadow_968_37041" result="effect3_dropShadow_968_37041"/>
<feColorMatrix in="SourceAlpha" type="matrix" values="0 0 0 0 0 0 0 0 0 0 0 0 0 0 0 0 0 0 127 0" result="hardAlpha"/>
<feOffset dx="15.75" dy="46.5"/>
<feGaussianBlur stdDeviation="14.625"/>
<feColorMatrix type="matrix" values="0 0 0 0 0.972549 0 0 0 0 0.486275 0 0 0 0 0.403922 0 0 0 0.2 0"/>
<feBlend mode="normal" in2="effect3_dropShadow_968_37041" result="effect4_dropShadow_968_37041"/>
<feColorMatrix in="SourceAlpha" type="matrix" values="0 0 0 0 0 0 0 0 0 0 0 0 0 0 0 0 0 0 127 0" result="hardAlpha"/>
<feOffset dx="27.75" dy="82.5"/>
<feGaussianBlur stdDeviation="17.625"/>
<feColorMatrix type="matrix" values="0 0 0 0 0.345098 0 0 0 0 0.913725 0 0 0 0 0.572549 0 0 0 0.03 0"/>
<feBlend mode="normal" in2="effect4_dropShadow_968_37041" result="effect5_dropShadow_968_37041"/>
<feBlend mode="normal" in="SourceGraphic" in2="effect5_dropShadow_968_37041" result="shape"/>
</filter>
<filter id="filter5_dd_968_37041" x="182.454" y="141.19" width="284.75" height="199.128" filterUnits="userSpaceOnUse" color-interpolation-filters="sRGB">
<feFlood flood-opacity="0" result="BackgroundImageFix"/>
<feColorMatrix in="SourceAlpha" type="matrix" values="0 0 0 0 0 0 0 0 0 0 0 0 0 0 0 0 0 0 127 0" result="hardAlpha"/>
<feOffset/>
<feColorMatrix type="matrix" values="0 0 0 0 0.266667 0 0 0 0 0.901961 0 0 0 0 0.611765 0 0 0 0.12 0"/>
<feBlend mode="normal" in2="BackgroundImageFix" result="effect1_dropShadow_968_37041"/>
<feColorMatrix in="SourceAlpha" type="matrix" values="0 0 0 0 0 0 0 0 0 0 0 0 0 0 0 0 0 0 127 0" result="hardAlpha"/>
<feOffset dx="1" dy="19"/>
<feGaussianBlur stdDeviation="9.5"/>
<feColorMatrix type="matrix" values="0 0 0 0 0.266667 0 0 0 0 0.901961 0 0 0 0 0.611765 0 0 0 0.12 0"/>
<feBlend mode="normal" in2="effect1_dropShadow_968_37041" result="effect2_dropShadow_968_37041"/>
<feBlend mode="normal" in="SourceGraphic" in2="effect2_dropShadow_968_37041" result="shape"/>
</filter>
<filter id="filter6_d_968_37041" x="420.902" y="58.5332" width="104.862" height="78.9142" filterUnits="userSpaceOnUse" color-interpolation-filters="sRGB">
<feFlood flood-opacity="0" result="BackgroundImageFix"/>
<feColorMatrix in="SourceAlpha" type="matrix" values="0 0 0 0 0 0 0 0 0 0 0 0 0 0 0 0 0 0 127 0" result="hardAlpha"/>
<feOffset dy="10"/>
<feGaussianBlur stdDeviation="5"/>
<feComposite in2="hardAlpha" operator="out"/>
<feColorMatrix type="matrix" values="0 0 0 0 0.0625 0 0 0 0 0.0625 0 0 0 0 0.0625 0 0 0 0.12 0"/>
<feBlend mode="normal" in2="BackgroundImageFix" result="effect1_dropShadow_968_37041"/>
<feBlend mode="normal" in="SourceGraphic" in2="effect1_dropShadow_968_37041" result="shape"/>
</filter>
<filter id="filter7_i_968_37041" x="430.902" y="52.5446" width="84.8623" height="61.6668" filterUnits="userSpaceOnUse" color-interpolation-filters="sRGB">
<feFlood flood-opacity="0" result="BackgroundImageFix"/>
<feBlend mode="normal" in="SourceGraphic" in2="BackgroundImageFix" result="shape"/>
<feColorMatrix in="SourceAlpha" type="matrix" values="0 0 0 0 0 0 0 0 0 0 0 0 0 0 0 0 0 0 127 0" result="hardAlpha"/>
<feOffset dy="2.75257"/>
<feGaussianBlur stdDeviation="4.81699"/>
<feComposite in2="hardAlpha" operator="arithmetic" k2="-1" k3="1"/>
<feColorMatrix type="matrix" values="0 0 0 0 0 0 0 0 0 0 0 0 0 0 0 0 0 0 0.04 0"/>
<feBlend mode="normal" in2="shape" result="effect1_innerShadow_968_37041"/>
</filter>
<filter id="filter8_d_968_37041" x="487.835" y="124.415" width="104.865" height="78.9103" filterUnits="userSpaceOnUse" color-interpolation-filters="sRGB">
<feFlood flood-opacity="0" result="BackgroundImageFix"/>
<feColorMatrix in="SourceAlpha" type="matrix" values="0 0 0 0 0 0 0 0 0 0 0 0 0 0 0 0 0 0 127 0" result="hardAlpha"/>
<feOffset dy="10"/>
<feGaussianBlur stdDeviation="5"/>
<feComposite in2="hardAlpha" operator="out"/>
<feColorMatrix type="matrix" values="0 0 0 0 0.0625 0 0 0 0 0.0625 0 0 0 0 0.0625 0 0 0 0.12 0"/>
<feBlend mode="normal" in2="BackgroundImageFix" result="effect1_dropShadow_968_37041"/>
<feBlend mode="normal" in="SourceGraphic" in2="effect1_dropShadow_968_37041" result="shape"/>
</filter>
<filter id="filter9_i_968_37041" x="497.833" y="118.423" width="84.8613" height="61.6688" filterUnits="userSpaceOnUse" color-interpolation-filters="sRGB">
<feFlood flood-opacity="0" result="BackgroundImageFix"/>
<feBlend mode="normal" in="SourceGraphic" in2="BackgroundImageFix" result="shape"/>
<feColorMatrix in="SourceAlpha" type="matrix" values="0 0 0 0 0 0 0 0 0 0 0 0 0 0 0 0 0 0 127 0" result="hardAlpha"/>
<feOffset dy="2.75257"/>
<feGaussianBlur stdDeviation="4.81699"/>
<feComposite in2="hardAlpha" operator="arithmetic" k2="-1" k3="1"/>
<feColorMatrix type="matrix" values="0 0 0 0 0 0 0 0 0 0 0 0 0 0 0 0 0 0 0.04 0"/>
<feBlend mode="normal" in2="shape" result="effect1_innerShadow_968_37041"/>
</filter>
<filter id="filter10_d_968_37041" x="551.768" y="190.291" width="104.86" height="78.9202" filterUnits="userSpaceOnUse" color-interpolation-filters="sRGB">
<feFlood flood-opacity="0" result="BackgroundImageFix"/>
<feColorMatrix in="SourceAlpha" type="matrix" values="0 0 0 0 0 0 0 0 0 0 0 0 0 0 0 0 0 0 127 0" result="hardAlpha"/>
<feOffset dy="10"/>
<feGaussianBlur stdDeviation="5"/>
<feComposite in2="hardAlpha" operator="out"/>
<feColorMatrix type="matrix" values="0 0 0 0 0.0625 0 0 0 0 0.0625 0 0 0 0 0.0625 0 0 0 0.12 0"/>
<feBlend mode="normal" in2="BackgroundImageFix" result="effect1_dropShadow_968_37041"/>
<feBlend mode="normal" in="SourceGraphic" in2="effect1_dropShadow_968_37041" result="shape"/>
</filter>
<filter id="filter11_i_968_37041" x="561.772" y="184.306" width="84.8638" height="61.6638" filterUnits="userSpaceOnUse" color-interpolation-filters="sRGB">
<feFlood flood-opacity="0" result="BackgroundImageFix"/>
<feBlend mode="normal" in="SourceGraphic" in2="BackgroundImageFix" result="shape"/>
<feColorMatrix in="SourceAlpha" type="matrix" values="0 0 0 0 0 0 0 0 0 0 0 0 0 0 0 0 0 0 127 0" result="hardAlpha"/>
<feOffset dy="2.75257"/>
<feGaussianBlur stdDeviation="4.81699"/>
<feComposite in2="hardAlpha" operator="arithmetic" k2="-1" k3="1"/>
<feColorMatrix type="matrix" values="0 0 0 0 0 0 0 0 0 0 0 0 0 0 0 0 0 0 0.04 0"/>
<feBlend mode="normal" in2="shape" result="effect1_innerShadow_968_37041"/>
</filter>
<filter id="filter12_d_968_37041" x="42.2983" y="113.766" width="90.7285" height="72.9022" filterUnits="userSpaceOnUse" color-interpolation-filters="sRGB">
<feFlood flood-opacity="0" result="BackgroundImageFix"/>
<feColorMatrix in="SourceAlpha" type="matrix" values="0 0 0 0 0 0 0 0 0 0 0 0 0 0 0 0 0 0 127 0" result="hardAlpha"/>
<feOffset dy="18"/>
<feGaussianBlur stdDeviation="7.125"/>
<feComposite in2="hardAlpha" operator="out"/>
<feColorMatrix type="matrix" values="0 0 0 0 0.266667 0 0 0 0 0.901961 0 0 0 0 0.611765 0 0 0 0.1 0"/>
<feBlend mode="normal" in2="BackgroundImageFix" result="effect1_dropShadow_968_37041"/>
<feBlend mode="normal" in="SourceGraphic" in2="effect1_dropShadow_968_37041" result="shape"/>
</filter>
<filter id="filter13_d_968_37041" x="93.2471" y="93.8022" width="90.7285" height="72.9022" filterUnits="userSpaceOnUse" color-interpolation-filters="sRGB">
<feFlood flood-opacity="0" result="BackgroundImageFix"/>
<feColorMatrix in="SourceAlpha" type="matrix" values="0 0 0 0 0 0 0 0 0 0 0 0 0 0 0 0 0 0 127 0" result="hardAlpha"/>
<feOffset dy="18"/>
<feGaussianBlur stdDeviation="7.125"/>
<feComposite in2="hardAlpha" operator="out"/>
<feColorMatrix type="matrix" values="0 0 0 0 0.980392 0 0 0 0 0.529412 0 0 0 0 0.521569 0 0 0 0.13 0"/>
<feBlend mode="normal" in2="BackgroundImageFix" result="effect1_dropShadow_968_37041"/>
<feBlend mode="normal" in="SourceGraphic" in2="effect1_dropShadow_968_37041" result="shape"/>
</filter>
<filter id="filter14_d_968_37041" x="144.196" y="73.8381" width="90.7285" height="72.9022" filterUnits="userSpaceOnUse" color-interpolation-filters="sRGB">
<feFlood flood-opacity="0" result="BackgroundImageFix"/>
<feColorMatrix in="SourceAlpha" type="matrix" values="0 0 0 0 0 0 0 0 0 0 0 0 0 0 0 0 0 0 127 0" result="hardAlpha"/>
<feOffset dy="18"/>
<feGaussianBlur stdDeviation="7.125"/>
<feComposite in2="hardAlpha" operator="out"/>
<feColorMatrix type="matrix" values="0 0 0 0 0.835294 0 0 0 0 0.819608 0 0 0 0 0.823529 0 0 0 0.2 0"/>
<feBlend mode="normal" in2="BackgroundImageFix" result="effect1_dropShadow_968_37041"/>
<feBlend mode="normal" in="SourceGraphic" in2="effect1_dropShadow_968_37041" result="shape"/>
</filter>
<filter id="filter15_d_968_37041" x="196.145" y="53.8745" width="90.7285" height="72.9022" filterUnits="userSpaceOnUse" color-interpolation-filters="sRGB">
<feFlood flood-opacity="0" result="BackgroundImageFix"/>
<feColorMatrix in="SourceAlpha" type="matrix" values="0 0 0 0 0 0 0 0 0 0 0 0 0 0 0 0 0 0 127 0" result="hardAlpha"/>
<feOffset dy="18"/>
<feGaussianBlur stdDeviation="7.125"/>
<feComposite in2="hardAlpha" operator="out"/>
<feColorMatrix type="matrix" values="0 0 0 0 0.972549 0 0 0 0 0.486275 0 0 0 0 0.403922 0 0 0 0.13 0"/>
<feBlend mode="normal" in2="BackgroundImageFix" result="effect1_dropShadow_968_37041"/>
<feBlend mode="normal" in="SourceGraphic" in2="effect1_dropShadow_968_37041" result="shape"/>
</filter>
<filter id="filter16_d_968_37041" x="247.093" y="33.9109" width="90.7285" height="72.9022" filterUnits="userSpaceOnUse" color-interpolation-filters="sRGB">
<feFlood flood-opacity="0" result="BackgroundImageFix"/>
<feColorMatrix in="SourceAlpha" type="matrix" values="0 0 0 0 0 0 0 0 0 0 0 0 0 0 0 0 0 0 127 0" result="hardAlpha"/>
<feOffset dy="18"/>
<feGaussianBlur stdDeviation="7.125"/>
<feComposite in2="hardAlpha" operator="out"/>
<feColorMatrix type="matrix" values="0 0 0 0 0.964706 0 0 0 0 0.717647 0 0 0 0 0.32549 0 0 0 0.13 0"/>
<feBlend mode="normal" in2="BackgroundImageFix" result="effect1_dropShadow_968_37041"/>
<feBlend mode="normal" in="SourceGraphic" in2="effect1_dropShadow_968_37041" result="shape"/>
</filter>
<linearGradient id="paint0_linear_968_37041" x1="22.9769" y1="436.079" x2="-152.279" y2="88.2241" gradientUnits="userSpaceOnUse">
<stop offset="0.029378" stop-color="#2C3045"/>
<stop offset="1" stop-color="#6371AA"/>
</linearGradient>
<linearGradient id="paint1_linear_968_37041" x1="118.862" y1="-120.725" x2="578.159" y2="445.42" gradientUnits="userSpaceOnUse">
<stop stop-color="#121830"/>
<stop offset="0.9999" stop-color="#25242B"/>
</linearGradient>
<linearGradient id="paint2_linear_968_37041" x1="155.235" y1="284.935" x2="155.806" y2="286.162" gradientUnits="userSpaceOnUse">
<stop stop-color="#FB8785"/>
<stop offset="1" stop-color="#F98F8D"/>
</linearGradient>
<linearGradient id="paint3_linear_968_37041" x1="155.235" y1="281.941" x2="155.806" y2="283.168" gradientUnits="userSpaceOnUse">
<stop stop-color="white"/>
<stop offset="1" stop-color="#93B0F7"/>
</linearGradient>
<linearGradient id="paint4_linear_968_37041" x1="155.235" y1="281.941" x2="155.806" y2="283.168" gradientUnits="userSpaceOnUse">
<stop stop-color="#FB8785"/>
<stop offset="1" stop-color="#F98F8D"/>
</linearGradient>
<linearGradient id="paint5_linear_968_37041" x1="155.235" y1="278.947" x2="155.806" y2="280.173" gradientUnits="userSpaceOnUse">
<stop stop-color="white"/>
<stop offset="1" stop-color="#93B0F7"/>
</linearGradient>
<linearGradient id="paint6_linear_968_37041" x1="155.235" y1="278.947" x2="155.806" y2="280.173" gradientUnits="userSpaceOnUse">
<stop stop-color="#FB8785"/>
<stop offset="1" stop-color="#F98F8D"/>
</linearGradient>
<linearGradient id="paint7_linear_968_37041" x1="155.235" y1="275.952" x2="155.806" y2="277.179" gradientUnits="userSpaceOnUse">
<stop stop-color="white"/>
<stop offset="1" stop-color="#93B0F7"/>
</linearGradient>
<linearGradient id="paint8_linear_968_37041" x1="155.235" y1="275.952" x2="155.806" y2="277.179" gradientUnits="userSpaceOnUse">
<stop stop-color="#FB8785"/>
<stop offset="1" stop-color="#F98F8D"/>
</linearGradient>
<linearGradient id="paint9_linear_968_37041" x1="248.978" y1="131.212" x2="315.147" y2="312.756" gradientUnits="userSpaceOnUse">
<stop stop-color="#F26966"/>
<stop offset="1" stop-color="#F07A77"/>
</linearGradient>
<linearGradient id="paint10_linear_968_37041" x1="155.235" y1="284.935" x2="155.806" y2="286.162" gradientUnits="userSpaceOnUse">
<stop stop-color="#E4E4E4"/>
<stop offset="1" stop-color="#E4E4E4"/>
</linearGradient>
<linearGradient id="paint11_linear_968_37041" x1="155.235" y1="281.941" x2="155.806" y2="283.168" gradientUnits="userSpaceOnUse">
<stop stop-color="white"/>
<stop offset="1" stop-color="#93B0F7"/>
</linearGradient>
<linearGradient id="paint12_linear_968_37041" x1="155.235" y1="281.941" x2="155.806" y2="283.168" gradientUnits="userSpaceOnUse">
<stop stop-color="#E4E4E4"/>
<stop offset="1" stop-color="#E4E4E4"/>
</linearGradient>
<linearGradient id="paint13_linear_968_37041" x1="155.235" y1="278.947" x2="155.806" y2="280.173" gradientUnits="userSpaceOnUse">
<stop stop-color="white"/>
<stop offset="1" stop-color="#93B0F7"/>
</linearGradient>
<linearGradient id="paint14_linear_968_37041" x1="155.235" y1="278.947" x2="155.806" y2="280.173" gradientUnits="userSpaceOnUse">
<stop stop-color="#E4E4E4"/>
<stop offset="1" stop-color="#E4E4E4"/>
</linearGradient>
<linearGradient id="paint15_linear_968_37041" x1="155.235" y1="275.952" x2="155.806" y2="277.179" gradientUnits="userSpaceOnUse">
<stop stop-color="white"/>
<stop offset="1" stop-color="#93B0F7"/>
</linearGradient>
<linearGradient id="paint16_linear_968_37041" x1="155.235" y1="275.952" x2="155.806" y2="277.179" gradientUnits="userSpaceOnUse">
<stop stop-color="#E4E4E4"/>
<stop offset="1" stop-color="#E4E4E4"/>
</linearGradient>
<linearGradient id="paint17_linear_968_37041" x1="248.978" y1="131.212" x2="315.147" y2="312.756" gradientUnits="userSpaceOnUse">
<stop stop-color="#BFBBBB"/>
<stop offset="1" stop-color="#E3E0E0"/>
</linearGradient>
<linearGradient id="paint18_linear_968_37041" x1="155.235" y1="284.935" x2="155.806" y2="286.162" gradientUnits="userSpaceOnUse">
<stop stop-color="#F66951"/>
<stop offset="1" stop-color="#F97C67"/>
</linearGradient>
<linearGradient id="paint19_linear_968_37041" x1="155.235" y1="281.941" x2="155.806" y2="283.168" gradientUnits="userSpaceOnUse">
<stop stop-color="white"/>
<stop offset="1" stop-color="#93B0F7"/>
</linearGradient>
<linearGradient id="paint20_linear_968_37041" x1="155.235" y1="281.941" x2="155.806" y2="283.168" gradientUnits="userSpaceOnUse">
<stop stop-color="#F66951"/>
<stop offset="1" stop-color="#F97C67"/>
</linearGradient>
<linearGradient id="paint21_linear_968_37041" x1="155.235" y1="278.947" x2="155.806" y2="280.173" gradientUnits="userSpaceOnUse">
<stop stop-color="white"/>
<stop offset="1" stop-color="#93B0F7"/>
</linearGradient>
<linearGradient id="paint22_linear_968_37041" x1="155.235" y1="278.947" x2="155.806" y2="280.173" gradientUnits="userSpaceOnUse">
<stop stop-color="#F66951"/>
<stop offset="1" stop-color="#F97C67"/>
</linearGradient>
<linearGradient id="paint23_linear_968_37041" x1="155.235" y1="275.952" x2="155.806" y2="277.179" gradientUnits="userSpaceOnUse">
<stop stop-color="white"/>
<stop offset="1" stop-color="#93B0F7"/>
</linearGradient>
<linearGradient id="paint24_linear_968_37041" x1="155.235" y1="275.952" x2="155.806" y2="277.179" gradientUnits="userSpaceOnUse">
<stop stop-color="#F66951"/>
<stop offset="1" stop-color="#F97C67"/>
</linearGradient>
<linearGradient id="paint25_linear_968_37041" x1="248.978" y1="131.212" x2="315.147" y2="312.756" gradientUnits="userSpaceOnUse">
<stop stop-color="#F95E44"/>
<stop offset="1" stop-color="#F66951"/>
</linearGradient>
<linearGradient id="paint26_linear_968_37041" x1="155.234" y1="284.936" x2="155.805" y2="286.162" gradientUnits="userSpaceOnUse">
<stop stop-color="#3CE397"/>
<stop offset="1" stop-color="#45E79C"/>
</linearGradient>
<linearGradient id="paint27_linear_968_37041" x1="155.234" y1="281.941" x2="155.805" y2="283.168" gradientUnits="userSpaceOnUse">
<stop stop-color="white"/>
<stop offset="1" stop-color="#93B0F7"/>
</linearGradient>
<linearGradient id="paint28_linear_968_37041" x1="155.234" y1="281.941" x2="155.805" y2="283.168" gradientUnits="userSpaceOnUse">
<stop stop-color="#3CE397"/>
<stop offset="1" stop-color="#45E79C"/>
</linearGradient>
<linearGradient id="paint29_linear_968_37041" x1="155.234" y1="278.947" x2="155.805" y2="280.173" gradientUnits="userSpaceOnUse">
<stop stop-color="white"/>
<stop offset="1" stop-color="#93B0F7"/>
</linearGradient>
<linearGradient id="paint30_linear_968_37041" x1="155.234" y1="278.947" x2="155.805" y2="280.173" gradientUnits="userSpaceOnUse">
<stop stop-color="#3CE397"/>
<stop offset="1" stop-color="#45E79C"/>
</linearGradient>
<linearGradient id="paint31_linear_968_37041" x1="155.234" y1="275.952" x2="155.805" y2="277.179" gradientUnits="userSpaceOnUse">
<stop stop-color="white"/>
<stop offset="1" stop-color="#93B0F7"/>
</linearGradient>
<linearGradient id="paint32_linear_968_37041" x1="155.234" y1="275.952" x2="155.805" y2="277.179" gradientUnits="userSpaceOnUse">
<stop stop-color="#3CE397"/>
<stop offset="1" stop-color="#45E79C"/>
</linearGradient>
<linearGradient id="paint33_linear_968_37041" x1="248.977" y1="131.212" x2="315.146" y2="312.756" gradientUnits="userSpaceOnUse">
<stop stop-color="#00A65A"/>
<stop offset="1" stop-color="#2FD186"/>
</linearGradient>
<linearGradient id="paint34_linear_968_37041" x1="474.251" y1="129.563" x2="417.386" y2="71.539" gradientUnits="userSpaceOnUse">
<stop offset="0.029378" stop-color="#2C3045"/>
<stop offset="1" stop-color="#6371AA"/>
</linearGradient>
<linearGradient id="paint35_linear_968_37041" x1="420.403" y1="43.8766" x2="566.171" y2="132.228" gradientUnits="userSpaceOnUse">
<stop stop-color="#121830"/>
<stop offset="0.9999" stop-color="#25242B"/>
</linearGradient>
<linearGradient id="paint36_linear_968_37041" x1="541.186" y1="195.44" x2="484.323" y2="137.414" gradientUnits="userSpaceOnUse">
<stop offset="0.029378" stop-color="#2C3045"/>
<stop offset="1" stop-color="#6371AA"/>
</linearGradient>
<linearGradient id="paint37_linear_968_37041" x1="487.336" y1="109.755" x2="633.103" y2="198.103" gradientUnits="userSpaceOnUse">
<stop stop-color="#121830"/>
<stop offset="0.9999" stop-color="#25242B"/>
</linearGradient>
<linearGradient id="paint38_linear_968_37041" x1="605.114" y1="261.329" x2="548.245" y2="203.308" gradientUnits="userSpaceOnUse">
<stop offset="0.029378" stop-color="#2C3045"/>
<stop offset="1" stop-color="#6371AA"/>
</linearGradient>
<linearGradient id="paint39_linear_968_37041" x1="551.272" y1="175.638" x2="697.04" y2="263.993" gradientUnits="userSpaceOnUse">
<stop stop-color="#121830"/>
<stop offset="0.9999" stop-color="#25242B"/>
</linearGradient>
<linearGradient id="paint40_linear_968_37041" x1="-16.9528" y1="21.9385" x2="-16.9292" y2="22.2199" gradientUnits="userSpaceOnUse">
<stop stop-color="#90B4FF"/>
<stop offset="1" stop-color="#93B0F7"/>
</linearGradient>
<linearGradient id="paint41_linear_968_37041" x1="-16.9528" y1="21.9385" x2="-16.9292" y2="22.2199" gradientUnits="userSpaceOnUse">
<stop stop-color="#3CE397"/>
<stop offset="1" stop-color="#45E79C"/>
</linearGradient>
<linearGradient id="paint42_linear_968_37041" x1="22.4753" y1="0" x2="22.4753" y2="41.9405" gradientUnits="userSpaceOnUse">
<stop stop-color="#3F7CDF"/>
<stop offset="1" stop-color="#4182EB"/>
</linearGradient>
<linearGradient id="paint43_linear_968_37041" x1="22.4753" y1="0" x2="22.4753" y2="41.9405" gradientUnits="userSpaceOnUse">
<stop stop-color="#00A65A"/>
<stop offset="1" stop-color="#2FD186"/>
</linearGradient>
<linearGradient id="paint44_linear_968_37041" x1="-16.9528" y1="21.9385" x2="-16.9292" y2="22.2199" gradientUnits="userSpaceOnUse">
<stop stop-color="#FB8785"/>
<stop offset="1" stop-color="#F98F8D"/>
</linearGradient>
<linearGradient id="paint45_linear_968_37041" x1="22.4753" y1="0" x2="22.4753" y2="41.9405" gradientUnits="userSpaceOnUse">
<stop stop-color="#3F7CDF"/>
<stop offset="1" stop-color="#4182EB"/>
</linearGradient>
<linearGradient id="paint46_linear_968_37041" x1="22.4753" y1="0" x2="22.4753" y2="41.9405" gradientUnits="userSpaceOnUse">
<stop stop-color="#F26966"/>
<stop offset="1" stop-color="#F07A77"/>
</linearGradient>
<linearGradient id="paint47_linear_968_37041" x1="-16.9528" y1="21.9385" x2="-16.9292" y2="22.2199" gradientUnits="userSpaceOnUse">
<stop stop-color="#90B4FF"/>
<stop offset="1" stop-color="#93B0F7"/>
</linearGradient>
<linearGradient id="paint48_linear_968_37041" x1="-16.9528" y1="21.9385" x2="-16.9292" y2="22.2199" gradientUnits="userSpaceOnUse">
<stop stop-color="#E4E4E4"/>
<stop offset="1" stop-color="#E4E4E4"/>
</linearGradient>
<linearGradient id="paint49_linear_968_37041" x1="22.4753" y1="0" x2="22.4753" y2="41.9405" gradientUnits="userSpaceOnUse">
<stop stop-color="#BFBBBB"/>
<stop offset="1" stop-color="#D8D4D4"/>
</linearGradient>
<linearGradient id="paint50_linear_968_37041" x1="-16.9528" y1="21.9385" x2="-16.9292" y2="22.2199" gradientUnits="userSpaceOnUse">
<stop stop-color="#90B4FF"/>
<stop offset="1" stop-color="#93B0F7"/>
</linearGradient>
<linearGradient id="paint51_linear_968_37041" x1="-16.9528" y1="21.9385" x2="-16.9292" y2="22.2199" gradientUnits="userSpaceOnUse">
<stop stop-color="#FA8571"/>
<stop offset="1" stop-color="#FF8A76"/>
</linearGradient>
<linearGradient id="paint52_linear_968_37041" x1="22.4753" y1="0" x2="22.4753" y2="41.9405" gradientUnits="userSpaceOnUse">
<stop stop-color="#3F7CDF"/>
<stop offset="1" stop-color="#4182EB"/>
</linearGradient>
<linearGradient id="paint53_linear_968_37041" x1="22.4753" y1="0" x2="22.4753" y2="41.9405" gradientUnits="userSpaceOnUse">
<stop stop-color="#F95E44"/>
<stop offset="1" stop-color="#F66951"/>
</linearGradient>
<linearGradient id="paint54_linear_968_37041" x1="-16.9528" y1="21.9385" x2="-16.9292" y2="22.2199" gradientUnits="userSpaceOnUse">
<stop stop-color="#FFD695"/>
<stop offset="1" stop-color="#FFD99C"/>
</linearGradient>
<linearGradient id="paint55_linear_968_37041" x1="22.4753" y1="0" x2="22.4753" y2="41.9405" gradientUnits="userSpaceOnUse">
<stop stop-color="#F6B54D"/>
<stop offset="1" stop-color="#F9C36F"/>
</linearGradient>
</defs>
</svg>
