<svg width="7" height="8" viewBox="0 0 7 8" fill="none" xmlns="http://www.w3.org/2000/svg">
<path fill-rule="evenodd" clip-rule="evenodd" d="M3.49952 0C3.70992 0 3.88048 0.170558 3.88048 0.380952V5.00623L5.81216 3.07454C5.96094 2.92577 6.20214 2.92577 6.35091 3.07454C6.49968 3.22332 6.49968 3.46452 6.35091 3.61329L3.7689 6.1953C3.62013 6.34407 3.37892 6.34407 3.23015 6.1953L0.648143 3.61329C0.499371 3.46452 0.499371 3.22332 0.648143 3.07454C0.796914 2.92577 1.03812 2.92577 1.18689 3.07454L3.11857 5.00623V0.380952C3.11857 0.170558 3.28913 0 3.49952 0ZM0.113281 7.61905C0.113281 7.40865 0.283839 7.2381 0.494234 7.2381H6.50482C6.71521 7.2381 6.88577 7.40865 6.88577 7.61905C6.88577 7.82944 6.71521 8 6.50482 8H0.494234C0.283839 8 0.113281 7.82944 0.113281 7.61905Z" fill="black"/>
</svg>
