<svg width="40" height="40" viewBox="0 0 40 40" fill="none" xmlns="http://www.w3.org/2000/svg">
<path d="M20 4C15.6505 4 15.1084 4.021 13.4062 4.09301C11.697 4.17702 10.5408 4.44206 9.52069 4.8381C8.46856 5.25016 7.57245 5.79722 6.68734 6.68734C5.79622 7.57245 5.24416 8.46856 4.8381 9.52069C4.44206 10.5408 4.17702 11.697 4.09301 13.4062C4.016 15.1094 4 15.6505 4 20C4 24.3495 4.021 24.8916 4.09301 26.5938C4.17702 28.298 4.44206 29.4592 4.8381 30.4793C5.25016 31.5314 5.79722 32.4276 6.68734 33.3127C7.57245 34.2038 8.46856 34.7558 9.52069 35.1619C10.5408 35.5529 11.702 35.823 13.4062 35.907C15.1094 35.984 15.6505 36 20 36C24.3495 36 24.8916 35.979 26.5938 35.907C28.298 35.823 29.4592 35.5519 30.4793 35.1619C31.5314 34.7498 32.4276 34.2028 33.3127 33.3127C34.2038 32.4276 34.7558 31.5364 35.1619 30.4793C35.5529 29.4592 35.823 28.298 35.907 26.5938C35.984 24.8906 36 24.3495 36 20C36 15.6505 35.979 15.1084 35.907 13.4062C35.823 11.702 35.5519 10.5348 35.1619 9.52069C34.7498 8.46856 34.2028 7.57245 33.3127 6.68734C32.4276 5.79622 31.5364 5.24416 30.4793 4.8381C29.4592 4.44206 28.298 4.17702 26.5938 4.09301C24.8906 4.016 24.3495 4 20 4V4ZM20 6.88036C24.2715 6.88036 24.7816 6.90136 26.4698 6.97337C28.027 7.04638 28.8751 7.30641 29.4382 7.52644C30.1893 7.81748 30.7143 8.16152 31.2824 8.72359C31.8395 9.28066 32.1835 9.81173 32.4746 10.5628C32.6946 11.1259 32.9546 11.974 33.0276 13.5312C33.0996 15.2194 33.1206 15.7305 33.1206 20.001C33.1206 24.2715 33.0996 24.7826 33.0216 26.4708C32.9376 28.028 32.6776 28.8761 32.4586 29.4392C32.1555 30.1903 31.8175 30.7153 31.2594 31.2834C30.6963 31.8405 30.1603 32.1845 29.4152 32.4756C28.8591 32.6956 27.999 32.9556 26.4358 33.0286C24.7386 33.1006 24.2385 33.1216 19.956 33.1216C15.6735 33.1216 15.1744 33.1006 13.4752 33.0226C11.918 32.9386 11.0589 32.6786 10.4958 32.4596C9.73572 32.1565 9.21465 31.8185 8.65658 31.2604C8.09351 30.6973 7.73547 30.1613 7.45943 29.4162C7.2354 28.8601 6.97937 28 6.89636 26.4368C6.83935 24.7596 6.81235 24.2395 6.81235 19.977C6.81235 15.7165 6.83935 15.1954 6.89636 13.4972C6.97937 11.934 7.2354 11.0759 7.45943 10.5178C7.73547 9.75672 8.09451 9.23665 8.65658 8.67358C9.21365 8.11651 9.73572 7.75647 10.4958 7.47443C11.0589 7.25541 11.897 6.99537 13.4602 6.91736C15.1574 6.85636 15.6575 6.83435 19.934 6.83435L20 6.88036ZM20 11.788C15.4584 11.788 11.786 15.4654 11.786 20.002C11.786 24.5436 15.4634 28.216 20 28.216C24.5416 28.216 28.214 24.5386 28.214 20.002C28.214 15.4604 24.5366 11.788 20 11.788V11.788ZM20 25.3357C17.0516 25.3357 14.6663 22.9504 14.6663 20.002C14.6663 17.0536 17.0516 14.6683 20 14.6683C22.9484 14.6683 25.3337 17.0536 25.3337 20.002C25.3337 22.9504 22.9484 25.3357 20 25.3357V25.3357ZM30.4653 11.4599C30.4653 12.5231 29.6002 13.3812 28.5421 13.3812C27.4789 13.3812 26.6208 12.5221 26.6208 11.4599C26.6208 10.4028 27.4849 9.54269 28.5421 9.54269C29.5992 9.54269 30.4653 10.4028 30.4653 11.4599V11.4599Z" fill="#000034" fill-opacity="0.74"/>
</svg>
