<svg width="150" height="150" viewBox="0 0 150 150" fill="none" xmlns="http://www.w3.org/2000/svg">
<g filter="url(#filter0_f_424_15707)">
<circle cx="75" cy="75" r="50" fill="url(#paint0_radial_424_15707)"/>
</g>
<path d="M76 106.875C93.6041 106.875 107.875 92.6041 107.875 75C107.875 57.3959 93.6041 43.125 76 43.125C58.3959 43.125 44.125 57.3959 44.125 75C44.125 92.6041 58.3959 106.875 76 106.875Z" fill="#FFDA66"/>
<path d="M76 35.625C76.9946 35.625 77.9484 35.2299 78.6517 34.5266C79.3549 33.8234 79.75 32.8696 79.75 31.875V22.5C79.75 21.5054 79.3549 20.5516 78.6517 19.8483C77.9484 19.1451 76.9946 18.75 76 18.75C75.0054 18.75 74.0516 19.1451 73.3484 19.8483C72.6451 20.5516 72.25 21.5054 72.25 22.5V31.875C72.25 32.8696 72.6451 33.8234 73.3484 34.5266C74.0516 35.2299 75.0054 35.625 76 35.625Z" fill="#FFDA66"/>
<path d="M42.8593 47.1562C43.5682 47.8463 44.5185 48.2324 45.5078 48.2324C46.4971 48.2324 47.4473 47.8463 48.1562 47.1562C48.8575 46.4532 49.2514 45.5008 49.2514 44.5078C49.2514 43.5148 48.8575 42.5623 48.1562 41.8593L41.5468 35.2031C41.2106 34.7934 40.7923 34.4587 40.3189 34.2204C39.8455 33.9821 39.3275 33.8456 38.7981 33.8196C38.2688 33.7936 37.7399 33.8787 37.2454 34.0694C36.7509 34.2602 36.3018 34.5523 35.9271 34.9271C35.5523 35.3018 35.2602 35.7509 35.0694 36.2454C34.8787 36.7399 34.7936 37.2688 34.8196 37.7981C34.8456 38.3275 34.9821 38.8455 35.2204 39.3189C35.4587 39.7923 35.7934 40.2106 36.2031 40.5468L42.8593 47.1562Z" fill="#FFDA66"/>
<path d="M36.625 75C36.625 74.0054 36.2299 73.0516 35.5266 72.3484C34.8234 71.6451 33.8696 71.25 32.875 71.25H23.5C22.5054 71.25 21.5516 71.6451 20.8483 72.3484C20.1451 73.0516 19.75 74.0054 19.75 75C19.75 75.9946 20.1451 76.9484 20.8483 77.6517C21.5516 78.3549 22.5054 78.75 23.5 78.75H32.875C33.8696 78.75 34.8234 78.3549 35.5266 77.6517C36.2299 76.9484 36.625 75.9946 36.625 75Z" fill="#FFDA66"/>
<path d="M42.8593 102.844L36.2031 109.453C35.4989 110.164 35.1039 111.124 35.1039 112.125C35.1039 113.126 35.4989 114.086 36.2031 114.797C36.928 115.477 37.881 115.861 38.8749 115.875C39.8707 115.871 40.827 115.485 41.5468 114.797L48.1562 108.141C48.8025 107.427 49.1498 106.493 49.1261 105.53C49.1024 104.568 48.7096 103.652 48.0289 102.971C47.3482 102.29 46.4319 101.897 45.4696 101.874C44.5072 101.85 43.5727 102.197 42.8593 102.844Z" fill="#FFDA66"/>
<path d="M76 114.375C75.0054 114.375 74.0516 114.77 73.3484 115.473C72.6451 116.177 72.25 117.13 72.25 118.125V127.5C72.25 128.495 72.6451 129.448 73.3484 130.152C74.0516 130.855 75.0054 131.25 76 131.25C76.9946 131.25 77.9484 130.855 78.6517 130.152C79.3549 129.448 79.75 128.495 79.75 127.5V118.125C79.75 117.13 79.3549 116.177 78.6517 115.473C77.9484 114.77 76.9946 114.375 76 114.375Z" fill="#FFDA66"/>
<path d="M109.141 102.844C108.427 102.197 107.493 101.85 106.53 101.874C105.568 101.897 104.652 102.29 103.971 102.971C103.29 103.652 102.897 104.568 102.874 105.53C102.85 106.493 103.197 107.427 103.844 108.141L110.453 114.797C111.173 115.485 112.129 115.871 113.125 115.875C114.119 115.861 115.072 115.477 115.797 114.797C116.501 114.086 116.896 113.126 116.896 112.125C116.896 111.124 116.501 110.164 115.797 109.453L109.141 102.844Z" fill="#FFDA66"/>
<path d="M128.5 71.25H119.125C118.13 71.25 117.177 71.6451 116.473 72.3484C115.77 73.0516 115.375 74.0054 115.375 75C115.375 75.9946 115.77 76.9484 116.473 77.6517C117.177 78.3549 118.13 78.75 119.125 78.75H128.5C129.495 78.75 130.448 78.3549 131.152 77.6517C131.855 76.9484 132.25 75.9946 132.25 75C132.25 74.0054 131.855 73.0516 131.152 72.3484C130.448 71.6451 129.495 71.25 128.5 71.25Z" fill="#FFDA66"/>
<path d="M106.516 48.2346C107.003 48.2389 107.486 48.1457 107.937 47.9606C108.388 47.7754 108.797 47.502 109.141 47.1565L115.797 40.5471C116.395 39.8185 116.7 38.8935 116.654 37.9521C116.608 37.0106 116.213 36.12 115.547 35.4535C114.88 34.787 113.99 34.3922 113.048 34.346C112.107 34.2998 111.182 34.6054 110.453 35.2033L103.844 41.8596C103.142 42.5626 102.749 43.515 102.749 44.508C102.749 45.501 103.142 46.4535 103.844 47.1565C104.193 47.5078 104.61 47.7845 105.069 47.9698C105.528 48.1551 106.02 48.2452 106.516 48.2346Z" fill="#FFDA66"/>
<defs>
<filter id="filter0_f_424_15707" x="0" y="0" width="150" height="150" filterUnits="userSpaceOnUse" color-interpolation-filters="sRGB">
<feFlood flood-opacity="0" result="BackgroundImageFix"/>
<feBlend mode="normal" in="SourceGraphic" in2="BackgroundImageFix" result="shape"/>
<feGaussianBlur stdDeviation="12.5" result="effect1_foregroundBlur_424_15707"/>
</filter>
<radialGradient id="paint0_radial_424_15707" cx="0" cy="0" r="1" gradientUnits="userSpaceOnUse" gradientTransform="translate(75 75) rotate(90) scale(50)">
<stop stop-color="#FFDA66"/>
<stop offset="1" stop-color="#FFDA66" stop-opacity="0"/>
</radialGradient>
</defs>
</svg>
