<svg width="41" height="40" viewBox="0 0 41 40" fill="none" xmlns="http://www.w3.org/2000/svg">
<circle cx="20.5" cy="20" r="20" fill="#C6D8F5"/>
<circle cx="20.5" cy="20" r="20" fill="url(#paint0_radial_218_1104)" fill-opacity="0.7"/>
<path d="M21 12C19.2767 12.002 17.6245 12.7063 16.406 13.9584C15.1874 15.2105 14.502 16.9081 14.5 18.6788C14.5 24.3938 20.4091 28.7123 20.6602 28.8944C20.7609 28.9633 20.8791 29 21 29C21.1209 29 21.2391 28.9633 21.3398 28.8944C21.5909 28.7123 27.5 24.3938 27.5 18.6788C27.498 16.9081 26.8126 15.2105 25.594 13.9584C24.3755 12.7063 22.7233 12.002 21 12ZM21 16.2502C21.4675 16.2502 21.9245 16.3926 22.3132 16.6595C22.7019 16.9263 23.0048 17.3056 23.1837 17.7494C23.3626 18.1932 23.4094 18.6815 23.3182 19.1526C23.227 19.6238 23.0019 20.0565 22.6713 20.3962C22.3408 20.7358 21.9196 20.9671 21.4611 21.0608C21.0026 21.1545 20.5274 21.1064 20.0955 20.9226C19.6636 20.7388 19.2944 20.4275 19.0347 20.0281C18.775 19.6287 18.6364 19.1592 18.6364 18.6788C18.6364 18.0347 18.8854 17.417 19.3287 16.9615C19.7719 16.506 20.3731 16.2502 21 16.2502Z" fill="url(#paint1_linear_218_1104)"/>
<defs>
<radialGradient id="paint0_radial_218_1104" cx="0" cy="0" r="1" gradientUnits="userSpaceOnUse" gradientTransform="translate(13.2869 7.86885) rotate(55.9679) scale(30.4636 30.4636)">
<stop stop-color="white"/>
<stop offset="0.697917" stop-color="white" stop-opacity="0"/>
<stop offset="1" stop-color="white" stop-opacity="0"/>
</radialGradient>
<linearGradient id="paint1_linear_218_1104" x1="21" y1="11.4375" x2="7.26468" y2="39.7991" gradientUnits="userSpaceOnUse">
<stop/>
<stop offset="1" stop-color="#E3BEBE" stop-opacity="0"/>
</linearGradient>
</defs>
</svg>
