<svg width="170" height="42" viewBox="0 0 170 42" fill="none" xmlns="http://www.w3.org/2000/svg">
<path d="M36.3361 24.8451C29.8051 24.8451 24.1404 26.28 20.6549 28.3125C20.5585 28.3691 20.3461 28.4772 20.2559 28.5399C21.2972 28.0241 22.539 27.6328 23.701 27.4819H23.7072C24.1346 27.4251 24.5678 27.4 25.0014 27.4C25.2058 27.4 25.4045 27.4063 25.6032 27.4187C27.8305 27.5511 29.9493 28.4004 31.6771 29.8163C31.689 29.8226 31.7011 29.8289 31.7132 29.8415C31.7313 29.8542 31.7373 29.8668 31.7494 29.8792C32.5921 30.5779 33.3386 31.4209 33.9586 32.3775L34.1331 32.648L34.1511 32.6795H34.1573L38.2626 39.0415C40.249 42.1186 44.2341 42.9241 47.1717 40.8475C49.0141 39.5512 50.0009 37.4367 50.0009 35.2848C50.0009 33.9948 49.6462 32.6858 48.8993 31.5343C46.2026 27.3497 41.6879 24.8451 36.8661 24.8451H36.3361Z" fill="url(#paint0_linear_781_36728)"/>
<path d="M19.6194 2.94871L5.42333 24.8653L3.77081 27.4173L3.0833 28.4796L1.0996 31.5467C0.785803 32.0305 0.54441 32.5459 0.363506 33.0739C-0.0224972 34.2052 -0.0945182 35.4058 0.116253 36.5496C0.369555 37.9514 1.05121 39.2649 2.11867 40.2706C2.34192 40.4781 2.57669 40.6727 2.83 40.8489C5.77322 42.923 9.77125 42.1184 11.7614 39.045C11.7614 39.045 15.0483 33.3882 16.5014 31.735C16.5859 31.6345 16.6764 31.5341 16.7728 31.4334C17.6652 30.321 18.7571 29.4097 19.969 28.7371C20.096 28.6679 20.5962 28.3852 20.6928 28.3286C24.1846 26.2986 29.8595 24.8653 36.4023 24.8653H20.9461L25.0471 18.5361L30.2875 10.4469C31.0292 9.29689 31.385 7.99581 31.385 6.70104C31.385 4.54531 30.396 2.43332 28.5508 1.13854C27.4771 0.384373 26.259 0.0135956 25.0471 0.000988007C25.0101 0.000198364 24.9736 0 24.9365 0C22.8816 0 20.8574 1.03472 19.6194 2.94871Z" fill="url(#paint1_linear_781_36728)"/>
<path d="M84.9773 20.7879V29.3789C85.0627 30.3928 84.9066 31.4129 84.5225 32.3513C84.1385 33.2897 83.5379 34.1183 82.7725 34.7659C80.6762 36.0685 78.2337 36.6619 75.7906 36.4621C69.9417 36.4621 67.0173 34.2005 67.0173 29.6458C66.9438 28.6804 67.1054 27.7113 67.4876 26.8258C67.8698 25.9403 68.4605 25.1661 69.2068 24.5729C71.2095 23.3698 73.5223 22.8219 75.8365 23.0024H80.583V20.7879C80.6317 20.2832 80.5464 19.7745 80.3361 19.3155C80.1259 18.8565 79.7985 18.4644 79.3887 18.1807C78.1728 17.587 76.8275 17.3272 75.4844 17.4269C73.9444 17.4016 72.4057 17.5332 70.891 17.8195C70.2633 17.9452 69.8345 17.9137 69.6202 17.7096C69.3519 17.3344 69.2366 16.8669 69.2986 16.406V15.7935C69.2511 15.3187 69.3646 14.8417 69.6202 14.4428C69.9623 14.13 70.3899 13.9326 70.8451 13.8774C72.274 13.6524 73.7172 13.5369 75.1628 13.5319C77.7204 13.3497 80.2731 13.951 82.4969 15.2595C83.3219 15.897 83.9763 16.7382 84.3992 17.7047C84.8222 18.6713 85 19.7319 84.916 20.7879M80.583 29.1276V26.3791H75.8365C74.6879 26.2955 73.5401 26.5517 72.5293 27.1172C72.1667 27.3908 71.8789 27.7557 71.6939 28.1766C71.5088 28.5976 71.4327 29.0603 71.4728 29.5202C71.43 29.972 71.5037 30.4275 71.6864 30.8409C71.8691 31.2543 72.1545 31.6113 72.514 31.876C73.4883 32.418 74.5932 32.6631 75.6987 32.5828C76.9927 32.687 78.2899 32.4263 79.45 31.8289C79.8502 31.5173 80.1649 31.1048 80.3634 30.6314C80.562 30.1579 80.6376 29.6399 80.583 29.1276Z" fill="white"/>
<path d="M90.0772 30.0263V7.45984C90.0214 6.90957 90.16 6.357 90.4673 5.9046C90.9045 5.58889 91.4383 5.45054 91.9674 5.5158H92.5225C93.0516 5.45054 93.5854 5.58889 94.0226 5.9046C94.3299 6.357 94.4684 6.90957 94.4126 7.45984V29.1553C94.3436 29.9883 94.5049 30.8245 94.8777 31.5659C95.0498 31.805 95.2779 31.9947 95.5404 32.1172C95.8028 32.2396 96.091 32.2908 96.3778 32.2658C96.8444 32.2017 97.3177 32.312 97.713 32.5768C97.9473 33.0176 98.0418 33.5237 97.983 34.0232V34.4587C98.0377 34.9609 97.9209 35.4672 97.6529 35.8895C97.2527 36.222 96.7682 36.4273 96.2578 36.4805C96.0586 36.5065 95.857 36.5065 95.6578 36.4805C94.8946 36.5232 94.1313 36.3985 93.4178 36.1144C92.7043 35.8303 92.0567 35.3933 91.5173 34.8319C90.432 33.4758 89.8945 31.7371 90.0172 29.9796" fill="white"/>
<path d="M101.077 30.0263V7.45984C101.021 6.90957 101.16 6.357 101.467 5.9046C101.904 5.58889 102.438 5.45054 102.967 5.5158H103.522C104.052 5.45054 104.585 5.58889 105.023 5.9046C105.33 6.357 105.468 6.90957 105.413 7.45984V29.1553C105.344 29.9883 105.505 30.8245 105.878 31.5659C106.05 31.805 106.278 31.9947 106.54 32.1172C106.803 32.2396 107.091 32.2908 107.378 32.2658C107.844 32.2017 108.318 32.312 108.713 32.5768C108.947 33.0176 109.042 33.5237 108.983 34.0232V34.4587C109.038 34.9609 108.921 35.4672 108.653 35.8895C108.253 36.222 107.768 36.4273 107.258 36.4805C107.059 36.5065 106.857 36.5065 106.658 36.4805C105.895 36.5232 105.131 36.3985 104.418 36.1144C103.704 35.8303 103.057 35.3933 102.517 34.8319C101.432 33.4758 100.895 31.7371 101.017 29.9796" fill="white"/>
<path d="M112.083 27.2132V7.54399C111.99 7.27072 111.975 6.97668 112.04 6.69529C112.105 6.41391 112.248 6.15645 112.453 5.95221C112.657 5.74796 112.915 5.60509 113.197 5.53987C113.479 5.47465 113.773 5.48968 114.047 5.58324H114.573C114.847 5.48968 115.141 5.47465 115.423 5.53987C115.705 5.60509 115.963 5.74796 116.167 5.95221C116.372 6.15645 116.515 6.41391 116.58 6.69529C116.646 6.97668 116.63 7.27072 116.537 7.54399V16.8074C117.722 14.9238 119.856 13.982 122.939 13.982C128.99 13.982 132.01 17.147 132 23.477V27.2132C132 33.3888 128.675 36.4765 122.026 36.4765C119.356 36.655 116.718 35.8102 114.65 34.1144C113.754 33.2038 113.062 32.1136 112.619 30.9159C112.177 29.7182 111.994 28.4403 112.083 27.1669M127.547 27.0742V23.338C127.695 21.886 127.268 20.4337 126.356 19.293C125.138 18.3797 123.619 17.9605 122.104 18.1197C120.569 17.9599 119.03 18.3784 117.789 19.293C117.326 19.8517 116.978 20.4974 116.769 21.1922C116.559 21.8869 116.491 22.6165 116.568 23.338V27.0742C116.493 27.7909 116.563 28.5152 116.772 29.2045C116.982 29.8939 117.328 30.5344 117.789 31.0884C119.03 32.003 120.569 32.4214 122.104 32.2617C123.621 32.4246 125.145 32.0113 126.371 31.1038C127.277 29.9664 127.699 28.5193 127.547 27.0742" fill="white"/>
<path d="M134.014 16.8846V16.4497C133.962 16.0017 134.071 15.5496 134.323 15.1762C134.652 14.8828 135.062 14.6984 135.499 14.6481L137.803 14.2132L138.329 10.0976C138.347 9.63203 138.515 9.18495 138.809 8.82405C139.2 8.57489 139.663 8.46545 140.123 8.51344H140.68C141.126 8.45934 141.577 8.56971 141.948 8.82405C142.199 9.19808 142.309 9.64964 142.258 10.0976V14.2132H148.352C148.866 14.1534 149.385 14.2741 149.821 14.5549C150.142 15.0039 150.276 15.5615 150.192 16.108V16.6361C150.276 17.1826 150.142 17.7402 149.821 18.1891C149.388 18.4766 148.868 18.603 148.352 18.5464H142.258V28.4706C142.258 31.0176 143.387 32.2911 145.66 32.2911C146.848 32.3017 148.032 32.1661 149.187 31.8873C149.909 31.7424 150.388 31.7734 150.625 31.9805C150.924 32.3983 151.051 32.9154 150.981 33.4249V33.9529C151.032 34.4956 150.907 35.0403 150.625 35.506C150.225 35.868 149.722 36.0959 149.187 36.1583C148.023 36.3717 146.843 36.486 145.66 36.5C140.417 36.5 137.803 33.8287 137.803 28.455V18.5619H135.545C135.114 18.6131 134.679 18.5024 134.323 18.2513C134.069 17.8965 133.958 17.4579 134.014 17.0243" fill="white"/>
<path d="M154.016 27.0834V22.7525C153.94 21.4961 154.138 20.2383 154.595 19.0637C155.051 17.889 155.757 16.8247 156.664 15.9423C158.812 14.2001 161.552 13.3357 164.323 13.5259C165.501 13.518 166.674 13.6657 167.812 13.9652C168.359 14.0382 168.87 14.2797 169.271 14.6556C169.548 15.1303 169.664 15.68 169.604 16.2248V16.8054C169.64 17.0636 169.622 17.3264 169.551 17.5775C169.48 17.8286 169.358 18.0625 169.192 18.2647C168.938 18.4635 168.446 18.4635 167.717 18.2647C166.651 17.9305 165.535 17.7818 164.418 17.8253C162.822 17.6667 161.221 18.0726 159.899 18.9708C159.417 19.5013 159.052 20.1257 158.828 20.804C158.604 21.4823 158.526 22.1995 158.599 22.9094V27.0834C158.517 27.8084 158.598 28.5421 158.833 29.2333C159.069 29.9245 159.454 30.5564 159.962 31.0847C161.379 31.9702 163.051 32.3674 164.72 32.2145C165.876 32.1777 167.028 32.0412 168.161 31.8065C168.395 31.724 168.644 31.6898 168.892 31.706C169.14 31.7222 169.382 31.7884 169.604 31.9007C169.858 32.0994 169.984 32.5702 169.984 33.3129V33.8464C170.048 34.3975 169.914 34.9532 169.604 35.4156C169.191 35.7961 168.671 36.0425 168.113 36.1217C166.96 36.3899 165.777 36.5164 164.593 36.4983C157.605 36.4983 154.106 33.4018 154.095 27.2089" fill="white"/>
<defs>
<linearGradient id="paint0_linear_781_36728" x1="12.5881" y1="23.9754" x2="51.1627" y2="35.773" gradientUnits="userSpaceOnUse">
<stop stop-color="#000034"/>
<stop offset="0.262356" stop-color="#000034"/>
<stop offset="0.27221" stop-color="#000034"/>
<stop offset="1" stop-color="#3F7BDD"/>
</linearGradient>
<linearGradient id="paint1_linear_781_36728" x1="29.9529" y1="10.9431" x2="10.5307" y2="38.2318" gradientUnits="userSpaceOnUse">
<stop stop-color="#3F7BDD"/>
<stop offset="0.568518" stop-color="#3F65B3"/>
<stop offset="1" stop-color="#3F65B3"/>
</linearGradient>
</defs>
</svg>
