<svg width="41" height="40" viewBox="0 0 41 40" fill="none" xmlns="http://www.w3.org/2000/svg">
<circle cx="20.5" cy="20" r="20" fill="#C6D8F5"/>
<circle cx="20.5" cy="20" r="20" fill="url(#paint0_radial_218_1090)" fill-opacity="0.7"/>
<path d="M15 16.7025L21 20.5764L27 16.7025L21 12.8285L15 16.7025ZM28.5 16.7025V24.4504C28.5 24.8614 28.342 25.2555 28.0607 25.5461C27.7794 25.8367 27.3978 26 27 26H15C14.6022 26 14.2206 25.8367 13.9393 25.5461C13.658 25.2555 13.5 24.8614 13.5 24.4504V16.7025C13.5 16.1369 13.7925 15.6488 14.2275 15.3776L21 11L27.7725 15.3776C28.2075 15.6488 28.5 16.1369 28.5 16.7025Z" fill="url(#paint1_linear_218_1090)"/>
<defs>
<radialGradient id="paint0_radial_218_1090" cx="0" cy="0" r="1" gradientUnits="userSpaceOnUse" gradientTransform="translate(13.2869 7.86885) rotate(55.9679) scale(30.4636 30.4636)">
<stop stop-color="white"/>
<stop offset="0.697917" stop-color="white" stop-opacity="0"/>
<stop offset="1" stop-color="white" stop-opacity="0"/>
</radialGradient>
<linearGradient id="paint1_linear_218_1090" x1="21" y1="10.5036" x2="10.9385" y2="37.6717" gradientUnits="userSpaceOnUse">
<stop/>
<stop offset="1" stop-color="#E3BEBE" stop-opacity="0"/>
</linearGradient>
</defs>
</svg>
