<svg width="331" height="203" viewBox="0 0 331 203" fill="none" xmlns="http://www.w3.org/2000/svg">
<g filter="url(#filter0_ddddd_424_18413)">
<rect width="244.949" height="106.991" rx="27.2967" transform="matrix(0.938072 -0.34632 0.706808 0.707314 17.045 95.9902)" fill="url(#paint0_linear_424_18413)"/>
</g>
<g filter="url(#filter1_i_424_18413)">
<rect width="244.949" height="106.991" rx="27.3005" transform="matrix(0.938072 -0.346321 0.706808 0.707314 17.045 84.9907)" fill="url(#paint1_linear_424_18413)"/>
</g>
<rect x="1.5685" y="0.34423" width="243.042" height="105.084" rx="26.3469" transform="matrix(0.938072 -0.346321 0.706808 0.707314 16.8988 85.6347)" stroke="white" stroke-width="1.90712"/>
<g filter="url(#filter2_i_424_18413)">
<rect width="40.9916" height="36.9972" rx="10.2485" transform="matrix(0.938072 -0.34632 0.706808 0.707314 82.0268 102.99)" fill="url(#paint2_linear_424_18413)"/>
</g>
<rect x="1.5685" y="0.34423" width="39.0845" height="35.0901" rx="9.29496" transform="matrix(0.938072 -0.34632 0.706808 0.707314 81.8807 103.634)" stroke="white" stroke-width="1.90712"/>
<rect width="40.9916" height="36.9972" rx="10.2485" transform="matrix(0.938072 -0.34632 0.706808 0.707314 82.0268 80.9907)" fill="#D9D9D9"/>
<rect width="40.9916" height="36.9972" rx="10.2485" transform="matrix(0.938072 -0.34632 0.706808 0.707314 82.0268 80.9907)" fill="url(#paint3_linear_424_18413)"/>
<rect width="40.9916" height="36.9972" rx="10.2485" transform="matrix(0.938072 -0.34632 0.706808 0.707314 82.0268 82.9907)" fill="#D9D9D9"/>
<rect width="40.9916" height="36.9972" rx="10.2485" transform="matrix(0.938072 -0.34632 0.706808 0.707314 82.0268 82.9907)" fill="url(#paint4_linear_424_18413)"/>
<path d="M139.585 75.3673L140.246 75.1232L145.323 80.204L144.662 80.4481L139.585 75.3673ZM143.379 75.9136C143.528 75.805 143.737 75.6677 144.005 75.5016C144.274 75.3354 144.639 75.1674 145.099 74.9975C145.481 74.8563 145.841 74.7806 146.176 74.7703C146.519 74.7577 146.843 74.8021 147.148 74.9034C147.455 74.9975 147.748 75.1401 148.028 75.3312C148.308 75.5224 148.577 75.7475 148.836 76.0065L150.953 78.1254L150.321 78.3587L148.358 76.3938C148.089 76.125 147.836 75.9073 147.599 75.7407C147.368 75.5717 147.135 75.4501 146.901 75.3759C146.674 75.2993 146.442 75.2712 146.205 75.2917C145.97 75.305 145.713 75.3631 145.434 75.466C145.136 75.576 144.889 75.684 144.693 75.7898C144.503 75.8932 144.386 75.9667 144.341 76.0101L147.667 79.3387L147.035 79.572L143.379 75.9136ZM153.575 76.455C153.501 76.1946 153.401 75.9037 153.275 75.5822C153.144 75.2558 152.999 74.9245 152.841 74.5883C152.684 74.2447 152.514 73.906 152.331 73.5721C152.15 73.2308 151.969 72.9163 151.788 72.6286L152.42 72.3952C152.65 72.7853 152.862 73.1753 153.056 73.5652C153.251 73.9552 153.428 74.3413 153.588 74.7237C153.755 75.1038 153.9 75.4752 154.023 75.8379C154.152 76.1983 154.268 76.5404 154.37 76.8641L153.767 77.0867C153.334 76.885 152.885 76.6662 152.419 76.4302C151.952 76.1943 151.477 75.945 150.992 75.6822C150.514 75.417 150.035 75.1422 149.556 74.8576C149.076 74.573 148.605 74.2787 148.141 73.9747L148.812 73.727C149.149 73.9574 149.521 74.2013 149.929 74.4587C150.339 74.7089 150.755 74.9567 151.178 75.2021C151.602 75.4402 152.023 75.6698 152.439 75.8909C152.85 76.1071 153.229 76.2951 153.575 76.455ZM155.044 74.0159C154.711 73.6835 154.485 73.3724 154.364 73.0825C154.244 72.7854 154.202 72.5166 154.237 72.2763C154.278 72.0335 154.39 71.8252 154.571 71.6512C154.754 71.47 154.984 71.328 155.263 71.2251C155.879 70.9977 156.52 70.9685 157.185 71.1376C157.858 71.3042 158.509 71.7028 159.139 72.3333C159.178 72.3724 159.214 72.4127 159.247 72.4542C159.286 72.4933 159.319 72.5311 159.347 72.5677L155.817 73.8708C156.301 74.328 156.809 74.6285 157.344 74.7725C157.878 74.9165 158.456 74.8736 159.079 74.6439C159.422 74.517 159.67 74.3921 159.822 74.269C159.974 74.1459 160.079 74.0506 160.135 73.9828L160.662 74.3503C160.61 74.4229 160.485 74.5328 160.286 74.6799C160.093 74.8246 159.829 74.9592 159.492 75.0836C159.051 75.2463 158.626 75.3363 158.217 75.3534C157.808 75.3705 157.415 75.3282 157.039 75.2264C156.662 75.1246 156.308 74.9708 155.978 74.7648C155.643 74.5539 155.332 74.3043 155.044 74.0159ZM158.312 72.3978C157.903 72.0067 157.472 71.7443 157.019 71.6105C156.566 71.4767 156.125 71.4887 155.698 71.6467C155.471 71.7305 155.301 71.8401 155.188 71.9755C155.081 72.1085 155.018 72.2588 154.999 72.4264C154.982 72.5867 155.01 72.7569 155.084 72.9372C155.164 73.115 155.28 73.2894 155.434 73.4604L158.312 72.3978ZM163.263 73.1191C163.626 72.985 163.881 72.831 164.026 72.6568C164.173 72.4754 164.139 72.2772 163.924 72.0621C163.822 71.9595 163.711 71.8799 163.592 71.8233C163.48 71.7643 163.346 71.7235 163.19 71.7007C163.035 71.678 162.849 71.6696 162.633 71.6757C162.424 71.6794 162.166 71.6876 161.859 71.7005C161.612 71.7112 161.376 71.7184 161.148 71.7219C160.916 71.7206 160.696 71.7048 160.489 71.6745C160.276 71.6392 160.075 71.5798 159.884 71.4961C159.694 71.4124 159.519 71.2899 159.357 71.1286C159.05 70.8206 158.953 70.5151 159.067 70.212C159.188 69.9065 159.517 69.6545 160.055 69.4558C160.399 69.329 160.703 69.2469 160.967 69.2095C161.238 69.1697 161.436 69.1502 161.561 69.1509L161.84 69.63C161.733 69.6294 161.561 69.6393 161.324 69.6599C161.094 69.678 160.8 69.7529 160.444 69.8845C160.301 69.9372 160.177 69.9996 160.072 70.0719C159.968 70.137 159.892 70.2118 159.844 70.2966C159.791 70.3765 159.771 70.4639 159.786 70.5587C159.796 70.6487 159.853 70.745 159.955 70.8477C160.058 70.9503 160.172 71.0287 160.297 71.0829C160.422 71.137 160.562 71.1755 160.718 71.1983C160.876 71.2137 161.05 71.2196 161.242 71.2158C161.44 71.2096 161.662 71.2012 161.908 71.1904C162.162 71.1773 162.407 71.1702 162.646 71.1691C162.886 71.1608 163.118 71.1754 163.342 71.2132C163.561 71.246 163.774 71.308 163.98 71.399C164.182 71.4852 164.373 71.6188 164.554 71.7996C164.896 72.1417 164.983 72.4642 164.815 72.767C164.654 73.0674 164.278 73.3265 163.688 73.5443C163.247 73.707 162.881 73.8021 162.589 73.8296C162.302 73.862 162.105 73.8779 161.998 73.8773L161.731 73.3837C161.76 73.3863 161.819 73.3879 161.909 73.3884C161.993 73.384 162.105 73.3761 162.244 73.3648C162.379 73.3485 162.531 73.3227 162.699 73.2872C162.874 73.2493 163.062 73.1932 163.263 73.1191ZM163.534 68.2919L165.537 67.5524L165.94 67.9557L163.937 68.6952L165.952 70.7114C166.167 70.9264 166.365 71.094 166.547 71.2141C166.731 71.3269 166.905 71.4033 167.069 71.4431C167.233 71.4829 167.392 71.4911 167.546 71.4677C167.7 71.4442 167.855 71.4038 168.011 71.3464C168.276 71.2482 168.468 71.1473 168.586 71.0435C168.7 70.9347 168.782 70.8441 168.834 70.7715L169.385 71.11C169.338 71.1874 169.231 71.2974 169.062 71.4398C168.889 71.5773 168.67 71.6952 168.404 71.7933C168.093 71.9082 167.801 71.9758 167.528 71.9961C167.257 72.0091 166.996 71.9785 166.744 71.9041C166.494 71.8225 166.25 71.6984 166.013 71.5318C165.776 71.3653 165.53 71.1549 165.276 70.9007L161.788 67.4109L162.333 67.0895L163.534 68.2919ZM168.29 69.1255C167.958 68.7932 167.731 68.482 167.61 68.1922C167.491 67.895 167.449 67.6263 167.483 67.3859C167.525 67.1432 167.636 66.9348 167.817 66.7609C168 66.5797 168.231 66.4376 168.509 66.3347C169.125 66.1073 169.766 66.0782 170.432 66.2472C171.104 66.4138 171.755 66.8124 172.385 67.4429C172.425 67.482 172.46 67.5223 172.493 67.5638C172.532 67.6029 172.565 67.6408 172.593 67.6774L169.064 68.9805C169.547 69.4376 170.056 69.7382 170.59 69.8822C171.124 70.0261 171.703 69.9833 172.325 69.7535C172.669 69.6267 172.916 69.5017 173.069 69.3787C173.221 69.2556 173.325 69.1602 173.382 69.0925L173.909 69.46C173.857 69.5326 173.732 69.6424 173.532 69.7895C173.34 69.9342 173.075 70.0688 172.738 70.1933C172.297 70.356 171.872 70.4459 171.463 70.463C171.055 70.4802 170.662 70.4378 170.285 70.3361C169.908 70.2343 169.555 70.0804 169.225 69.8744C168.89 69.6635 168.578 69.4139 168.29 69.1255ZM171.558 67.5075C171.15 67.1164 170.719 66.8539 170.266 66.7201C169.812 66.5863 169.372 66.5984 168.944 66.7563C168.717 66.8401 168.547 66.9497 168.434 67.0851C168.327 67.2182 168.265 67.3685 168.246 67.5361C168.228 67.6963 168.257 67.8666 168.33 68.0468C168.41 68.2247 168.527 68.3991 168.68 68.5701L171.558 67.5075ZM179.695 67.3538C179.556 67.4721 179.363 67.607 179.115 67.7587C178.867 67.9104 178.52 68.0688 178.072 68.2339C177.703 68.3703 177.322 68.4508 176.929 68.4753C176.538 68.4925 176.147 68.4563 175.756 68.3666C175.371 68.2745 174.995 68.129 174.627 67.9301C174.266 67.7287 173.932 67.4741 173.624 67.1662C173.336 66.8778 173.121 66.5959 172.979 66.3205C172.838 66.0379 172.778 65.7726 172.796 65.5249C172.815 65.2771 172.915 65.0529 173.096 64.8523C173.283 64.6492 173.559 64.4807 173.922 64.3467C174.252 64.2246 174.574 64.156 174.887 64.1407C175.202 64.1182 175.446 64.1184 175.62 64.1412L173.583 62.1031L174.127 61.7817L179.695 67.3538ZM176.081 64.6031C175.989 64.5905 175.878 64.5813 175.748 64.5757C175.624 64.5677 175.487 64.5682 175.336 64.577C175.186 64.5859 175.032 64.6057 174.877 64.6364C174.716 64.6622 174.561 64.7026 174.412 64.7577C174.101 64.8726 173.88 65.011 173.749 65.1731C173.625 65.3328 173.569 65.5074 173.58 65.697C173.588 65.8817 173.657 66.0802 173.789 66.2923C173.917 66.4996 174.085 66.7083 174.295 66.9185C174.794 67.4171 175.342 67.7397 175.941 67.8865C176.536 68.0284 177.105 67.9988 177.65 67.7978C177.961 67.6829 178.201 67.581 178.369 67.492C178.539 67.3958 178.661 67.3175 178.733 67.2572L176.081 64.6031Z" fill="black"/>
<path d="M167.561 99.8239C166.5 100.143 165.58 100.345 164.802 100.43C164.028 100.499 163.424 100.527 162.989 100.514L162.2 98.7463C162.816 98.7498 163.509 98.7038 164.276 98.6085C165.057 98.5079 165.854 98.3077 166.666 98.0079C167.632 97.6512 168.192 97.3001 168.345 96.9545C168.501 96.5932 168.4 96.233 168.042 95.8741C167.799 95.6312 167.511 95.4485 167.177 95.3259C166.844 95.2032 166.469 95.125 166.052 95.0911C165.634 95.0573 165.172 95.0546 164.664 95.0833C164.169 95.1067 163.628 95.1404 163.039 95.1843C162.489 95.2284 161.923 95.2567 161.341 95.2691C160.774 95.2764 160.209 95.239 159.648 95.1571C159.09 95.0595 158.554 94.8963 158.038 94.6677C157.522 94.439 157.042 94.103 156.599 93.6595C155.871 92.931 155.541 92.2074 155.608 91.4887C155.666 90.7594 156.215 90.1011 157.258 89.5139L155.485 87.7401L157.67 86.9336L159.379 88.6441C160.093 88.4381 160.769 88.2898 161.407 88.1989C162.034 88.0975 162.549 88.0374 162.952 88.0187L163.994 89.7805C163.472 89.8142 162.878 89.8817 162.212 89.9829C161.561 90.079 160.878 90.2588 160.163 90.5224C159.407 90.8016 158.946 91.1166 158.779 91.4673C158.601 91.8075 158.692 92.1571 159.05 92.516C159.261 92.7272 159.497 92.886 159.756 92.9925C160.006 93.0884 160.3 93.153 160.64 93.1865C160.97 93.2093 161.348 93.2141 161.776 93.2008C162.193 93.1769 162.657 93.1428 163.169 93.0985C163.912 93.0554 164.63 93.0359 165.324 93.0398C166.022 93.0281 166.686 93.0791 167.317 93.1929C167.938 93.2962 168.522 93.4779 169.07 93.7383C169.632 93.9934 170.145 94.3533 170.609 94.8178C171.305 95.5147 171.62 96.2225 171.552 96.9412C171.484 97.66 170.866 98.3362 169.698 98.97L171.676 100.95L169.491 101.756L167.561 99.8239ZM172.894 86.2347C173.463 85.692 173.964 85.0807 174.396 84.4007C174.843 83.7156 175.122 82.9981 175.235 82.2481L177.021 81.589L187.988 92.5642L185.447 93.5025L177.043 85.0929C176.887 85.4542 176.627 85.8464 176.264 86.2695C175.901 86.6927 175.522 87.0711 175.127 87.4048L172.894 86.2347ZM198.516 77.5557C198.896 77.9358 199.165 78.3494 199.325 78.7965C199.473 79.233 199.554 79.6875 199.566 80.16C199.581 80.6168 199.543 81.0863 199.45 81.5687C199.346 82.0406 199.237 82.5071 199.123 82.9684C199.057 83.2095 198.995 83.4926 198.937 83.8177C198.878 84.1428 198.834 84.4627 198.803 84.7775C198.773 85.0923 198.772 85.3889 198.801 85.6672C198.819 85.935 198.89 86.1402 199.013 86.2826L205.483 83.8942L207.097 85.5096L197.834 88.9293C197.736 88.85 197.628 88.7523 197.512 88.6362C197.386 88.5095 197.291 88.4144 197.227 88.3511C196.721 87.8443 196.362 87.341 196.15 86.8411C195.941 86.3255 195.827 85.8183 195.808 85.3195C195.789 84.8208 195.833 84.3276 195.94 83.84C196.047 83.3525 196.159 82.8702 196.277 82.3932C196.37 82.0263 196.455 81.6698 196.531 81.3238C196.607 80.9778 196.646 80.6526 196.648 80.3481C196.654 80.028 196.611 79.7259 196.519 79.4419C196.417 79.1474 196.239 78.8734 195.985 78.62C195.437 78.071 194.836 77.7579 194.184 77.6807C193.532 77.6035 192.905 77.6761 192.303 77.8984C191.911 78.0431 191.589 78.2197 191.337 78.4283C191.086 78.6368 190.885 78.8483 190.735 79.0626C190.599 79.2718 190.496 79.476 190.427 79.675C190.347 79.8635 190.295 80.0128 190.27 80.1229L187.665 79.242C187.831 78.6026 188.179 78.0114 188.71 77.4685C189.245 76.9099 189.967 76.4626 190.877 76.1266C192.432 75.5527 193.852 75.4112 195.14 75.702C196.43 75.977 197.556 76.5949 198.516 77.5557ZM216.448 78.0248C216.902 78.4788 217.219 78.9399 217.399 79.4081C217.58 79.8763 217.602 80.3305 217.467 80.7707C217.332 81.2108 217.028 81.6264 216.556 82.0174C216.098 82.4032 215.463 82.7461 214.651 83.0459C213.699 83.3974 212.808 83.5892 211.977 83.6212C211.146 83.6533 210.389 83.586 209.705 83.4194C209.021 83.2527 208.421 83.0263 207.905 82.7399C207.392 82.4378 206.977 82.1283 206.661 81.8116C206.344 81.4948 206.11 81.1838 205.958 80.8785C205.81 80.5575 205.73 80.2473 205.719 79.948C205.697 79.6382 205.724 79.3392 205.8 79.0509C205.876 78.7626 205.987 78.4903 206.134 78.2339C205.152 78.1339 204.305 77.948 203.592 77.6762C202.883 77.3887 202.244 76.9599 201.674 76.3898C201.263 75.978 200.977 75.5486 200.818 75.1015C200.662 74.6387 200.645 74.1898 200.766 73.7548C200.888 73.3198 201.151 72.9119 201.556 72.531C201.961 72.1501 202.514 71.8304 203.214 71.572C204.04 71.267 204.83 71.0982 205.584 71.0658C206.351 71.0281 207.059 71.0846 207.708 71.2353C208.371 71.3808 208.961 71.5967 209.477 71.8831C209.993 72.1695 210.415 72.4763 210.742 72.8036C211.322 73.3843 211.629 73.9792 211.663 74.5883C211.686 75.1869 211.556 75.7189 211.274 76.1845C212.438 76.2173 213.437 76.3831 214.272 76.6818C215.121 76.9753 215.847 77.423 216.448 78.0248ZM209.129 80.8571C209.287 81.0155 209.498 81.1689 209.761 81.3174C210.025 81.4659 210.328 81.5778 210.672 81.6533C211.016 81.7287 211.394 81.7624 211.808 81.7542C212.211 81.7355 212.643 81.6408 213.105 81.4703C213.526 81.3152 213.847 81.1385 214.071 80.9403C214.295 80.7421 214.436 80.5382 214.495 80.3286C214.543 80.1084 214.527 79.8905 214.445 79.6748C214.353 79.4486 214.213 79.2404 214.023 79.0504C213.727 78.7547 213.392 78.5245 213.016 78.3596C212.641 78.1948 212.227 78.0875 211.774 78.0376C211.325 77.9721 210.847 77.9536 210.339 77.9822C209.82 78.0003 209.275 78.0497 208.704 78.1304C208.443 78.5594 208.332 79.0049 208.372 79.4671C208.402 79.9187 208.654 80.382 209.129 80.8571ZM208.295 73.7503C208.158 73.6131 207.968 73.4808 207.726 73.3534C207.487 73.2103 207.208 73.1038 206.889 73.0337C206.584 72.9585 206.251 72.9225 205.89 72.9257C205.529 72.9289 205.159 73.0003 204.781 73.1398C204.403 73.2794 204.121 73.4484 203.936 73.6468C203.755 73.8295 203.654 74.0258 203.633 74.2356C203.602 74.4349 203.629 74.6346 203.714 74.8345C203.788 75.0239 203.905 75.1978 204.063 75.3561C204.464 75.7574 205.04 76.0651 205.79 76.2793C206.555 76.4884 207.512 76.5253 208.661 76.3901C208.937 75.956 209.069 75.5316 209.057 75.1168C209.034 74.6915 208.78 74.236 208.295 73.7503ZM225.943 71.029C227.789 72.8767 228.76 74.4622 228.856 75.7855C228.941 77.0983 228.192 78.0467 226.61 78.6309C225.028 79.215 223.298 79.1816 221.421 78.5305C219.533 77.8689 217.665 76.6143 215.819 74.7666C214.901 73.848 214.201 72.9937 213.718 72.2036C213.239 71.3977 212.973 70.6719 212.922 70.0259C212.885 69.3748 213.048 68.8088 213.411 68.328C213.787 67.842 214.368 67.4542 215.152 67.1647C216.734 66.5805 218.47 66.6193 220.357 67.2809C222.235 67.9319 224.097 69.1813 225.943 71.029ZM223.318 71.9983C222.748 71.4281 222.173 70.9105 221.593 70.4452C221.013 69.98 220.446 69.6041 219.891 69.3175C219.34 69.0152 218.805 68.8153 218.286 68.7179C217.766 68.6204 217.276 68.657 216.814 68.8276C216.352 68.9982 216.065 69.2485 215.954 69.5786C215.857 69.9035 215.895 70.2869 216.068 70.7288C216.245 71.155 216.539 71.6317 216.951 72.159C217.377 72.681 217.875 73.2272 218.445 73.7973C219.014 74.3674 219.582 74.8877 220.148 75.3581C220.728 75.8233 221.294 76.2071 221.845 76.5094C222.4 76.796 222.937 76.988 223.456 77.0855C223.989 77.1777 224.486 77.1386 224.948 76.968C225.41 76.7974 225.69 76.5496 225.787 76.2247C225.884 75.8998 225.844 75.5243 225.668 75.0981C225.494 74.6562 225.202 74.1716 224.79 73.6444C224.378 73.1171 223.887 72.5684 223.318 71.9983ZM234.483 72.5156C234.691 72.6847 234.837 72.8115 234.921 72.896C235.005 72.9804 235.09 73.0649 235.174 73.1494C235.828 73.804 236.364 74.5314 236.78 75.3316C237.21 76.1267 237.492 76.9262 237.624 77.73L235.217 78.0549C234.941 77.3185 234.564 76.634 234.085 76.0013C233.631 75.3741 233.182 74.8388 232.739 74.3953C232.612 74.2686 232.447 74.1128 232.243 73.928C232.053 73.7379 231.904 73.598 231.795 73.5081L234.483 72.5156ZM243.501 64.5468C245.348 66.3945 246.319 67.98 246.414 69.3033C246.499 70.6161 245.75 71.5646 244.168 72.1487C242.586 72.7329 240.856 72.6994 238.979 72.0484C237.091 71.3868 235.224 70.1321 233.377 68.2844C232.459 67.3659 231.759 66.5115 231.276 65.7214C230.797 64.9156 230.531 64.1897 230.48 63.5438C230.443 62.8927 230.606 62.3267 230.969 61.8458C231.346 61.3598 231.926 60.972 232.71 60.6825C234.293 60.0984 236.028 60.1371 237.916 60.7987C239.793 61.4498 241.655 62.6991 243.501 64.5468ZM240.876 65.5161C240.306 64.946 239.731 64.4283 239.151 63.9631C238.571 63.4979 238.004 63.122 237.449 62.8354C236.898 62.533 236.363 62.3331 235.844 62.2357C235.325 62.1383 234.834 62.1749 234.372 62.3455C233.91 62.516 233.623 62.7664 233.512 63.0964C233.415 63.4213 233.453 63.8047 233.626 64.2466C233.803 64.6728 234.097 65.1495 234.509 65.6768C234.935 66.1989 235.433 66.745 236.003 67.3151C236.572 67.8853 237.14 68.4055 237.706 68.8759C238.286 69.3411 238.852 69.7249 239.403 70.0273C239.958 70.3139 240.495 70.5059 241.014 70.6033C241.547 70.6956 242.044 70.6564 242.506 70.4858C242.969 70.3152 243.248 70.0675 243.345 69.7426C243.442 69.4177 243.402 69.0421 243.226 68.616C243.052 68.174 242.76 67.6895 242.348 67.1622C241.936 66.635 241.445 66.0863 240.876 65.5161ZM255.439 60.1396C257.285 61.9872 258.256 63.5727 258.352 64.8961C258.437 66.2088 257.688 67.1573 256.106 67.7415C254.524 68.3256 252.794 68.2922 250.917 67.6411C249.029 66.9795 247.161 65.7248 245.315 63.8772C244.397 62.9586 243.697 62.1043 243.214 61.3142C242.735 60.5083 242.469 59.7824 242.418 59.1365C242.381 58.4854 242.544 57.9194 242.906 57.4386C243.283 56.9525 243.864 56.5648 244.648 56.2753C246.23 55.6911 247.966 55.7298 249.853 56.3915C251.731 57.0425 253.593 58.2919 255.439 60.1396ZM252.814 61.1089C252.244 60.5387 251.669 60.021 251.089 59.5558C250.509 59.0906 249.942 58.7147 249.387 58.4281C248.836 58.1258 248.301 57.9259 247.782 57.8284C247.262 57.731 246.772 57.7676 246.31 57.9382C245.848 58.1088 245.561 58.3591 245.45 58.6892C245.353 59.0141 245.391 59.3975 245.564 59.8394C245.741 60.2656 246.035 60.7423 246.447 61.2695C246.873 61.7916 247.371 62.3377 247.941 62.9079C248.51 63.478 249.078 63.9983 249.644 64.4687C250.224 64.9339 250.79 65.3177 251.341 65.62C251.896 65.9066 252.433 66.0986 252.952 66.196C253.485 66.2883 253.982 66.2491 254.444 66.0785C254.906 65.9079 255.186 65.6602 255.283 65.3353C255.38 65.0104 255.34 64.6349 255.164 64.2087C254.99 63.7668 254.698 63.2822 254.286 62.7549C253.874 62.2277 253.383 61.679 252.814 61.1089Z" fill="#3F65B3"/>
<path d="M167.561 99.8239C166.5 100.143 165.58 100.345 164.802 100.43C164.028 100.499 163.424 100.527 162.989 100.514L162.2 98.7463C162.816 98.7498 163.509 98.7038 164.276 98.6085C165.057 98.5079 165.854 98.3077 166.666 98.0079C167.632 97.6512 168.192 97.3001 168.345 96.9545C168.501 96.5932 168.4 96.233 168.042 95.8741C167.799 95.6312 167.511 95.4485 167.177 95.3259C166.844 95.2032 166.469 95.125 166.052 95.0911C165.634 95.0573 165.172 95.0546 164.664 95.0833C164.169 95.1067 163.628 95.1404 163.039 95.1843C162.489 95.2284 161.923 95.2567 161.341 95.2691C160.774 95.2764 160.209 95.239 159.648 95.1571C159.09 95.0595 158.554 94.8963 158.038 94.6677C157.522 94.439 157.042 94.103 156.599 93.6595C155.871 92.931 155.541 92.2074 155.608 91.4887C155.666 90.7594 156.215 90.1011 157.258 89.5139L155.485 87.7401L157.67 86.9336L159.379 88.6441C160.093 88.4381 160.769 88.2898 161.407 88.1989C162.034 88.0975 162.549 88.0374 162.952 88.0187L163.994 89.7805C163.472 89.8142 162.878 89.8817 162.212 89.9829C161.561 90.079 160.878 90.2588 160.163 90.5224C159.407 90.8016 158.946 91.1166 158.779 91.4673C158.601 91.8075 158.692 92.1571 159.05 92.516C159.261 92.7272 159.497 92.886 159.756 92.9925C160.006 93.0884 160.3 93.153 160.64 93.1865C160.97 93.2093 161.348 93.2141 161.776 93.2008C162.193 93.1769 162.657 93.1428 163.169 93.0985C163.912 93.0554 164.63 93.0359 165.324 93.0398C166.022 93.0281 166.686 93.0791 167.317 93.1929C167.938 93.2962 168.522 93.4779 169.07 93.7383C169.632 93.9934 170.145 94.3533 170.609 94.8178C171.305 95.5147 171.62 96.2225 171.552 96.9412C171.484 97.66 170.866 98.3362 169.698 98.97L171.676 100.95L169.491 101.756L167.561 99.8239ZM172.894 86.2347C173.463 85.692 173.964 85.0807 174.396 84.4007C174.843 83.7156 175.122 82.9981 175.235 82.2481L177.021 81.589L187.988 92.5642L185.447 93.5025L177.043 85.0929C176.887 85.4542 176.627 85.8464 176.264 86.2695C175.901 86.6927 175.522 87.0711 175.127 87.4048L172.894 86.2347ZM198.516 77.5557C198.896 77.9358 199.165 78.3494 199.325 78.7965C199.473 79.233 199.554 79.6875 199.566 80.16C199.581 80.6168 199.543 81.0863 199.45 81.5687C199.346 82.0406 199.237 82.5071 199.123 82.9684C199.057 83.2095 198.995 83.4926 198.937 83.8177C198.878 84.1428 198.834 84.4627 198.803 84.7775C198.773 85.0923 198.772 85.3889 198.801 85.6672C198.819 85.935 198.89 86.1402 199.013 86.2826L205.483 83.8942L207.097 85.5096L197.834 88.9293C197.736 88.85 197.628 88.7523 197.512 88.6362C197.386 88.5095 197.291 88.4144 197.227 88.3511C196.721 87.8443 196.362 87.341 196.15 86.8411C195.941 86.3255 195.827 85.8183 195.808 85.3195C195.789 84.8208 195.833 84.3276 195.94 83.84C196.047 83.3525 196.159 82.8702 196.277 82.3932C196.37 82.0263 196.455 81.6698 196.531 81.3238C196.607 80.9778 196.646 80.6526 196.648 80.3481C196.654 80.028 196.611 79.7259 196.519 79.4419C196.417 79.1474 196.239 78.8734 195.985 78.62C195.437 78.071 194.836 77.7579 194.184 77.6807C193.532 77.6035 192.905 77.6761 192.303 77.8984C191.911 78.0431 191.589 78.2197 191.337 78.4283C191.086 78.6368 190.885 78.8483 190.735 79.0626C190.599 79.2718 190.496 79.476 190.427 79.675C190.347 79.8635 190.295 80.0128 190.27 80.1229L187.665 79.242C187.831 78.6026 188.179 78.0114 188.71 77.4685C189.245 76.9099 189.967 76.4626 190.877 76.1266C192.432 75.5527 193.852 75.4112 195.14 75.702C196.43 75.977 197.556 76.5949 198.516 77.5557ZM216.448 78.0248C216.902 78.4788 217.219 78.9399 217.399 79.4081C217.58 79.8763 217.602 80.3305 217.467 80.7707C217.332 81.2108 217.028 81.6264 216.556 82.0174C216.098 82.4032 215.463 82.7461 214.651 83.0459C213.699 83.3974 212.808 83.5892 211.977 83.6212C211.146 83.6533 210.389 83.586 209.705 83.4194C209.021 83.2527 208.421 83.0263 207.905 82.7399C207.392 82.4378 206.977 82.1283 206.661 81.8116C206.344 81.4948 206.11 81.1838 205.958 80.8785C205.81 80.5575 205.73 80.2473 205.719 79.948C205.697 79.6382 205.724 79.3392 205.8 79.0509C205.876 78.7626 205.987 78.4903 206.134 78.2339C205.152 78.1339 204.305 77.948 203.592 77.6762C202.883 77.3887 202.244 76.9599 201.674 76.3898C201.263 75.978 200.977 75.5486 200.818 75.1015C200.662 74.6387 200.645 74.1898 200.766 73.7548C200.888 73.3198 201.151 72.9119 201.556 72.531C201.961 72.1501 202.514 71.8304 203.214 71.572C204.04 71.267 204.83 71.0982 205.584 71.0658C206.351 71.0281 207.059 71.0846 207.708 71.2353C208.371 71.3808 208.961 71.5967 209.477 71.8831C209.993 72.1695 210.415 72.4763 210.742 72.8036C211.322 73.3843 211.629 73.9792 211.663 74.5883C211.686 75.1869 211.556 75.7189 211.274 76.1845C212.438 76.2173 213.437 76.3831 214.272 76.6818C215.121 76.9753 215.847 77.423 216.448 78.0248ZM209.129 80.8571C209.287 81.0155 209.498 81.1689 209.761 81.3174C210.025 81.4659 210.328 81.5778 210.672 81.6533C211.016 81.7287 211.394 81.7624 211.808 81.7542C212.211 81.7355 212.643 81.6408 213.105 81.4703C213.526 81.3152 213.847 81.1385 214.071 80.9403C214.295 80.7421 214.436 80.5382 214.495 80.3286C214.543 80.1084 214.527 79.8905 214.445 79.6748C214.353 79.4486 214.213 79.2404 214.023 79.0504C213.727 78.7547 213.392 78.5245 213.016 78.3596C212.641 78.1948 212.227 78.0875 211.774 78.0376C211.325 77.9721 210.847 77.9536 210.339 77.9822C209.82 78.0003 209.275 78.0497 208.704 78.1304C208.443 78.5594 208.332 79.0049 208.372 79.4671C208.402 79.9187 208.654 80.382 209.129 80.8571ZM208.295 73.7503C208.158 73.6131 207.968 73.4808 207.726 73.3534C207.487 73.2103 207.208 73.1038 206.889 73.0337C206.584 72.9585 206.251 72.9225 205.89 72.9257C205.529 72.9289 205.159 73.0003 204.781 73.1398C204.403 73.2794 204.121 73.4484 203.936 73.6468C203.755 73.8295 203.654 74.0258 203.633 74.2356C203.602 74.4349 203.629 74.6346 203.714 74.8345C203.788 75.0239 203.905 75.1978 204.063 75.3561C204.464 75.7574 205.04 76.0651 205.79 76.2793C206.555 76.4884 207.512 76.5253 208.661 76.3901C208.937 75.956 209.069 75.5316 209.057 75.1168C209.034 74.6915 208.78 74.236 208.295 73.7503ZM225.943 71.029C227.789 72.8767 228.76 74.4622 228.856 75.7855C228.941 77.0983 228.192 78.0467 226.61 78.6309C225.028 79.215 223.298 79.1816 221.421 78.5305C219.533 77.8689 217.665 76.6143 215.819 74.7666C214.901 73.848 214.201 72.9937 213.718 72.2036C213.239 71.3977 212.973 70.6719 212.922 70.0259C212.885 69.3748 213.048 68.8088 213.411 68.328C213.787 67.842 214.368 67.4542 215.152 67.1647C216.734 66.5805 218.47 66.6193 220.357 67.2809C222.235 67.9319 224.097 69.1813 225.943 71.029ZM223.318 71.9983C222.748 71.4281 222.173 70.9105 221.593 70.4452C221.013 69.98 220.446 69.6041 219.891 69.3175C219.34 69.0152 218.805 68.8153 218.286 68.7179C217.766 68.6204 217.276 68.657 216.814 68.8276C216.352 68.9982 216.065 69.2485 215.954 69.5786C215.857 69.9035 215.895 70.2869 216.068 70.7288C216.245 71.155 216.539 71.6317 216.951 72.159C217.377 72.681 217.875 73.2272 218.445 73.7973C219.014 74.3674 219.582 74.8877 220.148 75.3581C220.728 75.8233 221.294 76.2071 221.845 76.5094C222.4 76.796 222.937 76.988 223.456 77.0855C223.989 77.1777 224.486 77.1386 224.948 76.968C225.41 76.7974 225.69 76.5496 225.787 76.2247C225.884 75.8998 225.844 75.5243 225.668 75.0981C225.494 74.6562 225.202 74.1716 224.79 73.6444C224.378 73.1171 223.887 72.5684 223.318 71.9983ZM234.483 72.5156C234.691 72.6847 234.837 72.8115 234.921 72.896C235.005 72.9804 235.09 73.0649 235.174 73.1494C235.828 73.804 236.364 74.5314 236.78 75.3316C237.21 76.1267 237.492 76.9262 237.624 77.73L235.217 78.0549C234.941 77.3185 234.564 76.634 234.085 76.0013C233.631 75.3741 233.182 74.8388 232.739 74.3953C232.612 74.2686 232.447 74.1128 232.243 73.928C232.053 73.7379 231.904 73.598 231.795 73.5081L234.483 72.5156ZM243.501 64.5468C245.348 66.3945 246.319 67.98 246.414 69.3033C246.499 70.6161 245.75 71.5646 244.168 72.1487C242.586 72.7329 240.856 72.6994 238.979 72.0484C237.091 71.3868 235.224 70.1321 233.377 68.2844C232.459 67.3659 231.759 66.5115 231.276 65.7214C230.797 64.9156 230.531 64.1897 230.48 63.5438C230.443 62.8927 230.606 62.3267 230.969 61.8458C231.346 61.3598 231.926 60.972 232.71 60.6825C234.293 60.0984 236.028 60.1371 237.916 60.7987C239.793 61.4498 241.655 62.6991 243.501 64.5468ZM240.876 65.5161C240.306 64.946 239.731 64.4283 239.151 63.9631C238.571 63.4979 238.004 63.122 237.449 62.8354C236.898 62.533 236.363 62.3331 235.844 62.2357C235.325 62.1383 234.834 62.1749 234.372 62.3455C233.91 62.516 233.623 62.7664 233.512 63.0964C233.415 63.4213 233.453 63.8047 233.626 64.2466C233.803 64.6728 234.097 65.1495 234.509 65.6768C234.935 66.1989 235.433 66.745 236.003 67.3151C236.572 67.8853 237.14 68.4055 237.706 68.8759C238.286 69.3411 238.852 69.7249 239.403 70.0273C239.958 70.3139 240.495 70.5059 241.014 70.6033C241.547 70.6956 242.044 70.6564 242.506 70.4858C242.969 70.3152 243.248 70.0675 243.345 69.7426C243.442 69.4177 243.402 69.0421 243.226 68.616C243.052 68.174 242.76 67.6895 242.348 67.1622C241.936 66.635 241.445 66.0863 240.876 65.5161ZM255.439 60.1396C257.285 61.9872 258.256 63.5727 258.352 64.8961C258.437 66.2088 257.688 67.1573 256.106 67.7415C254.524 68.3256 252.794 68.2922 250.917 67.6411C249.029 66.9795 247.161 65.7248 245.315 63.8772C244.397 62.9586 243.697 62.1043 243.214 61.3142C242.735 60.5083 242.469 59.7824 242.418 59.1365C242.381 58.4854 242.544 57.9194 242.906 57.4386C243.283 56.9525 243.864 56.5648 244.648 56.2753C246.23 55.6911 247.966 55.7298 249.853 56.3915C251.731 57.0425 253.593 58.2919 255.439 60.1396ZM252.814 61.1089C252.244 60.5387 251.669 60.021 251.089 59.5558C250.509 59.0906 249.942 58.7147 249.387 58.4281C248.836 58.1258 248.301 57.9259 247.782 57.8284C247.262 57.731 246.772 57.7676 246.31 57.9382C245.848 58.1088 245.561 58.3591 245.45 58.6892C245.353 59.0141 245.391 59.3975 245.564 59.8394C245.741 60.2656 246.035 60.7423 246.447 61.2695C246.873 61.7916 247.371 62.3377 247.941 62.9079C248.51 63.478 249.078 63.9983 249.644 64.4687C250.224 64.9339 250.79 65.3177 251.341 65.62C251.896 65.9066 252.433 66.0986 252.952 66.196C253.485 66.2883 253.982 66.2491 254.444 66.0785C254.906 65.9079 255.186 65.6602 255.283 65.3353C255.38 65.0104 255.34 64.6349 255.164 64.2087C254.99 63.7668 254.698 63.2822 254.286 62.7549C253.874 62.2277 253.383 61.679 252.814 61.1089Z" fill="url(#paint5_linear_424_18413)"/>
<g filter="url(#filter3_d_424_18413)">
<rect width="40.9916" height="36.9972" rx="10.2485" transform="matrix(0.938072 -0.34632 0.706808 0.707314 82.0269 83.9907)" fill="#D9D9D9"/>
<rect width="40.9916" height="36.9972" rx="10.2485" transform="matrix(0.938072 -0.34632 0.706808 0.707314 82.0269 83.9907)" fill="url(#paint6_linear_424_18413)"/>
</g>
<rect width="40.9916" height="36.9972" rx="10.2485" transform="matrix(0.938072 -0.34632 0.706808 0.707314 82.0268 79.9907)" fill="url(#paint7_linear_424_18413)"/>
<path d="M108.508 83.3395L107.141 81.974C106.779 81.6119 106.629 81.1918 106.724 80.8061C106.819 80.4204 107.153 80.1008 107.65 79.9175L111.403 78.5354C111.9 78.3521 112.522 78.3202 113.13 78.4466C113.738 78.5731 114.284 78.8476 114.646 79.2097L116.014 80.5752M108.857 88.8179L112.351 88.2668C115.882 87.7099 119.007 86.5588 121.451 84.9151L123.868 83.2893" stroke="white" stroke-width="1.5767" stroke-linecap="round"/>
<path d="M106.436 86.4039C106.06 86.0291 105.898 85.5968 105.985 85.2022C106.071 84.8076 106.399 84.483 106.897 84.2997L118.155 80.1535C118.652 79.9702 119.279 79.9433 119.896 80.0788C120.513 80.2142 121.071 80.5008 121.446 80.8756L127.106 86.5282C127.481 86.903 127.643 87.3352 127.556 87.7298C127.47 88.1244 127.142 88.4491 126.644 88.6324L115.386 92.7786C114.889 92.9618 114.262 92.9887 113.645 92.8533C113.028 92.7179 112.47 92.4312 112.095 92.0564L106.436 86.4039Z" stroke="white" stroke-width="1.5767" stroke-linejoin="round"/>
<path d="M116.371 86.0584C116.89 85.8675 116.993 85.3964 116.602 85.0062C116.212 84.6159 115.475 84.4543 114.956 84.6451C114.438 84.836 114.335 85.3071 114.726 85.6974C115.116 86.0876 115.853 86.2493 116.371 86.0584Z" fill="#407CE0"/>
<defs>
<filter id="filter0_ddddd_424_18413" x="0.545129" y="15.5554" width="312.643" height="186.775" filterUnits="userSpaceOnUse" color-interpolation-filters="sRGB">
<feFlood flood-opacity="0" result="BackgroundImageFix"/>
<feColorMatrix in="SourceAlpha" type="matrix" values="0 0 0 0 0 0 0 0 0 0 0 0 0 0 0 0 0 0 127 0" result="hardAlpha"/>
<feOffset/>
<feColorMatrix type="matrix" values="0 0 0 0 0 0 0 0 0 0 0 0 0 0 0 0 0 0 0.05 0"/>
<feBlend mode="normal" in2="BackgroundImageFix" result="effect1_dropShadow_424_18413"/>
<feColorMatrix in="SourceAlpha" type="matrix" values="0 0 0 0 0 0 0 0 0 0 0 0 0 0 0 0 0 0 127 0" result="hardAlpha"/>
<feOffset dx="-0.715527" dy="1.43105"/>
<feGaussianBlur stdDeviation="2.14658"/>
<feColorMatrix type="matrix" values="0 0 0 0 0 0 0 0 0 0 0 0 0 0 0 0 0 0 0.05 0"/>
<feBlend mode="normal" in2="effect1_dropShadow_424_18413" result="effect2_dropShadow_424_18413"/>
<feColorMatrix in="SourceAlpha" type="matrix" values="0 0 0 0 0 0 0 0 0 0 0 0 0 0 0 0 0 0 127 0" result="hardAlpha"/>
<feOffset dx="-4.29316" dy="6.43974"/>
<feGaussianBlur stdDeviation="3.9354"/>
<feColorMatrix type="matrix" values="0 0 0 0 0 0 0 0 0 0 0 0 0 0 0 0 0 0 0.04 0"/>
<feBlend mode="normal" in2="effect2_dropShadow_424_18413" result="effect3_dropShadow_424_18413"/>
<feColorMatrix in="SourceAlpha" type="matrix" values="0 0 0 0 0 0 0 0 0 0 0 0 0 0 0 0 0 0 127 0" result="hardAlpha"/>
<feOffset dx="-9.30185" dy="14.3105"/>
<feGaussianBlur stdDeviation="5.36645"/>
<feColorMatrix type="matrix" values="0 0 0 0 0 0 0 0 0 0 0 0 0 0 0 0 0 0 0.03 0"/>
<feBlend mode="normal" in2="effect3_dropShadow_424_18413" result="effect4_dropShadow_424_18413"/>
<feColorMatrix in="SourceAlpha" type="matrix" values="0 0 0 0 0 0 0 0 0 0 0 0 0 0 0 0 0 0 127 0" result="hardAlpha"/>
<feOffset dx="-17.1726" dy="25.759"/>
<feGaussianBlur stdDeviation="6.08198"/>
<feColorMatrix type="matrix" values="0 0 0 0 0 0 0 0 0 0 0 0 0 0 0 0 0 0 0.01 0"/>
<feBlend mode="normal" in2="effect4_dropShadow_424_18413" result="effect5_dropShadow_424_18413"/>
<feBlend mode="normal" in="SourceGraphic" in2="effect5_dropShadow_424_18413" result="shape"/>
</filter>
<filter id="filter1_i_424_18413" x="29.8835" y="7.41895" width="279.725" height="151.074" filterUnits="userSpaceOnUse" color-interpolation-filters="sRGB">
<feFlood flood-opacity="0" result="BackgroundImageFix"/>
<feBlend mode="normal" in="SourceGraphic" in2="BackgroundImageFix" result="shape"/>
<feColorMatrix in="SourceAlpha" type="matrix" values="0 0 0 0 0 0 0 0 0 0 0 0 0 0 0 0 0 0 127 0" result="hardAlpha"/>
<feOffset dy="5.08566"/>
<feGaussianBlur stdDeviation="8.89991"/>
<feComposite in2="hardAlpha" operator="arithmetic" k2="-1" k3="1"/>
<feColorMatrix type="matrix" values="0 0 0 0 0 0 0 0 0 0 0 0 0 0 0 0 0 0 0.04 0"/>
<feBlend mode="normal" in2="shape" result="effect1_innerShadow_424_18413"/>
</filter>
<filter id="filter2_i_424_18413" x="86.8464" y="91.519" width="54.964" height="40.0002" filterUnits="userSpaceOnUse" color-interpolation-filters="sRGB">
<feFlood flood-opacity="0" result="BackgroundImageFix"/>
<feBlend mode="normal" in="SourceGraphic" in2="BackgroundImageFix" result="shape"/>
<feColorMatrix in="SourceAlpha" type="matrix" values="0 0 0 0 0 0 0 0 0 0 0 0 0 0 0 0 0 0 127 0" result="hardAlpha"/>
<feOffset dy="5.08566"/>
<feGaussianBlur stdDeviation="8.89991"/>
<feComposite in2="hardAlpha" operator="arithmetic" k2="-1" k3="1"/>
<feColorMatrix type="matrix" values="0 0 0 0 0 0 0 0 0 0 0 0 0 0 0 0 0 0 0.12 0"/>
<feBlend mode="normal" in2="shape" result="effect1_innerShadow_424_18413"/>
</filter>
<filter id="filter3_d_424_18413" x="71.8678" y="72.5195" width="84.9212" height="68.8135" filterUnits="userSpaceOnUse" color-interpolation-filters="sRGB">
<feFlood flood-opacity="0" result="BackgroundImageFix"/>
<feColorMatrix in="SourceAlpha" type="matrix" values="0 0 0 0 0 0 0 0 0 0 0 0 0 0 0 0 0 0 127 0" result="hardAlpha"/>
<feOffset dy="18.9204"/>
<feGaussianBlur stdDeviation="7.48931"/>
<feComposite in2="hardAlpha" operator="out"/>
<feColorMatrix type="matrix" values="0 0 0 0 0.00784314 0 0 0 0 0.376471 0 0 0 0 0.968627 0 0 0 0.13 0"/>
<feBlend mode="normal" in2="BackgroundImageFix" result="effect1_dropShadow_424_18413"/>
<feBlend mode="normal" in="SourceGraphic" in2="effect1_dropShadow_424_18413" result="shape"/>
</filter>
<linearGradient id="paint0_linear_424_18413" x1="38.3037" y1="87.1825" x2="21.4295" y2="106.607" gradientUnits="userSpaceOnUse">
<stop offset="0.029378" stop-color="#E4E6EF"/>
<stop offset="1" stop-color="#E4E6F3"/>
</linearGradient>
<linearGradient id="paint1_linear_424_18413" x1="122.475" y1="0" x2="122.475" y2="106.991" gradientUnits="userSpaceOnUse">
<stop stop-color="#F2F3F7"/>
<stop offset="1" stop-color="#F9FAFC"/>
</linearGradient>
<linearGradient id="paint2_linear_424_18413" x1="20.4958" y1="0" x2="20.4958" y2="36.9972" gradientUnits="userSpaceOnUse">
<stop stop-color="#F2F3F7"/>
<stop offset="1" stop-color="#F9FAFC"/>
</linearGradient>
<linearGradient id="paint3_linear_424_18413" x1="-15.4597" y1="19.3527" x2="-15.4396" y2="19.6011" gradientUnits="userSpaceOnUse">
<stop stop-color="#90B4FF"/>
<stop offset="1" stop-color="#93B0F7"/>
</linearGradient>
<linearGradient id="paint4_linear_424_18413" x1="-15.4597" y1="19.3527" x2="-15.4396" y2="19.6011" gradientUnits="userSpaceOnUse">
<stop stop-color="#90B4FF"/>
<stop offset="1" stop-color="#93B0F7"/>
</linearGradient>
<linearGradient id="paint5_linear_424_18413" x1="192.448" y1="110.268" x2="225.052" y2="46.5588" gradientUnits="userSpaceOnUse">
<stop stop-color="#3F7BDD"/>
<stop offset="1" stop-color="#4282EC"/>
</linearGradient>
<linearGradient id="paint6_linear_424_18413" x1="-15.4597" y1="19.3527" x2="-15.4396" y2="19.6011" gradientUnits="userSpaceOnUse">
<stop stop-color="#90B4FF"/>
<stop offset="1" stop-color="#93B0F7"/>
</linearGradient>
<linearGradient id="paint7_linear_424_18413" x1="20.4958" y1="0" x2="20.4958" y2="36.9972" gradientUnits="userSpaceOnUse">
<stop stop-color="#3F7CDF"/>
<stop offset="1" stop-color="#4182EB"/>
</linearGradient>
</defs>
</svg>
