<svg width="344" height="211" viewBox="0 0 344 211" fill="none" xmlns="http://www.w3.org/2000/svg">
<g filter="url(#filter0_d_978_40768)">
<rect width="260.935" height="137.979" rx="27.3" transform="matrix(0.938021 -0.346579 0.706571 0.707642 0.0274353 99.9917)" fill="url(#paint0_linear_978_40768)"/>
</g>
<g filter="url(#filter1_i_978_40768)">
<rect width="260.935" height="137.979" rx="27.3" transform="matrix(0.937942 -0.346791 0.706325 0.707888 1.02716 90.9922)" fill="url(#paint1_linear_978_40768)"/>
</g>
<rect x="2.03889" y="0.44776" width="258.455" height="135.499" rx="26.06" transform="matrix(0.937942 -0.346791 0.706325 0.707888 0.837425 91.8301)" stroke="#3E4462" stroke-width="2.48"/>
<line y1="-0.477846" x2="233.943" y2="-0.477846" transform="matrix(0.937942 -0.346791 0.706325 0.707888 100.999 171.99)" stroke="#C4BEBE" stroke-width="0.955692"/>
<line y1="-0.126065" x2="233.943" y2="-0.126065" transform="matrix(0.937942 -0.346791 0.706325 0.707888 82.0046 152.991)" stroke="#C4BEBE" stroke-width="0.25213"/>
<line y1="-0.126065" x2="233.943" y2="-0.126065" transform="matrix(0.937942 -0.346791 0.706325 0.707888 63.0099 133.991)" stroke="#C4BEBE" stroke-width="0.25213"/>
<line y1="-0.126065" x2="233.943" y2="-0.126065" transform="matrix(0.937942 -0.346791 0.706325 0.707888 44.0154 114.992)" stroke="#C4BEBE" stroke-width="0.25213"/>
<line y1="-0.126065" x2="233.943" y2="-0.126065" transform="matrix(0.937942 -0.346791 0.706325 0.707888 25.0205 95.9917)" stroke="#C4BEBE" stroke-width="0.25213"/>
<path d="M99.1289 170.128L137.478 155.958L175.774 141.806C183.008 139.133 189.558 135.814 195.283 131.92L206.737 124.129C212.06 120.508 219.045 118.121 226.955 117.22L242.265 115.475C251.645 114.406 257.865 109.305 257.804 102.732V102.732L256.662 82.1574L254.129 68.7624L247.883 35.0761" stroke="url(#paint2_linear_978_40768)" stroke-width="4.20216" stroke-linecap="round"/>
<defs>
<filter id="filter0_d_978_40768" x="2.86287" y="16.8213" width="336.584" height="193.546" filterUnits="userSpaceOnUse" color-interpolation-filters="sRGB">
<feFlood flood-opacity="0" result="BackgroundImageFix"/>
<feColorMatrix in="SourceAlpha" type="matrix" values="0 0 0 0 0 0 0 0 0 0 0 0 0 0 0 0 0 0 127 0" result="hardAlpha"/>
<feOffset dy="10"/>
<feGaussianBlur stdDeviation="5"/>
<feComposite in2="hardAlpha" operator="out"/>
<feColorMatrix type="matrix" values="0 0 0 0 0.0625 0 0 0 0 0.0625 0 0 0 0 0.0625 0 0 0 0.12 0"/>
<feBlend mode="normal" in2="BackgroundImageFix" result="effect1_dropShadow_978_40768"/>
<feBlend mode="normal" in="SourceGraphic" in2="effect1_dropShadow_978_40768" result="shape"/>
</filter>
<filter id="filter1_i_978_40768" x="13.8595" y="7.77002" width="316.536" height="178.466" filterUnits="userSpaceOnUse" color-interpolation-filters="sRGB">
<feFlood flood-opacity="0" result="BackgroundImageFix"/>
<feBlend mode="normal" in="SourceGraphic" in2="BackgroundImageFix" result="shape"/>
<feColorMatrix in="SourceAlpha" type="matrix" values="0 0 0 0 0 0 0 0 0 0 0 0 0 0 0 0 0 0 127 0" result="hardAlpha"/>
<feOffset dy="4.83828"/>
<feGaussianBlur stdDeviation="8.46699"/>
<feComposite in2="hardAlpha" operator="arithmetic" k2="-1" k3="1"/>
<feColorMatrix type="matrix" values="0 0 0 0 0 0 0 0 0 0 0 0 0 0 0 0 0 0 0.04 0"/>
<feBlend mode="normal" in2="shape" result="effect1_innerShadow_978_40768"/>
</filter>
<linearGradient id="paint0_linear_978_40768" x1="19.1758" y1="145.895" x2="-9.14047" y2="5.69467" gradientUnits="userSpaceOnUse">
<stop offset="0.029378" stop-color="#2C3045"/>
<stop offset="1" stop-color="#6371AA"/>
</linearGradient>
<linearGradient id="paint1_linear_978_40768" x1="99.1991" y1="-40.1953" x2="190.768" y2="242.727" gradientUnits="userSpaceOnUse">
<stop stop-color="#121830"/>
<stop offset="0.9999" stop-color="#25242B"/>
</linearGradient>
<linearGradient id="paint2_linear_978_40768" x1="178.973" y1="45.9802" x2="154.659" y2="187.3" gradientUnits="userSpaceOnUse">
<stop stop-color="#E6BF60"/>
<stop offset="1" stop-color="#E8C35E" stop-opacity="0"/>
</linearGradient>
</defs>
</svg>
