<svg width="415" height="247" viewBox="0 0 415 247" fill="none" xmlns="http://www.w3.org/2000/svg">
<g filter="url(#filter0_ddddd_424_18957)">
<rect width="311.802" height="135.24" rx="25.9689" transform="matrix(0.938191 -0.346117 0.707107 0.707107 16.2266 121.92)" fill="url(#paint0_linear_424_18957)"/>
</g>
<g filter="url(#filter1_i_424_18957)">
<rect width="311.802" height="135.24" rx="25.9725" transform="matrix(0.938191 -0.346117 0.707107 0.707107 16.2278 107.92)" fill="url(#paint1_linear_424_18957)"/>
</g>
<rect x="1.49258" y="0.327482" width="309.988" height="133.425" rx="25.0653" transform="matrix(0.938191 -0.346117 0.707107 0.707107 16.0884 108.533)" stroke="#9CBCF4" stroke-width="1.81435"/>
<g filter="url(#filter2_i_424_18957)">
<rect width="52.6305" height="47.4703" rx="13" transform="matrix(0.938191 -0.346117 0.707107 0.707107 99.2265 130.217)" fill="#C6D8F5"/>
</g>
<rect x="1.9901" y="0.436642" width="50.2113" height="45.0512" rx="11.7904" transform="matrix(0.938191 -0.346117 0.707107 0.707107 99.0407 131.033)" stroke="#C6D8F5" stroke-width="2.41914"/>
<rect width="52.6999" height="47.5329" rx="13" transform="matrix(0.938191 -0.346117 0.707107 0.707107 99.1718 103.243)" fill="#D9D9D9"/>
<rect width="52.6999" height="47.5329" rx="13" transform="matrix(0.938191 -0.346117 0.707107 0.707107 99.1718 103.243)" fill="url(#paint2_linear_424_18957)"/>
<rect width="52.6999" height="47.5329" rx="13" transform="matrix(0.938191 -0.346117 0.707107 0.707107 99.1718 105.245)" fill="#D9D9D9"/>
<rect width="52.6999" height="47.5329" rx="13" transform="matrix(0.938191 -0.346117 0.707107 0.707107 99.1718 105.245)" fill="url(#paint3_linear_424_18957)"/>
<path d="M171.793 95.3526L172.632 95.0431L179.075 101.486L178.236 101.796L171.793 95.3526ZM176.607 96.0456C176.796 95.9081 177.061 95.734 177.402 95.5233C177.743 95.3127 178.206 95.0996 178.789 94.8842C179.275 94.7052 179.73 94.6093 180.156 94.5963C180.591 94.5803 181.002 94.6366 181.389 94.7652C181.779 94.8845 182.151 95.0654 182.506 95.3077C182.861 95.5501 183.203 95.8356 183.531 96.1641L186.218 98.851L185.416 99.1468L182.924 96.6551C182.584 96.3142 182.262 96.0381 181.961 95.8269C181.668 95.6126 181.373 95.4584 181.076 95.3642C180.788 95.267 180.493 95.2314 180.193 95.2574C179.894 95.2742 179.568 95.3478 179.215 95.4783C178.836 95.6178 178.523 95.7547 178.274 95.8888C178.034 96.02 177.885 96.1131 177.828 96.1682L182.048 100.389L181.247 100.685L176.607 96.0456ZM189.543 96.7333C189.45 96.403 189.323 96.0341 189.163 95.6264C188.996 95.2126 188.813 94.7925 188.612 94.3661C188.412 93.9305 188.197 93.501 187.965 93.0775C187.735 92.6448 187.505 92.246 187.275 91.8811L188.077 91.5853C188.369 92.08 188.638 92.5745 188.885 93.069C189.132 93.5634 189.357 94.053 189.56 94.538C189.772 95.0199 189.956 95.4908 190.112 95.9508C190.276 96.4078 190.423 96.8415 190.552 97.2521L189.787 97.5342C189.239 97.2784 188.668 97.0009 188.076 96.7017C187.485 96.4025 186.881 96.0863 186.267 95.753C185.66 95.4168 185.053 95.0682 184.444 94.7073C183.835 94.3463 183.237 93.9731 182.649 93.5877L183.5 93.2737C183.927 93.5658 184.4 93.8751 184.918 94.2016C185.438 94.5189 185.966 94.8331 186.502 95.1443C187.041 95.4463 187.574 95.7375 188.102 96.0178C188.624 96.292 189.104 96.5304 189.543 96.7333ZM191.406 93.6405C190.985 93.2191 190.697 92.8246 190.544 92.457C190.392 92.0802 190.338 91.7394 190.382 91.4346C190.435 91.1268 190.576 90.8626 190.806 90.6421C191.038 90.4124 191.33 90.2323 191.684 90.1018C192.465 89.8136 193.278 89.7767 194.123 89.991C194.976 90.2024 195.802 90.7079 196.602 91.5074C196.651 91.557 196.697 91.6081 196.738 91.6607C196.788 91.7103 196.83 91.7583 196.865 91.8047L192.388 93.4567C193.001 94.0364 193.647 94.4176 194.325 94.6002C195.003 94.7828 195.736 94.7285 196.526 94.4372C196.962 94.2765 197.276 94.118 197.469 93.962C197.662 93.806 197.794 93.685 197.866 93.5992L198.535 94.0652C198.469 94.1573 198.31 94.2965 198.058 94.483C197.813 94.6665 197.477 94.8371 197.05 94.9949C196.491 95.2012 195.952 95.3152 195.433 95.3368C194.914 95.3585 194.416 95.3048 193.938 95.1757C193.46 95.0466 193.011 94.8515 192.592 94.5902C192.167 94.3228 191.772 94.0062 191.406 93.6405ZM195.552 91.5892C195.034 91.0932 194.487 90.7604 193.912 90.5907C193.337 90.421 192.778 90.4362 192.235 90.6365C191.948 90.7427 191.732 90.8816 191.588 91.0534C191.453 91.222 191.374 91.4126 191.35 91.6251C191.328 91.8283 191.364 92.0442 191.457 92.2728C191.559 92.4983 191.707 92.7194 191.901 92.9362L195.552 91.5892ZM201.835 92.5042C202.295 92.3343 202.618 92.139 202.802 91.9182C202.989 91.6882 202.946 91.4368 202.673 91.1641C202.543 91.0339 202.402 90.933 202.252 90.8612C202.11 90.7865 201.939 90.7346 201.742 90.7058C201.544 90.6769 201.308 90.6663 201.034 90.674C200.769 90.6786 200.442 90.689 200.053 90.7053C199.74 90.7189 199.439 90.7279 199.151 90.7324C198.857 90.7308 198.578 90.7107 198.314 90.6722C198.044 90.6275 197.789 90.5521 197.547 90.4459C197.306 90.3398 197.083 90.1844 196.879 89.9799C196.488 89.5894 196.365 89.202 196.51 88.8177C196.663 88.4303 197.081 88.1107 197.763 87.8589C198.199 87.6981 198.585 87.594 198.92 87.5467C199.264 87.4963 199.515 87.4715 199.674 87.4724L200.028 88.0799C199.892 88.0791 199.674 88.0918 199.373 88.1178C199.081 88.1407 198.709 88.2356 198.256 88.4025C198.076 88.4692 197.918 88.5485 197.785 88.6401C197.653 88.7226 197.557 88.8175 197.496 88.925C197.428 89.0263 197.404 89.1371 197.423 89.2574C197.435 89.3714 197.507 89.4936 197.637 89.6237C197.767 89.7539 197.912 89.8533 198.07 89.922C198.229 89.9907 198.407 90.0395 198.605 90.0684C198.805 90.088 199.026 90.0955 199.269 90.0907C199.52 90.0829 199.802 90.0722 200.115 90.0586C200.436 90.0419 200.748 90.033 201.051 90.0316C201.355 90.021 201.65 90.0397 201.934 90.0875C202.212 90.1292 202.482 90.2078 202.744 90.3233C203 90.4326 203.242 90.6019 203.471 90.8313C203.905 91.2651 204.016 91.674 203.803 92.058C203.599 92.4389 203.122 92.7674 202.374 93.0434C201.815 93.2498 201.35 93.3703 200.979 93.4052C200.615 93.4462 200.365 93.4663 200.229 93.4656L199.89 92.8397C199.928 92.8429 200.003 92.8449 200.116 92.8456C200.223 92.84 200.365 92.8301 200.542 92.8157C200.713 92.7951 200.905 92.7623 201.119 92.7173C201.341 92.6693 201.58 92.5983 201.835 92.5042ZM202.177 86.3834L204.718 85.446L205.229 85.9573L202.688 86.8948L205.245 89.4515C205.518 89.7242 205.77 89.9368 206.001 90.0891C206.234 90.2322 206.455 90.3289 206.663 90.3794C206.871 90.4299 207.073 90.4403 207.268 90.4107C207.463 90.381 207.66 90.3297 207.857 90.2569C208.194 90.1325 208.438 90.0045 208.588 89.8729C208.731 89.735 208.836 89.6201 208.901 89.528L209.601 89.9573C209.542 90.0555 209.405 90.1949 209.192 90.3755C208.972 90.5499 208.694 90.6993 208.356 90.8236C207.962 90.9693 207.591 91.055 207.246 91.0807C206.902 91.0972 206.57 91.0583 206.251 90.964C205.934 90.8605 205.624 90.7032 205.323 90.4919C205.022 90.2806 204.71 90.0139 204.387 89.6915L199.962 85.2661L200.652 84.8587L202.177 86.3834ZM208.211 87.4409C207.79 87.0194 207.502 86.6249 207.348 86.2574C207.197 85.8806 207.143 85.5398 207.187 85.235C207.24 84.9272 207.381 84.663 207.611 84.4425C207.842 84.2127 208.135 84.0326 208.489 83.9022C209.27 83.6139 210.083 83.577 210.928 83.7914C211.781 84.0028 212.607 84.5082 213.407 85.3078C213.456 85.3574 213.502 85.4085 213.543 85.4611C213.593 85.5107 213.635 85.5587 213.67 85.6051L209.192 87.2571C209.806 87.8368 210.452 88.2179 211.13 88.4006C211.808 88.5832 212.541 88.5289 213.331 88.2376C213.767 88.0768 214.081 87.9184 214.274 87.7624C214.467 87.6063 214.599 87.4854 214.671 87.3995L215.34 87.8656C215.274 87.9576 215.115 88.0969 214.863 88.2834C214.618 88.4669 214.282 88.6375 213.855 88.7952C213.295 89.0015 212.756 89.1155 212.238 89.1372C211.719 89.1589 211.221 89.1052 210.743 88.9761C210.265 88.847 209.816 88.6518 209.397 88.3906C208.972 88.1232 208.577 87.8066 208.211 87.4409ZM212.357 85.3896C211.839 84.8936 211.292 84.5607 210.717 84.391C210.142 84.2213 209.583 84.2366 209.04 84.4368C208.752 84.543 208.537 84.682 208.393 84.8537C208.258 85.0224 208.178 85.213 208.155 85.4254C208.133 85.6287 208.168 85.8446 208.262 86.0731C208.364 86.2986 208.512 86.5198 208.706 86.7366L212.357 85.3896ZM222.681 85.1955C222.504 85.3454 222.259 85.5166 221.945 85.7089C221.63 85.9012 221.189 86.102 220.622 86.3114C220.153 86.4843 219.67 86.5863 219.172 86.6173C218.676 86.6391 218.179 86.5931 217.683 86.4793C217.195 86.3625 216.717 86.1779 216.251 85.9257C215.793 85.6704 215.369 85.3475 214.979 84.957C214.613 84.5913 214.34 84.2339 214.159 83.8846C213.981 83.5262 213.904 83.1899 213.927 82.8757C213.951 82.5616 214.078 82.2773 214.307 82.0229C214.545 81.7654 214.894 81.5518 215.355 81.3819C215.774 81.2271 216.183 81.1401 216.58 81.1208C216.979 81.0923 217.289 81.0926 217.509 81.1216L214.925 78.5369L215.615 78.1296L222.681 85.1955ZM218.095 81.7073C217.978 81.6912 217.837 81.6796 217.672 81.6725C217.515 81.6624 217.341 81.6629 217.15 81.6741C216.959 81.6853 216.764 81.7104 216.567 81.7493C216.363 81.7821 216.167 81.8333 215.977 81.9031C215.583 82.0487 215.302 82.2243 215.136 82.4298C214.978 82.6322 214.907 82.8537 214.922 83.0941C214.932 83.3283 215.02 83.5799 215.188 83.849C215.349 84.1118 215.563 84.3765 215.83 84.643C216.462 85.2752 217.158 85.6844 217.918 85.8706C218.673 86.0505 219.395 86.0131 220.086 85.7583C220.481 85.6126 220.785 85.4834 220.998 85.3707C221.214 85.2487 221.368 85.1494 221.461 85.0729L218.095 81.7073Z" fill="#343434"/>
<path d="M207.027 126.945C205.681 127.35 204.515 127.607 203.528 127.714C202.545 127.802 201.778 127.837 201.227 127.821L200.225 125.578C201.008 125.583 201.886 125.525 202.859 125.404C203.85 125.276 204.861 125.023 205.891 124.643C207.117 124.19 207.827 123.745 208.021 123.307C208.22 122.849 208.091 122.392 207.636 121.937C207.328 121.629 206.963 121.397 206.54 121.242C206.117 121.086 205.64 120.987 205.111 120.944C204.582 120.901 203.995 120.898 203.35 120.934C202.723 120.964 202.036 121.006 201.289 121.062C200.591 121.118 199.873 121.154 199.135 121.169C198.415 121.178 197.699 121.131 196.987 121.027C196.279 120.903 195.598 120.696 194.943 120.406C194.289 120.116 193.68 119.69 193.118 119.128C192.194 118.204 191.775 117.286 191.861 116.375C191.933 115.45 192.63 114.616 193.953 113.871L191.703 111.622L194.475 110.599L196.644 112.768C197.55 112.507 198.407 112.319 199.216 112.204C200.012 112.076 200.665 112 201.177 111.976L202.499 114.21C201.836 114.253 201.083 114.338 200.238 114.466C199.412 114.588 198.545 114.816 197.639 115.15C196.68 115.504 196.095 115.904 195.883 116.348C195.657 116.78 195.772 117.223 196.228 117.678C196.495 117.946 196.794 118.147 197.124 118.282C197.44 118.404 197.814 118.486 198.245 118.528C198.663 118.557 199.144 118.564 199.686 118.547C200.215 118.516 200.804 118.473 201.453 118.417C202.396 118.363 203.307 118.338 204.188 118.343C205.073 118.328 205.916 118.393 206.717 118.537C207.504 118.668 208.246 118.899 208.94 119.229C209.653 119.553 210.304 120.009 210.893 120.598C211.777 121.482 212.176 122.379 212.09 123.291C212.004 124.202 211.22 125.059 209.738 125.863L212.248 128.373L209.477 129.396L207.027 126.945ZM213.789 109.715C214.512 109.027 215.147 108.252 215.695 107.389C216.261 106.521 216.616 105.611 216.76 104.66L219.025 103.824L232.942 117.742L229.718 118.932L219.054 108.267C218.855 108.726 218.526 109.223 218.065 109.759C217.605 110.296 217.124 110.776 216.623 111.199L213.789 109.715ZM246.295 98.7124C246.777 99.1944 247.119 99.7188 247.321 100.286C247.51 100.839 247.612 101.416 247.628 102.015C247.648 102.594 247.599 103.189 247.481 103.801C247.349 104.399 247.212 104.991 247.067 105.576C246.983 105.881 246.905 106.24 246.831 106.653C246.756 107.065 246.7 107.471 246.662 107.87C246.623 108.269 246.622 108.645 246.659 108.998C246.682 109.337 246.772 109.598 246.929 109.778L255.136 106.75L257.184 108.799L245.433 113.134C245.308 113.033 245.172 112.91 245.025 112.762C244.864 112.602 244.744 112.481 244.663 112.401C244.021 111.758 243.565 111.12 243.296 110.486C243.031 109.832 242.886 109.189 242.862 108.557C242.837 107.924 242.893 107.299 243.029 106.681C243.164 106.062 243.307 105.451 243.456 104.846C243.574 104.381 243.681 103.929 243.778 103.49C243.874 103.051 243.923 102.639 243.927 102.253C243.934 101.847 243.879 101.464 243.762 101.104C243.632 100.73 243.406 100.383 243.085 100.062C242.389 99.3655 241.627 98.9684 240.799 98.8704C239.972 98.7725 239.176 98.8644 238.412 99.1462C237.915 99.3297 237.507 99.5537 237.187 99.8181C236.868 100.082 236.613 100.351 236.423 100.622C236.251 100.888 236.12 101.146 236.032 101.399C235.931 101.638 235.865 101.827 235.834 101.967L232.528 100.85C232.739 100.039 233.181 99.2892 233.854 98.6008C234.532 97.8925 235.449 97.3254 236.603 96.8994C238.575 96.172 240.378 95.9927 242.011 96.3615C243.649 96.7104 245.077 97.494 246.295 98.7124ZM269.046 99.309C269.622 99.8847 270.025 100.469 270.253 101.063C270.482 101.657 270.511 102.233 270.34 102.791C270.168 103.349 269.783 103.876 269.185 104.372C268.604 104.861 267.798 105.295 266.768 105.676C265.56 106.121 264.429 106.364 263.375 106.405C262.322 106.445 261.361 106.36 260.493 106.149C259.625 105.937 258.863 105.65 258.208 105.287C257.558 104.904 257.032 104.511 256.63 104.11C256.228 103.708 255.931 103.314 255.739 102.926C255.55 102.519 255.449 102.126 255.434 101.747C255.406 101.354 255.44 100.975 255.537 100.609C255.633 100.243 255.774 99.8982 255.96 99.5731C254.714 99.4461 253.64 99.2103 252.736 98.8657C251.836 98.5011 251.025 97.9573 250.302 97.2343C249.78 96.7121 249.417 96.1676 249.215 95.6007C249.018 95.0138 248.995 94.4446 249.149 93.893C249.303 93.3415 249.637 92.8242 250.151 92.3413C250.665 91.8584 251.366 91.4531 252.254 91.1254C253.302 90.7388 254.304 90.5249 255.26 90.4838C256.234 90.4362 257.133 90.5079 257.956 90.699C258.797 90.8835 259.545 91.1574 260.2 91.5206C260.855 91.8838 261.39 92.2729 261.805 92.688C262.542 93.4244 262.931 94.1787 262.974 94.951C263.004 95.71 262.839 96.3846 262.481 96.9749C263.958 97.0167 265.226 97.227 266.285 97.6058C267.363 97.9781 268.283 98.5458 269.046 99.309ZM259.761 102.9C259.962 103.1 260.229 103.295 260.563 103.483C260.897 103.672 261.283 103.814 261.719 103.909C262.155 104.005 262.635 104.048 263.16 104.037C263.671 104.014 264.22 103.894 264.806 103.677C265.339 103.481 265.748 103.257 266.031 103.006C266.315 102.754 266.494 102.496 266.569 102.23C266.63 101.951 266.609 101.674 266.506 101.401C266.389 101.114 266.21 100.85 265.969 100.609C265.595 100.234 265.169 99.9423 264.692 99.7332C264.216 99.5241 263.69 99.388 263.117 99.3248C262.547 99.2416 261.94 99.2182 261.295 99.2544C260.637 99.2772 259.946 99.3398 259.221 99.4421C258.89 99.986 258.75 100.551 258.801 101.137C258.838 101.71 259.158 102.297 259.761 102.9ZM258.701 93.8881C258.527 93.7141 258.286 93.5463 257.979 93.3848C257.676 93.2033 257.322 93.0682 256.917 92.9793C256.53 92.8839 256.107 92.8382 255.649 92.8422C255.191 92.8462 254.722 92.9367 254.243 93.1137C253.763 93.2906 253.406 93.5049 253.171 93.7565C252.941 93.9881 252.812 94.2369 252.787 94.503C252.748 94.7557 252.782 95.0088 252.89 95.2624C252.984 95.5025 253.131 95.723 253.332 95.9239C253.841 96.4326 254.572 96.8229 255.524 97.0946C256.495 97.3598 257.709 97.4067 259.167 97.2354C259.516 96.685 259.683 96.1468 259.668 95.6209C259.639 95.0816 259.317 94.504 258.701 93.8881ZM281.091 90.4392C283.434 92.7823 284.667 94.7928 284.788 96.4708C284.896 98.1354 283.947 99.3379 281.939 100.079C279.932 100.819 277.737 100.776 275.355 99.9507C272.96 99.1116 270.591 97.5205 268.247 95.1775C267.083 94.0127 266.194 92.9293 265.581 91.9274C264.973 90.9055 264.636 89.9851 264.571 89.166C264.523 88.3404 264.73 87.6228 265.19 87.0131C265.668 86.3968 266.404 85.9052 267.399 85.5382C269.407 84.7976 271.608 84.8469 274.003 85.686C276.386 86.5118 278.748 88.0962 281.091 90.4392ZM277.76 91.668C277.037 90.945 276.308 90.2886 275.572 89.6986C274.836 89.1086 274.116 88.6319 273.412 88.2685C272.713 87.885 272.034 87.6315 271.375 87.5079C270.717 87.3843 270.094 87.4307 269.508 87.647C268.922 87.8632 268.558 88.1806 268.417 88.5991C268.294 89.0111 268.343 89.4972 268.563 90.0576C268.787 90.598 269.16 91.2025 269.683 91.8711C270.224 92.5332 270.855 93.2257 271.578 93.9487C272.301 94.6717 273.022 95.3314 273.74 95.9279C274.476 96.5179 275.194 97.0046 275.893 97.388C276.597 97.7515 277.278 97.995 277.937 98.1186C278.613 98.2356 279.244 98.186 279.831 97.9698C280.417 97.7535 280.772 97.4394 280.895 97.0274C281.018 96.6155 280.967 96.1393 280.743 95.5989C280.523 95.0385 280.152 94.424 279.629 93.7554C279.106 93.0868 278.483 92.391 277.76 91.668ZM291.927 92.3251C292.19 92.5396 292.375 92.7004 292.482 92.8075C292.589 92.9146 292.697 93.0217 292.804 93.1288C293.634 93.9589 294.313 94.8813 294.841 95.8961C295.388 96.9043 295.745 97.918 295.913 98.9373L292.859 99.3491C292.509 98.4152 292.03 97.5472 291.422 96.745C290.846 95.9496 290.277 95.2708 289.714 94.7084C289.554 94.5478 289.344 94.3502 289.085 94.1158C288.844 93.8748 288.654 93.6973 288.516 93.5833L291.927 92.3251ZM303.366 82.2216C305.709 84.5646 306.941 86.5752 307.063 88.2531C307.171 89.9177 306.222 91.1203 304.214 91.8609C302.207 92.6014 300.012 92.5588 297.63 91.7331C295.235 90.894 292.865 89.3029 290.522 86.9599C289.358 85.795 288.469 84.7117 287.856 83.7097C287.247 82.6879 286.911 81.7674 286.845 80.9484C286.798 80.1228 287.004 79.4051 287.465 78.7954C287.943 78.1792 288.679 77.6876 289.674 77.3206C291.681 76.58 293.883 76.6293 296.278 77.4684C298.66 78.2941 301.023 79.8785 303.366 82.2216ZM300.035 83.4504C299.312 82.7274 298.583 82.0709 297.847 81.481C297.111 80.891 296.391 80.4143 295.687 80.0508C294.988 79.6674 294.309 79.4139 293.65 79.2903C292.991 79.1667 292.369 79.2131 291.783 79.4293C291.197 79.6456 290.833 79.963 290.692 80.3815C290.569 80.7934 290.618 81.2796 290.838 81.84C291.062 82.3804 291.435 82.9849 291.958 83.6535C292.498 84.3155 293.13 85.0081 293.853 85.7311C294.576 86.4541 295.297 87.1138 296.015 87.7103C296.751 88.3003 297.468 88.787 298.168 89.1704C298.872 89.5338 299.553 89.7774 300.212 89.901C300.888 90.018 301.519 89.9684 302.106 89.7521C302.692 89.5359 303.046 89.2217 303.169 88.8098C303.293 88.3978 303.242 87.9216 303.018 87.3812C302.798 86.8209 302.426 86.2064 301.904 85.5378C301.381 84.8692 300.758 84.1734 300.035 83.4504ZM318.511 76.6344C320.854 78.9774 322.086 80.9879 322.208 82.6659C322.316 84.3305 321.367 85.5331 319.359 86.2737C317.352 87.0142 315.157 86.9716 312.775 86.1459C310.379 85.3068 308.01 83.7157 305.667 81.3726C304.502 80.2078 303.614 79.1244 303.001 78.1225C302.392 77.1007 302.055 76.1802 301.99 75.3612C301.943 74.5356 302.149 73.8179 302.61 73.2082C303.088 72.592 303.824 72.1004 304.819 71.7334C306.826 70.9928 309.028 71.0421 311.423 71.8812C313.805 72.7069 316.168 74.2913 318.511 76.6344ZM315.18 77.8632C314.457 77.1402 313.728 76.4837 312.992 75.8937C312.256 75.3038 311.536 74.8271 310.832 74.4636C310.132 74.0802 309.453 73.8267 308.795 73.7031C308.136 73.5795 307.514 73.6258 306.928 73.8421C306.341 74.0584 305.978 74.3758 305.837 74.7943C305.714 75.2062 305.762 75.6924 305.982 76.2527C306.207 76.7932 306.58 77.3977 307.103 78.0663C307.643 78.7283 308.275 79.4208 308.998 80.1438C309.721 80.8668 310.442 81.5266 311.16 82.1231C311.895 82.7131 312.613 83.1997 313.313 83.5831C314.017 83.9466 314.698 84.1902 315.357 84.3137C316.033 84.4308 316.664 84.3812 317.25 84.1649C317.837 83.9486 318.191 83.6345 318.314 83.2226C318.437 82.8106 318.387 82.3344 318.162 81.794C317.943 81.2336 317.571 80.6192 317.049 79.9506C316.526 79.282 315.903 78.5862 315.18 77.8632Z" fill="#3F65B3"/>
<path d="M207.027 126.945C205.681 127.35 204.515 127.607 203.528 127.714C202.545 127.802 201.778 127.837 201.227 127.821L200.225 125.578C201.008 125.583 201.886 125.525 202.859 125.404C203.85 125.276 204.861 125.023 205.891 124.643C207.117 124.19 207.827 123.745 208.021 123.307C208.22 122.849 208.091 122.392 207.636 121.937C207.328 121.629 206.963 121.397 206.54 121.242C206.117 121.086 205.64 120.987 205.111 120.944C204.582 120.901 203.995 120.898 203.35 120.934C202.723 120.964 202.036 121.006 201.289 121.062C200.591 121.118 199.873 121.154 199.135 121.169C198.415 121.178 197.699 121.131 196.987 121.027C196.279 120.903 195.598 120.696 194.943 120.406C194.289 120.116 193.68 119.69 193.118 119.128C192.194 118.204 191.775 117.286 191.861 116.375C191.933 115.45 192.63 114.616 193.953 113.871L191.703 111.622L194.475 110.599L196.644 112.768C197.55 112.507 198.407 112.319 199.216 112.204C200.012 112.076 200.665 112 201.177 111.976L202.499 114.21C201.836 114.253 201.083 114.338 200.238 114.466C199.412 114.588 198.545 114.816 197.639 115.15C196.68 115.504 196.095 115.904 195.883 116.348C195.657 116.78 195.772 117.223 196.228 117.678C196.495 117.946 196.794 118.147 197.124 118.282C197.44 118.404 197.814 118.486 198.245 118.528C198.663 118.557 199.144 118.564 199.686 118.547C200.215 118.516 200.804 118.473 201.453 118.417C202.396 118.363 203.307 118.338 204.188 118.343C205.073 118.328 205.916 118.393 206.717 118.537C207.504 118.668 208.246 118.899 208.94 119.229C209.653 119.553 210.304 120.009 210.893 120.598C211.777 121.482 212.176 122.379 212.09 123.291C212.004 124.202 211.22 125.059 209.738 125.863L212.248 128.373L209.477 129.396L207.027 126.945ZM213.789 109.715C214.512 109.027 215.147 108.252 215.695 107.389C216.261 106.521 216.616 105.611 216.76 104.66L219.025 103.824L232.942 117.742L229.718 118.932L219.054 108.267C218.855 108.726 218.526 109.223 218.065 109.759C217.605 110.296 217.124 110.776 216.623 111.199L213.789 109.715ZM246.295 98.7124C246.777 99.1944 247.119 99.7188 247.321 100.286C247.51 100.839 247.612 101.416 247.628 102.015C247.648 102.594 247.599 103.189 247.481 103.801C247.349 104.399 247.212 104.991 247.067 105.576C246.983 105.881 246.905 106.24 246.831 106.653C246.756 107.065 246.7 107.471 246.662 107.87C246.623 108.269 246.622 108.645 246.659 108.998C246.682 109.337 246.772 109.598 246.929 109.778L255.136 106.75L257.184 108.799L245.433 113.134C245.308 113.033 245.172 112.91 245.025 112.762C244.864 112.602 244.744 112.481 244.663 112.401C244.021 111.758 243.565 111.12 243.296 110.486C243.031 109.832 242.886 109.189 242.862 108.557C242.837 107.924 242.893 107.299 243.029 106.681C243.164 106.062 243.307 105.451 243.456 104.846C243.574 104.381 243.681 103.929 243.778 103.49C243.874 103.051 243.923 102.639 243.927 102.253C243.934 101.847 243.879 101.464 243.762 101.104C243.632 100.73 243.406 100.383 243.085 100.062C242.389 99.3655 241.627 98.9684 240.799 98.8704C239.972 98.7725 239.176 98.8644 238.412 99.1462C237.915 99.3297 237.507 99.5537 237.187 99.8181C236.868 100.082 236.613 100.351 236.423 100.622C236.251 100.888 236.12 101.146 236.032 101.399C235.931 101.638 235.865 101.827 235.834 101.967L232.528 100.85C232.739 100.039 233.181 99.2892 233.854 98.6008C234.532 97.8925 235.449 97.3254 236.603 96.8994C238.575 96.172 240.378 95.9927 242.011 96.3615C243.649 96.7104 245.077 97.494 246.295 98.7124ZM269.046 99.309C269.622 99.8847 270.025 100.469 270.253 101.063C270.482 101.657 270.511 102.233 270.34 102.791C270.168 103.349 269.783 103.876 269.185 104.372C268.604 104.861 267.798 105.295 266.768 105.676C265.56 106.121 264.429 106.364 263.375 106.405C262.322 106.445 261.361 106.36 260.493 106.149C259.625 105.937 258.863 105.65 258.208 105.287C257.558 104.904 257.032 104.511 256.63 104.11C256.228 103.708 255.931 103.314 255.739 102.926C255.55 102.519 255.449 102.126 255.434 101.747C255.406 101.354 255.44 100.975 255.537 100.609C255.633 100.243 255.774 99.8982 255.96 99.5731C254.714 99.4461 253.64 99.2103 252.736 98.8657C251.836 98.5011 251.025 97.9573 250.302 97.2343C249.78 96.7121 249.417 96.1676 249.215 95.6007C249.018 95.0138 248.995 94.4446 249.149 93.893C249.303 93.3415 249.637 92.8242 250.151 92.3413C250.665 91.8584 251.366 91.4531 252.254 91.1254C253.302 90.7388 254.304 90.5249 255.26 90.4838C256.234 90.4362 257.133 90.5079 257.956 90.699C258.797 90.8835 259.545 91.1574 260.2 91.5206C260.855 91.8838 261.39 92.2729 261.805 92.688C262.542 93.4244 262.931 94.1787 262.974 94.951C263.004 95.71 262.839 96.3846 262.481 96.9749C263.958 97.0167 265.226 97.227 266.285 97.6058C267.363 97.9781 268.283 98.5458 269.046 99.309ZM259.761 102.9C259.962 103.1 260.229 103.295 260.563 103.483C260.897 103.672 261.283 103.814 261.719 103.909C262.155 104.005 262.635 104.048 263.16 104.037C263.671 104.014 264.22 103.894 264.806 103.677C265.339 103.481 265.748 103.257 266.031 103.006C266.315 102.754 266.494 102.496 266.569 102.23C266.63 101.951 266.609 101.674 266.506 101.401C266.389 101.114 266.21 100.85 265.969 100.609C265.595 100.234 265.169 99.9423 264.692 99.7332C264.216 99.5241 263.69 99.388 263.117 99.3248C262.547 99.2416 261.94 99.2182 261.295 99.2544C260.637 99.2772 259.946 99.3398 259.221 99.4421C258.89 99.986 258.75 100.551 258.801 101.137C258.838 101.71 259.158 102.297 259.761 102.9ZM258.701 93.8881C258.527 93.7141 258.286 93.5463 257.979 93.3848C257.676 93.2033 257.322 93.0682 256.917 92.9793C256.53 92.8839 256.107 92.8382 255.649 92.8422C255.191 92.8462 254.722 92.9367 254.243 93.1137C253.763 93.2906 253.406 93.5049 253.171 93.7565C252.941 93.9881 252.812 94.2369 252.787 94.503C252.748 94.7557 252.782 95.0088 252.89 95.2624C252.984 95.5025 253.131 95.723 253.332 95.9239C253.841 96.4326 254.572 96.8229 255.524 97.0946C256.495 97.3598 257.709 97.4067 259.167 97.2354C259.516 96.685 259.683 96.1468 259.668 95.6209C259.639 95.0816 259.317 94.504 258.701 93.8881ZM281.091 90.4392C283.434 92.7823 284.667 94.7928 284.788 96.4708C284.896 98.1354 283.947 99.3379 281.939 100.079C279.932 100.819 277.737 100.776 275.355 99.9507C272.96 99.1116 270.591 97.5205 268.247 95.1775C267.083 94.0127 266.194 92.9293 265.581 91.9274C264.973 90.9055 264.636 89.9851 264.571 89.166C264.523 88.3404 264.73 87.6228 265.19 87.0131C265.668 86.3968 266.404 85.9052 267.399 85.5382C269.407 84.7976 271.608 84.8469 274.003 85.686C276.386 86.5118 278.748 88.0962 281.091 90.4392ZM277.76 91.668C277.037 90.945 276.308 90.2886 275.572 89.6986C274.836 89.1086 274.116 88.6319 273.412 88.2685C272.713 87.885 272.034 87.6315 271.375 87.5079C270.717 87.3843 270.094 87.4307 269.508 87.647C268.922 87.8632 268.558 88.1806 268.417 88.5991C268.294 89.0111 268.343 89.4972 268.563 90.0576C268.787 90.598 269.16 91.2025 269.683 91.8711C270.224 92.5332 270.855 93.2257 271.578 93.9487C272.301 94.6717 273.022 95.3314 273.74 95.9279C274.476 96.5179 275.194 97.0046 275.893 97.388C276.597 97.7515 277.278 97.995 277.937 98.1186C278.613 98.2356 279.244 98.186 279.831 97.9698C280.417 97.7535 280.772 97.4394 280.895 97.0274C281.018 96.6155 280.967 96.1393 280.743 95.5989C280.523 95.0385 280.152 94.424 279.629 93.7554C279.106 93.0868 278.483 92.391 277.76 91.668ZM291.927 92.3251C292.19 92.5396 292.375 92.7004 292.482 92.8075C292.589 92.9146 292.697 93.0217 292.804 93.1288C293.634 93.9589 294.313 94.8813 294.841 95.8961C295.388 96.9043 295.745 97.918 295.913 98.9373L292.859 99.3491C292.509 98.4152 292.03 97.5472 291.422 96.745C290.846 95.9496 290.277 95.2708 289.714 94.7084C289.554 94.5478 289.344 94.3502 289.085 94.1158C288.844 93.8748 288.654 93.6973 288.516 93.5833L291.927 92.3251ZM303.366 82.2216C305.709 84.5646 306.941 86.5752 307.063 88.2531C307.171 89.9177 306.222 91.1203 304.214 91.8609C302.207 92.6014 300.012 92.5588 297.63 91.7331C295.235 90.894 292.865 89.3029 290.522 86.9599C289.358 85.795 288.469 84.7117 287.856 83.7097C287.247 82.6879 286.911 81.7674 286.845 80.9484C286.798 80.1228 287.004 79.4051 287.465 78.7954C287.943 78.1792 288.679 77.6876 289.674 77.3206C291.681 76.58 293.883 76.6293 296.278 77.4684C298.66 78.2941 301.023 79.8785 303.366 82.2216ZM300.035 83.4504C299.312 82.7274 298.583 82.0709 297.847 81.481C297.111 80.891 296.391 80.4143 295.687 80.0508C294.988 79.6674 294.309 79.4139 293.65 79.2903C292.991 79.1667 292.369 79.2131 291.783 79.4293C291.197 79.6456 290.833 79.963 290.692 80.3815C290.569 80.7934 290.618 81.2796 290.838 81.84C291.062 82.3804 291.435 82.9849 291.958 83.6535C292.498 84.3155 293.13 85.0081 293.853 85.7311C294.576 86.4541 295.297 87.1138 296.015 87.7103C296.751 88.3003 297.468 88.787 298.168 89.1704C298.872 89.5338 299.553 89.7774 300.212 89.901C300.888 90.018 301.519 89.9684 302.106 89.7521C302.692 89.5359 303.046 89.2217 303.169 88.8098C303.293 88.3978 303.242 87.9216 303.018 87.3812C302.798 86.8209 302.426 86.2064 301.904 85.5378C301.381 84.8692 300.758 84.1734 300.035 83.4504ZM318.511 76.6344C320.854 78.9774 322.086 80.9879 322.208 82.6659C322.316 84.3305 321.367 85.5331 319.359 86.2737C317.352 87.0142 315.157 86.9716 312.775 86.1459C310.379 85.3068 308.01 83.7157 305.667 81.3726C304.502 80.2078 303.614 79.1244 303.001 78.1225C302.392 77.1007 302.055 76.1802 301.99 75.3612C301.943 74.5356 302.149 73.8179 302.61 73.2082C303.088 72.592 303.824 72.1004 304.819 71.7334C306.826 70.9928 309.028 71.0421 311.423 71.8812C313.805 72.7069 316.168 74.2913 318.511 76.6344ZM315.18 77.8632C314.457 77.1402 313.728 76.4837 312.992 75.8937C312.256 75.3038 311.536 74.8271 310.832 74.4636C310.132 74.0802 309.453 73.8267 308.795 73.7031C308.136 73.5795 307.514 73.6258 306.928 73.8421C306.341 74.0584 305.978 74.3758 305.837 74.7943C305.714 75.2062 305.762 75.6924 305.982 76.2527C306.207 76.7932 306.58 77.3977 307.103 78.0663C307.643 78.7283 308.275 79.4208 308.998 80.1438C309.721 80.8668 310.442 81.5266 311.16 82.1231C311.895 82.7131 312.613 83.1997 313.313 83.5831C314.017 83.9466 314.698 84.1902 315.357 84.3137C316.033 84.4308 316.664 84.3812 317.25 84.1649C317.837 83.9486 318.191 83.6345 318.314 83.2226C318.437 82.8106 318.387 82.3344 318.162 81.794C317.943 81.2336 317.571 80.6192 317.049 79.9506C316.526 79.282 315.903 78.5862 315.18 77.8632Z" fill="url(#paint4_linear_424_18957)"/>
<g filter="url(#filter3_d_424_18957)">
<rect width="52.6999" height="47.5329" rx="13" transform="matrix(0.938191 -0.346117 0.707107 0.707107 99.1719 107.248)" fill="#D9D9D9"/>
<rect width="52.6999" height="47.5329" rx="13" transform="matrix(0.938191 -0.346117 0.707107 0.707107 99.1719 107.248)" fill="url(#paint5_linear_424_18957)"/>
</g>
<rect width="52.6999" height="47.5329" rx="13" transform="matrix(0.938191 -0.346117 0.707107 0.707107 99.1719 101.24)" fill="url(#paint6_linear_424_18957)"/>
<path d="M132.37 105.663L130.606 103.903C130.138 103.436 129.933 102.898 130.038 102.408C130.142 101.918 130.546 101.515 131.161 101.289L135.8 99.5808C136.416 99.3543 137.191 99.3226 137.957 99.4926C138.723 99.6625 139.416 100.02 139.884 100.487L141.648 102.247M133.022 112.651L137.37 111.999C141.765 111.34 145.629 109.917 148.62 107.857L151.579 105.82" stroke="white" stroke-width="2" stroke-linecap="round"/>
<path d="M129.476 109.117C129.008 108.65 128.804 108.113 128.908 107.622C129.012 107.132 129.416 106.73 130.031 106.503L143.948 101.38C144.563 101.154 145.338 101.122 146.104 101.292C146.87 101.462 147.563 101.82 148.031 102.287L155.086 109.326C155.554 109.793 155.758 110.331 155.654 110.821C155.549 111.311 155.145 111.714 154.53 111.94L140.614 117.063C139.999 117.289 139.223 117.321 138.457 117.151C137.692 116.981 136.999 116.623 136.531 116.157L129.476 109.117Z" stroke="white" stroke-width="2" stroke-linejoin="round"/>
<path d="M141.405 108.348C142.045 108.112 142.169 107.528 141.682 107.042C141.195 106.556 140.282 106.353 139.642 106.589C139.002 106.824 138.878 107.409 139.365 107.895C139.852 108.381 140.765 108.584 141.405 108.348Z" fill="#407CE0"/>
<defs>
<filter id="filter0_ddddd_424_18957" x="0.533068" y="18.1787" width="395.04" height="228.546" filterUnits="userSpaceOnUse" color-interpolation-filters="sRGB">
<feFlood flood-opacity="0" result="BackgroundImageFix"/>
<feColorMatrix in="SourceAlpha" type="matrix" values="0 0 0 0 0 0 0 0 0 0 0 0 0 0 0 0 0 0 127 0" result="hardAlpha"/>
<feOffset/>
<feColorMatrix type="matrix" values="0 0 0 0 0.439216 0 0 0 0 0.647059 0 0 0 0 0.92549 0 0 0 0.05 0"/>
<feBlend mode="normal" in2="BackgroundImageFix" result="effect1_dropShadow_424_18957"/>
<feColorMatrix in="SourceAlpha" type="matrix" values="0 0 0 0 0 0 0 0 0 0 0 0 0 0 0 0 0 0 127 0" result="hardAlpha"/>
<feOffset dx="-0.680721" dy="1.36144"/>
<feGaussianBlur stdDeviation="2.04216"/>
<feColorMatrix type="matrix" values="0 0 0 0 0.439216 0 0 0 0 0.647059 0 0 0 0 0.92549 0 0 0 0.05 0"/>
<feBlend mode="normal" in2="effect1_dropShadow_424_18957" result="effect2_dropShadow_424_18957"/>
<feColorMatrix in="SourceAlpha" type="matrix" values="0 0 0 0 0 0 0 0 0 0 0 0 0 0 0 0 0 0 127 0" result="hardAlpha"/>
<feOffset dx="-4.08433" dy="6.12649"/>
<feGaussianBlur stdDeviation="3.74397"/>
<feColorMatrix type="matrix" values="0 0 0 0 0.439216 0 0 0 0 0.647059 0 0 0 0 0.92549 0 0 0 0.04 0"/>
<feBlend mode="normal" in2="effect2_dropShadow_424_18957" result="effect3_dropShadow_424_18957"/>
<feColorMatrix in="SourceAlpha" type="matrix" values="0 0 0 0 0 0 0 0 0 0 0 0 0 0 0 0 0 0 127 0" result="hardAlpha"/>
<feOffset dx="-8.84937" dy="13.6144"/>
<feGaussianBlur stdDeviation="5.10541"/>
<feColorMatrix type="matrix" values="0 0 0 0 0.439216 0 0 0 0 0.647059 0 0 0 0 0.92549 0 0 0 0.03 0"/>
<feBlend mode="normal" in2="effect3_dropShadow_424_18957" result="effect4_dropShadow_424_18957"/>
<feColorMatrix in="SourceAlpha" type="matrix" values="0 0 0 0 0 0 0 0 0 0 0 0 0 0 0 0 0 0 127 0" result="hardAlpha"/>
<feOffset dx="-16.3373" dy="24.506"/>
<feGaussianBlur stdDeviation="5.78613"/>
<feColorMatrix type="matrix" values="0 0 0 0 0.439216 0 0 0 0 0.647059 0 0 0 0 0.92549 0 0 0 0.01 0"/>
<feBlend mode="normal" in2="effect4_dropShadow_424_18957" result="effect5_dropShadow_424_18957"/>
<feBlend mode="normal" in="SourceGraphic" in2="effect5_dropShadow_424_18957" result="shape"/>
</filter>
<filter id="filter1_i_424_18957" x="28.4455" y="6.90283" width="363.724" height="194.582" filterUnits="userSpaceOnUse" color-interpolation-filters="sRGB">
<feFlood flood-opacity="0" result="BackgroundImageFix"/>
<feBlend mode="normal" in="SourceGraphic" in2="BackgroundImageFix" result="shape"/>
<feColorMatrix in="SourceAlpha" type="matrix" values="0 0 0 0 0 0 0 0 0 0 0 0 0 0 0 0 0 0 127 0" result="hardAlpha"/>
<feOffset dy="4.83828"/>
<feGaussianBlur stdDeviation="8.46699"/>
<feComposite in2="hardAlpha" operator="arithmetic" k2="-1" k3="1"/>
<feColorMatrix type="matrix" values="0 0 0 0 0 0 0 0 0 0 0 0 0 0 0 0 0 0 0.04 0"/>
<feBlend mode="normal" in2="shape" result="effect1_innerShadow_424_18957"/>
</filter>
<filter id="filter2_i_424_18957" x="105.342" y="115.455" width="70.7134" height="51.3238" filterUnits="userSpaceOnUse" color-interpolation-filters="sRGB">
<feFlood flood-opacity="0" result="BackgroundImageFix"/>
<feBlend mode="normal" in="SourceGraphic" in2="BackgroundImageFix" result="shape"/>
<feColorMatrix in="SourceAlpha" type="matrix" values="0 0 0 0 0 0 0 0 0 0 0 0 0 0 0 0 0 0 127 0" result="hardAlpha"/>
<feOffset dy="6.45104"/>
<feGaussianBlur stdDeviation="11.2893"/>
<feComposite in2="hardAlpha" operator="arithmetic" k2="-1" k3="1"/>
<feColorMatrix type="matrix" values="0 0 0 0 0 0 0 0 0 0 0 0 0 0 0 0 0 0 0.12 0"/>
<feBlend mode="normal" in2="shape" result="effect1_innerShadow_424_18957"/>
</filter>
<filter id="filter3_d_424_18957" x="86.2872" y="92.4628" width="108.823" height="87.941" filterUnits="userSpaceOnUse" color-interpolation-filters="sRGB">
<feFlood flood-opacity="0" result="BackgroundImageFix"/>
<feColorMatrix in="SourceAlpha" type="matrix" values="0 0 0 0 0 0 0 0 0 0 0 0 0 0 0 0 0 0 127 0" result="hardAlpha"/>
<feOffset dy="24"/>
<feGaussianBlur stdDeviation="9.5"/>
<feComposite in2="hardAlpha" operator="out"/>
<feColorMatrix type="matrix" values="0 0 0 0 0.00784314 0 0 0 0 0.376471 0 0 0 0 0.968627 0 0 0 0.13 0"/>
<feBlend mode="normal" in2="BackgroundImageFix" result="effect1_dropShadow_424_18957"/>
<feBlend mode="normal" in="SourceGraphic" in2="effect1_dropShadow_424_18957" result="shape"/>
</filter>
<linearGradient id="paint0_linear_424_18957" x1="48.7578" y1="110.201" x2="27.4497" y2="134.903" gradientUnits="userSpaceOnUse">
<stop offset="0.029378" stop-color="#86A7F8"/>
<stop offset="1" stop-color="#7DA0EF"/>
</linearGradient>
<linearGradient id="paint1_linear_424_18957" x1="155.901" y1="1.65071e-05" x2="-344.221" y2="1790.89" gradientUnits="userSpaceOnUse">
<stop stop-color="#A8B9FF"/>
<stop offset="0.9999" stop-color="#CFDBEF"/>
</linearGradient>
<linearGradient id="paint2_linear_424_18957" x1="-19.8754" y1="24.8638" x2="-19.8495" y2="25.1829" gradientUnits="userSpaceOnUse">
<stop stop-color="#90B4FF"/>
<stop offset="1" stop-color="#93B0F7"/>
</linearGradient>
<linearGradient id="paint3_linear_424_18957" x1="-19.8754" y1="24.8638" x2="-19.8495" y2="25.1829" gradientUnits="userSpaceOnUse">
<stop stop-color="#90B4FF"/>
<stop offset="1" stop-color="#93B0F7"/>
</linearGradient>
<linearGradient id="paint4_linear_424_18957" x1="238.311" y1="139.984" x2="279.617" y2="59.4177" gradientUnits="userSpaceOnUse">
<stop stop-color="#3F7BDD"/>
<stop offset="1" stop-color="#4282EC"/>
</linearGradient>
<linearGradient id="paint5_linear_424_18957" x1="-19.8754" y1="24.8638" x2="-19.8495" y2="25.1829" gradientUnits="userSpaceOnUse">
<stop stop-color="#90B4FF"/>
<stop offset="1" stop-color="#93B0F7"/>
</linearGradient>
<linearGradient id="paint6_linear_424_18957" x1="26.3499" y1="0" x2="26.3499" y2="47.5329" gradientUnits="userSpaceOnUse">
<stop stop-color="#3F7CDF"/>
<stop offset="1" stop-color="#4182EB"/>
</linearGradient>
</defs>
</svg>
