<svg width="376" height="309" viewBox="0 0 376 309" fill="none" xmlns="http://www.w3.org/2000/svg">
<g filter="url(#filter0_ddddd_424_18935)">
<rect width="198.281" height="229.022" rx="25.9689" transform="matrix(0.938191 -0.346117 0.707107 0.707107 16.4961 83.6279)" fill="url(#paint0_linear_424_18935)"/>
</g>
<g filter="url(#filter1_i_424_18935)">
<rect width="198.281" height="229.022" rx="25.9725" transform="matrix(0.938191 -0.346117 0.707107 0.707107 16.4973 68.6282)" fill="url(#paint1_linear_424_18935)"/>
</g>
<rect x="1.49258" y="0.327482" width="196.467" height="227.208" rx="25.0653" transform="matrix(0.938191 -0.346117 0.707107 0.707107 16.358 69.2407)" stroke="#9CBCF4" stroke-width="1.81435"/>
<circle cx="66.0936" cy="66.0936" r="58.7926" transform="matrix(0.938191 -0.346117 0.707107 0.707107 67.0637 76.7532)" stroke="#C6D8F5" stroke-width="14.6021"/>
<g filter="url(#filter2_ddddd_424_18935)">
<path d="M134.243 59.0484C131.386 56.1922 132.123 52.7105 136.205 51.6364C143.396 49.7441 151.245 48.7115 159.455 48.5904C170.471 48.428 181.872 49.9108 192.866 52.936C203.859 55.9612 214.183 60.4562 223.118 66.1089C232.054 71.7616 239.388 78.4365 244.611 85.6701C249.834 92.9037 252.821 100.523 253.364 107.998C253.907 115.473 251.994 122.625 247.757 128.958C243.52 135.291 237.061 140.652 228.829 144.67C222.694 147.664 215.683 149.859 208.079 151.179C203.763 151.929 198.88 149.667 197.396 146.513C195.913 143.359 198.402 140.515 202.654 139.668C207.915 138.621 212.782 137.024 217.094 134.919C223.505 131.791 228.534 127.616 231.834 122.685C235.133 117.754 236.623 112.184 236.199 106.363C235.776 100.542 233.45 94.6097 229.383 88.977C225.316 83.3442 219.605 78.1466 212.647 73.7449C205.689 69.3432 197.651 65.843 189.09 63.4873C180.529 61.1317 171.652 59.977 163.073 60.1035C157.303 60.1886 151.762 60.852 146.62 62.0639C142.464 63.0433 137.099 61.9045 134.243 59.0484Z" fill="url(#paint2_linear_424_18935)"/>
</g>
<path d="M134.243 57.1167C131.386 54.2605 132.123 50.7788 136.205 49.7047C143.396 47.8125 151.245 46.7799 159.455 46.6588C170.471 46.4963 181.872 47.9792 192.866 51.0044C203.859 54.0295 214.183 58.5245 223.118 64.1772C232.054 69.8299 239.388 76.5048 244.611 83.7385C249.834 90.9721 252.821 98.591 253.364 106.066C253.907 113.541 251.994 120.694 247.757 127.026C243.52 133.359 237.061 138.721 228.829 142.738C222.694 145.732 215.683 147.927 208.079 149.248C203.763 149.997 198.88 147.736 197.396 144.582C195.913 141.427 198.402 138.583 202.654 137.737C207.915 136.689 212.782 135.092 217.094 132.988C223.505 129.859 228.534 125.684 231.834 120.753C235.133 115.822 236.623 110.252 236.199 104.432C235.776 98.6108 233.45 92.678 229.383 87.0453C225.316 81.4126 219.605 76.2149 212.647 71.8133C205.689 67.4116 197.651 63.9114 189.09 61.5557C180.529 59.2 171.652 58.0454 163.073 58.1719C157.303 58.257 151.762 58.9203 146.62 60.1322C142.464 61.1117 137.099 59.9729 134.243 57.1167Z" fill="url(#paint3_linear_424_18935)"/>
<path d="M134.243 55.1851C131.386 52.3289 132.123 48.8472 136.205 47.7731C143.396 45.8808 151.245 44.8482 159.455 44.7272C170.471 44.5647 181.872 46.0475 192.866 49.0727C203.859 52.0979 214.183 56.5929 223.118 62.2456C232.054 67.8983 239.388 74.5732 244.611 81.8068C249.834 89.0404 252.821 96.6594 253.364 104.135C253.907 111.61 251.994 118.762 247.757 125.095C243.52 131.428 237.061 136.789 228.829 140.807C222.694 143.801 215.683 145.995 208.079 147.316C203.763 148.066 198.88 145.804 197.396 142.65C195.913 139.496 198.402 136.651 202.654 135.805C207.915 134.758 212.782 133.16 217.094 131.056C223.505 127.928 228.534 123.753 231.834 118.821C235.133 113.89 236.623 108.321 236.199 102.5C235.776 96.6792 233.45 90.7464 229.383 85.1137C225.316 79.481 219.605 74.2833 212.647 69.8816C205.689 65.4799 197.651 61.9797 189.09 59.6241C180.529 57.2684 171.652 56.1137 163.073 56.2402C157.303 56.3253 151.762 56.9887 146.62 58.2006C142.464 59.18 137.099 58.0413 134.243 55.1851Z" fill="url(#paint4_linear_424_18935)"/>
<path d="M134.243 53.2534C131.386 50.3973 132.123 46.9155 136.205 45.8415C143.396 43.9492 151.245 42.9166 159.455 42.7955C170.471 42.6331 181.872 44.1159 192.866 47.1411C203.859 50.1662 214.183 54.6613 223.118 60.314C232.054 65.9667 239.388 72.6416 244.611 79.8752C249.834 87.1088 252.821 94.7277 253.364 102.203C253.907 109.678 251.994 116.83 247.757 123.163C243.52 129.496 237.061 134.857 228.829 138.875C222.694 141.869 215.683 144.064 208.079 145.384C203.763 146.134 198.88 143.873 197.396 140.718C195.913 137.564 198.402 134.72 202.654 133.873C207.915 132.826 212.782 131.229 217.094 129.124C223.505 125.996 228.534 121.821 231.834 116.89C235.133 111.959 236.623 106.389 236.199 100.568C235.776 94.7475 233.45 88.8147 229.383 83.182C225.316 77.5493 219.605 72.3517 212.647 67.95C205.689 63.5483 197.651 60.0481 189.09 57.6924C180.529 55.3368 171.652 54.1821 163.073 54.3086C157.303 54.3937 151.762 55.057 146.62 56.2689C142.464 57.2484 137.099 56.1096 134.243 53.2534Z" fill="url(#paint5_linear_424_18935)"/>
<mask id="path-9-inside-1_424_18935" fill="white">
<path d="M134.243 51.3218C131.386 48.4656 132.123 44.9839 136.205 43.9098C143.396 42.0175 151.245 40.9849 159.455 40.8639C170.471 40.7014 181.872 42.1843 192.866 45.2094C203.859 48.2346 214.183 52.7296 223.118 58.3823C232.054 64.035 239.388 70.7099 244.611 77.9435C249.834 85.1771 252.821 92.7961 253.364 100.271C253.907 107.746 251.994 114.899 247.757 121.232C243.52 127.564 237.061 132.926 228.829 136.943C222.694 139.938 215.683 142.132 208.079 143.453C203.763 144.202 198.88 141.941 197.396 138.787C195.913 135.632 198.402 132.788 202.654 131.942C207.915 130.894 212.782 129.297 217.094 127.193C223.505 124.064 228.534 119.889 231.834 114.958C235.133 110.027 236.623 104.458 236.199 98.6367C235.776 92.8159 233.45 86.8831 229.383 81.2504C225.316 75.6177 219.605 70.42 212.647 66.0183C205.689 61.6166 197.651 58.1164 189.09 55.7608C180.529 53.4051 171.652 52.2504 163.073 52.377C157.303 52.462 151.762 53.1254 146.62 54.3373C142.464 55.3167 137.099 54.178 134.243 51.3218Z"/>
</mask>
<path d="M134.243 51.3218C131.386 48.4656 132.123 44.9839 136.205 43.9098C143.396 42.0175 151.245 40.9849 159.455 40.8639C170.471 40.7014 181.872 42.1843 192.866 45.2094C203.859 48.2346 214.183 52.7296 223.118 58.3823C232.054 64.035 239.388 70.7099 244.611 77.9435C249.834 85.1771 252.821 92.7961 253.364 100.271C253.907 107.746 251.994 114.899 247.757 121.232C243.52 127.564 237.061 132.926 228.829 136.943C222.694 139.938 215.683 142.132 208.079 143.453C203.763 144.202 198.88 141.941 197.396 138.787C195.913 135.632 198.402 132.788 202.654 131.942C207.915 130.894 212.782 129.297 217.094 127.193C223.505 124.064 228.534 119.889 231.834 114.958C235.133 110.027 236.623 104.458 236.199 98.6367C235.776 92.8159 233.45 86.8831 229.383 81.2504C225.316 75.6177 219.605 70.42 212.647 66.0183C205.689 61.6166 197.651 58.1164 189.09 55.7608C180.529 53.4051 171.652 52.2504 163.073 52.377C157.303 52.462 151.762 53.1254 146.62 54.3373C142.464 55.3167 137.099 54.178 134.243 51.3218Z" fill="#EBEEF5"/>
<path d="M134.243 51.3218C131.386 48.4656 132.123 44.9839 136.205 43.9098C143.396 42.0175 151.245 40.9849 159.455 40.8639C170.471 40.7014 181.872 42.1843 192.866 45.2094C203.859 48.2346 214.183 52.7296 223.118 58.3823C232.054 64.035 239.388 70.7099 244.611 77.9435C249.834 85.1771 252.821 92.7961 253.364 100.271C253.907 107.746 251.994 114.899 247.757 121.232C243.52 127.564 237.061 132.926 228.829 136.943C222.694 139.938 215.683 142.132 208.079 143.453C203.763 144.202 198.88 141.941 197.396 138.787C195.913 135.632 198.402 132.788 202.654 131.942C207.915 130.894 212.782 129.297 217.094 127.193C223.505 124.064 228.534 119.889 231.834 114.958C235.133 110.027 236.623 104.458 236.199 98.6367C235.776 92.8159 233.45 86.8831 229.383 81.2504C225.316 75.6177 219.605 70.42 212.647 66.0183C205.689 61.6166 197.651 58.1164 189.09 55.7608C180.529 53.4051 171.652 52.2504 163.073 52.377C157.303 52.462 151.762 53.1254 146.62 54.3373C142.464 55.3167 137.099 54.178 134.243 51.3218Z" fill="url(#paint6_linear_424_18935)"/>
<path d="M134.243 51.3218C131.386 48.4656 132.123 44.9839 136.205 43.9098C143.396 42.0175 151.245 40.9849 159.455 40.8639C170.471 40.7014 181.872 42.1843 192.866 45.2094C203.859 48.2346 214.183 52.7296 223.118 58.3823C232.054 64.035 239.388 70.7099 244.611 77.9435C249.834 85.1771 252.821 92.7961 253.364 100.271C253.907 107.746 251.994 114.899 247.757 121.232C243.52 127.564 237.061 132.926 228.829 136.943C222.694 139.938 215.683 142.132 208.079 143.453C203.763 144.202 198.88 141.941 197.396 138.787C195.913 135.632 198.402 132.788 202.654 131.942C207.915 130.894 212.782 129.297 217.094 127.193C223.505 124.064 228.534 119.889 231.834 114.958C235.133 110.027 236.623 104.458 236.199 98.6367C235.776 92.8159 233.45 86.8831 229.383 81.2504C225.316 75.6177 219.605 70.42 212.647 66.0183C205.689 61.6166 197.651 58.1164 189.09 55.7608C180.529 53.4051 171.652 52.2504 163.073 52.377C157.303 52.462 151.762 53.1254 146.62 54.3373C142.464 55.3167 137.099 54.178 134.243 51.3218Z" stroke="white" stroke-opacity="0.54" stroke-width="1.53706" mask="url(#path-9-inside-1_424_18935)"/>
<path d="M150.891 105.84C151.256 106.205 151.515 106.602 151.668 107.031C151.811 107.451 151.888 107.887 151.9 108.34C151.915 108.779 151.878 109.23 151.788 109.693C151.689 110.146 151.584 110.594 151.475 111.037C151.412 111.268 151.352 111.54 151.296 111.852C151.24 112.164 151.197 112.471 151.168 112.773C151.139 113.076 151.138 113.36 151.166 113.627C151.184 113.885 151.252 114.082 151.37 114.218L157.584 111.926L159.135 113.477L150.238 116.759C150.143 116.683 150.04 116.589 149.929 116.478C149.807 116.356 149.716 116.265 149.655 116.204C149.169 115.717 148.823 115.234 148.62 114.754C148.419 114.259 148.31 113.772 148.291 113.293C148.273 112.815 148.315 112.341 148.417 111.873C148.52 111.405 148.628 110.942 148.741 110.484C148.83 110.132 148.912 109.79 148.985 109.458C149.057 109.125 149.095 108.813 149.097 108.521C149.103 108.214 149.062 107.924 148.973 107.651C148.874 107.368 148.703 107.105 148.46 106.862C147.933 106.335 147.356 106.034 146.73 105.96C146.103 105.886 145.501 105.955 144.922 106.169C144.546 106.308 144.237 106.477 143.995 106.677C143.753 106.878 143.56 107.081 143.416 107.286C143.286 107.487 143.187 107.683 143.121 107.874C143.044 108.055 142.994 108.199 142.971 108.304L140.468 107.458C140.627 106.844 140.962 106.277 141.472 105.756C141.985 105.22 142.679 104.79 143.553 104.468C145.046 103.917 146.41 103.781 147.647 104.06C148.887 104.325 149.968 104.918 150.891 105.84ZM162.357 101.61C162.722 101.975 162.981 102.372 163.134 102.801C163.277 103.22 163.354 103.657 163.366 104.11C163.381 104.549 163.344 105 163.255 105.463C163.155 105.916 163.051 106.364 162.941 106.806C162.878 107.038 162.818 107.31 162.762 107.622C162.706 107.934 162.664 108.241 162.634 108.543C162.605 108.845 162.604 109.13 162.632 109.397C162.65 109.654 162.718 109.851 162.836 109.988L169.05 107.696L170.601 109.247L161.704 112.529C161.61 112.453 161.507 112.359 161.395 112.247C161.273 112.126 161.182 112.035 161.121 111.974C160.635 111.487 160.29 111.004 160.086 110.524C159.886 110.029 159.776 109.542 159.758 109.063C159.739 108.584 159.781 108.111 159.884 107.643C159.986 107.175 160.094 106.712 160.207 106.254C160.297 105.902 160.378 105.56 160.451 105.227C160.524 104.895 160.561 104.583 160.564 104.291C160.569 103.983 160.528 103.693 160.439 103.421C160.341 103.138 160.17 102.875 159.926 102.632C159.399 102.105 158.822 101.804 158.196 101.73C157.569 101.656 156.967 101.725 156.389 101.939C156.012 102.078 155.703 102.247 155.461 102.447C155.22 102.647 155.027 102.85 154.883 103.056C154.752 103.257 154.654 103.453 154.587 103.644C154.51 103.825 154.46 103.968 154.437 104.074L151.934 103.228C152.093 102.614 152.428 102.047 152.938 101.526C153.451 100.989 154.145 100.56 155.019 100.238C156.512 99.6868 157.877 99.551 159.113 99.8302C160.353 100.094 161.435 100.688 162.357 101.61ZM179.582 102.062C180.018 102.498 180.323 102.94 180.496 103.39C180.669 103.839 180.691 104.275 180.561 104.698C180.431 105.121 180.14 105.519 179.687 105.895C179.247 106.265 178.637 106.594 177.857 106.882C176.943 107.219 176.086 107.403 175.288 107.434C174.491 107.465 173.763 107.4 173.106 107.24C172.449 107.08 171.872 106.863 171.377 106.588C170.884 106.298 170.486 106.001 170.182 105.696C169.877 105.392 169.652 105.094 169.507 104.801C169.364 104.492 169.287 104.195 169.276 103.907C169.255 103.61 169.281 103.323 169.354 103.046C169.427 102.769 169.534 102.508 169.674 102.262C168.731 102.166 167.917 101.987 167.233 101.726C166.552 101.45 165.938 101.038 165.39 100.491C164.995 100.096 164.721 99.6834 164.568 99.2542C164.418 98.8099 164.401 98.379 164.518 97.9614C164.634 97.5438 164.887 97.1522 165.276 96.7866C165.665 96.4209 166.196 96.1141 166.869 95.866C167.662 95.5732 168.421 95.4113 169.145 95.3802C169.882 95.3441 170.562 95.3984 171.185 95.5431C171.822 95.6829 172.389 95.8902 172.885 96.1652C173.381 96.4402 173.786 96.7348 174.1 97.049C174.657 97.6065 174.952 98.1777 174.985 98.7624C175.007 99.337 174.883 99.8478 174.611 100.295C175.729 100.326 176.689 100.486 177.492 100.772C178.308 101.054 179.004 101.484 179.582 102.062ZM172.552 104.78C172.704 104.932 172.906 105.08 173.159 105.222C173.412 105.365 173.704 105.472 174.034 105.545C174.365 105.617 174.728 105.65 175.126 105.642C175.513 105.624 175.928 105.533 176.372 105.369C176.775 105.22 177.085 105.051 177.299 104.861C177.514 104.67 177.65 104.475 177.706 104.273C177.753 104.062 177.737 103.853 177.659 103.646C177.57 103.428 177.435 103.229 177.252 103.046C176.969 102.762 176.646 102.541 176.286 102.383C175.925 102.225 175.527 102.122 175.093 102.074C174.661 102.011 174.202 101.993 173.714 102.021C173.215 102.038 172.692 102.085 172.144 102.163C171.892 102.574 171.786 103.002 171.825 103.446C171.853 103.879 172.096 104.324 172.552 104.78ZM171.75 97.9577C171.618 97.8259 171.436 97.6988 171.203 97.5766C170.973 97.4392 170.705 97.3369 170.399 97.2696C170.106 97.1973 169.786 97.1627 169.439 97.1658C169.092 97.1688 168.737 97.2373 168.374 97.3713C168.011 97.5053 167.74 97.6675 167.563 97.858C167.388 98.0333 167.291 98.2217 167.272 98.4232C167.242 98.6145 167.268 98.8062 167.35 98.9981C167.421 99.1799 167.533 99.3469 167.685 99.4989C168.07 99.8841 168.623 100.18 169.344 100.385C170.079 100.586 170.998 100.622 172.102 100.492C172.367 100.075 172.493 99.6677 172.482 99.2695C172.46 98.8612 172.216 98.4239 171.75 97.9577ZM186.68 101.941C187.034 102.296 187.162 102.644 187.062 102.987C186.976 103.324 186.711 103.574 186.267 103.738C185.81 103.907 185.315 103.936 184.782 103.828C184.25 103.719 183.806 103.487 183.452 103.132C183.097 102.777 182.963 102.431 183.049 102.094C183.125 101.747 183.392 101.489 183.849 101.32C184.293 101.157 184.786 101.134 185.329 101.253C185.874 101.357 186.325 101.586 186.68 101.941ZM182.213 93.5356C182.76 93.0147 183.241 92.4278 183.656 91.7751C184.085 91.1175 184.353 90.4286 184.462 89.7087L186.176 89.076L196.714 99.6133L194.273 100.514L186.199 92.4398C186.048 92.7867 185.799 93.1632 185.45 93.5694C185.101 93.9755 184.737 94.3388 184.358 94.6591L182.213 93.5356ZM203.318 97.1768C202.628 96.3766 201.999 95.4987 201.43 94.543C200.861 93.5873 200.378 92.6346 199.98 91.685C199.586 90.7202 199.282 89.7988 199.066 88.9207C198.854 88.0276 198.752 87.2535 198.76 86.5984L192.324 88.9726L190.743 87.3913L200.084 83.9453L201.483 85.3442C201.414 85.883 201.442 86.5735 201.566 87.4158C201.69 88.2581 201.927 89.1766 202.278 90.1713C202.618 91.1559 203.079 92.179 203.662 93.2406C204.259 94.2973 204.978 95.3017 205.82 96.2539L203.318 97.1768Z" fill="#3F65B3"/>
<path d="M150.891 105.84C151.256 106.205 151.515 106.602 151.668 107.031C151.811 107.451 151.888 107.887 151.9 108.34C151.915 108.779 151.878 109.23 151.788 109.693C151.689 110.146 151.584 110.594 151.475 111.037C151.412 111.268 151.352 111.54 151.296 111.852C151.24 112.164 151.197 112.471 151.168 112.773C151.139 113.076 151.138 113.36 151.166 113.627C151.184 113.885 151.252 114.082 151.37 114.218L157.584 111.926L159.135 113.477L150.238 116.759C150.143 116.683 150.04 116.589 149.929 116.478C149.807 116.356 149.716 116.265 149.655 116.204C149.169 115.717 148.823 115.234 148.62 114.754C148.419 114.259 148.31 113.772 148.291 113.293C148.273 112.815 148.315 112.341 148.417 111.873C148.52 111.405 148.628 110.942 148.741 110.484C148.83 110.132 148.912 109.79 148.985 109.458C149.057 109.125 149.095 108.813 149.097 108.521C149.103 108.214 149.062 107.924 148.973 107.651C148.874 107.368 148.703 107.105 148.46 106.862C147.933 106.335 147.356 106.034 146.73 105.96C146.103 105.886 145.501 105.955 144.922 106.169C144.546 106.308 144.237 106.477 143.995 106.677C143.753 106.878 143.56 107.081 143.416 107.286C143.286 107.487 143.187 107.683 143.121 107.874C143.044 108.055 142.994 108.199 142.971 108.304L140.468 107.458C140.627 106.844 140.962 106.277 141.472 105.756C141.985 105.22 142.679 104.79 143.553 104.468C145.046 103.917 146.41 103.781 147.647 104.06C148.887 104.325 149.968 104.918 150.891 105.84ZM162.357 101.61C162.722 101.975 162.981 102.372 163.134 102.801C163.277 103.22 163.354 103.657 163.366 104.11C163.381 104.549 163.344 105 163.255 105.463C163.155 105.916 163.051 106.364 162.941 106.806C162.878 107.038 162.818 107.31 162.762 107.622C162.706 107.934 162.664 108.241 162.634 108.543C162.605 108.845 162.604 109.13 162.632 109.397C162.65 109.654 162.718 109.851 162.836 109.988L169.05 107.696L170.601 109.247L161.704 112.529C161.61 112.453 161.507 112.359 161.395 112.247C161.273 112.126 161.182 112.035 161.121 111.974C160.635 111.487 160.29 111.004 160.086 110.524C159.886 110.029 159.776 109.542 159.758 109.063C159.739 108.584 159.781 108.111 159.884 107.643C159.986 107.175 160.094 106.712 160.207 106.254C160.297 105.902 160.378 105.56 160.451 105.227C160.524 104.895 160.561 104.583 160.564 104.291C160.569 103.983 160.528 103.693 160.439 103.421C160.341 103.138 160.17 102.875 159.926 102.632C159.399 102.105 158.822 101.804 158.196 101.73C157.569 101.656 156.967 101.725 156.389 101.939C156.012 102.078 155.703 102.247 155.461 102.447C155.22 102.647 155.027 102.85 154.883 103.056C154.752 103.257 154.654 103.453 154.587 103.644C154.51 103.825 154.46 103.968 154.437 104.074L151.934 103.228C152.093 102.614 152.428 102.047 152.938 101.526C153.451 100.989 154.145 100.56 155.019 100.238C156.512 99.6868 157.877 99.551 159.113 99.8302C160.353 100.094 161.435 100.688 162.357 101.61ZM179.582 102.062C180.018 102.498 180.323 102.94 180.496 103.39C180.669 103.839 180.691 104.275 180.561 104.698C180.431 105.121 180.14 105.519 179.687 105.895C179.247 106.265 178.637 106.594 177.857 106.882C176.943 107.219 176.086 107.403 175.288 107.434C174.491 107.465 173.763 107.4 173.106 107.24C172.449 107.08 171.872 106.863 171.377 106.588C170.884 106.298 170.486 106.001 170.182 105.696C169.877 105.392 169.652 105.094 169.507 104.801C169.364 104.492 169.287 104.195 169.276 103.907C169.255 103.61 169.281 103.323 169.354 103.046C169.427 102.769 169.534 102.508 169.674 102.262C168.731 102.166 167.917 101.987 167.233 101.726C166.552 101.45 165.938 101.038 165.39 100.491C164.995 100.096 164.721 99.6834 164.568 99.2542C164.418 98.8099 164.401 98.379 164.518 97.9614C164.634 97.5438 164.887 97.1522 165.276 96.7866C165.665 96.4209 166.196 96.1141 166.869 95.866C167.662 95.5732 168.421 95.4113 169.145 95.3802C169.882 95.3441 170.562 95.3984 171.185 95.5431C171.822 95.6829 172.389 95.8902 172.885 96.1652C173.381 96.4402 173.786 96.7348 174.1 97.049C174.657 97.6065 174.952 98.1777 174.985 98.7624C175.007 99.337 174.883 99.8478 174.611 100.295C175.729 100.326 176.689 100.486 177.492 100.772C178.308 101.054 179.004 101.484 179.582 102.062ZM172.552 104.78C172.704 104.932 172.906 105.08 173.159 105.222C173.412 105.365 173.704 105.472 174.034 105.545C174.365 105.617 174.728 105.65 175.126 105.642C175.513 105.624 175.928 105.533 176.372 105.369C176.775 105.22 177.085 105.051 177.299 104.861C177.514 104.67 177.65 104.475 177.706 104.273C177.753 104.062 177.737 103.853 177.659 103.646C177.57 103.428 177.435 103.229 177.252 103.046C176.969 102.762 176.646 102.541 176.286 102.383C175.925 102.225 175.527 102.122 175.093 102.074C174.661 102.011 174.202 101.993 173.714 102.021C173.215 102.038 172.692 102.085 172.144 102.163C171.892 102.574 171.786 103.002 171.825 103.446C171.853 103.879 172.096 104.324 172.552 104.78ZM171.75 97.9577C171.618 97.8259 171.436 97.6988 171.203 97.5766C170.973 97.4392 170.705 97.3369 170.399 97.2696C170.106 97.1973 169.786 97.1627 169.439 97.1658C169.092 97.1688 168.737 97.2373 168.374 97.3713C168.011 97.5053 167.74 97.6675 167.563 97.858C167.388 98.0333 167.291 98.2217 167.272 98.4232C167.242 98.6145 167.268 98.8062 167.35 98.9981C167.421 99.1799 167.533 99.3469 167.685 99.4989C168.07 99.8841 168.623 100.18 169.344 100.385C170.079 100.586 170.998 100.622 172.102 100.492C172.367 100.075 172.493 99.6677 172.482 99.2695C172.46 98.8612 172.216 98.4239 171.75 97.9577ZM186.68 101.941C187.034 102.296 187.162 102.644 187.062 102.987C186.976 103.324 186.711 103.574 186.267 103.738C185.81 103.907 185.315 103.936 184.782 103.828C184.25 103.719 183.806 103.487 183.452 103.132C183.097 102.777 182.963 102.431 183.049 102.094C183.125 101.747 183.392 101.489 183.849 101.32C184.293 101.157 184.786 101.134 185.329 101.253C185.874 101.357 186.325 101.586 186.68 101.941ZM182.213 93.5356C182.76 93.0147 183.241 92.4278 183.656 91.7751C184.085 91.1175 184.353 90.4286 184.462 89.7087L186.176 89.076L196.714 99.6133L194.273 100.514L186.199 92.4398C186.048 92.7867 185.799 93.1632 185.45 93.5694C185.101 93.9755 184.737 94.3388 184.358 94.6591L182.213 93.5356ZM203.318 97.1768C202.628 96.3766 201.999 95.4987 201.43 94.543C200.861 93.5873 200.378 92.6346 199.98 91.685C199.586 90.7202 199.282 89.7988 199.066 88.9207C198.854 88.0276 198.752 87.2535 198.76 86.5984L192.324 88.9726L190.743 87.3913L200.084 83.9453L201.483 85.3442C201.414 85.883 201.442 86.5735 201.566 87.4158C201.69 88.2581 201.927 89.1766 202.278 90.1713C202.618 91.1559 203.079 92.179 203.662 93.2406C204.259 94.2973 204.978 95.3017 205.82 96.2539L203.318 97.1768Z" fill="url(#paint7_linear_424_18935)"/>
<path d="M237.168 180.726L229.259 172.818L235.316 170.583L235.989 171.257L230.962 173.111L233.712 175.861L238.194 174.208L238.856 174.87L234.374 176.523L237.524 179.673L242.945 177.673L243.618 178.347L237.168 180.726ZM244.381 167.239L245.41 166.859L253.319 174.768L252.289 175.147L248.489 171.347L242.796 173.448L246.596 177.248L245.567 177.628L237.658 169.719L238.688 169.339L242.123 172.774L247.816 170.674L244.381 167.239ZM257.45 176.134L256.451 176.502L250.567 163.551L251.536 163.193L257.45 176.134ZM262.511 170.658C263.077 170.449 263.472 170.209 263.699 169.938C263.928 169.656 263.875 169.348 263.54 169.013C263.38 168.853 263.208 168.729 263.023 168.641C262.849 168.549 262.64 168.486 262.397 168.45C262.155 168.415 261.865 168.402 261.529 168.411C261.203 168.417 260.801 168.43 260.324 168.45C259.94 168.466 259.571 168.477 259.217 168.483C258.856 168.481 258.513 168.456 258.19 168.409C257.859 168.354 257.545 168.262 257.249 168.131C256.953 168.001 256.679 167.81 256.428 167.559C255.949 167.08 255.798 166.604 255.976 166.133C256.163 165.657 256.676 165.265 257.514 164.956C258.049 164.758 258.522 164.631 258.934 164.573C259.356 164.511 259.664 164.48 259.859 164.481L260.293 165.227C260.127 165.226 259.859 165.242 259.49 165.274C259.131 165.302 258.674 165.418 258.119 165.623C257.897 165.705 257.704 165.802 257.54 165.915C257.379 166.016 257.261 166.133 257.185 166.264C257.102 166.389 257.072 166.525 257.096 166.672C257.111 166.812 257.199 166.962 257.359 167.122C257.519 167.282 257.696 167.404 257.891 167.488C258.086 167.573 258.305 167.632 258.547 167.668C258.792 167.692 259.064 167.701 259.362 167.695C259.671 167.686 260.017 167.673 260.401 167.656C260.795 167.635 261.178 167.624 261.549 167.623C261.923 167.61 262.284 167.633 262.633 167.691C262.975 167.743 263.306 167.839 263.627 167.981C263.941 168.115 264.239 168.323 264.52 168.604C265.053 169.137 265.189 169.639 264.928 170.11C264.677 170.578 264.092 170.981 263.173 171.32C262.487 171.573 261.916 171.721 261.462 171.764C261.014 171.814 260.708 171.839 260.541 171.838L260.125 171.07C260.17 171.074 260.263 171.076 260.402 171.077C260.533 171.07 260.707 171.058 260.925 171.04C261.134 171.015 261.37 170.975 261.633 170.919C261.906 170.86 262.198 170.773 262.511 170.658Z" fill="#343434"/>
<defs>
<filter id="filter0_ddddd_424_18935" x="0.802553" y="19.1785" width="354.85" height="255.569" filterUnits="userSpaceOnUse" color-interpolation-filters="sRGB">
<feFlood flood-opacity="0" result="BackgroundImageFix"/>
<feColorMatrix in="SourceAlpha" type="matrix" values="0 0 0 0 0 0 0 0 0 0 0 0 0 0 0 0 0 0 127 0" result="hardAlpha"/>
<feOffset/>
<feColorMatrix type="matrix" values="0 0 0 0 0.439216 0 0 0 0 0.647059 0 0 0 0 0.92549 0 0 0 0.05 0"/>
<feBlend mode="normal" in2="BackgroundImageFix" result="effect1_dropShadow_424_18935"/>
<feColorMatrix in="SourceAlpha" type="matrix" values="0 0 0 0 0 0 0 0 0 0 0 0 0 0 0 0 0 0 127 0" result="hardAlpha"/>
<feOffset dx="-0.680721" dy="1.36144"/>
<feGaussianBlur stdDeviation="2.04216"/>
<feColorMatrix type="matrix" values="0 0 0 0 0.439216 0 0 0 0 0.647059 0 0 0 0 0.92549 0 0 0 0.05 0"/>
<feBlend mode="normal" in2="effect1_dropShadow_424_18935" result="effect2_dropShadow_424_18935"/>
<feColorMatrix in="SourceAlpha" type="matrix" values="0 0 0 0 0 0 0 0 0 0 0 0 0 0 0 0 0 0 127 0" result="hardAlpha"/>
<feOffset dx="-4.08433" dy="6.12649"/>
<feGaussianBlur stdDeviation="3.74397"/>
<feColorMatrix type="matrix" values="0 0 0 0 0.439216 0 0 0 0 0.647059 0 0 0 0 0.92549 0 0 0 0.04 0"/>
<feBlend mode="normal" in2="effect2_dropShadow_424_18935" result="effect3_dropShadow_424_18935"/>
<feColorMatrix in="SourceAlpha" type="matrix" values="0 0 0 0 0 0 0 0 0 0 0 0 0 0 0 0 0 0 127 0" result="hardAlpha"/>
<feOffset dx="-8.84937" dy="13.6144"/>
<feGaussianBlur stdDeviation="5.10541"/>
<feColorMatrix type="matrix" values="0 0 0 0 0.439216 0 0 0 0 0.647059 0 0 0 0 0.92549 0 0 0 0.03 0"/>
<feBlend mode="normal" in2="effect3_dropShadow_424_18935" result="effect4_dropShadow_424_18935"/>
<feColorMatrix in="SourceAlpha" type="matrix" values="0 0 0 0 0 0 0 0 0 0 0 0 0 0 0 0 0 0 127 0" result="hardAlpha"/>
<feOffset dx="-16.3373" dy="24.506"/>
<feGaussianBlur stdDeviation="5.78613"/>
<feColorMatrix type="matrix" values="0 0 0 0 0.439216 0 0 0 0 0.647059 0 0 0 0 0.92549 0 0 0 0.01 0"/>
<feBlend mode="normal" in2="effect4_dropShadow_424_18935" result="effect5_dropShadow_424_18935"/>
<feBlend mode="normal" in="SourceGraphic" in2="effect5_dropShadow_424_18935" result="shape"/>
</filter>
<filter id="filter1_i_424_18935" x="28.7151" y="6.90259" width="323.533" height="221.604" filterUnits="userSpaceOnUse" color-interpolation-filters="sRGB">
<feFlood flood-opacity="0" result="BackgroundImageFix"/>
<feBlend mode="normal" in="SourceGraphic" in2="BackgroundImageFix" result="shape"/>
<feColorMatrix in="SourceAlpha" type="matrix" values="0 0 0 0 0 0 0 0 0 0 0 0 0 0 0 0 0 0 127 0" result="hardAlpha"/>
<feOffset dy="4.83828"/>
<feGaussianBlur stdDeviation="8.46699"/>
<feComposite in2="hardAlpha" operator="arithmetic" k2="-1" k3="1"/>
<feColorMatrix type="matrix" values="0 0 0 0 0 0 0 0 0 0 0 0 0 0 0 0 0 0 0.04 0"/>
<feBlend mode="normal" in2="shape" result="effect1_innerShadow_424_18935"/>
</filter>
<filter id="filter2_ddddd_424_18935" x="112.524" y="39.5784" width="224.931" height="268.745" filterUnits="userSpaceOnUse" color-interpolation-filters="sRGB">
<feFlood flood-opacity="0" result="BackgroundImageFix"/>
<feColorMatrix in="SourceAlpha" type="matrix" values="0 0 0 0 0 0 0 0 0 0 0 0 0 0 0 0 0 0 127 0" result="hardAlpha"/>
<feOffset/>
<feColorMatrix type="matrix" values="0 0 0 0 0.00784314 0 0 0 0 0.376471 0 0 0 0 0.968627 0 0 0 0.2 0"/>
<feBlend mode="normal" in2="BackgroundImageFix" result="effect1_dropShadow_424_18935"/>
<feColorMatrix in="SourceAlpha" type="matrix" values="0 0 0 0 0 0 0 0 0 0 0 0 0 0 0 0 0 0 127 0" result="hardAlpha"/>
<feOffset dx="2" dy="7"/>
<feGaussianBlur stdDeviation="8"/>
<feColorMatrix type="matrix" values="0 0 0 0 0.00784314 0 0 0 0 0.376471 0 0 0 0 0.968627 0 0 0 0.2 0"/>
<feBlend mode="normal" in2="effect1_dropShadow_424_18935" result="effect2_dropShadow_424_18935"/>
<feColorMatrix in="SourceAlpha" type="matrix" values="0 0 0 0 0 0 0 0 0 0 0 0 0 0 0 0 0 0 127 0" result="hardAlpha"/>
<feOffset dx="9" dy="28"/>
<feGaussianBlur stdDeviation="14.5"/>
<feColorMatrix type="matrix" values="0 0 0 0 0.00784314 0 0 0 0 0.376471 0 0 0 0 0.968627 0 0 0 0.17 0"/>
<feBlend mode="normal" in2="effect2_dropShadow_424_18935" result="effect3_dropShadow_424_18935"/>
<feColorMatrix in="SourceAlpha" type="matrix" values="0 0 0 0 0 0 0 0 0 0 0 0 0 0 0 0 0 0 127 0" result="hardAlpha"/>
<feOffset dx="21" dy="62"/>
<feGaussianBlur stdDeviation="19.5"/>
<feColorMatrix type="matrix" values="0 0 0 0 0.00784314 0 0 0 0 0.376471 0 0 0 0 0.968627 0 0 0 0.1 0"/>
<feBlend mode="normal" in2="effect3_dropShadow_424_18935" result="effect4_dropShadow_424_18935"/>
<feColorMatrix in="SourceAlpha" type="matrix" values="0 0 0 0 0 0 0 0 0 0 0 0 0 0 0 0 0 0 127 0" result="hardAlpha"/>
<feOffset dx="37" dy="110"/>
<feGaussianBlur stdDeviation="23.5"/>
<feColorMatrix type="matrix" values="0 0 0 0 0.00784314 0 0 0 0 0.376471 0 0 0 0 0.968627 0 0 0 0.03 0"/>
<feBlend mode="normal" in2="effect4_dropShadow_424_18935" result="effect5_dropShadow_424_18935"/>
<feBlend mode="normal" in="SourceGraphic" in2="effect5_dropShadow_424_18935" result="shape"/>
</filter>
<linearGradient id="paint0_linear_424_18935" x1="31.006" y1="186.621" x2="4.30555" y2="198.244" gradientUnits="userSpaceOnUse">
<stop offset="0.029378" stop-color="#86A7F8"/>
<stop offset="1" stop-color="#7DA0EF"/>
</linearGradient>
<linearGradient id="paint1_linear_424_18935" x1="99.1405" y1="2.79541e-05" x2="-1466.35" y2="2105.1" gradientUnits="userSpaceOnUse">
<stop stop-color="#A8B9FF"/>
<stop offset="0.9999" stop-color="#CFDBEF"/>
</linearGradient>
<linearGradient id="paint2_linear_424_18935" x1="69.1834" y1="142.901" x2="69.5396" y2="143.662" gradientUnits="userSpaceOnUse">
<stop stop-color="#90B4FF"/>
<stop offset="1" stop-color="#93B0F7"/>
</linearGradient>
<linearGradient id="paint3_linear_424_18935" x1="69.1834" y1="140.969" x2="69.5396" y2="141.73" gradientUnits="userSpaceOnUse">
<stop stop-color="#90B4FF"/>
<stop offset="1" stop-color="#93B0F7"/>
</linearGradient>
<linearGradient id="paint4_linear_424_18935" x1="69.1834" y1="139.038" x2="69.5396" y2="139.798" gradientUnits="userSpaceOnUse">
<stop stop-color="#90B4FF"/>
<stop offset="1" stop-color="#93B0F7"/>
</linearGradient>
<linearGradient id="paint5_linear_424_18935" x1="69.1834" y1="137.106" x2="69.5396" y2="137.867" gradientUnits="userSpaceOnUse">
<stop stop-color="#90B4FF"/>
<stop offset="1" stop-color="#93B0F7"/>
</linearGradient>
<linearGradient id="paint6_linear_424_18935" x1="233.715" y1="209.26" x2="301.215" y2="128.517" gradientUnits="userSpaceOnUse">
<stop stop-color="#3F7BDD"/>
<stop offset="1" stop-color="#4282EC"/>
</linearGradient>
<linearGradient id="paint7_linear_424_18935" x1="172.495" y1="127.338" x2="198.67" y2="86.0587" gradientUnits="userSpaceOnUse">
<stop stop-color="#3F7BDD"/>
<stop offset="1" stop-color="#4282EC"/>
</linearGradient>
</defs>
</svg>
