<svg width="322" height="185" viewBox="0 0 322 185" fill="none" xmlns="http://www.w3.org/2000/svg">
<g filter="url(#filter0_d_978_40741)">
<rect width="244.949" height="106.991" rx="27.3" transform="matrix(0.938072 -0.34632 0.706808 0.707314 8.07986 95.9902)" fill="url(#paint0_linear_978_40741)"/>
</g>
<g filter="url(#filter1_i_978_40741)">
<rect width="244.949" height="106.991" rx="27.3" transform="matrix(0.938072 -0.346321 0.706808 0.707314 8.0799 84.9907)" fill="url(#paint1_linear_978_40741)"/>
</g>
<rect x="2.03965" y="0.447632" width="242.469" height="104.511" rx="26.06" transform="matrix(0.938072 -0.346321 0.706808 0.707314 7.88982 85.8281)" stroke="#3E4462" stroke-width="2.48"/>
<g filter="url(#filter2_i_978_40741)">
<rect width="40.9916" height="36.9972" rx="10.2485" transform="matrix(0.938072 -0.34632 0.706808 0.707314 73.0617 102.99)" fill="#7C83AC"/>
</g>
<rect x="1.5685" y="0.34423" width="39.0845" height="35.0901" rx="9.29496" transform="matrix(0.938072 -0.34632 0.706808 0.707314 72.9156 103.634)" stroke="#3E4462" stroke-width="1.90712"/>
<rect width="40.9916" height="36.9972" rx="10.2485" transform="matrix(0.938072 -0.34632 0.706808 0.707314 73.0617 80.9907)" fill="#D9D9D9"/>
<rect width="40.9916" height="36.9972" rx="10.2485" transform="matrix(0.938072 -0.34632 0.706808 0.707314 73.0617 80.9907)" fill="url(#paint2_linear_978_40741)"/>
<rect width="40.9916" height="36.9972" rx="10.2485" transform="matrix(0.938072 -0.34632 0.706808 0.707314 73.0617 82.9907)" fill="#D9D9D9"/>
<rect width="40.9916" height="36.9972" rx="10.2485" transform="matrix(0.938072 -0.34632 0.706808 0.707314 73.0617 82.9907)" fill="url(#paint3_linear_978_40741)"/>
<path d="M130.62 75.3673L131.281 75.1232L136.358 80.204L135.697 80.4481L130.62 75.3673ZM134.414 75.9136C134.563 75.805 134.772 75.6677 135.04 75.5016C135.309 75.3354 135.674 75.1674 136.134 74.9975C136.516 74.8563 136.876 74.7806 137.211 74.7703C137.554 74.7577 137.878 74.8021 138.183 74.9034C138.49 74.9975 138.783 75.1401 139.063 75.3312C139.343 75.5224 139.612 75.7475 139.871 76.0065L141.988 78.1254L141.356 78.3587L139.393 76.3938C139.124 76.125 138.871 75.9073 138.634 75.7407C138.403 75.5717 138.17 75.4501 137.936 75.3759C137.709 75.2993 137.477 75.2712 137.24 75.2917C137.005 75.305 136.748 75.3631 136.469 75.466C136.171 75.576 135.924 75.684 135.728 75.7898C135.538 75.8932 135.421 75.9667 135.376 76.0101L138.702 79.3387L138.07 79.572L134.414 75.9136ZM144.61 76.455C144.536 76.1946 144.436 75.9037 144.31 75.5822C144.179 75.2558 144.034 74.9245 143.876 74.5883C143.719 74.2447 143.549 73.906 143.366 73.5721C143.185 73.2308 143.004 72.9163 142.822 72.6286L143.455 72.3952C143.685 72.7853 143.897 73.1753 144.091 73.5652C144.286 73.9552 144.463 74.3413 144.623 74.7237C144.79 75.1038 144.935 75.4752 145.058 75.8379C145.187 76.1983 145.303 76.5404 145.404 76.8641L144.802 77.0867C144.369 76.885 143.92 76.6662 143.453 76.4302C142.987 76.1943 142.512 75.945 142.027 75.6822C141.549 75.417 141.07 75.1422 140.591 74.8576C140.111 74.573 139.64 74.2787 139.176 73.9747L139.847 73.727C140.184 73.9574 140.556 74.2013 140.964 74.4587C141.374 74.7089 141.79 74.9567 142.213 75.2021C142.637 75.4402 143.057 75.6698 143.474 75.8909C143.885 76.1071 144.264 76.2951 144.61 76.455ZM146.079 74.0159C145.746 73.6835 145.52 73.3724 145.399 73.0825C145.279 72.7854 145.237 72.5166 145.272 72.2763C145.313 72.0335 145.425 71.8252 145.606 71.6512C145.788 71.47 146.019 71.328 146.298 71.2251C146.914 70.9977 147.555 70.9685 148.22 71.1376C148.893 71.3042 149.544 71.7028 150.174 72.3333C150.213 72.3724 150.249 72.4127 150.281 72.4542C150.321 72.4933 150.354 72.5311 150.382 72.5677L146.852 73.8708C147.335 74.328 147.844 74.6285 148.379 74.7725C148.913 74.9165 149.491 74.8736 150.114 74.6439C150.457 74.517 150.705 74.3921 150.857 74.269C151.009 74.1459 151.114 74.0506 151.17 73.9828L151.697 74.3503C151.645 74.4229 151.52 74.5328 151.321 74.6799C151.128 74.8246 150.864 74.9592 150.526 75.0836C150.086 75.2463 149.661 75.3363 149.252 75.3534C148.843 75.3705 148.45 75.3282 148.074 75.2264C147.697 75.1246 147.343 74.9708 147.013 74.7648C146.678 74.5539 146.367 74.3043 146.079 74.0159ZM149.347 72.3978C148.938 72.0067 148.507 71.7443 148.054 71.6105C147.601 71.4767 147.16 71.4887 146.733 71.6467C146.506 71.7305 146.336 71.8401 146.223 71.9755C146.116 72.1085 146.053 72.2588 146.034 72.4264C146.017 72.5867 146.045 72.7569 146.119 72.9372C146.199 73.115 146.315 73.2894 146.469 73.4604L149.347 72.3978ZM154.298 73.1191C154.661 72.985 154.915 72.831 155.061 72.6568C155.208 72.4754 155.174 72.2772 154.959 72.0621C154.857 71.9595 154.746 71.8799 154.627 71.8233C154.515 71.7643 154.381 71.7235 154.225 71.7007C154.069 71.678 153.884 71.6696 153.668 71.6757C153.459 71.6794 153.201 71.6876 152.894 71.7005C152.647 71.7112 152.41 71.7184 152.183 71.7219C151.951 71.7206 151.731 71.7048 151.524 71.6745C151.311 71.6392 151.11 71.5798 150.919 71.4961C150.729 71.4124 150.554 71.2899 150.392 71.1286C150.085 70.8206 149.988 70.5151 150.102 70.212C150.223 69.9065 150.552 69.6545 151.09 69.4558C151.434 69.329 151.738 69.2469 152.002 69.2095C152.273 69.1697 152.471 69.1502 152.596 69.1509L152.875 69.63C152.768 69.6294 152.596 69.6393 152.359 69.6599C152.129 69.678 151.835 69.7529 151.479 69.8845C151.336 69.9372 151.212 69.9996 151.107 70.0719C151.003 70.137 150.927 70.2118 150.879 70.2966C150.826 70.3765 150.806 70.4639 150.821 70.5587C150.831 70.6487 150.888 70.745 150.99 70.8477C151.093 70.9503 151.207 71.0287 151.332 71.0829C151.457 71.137 151.597 71.1755 151.753 71.1983C151.911 71.2137 152.085 71.2196 152.277 71.2158C152.474 71.2096 152.697 71.2012 152.943 71.1904C153.196 71.1773 153.442 71.1702 153.681 71.1691C153.921 71.1608 154.153 71.1754 154.377 71.2132C154.596 71.246 154.809 71.308 155.015 71.399C155.217 71.4852 155.408 71.6188 155.589 71.7996C155.931 72.1417 156.018 72.4642 155.85 72.767C155.689 73.0674 155.313 73.3265 154.723 73.5443C154.282 73.707 153.916 73.8021 153.624 73.8296C153.337 73.862 153.14 73.8779 153.033 73.8773L152.766 73.3837C152.795 73.3863 152.854 73.3879 152.943 73.3884C153.028 73.384 153.14 73.3761 153.279 73.3648C153.414 73.3485 153.565 73.3227 153.734 73.2872C153.909 73.2493 154.097 73.1932 154.298 73.1191ZM154.569 68.2919L156.572 67.5524L156.975 67.9557L154.972 68.6952L156.987 70.7114C157.202 70.9264 157.4 71.094 157.582 71.2141C157.766 71.3269 157.94 71.4033 158.104 71.4431C158.268 71.4829 158.427 71.4911 158.581 71.4677C158.735 71.4442 158.89 71.4038 159.046 71.3464C159.311 71.2482 159.503 71.1473 159.621 71.0435C159.735 70.9347 159.817 70.8441 159.869 70.7715L160.42 71.11C160.373 71.1874 160.266 71.2974 160.097 71.4398C159.924 71.5773 159.705 71.6952 159.439 71.7933C159.128 71.9082 158.836 71.9758 158.563 71.9961C158.292 72.0091 158.031 71.9785 157.779 71.9041C157.529 71.8225 157.285 71.6984 157.048 71.5318C156.81 71.3653 156.565 71.1549 156.311 70.9007L152.823 67.4109L153.368 67.0895L154.569 68.2919ZM159.325 69.1255C158.993 68.7932 158.766 68.482 158.645 68.1922C158.526 67.895 158.483 67.6263 158.518 67.3859C158.56 67.1432 158.671 66.9348 158.852 66.7609C159.035 66.5797 159.266 66.4376 159.544 66.3347C160.16 66.1073 160.801 66.0782 161.467 66.2472C162.139 66.4138 162.79 66.8124 163.42 67.4429C163.459 67.482 163.495 67.5223 163.528 67.5638C163.567 67.6029 163.6 67.6408 163.628 67.6774L160.098 68.9805C160.582 69.4376 161.091 69.7382 161.625 69.8822C162.159 70.0261 162.738 69.9833 163.36 69.7535C163.704 69.6267 163.951 69.5017 164.104 69.3787C164.256 69.2556 164.36 69.1602 164.417 69.0925L164.944 69.46C164.892 69.5326 164.766 69.6424 164.567 69.7895C164.375 69.9342 164.11 70.0688 163.773 70.1933C163.332 70.356 162.907 70.4459 162.498 70.463C162.09 70.4802 161.697 70.4378 161.32 70.3361C160.943 70.2343 160.59 70.0804 160.26 69.8744C159.925 69.6635 159.613 69.4139 159.325 69.1255ZM162.593 67.5075C162.184 67.1164 161.754 66.8539 161.3 66.7201C160.847 66.5863 160.407 66.5984 159.979 66.7563C159.752 66.8401 159.582 66.9497 159.469 67.0851C159.362 67.2182 159.3 67.3685 159.281 67.5361C159.263 67.6963 159.291 67.8666 159.365 68.0468C159.445 68.2247 159.562 68.3991 159.715 68.5701L162.593 67.5075ZM170.73 67.3538C170.591 67.4721 170.397 67.607 170.15 67.7587C169.902 67.9104 169.554 68.0688 169.107 68.2339C168.738 68.3703 168.357 68.4508 167.964 68.4753C167.573 68.4925 167.182 68.4563 166.791 68.3666C166.406 68.2745 166.03 68.129 165.662 67.9301C165.301 67.7287 164.967 67.4741 164.659 67.1662C164.371 66.8778 164.156 66.5959 164.014 66.3205C163.873 66.0379 163.812 65.7726 163.831 65.5249C163.85 65.2771 163.95 65.0529 164.131 64.8523C164.318 64.6492 164.593 64.4807 164.956 64.3467C165.287 64.2246 165.609 64.156 165.922 64.1407C166.237 64.1182 166.481 64.1184 166.655 64.1412L164.618 62.1031L165.162 61.7817L170.73 67.3538ZM167.116 64.6031C167.024 64.5905 166.913 64.5813 166.783 64.5757C166.659 64.5677 166.522 64.5682 166.371 64.577C166.22 64.5859 166.067 64.6057 165.912 64.6364C165.751 64.6622 165.596 64.7026 165.447 64.7577C165.136 64.8726 164.915 65.011 164.784 65.1731C164.66 65.3328 164.603 65.5074 164.615 65.697C164.623 65.8817 164.692 66.0802 164.824 66.2923C164.952 66.4996 165.12 66.7083 165.33 66.9185C165.828 67.4171 166.377 67.7397 166.976 67.8865C167.571 68.0284 168.14 67.9988 168.685 67.7978C168.996 67.6829 169.236 67.581 169.404 67.492C169.574 67.3958 169.696 67.3175 169.768 67.2572L167.116 64.6031Z" fill="#AAAAAA"/>
<path d="M158.596 99.8239C157.535 100.143 156.615 100.345 155.837 100.43C155.063 100.499 154.458 100.527 154.024 100.514L153.234 98.7463C153.851 98.7498 154.543 98.7038 155.311 98.6085C156.092 98.5079 156.889 98.3077 157.701 98.0079C158.667 97.6512 159.227 97.3001 159.38 96.9545C159.536 96.5932 159.435 96.233 159.076 95.8741C158.834 95.6312 158.546 95.4485 158.212 95.3259C157.879 95.2032 157.504 95.125 157.086 95.0911C156.669 95.0573 156.207 95.0546 155.698 95.0833C155.204 95.1067 154.663 95.1404 154.074 95.1843C153.524 95.2284 152.958 95.2567 152.376 95.2691C151.809 95.2764 151.244 95.239 150.683 95.1571C150.125 95.0595 149.589 94.8963 149.073 94.6677C148.557 94.439 148.077 94.103 147.634 93.6595C146.906 92.931 146.576 92.2074 146.643 91.4887C146.7 90.7594 147.25 90.1011 148.293 89.5139L146.52 87.7401L148.705 86.9336L150.414 88.6441C151.128 88.4381 151.804 88.2898 152.442 88.1989C153.069 88.0975 153.584 88.0374 153.987 88.0187L155.029 89.7805C154.507 89.8142 153.913 89.8817 153.247 89.9829C152.595 90.079 151.913 90.2588 151.198 90.5224C150.442 90.8016 149.981 91.1166 149.814 91.4673C149.636 91.8075 149.727 92.1571 150.085 92.516C150.296 92.7272 150.532 92.886 150.791 92.9925C151.041 93.0884 151.335 93.153 151.675 93.1865C152.005 93.2093 152.383 93.2141 152.811 93.2008C153.228 93.1769 153.692 93.1428 154.204 93.0985C154.947 93.0554 155.665 93.0359 156.359 93.0398C157.057 93.0281 157.721 93.0791 158.352 93.1929C158.973 93.2962 159.557 93.4779 160.105 93.7383C160.667 93.9934 161.18 94.3533 161.644 94.8178C162.34 95.5147 162.655 96.2225 162.587 96.9412C162.519 97.66 161.901 98.3362 160.732 98.97L162.711 100.95L160.526 101.756L158.596 99.8239ZM163.928 86.2347C164.498 85.692 164.999 85.0807 165.431 84.4007C165.878 83.7156 166.157 82.9981 166.27 82.2481L168.056 81.589L179.023 92.5642L176.482 93.5025L168.078 85.0929C167.922 85.4542 167.662 85.8464 167.299 86.2695C166.936 86.6927 166.557 87.0711 166.162 87.4048L163.928 86.2347ZM189.551 77.5557C189.931 77.9358 190.2 78.3494 190.36 78.7965C190.508 79.233 190.589 79.6875 190.601 80.16C190.616 80.6168 190.578 81.0863 190.485 81.5687C190.381 82.0406 190.272 82.5071 190.158 82.9684C190.092 83.2095 190.03 83.4926 189.972 83.8177C189.913 84.1428 189.869 84.4627 189.838 84.7775C189.808 85.0923 189.807 85.3889 189.836 85.6672C189.854 85.935 189.925 86.1402 190.048 86.2826L196.518 83.8942L198.132 85.5096L188.869 88.9293C188.771 88.85 188.663 88.7523 188.547 88.6362C188.421 88.5095 188.326 88.4144 188.262 88.3511C187.756 87.8443 187.397 87.341 187.185 86.8411C186.976 86.3255 186.862 85.8183 186.843 85.3195C186.824 84.8208 186.868 84.3276 186.975 83.84C187.082 83.3525 187.194 82.8702 187.312 82.3932C187.405 82.0263 187.49 81.6698 187.566 81.3238C187.642 80.9778 187.681 80.6526 187.683 80.3481C187.689 80.028 187.646 79.7259 187.554 79.4419C187.452 79.1474 187.274 78.8734 187.02 78.62C186.472 78.071 185.871 77.7579 185.219 77.6807C184.567 77.6035 183.94 77.6761 183.338 77.8984C182.946 78.0431 182.624 78.2197 182.372 78.4283C182.12 78.6368 181.92 78.8483 181.77 79.0626C181.634 79.2718 181.531 79.476 181.461 79.675C181.381 79.8635 181.329 80.0128 181.305 80.1229L178.7 79.242C178.866 78.6026 179.214 78.0114 179.745 77.4685C180.28 76.9099 181.002 76.4626 181.912 76.1266C183.466 75.5527 184.887 75.4112 186.175 75.702C187.465 75.977 188.591 76.5949 189.551 77.5557ZM207.483 78.0248C207.937 78.4788 208.254 78.9399 208.434 79.4081C208.614 79.8763 208.637 80.3305 208.502 80.7707C208.367 81.2108 208.063 81.6264 207.591 82.0174C207.133 82.4032 206.498 82.7461 205.686 83.0459C204.734 83.3974 203.843 83.5892 203.012 83.6212C202.181 83.6533 201.424 83.586 200.74 83.4194C200.056 83.2527 199.456 83.0263 198.94 82.7399C198.427 82.4378 198.012 82.1283 197.696 81.8116C197.379 81.4948 197.145 81.1838 196.993 80.8785C196.845 80.5575 196.765 80.2473 196.754 79.948C196.732 79.6382 196.759 79.3392 196.835 79.0509C196.911 78.7626 197.022 78.4903 197.168 78.2339C196.187 78.1339 195.34 77.948 194.627 77.6762C193.918 77.3887 193.279 76.9599 192.709 76.3898C192.298 75.978 192.012 75.5486 191.853 75.1015C191.697 74.6387 191.68 74.1898 191.801 73.7548C191.922 73.3198 192.186 72.9119 192.591 72.531C192.996 72.1501 193.549 71.8304 194.249 71.572C195.075 71.267 195.865 71.0982 196.619 71.0658C197.386 71.0281 198.094 71.0846 198.743 71.2353C199.406 71.3808 199.996 71.5967 200.512 71.8831C201.028 72.1695 201.45 72.4763 201.777 72.8036C202.357 73.3843 202.664 73.9792 202.698 74.5883C202.721 75.1869 202.591 75.7189 202.309 76.1845C203.472 76.2173 204.472 76.3831 205.307 76.6818C206.156 76.9753 206.882 77.423 207.483 78.0248ZM200.164 80.8571C200.322 81.0155 200.533 81.1689 200.796 81.3174C201.059 81.4659 201.363 81.5778 201.707 81.6533C202.05 81.7287 202.429 81.7624 202.843 81.7542C203.246 81.7355 203.678 81.6408 204.14 81.4703C204.56 81.3152 204.882 81.1385 205.106 80.9403C205.33 80.7421 205.471 80.5382 205.53 80.3286C205.578 80.1084 205.562 79.8905 205.48 79.6748C205.388 79.4486 205.247 79.2404 205.058 79.0504C204.762 78.7547 204.427 78.5245 204.051 78.3596C203.675 78.1948 203.261 78.0875 202.809 78.0376C202.36 77.9721 201.882 77.9536 201.374 77.9822C200.855 78.0003 200.31 78.0497 199.739 78.1304C199.478 78.5594 199.367 79.0049 199.407 79.4671C199.437 79.9187 199.689 80.382 200.164 80.8571ZM199.33 73.7503C199.193 73.6131 199.003 73.4808 198.761 73.3534C198.522 73.2103 198.243 73.1038 197.924 73.0337C197.619 72.9585 197.286 72.9225 196.925 72.9257C196.564 72.9289 196.194 73.0003 195.816 73.1398C195.438 73.2794 195.156 73.4484 194.971 73.6468C194.79 73.8295 194.689 74.0258 194.668 74.2356C194.637 74.4349 194.664 74.6346 194.749 74.8345C194.823 75.0239 194.94 75.1978 195.098 75.3561C195.499 75.7574 196.075 76.0651 196.825 76.2793C197.59 76.4884 198.547 76.5253 199.696 76.3901C199.972 75.956 200.104 75.5316 200.092 75.1168C200.069 74.6915 199.815 74.236 199.33 73.7503ZM216.978 71.029C218.824 72.8767 219.795 74.4622 219.891 75.7855C219.976 77.0983 219.227 78.0467 217.645 78.6309C216.063 79.215 214.333 79.1816 212.455 78.5305C210.568 77.8689 208.7 76.6143 206.854 74.7666C205.936 73.848 205.236 72.9937 204.753 72.2036C204.273 71.3977 204.008 70.6719 203.957 70.0259C203.92 69.3748 204.083 68.8088 204.445 68.328C204.822 67.842 205.403 67.4542 206.187 67.1647C207.769 66.5805 209.504 66.6193 211.392 67.2809C213.27 67.9319 215.132 69.1813 216.978 71.029ZM214.352 71.9983C213.783 71.4281 213.208 70.9105 212.628 70.4452C212.048 69.98 211.481 69.6041 210.926 69.3175C210.375 69.0152 209.84 68.8153 209.32 68.7179C208.801 68.6204 208.311 68.657 207.849 68.8276C207.387 68.9982 207.1 69.2485 206.989 69.5786C206.892 69.9035 206.93 70.2869 207.103 70.7288C207.28 71.155 207.574 71.6317 207.986 72.159C208.412 72.681 208.91 73.2272 209.48 73.7973C210.049 74.3674 210.617 74.8877 211.183 75.3581C211.763 75.8233 212.328 76.2071 212.88 76.5094C213.435 76.796 213.971 76.988 214.491 77.0855C215.024 77.1777 215.521 77.1386 215.983 76.968C216.445 76.7974 216.725 76.5496 216.822 76.2247C216.919 75.8998 216.879 75.5243 216.703 75.0981C216.529 74.6562 216.237 74.1716 215.825 73.6444C215.413 73.1171 214.922 72.5684 214.352 71.9983ZM225.518 72.5156C225.726 72.6847 225.872 72.8115 225.956 72.896C226.04 72.9804 226.125 73.0649 226.209 73.1494C226.863 73.804 227.399 74.5314 227.815 75.3316C228.245 76.1267 228.526 76.9262 228.659 77.73L226.252 78.0549C225.976 77.3185 225.599 76.634 225.12 76.0013C224.666 75.3741 224.217 74.8388 223.774 74.3953C223.647 74.2686 223.482 74.1128 223.278 73.928C223.088 73.7379 222.939 73.598 222.83 73.5081L225.518 72.5156ZM234.536 64.5468C236.382 66.3945 237.353 67.98 237.449 69.3033C237.534 70.6161 236.785 71.5646 235.203 72.1487C233.621 72.7329 231.891 72.6994 230.014 72.0484C228.126 71.3868 226.258 70.1321 224.412 68.2844C223.494 67.3659 222.794 66.5115 222.311 65.7214C221.832 64.9156 221.566 64.1897 221.515 63.5438C221.478 62.8927 221.641 62.3267 222.004 61.8458C222.38 61.3598 222.961 60.972 223.745 60.6825C225.327 60.0984 227.063 60.1371 228.95 60.7987C230.828 61.4498 232.69 62.6991 234.536 64.5468ZM231.911 65.5161C231.341 64.946 230.766 64.4283 230.186 63.9631C229.606 63.4979 229.039 63.122 228.484 62.8354C227.933 62.533 227.398 62.3331 226.879 62.2357C226.36 62.1383 225.869 62.1749 225.407 62.3455C224.945 62.516 224.658 62.7664 224.547 63.0964C224.45 63.4213 224.488 63.8047 224.661 64.2466C224.838 64.6728 225.132 65.1495 225.544 65.6768C225.97 66.1989 226.468 66.745 227.038 67.3151C227.607 67.8853 228.175 68.4055 228.741 68.8759C229.321 69.3411 229.887 69.7249 230.438 70.0273C230.993 70.3139 231.53 70.5059 232.049 70.6033C232.582 70.6956 233.079 70.6564 233.541 70.4858C234.003 70.3152 234.283 70.0675 234.38 69.7426C234.477 69.4177 234.437 69.0421 234.261 68.616C234.087 68.174 233.795 67.6895 233.383 67.1622C232.971 66.635 232.48 66.0863 231.911 65.5161ZM246.474 60.1396C248.32 61.9872 249.291 63.5727 249.387 64.8961C249.472 66.2088 248.723 67.1573 247.141 67.7415C245.559 68.3256 243.829 68.2922 241.951 67.6411C240.064 66.9795 238.196 65.7248 236.35 63.8772C235.432 62.9586 234.732 62.1043 234.249 61.3142C233.769 60.5083 233.504 59.7824 233.453 59.1365C233.416 58.4854 233.578 57.9194 233.941 57.4386C234.318 56.9525 234.899 56.5648 235.683 56.2753C237.265 55.6911 239 55.7298 240.888 56.3915C242.766 57.0425 244.628 58.2919 246.474 60.1396ZM243.848 61.1089C243.279 60.5387 242.704 60.021 242.124 59.5558C241.544 59.0906 240.977 58.7147 240.422 58.4281C239.871 58.1258 239.336 57.9259 238.816 57.8284C238.297 57.731 237.807 57.7676 237.345 57.9382C236.883 58.1088 236.596 58.3591 236.485 58.6892C236.388 59.0141 236.426 59.3975 236.599 59.8394C236.776 60.2656 237.07 60.7423 237.482 61.2695C237.908 61.7916 238.406 62.3377 238.976 62.9079C239.545 63.478 240.113 63.9983 240.679 64.4687C241.259 64.9339 241.824 65.3177 242.376 65.62C242.931 65.9066 243.467 66.0986 243.987 66.196C244.52 66.2883 245.017 66.2491 245.479 66.0785C245.941 65.9079 246.221 65.6602 246.318 65.3353C246.415 65.0104 246.375 64.6349 246.199 64.2087C246.025 63.7668 245.733 63.2822 245.321 62.7549C244.909 62.2277 244.418 61.679 243.848 61.1089Z" fill="#3F65B3"/>
<path d="M158.596 99.8239C157.535 100.143 156.615 100.345 155.837 100.43C155.063 100.499 154.458 100.527 154.024 100.514L153.234 98.7463C153.851 98.7498 154.543 98.7038 155.311 98.6085C156.092 98.5079 156.889 98.3077 157.701 98.0079C158.667 97.6512 159.227 97.3001 159.38 96.9545C159.536 96.5932 159.435 96.233 159.076 95.8741C158.834 95.6312 158.546 95.4485 158.212 95.3259C157.879 95.2032 157.504 95.125 157.086 95.0911C156.669 95.0573 156.207 95.0546 155.698 95.0833C155.204 95.1067 154.663 95.1404 154.074 95.1843C153.524 95.2284 152.958 95.2567 152.376 95.2691C151.809 95.2764 151.244 95.239 150.683 95.1571C150.125 95.0595 149.589 94.8963 149.073 94.6677C148.557 94.439 148.077 94.103 147.634 93.6595C146.906 92.931 146.576 92.2074 146.643 91.4887C146.7 90.7594 147.25 90.1011 148.293 89.5139L146.52 87.7401L148.705 86.9336L150.414 88.6441C151.128 88.4381 151.804 88.2898 152.442 88.1989C153.069 88.0975 153.584 88.0374 153.987 88.0187L155.029 89.7805C154.507 89.8142 153.913 89.8817 153.247 89.9829C152.595 90.079 151.913 90.2588 151.198 90.5224C150.442 90.8016 149.981 91.1166 149.814 91.4673C149.636 91.8075 149.727 92.1571 150.085 92.516C150.296 92.7272 150.532 92.886 150.791 92.9925C151.041 93.0884 151.335 93.153 151.675 93.1865C152.005 93.2093 152.383 93.2141 152.811 93.2008C153.228 93.1769 153.692 93.1428 154.204 93.0985C154.947 93.0554 155.665 93.0359 156.359 93.0398C157.057 93.0281 157.721 93.0791 158.352 93.1929C158.973 93.2962 159.557 93.4779 160.105 93.7383C160.667 93.9934 161.18 94.3533 161.644 94.8178C162.34 95.5147 162.655 96.2225 162.587 96.9412C162.519 97.66 161.901 98.3362 160.732 98.97L162.711 100.95L160.526 101.756L158.596 99.8239ZM163.928 86.2347C164.498 85.692 164.999 85.0807 165.431 84.4007C165.878 83.7156 166.157 82.9981 166.27 82.2481L168.056 81.589L179.023 92.5642L176.482 93.5025L168.078 85.0929C167.922 85.4542 167.662 85.8464 167.299 86.2695C166.936 86.6927 166.557 87.0711 166.162 87.4048L163.928 86.2347ZM189.551 77.5557C189.931 77.9358 190.2 78.3494 190.36 78.7965C190.508 79.233 190.589 79.6875 190.601 80.16C190.616 80.6168 190.578 81.0863 190.485 81.5687C190.381 82.0406 190.272 82.5071 190.158 82.9684C190.092 83.2095 190.03 83.4926 189.972 83.8177C189.913 84.1428 189.869 84.4627 189.838 84.7775C189.808 85.0923 189.807 85.3889 189.836 85.6672C189.854 85.935 189.925 86.1402 190.048 86.2826L196.518 83.8942L198.132 85.5096L188.869 88.9293C188.771 88.85 188.663 88.7523 188.547 88.6362C188.421 88.5095 188.326 88.4144 188.262 88.3511C187.756 87.8443 187.397 87.341 187.185 86.8411C186.976 86.3255 186.862 85.8183 186.843 85.3195C186.824 84.8208 186.868 84.3276 186.975 83.84C187.082 83.3525 187.194 82.8702 187.312 82.3932C187.405 82.0263 187.49 81.6698 187.566 81.3238C187.642 80.9778 187.681 80.6526 187.683 80.3481C187.689 80.028 187.646 79.7259 187.554 79.4419C187.452 79.1474 187.274 78.8734 187.02 78.62C186.472 78.071 185.871 77.7579 185.219 77.6807C184.567 77.6035 183.94 77.6761 183.338 77.8984C182.946 78.0431 182.624 78.2197 182.372 78.4283C182.12 78.6368 181.92 78.8483 181.77 79.0626C181.634 79.2718 181.531 79.476 181.461 79.675C181.381 79.8635 181.329 80.0128 181.305 80.1229L178.7 79.242C178.866 78.6026 179.214 78.0114 179.745 77.4685C180.28 76.9099 181.002 76.4626 181.912 76.1266C183.466 75.5527 184.887 75.4112 186.175 75.702C187.465 75.977 188.591 76.5949 189.551 77.5557ZM207.483 78.0248C207.937 78.4788 208.254 78.9399 208.434 79.4081C208.614 79.8763 208.637 80.3305 208.502 80.7707C208.367 81.2108 208.063 81.6264 207.591 82.0174C207.133 82.4032 206.498 82.7461 205.686 83.0459C204.734 83.3974 203.843 83.5892 203.012 83.6212C202.181 83.6533 201.424 83.586 200.74 83.4194C200.056 83.2527 199.456 83.0263 198.94 82.7399C198.427 82.4378 198.012 82.1283 197.696 81.8116C197.379 81.4948 197.145 81.1838 196.993 80.8785C196.845 80.5575 196.765 80.2473 196.754 79.948C196.732 79.6382 196.759 79.3392 196.835 79.0509C196.911 78.7626 197.022 78.4903 197.168 78.2339C196.187 78.1339 195.34 77.948 194.627 77.6762C193.918 77.3887 193.279 76.9599 192.709 76.3898C192.298 75.978 192.012 75.5486 191.853 75.1015C191.697 74.6387 191.68 74.1898 191.801 73.7548C191.922 73.3198 192.186 72.9119 192.591 72.531C192.996 72.1501 193.549 71.8304 194.249 71.572C195.075 71.267 195.865 71.0982 196.619 71.0658C197.386 71.0281 198.094 71.0846 198.743 71.2353C199.406 71.3808 199.996 71.5967 200.512 71.8831C201.028 72.1695 201.45 72.4763 201.777 72.8036C202.357 73.3843 202.664 73.9792 202.698 74.5883C202.721 75.1869 202.591 75.7189 202.309 76.1845C203.472 76.2173 204.472 76.3831 205.307 76.6818C206.156 76.9753 206.882 77.423 207.483 78.0248ZM200.164 80.8571C200.322 81.0155 200.533 81.1689 200.796 81.3174C201.059 81.4659 201.363 81.5778 201.707 81.6533C202.05 81.7287 202.429 81.7624 202.843 81.7542C203.246 81.7355 203.678 81.6408 204.14 81.4703C204.56 81.3152 204.882 81.1385 205.106 80.9403C205.33 80.7421 205.471 80.5382 205.53 80.3286C205.578 80.1084 205.562 79.8905 205.48 79.6748C205.388 79.4486 205.247 79.2404 205.058 79.0504C204.762 78.7547 204.427 78.5245 204.051 78.3596C203.675 78.1948 203.261 78.0875 202.809 78.0376C202.36 77.9721 201.882 77.9536 201.374 77.9822C200.855 78.0003 200.31 78.0497 199.739 78.1304C199.478 78.5594 199.367 79.0049 199.407 79.4671C199.437 79.9187 199.689 80.382 200.164 80.8571ZM199.33 73.7503C199.193 73.6131 199.003 73.4808 198.761 73.3534C198.522 73.2103 198.243 73.1038 197.924 73.0337C197.619 72.9585 197.286 72.9225 196.925 72.9257C196.564 72.9289 196.194 73.0003 195.816 73.1398C195.438 73.2794 195.156 73.4484 194.971 73.6468C194.79 73.8295 194.689 74.0258 194.668 74.2356C194.637 74.4349 194.664 74.6346 194.749 74.8345C194.823 75.0239 194.94 75.1978 195.098 75.3561C195.499 75.7574 196.075 76.0651 196.825 76.2793C197.59 76.4884 198.547 76.5253 199.696 76.3901C199.972 75.956 200.104 75.5316 200.092 75.1168C200.069 74.6915 199.815 74.236 199.33 73.7503ZM216.978 71.029C218.824 72.8767 219.795 74.4622 219.891 75.7855C219.976 77.0983 219.227 78.0467 217.645 78.6309C216.063 79.215 214.333 79.1816 212.455 78.5305C210.568 77.8689 208.7 76.6143 206.854 74.7666C205.936 73.848 205.236 72.9937 204.753 72.2036C204.273 71.3977 204.008 70.6719 203.957 70.0259C203.92 69.3748 204.083 68.8088 204.445 68.328C204.822 67.842 205.403 67.4542 206.187 67.1647C207.769 66.5805 209.504 66.6193 211.392 67.2809C213.27 67.9319 215.132 69.1813 216.978 71.029ZM214.352 71.9983C213.783 71.4281 213.208 70.9105 212.628 70.4452C212.048 69.98 211.481 69.6041 210.926 69.3175C210.375 69.0152 209.84 68.8153 209.32 68.7179C208.801 68.6204 208.311 68.657 207.849 68.8276C207.387 68.9982 207.1 69.2485 206.989 69.5786C206.892 69.9035 206.93 70.2869 207.103 70.7288C207.28 71.155 207.574 71.6317 207.986 72.159C208.412 72.681 208.91 73.2272 209.48 73.7973C210.049 74.3674 210.617 74.8877 211.183 75.3581C211.763 75.8233 212.328 76.2071 212.88 76.5094C213.435 76.796 213.971 76.988 214.491 77.0855C215.024 77.1777 215.521 77.1386 215.983 76.968C216.445 76.7974 216.725 76.5496 216.822 76.2247C216.919 75.8998 216.879 75.5243 216.703 75.0981C216.529 74.6562 216.237 74.1716 215.825 73.6444C215.413 73.1171 214.922 72.5684 214.352 71.9983ZM225.518 72.5156C225.726 72.6847 225.872 72.8115 225.956 72.896C226.04 72.9804 226.125 73.0649 226.209 73.1494C226.863 73.804 227.399 74.5314 227.815 75.3316C228.245 76.1267 228.526 76.9262 228.659 77.73L226.252 78.0549C225.976 77.3185 225.599 76.634 225.12 76.0013C224.666 75.3741 224.217 74.8388 223.774 74.3953C223.647 74.2686 223.482 74.1128 223.278 73.928C223.088 73.7379 222.939 73.598 222.83 73.5081L225.518 72.5156ZM234.536 64.5468C236.382 66.3945 237.353 67.98 237.449 69.3033C237.534 70.6161 236.785 71.5646 235.203 72.1487C233.621 72.7329 231.891 72.6994 230.014 72.0484C228.126 71.3868 226.258 70.1321 224.412 68.2844C223.494 67.3659 222.794 66.5115 222.311 65.7214C221.832 64.9156 221.566 64.1897 221.515 63.5438C221.478 62.8927 221.641 62.3267 222.004 61.8458C222.38 61.3598 222.961 60.972 223.745 60.6825C225.327 60.0984 227.063 60.1371 228.95 60.7987C230.828 61.4498 232.69 62.6991 234.536 64.5468ZM231.911 65.5161C231.341 64.946 230.766 64.4283 230.186 63.9631C229.606 63.4979 229.039 63.122 228.484 62.8354C227.933 62.533 227.398 62.3331 226.879 62.2357C226.36 62.1383 225.869 62.1749 225.407 62.3455C224.945 62.516 224.658 62.7664 224.547 63.0964C224.45 63.4213 224.488 63.8047 224.661 64.2466C224.838 64.6728 225.132 65.1495 225.544 65.6768C225.97 66.1989 226.468 66.745 227.038 67.3151C227.607 67.8853 228.175 68.4055 228.741 68.8759C229.321 69.3411 229.887 69.7249 230.438 70.0273C230.993 70.3139 231.53 70.5059 232.049 70.6033C232.582 70.6956 233.079 70.6564 233.541 70.4858C234.003 70.3152 234.283 70.0675 234.38 69.7426C234.477 69.4177 234.437 69.0421 234.261 68.616C234.087 68.174 233.795 67.6895 233.383 67.1622C232.971 66.635 232.48 66.0863 231.911 65.5161ZM246.474 60.1396C248.32 61.9872 249.291 63.5727 249.387 64.8961C249.472 66.2088 248.723 67.1573 247.141 67.7415C245.559 68.3256 243.829 68.2922 241.951 67.6411C240.064 66.9795 238.196 65.7248 236.35 63.8772C235.432 62.9586 234.732 62.1043 234.249 61.3142C233.769 60.5083 233.504 59.7824 233.453 59.1365C233.416 58.4854 233.578 57.9194 233.941 57.4386C234.318 56.9525 234.899 56.5648 235.683 56.2753C237.265 55.6911 239 55.7298 240.888 56.3915C242.766 57.0425 244.628 58.2919 246.474 60.1396ZM243.848 61.1089C243.279 60.5387 242.704 60.021 242.124 59.5558C241.544 59.0906 240.977 58.7147 240.422 58.4281C239.871 58.1258 239.336 57.9259 238.816 57.8284C238.297 57.731 237.807 57.7676 237.345 57.9382C236.883 58.1088 236.596 58.3591 236.485 58.6892C236.388 59.0141 236.426 59.3975 236.599 59.8394C236.776 60.2656 237.07 60.7423 237.482 61.2695C237.908 61.7916 238.406 62.3377 238.976 62.9079C239.545 63.478 240.113 63.9983 240.679 64.4687C241.259 64.9339 241.824 65.3177 242.376 65.62C242.931 65.9066 243.467 66.0986 243.987 66.196C244.52 66.2883 245.017 66.2491 245.479 66.0785C245.941 65.9079 246.221 65.6602 246.318 65.3353C246.415 65.0104 246.375 64.6349 246.199 64.2087C246.025 63.7668 245.733 63.2822 245.321 62.7549C244.909 62.2277 244.418 61.679 243.848 61.1089Z" fill="url(#paint4_linear_978_40741)"/>
<g filter="url(#filter3_d_978_40741)">
<rect width="40.9916" height="36.9972" rx="10.2485" transform="matrix(0.938072 -0.34632 0.706808 0.707314 73.0618 83.9907)" fill="#D9D9D9"/>
<rect width="40.9916" height="36.9972" rx="10.2485" transform="matrix(0.938072 -0.34632 0.706808 0.707314 73.0618 83.9907)" fill="url(#paint5_linear_978_40741)"/>
</g>
<rect width="40.9916" height="36.9972" rx="10.2485" transform="matrix(0.938072 -0.34632 0.706808 0.707314 73.0617 79.9907)" fill="url(#paint6_linear_978_40741)"/>
<path d="M99.5433 83.3395L98.1761 81.974C97.8135 81.6119 97.6634 81.1918 97.7589 80.8061C97.8544 80.4204 98.1876 80.1008 98.6852 79.9175L102.438 78.5354C102.935 78.3521 103.557 78.3202 104.165 78.4466C104.773 78.5731 105.319 78.8476 105.681 79.2097L107.048 80.5752M99.8924 88.8179L103.386 88.2668C106.917 87.7099 110.042 86.5588 112.485 84.9151L114.903 83.2893" stroke="white" stroke-width="1.5767" stroke-linecap="round"/>
<path d="M97.4705 86.4039C97.0952 86.0291 96.933 85.5968 97.0196 85.2022C97.1061 84.8076 97.4343 84.483 97.9319 84.2997L109.19 80.1535C109.687 79.9702 110.314 79.9433 110.931 80.0788C111.548 80.2142 112.106 80.5008 112.481 80.8756L118.14 86.5282C118.516 86.903 118.678 87.3352 118.591 87.7298C118.505 88.1244 118.177 88.4491 117.679 88.6324L106.421 92.7786C105.924 92.9618 105.297 92.9887 104.68 92.8533C104.063 92.7179 103.505 92.4312 103.13 92.0564L97.4705 86.4039Z" stroke="white" stroke-width="1.5767" stroke-linejoin="round"/>
<path d="M107.406 86.0584C107.925 85.8675 108.028 85.3964 107.637 85.0062C107.246 84.6159 106.51 84.4543 105.991 84.6451C105.473 84.836 105.37 85.3071 105.76 85.6974C106.151 86.0876 106.888 86.2493 107.406 86.0584Z" fill="#407CE0"/>
<defs>
<filter id="filter0_d_978_40741" x="10.9182" y="18.4185" width="299.726" height="165.989" filterUnits="userSpaceOnUse" color-interpolation-filters="sRGB">
<feFlood flood-opacity="0" result="BackgroundImageFix"/>
<feColorMatrix in="SourceAlpha" type="matrix" values="0 0 0 0 0 0 0 0 0 0 0 0 0 0 0 0 0 0 127 0" result="hardAlpha"/>
<feOffset dy="10"/>
<feGaussianBlur stdDeviation="5"/>
<feComposite in2="hardAlpha" operator="out"/>
<feColorMatrix type="matrix" values="0 0 0 0 0.0625 0 0 0 0 0.0625 0 0 0 0 0.0625 0 0 0 0.12 0"/>
<feBlend mode="normal" in2="BackgroundImageFix" result="effect1_dropShadow_978_40741"/>
<feBlend mode="normal" in="SourceGraphic" in2="effect1_dropShadow_978_40741" result="shape"/>
</filter>
<filter id="filter1_i_978_40741" x="20.9182" y="7.41895" width="279.726" height="150.827" filterUnits="userSpaceOnUse" color-interpolation-filters="sRGB">
<feFlood flood-opacity="0" result="BackgroundImageFix"/>
<feBlend mode="normal" in="SourceGraphic" in2="BackgroundImageFix" result="shape"/>
<feColorMatrix in="SourceAlpha" type="matrix" values="0 0 0 0 0 0 0 0 0 0 0 0 0 0 0 0 0 0 127 0" result="hardAlpha"/>
<feOffset dy="4.83828"/>
<feGaussianBlur stdDeviation="8.46699"/>
<feComposite in2="hardAlpha" operator="arithmetic" k2="-1" k3="1"/>
<feColorMatrix type="matrix" values="0 0 0 0 0 0 0 0 0 0 0 0 0 0 0 0 0 0 0.04 0"/>
<feBlend mode="normal" in2="shape" result="effect1_innerShadow_978_40741"/>
</filter>
<filter id="filter2_i_978_40741" x="77.8813" y="91.519" width="54.964" height="40.0002" filterUnits="userSpaceOnUse" color-interpolation-filters="sRGB">
<feFlood flood-opacity="0" result="BackgroundImageFix"/>
<feBlend mode="normal" in="SourceGraphic" in2="BackgroundImageFix" result="shape"/>
<feColorMatrix in="SourceAlpha" type="matrix" values="0 0 0 0 0 0 0 0 0 0 0 0 0 0 0 0 0 0 127 0" result="hardAlpha"/>
<feOffset dy="5.08566"/>
<feGaussianBlur stdDeviation="8.89991"/>
<feComposite in2="hardAlpha" operator="arithmetic" k2="-1" k3="1"/>
<feColorMatrix type="matrix" values="0 0 0 0 0 0 0 0 0 0 0 0 0 0 0 0 0 0 0.12 0"/>
<feBlend mode="normal" in2="shape" result="effect1_innerShadow_978_40741"/>
</filter>
<filter id="filter3_d_978_40741" x="62.9027" y="72.5195" width="84.9212" height="68.8135" filterUnits="userSpaceOnUse" color-interpolation-filters="sRGB">
<feFlood flood-opacity="0" result="BackgroundImageFix"/>
<feColorMatrix in="SourceAlpha" type="matrix" values="0 0 0 0 0 0 0 0 0 0 0 0 0 0 0 0 0 0 127 0" result="hardAlpha"/>
<feOffset dy="18.9204"/>
<feGaussianBlur stdDeviation="7.48931"/>
<feComposite in2="hardAlpha" operator="out"/>
<feColorMatrix type="matrix" values="0 0 0 0 0.00784314 0 0 0 0 0.376471 0 0 0 0 0.968627 0 0 0 0.13 0"/>
<feBlend mode="normal" in2="BackgroundImageFix" result="effect1_dropShadow_978_40741"/>
<feBlend mode="normal" in="SourceGraphic" in2="effect1_dropShadow_978_40741" result="shape"/>
</filter>
<linearGradient id="paint0_linear_978_40741" x1="18.001" y1="113.129" x2="-0.364308" y2="3.045" gradientUnits="userSpaceOnUse">
<stop offset="0.029378" stop-color="#2C3045"/>
<stop offset="1" stop-color="#6371AA"/>
</linearGradient>
<linearGradient id="paint1_linear_978_40741" x1="93.1218" y1="-31.1679" x2="153.594" y2="195.027" gradientUnits="userSpaceOnUse">
<stop stop-color="#121830"/>
<stop offset="0.9999" stop-color="#25242B"/>
</linearGradient>
<linearGradient id="paint2_linear_978_40741" x1="-15.4597" y1="19.3527" x2="-15.4396" y2="19.6011" gradientUnits="userSpaceOnUse">
<stop stop-color="#90B4FF"/>
<stop offset="1" stop-color="#93B0F7"/>
</linearGradient>
<linearGradient id="paint3_linear_978_40741" x1="-15.4597" y1="19.3527" x2="-15.4396" y2="19.6011" gradientUnits="userSpaceOnUse">
<stop stop-color="#90B4FF"/>
<stop offset="1" stop-color="#93B0F7"/>
</linearGradient>
<linearGradient id="paint4_linear_978_40741" x1="183.483" y1="110.268" x2="216.087" y2="46.5588" gradientUnits="userSpaceOnUse">
<stop stop-color="#3F7BDD"/>
<stop offset="1" stop-color="#4282EC"/>
</linearGradient>
<linearGradient id="paint5_linear_978_40741" x1="-15.4597" y1="19.3527" x2="-15.4396" y2="19.6011" gradientUnits="userSpaceOnUse">
<stop stop-color="#90B4FF"/>
<stop offset="1" stop-color="#93B0F7"/>
</linearGradient>
<linearGradient id="paint6_linear_978_40741" x1="20.4958" y1="0" x2="20.4958" y2="36.9972" gradientUnits="userSpaceOnUse">
<stop stop-color="#3F7CDF"/>
<stop offset="1" stop-color="#4182EB"/>
</linearGradient>
</defs>
</svg>
