<svg width="301" height="245" viewBox="0 0 301 245" fill="none" xmlns="http://www.w3.org/2000/svg">
<g filter="url(#filter0_ddddd_424_18402)">
<rect width="155.961" height="180.973" rx="27.2967" transform="matrix(0.938111 -0.346335 0.706854 0.70736 17.0445 66.9873)" fill="url(#paint0_linear_424_18402)"/>
</g>
<g filter="url(#filter1_i_424_18402)">
<rect width="155.961" height="180.973" rx="27.3005" transform="matrix(0.938111 -0.346335 0.706854 0.70736 17.0444 54.9873)" fill="url(#paint1_linear_424_18402)"/>
</g>
<rect x="1.56858" y="0.344259" width="154.054" height="179.066" rx="26.3469" transform="matrix(0.938111 -0.346335 0.706854 0.70736 16.8981 55.6313)" stroke="white" stroke-width="1.90712"/>
<path d="M184.924 63.748C202.975 81.8113 198.189 103.623 174.237 112.465C150.285 121.308 116.235 113.834 98.1842 95.7711C80.1338 77.7078 84.9198 55.8965 108.872 47.0537C132.824 38.211 166.874 45.6847 184.924 63.748Z" stroke="#EBEEF5" stroke-width="11.5115"/>
<g filter="url(#filter2_ddddd_424_18402)">
<path d="M108.87 47.052C106.624 44.8044 107.204 42.0643 110.415 41.2188C118.67 39.0448 127.992 38.3218 137.632 39.1374C149.529 40.1438 161.389 43.4493 171.751 48.6461C182.112 53.843 190.522 60.7039 195.943 68.3828C201.363 76.0617 203.558 84.2227 202.255 91.8594C200.953 99.496 196.211 106.274 188.614 111.358C181.017 116.442 170.897 119.61 159.502 120.47C148.108 121.33 135.937 119.845 124.491 116.199C115.215 113.243 106.744 108.973 99.7482 103.759C97.0281 101.732 97.3907 98.9485 100.23 97.7147C103.07 96.4808 107.307 97.2704 110.106 99.2508C115.331 102.947 121.526 105.987 128.267 108.134C137.18 110.974 146.657 112.13 155.53 111.46C164.403 110.79 172.283 108.324 178.199 104.365C184.115 100.406 187.807 95.1281 188.821 89.1815C189.835 83.235 188.127 76.8801 183.906 70.9006C179.685 64.9212 173.136 59.5787 165.068 55.532C156.999 51.4852 147.764 48.9113 138.5 48.1276C131.495 47.5349 124.705 47.9857 118.605 49.4245C115.336 50.1954 111.116 49.2996 108.87 47.052Z" fill="url(#paint2_linear_424_18402)"/>
</g>
<path d="M108.87 46.052C106.624 43.8044 107.204 41.0643 110.415 40.2188C118.67 38.0448 127.992 37.3218 137.632 38.1374C149.529 39.1438 161.389 42.4493 171.751 47.6461C182.112 52.843 190.522 59.7039 195.943 67.3828C201.363 75.0617 203.558 83.2227 202.255 90.8594C200.953 98.496 196.211 105.274 188.614 110.358C181.017 115.442 170.897 118.61 159.502 119.47C148.108 120.33 135.937 118.845 124.491 115.199C115.215 112.243 106.744 107.973 99.7482 102.759C97.0281 100.732 97.3907 97.9485 100.23 96.7147C103.07 95.4808 107.307 96.2704 110.106 98.2508C115.331 101.947 121.526 104.987 128.267 107.134C137.18 109.974 146.657 111.13 155.53 110.46C164.403 109.79 172.283 107.324 178.199 103.365C184.115 99.4062 187.807 94.1281 188.821 88.1815C189.835 82.235 188.127 75.8801 183.906 69.9006C179.685 63.9212 173.136 58.5787 165.068 54.532C156.999 50.4852 147.764 47.9113 138.5 47.1276C131.495 46.5349 124.705 46.9857 118.605 48.4245C115.336 49.1954 111.116 48.2996 108.87 46.052Z" fill="url(#paint3_linear_424_18402)"/>
<path d="M108.87 46.052C106.624 43.8044 107.204 41.0643 110.415 40.2188C118.67 38.0448 127.992 37.3218 137.632 38.1374C149.529 39.1438 161.389 42.4493 171.751 47.6461C182.112 52.843 190.522 59.7039 195.943 67.3828C201.363 75.0617 203.558 83.2227 202.255 90.8594C200.953 98.496 196.211 105.274 188.614 110.358C181.017 115.442 170.897 118.61 159.502 119.47C148.108 120.33 135.937 118.845 124.491 115.199C115.215 112.243 106.744 107.973 99.7482 102.759C97.0281 100.732 97.3907 97.9485 100.23 96.7147C103.07 95.4808 107.307 96.2704 110.106 98.2508C115.331 101.947 121.526 104.987 128.267 107.134C137.18 109.974 146.657 111.13 155.53 110.46C164.403 109.79 172.283 107.324 178.199 103.365C184.115 99.4062 187.807 94.1281 188.821 88.1815C189.835 82.235 188.127 75.8801 183.906 69.9006C179.685 63.9212 173.136 58.5787 165.068 54.532C156.999 50.4852 147.764 47.9113 138.5 47.1276C131.495 46.5349 124.705 46.9857 118.605 48.4245C115.336 49.1954 111.116 48.2996 108.87 46.052Z" fill="url(#paint4_linear_424_18402)"/>
<path d="M108.87 44.052C106.624 41.8044 107.204 39.0643 110.415 38.2188C118.67 36.0448 127.992 35.3218 137.632 36.1374C149.529 37.1438 161.389 40.4493 171.751 45.6461C182.112 50.843 190.522 57.7039 195.943 65.3828C201.363 73.0617 203.558 81.2227 202.255 88.8594C200.953 96.496 196.211 103.274 188.614 108.358C181.017 113.442 170.897 116.61 159.502 117.47C148.108 118.33 135.937 116.845 124.491 113.199C115.215 110.243 106.744 105.973 99.7482 100.759C97.0281 98.7316 97.3907 95.9485 100.23 94.7147C103.07 93.4808 107.307 94.2704 110.106 96.2508C115.331 99.9473 121.526 102.987 128.267 105.134C137.18 107.974 146.657 109.13 155.53 108.46C164.403 107.79 172.283 105.324 178.199 101.365C184.115 97.4062 187.807 92.1281 188.821 86.1815C189.835 80.235 188.127 73.8801 183.906 67.9006C179.685 61.9212 173.136 56.5787 165.068 52.532C156.999 48.4852 147.764 45.9113 138.5 45.1276C131.495 44.5349 124.705 44.9857 118.605 46.4245C115.336 47.1954 111.116 46.2996 108.87 44.052Z" fill="url(#paint5_linear_424_18402)"/>
<path d="M108.87 44.052C106.624 41.8044 107.204 39.0643 110.415 38.2188C118.67 36.0448 127.992 35.3218 137.632 36.1374C149.529 37.1438 161.389 40.4493 171.751 45.6461C182.112 50.843 190.522 57.7039 195.943 65.3828C201.363 73.0617 203.558 81.2227 202.255 88.8594C200.953 96.496 196.211 103.274 188.614 108.358C181.017 113.442 170.897 116.61 159.502 117.47C148.108 118.33 135.937 116.845 124.491 113.199C115.215 110.243 106.744 105.973 99.7482 100.759C97.0281 98.7316 97.3907 95.9485 100.23 94.7147C103.07 93.4808 107.307 94.2704 110.106 96.2508C115.331 99.9473 121.526 102.987 128.267 105.134C137.18 107.974 146.657 109.13 155.53 108.46C164.403 107.79 172.283 105.324 178.199 101.365C184.115 97.4062 187.807 92.1281 188.821 86.1815C189.835 80.235 188.127 73.8801 183.906 67.9006C179.685 61.9212 173.136 56.5787 165.068 52.532C156.999 48.4852 147.764 45.9113 138.5 45.1276C131.495 44.5349 124.705 44.9857 118.605 46.4245C115.336 47.1954 111.116 46.2996 108.87 44.052Z" fill="url(#paint6_linear_424_18402)"/>
<path d="M108.87 43.052C106.624 40.8044 107.204 38.0643 110.415 37.2188C118.67 35.0448 127.992 34.3218 137.632 35.1374C149.529 36.1438 161.389 39.4493 171.751 44.6461C182.112 49.843 190.522 56.7039 195.942 64.3828C201.363 72.0617 203.558 80.2227 202.255 87.8594C200.953 95.496 196.211 102.274 188.614 107.358C181.017 112.442 170.897 115.61 159.502 116.47C148.108 117.33 135.937 115.845 124.491 112.199C115.215 109.243 106.744 104.973 99.7481 99.759C97.0281 97.7316 97.3907 94.9485 100.23 93.7147C103.07 92.4808 107.307 93.2704 110.106 95.2508C115.331 98.9473 121.526 101.987 128.267 104.134C137.18 106.974 146.657 108.13 155.53 107.46C164.403 106.79 172.283 104.324 178.199 100.365C184.115 96.4062 187.807 91.1281 188.821 85.1815C189.835 79.235 188.127 72.8801 183.906 66.9006C179.685 60.9212 173.136 55.5787 165.068 51.532C156.999 47.4852 147.764 44.9113 138.5 44.1276C131.495 43.5349 124.705 43.9857 118.605 45.4245C115.336 46.1954 111.116 45.2996 108.87 43.052Z" fill="url(#paint7_linear_424_18402)"/>
<path d="M108.87 43.052C106.624 40.8044 107.204 38.0643 110.415 37.2188C118.67 35.0448 127.992 34.3218 137.632 35.1374C149.529 36.1438 161.389 39.4493 171.751 44.6461C182.112 49.843 190.522 56.7039 195.942 64.3828C201.363 72.0617 203.558 80.2227 202.255 87.8594C200.953 95.496 196.211 102.274 188.614 107.358C181.017 112.442 170.897 115.61 159.502 116.47C148.108 117.33 135.937 115.845 124.491 112.199C115.215 109.243 106.744 104.973 99.7481 99.759C97.0281 97.7316 97.3907 94.9485 100.23 93.7147C103.07 92.4808 107.307 93.2704 110.106 95.2508C115.331 98.9473 121.526 101.987 128.267 104.134C137.18 106.974 146.657 108.13 155.53 107.46C164.403 106.79 172.283 104.324 178.199 100.365C184.115 96.4062 187.807 91.1281 188.821 85.1815C189.835 79.235 188.127 72.8801 183.906 66.9006C179.685 60.9212 173.136 55.5787 165.068 51.532C156.999 47.4852 147.764 44.9113 138.5 44.1276C131.495 43.5349 124.705 43.9857 118.605 45.4245C115.336 46.1954 111.116 45.2996 108.87 43.052Z" fill="url(#paint8_linear_424_18402)"/>
<mask id="path-9-inside-1_424_18402" fill="white">
<path d="M108.87 41.052C106.624 38.8044 107.204 36.0643 110.415 35.2188C118.67 33.0447 127.993 32.3217 137.634 33.1375C149.531 34.1442 161.391 37.45 171.753 42.6474C182.115 47.8447 190.524 54.7062 195.944 62.3856C201.364 70.0649 203.558 78.2263 202.255 85.863C200.951 93.4998 196.208 100.278 188.609 105.361C181.011 110.445 170.89 113.611 159.494 114.47C148.099 115.329 135.927 113.843 124.481 110.196C115.205 107.239 106.735 102.968 99.7398 97.7528C97.0203 95.7251 97.3837 92.9422 100.224 91.7088C103.064 90.4753 107.301 91.2654 110.1 93.2461C115.324 96.9433 121.519 99.9834 128.26 102.132C137.173 104.972 146.65 106.129 155.524 105.461C164.397 104.792 172.278 102.326 178.195 98.3675C184.112 94.409 187.806 89.131 188.821 83.1844C189.836 77.2377 188.128 70.8826 183.907 64.9028C179.687 58.923 173.138 53.58 165.07 49.5329C157.001 45.4858 147.765 42.9116 138.502 42.1277C131.496 41.5349 124.705 41.9856 118.605 43.4245C115.336 44.1954 111.116 43.2996 108.87 41.052Z"/>
</mask>
<path d="M108.87 41.052C106.624 38.8044 107.204 36.0643 110.415 35.2188C118.67 33.0447 127.993 32.3217 137.634 33.1375C149.531 34.1442 161.391 37.45 171.753 42.6474C182.115 47.8447 190.524 54.7062 195.944 62.3856C201.364 70.0649 203.558 78.2263 202.255 85.863C200.951 93.4998 196.208 100.278 188.609 105.361C181.011 110.445 170.89 113.611 159.494 114.47C148.099 115.329 135.927 113.843 124.481 110.196C115.205 107.239 106.735 102.968 99.7398 97.7528C97.0203 95.7251 97.3837 92.9422 100.224 91.7088C103.064 90.4753 107.301 91.2654 110.1 93.2461C115.324 96.9433 121.519 99.9834 128.26 102.132C137.173 104.972 146.65 106.129 155.524 105.461C164.397 104.792 172.278 102.326 178.195 98.3675C184.112 94.409 187.806 89.131 188.821 83.1844C189.836 77.2377 188.128 70.8826 183.907 64.9028C179.687 58.923 173.138 53.58 165.07 49.5329C157.001 45.4858 147.765 42.9116 138.502 42.1277C131.496 41.5349 124.705 41.9856 118.605 43.4245C115.336 44.1954 111.116 43.2996 108.87 41.052Z" fill="url(#paint9_linear_424_18402)" stroke="white" stroke-opacity="0.54" stroke-width="1.21174" mask="url(#path-9-inside-1_424_18402)"/>
<path d="M127.893 88.7748C127.09 89.0167 126.393 89.1697 125.804 89.2339C125.218 89.2862 124.76 89.3075 124.431 89.2977L123.834 87.9589C124.301 87.9615 124.825 87.9267 125.406 87.8545C125.997 87.7784 126.601 87.6268 127.215 87.3998C127.947 87.1297 128.371 86.8639 128.487 86.6022C128.605 86.3287 128.529 86.056 128.257 85.7842C128.073 85.6003 127.855 85.462 127.603 85.3691C127.35 85.2763 127.066 85.217 126.75 85.1914C126.434 85.1657 126.084 85.1638 125.699 85.1854C125.325 85.2032 124.915 85.2286 124.469 85.2619C124.053 85.2953 123.624 85.3167 123.184 85.3261C122.754 85.3316 122.327 85.3033 121.902 85.2413C121.48 85.1674 121.073 85.0438 120.682 84.8707C120.292 84.6976 119.929 84.4432 119.593 84.1074C119.042 83.5558 118.792 83.0079 118.843 82.4637C118.886 81.9115 119.303 81.4131 120.092 80.9685L118.75 79.6255L120.404 79.0149L121.698 80.3099C122.239 80.154 122.751 80.0417 123.233 79.9729C123.708 79.8961 124.098 79.8506 124.403 79.8365L125.192 81.1704C124.797 81.196 124.347 81.247 123.843 81.3237C123.35 81.3964 122.833 81.5325 122.292 81.7322C121.719 81.9435 121.37 82.182 121.244 82.4476C121.109 82.7051 121.178 82.9698 121.449 83.2416C121.609 83.4015 121.787 83.5217 121.984 83.6023C122.173 83.675 122.396 83.7239 122.653 83.7492C122.903 83.7665 123.189 83.7702 123.513 83.7601C123.829 83.742 124.18 83.7162 124.568 83.6826C125.13 83.65 125.674 83.6353 126.2 83.6382C126.728 83.6293 127.231 83.668 127.709 83.7541C128.179 83.8323 128.621 83.97 129.036 84.1671C129.461 84.3603 129.849 84.6327 130.201 84.9845C130.728 85.5121 130.966 86.048 130.915 86.5922C130.864 87.1364 130.396 87.6484 129.511 88.1283L131.009 89.6272L129.355 90.2378L127.893 88.7748ZM138.58 76.6218C138.867 76.9096 139.072 77.2227 139.192 77.5612C139.305 77.8917 139.366 78.2359 139.375 78.5936C139.387 78.9395 139.357 79.295 139.287 79.6602C139.208 80.0175 139.126 80.3707 139.04 80.72C138.99 80.9025 138.943 81.1169 138.898 81.363C138.854 81.6092 138.821 81.8514 138.797 82.0898C138.774 82.3281 138.774 82.5527 138.796 82.7634C138.81 82.9662 138.863 83.1215 138.957 83.2293L143.855 81.421L145.077 82.6441L138.064 85.2333C137.989 85.1733 137.908 85.0993 137.82 85.0114C137.724 84.9154 137.652 84.8435 137.604 84.7955C137.221 84.4118 136.949 84.0307 136.788 83.6522C136.631 83.2618 136.544 82.8778 136.53 82.5002C136.515 82.1225 136.549 81.7491 136.63 81.3799C136.711 81.0108 136.796 80.6456 136.885 80.2845C136.955 80.0067 137.019 79.7368 137.077 79.4748C137.134 79.2128 137.164 78.9666 137.166 78.7361C137.17 78.4936 137.138 78.2649 137.068 78.0499C136.99 77.8269 136.856 77.6195 136.664 77.4276C136.249 77.0119 135.794 76.7748 135.3 76.7164C134.806 76.6579 134.331 76.7129 133.876 76.8812C133.579 76.9908 133.335 77.1245 133.144 77.2824C132.954 77.4403 132.802 77.6004 132.688 77.7627C132.585 77.9211 132.508 78.0756 132.455 78.2264C132.394 78.3691 132.355 78.4822 132.337 78.5655L130.364 77.8985C130.49 77.4144 130.754 76.9668 131.156 76.5557C131.56 76.1327 132.107 75.7941 132.796 75.5396C133.973 75.1052 135.049 74.998 136.024 75.2182C137.001 75.4264 137.853 75.8943 138.58 76.6218ZM147.619 73.2848C147.906 73.5726 148.11 73.8858 148.231 74.2243C148.343 74.5548 148.404 74.8989 148.413 75.2567C148.425 75.6025 148.396 75.9581 148.325 76.3233C148.247 76.6806 148.165 77.0338 148.078 77.3831C148.028 77.5656 147.981 77.78 147.937 78.0261C147.893 78.2723 147.859 78.5145 147.836 78.7529C147.813 78.9912 147.812 79.2157 147.834 79.4265C147.848 79.6293 147.902 79.7846 147.995 79.8924L152.893 78.0841L154.116 79.3072L147.102 81.8964C147.028 81.8364 146.947 81.7624 146.859 81.6744C146.763 81.5785 146.691 81.5066 146.643 81.4586C146.26 81.0749 145.988 80.6938 145.827 80.3153C145.669 79.9249 145.583 79.5409 145.568 79.1632C145.554 78.7856 145.587 78.4122 145.668 78.043C145.749 77.6739 145.834 77.3087 145.923 76.9475C145.994 76.6697 146.058 76.3998 146.116 76.1379C146.173 75.8759 146.203 75.6296 146.205 75.3991C146.209 75.1567 146.176 74.928 146.107 74.713C146.029 74.49 145.894 74.2826 145.703 74.0907C145.287 73.675 144.833 73.4379 144.339 73.3795C143.845 73.321 143.37 73.3759 142.914 73.5443C142.617 73.6538 142.374 73.7876 142.183 73.9455C141.993 74.1034 141.841 74.2635 141.727 74.4258C141.624 74.5842 141.546 74.7387 141.494 74.8895C141.433 75.0322 141.394 75.1452 141.375 75.2286L139.403 74.5616C139.528 74.0774 139.792 73.6298 140.194 73.2188C140.599 72.7958 141.146 72.4571 141.835 72.2027C143.012 71.7683 144.087 71.6611 145.062 71.8813C146.039 72.0895 146.892 72.5574 147.619 73.2848ZM157.751 76.8815C158.031 77.1613 158.132 77.4361 158.053 77.7059C157.985 77.9718 157.776 78.1694 157.426 78.2985C157.065 78.4316 156.675 78.4552 156.256 78.3694C155.836 78.2835 155.487 78.1007 155.207 77.8209C154.927 77.5411 154.822 77.2683 154.89 77.0024C154.95 76.7285 155.16 76.525 155.521 76.3919C155.87 76.2627 156.259 76.2451 156.687 76.3389C157.117 76.4208 157.472 76.6017 157.751 76.8815ZM154.232 70.2523C154.663 69.8415 155.042 69.3786 155.37 68.8638C155.708 68.3451 155.919 67.8018 156.005 67.2339L157.357 66.7349L165.661 75.0449L163.737 75.7553L157.374 69.3879C157.255 69.6614 157.059 69.9584 156.784 70.2788C156.509 70.5991 156.222 70.8856 155.923 71.1383L154.232 70.2523Z" fill="#E9C058"/>
<path d="M162.111 145.307C163.281 144.875 164.32 144.721 165.229 144.846C166.137 144.97 166.901 145.342 167.518 145.96C167.872 146.314 168.091 146.647 168.176 146.961C168.255 147.269 168.217 147.558 168.062 147.828C167.902 148.093 167.631 148.345 167.249 148.584C166.869 148.815 166.397 149.035 165.832 149.243L164.71 149.657L167.12 152.069L166.309 152.369L160.193 146.249C160.42 146.083 160.712 145.918 161.07 145.753C161.43 145.579 161.777 145.43 162.111 145.307ZM162.678 145.825C162.375 145.936 162.126 146.041 161.929 146.138C161.734 146.226 161.567 146.305 161.428 146.372L164.18 149.126L165.206 148.747C165.644 148.586 166.02 148.422 166.334 148.257C166.65 148.083 166.88 147.899 167.025 147.706C167.172 147.504 167.22 147.285 167.169 147.049C167.119 146.813 166.949 146.551 166.662 146.263C166.386 145.987 166.082 145.787 165.751 145.663C165.428 145.536 165.092 145.467 164.744 145.456C164.397 145.436 164.048 145.463 163.695 145.535C163.343 145.608 163.004 145.704 162.678 145.825ZM170.686 144.26C170.94 144.166 171.194 144.093 171.447 144.041C171.708 143.986 171.897 143.957 172.014 143.955L172.363 144.516C172.275 144.515 172.12 144.54 171.897 144.589C171.676 144.63 171.406 144.709 171.088 144.826C170.754 144.95 170.501 145.068 170.33 145.18C170.167 145.289 170.066 145.368 170.026 145.415L174.101 149.492L173.325 149.779L168.891 145.342C169.024 145.202 169.232 145.035 169.517 144.84C169.795 144.639 170.185 144.445 170.686 144.26ZM180.732 143.865C181.098 144.231 181.359 144.591 181.516 144.944C181.68 145.294 181.74 145.621 181.695 145.925C181.659 146.226 181.529 146.499 181.307 146.746C181.079 146.986 180.758 147.183 180.344 147.335C179.93 147.488 179.495 147.571 179.039 147.583C178.577 147.589 178.114 147.534 177.649 147.418C177.193 147.3 176.743 147.117 176.3 146.869C175.865 146.619 175.464 146.311 175.099 145.945C174.733 145.579 174.468 145.221 174.303 144.871C174.147 144.519 174.087 144.192 174.124 143.89C174.162 143.58 174.296 143.305 174.524 143.065C174.746 142.819 175.064 142.619 175.478 142.466C175.892 142.314 176.33 142.234 176.792 142.228C177.248 142.215 177.707 142.272 178.17 142.397C178.634 142.513 179.084 142.696 179.519 142.946C179.962 143.193 180.367 143.499 180.732 143.865ZM179.909 144.169C179.327 143.587 178.686 143.192 177.987 142.982C177.281 142.766 176.622 142.771 176.009 142.997C175.396 143.224 175.085 143.577 175.074 144.057C175.058 144.531 175.341 145.059 175.922 145.641C176.504 146.223 177.144 146.619 177.844 146.829C178.544 147.039 179.2 147.031 179.813 146.804C180.426 146.578 180.74 146.228 180.757 145.754C180.773 145.28 180.49 144.751 179.909 144.169ZM180.025 137.745C180.359 137.621 180.651 137.543 180.899 137.508C181.15 137.465 181.322 137.446 181.416 137.453L181.765 138.014C181.647 138.017 181.486 138.035 181.281 138.07C181.078 138.095 180.845 138.157 180.582 138.254C180.033 138.456 179.744 138.707 179.715 139.005C179.695 139.3 179.915 139.679 180.377 140.141L180.862 140.627L183.345 139.71L183.839 140.205L181.357 141.122L185.512 145.28L184.736 145.566L179.583 140.409C178.977 139.803 178.705 139.279 178.765 138.838C178.833 138.394 179.253 138.03 180.025 137.745ZM190 143.623L189.224 143.909L184.574 139.256L185.35 138.97L190 143.623ZM184.126 137.5C184.264 137.638 184.319 137.769 184.292 137.894C184.258 138.013 184.162 138.102 184.003 138.161C183.844 138.22 183.669 138.231 183.48 138.194C183.285 138.151 183.118 138.061 182.98 137.923C182.842 137.785 182.79 137.656 182.824 137.537C182.851 137.412 182.944 137.32 183.104 137.261C183.263 137.202 183.44 137.194 183.635 137.237C183.825 137.274 183.988 137.362 184.126 137.5ZM188.134 137.942L190.593 137.034L191.088 137.529L188.629 138.437L191.102 140.912C191.366 141.176 191.61 141.381 191.833 141.529C192.059 141.667 192.272 141.761 192.474 141.81C192.675 141.859 192.87 141.869 193.059 141.84C193.249 141.811 193.439 141.762 193.63 141.691C193.956 141.571 194.191 141.447 194.336 141.319C194.475 141.186 194.577 141.075 194.64 140.986L195.317 141.401C195.259 141.496 195.127 141.631 194.921 141.806C194.708 141.975 194.439 142.119 194.112 142.24C193.73 142.381 193.372 142.464 193.038 142.489C192.705 142.505 192.384 142.467 192.075 142.376C191.768 142.276 191.469 142.123 191.177 141.919C190.886 141.714 190.584 141.456 190.273 141.144L185.992 136.86L186.66 136.466L188.134 137.942ZM199.327 139.033C199.441 139.049 199.573 139.062 199.725 139.071C199.884 139.078 200.056 139.076 200.241 139.065C200.427 139.055 200.618 139.033 200.815 139.002C201.006 138.964 201.193 138.911 201.376 138.844C201.758 138.703 202.028 138.537 202.187 138.347C202.348 138.148 202.424 137.935 202.415 137.709C202.4 137.476 202.315 137.232 202.158 136.978C201.996 136.717 201.786 136.458 201.528 136.2C200.917 135.588 200.246 135.195 199.517 135.021C198.781 134.841 198.079 134.874 197.411 135.121C197.029 135.262 196.733 135.391 196.525 135.51C196.318 135.619 196.17 135.71 196.08 135.784L199.327 139.033ZM201.827 141.535L201.051 141.822L194.9 135.666C195.071 135.521 195.308 135.355 195.612 135.169C195.916 134.983 196.343 134.788 196.892 134.585C197.346 134.418 197.812 134.324 198.292 134.303C198.774 134.272 199.251 134.314 199.724 134.427C200.204 134.537 200.666 134.716 201.109 134.963C201.56 135.207 201.974 135.518 202.352 135.896C202.706 136.25 202.969 136.601 203.141 136.948C203.316 137.286 203.392 137.607 203.369 137.911C203.34 138.209 203.21 138.483 202.98 138.732C202.758 138.978 202.424 139.184 201.978 139.348C201.572 139.498 201.176 139.587 200.79 139.614C200.406 139.633 200.107 139.628 199.894 139.6L201.827 141.535ZM203.647 135.393C203.239 134.985 202.961 134.603 202.813 134.248C202.666 133.883 202.614 133.553 202.657 133.258C202.708 132.96 202.844 132.704 203.067 132.491C203.291 132.268 203.574 132.094 203.916 131.968C204.672 131.688 205.459 131.653 206.276 131.86C207.102 132.065 207.901 132.554 208.674 133.328C208.722 133.376 208.766 133.425 208.806 133.476C208.854 133.524 208.895 133.571 208.929 133.616L204.597 135.215C205.19 135.777 205.815 136.145 206.471 136.322C207.126 136.499 207.836 136.446 208.6 136.164C209.022 136.009 209.326 135.855 209.513 135.704C209.7 135.553 209.828 135.436 209.897 135.353L210.544 135.804C210.481 135.893 210.327 136.028 210.082 136.209C209.846 136.386 209.521 136.551 209.107 136.704C208.566 136.904 208.044 137.014 207.543 137.035C207.041 137.056 206.559 137.004 206.096 136.879C205.633 136.754 205.2 136.566 204.794 136.313C204.383 136.054 204.001 135.747 203.647 135.393ZM207.659 133.407C207.157 132.927 206.628 132.605 206.072 132.441C205.516 132.276 204.975 132.291 204.45 132.485C204.171 132.588 203.963 132.722 203.824 132.889C203.693 133.052 203.616 133.237 203.593 133.442C203.571 133.639 203.606 133.848 203.696 134.069C203.795 134.288 203.938 134.502 204.126 134.712L207.659 133.407ZM210.247 129.655C210.501 129.561 210.755 129.488 211.008 129.436C211.268 129.381 211.458 129.352 211.575 129.349L211.924 129.911C211.836 129.91 211.681 129.935 211.458 129.984C211.237 130.025 210.967 130.104 210.649 130.221C210.315 130.345 210.062 130.462 209.891 130.575C209.728 130.684 209.627 130.763 209.587 130.81L213.661 134.887L212.885 135.174L208.452 130.737C208.585 130.597 208.793 130.43 209.077 130.235C209.356 130.033 209.745 129.84 210.247 129.655ZM224.827 130.568C224.657 130.713 224.419 130.879 224.115 131.065C223.811 131.251 223.384 131.446 222.835 131.648C222.382 131.816 221.914 131.914 221.432 131.944C220.952 131.966 220.472 131.921 219.991 131.811C219.519 131.698 219.057 131.519 218.606 131.275C218.163 131.028 217.753 130.715 217.375 130.337C217.022 129.983 216.757 129.637 216.583 129.299C216.411 128.952 216.336 128.627 216.359 128.323C216.381 128.019 216.504 127.743 216.726 127.497C216.957 127.248 217.294 127.041 217.74 126.876C218.146 126.727 218.541 126.642 218.925 126.624C219.312 126.596 219.611 126.596 219.825 126.624L217.324 124.122L217.992 123.728L224.827 130.568ZM220.391 127.191C220.278 127.176 220.141 127.164 219.982 127.158C219.83 127.148 219.662 127.148 219.477 127.159C219.292 127.17 219.103 127.194 218.912 127.232C218.715 127.264 218.525 127.313 218.342 127.381C217.96 127.522 217.689 127.692 217.528 127.891C217.376 128.087 217.307 128.301 217.321 128.534C217.33 128.761 217.416 129.004 217.578 129.265C217.734 129.519 217.941 129.775 218.199 130.033C218.81 130.645 219.484 131.042 220.22 131.222C220.949 131.396 221.648 131.36 222.317 131.113C222.698 130.972 222.993 130.847 223.2 130.737C223.408 130.619 223.557 130.523 223.647 130.449L220.391 127.191ZM228.547 128.813C228.849 128.701 229.106 128.598 229.317 128.504C229.53 128.401 229.704 128.308 229.839 128.225L228.202 126.587C228.084 126.589 227.915 126.611 227.694 126.651C227.467 126.686 227.187 126.765 226.853 126.888C226.662 126.958 226.475 127.044 226.292 127.144C226.103 127.239 225.957 127.354 225.854 127.491C225.745 127.621 225.694 127.767 225.703 127.928C225.711 128.089 225.815 128.269 226.012 128.467C226.186 128.641 226.369 128.775 226.561 128.868C226.76 128.959 226.963 129.015 227.171 129.037C227.386 129.057 227.607 129.049 227.834 129.014C228.063 128.971 228.3 128.904 228.547 128.813ZM224.141 124.501C224.546 124.351 224.934 124.27 225.302 124.257C225.672 124.235 226.023 124.27 226.354 124.361C226.679 124.447 226.986 124.58 227.276 124.76C227.565 124.941 227.833 125.154 228.078 125.4L231.01 128.334C230.949 128.382 230.854 128.445 230.727 128.525C230.594 128.599 230.44 128.685 230.265 128.782C230.09 128.88 229.885 128.98 229.65 129.083C229.43 129.189 229.192 129.289 228.937 129.383C228.611 129.503 228.282 129.588 227.949 129.637C227.625 129.683 227.302 129.687 226.981 129.649C226.663 129.603 226.354 129.512 226.054 129.376C225.757 129.231 225.477 129.026 225.213 128.762C224.961 128.51 224.809 128.271 224.756 128.044C224.704 127.817 224.736 127.604 224.853 127.404C224.963 127.199 225.151 127.011 225.415 126.839C225.68 126.668 225.999 126.513 226.373 126.375C226.484 126.334 226.606 126.297 226.737 126.265C226.87 126.224 227.002 126.192 227.131 126.169C227.262 126.137 227.377 126.115 227.474 126.104C227.574 126.084 227.646 126.074 227.689 126.074L227.402 125.786C227.24 125.624 227.068 125.474 226.886 125.335C226.698 125.191 226.489 125.08 226.258 125.001C226.028 124.913 225.778 124.87 225.507 124.871C225.238 124.864 224.945 124.919 224.626 125.036C224.173 125.204 223.859 125.353 223.684 125.483C223.509 125.613 223.385 125.712 223.311 125.78L222.691 125.307C222.779 125.209 222.941 125.088 223.177 124.943C223.422 124.795 223.743 124.648 224.141 124.501ZM234.879 127.19C234.251 126.92 233.615 126.633 232.973 126.329C232.338 126.021 231.713 125.705 231.096 125.383C230.482 125.051 229.886 124.717 229.309 124.379C228.727 124.036 228.177 123.693 227.66 123.35L228.483 123.046C228.859 123.301 229.282 123.572 229.753 123.858C230.218 124.138 230.711 124.425 231.232 124.717C231.76 125.006 232.314 125.299 232.893 125.594C233.471 125.89 234.06 126.174 234.658 126.446C234.462 126.009 234.266 125.601 234.072 125.221C233.877 124.841 233.674 124.468 233.461 124.103C233.251 123.729 233.027 123.352 232.788 122.972C232.558 122.589 232.305 122.177 232.028 121.737L232.804 121.451C233.419 122.414 233.974 123.368 234.469 124.31C234.964 125.253 235.362 126.136 235.664 126.961C235.783 127.287 235.858 127.575 235.891 127.826C235.93 128.083 235.913 128.311 235.84 128.51C235.774 128.707 235.641 128.884 235.438 129.041C235.243 129.195 234.971 129.336 234.621 129.466C234.422 129.539 234.221 129.589 234.018 129.614C233.823 129.637 233.696 129.647 233.638 129.643L233.308 129.1C233.358 129.106 233.469 129.098 233.642 129.075C233.83 129.055 234.003 129.016 234.162 128.957C234.385 128.875 234.566 128.784 234.705 128.683C234.852 128.579 234.952 128.456 235.005 128.313C235.065 128.176 235.081 128.018 235.054 127.839C235.036 127.657 234.977 127.441 234.879 127.19Z" fill="black"/>
<defs>
<filter id="filter0_ddddd_424_18402" x="0.545373" y="17.3693" width="281.47" height="208.295" filterUnits="userSpaceOnUse" color-interpolation-filters="sRGB">
<feFlood flood-opacity="0" result="BackgroundImageFix"/>
<feColorMatrix in="SourceAlpha" type="matrix" values="0 0 0 0 0 0 0 0 0 0 0 0 0 0 0 0 0 0 127 0" result="hardAlpha"/>
<feOffset/>
<feColorMatrix type="matrix" values="0 0 0 0 0 0 0 0 0 0 0 0 0 0 0 0 0 0 0.05 0"/>
<feBlend mode="normal" in2="BackgroundImageFix" result="effect1_dropShadow_424_18402"/>
<feColorMatrix in="SourceAlpha" type="matrix" values="0 0 0 0 0 0 0 0 0 0 0 0 0 0 0 0 0 0 127 0" result="hardAlpha"/>
<feOffset dx="-0.715527" dy="1.43105"/>
<feGaussianBlur stdDeviation="2.14658"/>
<feColorMatrix type="matrix" values="0 0 0 0 0 0 0 0 0 0 0 0 0 0 0 0 0 0 0.05 0"/>
<feBlend mode="normal" in2="effect1_dropShadow_424_18402" result="effect2_dropShadow_424_18402"/>
<feColorMatrix in="SourceAlpha" type="matrix" values="0 0 0 0 0 0 0 0 0 0 0 0 0 0 0 0 0 0 127 0" result="hardAlpha"/>
<feOffset dx="-4.29316" dy="6.43974"/>
<feGaussianBlur stdDeviation="3.9354"/>
<feColorMatrix type="matrix" values="0 0 0 0 0 0 0 0 0 0 0 0 0 0 0 0 0 0 0.04 0"/>
<feBlend mode="normal" in2="effect2_dropShadow_424_18402" result="effect3_dropShadow_424_18402"/>
<feColorMatrix in="SourceAlpha" type="matrix" values="0 0 0 0 0 0 0 0 0 0 0 0 0 0 0 0 0 0 127 0" result="hardAlpha"/>
<feOffset dx="-9.30185" dy="14.3105"/>
<feGaussianBlur stdDeviation="5.36645"/>
<feColorMatrix type="matrix" values="0 0 0 0 0 0 0 0 0 0 0 0 0 0 0 0 0 0 0.03 0"/>
<feBlend mode="normal" in2="effect3_dropShadow_424_18402" result="effect4_dropShadow_424_18402"/>
<feColorMatrix in="SourceAlpha" type="matrix" values="0 0 0 0 0 0 0 0 0 0 0 0 0 0 0 0 0 0 127 0" result="hardAlpha"/>
<feOffset dx="-17.1726" dy="25.759"/>
<feGaussianBlur stdDeviation="6.08198"/>
<feColorMatrix type="matrix" values="0 0 0 0 0 0 0 0 0 0 0 0 0 0 0 0 0 0 0.01 0"/>
<feBlend mode="normal" in2="effect4_dropShadow_424_18402" result="effect5_dropShadow_424_18402"/>
<feBlend mode="normal" in="SourceGraphic" in2="effect5_dropShadow_424_18402" result="shape"/>
</filter>
<filter id="filter1_i_424_18402" x="29.8837" y="8.23242" width="248.552" height="172.593" filterUnits="userSpaceOnUse" color-interpolation-filters="sRGB">
<feFlood flood-opacity="0" result="BackgroundImageFix"/>
<feBlend mode="normal" in="SourceGraphic" in2="BackgroundImageFix" result="shape"/>
<feColorMatrix in="SourceAlpha" type="matrix" values="0 0 0 0 0 0 0 0 0 0 0 0 0 0 0 0 0 0 127 0" result="hardAlpha"/>
<feOffset dy="5.08566"/>
<feGaussianBlur stdDeviation="8.89991"/>
<feComposite in2="hardAlpha" operator="arithmetic" k2="-1" k3="1"/>
<feColorMatrix type="matrix" values="0 0 0 0 0 0 0 0 0 0 0 0 0 0 0 0 0 0 0.04 0"/>
<feBlend mode="normal" in2="shape" result="effect1_innerShadow_424_18402"/>
</filter>
<filter id="filter2_ddddd_424_18402" x="82.1254" y="31.7164" width="186.717" height="212.762" filterUnits="userSpaceOnUse" color-interpolation-filters="sRGB">
<feFlood flood-opacity="0" result="BackgroundImageFix"/>
<feColorMatrix in="SourceAlpha" type="matrix" values="0 0 0 0 0 0 0 0 0 0 0 0 0 0 0 0 0 0 127 0" result="hardAlpha"/>
<feOffset/>
<feColorMatrix type="matrix" values="0 0 0 0 0.913725 0 0 0 0 0.752941 0 0 0 0 0.345098 0 0 0 0.2 0"/>
<feBlend mode="normal" in2="BackgroundImageFix" result="effect1_dropShadow_424_18402"/>
<feColorMatrix in="SourceAlpha" type="matrix" values="0 0 0 0 0 0 0 0 0 0 0 0 0 0 0 0 0 0 127 0" result="hardAlpha"/>
<feOffset dx="1.5767" dy="5.51844"/>
<feGaussianBlur stdDeviation="6.30679"/>
<feColorMatrix type="matrix" values="0 0 0 0 0.913725 0 0 0 0 0.752941 0 0 0 0 0.345098 0 0 0 0.2 0"/>
<feBlend mode="normal" in2="effect1_dropShadow_424_18402" result="effect2_dropShadow_424_18402"/>
<feColorMatrix in="SourceAlpha" type="matrix" values="0 0 0 0 0 0 0 0 0 0 0 0 0 0 0 0 0 0 127 0" result="hardAlpha"/>
<feOffset dx="7.09513" dy="22.0737"/>
<feGaussianBlur stdDeviation="11.431"/>
<feColorMatrix type="matrix" values="0 0 0 0 0.913725 0 0 0 0 0.752941 0 0 0 0 0.345098 0 0 0 0.17 0"/>
<feBlend mode="normal" in2="effect2_dropShadow_424_18402" result="effect3_dropShadow_424_18402"/>
<feColorMatrix in="SourceAlpha" type="matrix" values="0 0 0 0 0 0 0 0 0 0 0 0 0 0 0 0 0 0 127 0" result="hardAlpha"/>
<feOffset dx="16.5553" dy="48.8776"/>
<feGaussianBlur stdDeviation="15.3728"/>
<feColorMatrix type="matrix" values="0 0 0 0 0.913725 0 0 0 0 0.752941 0 0 0 0 0.345098 0 0 0 0.1 0"/>
<feBlend mode="normal" in2="effect3_dropShadow_424_18402" result="effect4_dropShadow_424_18402"/>
<feColorMatrix in="SourceAlpha" type="matrix" values="0 0 0 0 0 0 0 0 0 0 0 0 0 0 0 0 0 0 127 0" result="hardAlpha"/>
<feOffset dx="29.1689" dy="86.7183"/>
<feGaussianBlur stdDeviation="18.5262"/>
<feColorMatrix type="matrix" values="0 0 0 0 0.913725 0 0 0 0 0.752941 0 0 0 0 0.345098 0 0 0 0.03 0"/>
<feBlend mode="normal" in2="effect4_dropShadow_424_18402" result="effect5_dropShadow_424_18402"/>
<feBlend mode="normal" in="SourceGraphic" in2="effect5_dropShadow_424_18402" result="shape"/>
</filter>
<linearGradient id="paint0_linear_424_18402" x1="24.3883" y1="147.467" x2="3.35588" y2="156.581" gradientUnits="userSpaceOnUse">
<stop offset="0.029378" stop-color="#E4E6EF"/>
<stop offset="1" stop-color="#E4E6F3"/>
</linearGradient>
<linearGradient id="paint1_linear_424_18402" x1="77.9806" y1="0" x2="77.9806" y2="180.973" gradientUnits="userSpaceOnUse">
<stop stop-color="#F2F3F7"/>
<stop offset="1" stop-color="#F9FAFC"/>
</linearGradient>
<linearGradient id="paint2_linear_424_18402" x1="57.6952" y1="113.043" x2="57.9756" y2="113.642" gradientUnits="userSpaceOnUse">
<stop stop-color="#FCD87C"/>
<stop offset="1" stop-color="#F8DE9F"/>
</linearGradient>
<linearGradient id="paint3_linear_424_18402" x1="57.6952" y1="112.043" x2="57.9756" y2="112.642" gradientUnits="userSpaceOnUse">
<stop stop-color="#90B4FF"/>
<stop offset="1" stop-color="#93B0F7"/>
</linearGradient>
<linearGradient id="paint4_linear_424_18402" x1="57.6952" y1="112.043" x2="57.9756" y2="112.642" gradientUnits="userSpaceOnUse">
<stop stop-color="#FCD87C"/>
<stop offset="1" stop-color="#F8DE9F"/>
</linearGradient>
<linearGradient id="paint5_linear_424_18402" x1="57.6952" y1="110.043" x2="57.9756" y2="110.642" gradientUnits="userSpaceOnUse">
<stop stop-color="#90B4FF"/>
<stop offset="1" stop-color="#93B0F7"/>
</linearGradient>
<linearGradient id="paint6_linear_424_18402" x1="57.6952" y1="110.043" x2="57.9756" y2="110.642" gradientUnits="userSpaceOnUse">
<stop stop-color="#FCD87C"/>
<stop offset="1" stop-color="#F8DE9F"/>
</linearGradient>
<linearGradient id="paint7_linear_424_18402" x1="57.6952" y1="109.043" x2="57.9756" y2="109.642" gradientUnits="userSpaceOnUse">
<stop stop-color="#90B4FF"/>
<stop offset="1" stop-color="#93B0F7"/>
</linearGradient>
<linearGradient id="paint8_linear_424_18402" x1="57.6952" y1="109.043" x2="57.9756" y2="109.642" gradientUnits="userSpaceOnUse">
<stop stop-color="#FCD87C"/>
<stop offset="1" stop-color="#F8DE9F"/>
</linearGradient>
<linearGradient id="paint9_linear_424_18402" x1="104.803" y1="36.9824" x2="137.518" y2="125.595" gradientUnits="userSpaceOnUse">
<stop stop-color="#E9C058"/>
<stop offset="1" stop-color="#FEDA80"/>
</linearGradient>
</defs>
</svg>
