<svg width="301" height="245" viewBox="0 0 301 245" fill="none" xmlns="http://www.w3.org/2000/svg">
<g filter="url(#filter0_ddddd_978_37007)">
<rect width="155.998" height="180.997" rx="27.2967" transform="matrix(0.938139 -0.34626 0.706941 0.707272 17.047 66.9868)" fill="url(#paint0_linear_978_37007)"/>
</g>
<g filter="url(#filter1_i_978_37007)">
<rect width="155.998" height="180.997" rx="27.3005" transform="matrix(0.938139 -0.34626 0.706941 0.707272 17.047 54.9868)" fill="url(#paint1_linear_978_37007)"/>
</g>
<rect x="1.56869" y="0.344248" width="154.091" height="179.089" rx="26.3469" transform="matrix(0.938139 -0.34626 0.706941 0.707272 16.9007 55.6308)" stroke="white" stroke-width="1.90712"/>
<path d="M184.975 63.747C203.03 81.8102 198.243 103.622 174.283 112.465C150.323 121.309 116.263 113.834 98.2081 95.771C80.1529 77.7079 84.9395 55.8959 108.9 47.0527C132.86 38.2095 166.92 45.6839 184.975 63.747Z" stroke="#EBEEF5" stroke-width="11.5115"/>
<g filter="url(#filter2_ddddd_978_37007)">
<path d="M108.898 47.0515C106.652 44.8039 107.231 42.0639 110.443 41.2185C118.7 39.0444 128.025 38.3213 137.669 39.1369C149.568 40.1433 161.432 43.4488 171.796 48.6457C182.161 53.8425 190.573 60.7034 195.995 68.3823C201.417 76.0612 203.612 84.2222 202.309 91.8589C201.007 99.4955 196.263 106.274 188.664 111.358C181.065 116.442 170.942 119.609 159.544 120.469C148.147 121.329 135.973 119.845 124.523 116.198C115.245 113.243 106.772 108.973 99.7744 103.759C97.0533 101.731 97.4158 98.948 100.256 97.7142V97.7142C103.097 96.4803 107.335 97.2701 110.135 99.2506C115.362 102.947 121.558 105.986 128.301 108.134C137.216 110.973 146.696 112.129 155.571 111.46C164.446 110.79 172.329 108.323 178.246 104.365C184.164 100.406 187.857 95.1276 188.872 89.181C189.886 83.2345 188.177 76.8796 183.955 70.9002C179.732 64.9207 173.182 59.5782 165.112 55.5315C157.041 51.4848 147.803 48.9108 138.537 48.1271C131.529 47.5344 124.737 47.9853 118.635 49.4241C115.365 50.195 111.145 49.2991 108.898 47.0515V47.0515Z" fill="url(#paint2_linear_978_37007)"/>
</g>
<path d="M108.898 46.0515C106.652 43.8039 107.231 41.0639 110.443 40.2185C118.7 38.0444 128.025 37.3213 137.669 38.1369C149.568 39.1433 161.432 42.4488 171.796 47.6457C182.161 52.8425 190.573 59.7034 195.995 67.3823C201.417 75.0612 203.612 83.2222 202.309 90.8589C201.007 98.4955 196.263 105.274 188.664 110.358C181.065 115.442 170.942 118.609 159.544 119.469C148.147 120.329 135.973 118.845 124.523 115.198C115.245 112.243 106.772 107.973 99.7744 102.759C97.0533 100.731 97.4158 97.948 100.256 96.7142V96.7142C103.097 95.4803 107.335 96.2701 110.135 98.2506C115.362 101.947 121.558 104.986 128.301 107.134C137.216 109.973 146.696 111.129 155.571 110.46C164.446 109.79 172.329 107.323 178.246 103.365C184.164 99.4058 187.857 94.1276 188.872 88.181C189.886 82.2345 188.177 75.8796 183.955 69.9002C179.732 63.9207 173.182 58.5782 165.112 54.5315C157.041 50.4848 147.803 47.9108 138.537 47.1271C131.529 46.5344 124.737 46.9853 118.635 48.4241C115.365 49.195 111.145 48.2991 108.898 46.0515V46.0515Z" fill="url(#paint3_linear_978_37007)"/>
<path d="M108.898 46.0515C106.652 43.8039 107.231 41.0639 110.443 40.2185C118.7 38.0444 128.025 37.3213 137.669 38.1369C149.568 39.1433 161.432 42.4488 171.796 47.6457C182.161 52.8425 190.573 59.7034 195.995 67.3823C201.417 75.0612 203.612 83.2222 202.309 90.8589C201.007 98.4955 196.263 105.274 188.664 110.358C181.065 115.442 170.942 118.609 159.544 119.469C148.147 120.329 135.973 118.845 124.523 115.198C115.245 112.243 106.772 107.973 99.7744 102.759C97.0533 100.731 97.4158 97.948 100.256 96.7142V96.7142C103.097 95.4803 107.335 96.2701 110.135 98.2506C115.362 101.947 121.558 104.986 128.301 107.134C137.216 109.973 146.696 111.129 155.571 110.46C164.446 109.79 172.329 107.323 178.246 103.365C184.164 99.4058 187.857 94.1276 188.872 88.181C189.886 82.2345 188.177 75.8796 183.955 69.9002C179.732 63.9207 173.182 58.5782 165.112 54.5315C157.041 50.4848 147.803 47.9108 138.537 47.1271C131.529 46.5344 124.737 46.9853 118.635 48.4241C115.365 49.195 111.145 48.2991 108.898 46.0515V46.0515Z" fill="url(#paint4_linear_978_37007)"/>
<path d="M108.898 44.0515C106.652 41.8039 107.231 39.0639 110.443 38.2185C118.7 36.0444 128.025 35.3213 137.669 36.1369C149.568 37.1433 161.432 40.4488 171.796 45.6457C182.161 50.8425 190.573 57.7034 195.995 65.3823C201.417 73.0612 203.612 81.2222 202.309 88.8589C201.007 96.4955 196.263 103.274 188.664 108.358C181.065 113.442 170.942 116.609 159.544 117.469C148.147 118.329 135.973 116.845 124.523 113.198C115.245 110.243 106.772 105.973 99.7744 100.759C97.0533 98.7313 97.4158 95.948 100.256 94.7142V94.7142C103.097 93.4803 107.335 94.2701 110.135 96.2506C115.362 99.947 121.558 102.986 128.301 105.134C137.216 107.973 146.696 109.129 155.571 108.46C164.446 107.79 172.329 105.323 178.246 101.365C184.164 97.4058 187.857 92.1276 188.872 86.181C189.886 80.2345 188.177 73.8796 183.955 67.9002C179.732 61.9207 173.182 56.5782 165.112 52.5315C157.041 48.4848 147.803 45.9108 138.537 45.1271C131.529 44.5344 124.737 44.9853 118.635 46.4241C115.365 47.195 111.145 46.2991 108.898 44.0515V44.0515Z" fill="url(#paint5_linear_978_37007)"/>
<path d="M108.898 44.0515C106.652 41.8039 107.231 39.0639 110.443 38.2185C118.7 36.0444 128.025 35.3213 137.669 36.1369C149.568 37.1433 161.432 40.4488 171.796 45.6457C182.161 50.8425 190.573 57.7034 195.995 65.3823C201.417 73.0612 203.612 81.2222 202.309 88.8589C201.007 96.4955 196.263 103.274 188.664 108.358C181.065 113.442 170.942 116.609 159.544 117.469C148.147 118.329 135.973 116.845 124.523 113.198C115.245 110.243 106.772 105.973 99.7744 100.759C97.0533 98.7313 97.4158 95.948 100.256 94.7142V94.7142C103.097 93.4803 107.335 94.2701 110.135 96.2506C115.362 99.947 121.558 102.986 128.301 105.134C137.216 107.973 146.696 109.129 155.571 108.46C164.446 107.79 172.329 105.323 178.246 101.365C184.164 97.4058 187.857 92.1276 188.872 86.181C189.886 80.2345 188.177 73.8796 183.955 67.9002C179.732 61.9207 173.182 56.5782 165.112 52.5315C157.041 48.4848 147.803 45.9108 138.537 45.1271C131.529 44.5344 124.737 44.9853 118.635 46.4241C115.365 47.195 111.145 46.2991 108.898 44.0515V44.0515Z" fill="url(#paint6_linear_978_37007)"/>
<path d="M108.898 43.0515C106.652 40.8039 107.231 38.0639 110.443 37.2185C118.7 35.0444 128.025 34.3213 137.669 35.1369C149.568 36.1433 161.432 39.4488 171.796 44.6457C182.161 49.8425 190.573 56.7034 195.995 64.3823C201.417 72.0612 203.612 80.2222 202.309 87.8589C201.007 95.4955 196.263 102.274 188.664 107.358C181.065 112.442 170.942 115.609 159.544 116.469C148.147 117.329 135.973 115.845 124.523 112.198C115.245 109.243 106.772 104.973 99.7744 99.759C97.0533 97.7313 97.4158 94.948 100.256 93.7142V93.7142C103.097 92.4803 107.335 93.2701 110.135 95.2506C115.362 98.947 121.558 101.986 128.301 104.134C137.216 106.973 146.696 108.129 155.571 107.46C164.446 106.79 172.329 104.323 178.246 100.365C184.164 96.4058 187.857 91.1276 188.872 85.181C189.886 79.2345 188.177 72.8796 183.955 66.9002C179.732 60.9207 173.182 55.5782 165.112 51.5315C157.041 47.4848 147.803 44.9108 138.537 44.1271C131.529 43.5344 124.737 43.9853 118.635 45.4241C115.365 46.195 111.145 45.2991 108.898 43.0515V43.0515Z" fill="url(#paint7_linear_978_37007)"/>
<path d="M108.898 43.0515C106.652 40.8039 107.231 38.0639 110.443 37.2185C118.7 35.0444 128.025 34.3213 137.669 35.1369C149.568 36.1433 161.432 39.4488 171.796 44.6457C182.161 49.8425 190.573 56.7034 195.995 64.3823C201.417 72.0612 203.612 80.2222 202.309 87.8589C201.007 95.4955 196.263 102.274 188.664 107.358C181.065 112.442 170.942 115.609 159.544 116.469C148.147 117.329 135.973 115.845 124.523 112.198C115.245 109.243 106.772 104.973 99.7744 99.759C97.0533 97.7313 97.4158 94.948 100.256 93.7142V93.7142C103.097 92.4803 107.335 93.2701 110.135 95.2506C115.362 98.947 121.558 101.986 128.301 104.134C137.216 106.973 146.696 108.129 155.571 107.46C164.446 106.79 172.329 104.323 178.246 100.365C184.164 96.4058 187.857 91.1276 188.872 85.181C189.886 79.2345 188.177 72.8796 183.955 66.9002C179.732 60.9207 173.182 55.5782 165.112 51.5315C157.041 47.4848 147.803 44.9108 138.537 44.1271C131.529 43.5344 124.737 43.9853 118.635 45.4241C115.365 46.195 111.145 45.2991 108.898 43.0515V43.0515Z" fill="url(#paint8_linear_978_37007)"/>
<mask id="path-9-inside-1_978_37007" fill="white">
<path d="M108.898 41.0515C106.652 38.8039 107.231 36.0639 110.443 35.2185C118.701 33.0443 128.026 32.3212 137.67 33.137C149.57 34.1437 161.434 37.4496 171.799 42.6469C182.163 47.8442 190.575 54.7057 195.997 62.3851C201.418 70.0645 203.612 78.2258 202.309 85.8625C201.005 93.4993 196.26 100.277 188.659 105.361C181.059 110.444 170.935 113.611 159.536 114.47C148.138 115.329 135.963 113.843 124.514 110.195C115.236 107.239 106.763 102.968 99.7661 97.7528C97.0454 95.7249 97.4087 92.9417 100.25 91.7082V91.7082C103.091 90.4748 107.329 91.2651 110.129 93.2459C115.354 96.943 121.551 99.983 128.293 102.131C137.209 104.972 146.689 106.129 155.565 105.46C164.441 104.791 172.324 102.325 178.243 98.367C184.161 94.4085 187.856 89.1305 188.871 83.1839C189.886 77.2372 188.178 70.8821 183.956 64.9023C179.734 58.9225 173.184 53.5795 165.113 49.5324C157.043 45.4853 147.804 42.9111 138.538 42.1272C131.53 41.5344 124.737 41.9852 118.635 43.4241C115.365 44.195 111.145 43.2991 108.898 41.0515V41.0515Z"/>
</mask>
<path d="M108.898 41.0515C106.652 38.8039 107.231 36.0639 110.443 35.2185C118.701 33.0443 128.026 32.3212 137.67 33.137C149.57 34.1437 161.434 37.4496 171.799 42.6469C182.163 47.8442 190.575 54.7057 195.997 62.3851C201.418 70.0645 203.612 78.2258 202.309 85.8625C201.005 93.4993 196.26 100.277 188.659 105.361C181.059 110.444 170.935 113.611 159.536 114.47C148.138 115.329 135.963 113.843 124.514 110.195C115.236 107.239 106.763 102.968 99.7661 97.7528C97.0454 95.7249 97.4087 92.9417 100.25 91.7082V91.7082C103.091 90.4748 107.329 91.2651 110.129 93.2459C115.354 96.943 121.551 99.983 128.293 102.131C137.209 104.972 146.689 106.129 155.565 105.46C164.441 104.791 172.324 102.325 178.243 98.367C184.161 94.4085 187.856 89.1305 188.871 83.1839C189.886 77.2372 188.178 70.8821 183.956 64.9023C179.734 58.9225 173.184 53.5795 165.113 49.5324C157.043 45.4853 147.804 42.9111 138.538 42.1272C131.53 41.5344 124.737 41.9852 118.635 43.4241C115.365 44.195 111.145 43.2991 108.898 41.0515V41.0515Z" fill="url(#paint9_linear_978_37007)" stroke="white" stroke-opacity="0.54" stroke-width="1.21174" mask="url(#path-9-inside-1_978_37007)"/>
<path d="M127.924 88.7732C127.121 89.015 126.424 89.168 125.836 89.2322C125.249 89.2844 124.791 89.3057 124.462 89.2958L123.864 87.9572C124.332 87.9599 124.856 87.9252 125.437 87.853C126.028 87.7769 126.631 87.6254 127.246 87.3984C127.978 87.1284 128.402 86.8626 128.518 86.601C128.636 86.3275 128.559 86.0548 128.288 85.7831C128.104 85.5992 127.886 85.4609 127.633 85.368C127.381 85.2752 127.097 85.216 126.781 85.1903C126.465 85.1647 126.115 85.1627 125.73 85.1843C125.356 85.202 124.946 85.2275 124.5 85.2607C124.084 85.2941 123.655 85.3155 123.214 85.3249C122.785 85.3304 122.357 85.3021 121.932 85.2401C121.51 85.1661 121.104 85.0426 120.713 84.8695C120.322 84.6964 119.959 84.442 119.623 84.1063C119.072 83.5548 118.822 83.0069 118.873 82.4628C118.916 81.9107 119.333 81.4124 120.122 80.9679L118.78 79.625L120.434 79.0146L121.728 80.3095C122.269 80.1536 122.781 80.0413 123.264 79.9725C123.738 79.8958 124.128 79.8503 124.434 79.8362L125.222 81.1699C124.827 81.1955 124.377 81.2465 123.873 81.3231C123.38 81.3958 122.863 81.5319 122.322 81.7315C121.75 81.9428 121.4 82.1812 121.274 82.4467C121.139 82.7043 121.208 82.9689 121.479 83.2407C121.639 83.4005 121.818 83.5208 122.014 83.6014C122.203 83.674 122.426 83.7229 122.683 83.7483C122.933 83.7656 123.22 83.7692 123.543 83.7591C123.859 83.7411 124.211 83.7153 124.598 83.6817C125.161 83.6492 125.705 83.6344 126.23 83.6374C126.758 83.6285 127.261 83.6671 127.739 83.7533C128.209 83.8315 128.652 83.9691 129.066 84.1662C129.492 84.3594 129.88 84.6318 130.232 84.9835C130.759 85.5111 130.997 86.0469 130.946 86.591C130.895 87.1351 130.427 87.647 129.542 88.1268L131.04 89.6255L129.386 90.236L127.924 88.7732ZM138.611 76.6224C138.898 76.9102 139.103 77.2233 139.223 77.5617C139.336 77.8922 139.397 78.2363 139.406 78.5939C139.418 78.9397 139.388 79.2952 139.318 79.6604C139.24 80.0176 139.157 80.3708 139.071 80.72C139.021 80.9025 138.974 81.1168 138.93 81.3629C138.885 81.609 138.852 81.8512 138.829 82.0895C138.806 82.3278 138.805 82.5523 138.827 82.7631C138.841 82.9658 138.895 83.1211 138.988 83.2289L143.886 81.421L145.109 82.644L138.095 85.2326C138.021 85.1725 137.939 85.0985 137.852 85.0106C137.756 84.9147 137.684 84.8428 137.636 84.7948C137.252 84.4111 136.98 84.0301 136.82 83.6517C136.662 83.2613 136.576 82.8774 136.561 82.4998C136.546 82.1222 136.58 81.7489 136.661 81.3798C136.742 81.0107 136.827 80.6456 136.916 80.2845C136.986 80.0067 137.05 79.7369 137.108 79.4749C137.165 79.213 137.195 78.9668 137.197 78.7363C137.201 78.4939 137.169 78.2653 137.099 78.0503C137.021 77.8273 136.886 77.6199 136.695 77.4281C136.279 77.0124 135.825 76.7754 135.331 76.7169C134.837 76.6585 134.362 76.7134 133.906 76.8816C133.609 76.9912 133.366 77.1249 133.175 77.2828C132.985 77.4406 132.832 77.6007 132.719 77.763C132.616 77.9213 132.538 78.0759 132.486 78.2266C132.425 78.3693 132.386 78.4823 132.367 78.5656L130.394 77.8987C130.52 77.4146 130.784 76.9671 131.186 76.5561C131.591 76.1332 132.137 75.7946 132.827 75.5403C134.004 75.1059 135.079 74.9988 136.054 75.219C137.032 75.4272 137.884 75.895 138.611 76.6224ZM147.65 73.2863C147.937 73.574 148.142 73.8871 148.262 74.2256C148.375 74.5561 148.436 74.9001 148.445 75.2578C148.457 75.6036 148.427 75.9591 148.357 76.3243C148.279 76.6815 148.196 77.0347 148.11 77.3839C148.06 77.5664 148.013 77.7807 147.969 78.0268C147.924 78.2729 147.891 78.5151 147.868 78.7534C147.845 78.9917 147.844 79.2162 147.866 79.427C147.88 79.6297 147.934 79.785 148.027 79.8928L152.925 78.0849L154.148 79.3079L147.134 81.8964C147.06 81.8364 146.978 81.7624 146.891 81.6745C146.795 81.5786 146.723 81.5066 146.675 81.4587C146.291 81.075 146.019 80.694 145.859 80.3155C145.701 79.9252 145.615 79.5412 145.6 79.1637C145.585 78.7861 145.619 78.4127 145.7 78.0436C145.781 77.6745 145.866 77.3094 145.955 76.9483C146.025 76.6706 146.089 76.4007 146.147 76.1388C146.204 75.8768 146.234 75.6306 146.236 75.4002C146.24 75.1578 146.208 74.9291 146.138 74.7141C146.06 74.4912 145.925 74.2838 145.734 74.0919C145.318 73.6763 144.864 73.4392 144.37 73.3808C143.876 73.3223 143.401 73.3772 142.945 73.5455C142.648 73.6551 142.405 73.7888 142.214 73.9466C142.023 74.1045 141.871 74.2646 141.758 74.4268C141.655 74.5852 141.577 74.7397 141.525 74.8904C141.464 75.0332 141.425 75.1462 141.406 75.2295L139.433 74.5626C139.559 74.0785 139.823 73.631 140.225 73.22C140.63 72.7971 141.176 72.4585 141.866 72.2041C143.043 71.7698 144.118 71.6627 145.093 71.8828C146.071 72.0911 146.923 72.5589 147.65 73.2863ZM157.784 76.8827C158.063 77.1624 158.164 77.4372 158.085 77.7069C158.017 77.9728 157.808 78.1703 157.458 78.2994C157.098 78.4325 156.708 78.4561 156.288 78.3702C155.868 78.2844 155.519 78.1016 155.239 77.8218C154.959 77.5421 154.854 77.2692 154.922 77.0034C154.982 76.7295 155.192 76.5261 155.553 76.3931C155.902 76.2639 156.291 76.2463 156.719 76.3401C157.149 76.422 157.504 76.6029 157.784 76.8827ZM154.263 70.2544C154.695 69.8436 155.074 69.3809 155.401 68.8662C155.739 68.3475 155.951 67.8043 156.036 67.2366L157.388 66.7376L165.693 75.0465L163.769 75.7568L157.405 69.3902C157.287 69.6637 157.09 69.9606 156.815 70.2809C156.54 70.6012 156.253 70.8877 155.954 71.1403L154.263 70.2544Z" fill="#E9C058"/>
<path d="M162.161 145.303C163.331 144.871 164.371 144.718 165.279 144.842C166.188 144.967 166.951 145.338 167.569 145.956C167.923 146.31 168.142 146.643 168.227 146.957C168.305 147.265 168.268 147.554 168.113 147.824C167.953 148.089 167.682 148.341 167.3 148.58C166.92 148.811 166.448 149.03 165.883 149.239L164.761 149.653L167.172 152.065L166.36 152.364L160.244 146.245C160.47 146.079 160.762 145.914 161.12 145.749C161.48 145.575 161.827 145.426 162.161 145.303ZM162.728 145.821C162.426 145.932 162.176 146.037 161.979 146.134C161.784 146.222 161.617 146.3 161.478 146.368L164.23 149.122L165.257 148.743C165.695 148.582 166.07 148.418 166.385 148.253C166.701 148.079 166.931 147.895 167.076 147.702C167.223 147.5 167.271 147.281 167.22 147.045C167.169 146.809 167 146.547 166.712 146.26C166.437 145.984 166.133 145.783 165.802 145.659C165.479 145.532 165.143 145.463 164.794 145.452C164.448 145.432 164.098 145.459 163.746 145.531C163.394 145.604 163.054 145.7 162.728 145.821ZM170.737 144.257C170.991 144.163 171.245 144.09 171.498 144.038C171.759 143.982 171.948 143.954 172.065 143.951L172.414 144.512C172.326 144.512 172.171 144.536 171.948 144.586C171.727 144.626 171.457 144.705 171.139 144.823C170.805 144.946 170.552 145.064 170.381 145.176C170.218 145.286 170.117 145.364 170.077 145.412L174.152 149.488L173.376 149.775L168.942 145.338C169.075 145.199 169.283 145.031 169.567 144.836C169.846 144.635 170.235 144.442 170.737 144.257ZM180.784 143.862C181.15 144.228 181.411 144.588 181.567 144.94C181.732 145.29 181.792 145.617 181.747 145.921C181.71 146.222 181.581 146.496 181.358 146.742C181.13 146.982 180.809 147.179 180.395 147.332C179.982 147.484 179.547 147.567 179.091 147.579C178.628 147.586 178.165 147.531 177.701 147.415C177.244 147.296 176.794 147.113 176.351 146.866C175.916 146.616 175.516 146.308 175.15 145.942C174.784 145.576 174.519 145.218 174.354 144.868C174.198 144.515 174.138 144.188 174.175 143.887C174.213 143.577 174.347 143.302 174.575 143.062C174.797 142.816 175.115 142.616 175.529 142.463C175.943 142.311 176.381 142.231 176.843 142.225C177.299 142.213 177.759 142.269 178.221 142.394C178.686 142.51 179.135 142.693 179.571 142.943C180.014 143.19 180.418 143.496 180.784 143.862ZM179.96 144.166C179.379 143.584 178.738 143.189 178.038 142.979C177.332 142.763 176.673 142.768 176.06 142.994C175.447 143.22 175.136 143.574 175.125 144.054C175.109 144.528 175.392 145.056 175.973 145.638C176.555 146.22 177.196 146.616 177.896 146.825C178.596 147.035 179.252 147.027 179.865 146.801C180.477 146.575 180.792 146.224 180.808 145.75C180.825 145.276 180.542 144.748 179.96 144.166ZM180.076 137.743C180.41 137.619 180.702 137.54 180.95 137.506C181.201 137.463 181.373 137.444 181.467 137.451L181.816 138.012C181.698 138.014 181.537 138.033 181.332 138.067C181.129 138.093 180.896 138.154 180.633 138.251C180.084 138.454 179.795 138.704 179.766 139.002C179.746 139.298 179.966 139.676 180.428 140.138L180.913 140.624L183.396 139.708L183.891 140.203L181.408 141.119L185.564 145.276L184.788 145.563L179.634 140.406C179.028 139.801 178.755 139.277 178.816 138.836C178.884 138.392 179.304 138.028 180.076 137.743ZM190.052 143.62L189.276 143.906L184.626 139.254L185.401 138.968L190.052 143.62ZM184.177 137.498C184.315 137.636 184.37 137.767 184.343 137.892C184.31 138.011 184.213 138.1 184.054 138.159C183.895 138.218 183.721 138.229 183.531 138.192C183.336 138.149 183.169 138.059 183.031 137.921C182.893 137.783 182.841 137.654 182.875 137.535C182.902 137.41 182.995 137.318 183.155 137.259C183.314 137.2 183.491 137.193 183.686 137.235C183.876 137.272 184.039 137.36 184.177 137.498ZM188.186 137.94L190.645 137.032L191.14 137.527L188.681 138.435L191.154 140.909C191.418 141.173 191.662 141.379 191.885 141.526C192.111 141.665 192.324 141.759 192.526 141.808C192.727 141.856 192.922 141.866 193.112 141.838C193.301 141.809 193.491 141.759 193.682 141.689C194.008 141.568 194.244 141.445 194.389 141.317C194.528 141.184 194.629 141.072 194.692 140.983L195.369 141.399C195.311 141.494 195.179 141.629 194.973 141.804C194.76 141.972 194.491 142.117 194.165 142.237C193.783 142.378 193.424 142.461 193.09 142.486C192.757 142.502 192.436 142.465 192.127 142.373C191.82 142.273 191.521 142.121 191.229 141.916C190.938 141.712 190.636 141.454 190.324 141.142L186.043 136.858L186.711 136.464L188.186 137.94ZM199.379 139.032C199.493 139.047 199.626 139.06 199.777 139.07C199.936 139.077 200.109 139.075 200.294 139.064C200.479 139.053 200.67 139.032 200.867 139C201.058 138.962 201.245 138.91 201.428 138.842C201.81 138.701 202.081 138.536 202.239 138.346C202.4 138.147 202.476 137.934 202.467 137.707C202.453 137.474 202.367 137.231 202.211 136.976C202.049 136.716 201.839 136.457 201.581 136.199C200.969 135.587 200.298 135.194 199.569 135.02C198.833 134.84 198.131 134.873 197.463 135.12C197.081 135.261 196.785 135.39 196.577 135.508C196.37 135.617 196.222 135.709 196.132 135.783L199.379 139.032ZM201.88 141.533L201.104 141.82L194.952 135.664C195.122 135.519 195.36 135.354 195.664 135.167C195.968 134.981 196.395 134.787 196.944 134.584C197.397 134.417 197.864 134.323 198.344 134.301C198.826 134.271 199.303 134.313 199.776 134.426C200.256 134.536 200.718 134.715 201.161 134.962C201.612 135.206 202.026 135.517 202.404 135.895C202.758 136.249 203.021 136.599 203.194 136.946C203.368 137.284 203.444 137.605 203.421 137.909C203.392 138.207 203.263 138.481 203.033 138.73C202.81 138.977 202.476 139.182 202.031 139.346C201.625 139.496 201.229 139.585 200.843 139.613C200.458 139.631 200.159 139.627 199.946 139.599L201.88 141.533ZM203.699 135.392C203.292 134.984 203.013 134.603 202.865 134.247C202.718 133.882 202.666 133.552 202.709 133.257C202.76 132.959 202.896 132.704 203.119 132.49C203.343 132.268 203.626 132.093 203.968 131.967C204.724 131.688 205.511 131.652 206.328 131.86C207.154 132.064 207.953 132.553 208.727 133.327C208.775 133.375 208.819 133.425 208.859 133.476C208.907 133.524 208.948 133.57 208.982 133.615L204.649 135.214C205.242 135.775 205.867 136.144 206.523 136.321C207.179 136.498 207.889 136.445 208.653 136.163C209.075 136.008 209.379 135.854 209.566 135.703C209.752 135.552 209.88 135.435 209.95 135.352L210.597 135.803C210.533 135.892 210.379 136.027 210.135 136.207C209.899 136.385 209.574 136.55 209.16 136.703C208.619 136.903 208.097 137.013 207.595 137.034C207.093 137.055 206.611 137.003 206.149 136.878C205.686 136.753 205.252 136.564 204.847 136.311C204.436 136.053 204.053 135.746 203.699 135.392ZM207.711 133.407C207.21 132.926 206.681 132.604 206.124 132.44C205.568 132.276 205.027 132.291 204.502 132.485C204.223 132.587 204.015 132.722 203.876 132.888C203.745 133.051 203.668 133.236 203.645 133.441C203.624 133.638 203.658 133.847 203.749 134.068C203.847 134.287 203.99 134.501 204.178 134.711L207.711 133.407ZM210.299 129.655C210.554 129.561 210.807 129.488 211.06 129.436C211.321 129.381 211.51 129.352 211.627 129.35L211.976 129.911C211.888 129.91 211.733 129.935 211.51 129.984C211.289 130.025 211.02 130.104 210.701 130.221C210.367 130.344 210.114 130.462 209.944 130.575C209.781 130.684 209.679 130.763 209.64 130.81L213.714 134.887L212.938 135.173L208.504 130.736C208.637 130.597 208.845 130.43 209.13 130.235C209.408 130.033 209.798 129.84 210.299 129.655ZM224.881 130.568C224.71 130.713 224.472 130.879 224.168 131.065C223.864 131.251 223.438 131.446 222.888 131.648C222.435 131.816 221.967 131.914 221.485 131.944C221.005 131.966 220.525 131.921 220.045 131.811C219.572 131.698 219.11 131.519 218.659 131.275C218.216 131.028 217.806 130.716 217.428 130.338C217.074 129.984 216.81 129.638 216.636 129.3C216.463 128.953 216.388 128.627 216.411 128.323C216.434 128.019 216.557 127.744 216.779 127.498C217.009 127.248 217.347 127.042 217.793 126.877C218.198 126.727 218.594 126.643 218.978 126.624C219.364 126.597 219.664 126.597 219.877 126.625L217.377 124.123L218.045 123.729L224.881 130.568ZM220.444 127.192C220.33 127.176 220.194 127.165 220.034 127.158C219.883 127.148 219.715 127.149 219.53 127.16C219.344 127.171 219.156 127.195 218.965 127.233C218.768 127.264 218.578 127.314 218.395 127.382C218.013 127.523 217.742 127.692 217.581 127.891C217.428 128.087 217.359 128.302 217.374 128.534C217.383 128.761 217.468 129.005 217.631 129.265C217.787 129.519 217.994 129.776 218.252 130.034C218.863 130.646 219.537 131.042 220.273 131.222C221.002 131.396 221.701 131.36 222.37 131.113C222.752 130.972 223.046 130.847 223.253 130.738C223.462 130.62 223.611 130.524 223.7 130.449L220.444 127.192ZM228.601 128.813C228.903 128.702 229.16 128.599 229.37 128.504C229.583 128.401 229.757 128.308 229.892 128.226L228.255 126.588C228.138 126.59 227.968 126.612 227.748 126.652C227.521 126.687 227.24 126.765 226.906 126.889C226.715 126.959 226.528 127.045 226.345 127.145C226.156 127.239 226.01 127.355 225.907 127.492C225.798 127.622 225.747 127.768 225.756 127.929C225.765 128.09 225.868 128.27 226.066 128.468C226.24 128.642 226.422 128.775 226.614 128.869C226.813 128.96 227.017 129.016 227.224 129.038C227.439 129.057 227.66 129.049 227.887 129.015C228.116 128.972 228.354 128.904 228.601 128.813ZM224.193 124.502C224.599 124.353 224.986 124.271 225.355 124.258C225.725 124.237 226.076 124.271 226.407 124.363C226.732 124.448 227.039 124.581 227.329 124.762C227.618 124.942 227.886 125.156 228.132 125.402L231.064 128.335C231.002 128.383 230.908 128.446 230.781 128.526C230.648 128.6 230.493 128.685 230.318 128.783C230.144 128.88 229.939 128.98 229.704 129.084C229.483 129.19 229.246 129.29 228.991 129.384C228.665 129.504 228.335 129.589 228.003 129.637C227.678 129.683 227.356 129.687 227.035 129.65C226.716 129.603 226.407 129.512 226.108 129.376C225.81 129.231 225.53 129.027 225.266 128.763C225.014 128.511 224.862 128.271 224.809 128.044C224.757 127.818 224.789 127.604 224.906 127.405C225.016 127.2 225.204 127.012 225.468 126.84C225.733 126.669 226.052 126.514 226.426 126.376C226.537 126.335 226.659 126.298 226.79 126.266C226.923 126.225 227.055 126.193 227.184 126.17C227.315 126.138 227.43 126.116 227.528 126.105C227.627 126.085 227.699 126.075 227.743 126.075L227.455 125.787C227.293 125.625 227.121 125.475 226.939 125.337C226.751 125.192 226.542 125.081 226.311 125.002C226.081 124.914 225.831 124.871 225.56 124.872C225.291 124.865 224.998 124.92 224.679 125.037C224.226 125.205 223.912 125.354 223.737 125.484C223.562 125.614 223.438 125.713 223.364 125.781L222.744 125.308C222.831 125.21 222.993 125.089 223.23 124.944C223.474 124.796 223.796 124.649 224.193 124.502ZM234.933 127.191C234.304 126.922 233.669 126.635 233.026 126.33C232.392 126.022 231.766 125.707 231.15 125.384C230.535 125.052 229.939 124.718 229.363 124.381C228.78 124.037 228.23 123.694 227.713 123.351L228.536 123.047C228.912 123.303 229.335 123.574 229.806 123.86C230.271 124.14 230.764 124.426 231.285 124.718C231.814 125.008 232.368 125.3 232.946 125.596C233.525 125.891 234.114 126.175 234.712 126.447C234.515 126.01 234.32 125.602 234.125 125.222C233.931 124.842 233.727 124.47 233.515 124.105C233.304 123.731 233.08 123.354 232.842 122.973C232.611 122.59 232.358 122.179 232.081 121.739L232.857 121.452C233.472 122.416 234.027 123.369 234.522 124.312C235.018 125.254 235.416 126.138 235.718 126.963C235.836 127.288 235.912 127.577 235.945 127.827C235.984 128.084 235.966 128.312 235.893 128.511C235.828 128.708 235.695 128.885 235.492 129.041C235.297 129.195 235.025 129.337 234.675 129.466C234.476 129.54 234.275 129.589 234.072 129.615C233.877 129.638 233.75 129.647 233.692 129.644L233.362 129.101C233.412 129.107 233.523 129.099 233.696 129.076C233.883 129.056 234.057 129.017 234.216 128.958C234.439 128.876 234.62 128.784 234.759 128.684C234.906 128.58 235.006 128.457 235.059 128.314C235.118 128.177 235.135 128.019 235.108 127.84C235.09 127.658 235.031 127.442 234.933 127.191Z" fill="black"/>
<defs>
<filter id="filter0_ddddd_978_37007" x="0.54902" y="17.3659" width="281.539" height="208.3" filterUnits="userSpaceOnUse" color-interpolation-filters="sRGB">
<feFlood flood-opacity="0" result="BackgroundImageFix"/>
<feColorMatrix in="SourceAlpha" type="matrix" values="0 0 0 0 0 0 0 0 0 0 0 0 0 0 0 0 0 0 127 0" result="hardAlpha"/>
<feOffset/>
<feColorMatrix type="matrix" values="0 0 0 0 0 0 0 0 0 0 0 0 0 0 0 0 0 0 0.05 0"/>
<feBlend mode="normal" in2="BackgroundImageFix" result="effect1_dropShadow_978_37007"/>
<feColorMatrix in="SourceAlpha" type="matrix" values="0 0 0 0 0 0 0 0 0 0 0 0 0 0 0 0 0 0 127 0" result="hardAlpha"/>
<feOffset dx="-0.715527" dy="1.43105"/>
<feGaussianBlur stdDeviation="2.14658"/>
<feColorMatrix type="matrix" values="0 0 0 0 0 0 0 0 0 0 0 0 0 0 0 0 0 0 0.05 0"/>
<feBlend mode="normal" in2="effect1_dropShadow_978_37007" result="effect2_dropShadow_978_37007"/>
<feColorMatrix in="SourceAlpha" type="matrix" values="0 0 0 0 0 0 0 0 0 0 0 0 0 0 0 0 0 0 127 0" result="hardAlpha"/>
<feOffset dx="-4.29316" dy="6.43974"/>
<feGaussianBlur stdDeviation="3.9354"/>
<feColorMatrix type="matrix" values="0 0 0 0 0 0 0 0 0 0 0 0 0 0 0 0 0 0 0.04 0"/>
<feBlend mode="normal" in2="effect2_dropShadow_978_37007" result="effect3_dropShadow_978_37007"/>
<feColorMatrix in="SourceAlpha" type="matrix" values="0 0 0 0 0 0 0 0 0 0 0 0 0 0 0 0 0 0 127 0" result="hardAlpha"/>
<feOffset dx="-9.30185" dy="14.3105"/>
<feGaussianBlur stdDeviation="5.36645"/>
<feColorMatrix type="matrix" values="0 0 0 0 0 0 0 0 0 0 0 0 0 0 0 0 0 0 0.03 0"/>
<feBlend mode="normal" in2="effect3_dropShadow_978_37007" result="effect4_dropShadow_978_37007"/>
<feColorMatrix in="SourceAlpha" type="matrix" values="0 0 0 0 0 0 0 0 0 0 0 0 0 0 0 0 0 0 127 0" result="hardAlpha"/>
<feOffset dx="-17.1726" dy="25.759"/>
<feGaussianBlur stdDeviation="6.08198"/>
<feColorMatrix type="matrix" values="0 0 0 0 0 0 0 0 0 0 0 0 0 0 0 0 0 0 0.01 0"/>
<feBlend mode="normal" in2="effect4_dropShadow_978_37007" result="effect5_dropShadow_978_37007"/>
<feBlend mode="normal" in="SourceGraphic" in2="effect5_dropShadow_978_37007" result="shape"/>
</filter>
<filter id="filter1_i_978_37007" x="29.8873" y="8.229" width="248.621" height="172.599" filterUnits="userSpaceOnUse" color-interpolation-filters="sRGB">
<feFlood flood-opacity="0" result="BackgroundImageFix"/>
<feBlend mode="normal" in="SourceGraphic" in2="BackgroundImageFix" result="shape"/>
<feColorMatrix in="SourceAlpha" type="matrix" values="0 0 0 0 0 0 0 0 0 0 0 0 0 0 0 0 0 0 127 0" result="hardAlpha"/>
<feOffset dy="5.08566"/>
<feGaussianBlur stdDeviation="8.89991"/>
<feComposite in2="hardAlpha" operator="arithmetic" k2="-1" k3="1"/>
<feColorMatrix type="matrix" values="0 0 0 0 0 0 0 0 0 0 0 0 0 0 0 0 0 0 0.04 0"/>
<feBlend mode="normal" in2="shape" result="effect1_innerShadow_978_37007"/>
</filter>
<filter id="filter2_ddddd_978_37007" x="82.1508" y="31.7159" width="186.745" height="212.762" filterUnits="userSpaceOnUse" color-interpolation-filters="sRGB">
<feFlood flood-opacity="0" result="BackgroundImageFix"/>
<feColorMatrix in="SourceAlpha" type="matrix" values="0 0 0 0 0 0 0 0 0 0 0 0 0 0 0 0 0 0 127 0" result="hardAlpha"/>
<feOffset/>
<feColorMatrix type="matrix" values="0 0 0 0 0.913725 0 0 0 0 0.752941 0 0 0 0 0.345098 0 0 0 0.2 0"/>
<feBlend mode="normal" in2="BackgroundImageFix" result="effect1_dropShadow_978_37007"/>
<feColorMatrix in="SourceAlpha" type="matrix" values="0 0 0 0 0 0 0 0 0 0 0 0 0 0 0 0 0 0 127 0" result="hardAlpha"/>
<feOffset dx="1.5767" dy="5.51844"/>
<feGaussianBlur stdDeviation="6.30679"/>
<feColorMatrix type="matrix" values="0 0 0 0 0.913725 0 0 0 0 0.752941 0 0 0 0 0.345098 0 0 0 0.2 0"/>
<feBlend mode="normal" in2="effect1_dropShadow_978_37007" result="effect2_dropShadow_978_37007"/>
<feColorMatrix in="SourceAlpha" type="matrix" values="0 0 0 0 0 0 0 0 0 0 0 0 0 0 0 0 0 0 127 0" result="hardAlpha"/>
<feOffset dx="7.09513" dy="22.0737"/>
<feGaussianBlur stdDeviation="11.431"/>
<feColorMatrix type="matrix" values="0 0 0 0 0.913725 0 0 0 0 0.752941 0 0 0 0 0.345098 0 0 0 0.17 0"/>
<feBlend mode="normal" in2="effect2_dropShadow_978_37007" result="effect3_dropShadow_978_37007"/>
<feColorMatrix in="SourceAlpha" type="matrix" values="0 0 0 0 0 0 0 0 0 0 0 0 0 0 0 0 0 0 127 0" result="hardAlpha"/>
<feOffset dx="16.5553" dy="48.8776"/>
<feGaussianBlur stdDeviation="15.3728"/>
<feColorMatrix type="matrix" values="0 0 0 0 0.913725 0 0 0 0 0.752941 0 0 0 0 0.345098 0 0 0 0.1 0"/>
<feBlend mode="normal" in2="effect3_dropShadow_978_37007" result="effect4_dropShadow_978_37007"/>
<feColorMatrix in="SourceAlpha" type="matrix" values="0 0 0 0 0 0 0 0 0 0 0 0 0 0 0 0 0 0 127 0" result="hardAlpha"/>
<feOffset dx="29.1689" dy="86.7183"/>
<feGaussianBlur stdDeviation="18.5262"/>
<feColorMatrix type="matrix" values="0 0 0 0 0.913725 0 0 0 0 0.752941 0 0 0 0 0.345098 0 0 0 0.03 0"/>
<feBlend mode="normal" in2="effect4_dropShadow_978_37007" result="effect5_dropShadow_978_37007"/>
<feBlend mode="normal" in="SourceGraphic" in2="effect5_dropShadow_978_37007" result="shape"/>
</filter>
<linearGradient id="paint0_linear_978_37007" x1="24.3941" y1="147.487" x2="3.3574" y2="156.603" gradientUnits="userSpaceOnUse">
<stop offset="0.029378" stop-color="#E4E6EF"/>
<stop offset="1" stop-color="#E4E6F3"/>
</linearGradient>
<linearGradient id="paint1_linear_978_37007" x1="77.9992" y1="0" x2="77.9992" y2="180.997" gradientUnits="userSpaceOnUse">
<stop stop-color="#F2F3F7"/>
<stop offset="1" stop-color="#F9FAFC"/>
</linearGradient>
<linearGradient id="paint2_linear_978_37007" x1="57.7093" y1="113.043" x2="57.9896" y2="113.641" gradientUnits="userSpaceOnUse">
<stop stop-color="#FCD87C"/>
<stop offset="1" stop-color="#F8DE9F"/>
</linearGradient>
<linearGradient id="paint3_linear_978_37007" x1="57.7093" y1="112.043" x2="57.9896" y2="112.641" gradientUnits="userSpaceOnUse">
<stop stop-color="#90B4FF"/>
<stop offset="1" stop-color="#93B0F7"/>
</linearGradient>
<linearGradient id="paint4_linear_978_37007" x1="57.7093" y1="112.043" x2="57.9896" y2="112.641" gradientUnits="userSpaceOnUse">
<stop stop-color="#FCD87C"/>
<stop offset="1" stop-color="#F8DE9F"/>
</linearGradient>
<linearGradient id="paint5_linear_978_37007" x1="57.7093" y1="110.043" x2="57.9896" y2="110.641" gradientUnits="userSpaceOnUse">
<stop stop-color="#90B4FF"/>
<stop offset="1" stop-color="#93B0F7"/>
</linearGradient>
<linearGradient id="paint6_linear_978_37007" x1="57.7093" y1="110.043" x2="57.9896" y2="110.641" gradientUnits="userSpaceOnUse">
<stop stop-color="#FCD87C"/>
<stop offset="1" stop-color="#F8DE9F"/>
</linearGradient>
<linearGradient id="paint7_linear_978_37007" x1="57.7093" y1="109.043" x2="57.9896" y2="109.641" gradientUnits="userSpaceOnUse">
<stop stop-color="#90B4FF"/>
<stop offset="1" stop-color="#93B0F7"/>
</linearGradient>
<linearGradient id="paint8_linear_978_37007" x1="57.7093" y1="109.043" x2="57.9896" y2="109.641" gradientUnits="userSpaceOnUse">
<stop stop-color="#FCD87C"/>
<stop offset="1" stop-color="#F8DE9F"/>
</linearGradient>
<linearGradient id="paint9_linear_978_37007" x1="104.83" y1="36.9819" x2="137.538" y2="125.6" gradientUnits="userSpaceOnUse">
<stop stop-color="#E9C058"/>
<stop offset="1" stop-color="#FEDA80"/>
</linearGradient>
</defs>
</svg>
