<svg width="300" height="244" viewBox="0 0 300 244" fill="none" xmlns="http://www.w3.org/2000/svg">
<g filter="url(#filter0_ddddd_424_18391)">
<rect width="155.961" height="180.973" rx="27.2967" transform="matrix(0.938111 -0.346335 0.706854 0.70736 16.9856 66.9883)" fill="url(#paint0_linear_424_18391)"/>
</g>
<g filter="url(#filter1_i_424_18391)">
<rect width="155.961" height="180.973" rx="27.3005" transform="matrix(0.938111 -0.346335 0.706854 0.70736 16.9856 54.9883)" fill="url(#paint1_linear_424_18391)"/>
</g>
<rect x="1.56858" y="0.344259" width="154.054" height="179.066" rx="26.3469" transform="matrix(0.938111 -0.346335 0.706854 0.70736 16.8393 55.6323)" stroke="white" stroke-width="1.90712"/>
<path d="M184.866 63.749C202.916 81.8122 198.13 103.624 174.178 112.466C150.226 121.309 116.176 113.835 98.1253 95.772C80.075 77.7088 84.8609 55.8975 108.813 47.0547C132.765 38.212 166.815 45.6857 184.866 63.749Z" stroke="#EBEEF5" stroke-width="11.5115"/>
<g filter="url(#filter2_ddddd_424_18391)">
<path d="M108.811 47.053C106.565 44.8054 107.145 42.0653 110.356 41.2198C116.011 39.7305 122.184 38.9176 128.641 38.822C137.305 38.6938 146.271 39.8603 154.917 42.2406C163.563 44.6209 171.681 48.1579 178.708 52.606C185.735 57.0542 191.502 62.3068 195.609 67.9992C199.716 73.6916 202.065 79.6873 202.491 85.57C202.918 91.4527 201.412 97.0814 198.08 102.065C194.747 107.049 189.666 111.268 183.191 114.431C178.366 116.787 172.852 118.514 166.872 119.554C163.478 120.144 159.637 118.365 158.471 115.883C157.304 113.4 159.263 111.161 162.607 110.495C166.745 109.671 170.572 108.414 173.963 106.758C179.006 104.295 182.962 101.01 185.557 97.1288C188.152 93.248 189.324 88.865 188.992 84.2843C188.66 79.7035 186.831 75.0347 183.633 70.6021C180.435 66.1696 175.944 62.0794 170.472 58.6157C165.001 55.152 158.679 52.3978 151.946 50.5443C145.214 48.6907 138.232 47.7824 131.486 47.8823C126.948 47.9494 122.59 48.4716 118.546 49.4255C115.277 50.1964 111.057 49.3006 108.811 47.053Z" fill="url(#paint2_linear_424_18391)"/>
</g>
<path d="M108.811 46.053C106.565 43.8054 107.145 41.0653 110.356 40.2198C116.011 38.7305 122.184 37.9176 128.641 37.822C137.305 37.6938 146.271 38.8603 154.917 41.2406C163.563 43.6209 171.681 47.1579 178.708 51.606C185.735 56.0542 191.502 61.3068 195.609 66.9992C199.716 72.6916 202.065 78.6873 202.491 84.57C202.918 90.4527 201.412 96.0814 198.08 101.065C194.747 106.049 189.666 110.268 183.191 113.431C178.366 115.787 172.852 117.514 166.872 118.554C163.478 119.144 159.637 117.365 158.471 114.883C157.304 112.4 159.263 110.161 162.607 109.495C166.745 108.671 170.572 107.414 173.963 105.758C179.006 103.295 182.962 100.01 185.557 96.1288C188.152 92.248 189.324 87.865 188.992 83.2843C188.66 78.7035 186.831 74.0347 183.633 69.6021C180.435 65.1696 175.944 61.0794 170.472 57.6157C165.001 54.152 158.679 51.3978 151.946 49.5443C145.214 47.6907 138.232 46.7824 131.486 46.8823C126.948 46.9494 122.59 47.4716 118.546 48.4255C115.277 49.1964 111.057 48.3006 108.811 46.053Z" fill="url(#paint3_linear_424_18391)"/>
<path d="M108.811 44.053C106.565 41.8054 107.145 39.0653 110.356 38.2198C116.011 36.7305 122.184 35.9176 128.641 35.822C137.305 35.6938 146.271 36.8603 154.917 39.2406C163.563 41.6209 171.681 45.1579 178.708 49.606C185.735 54.0542 191.502 59.3068 195.609 64.9992C199.716 70.6916 202.064 76.6873 202.491 82.57C202.918 88.4527 201.412 94.0814 198.08 99.0652C194.747 104.049 189.666 108.268 183.191 111.431C178.366 113.787 172.852 115.514 166.872 116.554C163.477 117.144 159.637 115.365 158.471 112.883C157.304 110.4 159.263 108.161 162.607 107.495C166.744 106.671 170.572 105.414 173.963 103.758C179.006 101.295 182.961 98.0096 185.557 94.1288C188.152 90.248 189.324 85.865 188.992 81.2843C188.66 76.7035 186.831 72.0347 183.633 67.6021C180.435 63.1696 175.944 59.0794 170.472 55.6157C165.001 52.152 158.679 49.3978 151.946 47.5443C145.214 45.6907 138.232 44.7824 131.486 44.8823C126.948 44.9494 122.59 45.4716 118.546 46.4255C115.277 47.1964 111.057 46.3006 108.811 44.053Z" fill="url(#paint4_linear_424_18391)"/>
<path d="M108.811 43.053C106.565 40.8054 107.145 38.0653 110.356 37.2198C116.011 35.7305 122.184 34.9176 128.641 34.822C137.305 34.6938 146.271 35.8603 154.917 38.2406C163.563 40.6209 171.681 44.1579 178.708 48.606C185.735 53.0542 191.502 58.3068 195.609 63.9992C199.716 69.6916 202.064 75.6873 202.491 81.57C202.918 87.4527 201.412 93.0814 198.08 98.0652C194.747 103.049 189.666 107.268 183.191 110.431C178.366 112.787 172.852 114.514 166.872 115.554C163.477 116.144 159.637 114.365 158.471 111.883C157.304 109.4 159.263 107.161 162.607 106.495C166.744 105.671 170.572 104.414 173.963 102.758C179.006 100.295 182.961 97.0096 185.557 93.1288C188.152 89.248 189.324 84.865 188.992 80.2843C188.66 75.7035 186.831 71.0347 183.633 66.6021C180.435 62.1696 175.944 58.0794 170.472 54.6157C165.001 51.152 158.679 48.3978 151.946 46.5443C145.214 44.6907 138.232 43.7824 131.486 43.8823C126.948 43.9494 122.59 44.4716 118.546 45.4255C115.277 46.1964 111.057 45.3006 108.811 43.053Z" fill="url(#paint5_linear_424_18391)"/>
<mask id="path-9-inside-1_424_18391" fill="white">
<path d="M108.811 41.053C106.565 38.8054 107.145 36.0653 110.356 35.2198C116.011 33.7305 122.184 32.9176 128.641 32.822C137.305 32.6938 146.271 33.8603 154.917 36.2406C163.563 38.6209 171.681 42.1579 178.708 46.606C185.735 51.0542 191.502 56.3068 195.609 61.9992C199.716 67.6916 202.064 73.6873 202.491 79.57C202.918 85.4527 201.412 91.0814 198.08 96.0652C194.747 101.049 189.666 105.268 183.191 108.431C178.366 110.787 172.852 112.514 166.872 113.554C163.477 114.144 159.637 112.365 158.471 109.883C157.304 107.4 159.263 105.161 162.607 104.495C166.744 103.671 170.572 102.414 173.963 100.758C179.006 98.2953 182.961 95.0096 185.557 91.1288C188.152 87.248 189.324 82.865 188.992 78.2843C188.66 73.7035 186.831 69.0347 183.633 64.6021C180.435 60.1696 175.944 56.0794 170.472 52.6157C165.001 49.152 158.679 46.3978 151.946 44.5443C145.214 42.6907 138.232 41.7824 131.486 41.8823C126.948 41.9494 122.59 42.4716 118.546 43.4255C115.277 44.1964 111.057 43.3006 108.811 41.053Z"/>
</mask>
<path d="M108.811 41.053C106.565 38.8054 107.145 36.0653 110.356 35.2198C116.011 33.7305 122.184 32.9176 128.641 32.822C137.305 32.6938 146.271 33.8603 154.917 36.2406C163.563 38.6209 171.681 42.1579 178.708 46.606C185.735 51.0542 191.502 56.3068 195.609 61.9992C199.716 67.6916 202.064 73.6873 202.491 79.57C202.918 85.4527 201.412 91.0814 198.08 96.0652C194.747 101.049 189.666 105.268 183.191 108.431C178.366 110.787 172.852 112.514 166.872 113.554C163.477 114.144 159.637 112.365 158.471 109.883C157.304 107.4 159.263 105.161 162.607 104.495C166.744 103.671 170.572 102.414 173.963 100.758C179.006 98.2953 182.961 95.0096 185.557 91.1288C188.152 87.248 189.324 82.865 188.992 78.2843C188.66 73.7035 186.831 69.0347 183.633 64.6021C180.435 60.1696 175.944 56.0794 170.472 52.6157C165.001 49.152 158.679 46.3978 151.946 44.5443C145.214 42.6907 138.232 41.7824 131.486 41.8823C126.948 41.9494 122.59 42.4716 118.546 43.4255C115.277 44.1964 111.057 43.3006 108.811 41.053Z" fill="#EBEEF5"/>
<path d="M108.811 41.053C106.565 38.8054 107.145 36.0653 110.356 35.2198C116.011 33.7305 122.184 32.9176 128.641 32.822C137.305 32.6938 146.271 33.8603 154.917 36.2406C163.563 38.6209 171.681 42.1579 178.708 46.606C185.735 51.0542 191.502 56.3068 195.609 61.9992C199.716 67.6916 202.064 73.6873 202.491 79.57C202.918 85.4527 201.412 91.0814 198.08 96.0652C194.747 101.049 189.666 105.268 183.191 108.431C178.366 110.787 172.852 112.514 166.872 113.554C163.477 114.144 159.637 112.365 158.471 109.883C157.304 107.4 159.263 105.161 162.607 104.495C166.744 103.671 170.572 102.414 173.963 100.758C179.006 98.2953 182.961 95.0096 185.557 91.1288C188.152 87.248 189.324 82.865 188.992 78.2843C188.66 73.7035 186.831 69.0347 183.633 64.6021C180.435 60.1696 175.944 56.0794 170.472 52.6157C165.001 49.152 158.679 46.3978 151.946 44.5443C145.214 42.6907 138.232 41.7824 131.486 41.8823C126.948 41.9494 122.59 42.4716 118.546 43.4255C115.277 44.1964 111.057 43.3006 108.811 41.053Z" fill="url(#paint6_linear_424_18391)"/>
<path d="M108.811 41.053C106.565 38.8054 107.145 36.0653 110.356 35.2198C116.011 33.7305 122.184 32.9176 128.641 32.822C137.305 32.6938 146.271 33.8603 154.917 36.2406C163.563 38.6209 171.681 42.1579 178.708 46.606C185.735 51.0542 191.502 56.3068 195.609 61.9992C199.716 67.6916 202.064 73.6873 202.491 79.57C202.918 85.4527 201.412 91.0814 198.08 96.0652C194.747 101.049 189.666 105.268 183.191 108.431C178.366 110.787 172.852 112.514 166.872 113.554C163.477 114.144 159.637 112.365 158.471 109.883C157.304 107.4 159.263 105.161 162.607 104.495C166.744 103.671 170.572 102.414 173.963 100.758C179.006 98.2953 182.961 95.0096 185.557 91.1288C188.152 87.248 189.324 82.865 188.992 78.2843C188.66 73.7035 186.831 69.0347 183.633 64.6021C180.435 60.1696 175.944 56.0794 170.472 52.6157C165.001 49.152 158.679 46.3978 151.946 44.5443C145.214 42.6907 138.232 41.7824 131.486 41.8823C126.948 41.9494 122.59 42.4716 118.546 43.4255C115.277 44.1964 111.057 43.3006 108.811 41.053Z" stroke="white" stroke-opacity="0.54" stroke-width="1.21174" mask="url(#path-9-inside-1_424_18391)"/>
<path d="M122.771 84.33C123.059 84.6178 123.263 84.9309 123.384 85.2694C123.496 85.5999 123.557 85.9441 123.566 86.3018C123.578 86.6477 123.549 87.0032 123.478 87.3684C123.4 87.7257 123.318 88.079 123.231 88.4282C123.181 88.6107 123.134 88.8251 123.09 89.0713C123.046 89.3174 123.012 89.5597 122.989 89.798C122.966 90.0363 122.965 90.2609 122.987 90.4716C123.001 90.6744 123.055 90.8297 123.148 90.9376L128.046 89.1292L129.268 90.3524L122.255 92.9415C122.181 92.8815 122.1 92.8075 122.012 92.7196C121.916 92.6236 121.844 92.5517 121.796 92.5037C121.413 92.12 121.141 91.7389 120.98 91.3604C120.822 90.97 120.736 90.586 120.721 90.2084C120.707 89.8307 120.74 89.4573 120.821 89.0882C120.902 88.719 120.987 88.3538 121.076 87.9927C121.147 87.7149 121.211 87.445 121.268 87.183C121.326 86.921 121.356 86.6748 121.358 86.4443C121.362 86.2019 121.329 85.9731 121.26 85.7581C121.182 85.5351 121.047 85.3277 120.855 85.1358C120.44 84.7201 119.985 84.4831 119.492 84.4246C118.998 84.3662 118.523 84.4211 118.067 84.5894C117.77 84.699 117.527 84.8327 117.336 84.9906C117.146 85.1485 116.993 85.3086 116.88 85.4709C116.777 85.6293 116.699 85.7839 116.647 85.9346C116.586 86.0773 116.547 86.1904 116.528 86.2737L114.556 85.6067C114.681 85.1226 114.945 84.675 115.347 84.2639C115.752 83.841 116.299 83.5023 116.988 83.2479C118.165 82.8134 119.24 82.7062 120.215 82.9264C121.192 83.1346 122.045 83.6025 122.771 84.33ZM131.81 80.9931C132.098 81.2809 132.302 81.594 132.422 81.9325C132.535 82.263 132.596 82.6072 132.605 82.9649C132.617 83.3107 132.587 83.6663 132.517 84.0315C132.439 84.3888 132.356 84.742 132.27 85.0913C132.22 85.2738 132.173 85.4882 132.129 85.7343C132.084 85.9805 132.051 86.2227 132.028 86.4611C132.005 86.6994 132.004 86.924 132.026 87.1347C132.04 87.3375 132.094 87.4928 132.187 87.6006L137.085 85.7923L138.307 87.0154L131.294 89.6046C131.219 89.5446 131.138 89.4706 131.05 89.3827C130.954 89.2867 130.883 89.2148 130.835 89.1668C130.451 88.7831 130.179 88.402 130.019 88.0235C129.861 87.6331 129.775 87.2491 129.76 86.8714C129.745 86.4938 129.779 86.1204 129.86 85.7512C129.941 85.3821 130.026 85.0169 130.115 84.6558C130.186 84.378 130.25 84.1081 130.307 83.8461C130.365 83.5841 130.394 83.3378 130.396 83.1073C130.401 82.8649 130.368 82.6362 130.298 82.4212C130.221 82.1982 130.086 81.9908 129.894 81.7989C129.479 81.3832 129.024 81.1461 128.53 81.0877C128.037 81.0292 127.562 81.0842 127.106 81.2525C126.809 81.3621 126.565 81.4958 126.375 81.6537C126.184 81.8116 126.032 81.9717 125.919 82.134C125.816 82.2924 125.738 82.4469 125.685 82.5977C125.625 82.7404 125.585 82.8534 125.567 82.9368L123.594 82.2698C123.72 81.7857 123.984 81.338 124.386 80.927C124.79 80.504 125.337 80.1653 126.026 79.9109C127.203 79.4765 128.279 79.3693 129.254 79.5895C130.231 79.7977 131.083 80.2656 131.81 80.9931ZM145.387 81.3483C145.731 81.6921 145.971 82.0412 146.107 82.3957C146.244 82.7502 146.261 83.0941 146.159 83.4273C146.056 83.7606 145.827 84.0753 145.469 84.3713C145.123 84.6634 144.642 84.923 144.027 85.15C143.306 85.4162 142.631 85.5614 142.002 85.5856C141.373 85.6099 140.8 85.5589 140.282 85.4328C139.764 85.3066 139.31 85.1351 138.919 84.9183C138.531 84.6896 138.217 84.4553 137.977 84.2154C137.737 83.9756 137.56 83.7401 137.445 83.5089C137.333 83.2659 137.272 83.031 137.264 82.8044C137.247 82.5699 137.267 82.3434 137.325 82.1252C137.383 81.9069 137.467 81.7007 137.578 81.5066C136.834 81.4308 136.193 81.2901 135.654 81.0843C135.117 80.8666 134.633 80.542 134.201 80.1103C133.89 79.7985 133.674 79.4734 133.553 79.1349C133.435 78.7844 133.422 78.4446 133.514 78.1152C133.606 77.7858 133.805 77.477 134.112 77.1886C134.419 76.9002 134.837 76.6582 135.367 76.4625C135.993 76.2315 136.591 76.1038 137.161 76.0792C137.742 76.0507 138.279 76.0935 138.77 76.2076C139.272 76.3177 139.718 76.4812 140.109 76.6981C140.5 76.9149 140.819 77.1473 141.067 77.3951C141.506 77.8348 141.739 78.2852 141.764 78.7464C141.782 79.1995 141.683 79.6024 141.47 79.9549C142.351 79.9798 143.108 80.1053 143.74 80.3314C144.383 80.5537 144.932 80.8927 145.387 81.3483ZM139.845 83.4928C139.965 83.6127 140.125 83.7289 140.324 83.8413C140.524 83.9537 140.754 84.0385 141.014 84.0956C141.274 84.1527 141.561 84.1782 141.874 84.172C142.179 84.1579 142.507 84.0862 142.856 83.957C143.175 83.8396 143.418 83.7059 143.588 83.5558C143.757 83.4057 143.864 83.2513 143.908 83.0926C143.945 82.9259 143.933 82.7609 143.871 82.5976C143.801 82.4263 143.695 82.2687 143.551 82.1248C143.327 81.901 143.073 81.7266 142.789 81.6018C142.504 81.477 142.191 81.3957 141.849 81.358C141.509 81.3084 141.146 81.2944 140.762 81.3161C140.369 81.3297 139.956 81.3671 139.524 81.4283C139.326 81.753 139.242 82.0904 139.273 82.4403C139.295 82.7822 139.486 83.133 139.845 83.4928ZM139.214 78.1118C139.11 78.0079 138.967 77.9077 138.783 77.8113C138.602 77.703 138.391 77.6223 138.15 77.5693C137.918 77.5123 137.666 77.485 137.393 77.4874C137.12 77.4899 136.84 77.5439 136.554 77.6496C136.267 77.7553 136.054 77.8832 135.914 78.0335C135.776 78.1718 135.7 78.3204 135.685 78.4793C135.661 78.6302 135.682 78.7813 135.746 78.9327C135.802 79.0761 135.89 79.2078 136.01 79.3277C136.313 79.6315 136.749 79.8644 137.318 80.0267C137.897 80.185 138.622 80.2129 139.492 80.1106C139.7 79.7819 139.8 79.4605 139.791 79.1465C139.774 78.8245 139.582 78.4796 139.214 78.1118ZM150.982 81.2528C151.261 81.5326 151.362 81.8074 151.283 82.0772C151.215 82.3431 151.006 82.5406 150.656 82.6698C150.296 82.8029 149.906 82.8265 149.486 82.7407C149.066 82.6548 148.717 82.472 148.437 82.1922C148.158 81.9124 148.052 81.6395 148.12 81.3736C148.18 81.0998 148.39 80.8963 148.751 80.7632C149.101 80.634 149.489 80.6164 149.917 80.7102C150.347 80.7921 150.702 80.973 150.982 81.2528ZM147.462 74.6236C147.893 74.2127 148.273 73.7499 148.6 73.2351C148.938 72.7164 149.15 72.1731 149.235 71.6052L150.587 71.1062L158.891 79.4162L156.967 80.1266L150.604 73.7592C150.486 74.0327 150.289 74.3297 150.014 74.6501C149.739 74.9704 149.452 75.2569 149.153 75.5096L147.462 74.6236ZM164.097 77.4942C163.554 76.8631 163.058 76.1708 162.609 75.4171C162.161 74.6633 161.78 73.912 161.467 73.163C161.157 72.4022 160.917 71.6755 160.747 70.983C160.58 70.2786 160.5 69.668 160.506 69.1514L155.433 71.0243L154.187 69.7772L161.55 67.0588L162.652 68.1621C162.598 68.587 162.62 69.1316 162.718 69.7959C162.815 70.4602 163.002 71.1846 163.278 71.9691C163.546 72.7456 163.91 73.5525 164.369 74.3897C164.839 75.2231 165.406 76.0152 166.069 76.7662L164.097 77.4942Z" fill="#3F65B3"/>
<path d="M122.771 84.33C123.059 84.6178 123.263 84.9309 123.384 85.2694C123.496 85.5999 123.557 85.9441 123.566 86.3018C123.578 86.6477 123.549 87.0032 123.478 87.3684C123.4 87.7257 123.318 88.079 123.231 88.4282C123.181 88.6107 123.134 88.8251 123.09 89.0713C123.046 89.3174 123.012 89.5597 122.989 89.798C122.966 90.0363 122.965 90.2609 122.987 90.4716C123.001 90.6744 123.055 90.8297 123.148 90.9376L128.046 89.1292L129.268 90.3524L122.255 92.9415C122.181 92.8815 122.1 92.8075 122.012 92.7196C121.916 92.6236 121.844 92.5517 121.796 92.5037C121.413 92.12 121.141 91.7389 120.98 91.3604C120.822 90.97 120.736 90.586 120.721 90.2084C120.707 89.8307 120.74 89.4573 120.821 89.0882C120.902 88.719 120.987 88.3538 121.076 87.9927C121.147 87.7149 121.211 87.445 121.268 87.183C121.326 86.921 121.356 86.6748 121.358 86.4443C121.362 86.2019 121.329 85.9731 121.26 85.7581C121.182 85.5351 121.047 85.3277 120.855 85.1358C120.44 84.7201 119.985 84.4831 119.492 84.4246C118.998 84.3662 118.523 84.4211 118.067 84.5894C117.77 84.699 117.527 84.8327 117.336 84.9906C117.146 85.1485 116.993 85.3086 116.88 85.4709C116.777 85.6293 116.699 85.7839 116.647 85.9346C116.586 86.0773 116.547 86.1904 116.528 86.2737L114.556 85.6067C114.681 85.1226 114.945 84.675 115.347 84.2639C115.752 83.841 116.299 83.5023 116.988 83.2479C118.165 82.8134 119.24 82.7062 120.215 82.9264C121.192 83.1346 122.045 83.6025 122.771 84.33ZM131.81 80.9931C132.098 81.2809 132.302 81.594 132.422 81.9325C132.535 82.263 132.596 82.6072 132.605 82.9649C132.617 83.3107 132.587 83.6663 132.517 84.0315C132.439 84.3888 132.356 84.742 132.27 85.0913C132.22 85.2738 132.173 85.4882 132.129 85.7343C132.084 85.9805 132.051 86.2227 132.028 86.4611C132.005 86.6994 132.004 86.924 132.026 87.1347C132.04 87.3375 132.094 87.4928 132.187 87.6006L137.085 85.7923L138.307 87.0154L131.294 89.6046C131.219 89.5446 131.138 89.4706 131.05 89.3827C130.954 89.2867 130.883 89.2148 130.835 89.1668C130.451 88.7831 130.179 88.402 130.019 88.0235C129.861 87.6331 129.775 87.2491 129.76 86.8714C129.745 86.4938 129.779 86.1204 129.86 85.7512C129.941 85.3821 130.026 85.0169 130.115 84.6558C130.186 84.378 130.25 84.1081 130.307 83.8461C130.365 83.5841 130.394 83.3378 130.396 83.1073C130.401 82.8649 130.368 82.6362 130.298 82.4212C130.221 82.1982 130.086 81.9908 129.894 81.7989C129.479 81.3832 129.024 81.1461 128.53 81.0877C128.037 81.0292 127.562 81.0842 127.106 81.2525C126.809 81.3621 126.565 81.4958 126.375 81.6537C126.184 81.8116 126.032 81.9717 125.919 82.134C125.816 82.2924 125.738 82.4469 125.685 82.5977C125.625 82.7404 125.585 82.8534 125.567 82.9368L123.594 82.2698C123.72 81.7857 123.984 81.338 124.386 80.927C124.79 80.504 125.337 80.1653 126.026 79.9109C127.203 79.4765 128.279 79.3693 129.254 79.5895C130.231 79.7977 131.083 80.2656 131.81 80.9931ZM145.387 81.3483C145.731 81.6921 145.971 82.0412 146.107 82.3957C146.244 82.7502 146.261 83.0941 146.159 83.4273C146.056 83.7606 145.827 84.0753 145.469 84.3713C145.123 84.6634 144.642 84.923 144.027 85.15C143.306 85.4162 142.631 85.5614 142.002 85.5856C141.373 85.6099 140.8 85.5589 140.282 85.4328C139.764 85.3066 139.31 85.1351 138.919 84.9183C138.531 84.6896 138.217 84.4553 137.977 84.2154C137.737 83.9756 137.56 83.7401 137.445 83.5089C137.333 83.2659 137.272 83.031 137.264 82.8044C137.247 82.5699 137.267 82.3434 137.325 82.1252C137.383 81.9069 137.467 81.7007 137.578 81.5066C136.834 81.4308 136.193 81.2901 135.654 81.0843C135.117 80.8666 134.633 80.542 134.201 80.1103C133.89 79.7985 133.674 79.4734 133.553 79.1349C133.435 78.7844 133.422 78.4446 133.514 78.1152C133.606 77.7858 133.805 77.477 134.112 77.1886C134.419 76.9002 134.837 76.6582 135.367 76.4625C135.993 76.2315 136.591 76.1038 137.161 76.0792C137.742 76.0507 138.279 76.0935 138.77 76.2076C139.272 76.3177 139.718 76.4812 140.109 76.6981C140.5 76.9149 140.819 77.1473 141.067 77.3951C141.506 77.8348 141.739 78.2852 141.764 78.7464C141.782 79.1995 141.683 79.6024 141.47 79.9549C142.351 79.9798 143.108 80.1053 143.74 80.3314C144.383 80.5537 144.932 80.8927 145.387 81.3483ZM139.845 83.4928C139.965 83.6127 140.125 83.7289 140.324 83.8413C140.524 83.9537 140.754 84.0385 141.014 84.0956C141.274 84.1527 141.561 84.1782 141.874 84.172C142.179 84.1579 142.507 84.0862 142.856 83.957C143.175 83.8396 143.418 83.7059 143.588 83.5558C143.757 83.4057 143.864 83.2513 143.908 83.0926C143.945 82.9259 143.933 82.7609 143.871 82.5976C143.801 82.4263 143.695 82.2687 143.551 82.1248C143.327 81.901 143.073 81.7266 142.789 81.6018C142.504 81.477 142.191 81.3957 141.849 81.358C141.509 81.3084 141.146 81.2944 140.762 81.3161C140.369 81.3297 139.956 81.3671 139.524 81.4283C139.326 81.753 139.242 82.0904 139.273 82.4403C139.295 82.7822 139.486 83.133 139.845 83.4928ZM139.214 78.1118C139.11 78.0079 138.967 77.9077 138.783 77.8113C138.602 77.703 138.391 77.6223 138.15 77.5693C137.918 77.5123 137.666 77.485 137.393 77.4874C137.12 77.4899 136.84 77.5439 136.554 77.6496C136.267 77.7553 136.054 77.8832 135.914 78.0335C135.776 78.1718 135.7 78.3204 135.685 78.4793C135.661 78.6302 135.682 78.7813 135.746 78.9327C135.802 79.0761 135.89 79.2078 136.01 79.3277C136.313 79.6315 136.749 79.8644 137.318 80.0267C137.897 80.185 138.622 80.2129 139.492 80.1106C139.7 79.7819 139.8 79.4605 139.791 79.1465C139.774 78.8245 139.582 78.4796 139.214 78.1118ZM150.982 81.2528C151.261 81.5326 151.362 81.8074 151.283 82.0772C151.215 82.3431 151.006 82.5406 150.656 82.6698C150.296 82.8029 149.906 82.8265 149.486 82.7407C149.066 82.6548 148.717 82.472 148.437 82.1922C148.158 81.9124 148.052 81.6395 148.12 81.3736C148.18 81.0998 148.39 80.8963 148.751 80.7632C149.101 80.634 149.489 80.6164 149.917 80.7102C150.347 80.7921 150.702 80.973 150.982 81.2528ZM147.462 74.6236C147.893 74.2127 148.273 73.7499 148.6 73.2351C148.938 72.7164 149.15 72.1731 149.235 71.6052L150.587 71.1062L158.891 79.4162L156.967 80.1266L150.604 73.7592C150.486 74.0327 150.289 74.3297 150.014 74.6501C149.739 74.9704 149.452 75.2569 149.153 75.5096L147.462 74.6236ZM164.097 77.4942C163.554 76.8631 163.058 76.1708 162.609 75.4171C162.161 74.6633 161.78 73.912 161.467 73.163C161.157 72.4022 160.917 71.6755 160.747 70.983C160.58 70.2786 160.5 69.668 160.506 69.1514L155.433 71.0243L154.187 69.7772L161.55 67.0588L162.652 68.1621C162.598 68.587 162.62 69.1316 162.718 69.7959C162.815 70.4602 163.002 71.1846 163.278 71.9691C163.546 72.7456 163.91 73.5525 164.369 74.3897C164.839 75.2231 165.406 76.0152 166.069 76.7662L164.097 77.4942Z" fill="url(#paint7_linear_424_18391)"/>
<path d="M189.963 143.474L183.731 137.237L188.505 135.474L189.036 136.005L185.073 137.468L187.24 139.637L190.773 138.333L191.295 138.855L187.762 140.159L190.244 142.643L194.517 141.066L195.048 141.597L189.963 143.474ZM195.651 132.836L196.462 132.537L202.695 138.773L201.883 139.073L198.889 136.076L194.401 137.733L197.395 140.73L196.584 141.03L190.351 134.793L191.163 134.493L193.87 137.202L198.358 135.545L195.651 132.836ZM205.951 139.851L205.163 140.142L200.527 129.927L201.291 129.645L205.951 139.851ZM209.941 135.532C210.387 135.367 210.699 135.178 210.877 134.964C211.058 134.741 211.016 134.498 210.752 134.234C210.627 134.108 210.491 134.01 210.345 133.941C210.207 133.869 210.043 133.818 209.852 133.791C209.66 133.763 209.432 133.752 209.167 133.76C208.91 133.764 208.594 133.774 208.217 133.79C207.915 133.803 207.624 133.812 207.345 133.817C207.06 133.815 206.79 133.795 206.535 133.758C206.274 133.715 206.027 133.642 205.794 133.539C205.56 133.436 205.345 133.286 205.147 133.088C204.769 132.71 204.65 132.335 204.79 131.963C204.938 131.588 205.343 131.279 206.003 131.035C206.425 130.879 206.798 130.778 207.123 130.732C207.455 130.684 207.698 130.66 207.851 130.66L208.194 131.249C208.062 131.248 207.851 131.26 207.561 131.285C207.278 131.307 206.918 131.399 206.48 131.561C206.305 131.626 206.153 131.702 206.024 131.791C205.896 131.871 205.803 131.963 205.744 132.067C205.678 132.165 205.655 132.272 205.673 132.389C205.685 132.499 205.755 132.617 205.88 132.743C206.006 132.869 206.146 132.966 206.3 133.032C206.453 133.099 206.626 133.146 206.817 133.174C207.01 133.193 207.224 133.2 207.459 133.195C207.702 133.188 207.975 133.177 208.278 133.164C208.589 133.148 208.89 133.139 209.183 133.138C209.478 133.128 209.763 133.146 210.038 133.192C210.307 133.232 210.568 133.308 210.821 133.42C211.069 133.526 211.303 133.69 211.525 133.912C211.945 134.332 212.052 134.728 211.846 135.099C211.648 135.468 211.187 135.786 210.463 136.054C209.922 136.253 209.472 136.37 209.114 136.404C208.761 136.444 208.519 136.463 208.388 136.462L208.06 135.856C208.096 135.86 208.169 135.862 208.278 135.862C208.382 135.857 208.519 135.847 208.69 135.833C208.856 135.813 209.042 135.781 209.249 135.738C209.464 135.691 209.695 135.623 209.941 135.532Z" fill="black"/>
<defs>
<filter id="filter0_ddddd_424_18391" x="0.486489" y="17.3703" width="281.47" height="208.295" filterUnits="userSpaceOnUse" color-interpolation-filters="sRGB">
<feFlood flood-opacity="0" result="BackgroundImageFix"/>
<feColorMatrix in="SourceAlpha" type="matrix" values="0 0 0 0 0 0 0 0 0 0 0 0 0 0 0 0 0 0 127 0" result="hardAlpha"/>
<feOffset/>
<feColorMatrix type="matrix" values="0 0 0 0 0 0 0 0 0 0 0 0 0 0 0 0 0 0 0.05 0"/>
<feBlend mode="normal" in2="BackgroundImageFix" result="effect1_dropShadow_424_18391"/>
<feColorMatrix in="SourceAlpha" type="matrix" values="0 0 0 0 0 0 0 0 0 0 0 0 0 0 0 0 0 0 127 0" result="hardAlpha"/>
<feOffset dx="-0.715527" dy="1.43105"/>
<feGaussianBlur stdDeviation="2.14658"/>
<feColorMatrix type="matrix" values="0 0 0 0 0 0 0 0 0 0 0 0 0 0 0 0 0 0 0.05 0"/>
<feBlend mode="normal" in2="effect1_dropShadow_424_18391" result="effect2_dropShadow_424_18391"/>
<feColorMatrix in="SourceAlpha" type="matrix" values="0 0 0 0 0 0 0 0 0 0 0 0 0 0 0 0 0 0 127 0" result="hardAlpha"/>
<feOffset dx="-4.29316" dy="6.43974"/>
<feGaussianBlur stdDeviation="3.9354"/>
<feColorMatrix type="matrix" values="0 0 0 0 0 0 0 0 0 0 0 0 0 0 0 0 0 0 0.04 0"/>
<feBlend mode="normal" in2="effect2_dropShadow_424_18391" result="effect3_dropShadow_424_18391"/>
<feColorMatrix in="SourceAlpha" type="matrix" values="0 0 0 0 0 0 0 0 0 0 0 0 0 0 0 0 0 0 127 0" result="hardAlpha"/>
<feOffset dx="-9.30185" dy="14.3105"/>
<feGaussianBlur stdDeviation="5.36645"/>
<feColorMatrix type="matrix" values="0 0 0 0 0 0 0 0 0 0 0 0 0 0 0 0 0 0 0.03 0"/>
<feBlend mode="normal" in2="effect3_dropShadow_424_18391" result="effect4_dropShadow_424_18391"/>
<feColorMatrix in="SourceAlpha" type="matrix" values="0 0 0 0 0 0 0 0 0 0 0 0 0 0 0 0 0 0 127 0" result="hardAlpha"/>
<feOffset dx="-17.1726" dy="25.759"/>
<feGaussianBlur stdDeviation="6.08198"/>
<feColorMatrix type="matrix" values="0 0 0 0 0 0 0 0 0 0 0 0 0 0 0 0 0 0 0.01 0"/>
<feBlend mode="normal" in2="effect4_dropShadow_424_18391" result="effect5_dropShadow_424_18391"/>
<feBlend mode="normal" in="SourceGraphic" in2="effect5_dropShadow_424_18391" result="shape"/>
</filter>
<filter id="filter1_i_424_18391" x="29.8248" y="8.2334" width="248.552" height="172.593" filterUnits="userSpaceOnUse" color-interpolation-filters="sRGB">
<feFlood flood-opacity="0" result="BackgroundImageFix"/>
<feBlend mode="normal" in="SourceGraphic" in2="BackgroundImageFix" result="shape"/>
<feColorMatrix in="SourceAlpha" type="matrix" values="0 0 0 0 0 0 0 0 0 0 0 0 0 0 0 0 0 0 127 0" result="hardAlpha"/>
<feOffset dy="5.08566"/>
<feGaussianBlur stdDeviation="8.89991"/>
<feComposite in2="hardAlpha" operator="arithmetic" k2="-1" k3="1"/>
<feColorMatrix type="matrix" values="0 0 0 0 0 0 0 0 0 0 0 0 0 0 0 0 0 0 0.04 0"/>
<feBlend mode="normal" in2="shape" result="effect1_innerShadow_424_18391"/>
</filter>
<filter id="filter2_ddddd_424_18391" x="91.6929" y="31.7174" width="177.09" height="211.721" filterUnits="userSpaceOnUse" color-interpolation-filters="sRGB">
<feFlood flood-opacity="0" result="BackgroundImageFix"/>
<feColorMatrix in="SourceAlpha" type="matrix" values="0 0 0 0 0 0 0 0 0 0 0 0 0 0 0 0 0 0 127 0" result="hardAlpha"/>
<feOffset/>
<feColorMatrix type="matrix" values="0 0 0 0 0.00784314 0 0 0 0 0.376471 0 0 0 0 0.968627 0 0 0 0.2 0"/>
<feBlend mode="normal" in2="BackgroundImageFix" result="effect1_dropShadow_424_18391"/>
<feColorMatrix in="SourceAlpha" type="matrix" values="0 0 0 0 0 0 0 0 0 0 0 0 0 0 0 0 0 0 127 0" result="hardAlpha"/>
<feOffset dx="1.5767" dy="5.51844"/>
<feGaussianBlur stdDeviation="6.30679"/>
<feColorMatrix type="matrix" values="0 0 0 0 0.00784314 0 0 0 0 0.376471 0 0 0 0 0.968627 0 0 0 0.2 0"/>
<feBlend mode="normal" in2="effect1_dropShadow_424_18391" result="effect2_dropShadow_424_18391"/>
<feColorMatrix in="SourceAlpha" type="matrix" values="0 0 0 0 0 0 0 0 0 0 0 0 0 0 0 0 0 0 127 0" result="hardAlpha"/>
<feOffset dx="7.09513" dy="22.0737"/>
<feGaussianBlur stdDeviation="11.431"/>
<feColorMatrix type="matrix" values="0 0 0 0 0.00784314 0 0 0 0 0.376471 0 0 0 0 0.968627 0 0 0 0.17 0"/>
<feBlend mode="normal" in2="effect2_dropShadow_424_18391" result="effect3_dropShadow_424_18391"/>
<feColorMatrix in="SourceAlpha" type="matrix" values="0 0 0 0 0 0 0 0 0 0 0 0 0 0 0 0 0 0 127 0" result="hardAlpha"/>
<feOffset dx="16.5553" dy="48.8776"/>
<feGaussianBlur stdDeviation="15.3728"/>
<feColorMatrix type="matrix" values="0 0 0 0 0.00784314 0 0 0 0 0.376471 0 0 0 0 0.968627 0 0 0 0.1 0"/>
<feBlend mode="normal" in2="effect3_dropShadow_424_18391" result="effect4_dropShadow_424_18391"/>
<feColorMatrix in="SourceAlpha" type="matrix" values="0 0 0 0 0 0 0 0 0 0 0 0 0 0 0 0 0 0 127 0" result="hardAlpha"/>
<feOffset dx="29.1689" dy="86.7183"/>
<feGaussianBlur stdDeviation="18.5262"/>
<feColorMatrix type="matrix" values="0 0 0 0 0.00784314 0 0 0 0 0.376471 0 0 0 0 0.968627 0 0 0 0.03 0"/>
<feBlend mode="normal" in2="effect4_dropShadow_424_18391" result="effect5_dropShadow_424_18391"/>
<feBlend mode="normal" in="SourceGraphic" in2="effect5_dropShadow_424_18391" result="shape"/>
</filter>
<linearGradient id="paint0_linear_424_18391" x1="24.3883" y1="147.467" x2="3.35588" y2="156.581" gradientUnits="userSpaceOnUse">
<stop offset="0.029378" stop-color="#E4E6EF"/>
<stop offset="1" stop-color="#E4E6F3"/>
</linearGradient>
<linearGradient id="paint1_linear_424_18391" x1="77.9806" y1="0" x2="77.9806" y2="180.973" gradientUnits="userSpaceOnUse">
<stop stop-color="#F2F3F7"/>
<stop offset="1" stop-color="#F9FAFC"/>
</linearGradient>
<linearGradient id="paint2_linear_424_18391" x1="57.6363" y1="113.044" x2="57.9167" y2="113.643" gradientUnits="userSpaceOnUse">
<stop stop-color="#90B4FF"/>
<stop offset="1" stop-color="#93B0F7"/>
</linearGradient>
<linearGradient id="paint3_linear_424_18391" x1="57.6363" y1="112.044" x2="57.9167" y2="112.643" gradientUnits="userSpaceOnUse">
<stop stop-color="#90B4FF"/>
<stop offset="1" stop-color="#93B0F7"/>
</linearGradient>
<linearGradient id="paint4_linear_424_18391" x1="57.6363" y1="110.044" x2="57.9167" y2="110.643" gradientUnits="userSpaceOnUse">
<stop stop-color="#90B4FF"/>
<stop offset="1" stop-color="#93B0F7"/>
</linearGradient>
<linearGradient id="paint5_linear_424_18391" x1="57.6363" y1="109.044" x2="57.9167" y2="109.643" gradientUnits="userSpaceOnUse">
<stop stop-color="#90B4FF"/>
<stop offset="1" stop-color="#93B0F7"/>
</linearGradient>
<linearGradient id="paint6_linear_424_18391" x1="187.027" y1="165.341" x2="240.159" y2="101.828" gradientUnits="userSpaceOnUse">
<stop stop-color="#3F7BDD"/>
<stop offset="1" stop-color="#4282EC"/>
</linearGradient>
<linearGradient id="paint7_linear_424_18391" x1="138.864" y1="100.317" x2="159.207" y2="67.6994" gradientUnits="userSpaceOnUse">
<stop stop-color="#3F7BDD"/>
<stop offset="1" stop-color="#4282EC"/>
</linearGradient>
</defs>
</svg>
