<svg width="293" height="245" viewBox="0 0 293 245" fill="none" xmlns="http://www.w3.org/2000/svg">
<g filter="url(#filter0_d_978_40730)">
<rect width="155.961" height="180.973" rx="27.3" transform="matrix(0.938111 -0.346335 0.706854 0.70736 9.07941 66.9873)" fill="url(#paint0_linear_978_40730)"/>
</g>
<g filter="url(#filter1_i_978_40730)">
<rect width="155.961" height="180.973" rx="27.3" transform="matrix(0.938111 -0.346335 0.706854 0.70736 9.07932 54.9873)" fill="url(#paint1_linear_978_40730)"/>
</g>
<rect x="2.03976" y="0.447671" width="153.481" height="178.493" rx="26.06" transform="matrix(0.938111 -0.346335 0.706854 0.70736 8.88912 55.8248)" stroke="#3E4462" stroke-width="2.48"/>
<path d="M176.959 63.748C195.01 81.8113 190.224 103.623 166.272 112.465C142.319 121.308 108.269 113.834 90.2191 95.7711C72.1688 77.7078 76.9547 55.8965 100.907 47.0537C124.859 38.211 158.909 45.6847 176.959 63.748Z" stroke="#7C83AC" stroke-width="11.5115"/>
<g filter="url(#filter2_ddddd_978_40730)">
<path d="M100.905 47.052C98.6591 44.8044 99.2388 42.0643 102.449 41.2188C110.705 39.0448 120.027 38.3218 129.667 39.1374C141.564 40.1438 153.424 43.4493 163.786 48.6461C174.147 53.843 182.557 60.7039 187.977 68.3828C193.398 76.0617 195.592 84.2227 194.29 91.8594C192.988 99.496 188.246 106.274 180.649 111.358C173.052 116.442 162.932 119.61 151.537 120.47C140.143 121.33 127.972 119.845 116.526 116.199C107.25 113.243 98.7788 108.973 91.7831 103.759C89.063 101.732 89.4257 98.9485 92.2653 97.7147C95.1051 96.4808 99.3423 97.2704 102.141 99.2508C107.366 102.947 113.561 105.987 120.302 108.134C129.215 110.974 138.692 112.13 147.565 111.46C156.438 110.79 164.318 108.324 170.234 104.365C176.15 100.406 179.842 95.1281 180.856 89.1815C181.87 83.235 180.162 76.8801 175.941 70.9006C171.72 64.9212 165.171 59.5787 157.103 55.532C149.034 51.4852 139.799 48.9113 130.535 48.1276C123.53 47.5349 116.74 47.9857 110.64 49.4245C107.371 50.1954 103.151 49.2996 100.905 47.052Z" fill="url(#paint2_linear_978_40730)"/>
</g>
<path d="M100.905 46.052C98.6591 43.8044 99.2388 41.0643 102.449 40.2188C110.705 38.0448 120.027 37.3218 129.667 38.1374C141.564 39.1438 153.424 42.4493 163.786 47.6461C174.147 52.843 182.557 59.7039 187.977 67.3828C193.398 75.0617 195.592 83.2227 194.29 90.8594C192.988 98.496 188.246 105.274 180.649 110.358C173.052 115.442 162.932 118.61 151.537 119.47C140.143 120.33 127.972 118.845 116.526 115.199C107.25 112.243 98.7787 107.973 91.7831 102.759C89.063 100.732 89.4256 97.9485 92.2653 96.7147C95.105 95.4808 99.3423 96.2704 102.141 98.2508C107.366 101.947 113.561 104.987 120.302 107.134C129.215 109.974 138.692 111.13 147.565 110.46C156.438 109.79 164.318 107.324 170.234 103.365C176.149 99.4062 179.842 94.1281 180.856 88.1815C181.87 82.235 180.162 75.8801 175.941 69.9006C171.72 63.9212 165.171 58.5787 157.103 54.532C149.034 50.4852 139.799 47.9113 130.535 47.1276C123.53 46.5349 116.74 46.9857 110.639 48.4245C107.371 49.1954 103.151 48.2996 100.905 46.052Z" fill="url(#paint3_linear_978_40730)"/>
<path d="M100.905 46.052C98.6591 43.8044 99.2388 41.0643 102.449 40.2188C110.705 38.0448 120.027 37.3218 129.667 38.1374C141.564 39.1438 153.424 42.4493 163.786 47.6461C174.147 52.843 182.557 59.7039 187.977 67.3828C193.398 75.0617 195.592 83.2227 194.29 90.8594C192.988 98.496 188.246 105.274 180.649 110.358C173.052 115.442 162.932 118.61 151.537 119.47C140.143 120.33 127.972 118.845 116.526 115.199C107.25 112.243 98.7787 107.973 91.7831 102.759C89.063 100.732 89.4256 97.9485 92.2653 96.7147C95.105 95.4808 99.3423 96.2704 102.141 98.2508C107.366 101.947 113.561 104.987 120.302 107.134C129.215 109.974 138.692 111.13 147.565 110.46C156.438 109.79 164.318 107.324 170.234 103.365C176.149 99.4062 179.842 94.1281 180.856 88.1815C181.87 82.235 180.162 75.8801 175.941 69.9006C171.72 63.9212 165.171 58.5787 157.103 54.532C149.034 50.4852 139.799 47.9113 130.535 47.1276C123.53 46.5349 116.74 46.9857 110.639 48.4245C107.371 49.1954 103.151 48.2996 100.905 46.052Z" fill="url(#paint4_linear_978_40730)"/>
<path d="M100.905 44.052C98.6591 41.8044 99.2388 39.0643 102.449 38.2188C110.705 36.0448 120.027 35.3218 129.667 36.1374C141.564 37.1438 153.424 40.4493 163.786 45.6461C174.147 50.843 182.557 57.7039 187.977 65.3828C193.398 73.0617 195.592 81.2227 194.29 88.8594C192.988 96.496 188.246 103.274 180.649 108.358C173.052 113.442 162.932 116.61 151.537 117.47C140.143 118.33 127.972 116.845 116.526 113.199C107.25 110.243 98.7787 105.973 91.7831 100.759C89.063 98.7316 89.4256 95.9485 92.2653 94.7147C95.105 93.4808 99.3423 94.2704 102.141 96.2508C107.366 99.9473 113.561 102.987 120.302 105.134C129.215 107.974 138.692 109.13 147.565 108.46C156.438 107.79 164.318 105.324 170.234 101.365C176.149 97.4062 179.842 92.1281 180.856 86.1815C181.87 80.235 180.162 73.8801 175.941 67.9006C171.72 61.9212 165.171 56.5787 157.103 52.532C149.034 48.4852 139.799 45.9113 130.535 45.1276C123.53 44.5349 116.74 44.9857 110.639 46.4245C107.371 47.1954 103.151 46.2996 100.905 44.052Z" fill="url(#paint5_linear_978_40730)"/>
<path d="M100.905 44.052C98.6591 41.8044 99.2388 39.0643 102.449 38.2188C110.705 36.0448 120.027 35.3218 129.667 36.1374C141.564 37.1438 153.424 40.4493 163.786 45.6461C174.147 50.843 182.557 57.7039 187.977 65.3828C193.398 73.0617 195.592 81.2227 194.29 88.8594C192.988 96.496 188.246 103.274 180.649 108.358C173.052 113.442 162.932 116.61 151.537 117.47C140.143 118.33 127.972 116.845 116.526 113.199C107.25 110.243 98.7787 105.973 91.7831 100.759C89.063 98.7316 89.4256 95.9485 92.2653 94.7147C95.105 93.4808 99.3423 94.2704 102.141 96.2508C107.366 99.9473 113.561 102.987 120.302 105.134C129.215 107.974 138.692 109.13 147.565 108.46C156.438 107.79 164.318 105.324 170.234 101.365C176.149 97.4062 179.842 92.1281 180.856 86.1815C181.87 80.235 180.162 73.8801 175.941 67.9006C171.72 61.9212 165.171 56.5787 157.103 52.532C149.034 48.4852 139.799 45.9113 130.535 45.1276C123.53 44.5349 116.74 44.9857 110.639 46.4245C107.371 47.1954 103.151 46.2996 100.905 44.052Z" fill="url(#paint6_linear_978_40730)"/>
<path d="M100.905 43.052C98.6591 40.8044 99.2388 38.0643 102.449 37.2188C110.705 35.0448 120.027 34.3218 129.667 35.1374C141.564 36.1438 153.424 39.4493 163.786 44.6461C174.147 49.843 182.557 56.7039 187.977 64.3828C193.398 72.0617 195.592 80.2227 194.29 87.8594C192.988 95.496 188.246 102.274 180.649 107.358C173.052 112.442 162.932 115.61 151.537 116.47C140.143 117.33 127.972 115.845 116.526 112.199C107.25 109.243 98.7787 104.973 91.7831 99.759C89.063 97.7316 89.4256 94.9485 92.2653 93.7147C95.105 92.4808 99.3423 93.2704 102.141 95.2508C107.366 98.9473 113.561 101.987 120.302 104.134C129.215 106.974 138.692 108.13 147.565 107.46C156.438 106.79 164.318 104.324 170.234 100.365C176.149 96.4062 179.842 91.1281 180.856 85.1815C181.87 79.235 180.162 72.8801 175.941 66.9006C171.72 60.9212 165.171 55.5787 157.103 51.532C149.034 47.4852 139.799 44.9113 130.535 44.1276C123.53 43.5349 116.74 43.9857 110.639 45.4245C107.371 46.1954 103.151 45.2996 100.905 43.052Z" fill="url(#paint7_linear_978_40730)"/>
<path d="M100.905 43.052C98.6591 40.8044 99.2388 38.0643 102.449 37.2188C110.705 35.0448 120.027 34.3218 129.667 35.1374C141.564 36.1438 153.424 39.4493 163.786 44.6461C174.147 49.843 182.557 56.7039 187.977 64.3828C193.398 72.0617 195.592 80.2227 194.29 87.8594C192.988 95.496 188.246 102.274 180.649 107.358C173.052 112.442 162.932 115.61 151.537 116.47C140.143 117.33 127.972 115.845 116.526 112.199C107.25 109.243 98.7787 104.973 91.7831 99.759C89.063 97.7316 89.4256 94.9485 92.2653 93.7147C95.105 92.4808 99.3423 93.2704 102.141 95.2508C107.366 98.9473 113.561 101.987 120.302 104.134C129.215 106.974 138.692 108.13 147.565 107.46C156.438 106.79 164.318 104.324 170.234 100.365C176.149 96.4062 179.842 91.1281 180.856 85.1815C181.87 79.235 180.162 72.8801 175.941 66.9006C171.72 60.9212 165.171 55.5787 157.103 51.532C149.034 47.4852 139.799 44.9113 130.535 44.1276C123.53 43.5349 116.74 43.9857 110.639 45.4245C107.371 46.1954 103.151 45.2996 100.905 43.052Z" fill="url(#paint8_linear_978_40730)"/>
<mask id="path-9-inside-1_978_40730" fill="white">
<path d="M100.905 41.052C98.659 38.8044 99.2388 36.0643 102.449 35.2188C110.705 33.0447 120.028 32.3217 129.669 33.1375C141.566 34.1442 153.426 37.45 163.788 42.6474C174.15 47.8447 182.559 54.7062 187.979 62.3856C193.399 70.0649 195.593 78.2263 194.289 85.863C192.986 93.4998 188.243 100.278 180.644 105.361C173.046 110.445 162.924 113.611 151.529 114.47C140.134 115.329 127.962 113.843 116.516 110.196C107.24 107.239 98.7695 102.968 91.7747 97.7528C89.0551 95.7251 89.4186 92.9422 92.2587 91.7088C95.0989 90.4753 99.3361 91.2654 102.135 93.2461C107.359 96.9433 113.554 99.9834 120.295 102.132C129.208 104.972 138.685 106.129 147.559 105.461C156.432 104.792 164.313 102.326 170.23 98.3675C176.147 94.409 179.841 89.131 180.856 83.1844C181.871 77.2377 180.163 70.8826 175.942 64.9028C171.722 58.923 165.173 53.58 157.105 49.5329C149.036 45.4858 139.8 42.9116 130.536 42.1277C123.53 41.5349 116.74 41.9856 110.639 43.4245C107.371 44.1954 103.151 43.2996 100.905 41.052Z"/>
</mask>
<path d="M100.905 41.052C98.659 38.8044 99.2388 36.0643 102.449 35.2188C110.705 33.0447 120.028 32.3217 129.669 33.1375C141.566 34.1442 153.426 37.45 163.788 42.6474C174.15 47.8447 182.559 54.7062 187.979 62.3856C193.399 70.0649 195.593 78.2263 194.289 85.863C192.986 93.4998 188.243 100.278 180.644 105.361C173.046 110.445 162.924 113.611 151.529 114.47C140.134 115.329 127.962 113.843 116.516 110.196C107.24 107.239 98.7695 102.968 91.7747 97.7528C89.0551 95.7251 89.4186 92.9422 92.2587 91.7088C95.0989 90.4753 99.3361 91.2654 102.135 93.2461C107.359 96.9433 113.554 99.9834 120.295 102.132C129.208 104.972 138.685 106.129 147.559 105.461C156.432 104.792 164.313 102.326 170.23 98.3675C176.147 94.409 179.841 89.131 180.856 83.1844C181.871 77.2377 180.163 70.8826 175.942 64.9028C171.722 58.923 165.173 53.58 157.105 49.5329C149.036 45.4858 139.8 42.9116 130.536 42.1277C123.53 41.5349 116.74 41.9856 110.639 43.4245C107.371 44.1954 103.151 43.2996 100.905 41.052Z" fill="url(#paint9_linear_978_40730)" stroke="white" stroke-opacity="0.54" stroke-width="1.21174" mask="url(#path-9-inside-1_978_40730)"/>
<path d="M119.928 88.7748C119.124 89.0167 118.428 89.1697 117.839 89.2339C117.253 89.2862 116.795 89.3075 116.466 89.2977L115.869 87.9589C116.336 87.9615 116.86 87.9267 117.441 87.8545C118.032 87.7784 118.635 87.6268 119.25 87.3998C119.982 87.1297 120.406 86.8639 120.521 86.6022C120.64 86.3287 120.563 86.056 120.292 85.7842C120.108 85.6003 119.89 85.462 119.638 85.3691C119.385 85.2763 119.101 85.217 118.785 85.1914C118.469 85.1657 118.119 85.1638 117.734 85.1854C117.36 85.2032 116.95 85.2286 116.504 85.2619C116.088 85.2953 115.659 85.3167 115.219 85.3261C114.789 85.3316 114.362 85.3033 113.937 85.2413C113.515 85.1674 113.108 85.0438 112.717 84.8707C112.327 84.6976 111.964 84.4432 111.628 84.1074C111.077 83.5558 110.827 83.0079 110.878 82.4637C110.921 81.9115 111.338 81.4131 112.127 80.9685L110.785 79.6255L112.439 79.0149L113.733 80.3099C114.274 80.154 114.786 80.0417 115.268 79.9729C115.743 79.8961 116.133 79.8506 116.438 79.8365L117.227 81.1704C116.832 81.196 116.382 81.247 115.878 81.3237C115.385 81.3964 114.868 81.5325 114.327 81.7322C113.754 81.9435 113.405 82.182 113.278 82.4476C113.144 82.7051 113.213 82.9698 113.484 83.2416C113.644 83.4015 113.822 83.5217 114.019 83.6023C114.207 83.675 114.431 83.7239 114.688 83.7492C114.938 83.7665 115.224 83.7702 115.548 83.7601C115.864 83.742 116.215 83.7162 116.603 83.6826C117.165 83.65 117.709 83.6353 118.234 83.6382C118.763 83.6293 119.266 83.668 119.744 83.7541C120.214 83.8323 120.656 83.97 121.071 84.1671C121.496 84.3603 121.884 84.6327 122.236 84.9845C122.763 85.5121 123.001 86.048 122.95 86.5922C122.898 87.1364 122.43 87.6484 121.546 88.1283L123.044 89.6272L121.39 90.2378L119.928 88.7748ZM130.615 76.6218C130.902 76.9096 131.106 77.2227 131.227 77.5612C131.34 77.8917 131.4 78.2359 131.41 78.5936C131.421 78.9395 131.392 79.295 131.322 79.6602C131.243 80.0175 131.161 80.3707 131.075 80.72C131.025 80.9025 130.978 81.1169 130.933 81.363C130.889 81.6092 130.855 81.8514 130.832 82.0898C130.809 82.3281 130.809 82.5527 130.831 82.7634C130.845 82.9662 130.898 83.1215 130.991 83.2293L135.89 81.421L137.112 82.6441L130.099 85.2333C130.024 85.1733 129.943 85.0993 129.855 85.0114C129.759 84.9154 129.687 84.8435 129.639 84.7955C129.256 84.4118 128.984 84.0307 128.823 83.6522C128.665 83.2618 128.579 82.8778 128.565 82.5002C128.55 82.1225 128.583 81.7491 128.664 81.3799C128.745 81.0108 128.83 80.6456 128.919 80.2845C128.99 80.0067 129.054 79.7368 129.112 79.4748C129.169 79.2128 129.199 78.9666 129.201 78.7361C129.205 78.4936 129.173 78.2649 129.103 78.0499C129.025 77.8269 128.891 77.6195 128.699 77.4276C128.283 77.0119 127.829 76.7748 127.335 76.7164C126.841 76.6579 126.366 76.7129 125.91 76.8812C125.614 76.9908 125.37 77.1245 125.179 77.2824C124.989 77.4403 124.837 77.6004 124.723 77.7627C124.62 77.9211 124.542 78.0756 124.49 78.2264C124.429 78.3691 124.39 78.4822 124.372 78.5655L122.399 77.8985C122.525 77.4144 122.789 76.9668 123.191 76.5557C123.595 76.1327 124.142 75.7941 124.831 75.5396C126.008 75.1052 127.084 74.998 128.058 75.2182C129.036 75.4264 129.888 75.8943 130.615 76.6218ZM139.653 73.2848C139.941 73.5726 140.145 73.8858 140.266 74.2243C140.378 74.5548 140.439 74.8989 140.448 75.2567C140.46 75.6025 140.431 75.9581 140.36 76.3233C140.282 76.6806 140.2 77.0338 140.113 77.3831C140.063 77.5656 140.016 77.78 139.972 78.0261C139.928 78.2723 139.894 78.5145 139.871 78.7529C139.848 78.9912 139.847 79.2157 139.869 79.4265C139.883 79.6293 139.937 79.7846 140.03 79.8924L144.928 78.0841L146.15 79.3072L139.137 81.8964C139.063 81.8364 138.982 81.7624 138.894 81.6744C138.798 81.5785 138.726 81.5066 138.678 81.4586C138.295 81.0749 138.023 80.6938 137.862 80.3153C137.704 79.9249 137.618 79.5409 137.603 79.1632C137.589 78.7856 137.622 78.4122 137.703 78.043C137.784 77.6739 137.869 77.3087 137.958 76.9475C138.029 76.6697 138.093 76.3998 138.15 76.1379C138.208 75.8759 138.238 75.6296 138.239 75.3991C138.244 75.1567 138.211 74.928 138.142 74.713C138.064 74.49 137.929 74.2826 137.737 74.0907C137.322 73.675 136.867 73.4379 136.374 73.3795C135.88 73.321 135.405 73.3759 134.949 73.5443C134.652 73.6538 134.409 73.7876 134.218 73.9455C134.027 74.1034 133.875 74.2635 133.762 74.4258C133.659 74.5842 133.581 74.7387 133.529 74.8895C133.468 75.0322 133.429 75.1452 133.41 75.2286L131.438 74.5616C131.563 74.0774 131.827 73.6298 132.229 73.2188C132.634 72.7958 133.181 72.4571 133.87 72.2027C135.047 71.7683 136.122 71.6611 137.097 71.8813C138.074 72.0895 138.927 72.5574 139.653 73.2848ZM149.786 76.8815C150.066 77.1613 150.166 77.4361 150.088 77.7059C150.02 77.9718 149.811 78.1694 149.461 78.2985C149.1 78.4316 148.71 78.4552 148.291 78.3694C147.871 78.2835 147.521 78.1007 147.242 77.8209C146.962 77.5411 146.857 77.2683 146.925 77.0024C146.985 76.7285 147.195 76.525 147.556 76.3919C147.905 76.2627 148.294 76.2451 148.722 76.3389C149.152 76.4208 149.507 76.6017 149.786 76.8815ZM146.267 70.2523C146.698 69.8415 147.077 69.3786 147.405 68.8638C147.743 68.3451 147.954 67.8018 148.04 67.2339L149.392 66.7349L157.696 75.0449L155.772 75.7553L149.409 69.3879C149.29 69.6614 149.094 69.9584 148.819 70.2788C148.544 70.5991 148.257 70.8856 147.958 71.1383L146.267 70.2523Z" fill="#E9C058"/>
<path d="M154.146 145.307C155.316 144.875 156.355 144.721 157.264 144.846C158.172 144.97 158.935 145.342 159.553 145.96C159.907 146.314 160.126 146.647 160.211 146.961C160.289 147.269 160.252 147.558 160.097 147.828C159.937 148.093 159.666 148.345 159.284 148.584C158.904 148.815 158.432 149.035 157.867 149.243L156.745 149.657L159.155 152.069L158.344 152.369L152.228 146.249C152.455 146.083 152.747 145.918 153.105 145.753C153.465 145.579 153.812 145.43 154.146 145.307ZM154.713 145.825C154.41 145.936 154.161 146.041 153.964 146.138C153.769 146.226 153.602 146.305 153.463 146.372L156.215 149.126L157.241 148.747C157.679 148.586 158.055 148.422 158.369 148.257C158.685 148.083 158.915 147.899 159.06 147.706C159.207 147.504 159.255 147.285 159.204 147.049C159.154 146.813 158.984 146.551 158.697 146.263C158.421 145.987 158.117 145.787 157.786 145.663C157.463 145.536 157.127 145.467 156.779 145.456C156.432 145.436 156.083 145.463 155.73 145.535C155.378 145.608 155.039 145.704 154.713 145.825ZM162.721 144.26C162.975 144.166 163.229 144.093 163.482 144.041C163.743 143.986 163.932 143.957 164.049 143.955L164.398 144.516C164.31 144.515 164.155 144.54 163.932 144.589C163.711 144.63 163.441 144.709 163.123 144.826C162.789 144.95 162.536 145.068 162.365 145.18C162.202 145.289 162.101 145.368 162.061 145.415L166.135 149.492L165.36 149.779L160.926 145.342C161.059 145.202 161.267 145.035 161.552 144.84C161.83 144.639 162.219 144.445 162.721 144.26ZM172.767 143.865C173.133 144.231 173.394 144.591 173.551 144.944C173.715 145.294 173.775 145.621 173.73 145.925C173.693 146.226 173.564 146.499 173.342 146.746C173.113 146.986 172.792 147.183 172.379 147.335C171.965 147.488 171.53 147.571 171.074 147.583C170.612 147.589 170.149 147.534 169.684 147.418C169.228 147.3 168.778 147.117 168.335 146.869C167.9 146.619 167.499 146.311 167.134 145.945C166.768 145.579 166.503 145.221 166.338 144.871C166.182 144.519 166.122 144.192 166.159 143.89C166.197 143.58 166.331 143.305 166.559 143.065C166.781 142.819 167.099 142.619 167.513 142.466C167.927 142.314 168.365 142.234 168.827 142.228C169.283 142.215 169.742 142.272 170.205 142.397C170.669 142.513 171.119 142.696 171.554 142.946C171.997 143.193 172.402 143.499 172.767 143.865ZM171.944 144.169C171.362 143.587 170.721 143.192 170.022 142.982C169.316 142.766 168.656 142.771 168.044 142.997C167.431 143.224 167.12 143.577 167.109 144.057C167.093 144.531 167.376 145.059 167.957 145.641C168.539 146.223 169.179 146.619 169.879 146.829C170.579 147.039 171.235 147.031 171.848 146.804C172.461 146.578 172.775 146.228 172.792 145.754C172.808 145.28 172.525 144.751 171.944 144.169ZM172.06 137.745C172.394 137.621 172.686 137.543 172.934 137.508C173.185 137.465 173.357 137.446 173.451 137.453L173.8 138.014C173.682 138.017 173.521 138.035 173.316 138.07C173.113 138.095 172.88 138.157 172.617 138.254C172.068 138.456 171.779 138.707 171.75 139.005C171.729 139.3 171.95 139.679 172.411 140.141L172.897 140.627L175.38 139.71L175.874 140.205L173.392 141.122L177.547 145.28L176.771 145.566L171.618 140.409C171.012 139.803 170.739 139.279 170.8 138.838C170.868 138.394 171.288 138.03 172.06 137.745ZM182.035 143.623L181.259 143.909L176.609 139.256L177.385 138.97L182.035 143.623ZM176.161 137.5C176.299 137.638 176.354 137.769 176.327 137.894C176.293 138.013 176.197 138.102 176.038 138.161C175.879 138.22 175.704 138.231 175.515 138.194C175.32 138.151 175.153 138.061 175.015 137.923C174.877 137.785 174.825 137.656 174.859 137.537C174.886 137.412 174.979 137.32 175.138 137.261C175.298 137.202 175.475 137.194 175.67 137.237C175.86 137.274 176.023 137.362 176.161 137.5ZM180.169 137.942L182.628 137.034L183.123 137.529L180.664 138.437L183.137 140.912C183.401 141.176 183.645 141.381 183.868 141.529C184.094 141.667 184.307 141.761 184.509 141.81C184.71 141.859 184.905 141.869 185.094 141.84C185.283 141.811 185.473 141.762 185.664 141.691C185.991 141.571 186.226 141.447 186.371 141.319C186.51 141.186 186.611 141.075 186.675 140.986L187.352 141.401C187.294 141.496 187.162 141.631 186.956 141.806C186.743 141.975 186.474 142.119 186.147 142.24C185.765 142.381 185.407 142.464 185.073 142.489C184.74 142.505 184.419 142.467 184.11 142.376C183.803 142.276 183.504 142.123 183.212 141.919C182.921 141.714 182.619 141.456 182.307 141.144L178.027 136.86L178.694 136.466L180.169 137.942ZM191.362 139.033C191.476 139.049 191.608 139.062 191.76 139.071C191.919 139.078 192.091 139.076 192.276 139.065C192.462 139.055 192.653 139.033 192.85 139.002C193.041 138.964 193.228 138.911 193.411 138.844C193.793 138.703 194.063 138.537 194.222 138.347C194.383 138.148 194.459 137.935 194.45 137.709C194.435 137.476 194.35 137.232 194.193 136.978C194.031 136.717 193.821 136.458 193.563 136.2C192.952 135.588 192.281 135.195 191.552 135.021C190.816 134.841 190.114 134.874 189.446 135.121C189.064 135.262 188.768 135.391 188.56 135.51C188.353 135.619 188.205 135.71 188.115 135.784L191.362 139.033ZM193.862 141.535L193.086 141.822L186.935 135.666C187.106 135.521 187.343 135.355 187.647 135.169C187.951 134.983 188.378 134.788 188.927 134.585C189.381 134.418 189.847 134.324 190.327 134.303C190.809 134.272 191.286 134.314 191.759 134.427C192.239 134.537 192.701 134.716 193.144 134.963C193.595 135.207 194.009 135.518 194.387 135.896C194.741 136.25 195.004 136.601 195.176 136.948C195.351 137.286 195.426 137.607 195.404 137.911C195.375 138.209 195.245 138.483 195.015 138.732C194.793 138.978 194.459 139.184 194.013 139.348C193.607 139.498 193.211 139.587 192.825 139.614C192.441 139.633 192.142 139.628 191.929 139.6L193.862 141.535ZM195.682 135.393C195.274 134.985 194.996 134.603 194.848 134.248C194.701 133.883 194.649 133.553 194.692 133.258C194.743 132.96 194.879 132.704 195.102 132.491C195.326 132.268 195.609 132.094 195.951 131.968C196.707 131.688 197.494 131.653 198.311 131.86C199.136 132.065 199.936 132.554 200.709 133.328C200.757 133.376 200.801 133.425 200.841 133.476C200.889 133.524 200.93 133.571 200.964 133.616L196.631 135.215C197.225 135.777 197.85 136.145 198.505 136.322C199.161 136.499 199.871 136.446 200.635 136.164C201.057 136.009 201.361 135.855 201.548 135.704C201.735 135.553 201.863 135.436 201.932 135.353L202.579 135.804C202.515 135.893 202.362 136.028 202.117 136.209C201.881 136.386 201.556 136.551 201.142 136.704C200.601 136.904 200.079 137.014 199.577 137.035C199.076 137.056 198.593 137.004 198.131 136.879C197.668 136.754 197.235 136.566 196.829 136.313C196.418 136.054 196.036 135.747 195.682 135.393ZM199.694 133.407C199.192 132.927 198.663 132.605 198.107 132.441C197.551 132.276 197.01 132.291 196.485 132.485C196.206 132.588 195.998 132.722 195.859 132.889C195.728 133.052 195.651 133.237 195.628 133.442C195.606 133.639 195.641 133.848 195.731 134.069C195.83 134.288 195.973 134.502 196.161 134.712L199.694 133.407ZM202.281 129.655C202.536 129.561 202.79 129.488 203.043 129.436C203.303 129.381 203.492 129.352 203.61 129.349L203.958 129.911C203.871 129.91 203.716 129.935 203.493 129.984C203.272 130.025 203.002 130.104 202.684 130.221C202.35 130.345 202.097 130.462 201.926 130.575C201.763 130.684 201.662 130.763 201.622 130.81L205.696 134.887L204.92 135.174L200.487 130.737C200.62 130.597 200.828 130.43 201.112 130.235C201.39 130.033 201.78 129.84 202.281 129.655ZM216.862 130.568C216.691 130.713 216.454 130.879 216.15 131.065C215.846 131.251 215.419 131.446 214.87 131.648C214.417 131.816 213.949 131.914 213.467 131.944C212.987 131.966 212.507 131.921 212.026 131.811C211.554 131.698 211.092 131.519 210.641 131.275C210.198 131.028 209.788 130.715 209.41 130.337C209.056 129.983 208.792 129.637 208.618 129.299C208.445 128.952 208.371 128.627 208.394 128.323C208.416 128.019 208.539 127.743 208.761 127.497C208.991 127.248 209.329 127.041 209.775 126.876C210.181 126.727 210.576 126.642 210.96 126.624C211.346 126.596 211.646 126.596 211.859 126.624L209.359 124.122L210.027 123.728L216.862 130.568ZM212.426 127.191C212.312 127.176 212.176 127.164 212.017 127.158C211.865 127.148 211.697 127.148 211.512 127.159C211.327 127.17 211.138 127.194 210.947 127.232C210.75 127.264 210.56 127.313 210.377 127.381C209.995 127.522 209.724 127.692 209.563 127.891C209.411 128.087 209.342 128.301 209.356 128.534C209.365 128.761 209.45 129.004 209.613 129.265C209.769 129.519 209.976 129.775 210.234 130.033C210.845 130.645 211.519 131.042 212.254 131.222C212.984 131.396 213.683 131.36 214.351 131.113C214.733 130.972 215.028 130.847 215.235 130.737C215.443 130.619 215.592 130.523 215.682 130.449L212.426 127.191ZM220.582 128.813C220.884 128.701 221.141 128.598 221.352 128.504C221.565 128.401 221.739 128.308 221.874 128.225L220.237 126.587C220.119 126.589 219.95 126.611 219.729 126.651C219.502 126.686 219.222 126.765 218.887 126.888C218.697 126.958 218.51 127.044 218.327 127.144C218.138 127.239 217.992 127.354 217.889 127.491C217.78 127.621 217.729 127.767 217.738 127.928C217.746 128.089 217.849 128.269 218.047 128.467C218.221 128.641 218.404 128.775 218.595 128.868C218.795 128.959 218.998 129.015 219.205 129.037C219.421 129.057 219.642 129.049 219.869 129.014C220.098 128.971 220.335 128.904 220.582 128.813ZM216.176 124.501C216.581 124.351 216.969 124.27 217.337 124.257C217.707 124.235 218.058 124.27 218.389 124.361C218.714 124.447 219.021 124.58 219.311 124.76C219.6 124.941 219.868 125.154 220.113 125.4L223.045 128.334C222.984 128.382 222.889 128.445 222.762 128.525C222.629 128.599 222.475 128.685 222.3 128.782C222.125 128.88 221.92 128.98 221.685 129.083C221.465 129.189 221.227 129.289 220.972 129.383C220.646 129.503 220.317 129.588 219.984 129.637C219.66 129.683 219.337 129.687 219.016 129.649C218.697 129.603 218.388 129.512 218.089 129.376C217.792 129.231 217.511 129.026 217.248 128.762C216.996 128.51 216.844 128.271 216.791 128.044C216.738 127.817 216.771 127.604 216.887 127.404C216.998 127.199 217.186 127.011 217.45 126.839C217.715 126.668 218.034 126.513 218.408 126.375C218.519 126.334 218.64 126.297 218.772 126.265C218.905 126.224 219.037 126.192 219.166 126.169C219.297 126.137 219.412 126.115 219.509 126.104C219.609 126.084 219.68 126.074 219.724 126.074L219.436 125.786C219.275 125.624 219.103 125.474 218.921 125.335C218.733 125.191 218.524 125.08 218.293 125.001C218.063 124.913 217.813 124.87 217.542 124.871C217.273 124.864 216.98 124.919 216.661 125.036C216.208 125.204 215.894 125.353 215.719 125.483C215.544 125.613 215.42 125.712 215.346 125.78L214.726 125.307C214.814 125.209 214.976 125.088 215.212 124.943C215.457 124.795 215.778 124.648 216.176 124.501ZM226.914 127.19C226.286 126.92 225.65 126.633 225.008 126.329C224.373 126.021 223.748 125.705 223.131 125.383C222.517 125.051 221.921 124.717 221.344 124.379C220.762 124.036 220.212 123.693 219.695 123.35L220.518 123.046C220.894 123.301 221.317 123.572 221.788 123.858C222.253 124.138 222.746 124.425 223.267 124.717C223.795 125.006 224.349 125.299 224.928 125.594C225.506 125.89 226.095 126.174 226.693 126.446C226.497 126.009 226.301 125.601 226.107 125.221C225.912 124.841 225.709 124.468 225.496 124.103C225.286 123.729 225.061 123.352 224.823 122.972C224.593 122.589 224.339 122.177 224.063 121.737L224.839 121.451C225.454 122.414 226.009 123.368 226.504 124.31C226.999 125.253 227.397 126.136 227.699 126.961C227.817 127.287 227.893 127.575 227.926 127.826C227.965 128.083 227.947 128.311 227.874 128.51C227.809 128.707 227.676 128.884 227.473 129.041C227.278 129.195 227.006 129.336 226.656 129.466C226.457 129.539 226.256 129.589 226.053 129.614C225.858 129.637 225.731 129.647 225.673 129.643L225.343 129.1C225.393 129.106 225.504 129.098 225.677 129.075C225.865 129.055 226.038 129.016 226.197 128.957C226.42 128.875 226.601 128.784 226.74 128.683C226.887 128.579 226.987 128.456 227.04 128.313C227.099 128.176 227.116 128.018 227.089 127.839C227.071 127.657 227.012 127.441 226.914 127.19Z" fill="#AAAAAA"/>
<defs>
<filter id="filter0_d_978_40730" x="11.9184" y="20.2319" width="268.552" height="187.509" filterUnits="userSpaceOnUse" color-interpolation-filters="sRGB">
<feFlood flood-opacity="0" result="BackgroundImageFix"/>
<feColorMatrix in="SourceAlpha" type="matrix" values="0 0 0 0 0 0 0 0 0 0 0 0 0 0 0 0 0 0 127 0" result="hardAlpha"/>
<feOffset dy="10"/>
<feGaussianBlur stdDeviation="5"/>
<feComposite in2="hardAlpha" operator="out"/>
<feColorMatrix type="matrix" values="0 0 0 0 0.0625 0 0 0 0 0.0625 0 0 0 0 0.0625 0 0 0 0.12 0"/>
<feBlend mode="normal" in2="BackgroundImageFix" result="effect1_dropShadow_978_40730"/>
<feBlend mode="normal" in="SourceGraphic" in2="effect1_dropShadow_978_40730" result="shape"/>
</filter>
<filter id="filter1_i_978_40730" x="21.9183" y="8.23193" width="248.552" height="172.347" filterUnits="userSpaceOnUse" color-interpolation-filters="sRGB">
<feFlood flood-opacity="0" result="BackgroundImageFix"/>
<feBlend mode="normal" in="SourceGraphic" in2="BackgroundImageFix" result="shape"/>
<feColorMatrix in="SourceAlpha" type="matrix" values="0 0 0 0 0 0 0 0 0 0 0 0 0 0 0 0 0 0 127 0" result="hardAlpha"/>
<feOffset dy="4.83828"/>
<feGaussianBlur stdDeviation="8.46699"/>
<feComposite in2="hardAlpha" operator="arithmetic" k2="-1" k3="1"/>
<feColorMatrix type="matrix" values="0 0 0 0 0 0 0 0 0 0 0 0 0 0 0 0 0 0 0.04 0"/>
<feBlend mode="normal" in2="shape" result="effect1_innerShadow_978_40730"/>
</filter>
<filter id="filter2_ddddd_978_40730" x="74.1603" y="31.7164" width="186.717" height="212.762" filterUnits="userSpaceOnUse" color-interpolation-filters="sRGB">
<feFlood flood-opacity="0" result="BackgroundImageFix"/>
<feColorMatrix in="SourceAlpha" type="matrix" values="0 0 0 0 0 0 0 0 0 0 0 0 0 0 0 0 0 0 127 0" result="hardAlpha"/>
<feOffset/>
<feColorMatrix type="matrix" values="0 0 0 0 0.913725 0 0 0 0 0.752941 0 0 0 0 0.345098 0 0 0 0.2 0"/>
<feBlend mode="normal" in2="BackgroundImageFix" result="effect1_dropShadow_978_40730"/>
<feColorMatrix in="SourceAlpha" type="matrix" values="0 0 0 0 0 0 0 0 0 0 0 0 0 0 0 0 0 0 127 0" result="hardAlpha"/>
<feOffset dx="1.5767" dy="5.51844"/>
<feGaussianBlur stdDeviation="6.30679"/>
<feColorMatrix type="matrix" values="0 0 0 0 0.913725 0 0 0 0 0.752941 0 0 0 0 0.345098 0 0 0 0.2 0"/>
<feBlend mode="normal" in2="effect1_dropShadow_978_40730" result="effect2_dropShadow_978_40730"/>
<feColorMatrix in="SourceAlpha" type="matrix" values="0 0 0 0 0 0 0 0 0 0 0 0 0 0 0 0 0 0 127 0" result="hardAlpha"/>
<feOffset dx="7.09513" dy="22.0737"/>
<feGaussianBlur stdDeviation="11.431"/>
<feColorMatrix type="matrix" values="0 0 0 0 0.913725 0 0 0 0 0.752941 0 0 0 0 0.345098 0 0 0 0.17 0"/>
<feBlend mode="normal" in2="effect2_dropShadow_978_40730" result="effect3_dropShadow_978_40730"/>
<feColorMatrix in="SourceAlpha" type="matrix" values="0 0 0 0 0 0 0 0 0 0 0 0 0 0 0 0 0 0 127 0" result="hardAlpha"/>
<feOffset dx="16.5553" dy="48.8776"/>
<feGaussianBlur stdDeviation="15.3728"/>
<feColorMatrix type="matrix" values="0 0 0 0 0.913725 0 0 0 0 0.752941 0 0 0 0 0.345098 0 0 0 0.1 0"/>
<feBlend mode="normal" in2="effect3_dropShadow_978_40730" result="effect4_dropShadow_978_40730"/>
<feColorMatrix in="SourceAlpha" type="matrix" values="0 0 0 0 0 0 0 0 0 0 0 0 0 0 0 0 0 0 127 0" result="hardAlpha"/>
<feOffset dx="29.1689" dy="86.7183"/>
<feGaussianBlur stdDeviation="18.5262"/>
<feColorMatrix type="matrix" values="0 0 0 0 0.913725 0 0 0 0 0.752941 0 0 0 0 0.345098 0 0 0 0.03 0"/>
<feBlend mode="normal" in2="effect4_dropShadow_978_40730" result="effect5_dropShadow_978_40730"/>
<feBlend mode="normal" in="SourceGraphic" in2="effect5_dropShadow_978_40730" result="shape"/>
</filter>
<linearGradient id="paint0_linear_978_40730" x1="11.4614" y1="191.355" x2="-59.4357" y2="31.3898" gradientUnits="userSpaceOnUse">
<stop offset="0.029378" stop-color="#2C3045"/>
<stop offset="1" stop-color="#6371AA"/>
</linearGradient>
<linearGradient id="paint1_linear_978_40730" x1="59.2914" y1="-52.7199" x2="252.826" y2="219.778" gradientUnits="userSpaceOnUse">
<stop stop-color="#121830"/>
<stop offset="0.9999" stop-color="#25242B"/>
</linearGradient>
<linearGradient id="paint2_linear_978_40730" x1="49.7301" y1="113.043" x2="50.0105" y2="113.642" gradientUnits="userSpaceOnUse">
<stop stop-color="#FCD87C"/>
<stop offset="1" stop-color="#F8DE9F"/>
</linearGradient>
<linearGradient id="paint3_linear_978_40730" x1="49.7301" y1="112.043" x2="50.0105" y2="112.642" gradientUnits="userSpaceOnUse">
<stop stop-color="#90B4FF"/>
<stop offset="1" stop-color="#93B0F7"/>
</linearGradient>
<linearGradient id="paint4_linear_978_40730" x1="49.7301" y1="112.043" x2="50.0105" y2="112.642" gradientUnits="userSpaceOnUse">
<stop stop-color="#FCD87C"/>
<stop offset="1" stop-color="#F8DE9F"/>
</linearGradient>
<linearGradient id="paint5_linear_978_40730" x1="49.7301" y1="110.043" x2="50.0105" y2="110.642" gradientUnits="userSpaceOnUse">
<stop stop-color="#90B4FF"/>
<stop offset="1" stop-color="#93B0F7"/>
</linearGradient>
<linearGradient id="paint6_linear_978_40730" x1="49.7301" y1="110.043" x2="50.0105" y2="110.642" gradientUnits="userSpaceOnUse">
<stop stop-color="#FCD87C"/>
<stop offset="1" stop-color="#F8DE9F"/>
</linearGradient>
<linearGradient id="paint7_linear_978_40730" x1="49.7301" y1="109.043" x2="50.0105" y2="109.642" gradientUnits="userSpaceOnUse">
<stop stop-color="#90B4FF"/>
<stop offset="1" stop-color="#93B0F7"/>
</linearGradient>
<linearGradient id="paint8_linear_978_40730" x1="49.7301" y1="109.043" x2="50.0105" y2="109.642" gradientUnits="userSpaceOnUse">
<stop stop-color="#FCD87C"/>
<stop offset="1" stop-color="#F8DE9F"/>
</linearGradient>
<linearGradient id="paint9_linear_978_40730" x1="96.8383" y1="36.9824" x2="129.553" y2="125.595" gradientUnits="userSpaceOnUse">
<stop stop-color="#E9C058"/>
<stop offset="1" stop-color="#FEDA80"/>
</linearGradient>
</defs>
</svg>
