<svg width="348" height="269" viewBox="0 0 348 269" fill="none" xmlns="http://www.w3.org/2000/svg">
<g filter="url(#filter0_d_978_37045)">
<rect width="260.999" height="137.998" rx="23.9781" transform="matrix(0.938021 -0.346579 0.706571 0.707642 3.04675 99.9917)" fill="url(#paint0_linear_978_37045)"/>
</g>
<g filter="url(#filter1_i_978_37045)">
<rect width="260.999" height="137.998" rx="23.9781" transform="matrix(0.93797 -0.346716 0.706412 0.707801 4.04675 90.9917)" fill="url(#paint1_linear_978_37045)"/>
</g>
<rect x="1.79223" y="0.393551" width="258.819" height="135.818" rx="22.8881" transform="matrix(0.93797 -0.346716 0.706412 0.707801 3.87992 91.7281)" stroke="white" stroke-width="2.17982"/>
<line y1="-0.477846" x2="233.999" y2="-0.477846" transform="matrix(0.937973 -0.346707 0.706422 0.707791 104.047 171.99)" stroke="#C4BEBE" stroke-width="0.955692"/>
<line y1="-0.126065" x2="233.999" y2="-0.126065" transform="matrix(0.937973 -0.346707 0.706422 0.707791 85.0466 152.99)" stroke="#C4BEBE" stroke-width="0.25213"/>
<line y1="-0.126065" x2="233.999" y2="-0.126065" transform="matrix(0.937973 -0.346707 0.706422 0.707791 66.0468 133.99)" stroke="#C4BEBE" stroke-width="0.25213"/>
<line y1="-0.126065" x2="233.999" y2="-0.126065" transform="matrix(0.937973 -0.346707 0.706422 0.707791 47.047 114.991)" stroke="#C4BEBE" stroke-width="0.25213"/>
<line y1="-0.126065" x2="233.999" y2="-0.126065" transform="matrix(0.937973 -0.346707 0.706422 0.707791 28.0469 95.9912)" stroke="#C4BEBE" stroke-width="0.25213"/>
<path d="M102.176 170.128L140.535 155.957L178.842 141.806C186.078 139.133 192.63 135.813 198.356 131.919L209.814 124.128C215.138 120.508 222.125 118.121 230.037 117.219L245.352 115.474C254.735 114.405 260.956 109.305 260.894 102.731V102.731L259.752 82.1569L257.218 68.7619L250.971 35.0756" stroke="url(#paint2_linear_978_37045)" stroke-width="4.20216" stroke-linecap="round"/>
<defs>
<filter id="filter0_d_978_37045" x="0.918393" y="15.9155" width="346.584" height="252.607" filterUnits="userSpaceOnUse" color-interpolation-filters="sRGB">
<feFlood flood-opacity="0" result="BackgroundImageFix"/>
<feColorMatrix in="SourceAlpha" type="matrix" values="0 0 0 0 0 0 0 0 0 0 0 0 0 0 0 0 0 0 127 0" result="hardAlpha"/>
<feOffset dy="63.8562"/>
<feGaussianBlur stdDeviation="6.70096"/>
<feComposite in2="hardAlpha" operator="out"/>
<feColorMatrix type="matrix" values="0 0 0 0 0 0 0 0 0 0 0 0 0 0 0 0 0 0 0.03 0"/>
<feBlend mode="normal" in2="BackgroundImageFix" result="effect1_dropShadow_978_37045"/>
<feBlend mode="normal" in="SourceGraphic" in2="effect1_dropShadow_978_37045" result="shape"/>
</filter>
<filter id="filter1_i_978_37045" x="15.3186" y="6.88184" width="319.749" height="181.216" filterUnits="userSpaceOnUse" color-interpolation-filters="sRGB">
<feFlood flood-opacity="0" result="BackgroundImageFix"/>
<feBlend mode="normal" in="SourceGraphic" in2="BackgroundImageFix" result="shape"/>
<feColorMatrix in="SourceAlpha" type="matrix" values="0 0 0 0 0 0 0 0 0 0 0 0 0 0 0 0 0 0 127 0" result="hardAlpha"/>
<feOffset dy="5.81286"/>
<feGaussianBlur stdDeviation="10.1725"/>
<feComposite in2="hardAlpha" operator="arithmetic" k2="-1" k3="1"/>
<feColorMatrix type="matrix" values="0 0 0 0 0 0 0 0 0 0 0 0 0 0 0 0 0 0 0.04 0"/>
<feBlend mode="normal" in2="shape" result="effect1_innerShadow_978_37045"/>
</filter>
<linearGradient id="paint0_linear_978_37045" x1="40.8134" y1="112.449" x2="18.8605" y2="133.326" gradientUnits="userSpaceOnUse">
<stop offset="0.029378" stop-color="#E4E6EF"/>
<stop offset="1" stop-color="#E4E6F3"/>
</linearGradient>
<linearGradient id="paint1_linear_978_37045" x1="130.499" y1="0" x2="130.499" y2="137.998" gradientUnits="userSpaceOnUse">
<stop stop-color="#F2F3F7"/>
<stop offset="1" stop-color="#F9FAFC"/>
</linearGradient>
<linearGradient id="paint2_linear_978_37045" x1="182.042" y1="45.9798" x2="157.734" y2="187.302" gradientUnits="userSpaceOnUse">
<stop stop-color="#E6BF60"/>
<stop offset="1" stop-color="#E8C35E" stop-opacity="0"/>
</linearGradient>
</defs>
</svg>
