<svg width="376" height="310" viewBox="0 0 376 310" fill="none" xmlns="http://www.w3.org/2000/svg">
<g filter="url(#filter0_ddddd_424_18946)">
<rect width="198.281" height="229.022" rx="25.9689" transform="matrix(0.938191 -0.346117 0.707107 0.707107 16.4961 83.6279)" fill="url(#paint0_linear_424_18946)"/>
</g>
<g filter="url(#filter1_i_424_18946)">
<rect width="198.281" height="229.022" rx="25.9725" transform="matrix(0.938191 -0.346117 0.707107 0.707107 16.4973 68.6282)" fill="url(#paint1_linear_424_18946)"/>
</g>
<rect x="1.49258" y="0.327482" width="196.467" height="227.208" rx="25.0653" transform="matrix(0.938191 -0.346117 0.707107 0.707107 16.358 69.2407)" stroke="#9CBCF4" stroke-width="1.81435"/>
<circle cx="66.0936" cy="66.0936" r="58.7926" transform="matrix(0.938191 -0.346117 0.707107 0.707107 67.0637 76.7532)" stroke="#C6D8F5" stroke-width="14.6021"/>
<g filter="url(#filter2_ddddd_424_18946)">
<path d="M134.243 59.0484C131.386 56.1922 132.123 52.7104 136.205 51.6363C146.701 48.8742 158.555 47.956 170.813 48.9929C185.94 50.2725 201.021 54.4735 214.196 61.0778C227.372 67.6821 238.066 76.4009 244.96 86.1588C251.853 95.9168 254.645 106.287 252.99 115.991C251.336 125.695 245.307 134.308 235.648 140.768C225.989 147.228 213.122 151.252 198.634 152.344C184.146 153.436 168.67 151.549 154.116 146.914C142.321 143.159 131.549 137.732 122.654 131.106C119.194 128.53 119.655 124.993 123.265 123.425C126.876 121.858 132.264 122.861 135.824 125.378C142.467 130.076 150.345 133.938 158.916 136.667C170.25 140.276 182.3 141.746 193.582 140.895C204.864 140.044 214.883 136.911 222.404 131.881C229.926 126.851 234.62 120.144 235.908 112.587C237.197 105.031 235.023 96.9559 229.655 89.3575C224.287 81.7591 215.96 74.9699 205.7 69.8273C195.44 64.6846 183.697 61.4133 171.918 60.4169C163.01 59.6634 154.376 60.2358 146.62 62.0638C142.464 63.0433 137.099 61.9045 134.243 59.0484Z" fill="url(#paint2_linear_424_18946)"/>
</g>
<path d="M134.243 57.1167C131.386 54.2605 132.123 50.7788 136.205 49.7047C146.701 46.9426 158.555 46.0243 170.813 47.0613C185.94 48.3409 201.021 52.5419 214.196 59.1462C227.372 65.7505 238.066 74.4692 244.96 84.2272C251.853 93.9851 254.645 104.356 252.99 114.059C251.336 123.763 245.307 132.376 235.648 138.836C225.989 145.296 213.122 149.32 198.634 150.412C184.146 151.505 168.67 149.617 154.116 144.983C142.321 141.227 131.549 135.801 122.654 129.175C119.194 126.598 119.655 123.061 123.265 121.494C126.876 119.926 132.264 120.93 135.824 123.447C142.467 128.144 150.345 132.006 158.916 134.735C170.25 138.344 182.3 139.814 193.582 138.963C204.864 138.113 214.883 134.979 222.404 129.949C229.926 124.919 234.62 118.212 235.908 110.656C237.197 103.1 235.023 95.0243 229.655 87.4259C224.287 79.8275 215.96 73.0383 205.7 67.8956C195.44 62.753 183.697 59.4817 171.918 58.4853C163.01 57.7317 154.376 58.3042 146.62 60.1322C142.464 61.1116 137.099 59.9729 134.243 57.1167Z" fill="url(#paint3_linear_424_18946)"/>
<path d="M134.243 57.1167C131.386 54.2605 132.123 50.7788 136.205 49.7047C146.701 46.9426 158.555 46.0243 170.813 47.0613C185.94 48.3409 201.021 52.5419 214.196 59.1462C227.372 65.7505 238.066 74.4692 244.96 84.2272C251.853 93.9851 254.645 104.356 252.99 114.059C251.336 123.763 245.307 132.376 235.648 138.836C225.989 145.296 213.122 149.32 198.634 150.412C184.146 151.505 168.67 149.617 154.116 144.983C142.321 141.227 131.549 135.801 122.654 129.175C119.194 126.598 119.655 123.061 123.265 121.494C126.876 119.926 132.264 120.93 135.824 123.447C142.467 128.144 150.345 132.006 158.916 134.735C170.25 138.344 182.3 139.814 193.582 138.963C204.864 138.113 214.883 134.979 222.404 129.949C229.926 124.919 234.62 118.212 235.908 110.656C237.197 103.1 235.023 95.0243 229.655 87.4259C224.287 79.8275 215.96 73.0383 205.7 67.8956C195.44 62.753 183.697 59.4817 171.918 58.4853C163.01 57.7317 154.376 58.3042 146.62 60.1322C142.464 61.1116 137.099 59.9729 134.243 57.1167Z" fill="url(#paint4_linear_424_18946)"/>
<path d="M134.243 55.1851C131.386 52.3289 132.123 48.8471 136.205 47.7731C146.701 45.011 158.555 44.0927 170.813 45.1296C185.94 46.4092 201.021 50.6102 214.196 57.2145C227.372 63.8188 238.066 72.5376 244.96 82.2955C251.853 92.0535 254.645 102.424 252.99 112.128C251.336 121.832 245.307 130.445 235.648 136.904C225.989 143.364 213.122 147.388 198.634 148.481C184.146 149.573 168.67 147.686 154.116 143.051C142.321 139.296 131.549 133.869 122.654 127.243C119.194 124.666 119.655 121.13 123.265 119.562C126.876 117.994 132.264 118.998 135.824 121.515C142.467 126.212 150.345 130.075 158.916 132.804C170.25 136.413 182.3 137.882 193.582 137.032C204.864 136.181 214.883 133.048 222.404 128.017C229.926 122.987 234.62 116.28 235.908 108.724C237.197 101.168 235.023 93.0926 229.655 85.4942C224.287 77.8958 215.96 71.1067 205.7 65.964C195.44 60.8213 183.697 57.5501 171.918 56.5536C163.01 55.8001 154.376 56.3726 146.62 58.2005C142.464 59.18 137.099 58.0413 134.243 55.1851Z" fill="url(#paint5_linear_424_18946)"/>
<path d="M134.243 55.1851C131.386 52.3289 132.123 48.8471 136.205 47.7731C146.701 45.011 158.555 44.0927 170.813 45.1296C185.94 46.4092 201.021 50.6102 214.196 57.2145C227.372 63.8188 238.066 72.5376 244.96 82.2955C251.853 92.0535 254.645 102.424 252.99 112.128C251.336 121.832 245.307 130.445 235.648 136.904C225.989 143.364 213.122 147.388 198.634 148.481C184.146 149.573 168.67 147.686 154.116 143.051C142.321 139.296 131.549 133.869 122.654 127.243C119.194 124.666 119.655 121.13 123.265 119.562C126.876 117.994 132.264 118.998 135.824 121.515C142.467 126.212 150.345 130.075 158.916 132.804C170.25 136.413 182.3 137.882 193.582 137.032C204.864 136.181 214.883 133.048 222.404 128.017C229.926 122.987 234.62 116.28 235.908 108.724C237.197 101.168 235.023 93.0926 229.655 85.4942C224.287 77.8958 215.96 71.1067 205.7 65.964C195.44 60.8213 183.697 57.5501 171.918 56.5536C163.01 55.8001 154.376 56.3726 146.62 58.2005C142.464 59.18 137.099 58.0413 134.243 55.1851Z" fill="url(#paint6_linear_424_18946)"/>
<path d="M134.243 53.2534C131.386 50.3973 132.123 46.9155 136.205 45.8414C146.701 43.0793 158.555 42.161 170.813 43.198C185.94 44.4776 201.021 48.6786 214.196 55.2829C227.372 61.8872 238.066 70.6059 244.96 80.3639C251.853 90.1218 254.645 100.492 252.99 110.196C251.336 119.9 245.307 128.513 235.648 134.973C225.989 141.433 213.122 145.457 198.634 146.549C184.146 147.641 168.67 145.754 154.116 141.119C142.321 137.364 131.549 131.938 122.654 125.311C119.194 122.735 119.655 119.198 123.265 117.63C126.876 116.063 132.264 117.067 135.824 119.583C142.467 124.281 150.345 128.143 158.916 130.872C170.25 134.481 182.3 135.951 193.582 135.1C204.864 134.25 214.883 131.116 222.404 126.086C229.926 121.056 234.62 114.349 235.908 106.793C237.197 99.2363 235.023 91.161 229.655 83.5626C224.287 75.9642 215.96 69.175 205.7 64.0324C195.44 58.8897 183.697 55.6184 171.918 54.622C163.01 53.8684 154.376 54.4409 146.62 56.2689C142.464 57.2483 137.099 56.1096 134.243 53.2534Z" fill="url(#paint7_linear_424_18946)"/>
<path d="M134.243 53.2534C131.386 50.3973 132.123 46.9155 136.205 45.8414C146.701 43.0793 158.555 42.161 170.813 43.198C185.94 44.4776 201.021 48.6786 214.196 55.2829C227.372 61.8872 238.066 70.6059 244.96 80.3639C251.853 90.1218 254.645 100.492 252.99 110.196C251.336 119.9 245.307 128.513 235.648 134.973C225.989 141.433 213.122 145.457 198.634 146.549C184.146 147.641 168.67 145.754 154.116 141.119C142.321 137.364 131.549 131.938 122.654 125.311C119.194 122.735 119.655 119.198 123.265 117.63C126.876 116.063 132.264 117.067 135.824 119.583C142.467 124.281 150.345 128.143 158.916 130.872C170.25 134.481 182.3 135.951 193.582 135.1C204.864 134.25 214.883 131.116 222.404 126.086C229.926 121.056 234.62 114.349 235.908 106.793C237.197 99.2363 235.023 91.161 229.655 83.5626C224.287 75.9642 215.96 69.175 205.7 64.0324C195.44 58.8897 183.697 55.6184 171.918 54.622C163.01 53.8684 154.376 54.4409 146.62 56.2689C142.464 57.2483 137.099 56.1096 134.243 53.2534Z" fill="url(#paint8_linear_424_18946)"/>
<mask id="path-9-inside-1_424_18946" fill="white">
<path d="M134.243 51.3218C131.386 48.4656 132.123 44.9839 136.205 43.9098C146.702 41.1475 158.556 40.2293 170.815 41.2665C185.942 42.5464 201.024 46.7479 214.2 53.3528C227.375 59.9578 238.069 68.6772 244.962 78.4358C251.855 88.1943 254.646 98.5651 252.99 108.269C251.333 117.973 245.303 126.586 235.642 133.045C225.982 139.504 213.113 143.527 198.624 144.618C184.134 145.709 168.658 143.82 154.104 139.184C142.309 135.427 131.538 129.999 122.643 123.372C119.184 120.795 119.646 117.258 123.257 115.691C126.868 114.124 132.256 115.129 135.815 117.646C142.458 122.344 150.335 126.207 158.907 128.937C170.24 132.548 182.291 134.019 193.574 133.169C204.856 132.32 214.877 129.187 222.4 124.157C229.922 119.127 234.618 112.421 235.908 104.865C237.197 97.3081 235.025 89.2325 229.657 81.6337C224.29 74.0348 215.962 67.2451 205.703 62.1019C195.443 56.9588 183.699 53.6871 171.919 52.6905C163.011 51.9367 154.377 52.5092 146.62 54.3373C142.464 55.3167 137.099 54.178 134.243 51.3218Z"/>
</mask>
<path d="M134.243 51.3218C131.386 48.4656 132.123 44.9839 136.205 43.9098C146.702 41.1475 158.556 40.2293 170.815 41.2665C185.942 42.5464 201.024 46.7479 214.2 53.3528C227.375 59.9578 238.069 68.6772 244.962 78.4358C251.855 88.1943 254.646 98.5651 252.99 108.269C251.333 117.973 245.303 126.586 235.642 133.045C225.982 139.504 213.113 143.527 198.624 144.618C184.134 145.709 168.658 143.82 154.104 139.184C142.309 135.427 131.538 129.999 122.643 123.372C119.184 120.795 119.646 117.258 123.257 115.691C126.868 114.124 132.256 115.129 135.815 117.646C142.458 122.344 150.335 126.207 158.907 128.937C170.24 132.548 182.291 134.019 193.574 133.169C204.856 132.32 214.877 129.187 222.4 124.157C229.922 119.127 234.618 112.421 235.908 104.865C237.197 97.3081 235.025 89.2325 229.657 81.6337C224.29 74.0348 215.962 67.2451 205.703 62.1019C195.443 56.9588 183.699 53.6871 171.919 52.6905C163.011 51.9367 154.377 52.5092 146.62 54.3373C142.464 55.3167 137.099 54.178 134.243 51.3218Z" fill="url(#paint9_linear_424_18946)" stroke="white" stroke-opacity="0.54" stroke-width="1.53706" mask="url(#path-9-inside-1_424_18946)"/>
<path d="M157.204 111.969C156.185 112.276 155.302 112.47 154.555 112.551C153.811 112.618 153.231 112.645 152.813 112.632L152.054 110.934C152.647 110.938 153.312 110.894 154.049 110.802C154.799 110.706 155.565 110.514 156.345 110.226C157.273 109.884 157.81 109.547 157.957 109.215C158.107 108.868 158.01 108.522 157.665 108.178C157.432 107.944 157.156 107.769 156.835 107.651C156.515 107.533 156.155 107.458 155.754 107.426C155.353 107.393 154.909 107.391 154.42 107.418C153.946 107.441 153.426 107.473 152.86 107.515C152.332 107.557 151.788 107.584 151.229 107.596C150.684 107.603 150.142 107.567 149.603 107.489C149.067 107.395 148.551 107.238 148.056 107.019C147.56 106.799 147.099 106.476 146.674 106.051C145.974 105.351 145.657 104.657 145.722 103.967C145.776 103.266 146.304 102.635 147.306 102.071L145.603 100.368L147.701 99.5938L149.343 101.236C150.029 101.038 150.678 100.896 151.291 100.809C151.893 100.711 152.388 100.654 152.775 100.636L153.776 102.327C153.274 102.36 152.704 102.424 152.065 102.522C151.439 102.614 150.783 102.786 150.097 103.039C149.371 103.307 148.927 103.61 148.767 103.946C148.596 104.273 148.683 104.608 149.028 104.953C149.231 105.156 149.457 105.308 149.706 105.411C149.946 105.503 150.229 105.565 150.556 105.597C150.872 105.619 151.236 105.623 151.646 105.611C152.047 105.588 152.493 105.555 152.984 105.513C153.698 105.471 154.388 105.453 155.055 105.456C155.725 105.445 156.363 105.494 156.969 105.604C157.566 105.703 158.127 105.877 158.653 106.127C159.193 106.372 159.685 106.718 160.131 107.164C160.8 107.833 161.103 108.512 161.038 109.202C160.973 109.892 160.379 110.541 159.257 111.15L161.158 113.05L159.059 113.825L157.204 111.969ZM170.76 96.5612C171.125 96.9262 171.384 97.3232 171.537 97.7525C171.68 98.1715 171.757 98.6079 171.769 99.0615C171.784 99.5 171.747 99.9508 171.657 100.414C171.558 100.867 171.453 101.315 171.344 101.758C171.281 101.989 171.221 102.261 171.165 102.573C171.109 102.885 171.066 103.192 171.037 103.494C171.008 103.796 171.007 104.081 171.035 104.348C171.053 104.606 171.121 104.802 171.239 104.939L177.453 102.647L179.004 104.198L170.107 107.48C170.012 107.404 169.909 107.31 169.798 107.199C169.676 107.077 169.585 106.986 169.524 106.925C169.038 106.438 168.692 105.955 168.489 105.475C168.288 104.98 168.179 104.493 168.16 104.014C168.142 103.536 168.184 103.062 168.287 102.594C168.389 102.126 168.497 101.663 168.61 101.205C168.699 100.853 168.781 100.511 168.854 100.179C168.926 99.8464 168.964 99.5341 168.966 99.2419C168.972 98.9345 168.931 98.6445 168.842 98.3719C168.743 98.0891 168.572 97.8261 168.329 97.5828C167.802 97.0557 167.225 96.7551 166.599 96.6809C165.972 96.6068 165.37 96.6764 164.792 96.8897C164.415 97.0286 164.106 97.1982 163.864 97.3984C163.622 97.5986 163.43 97.8015 163.285 98.0073C163.155 98.2081 163.056 98.4041 162.99 98.5952C162.913 98.7762 162.863 98.9195 162.84 99.0252L160.337 98.1793C160.496 97.5654 160.831 96.9979 161.341 96.4768C161.854 95.9405 162.548 95.5112 163.422 95.1886C164.915 94.6379 166.28 94.5021 167.516 94.7814C168.756 95.0455 169.837 95.6388 170.76 96.5612ZM182.226 92.3311C182.591 92.696 182.85 93.0931 183.003 93.5223C183.146 93.9414 183.223 94.3777 183.235 94.8313C183.25 95.2698 183.213 95.7206 183.124 96.1837C183.024 96.6367 182.92 97.0846 182.81 97.5274C182.747 97.7588 182.687 98.0306 182.631 98.3427C182.575 98.6548 182.533 98.962 182.503 99.2642C182.474 99.5664 182.473 99.8511 182.501 100.118C182.519 100.375 182.587 100.572 182.706 100.709L188.919 98.4167L190.47 99.9677L181.573 103.25C181.479 103.174 181.376 103.08 181.264 102.968C181.143 102.847 181.051 102.756 180.99 102.695C180.504 102.208 180.159 101.725 179.955 101.245C179.755 100.75 179.645 100.263 179.627 99.7843C179.608 99.3055 179.65 98.832 179.753 98.364C179.855 97.8959 179.963 97.4329 180.076 96.975C180.166 96.6228 180.247 96.2806 180.32 95.9484C180.393 95.6162 180.43 95.304 180.433 95.0117C180.438 94.7044 180.397 94.4144 180.308 94.1418C180.21 93.859 180.039 93.596 179.795 93.3527C179.268 92.8256 178.692 92.5249 178.065 92.4508C177.439 92.3766 176.836 92.4462 176.258 92.6596C175.881 92.7985 175.572 92.9681 175.33 93.1682C175.089 93.3684 174.896 93.5714 174.752 93.7772C174.621 93.978 174.523 94.174 174.456 94.3651C174.379 94.546 174.329 94.6894 174.306 94.7951L171.803 93.9492C171.962 93.3353 172.297 92.7678 172.807 92.2467C173.32 91.7104 174.014 91.281 174.888 90.9585C176.381 90.4077 177.746 90.272 178.982 90.5512C180.222 90.8154 181.304 91.4087 182.226 92.3311ZM195.082 96.8924C195.437 97.2472 195.565 97.5956 195.465 97.9377C195.378 98.2748 195.113 98.5253 194.67 98.689C194.212 98.8577 193.717 98.8876 193.185 98.7787C192.653 98.6698 192.209 98.438 191.854 98.0832C191.5 97.7284 191.365 97.3825 191.452 97.0453C191.528 96.6981 191.795 96.4401 192.252 96.2714C192.696 96.1076 193.189 96.0853 193.731 96.2043C194.277 96.3082 194.728 96.5376 195.082 96.8924ZM190.616 88.4867C191.162 87.9658 191.644 87.379 192.059 86.7263C192.487 86.0686 192.756 85.3798 192.864 84.6598L194.579 84.0271L205.116 94.5644L202.675 95.4649L194.601 87.391C194.451 87.7378 194.202 88.1143 193.853 88.5205C193.504 88.9266 193.14 89.2899 192.761 89.6102L190.616 88.4867Z" fill="#E9C058"/>
<path d="M201.261 183.053C202.745 182.505 204.064 182.311 205.217 182.468C206.369 182.626 207.338 183.097 208.121 183.881C208.57 184.33 208.848 184.753 208.956 185.151C209.056 185.541 209.008 185.907 208.812 186.251C208.609 186.586 208.265 186.905 207.781 187.209C207.299 187.501 206.7 187.78 205.983 188.044L204.56 188.569L207.618 191.628L206.589 192.007L198.829 184.247C199.116 184.037 199.487 183.827 199.941 183.618C200.397 183.398 200.838 183.209 201.261 183.053ZM201.98 183.709C201.597 183.851 201.28 183.983 201.03 184.107C200.783 184.219 200.571 184.318 200.395 184.404L203.887 187.896L205.189 187.415C205.744 187.211 206.221 187.003 206.619 186.794C207.02 186.573 207.313 186.34 207.496 186.095C207.682 185.839 207.743 185.562 207.679 185.263C207.615 184.963 207.4 184.631 207.035 184.266C206.685 183.916 206.3 183.662 205.88 183.505C205.47 183.344 205.044 183.256 204.601 183.242C204.162 183.217 203.718 183.25 203.271 183.342C202.824 183.434 202.394 183.557 201.98 183.709ZM212.14 181.727C212.463 181.607 212.785 181.515 213.105 181.448C213.436 181.379 213.676 181.342 213.825 181.339L214.267 182.051C214.156 182.05 213.959 182.081 213.676 182.144C213.396 182.195 213.054 182.295 212.65 182.444C212.226 182.601 211.906 182.75 211.689 182.893C211.482 183.031 211.354 183.131 211.303 183.191L216.473 188.361L215.489 188.724L209.863 183.098C210.031 182.921 210.296 182.709 210.656 182.461C211.009 182.206 211.504 181.961 212.14 181.727ZM224.885 181.227C225.349 181.691 225.681 182.147 225.88 182.594C226.088 183.038 226.164 183.452 226.108 183.838C226.061 184.22 225.897 184.567 225.615 184.879C225.325 185.184 224.918 185.433 224.393 185.626C223.868 185.82 223.317 185.925 222.738 185.94C222.152 185.948 221.564 185.879 220.975 185.732C220.395 185.581 219.825 185.349 219.263 185.035C218.711 184.718 218.203 184.328 217.739 183.863C217.274 183.399 216.938 182.945 216.729 182.502C216.53 182.054 216.454 181.64 216.501 181.258C216.55 180.865 216.72 180.516 217.009 180.211C217.291 179.899 217.694 179.646 218.219 179.452C218.744 179.259 219.3 179.158 219.886 179.15C220.465 179.134 221.047 179.206 221.634 179.364C222.223 179.511 222.794 179.744 223.346 180.061C223.908 180.374 224.421 180.763 224.885 181.227ZM223.841 181.612C223.103 180.874 222.29 180.372 221.402 180.106C220.506 179.833 219.67 179.839 218.893 180.126C218.115 180.413 217.72 180.86 217.707 181.469C217.687 182.07 218.045 182.74 218.783 183.478C219.521 184.216 220.334 184.718 221.222 184.984C222.11 185.25 222.943 185.24 223.72 184.953C224.497 184.666 224.896 184.222 224.917 183.621C224.937 183.02 224.579 182.35 223.841 181.612ZM223.986 173.466C224.41 173.31 224.78 173.21 225.096 173.166C225.414 173.111 225.632 173.088 225.751 173.096L226.193 173.808C226.044 173.811 225.84 173.834 225.58 173.878C225.322 173.911 225.027 173.988 224.694 174.111C223.997 174.368 223.631 174.686 223.594 175.064C223.568 175.438 223.847 175.918 224.433 176.504L225.049 177.12L228.199 175.958L228.826 176.586L225.677 177.748L230.949 183.02L229.965 183.383L223.426 176.844C222.658 176.076 222.312 175.412 222.388 174.853C222.474 174.29 223.007 173.827 223.986 173.466ZM236.643 180.92L235.658 181.283L229.758 175.383L230.743 175.02L236.643 180.92ZM229.189 173.156C229.364 173.331 229.434 173.498 229.4 173.656C229.357 173.807 229.235 173.92 229.033 173.995C228.831 174.069 228.61 174.083 228.37 174.036C228.122 173.982 227.911 173.867 227.736 173.692C227.561 173.517 227.495 173.354 227.537 173.203C227.572 173.044 227.69 172.928 227.892 172.853C228.094 172.779 228.319 172.769 228.567 172.823C228.807 172.87 229.014 172.981 229.189 173.156ZM234.275 173.717L237.394 172.566L238.022 173.194L234.902 174.344L238.041 177.483C238.376 177.817 238.685 178.078 238.968 178.265C239.255 178.441 239.525 178.56 239.781 178.622C240.036 178.684 240.284 178.696 240.524 178.66C240.764 178.624 241.005 178.561 241.247 178.471C241.661 178.319 241.96 178.162 242.144 178C242.32 177.831 242.448 177.69 242.529 177.577L243.387 178.104C243.315 178.224 243.147 178.395 242.885 178.617C242.616 178.831 242.274 179.014 241.86 179.167C241.375 179.346 240.921 179.451 240.497 179.482C240.075 179.503 239.668 179.455 239.276 179.339C238.886 179.212 238.506 179.019 238.136 178.76C237.766 178.5 237.384 178.173 236.988 177.777L231.556 172.345L232.403 171.845L234.275 173.717ZM248.475 175.102C248.619 175.122 248.787 175.138 248.979 175.15C249.181 175.159 249.4 175.156 249.635 175.143C249.87 175.129 250.112 175.102 250.362 175.062C250.605 175.014 250.842 174.947 251.074 174.862C251.559 174.683 251.902 174.473 252.103 174.232C252.307 173.98 252.403 173.71 252.392 173.422C252.373 173.127 252.265 172.818 252.066 172.496C251.861 172.166 251.594 171.837 251.267 171.51C250.491 170.734 249.64 170.235 248.714 170.014C247.781 169.786 246.891 169.828 246.043 170.141C245.558 170.32 245.183 170.484 244.919 170.634C244.656 170.772 244.469 170.888 244.355 170.982L248.475 175.102ZM251.647 178.274L250.663 178.638L242.857 170.832C243.074 170.648 243.375 170.438 243.761 170.201C244.147 169.965 244.688 169.719 245.384 169.462C245.96 169.25 246.552 169.13 247.161 169.103C247.772 169.065 248.378 169.118 248.977 169.261C249.587 169.401 250.172 169.628 250.734 169.941C251.307 170.251 251.832 170.645 252.312 171.124C252.761 171.573 253.094 172.018 253.313 172.458C253.535 172.886 253.631 173.293 253.602 173.679C253.565 174.057 253.401 174.404 253.109 174.72C252.827 175.032 252.404 175.293 251.838 175.501C251.324 175.691 250.821 175.804 250.331 175.839C249.843 175.862 249.464 175.856 249.194 175.821L251.647 178.274ZM253.955 170.487C253.437 169.97 253.084 169.485 252.896 169.034C252.71 168.572 252.644 168.153 252.698 167.779C252.762 167.401 252.935 167.077 253.217 166.807C253.502 166.525 253.861 166.303 254.295 166.143C255.254 165.79 256.252 165.744 257.289 166.007C258.336 166.267 259.351 166.887 260.332 167.869C260.393 167.93 260.449 167.992 260.499 168.057C260.56 168.118 260.612 168.177 260.656 168.234L255.159 170.261C255.912 170.973 256.705 171.441 257.537 171.665C258.369 171.889 259.27 171.822 260.239 171.465C260.774 171.268 261.16 171.073 261.397 170.882C261.633 170.69 261.796 170.542 261.884 170.436L262.705 171.008C262.624 171.121 262.429 171.292 262.119 171.521C261.819 171.746 261.407 171.956 260.882 172.149C260.195 172.403 259.534 172.543 258.897 172.569C258.26 172.596 257.649 172.53 257.062 172.371C256.475 172.213 255.925 171.973 255.41 171.653C254.889 171.324 254.403 170.936 253.955 170.487ZM259.044 167.969C258.407 167.36 257.736 166.952 257.03 166.743C256.325 166.535 255.639 166.554 254.972 166.8C254.619 166.93 254.354 167.101 254.178 167.311C254.012 167.518 253.914 167.752 253.885 168.013C253.858 168.263 253.902 168.528 254.017 168.808C254.142 169.085 254.323 169.356 254.562 169.623L259.044 167.969ZM262.326 163.212C262.649 163.093 262.971 163 263.291 162.934C263.622 162.864 263.862 162.827 264.011 162.825L264.453 163.536C264.342 163.536 264.145 163.567 263.862 163.629C263.582 163.681 263.24 163.781 262.836 163.93C262.412 164.086 262.092 164.236 261.875 164.378C261.668 164.517 261.54 164.616 261.49 164.676L266.659 169.846L265.675 170.209L260.049 164.583C260.218 164.406 260.482 164.194 260.843 163.947C261.195 163.691 261.69 163.447 262.326 163.212ZM280.824 164.37C280.608 164.555 280.306 164.765 279.921 165.001C279.535 165.237 278.994 165.483 278.297 165.74C277.722 165.952 277.128 166.078 276.517 166.116C275.908 166.142 275.299 166.086 274.689 165.946C274.09 165.803 273.504 165.576 272.932 165.267C272.37 164.953 271.849 164.557 271.37 164.078C270.921 163.629 270.586 163.19 270.365 162.761C270.146 162.321 270.051 161.909 270.08 161.523C270.109 161.137 270.264 160.789 270.546 160.476C270.838 160.16 271.267 159.898 271.832 159.689C272.347 159.499 272.848 159.393 273.335 159.369C273.826 159.334 274.206 159.334 274.476 159.37L271.304 156.197L272.151 155.697L280.824 164.37ZM275.195 160.089C275.051 160.069 274.878 160.055 274.676 160.046C274.484 160.034 274.27 160.034 274.035 160.048C273.8 160.062 273.562 160.093 273.319 160.14C273.069 160.181 272.828 160.244 272.596 160.329C272.111 160.508 271.767 160.723 271.564 160.976C271.37 161.224 271.282 161.496 271.301 161.791C271.312 162.079 271.421 162.387 271.627 162.718C271.825 163.04 272.088 163.365 272.415 163.692C273.191 164.468 274.045 164.971 274.979 165.199C275.904 165.42 276.791 165.374 277.639 165.061C278.124 164.883 278.497 164.724 278.759 164.586C279.024 164.436 279.213 164.314 279.327 164.22L275.195 160.089ZM285.543 162.145C285.927 162.004 286.252 161.873 286.52 161.754C286.79 161.623 287.01 161.505 287.182 161.4L285.105 159.323C284.956 159.326 284.741 159.353 284.461 159.405C284.173 159.448 283.817 159.548 283.393 159.705C283.15 159.794 282.913 159.903 282.681 160.03C282.442 160.149 282.256 160.296 282.126 160.469C281.987 160.635 281.924 160.82 281.934 161.024C281.945 161.228 282.076 161.456 282.327 161.707C282.548 161.928 282.78 162.097 283.023 162.216C283.276 162.331 283.534 162.402 283.797 162.43C284.07 162.455 284.35 162.445 284.638 162.401C284.928 162.346 285.23 162.261 285.543 162.145ZM279.952 156.678C280.466 156.488 280.958 156.385 281.425 156.369C281.895 156.341 282.34 156.386 282.76 156.501C283.172 156.61 283.562 156.778 283.929 157.007C284.296 157.237 284.636 157.507 284.948 157.819L288.668 161.539C288.59 161.599 288.47 161.68 288.309 161.781C288.14 161.875 287.944 161.983 287.722 162.107C287.5 162.23 287.241 162.357 286.943 162.488C286.663 162.623 286.361 162.75 286.038 162.869C285.625 163.021 285.207 163.129 284.785 163.191C284.373 163.249 283.964 163.254 283.557 163.206C283.152 163.147 282.76 163.031 282.381 162.859C282.003 162.675 281.648 162.416 281.313 162.081C280.993 161.762 280.8 161.458 280.733 161.17C280.667 160.882 280.707 160.612 280.856 160.36C280.996 160.099 281.234 159.861 281.569 159.643C281.905 159.426 282.31 159.23 282.784 159.055C282.925 159.002 283.079 158.956 283.246 158.915C283.415 158.863 283.582 158.823 283.746 158.793C283.912 158.753 284.058 158.725 284.181 158.711C284.308 158.685 284.399 158.672 284.454 158.673L284.089 158.308C283.884 158.102 283.666 157.912 283.435 157.736C283.197 157.554 282.931 157.412 282.637 157.312C282.346 157.201 282.029 157.146 281.685 157.148C281.344 157.138 280.972 157.208 280.568 157.357C279.993 157.569 279.594 157.758 279.372 157.923C279.151 158.088 278.993 158.214 278.9 158.3L278.113 157.7C278.224 157.576 278.429 157.422 278.729 157.238C279.039 157.051 279.447 156.864 279.952 156.678ZM293.576 160.088C292.779 159.747 291.972 159.383 291.157 158.996C290.352 158.606 289.559 158.206 288.776 157.797C287.997 157.376 287.241 156.952 286.509 156.524C285.77 156.089 285.072 155.654 284.416 155.219L285.461 154.833C285.937 155.158 286.474 155.501 287.071 155.864C287.661 156.219 288.287 156.582 288.948 156.952C289.619 157.319 290.321 157.69 291.055 158.065C291.79 158.44 292.536 158.8 293.296 159.145C293.046 158.591 292.798 158.073 292.551 157.592C292.304 157.11 292.046 156.637 291.776 156.174C291.509 155.7 291.225 155.222 290.922 154.74C290.63 154.254 290.308 153.732 289.958 153.174L290.942 152.811C291.722 154.033 292.426 155.242 293.055 156.437C293.683 157.632 294.189 158.753 294.572 159.799C294.722 160.212 294.818 160.577 294.86 160.895C294.909 161.221 294.887 161.51 294.795 161.763C294.712 162.012 294.542 162.236 294.285 162.435C294.038 162.63 293.693 162.81 293.249 162.974C292.996 163.067 292.741 163.13 292.484 163.162C292.236 163.191 292.076 163.203 292.002 163.199L291.583 162.51C291.646 162.518 291.788 162.508 292.007 162.479C292.245 162.454 292.465 162.404 292.666 162.329C292.949 162.225 293.179 162.109 293.355 161.982C293.542 161.85 293.669 161.694 293.736 161.513C293.811 161.339 293.832 161.139 293.799 160.912C293.775 160.681 293.701 160.406 293.576 160.088Z" fill="#343434"/>
<defs>
<filter id="filter0_ddddd_424_18946" x="0.802561" y="19.1785" width="354.85" height="255.569" filterUnits="userSpaceOnUse" color-interpolation-filters="sRGB">
<feFlood flood-opacity="0" result="BackgroundImageFix"/>
<feColorMatrix in="SourceAlpha" type="matrix" values="0 0 0 0 0 0 0 0 0 0 0 0 0 0 0 0 0 0 127 0" result="hardAlpha"/>
<feOffset/>
<feColorMatrix type="matrix" values="0 0 0 0 0.439216 0 0 0 0 0.647059 0 0 0 0 0.92549 0 0 0 0.05 0"/>
<feBlend mode="normal" in2="BackgroundImageFix" result="effect1_dropShadow_424_18946"/>
<feColorMatrix in="SourceAlpha" type="matrix" values="0 0 0 0 0 0 0 0 0 0 0 0 0 0 0 0 0 0 127 0" result="hardAlpha"/>
<feOffset dx="-0.680721" dy="1.36144"/>
<feGaussianBlur stdDeviation="2.04216"/>
<feColorMatrix type="matrix" values="0 0 0 0 0.439216 0 0 0 0 0.647059 0 0 0 0 0.92549 0 0 0 0.05 0"/>
<feBlend mode="normal" in2="effect1_dropShadow_424_18946" result="effect2_dropShadow_424_18946"/>
<feColorMatrix in="SourceAlpha" type="matrix" values="0 0 0 0 0 0 0 0 0 0 0 0 0 0 0 0 0 0 127 0" result="hardAlpha"/>
<feOffset dx="-4.08433" dy="6.12649"/>
<feGaussianBlur stdDeviation="3.74397"/>
<feColorMatrix type="matrix" values="0 0 0 0 0.439216 0 0 0 0 0.647059 0 0 0 0 0.92549 0 0 0 0.04 0"/>
<feBlend mode="normal" in2="effect2_dropShadow_424_18946" result="effect3_dropShadow_424_18946"/>
<feColorMatrix in="SourceAlpha" type="matrix" values="0 0 0 0 0 0 0 0 0 0 0 0 0 0 0 0 0 0 127 0" result="hardAlpha"/>
<feOffset dx="-8.84937" dy="13.6144"/>
<feGaussianBlur stdDeviation="5.10541"/>
<feColorMatrix type="matrix" values="0 0 0 0 0.439216 0 0 0 0 0.647059 0 0 0 0 0.92549 0 0 0 0.03 0"/>
<feBlend mode="normal" in2="effect3_dropShadow_424_18946" result="effect4_dropShadow_424_18946"/>
<feColorMatrix in="SourceAlpha" type="matrix" values="0 0 0 0 0 0 0 0 0 0 0 0 0 0 0 0 0 0 127 0" result="hardAlpha"/>
<feOffset dx="-16.3373" dy="24.506"/>
<feGaussianBlur stdDeviation="5.78613"/>
<feColorMatrix type="matrix" values="0 0 0 0 0.439216 0 0 0 0 0.647059 0 0 0 0 0.92549 0 0 0 0.01 0"/>
<feBlend mode="normal" in2="effect4_dropShadow_424_18946" result="effect5_dropShadow_424_18946"/>
<feBlend mode="normal" in="SourceGraphic" in2="effect5_dropShadow_424_18946" result="shape"/>
</filter>
<filter id="filter1_i_424_18946" x="28.7151" y="6.90259" width="323.533" height="221.604" filterUnits="userSpaceOnUse" color-interpolation-filters="sRGB">
<feFlood flood-opacity="0" result="BackgroundImageFix"/>
<feBlend mode="normal" in="SourceGraphic" in2="BackgroundImageFix" result="shape"/>
<feColorMatrix in="SourceAlpha" type="matrix" values="0 0 0 0 0 0 0 0 0 0 0 0 0 0 0 0 0 0 127 0" result="hardAlpha"/>
<feOffset dy="4.83828"/>
<feGaussianBlur stdDeviation="8.46699"/>
<feComposite in2="hardAlpha" operator="arithmetic" k2="-1" k3="1"/>
<feColorMatrix type="matrix" values="0 0 0 0 0 0 0 0 0 0 0 0 0 0 0 0 0 0 0.04 0"/>
<feBlend mode="normal" in2="shape" result="effect1_innerShadow_424_18946"/>
</filter>
<filter id="filter2_ddddd_424_18946" x="100.293" y="39.5784" width="237.161" height="270.067" filterUnits="userSpaceOnUse" color-interpolation-filters="sRGB">
<feFlood flood-opacity="0" result="BackgroundImageFix"/>
<feColorMatrix in="SourceAlpha" type="matrix" values="0 0 0 0 0 0 0 0 0 0 0 0 0 0 0 0 0 0 127 0" result="hardAlpha"/>
<feOffset/>
<feColorMatrix type="matrix" values="0 0 0 0 0.913725 0 0 0 0 0.752941 0 0 0 0 0.345098 0 0 0 0.2 0"/>
<feBlend mode="normal" in2="BackgroundImageFix" result="effect1_dropShadow_424_18946"/>
<feColorMatrix in="SourceAlpha" type="matrix" values="0 0 0 0 0 0 0 0 0 0 0 0 0 0 0 0 0 0 127 0" result="hardAlpha"/>
<feOffset dx="2" dy="7"/>
<feGaussianBlur stdDeviation="8"/>
<feColorMatrix type="matrix" values="0 0 0 0 0.913725 0 0 0 0 0.752941 0 0 0 0 0.345098 0 0 0 0.2 0"/>
<feBlend mode="normal" in2="effect1_dropShadow_424_18946" result="effect2_dropShadow_424_18946"/>
<feColorMatrix in="SourceAlpha" type="matrix" values="0 0 0 0 0 0 0 0 0 0 0 0 0 0 0 0 0 0 127 0" result="hardAlpha"/>
<feOffset dx="9" dy="28"/>
<feGaussianBlur stdDeviation="14.5"/>
<feColorMatrix type="matrix" values="0 0 0 0 0.913725 0 0 0 0 0.752941 0 0 0 0 0.345098 0 0 0 0.17 0"/>
<feBlend mode="normal" in2="effect2_dropShadow_424_18946" result="effect3_dropShadow_424_18946"/>
<feColorMatrix in="SourceAlpha" type="matrix" values="0 0 0 0 0 0 0 0 0 0 0 0 0 0 0 0 0 0 127 0" result="hardAlpha"/>
<feOffset dx="21" dy="62"/>
<feGaussianBlur stdDeviation="19.5"/>
<feColorMatrix type="matrix" values="0 0 0 0 0.913725 0 0 0 0 0.752941 0 0 0 0 0.345098 0 0 0 0.1 0"/>
<feBlend mode="normal" in2="effect3_dropShadow_424_18946" result="effect4_dropShadow_424_18946"/>
<feColorMatrix in="SourceAlpha" type="matrix" values="0 0 0 0 0 0 0 0 0 0 0 0 0 0 0 0 0 0 127 0" result="hardAlpha"/>
<feOffset dx="37" dy="110"/>
<feGaussianBlur stdDeviation="23.5"/>
<feColorMatrix type="matrix" values="0 0 0 0 0.913725 0 0 0 0 0.752941 0 0 0 0 0.345098 0 0 0 0.03 0"/>
<feBlend mode="normal" in2="effect4_dropShadow_424_18946" result="effect5_dropShadow_424_18946"/>
<feBlend mode="normal" in="SourceGraphic" in2="effect5_dropShadow_424_18946" result="shape"/>
</filter>
<linearGradient id="paint0_linear_424_18946" x1="31.006" y1="186.621" x2="4.30555" y2="198.244" gradientUnits="userSpaceOnUse">
<stop offset="0.029378" stop-color="#86A7F8"/>
<stop offset="1" stop-color="#7DA0EF"/>
</linearGradient>
<linearGradient id="paint1_linear_424_18946" x1="99.1405" y1="2.79541e-05" x2="-1466.35" y2="2105.1" gradientUnits="userSpaceOnUse">
<stop stop-color="#A8B9FF"/>
<stop offset="0.9999" stop-color="#CFDBEF"/>
</linearGradient>
<linearGradient id="paint2_linear_424_18946" x1="69.1834" y1="142.901" x2="69.5396" y2="143.662" gradientUnits="userSpaceOnUse">
<stop stop-color="#FCD87C"/>
<stop offset="1" stop-color="#F8DE9F"/>
</linearGradient>
<linearGradient id="paint3_linear_424_18946" x1="69.1834" y1="140.969" x2="69.5396" y2="141.73" gradientUnits="userSpaceOnUse">
<stop stop-color="#90B4FF"/>
<stop offset="1" stop-color="#93B0F7"/>
</linearGradient>
<linearGradient id="paint4_linear_424_18946" x1="69.1834" y1="140.969" x2="69.5396" y2="141.73" gradientUnits="userSpaceOnUse">
<stop stop-color="#FCD87C"/>
<stop offset="1" stop-color="#F8DE9F"/>
</linearGradient>
<linearGradient id="paint5_linear_424_18946" x1="69.1834" y1="139.038" x2="69.5396" y2="139.798" gradientUnits="userSpaceOnUse">
<stop stop-color="#90B4FF"/>
<stop offset="1" stop-color="#93B0F7"/>
</linearGradient>
<linearGradient id="paint6_linear_424_18946" x1="69.1834" y1="139.038" x2="69.5396" y2="139.798" gradientUnits="userSpaceOnUse">
<stop stop-color="#FCD87C"/>
<stop offset="1" stop-color="#F8DE9F"/>
</linearGradient>
<linearGradient id="paint7_linear_424_18946" x1="69.1834" y1="137.106" x2="69.5396" y2="137.867" gradientUnits="userSpaceOnUse">
<stop stop-color="#90B4FF"/>
<stop offset="1" stop-color="#93B0F7"/>
</linearGradient>
<linearGradient id="paint8_linear_424_18946" x1="69.1834" y1="137.106" x2="69.5396" y2="137.867" gradientUnits="userSpaceOnUse">
<stop stop-color="#FCD87C"/>
<stop offset="1" stop-color="#F8DE9F"/>
</linearGradient>
<linearGradient id="paint9_linear_424_18946" x1="129.071" y1="46.1502" x2="170.621" y2="158.775" gradientUnits="userSpaceOnUse">
<stop stop-color="#E9C058"/>
<stop offset="1" stop-color="#FEDA80"/>
</linearGradient>
</defs>
</svg>
