<svg width="331" height="203" viewBox="0 0 331 203" fill="none" xmlns="http://www.w3.org/2000/svg">
<g filter="url(#filter0_ddddd_978_37018)">
<rect width="244.999" height="106.999" rx="27.2967" transform="matrix(0.938142 -0.346251 0.706951 0.707262 17.0474 95.9897)" fill="url(#paint0_linear_978_37018)"/>
</g>
<g filter="url(#filter1_i_978_37018)">
<rect width="244.999" height="106.999" rx="27.3005" transform="matrix(0.938141 -0.346251 0.706951 0.707262 17.0474 84.9902)" fill="url(#paint1_linear_978_37018)"/>
</g>
<rect x="1.5687" y="0.344246" width="243.092" height="105.092" rx="26.3469" transform="matrix(0.938141 -0.346251 0.706951 0.707262 16.901 85.6342)" stroke="white" stroke-width="1.90712"/>
<g filter="url(#filter2_i_978_37018)">
<rect width="40.999" height="36.9997" rx="10.2485" transform="matrix(0.938142 -0.346251 0.706951 0.707262 82.0471 102.99)" fill="url(#paint2_linear_978_37018)"/>
</g>
<rect x="1.5687" y="0.344246" width="39.0919" height="35.0926" rx="9.29496" transform="matrix(0.938142 -0.346251 0.706951 0.707262 81.9008 103.634)" stroke="white" stroke-width="1.90712"/>
<rect width="40.999" height="36.9997" rx="10.2485" transform="matrix(0.938142 -0.346251 0.706951 0.707262 82.0471 80.9902)" fill="#D9D9D9"/>
<rect width="40.999" height="36.9997" rx="10.2485" transform="matrix(0.938142 -0.346251 0.706951 0.707262 82.0471 80.9902)" fill="url(#paint3_linear_978_37018)"/>
<rect width="40.999" height="36.9997" rx="10.2485" transform="matrix(0.938142 -0.346251 0.706951 0.707262 82.0471 82.9902)" fill="#D9D9D9"/>
<rect width="40.999" height="36.9997" rx="10.2485" transform="matrix(0.938142 -0.346251 0.706951 0.707262 82.0471 82.9902)" fill="url(#paint4_linear_978_37018)"/>
<path d="M139.62 75.3667L140.282 75.1226L145.36 80.203L144.699 80.4471L139.62 75.3667ZM143.415 75.913C143.564 75.8045 143.773 75.6672 144.042 75.5011C144.31 75.335 144.675 75.167 145.135 74.9971C145.518 74.8559 145.877 74.7802 146.213 74.77C146.555 74.7574 146.879 74.8018 147.185 74.9031C147.492 74.9972 147.785 75.1398 148.065 75.3309C148.345 75.522 148.614 75.7471 148.873 76.0061L150.991 78.1248L150.358 78.3581L148.395 76.3934C148.126 76.1246 147.873 75.9069 147.635 75.7403C147.404 75.5713 147.172 75.4497 146.938 75.3755C146.71 75.2989 146.478 75.2708 146.241 75.2913C146.006 75.3046 145.749 75.3626 145.47 75.4655C145.172 75.5756 144.925 75.6835 144.729 75.7893C144.54 75.8927 144.422 75.9661 144.377 76.0096L147.704 79.3379L147.072 79.5712L143.415 75.913ZM153.612 76.4548C153.538 76.1944 153.438 75.9034 153.312 75.582C153.181 75.2557 153.036 74.9244 152.878 74.5882C152.721 74.2447 152.551 73.906 152.368 73.5721C152.187 73.2309 152.005 72.9164 151.824 72.6287L152.456 72.3954C152.687 72.7854 152.899 73.1754 153.093 73.5653C153.288 73.9552 153.465 74.3413 153.626 74.7237C153.792 75.1037 153.937 75.475 154.06 75.8378C154.19 76.1981 154.305 76.5401 154.407 76.8639L153.804 77.0864C153.372 76.8847 152.922 76.6659 152.456 76.4299C151.989 76.194 151.514 75.9447 151.029 75.6819C150.551 75.4168 150.072 75.1419 149.593 74.8573C149.113 74.5727 148.641 74.2785 148.178 73.9745L148.849 73.7269C149.185 73.9572 149.558 74.2011 149.966 74.4586C150.376 74.7087 150.792 74.9565 151.215 75.2019C151.639 75.44 152.06 75.6696 152.476 75.8907C152.887 76.1068 153.266 76.2949 153.612 76.4548ZM155.081 74.0159C154.749 73.6836 154.522 73.3725 154.401 73.0827C154.281 72.7856 154.239 72.5168 154.274 72.2765C154.315 72.0337 154.427 71.8254 154.608 71.6515C154.791 71.4703 155.021 71.3283 155.3 71.2254C155.916 70.9981 156.557 70.969 157.223 71.138C157.895 71.3046 158.546 71.7032 159.177 72.3337C159.216 72.3728 159.252 72.413 159.284 72.4545C159.323 72.4936 159.357 72.5315 159.384 72.5681L155.854 73.8709C156.338 74.328 156.847 74.6286 157.381 74.7726C157.916 74.9165 158.494 74.8737 159.116 74.644C159.46 74.5172 159.708 74.3922 159.86 74.2692C160.012 74.1462 160.116 74.0508 160.173 73.9831L160.7 74.3505C160.648 74.4231 160.523 74.533 160.324 74.68C160.131 74.8247 159.866 74.9593 159.529 75.0837C159.089 75.2464 158.664 75.3363 158.255 75.3534C157.846 75.3705 157.453 75.3282 157.076 75.2264C156.699 75.1246 156.346 74.9708 156.016 74.7648C155.681 74.5539 155.369 74.3043 155.081 74.0159ZM158.349 72.3982C157.941 72.0071 157.51 71.7446 157.056 71.6108C156.603 71.477 156.163 71.4891 155.735 71.647C155.508 71.7308 155.338 71.8404 155.225 71.9758C155.118 72.1088 155.055 72.2591 155.036 72.4266C155.019 72.5869 155.047 72.7571 155.121 72.9374C155.201 73.1152 155.318 73.2896 155.471 73.4605L158.349 72.3982ZM163.301 73.1195C163.664 72.9855 163.919 72.8314 164.064 72.6573C164.211 72.4759 164.177 72.2777 163.962 72.0627C163.86 71.96 163.749 71.8804 163.63 71.8239C163.518 71.7649 163.384 71.7241 163.228 71.7013C163.072 71.6786 162.887 71.6702 162.671 71.6763C162.461 71.6799 162.203 71.6882 161.897 71.701C161.65 71.7117 161.413 71.7189 161.186 71.7225C160.954 71.7211 160.734 71.7053 160.526 71.6749C160.314 71.6397 160.112 71.5802 159.922 71.4966C159.732 71.4129 159.556 71.2904 159.395 71.1291C159.087 70.8212 158.99 70.5157 159.105 70.2126C159.225 69.9072 159.555 69.6551 160.093 69.4565C160.436 69.3297 160.74 69.2476 161.005 69.2103C161.275 69.1705 161.473 69.151 161.598 69.1517L161.877 69.6308C161.77 69.6301 161.598 69.6401 161.362 69.6606C161.131 69.6787 160.838 69.7536 160.481 69.8852C160.339 69.9378 160.215 70.0003 160.109 70.0726C160.006 70.1376 159.93 70.2125 159.881 70.2972C159.828 70.3771 159.809 70.4645 159.824 70.5593C159.834 70.6493 159.89 70.7456 159.993 70.8482C160.095 70.9509 160.209 71.0293 160.334 71.0834C160.46 71.1376 160.6 71.1761 160.756 71.1988C160.913 71.2143 161.088 71.2201 161.279 71.2164C161.477 71.2102 161.7 71.2018 161.946 71.191C162.199 71.1779 162.445 71.1708 162.684 71.1697C162.924 71.1614 163.156 71.1761 163.38 71.2138C163.599 71.2466 163.812 71.3086 164.018 71.3997C164.22 71.4859 164.411 71.6194 164.592 71.8002C164.934 72.1423 165.021 72.4648 164.853 72.7675C164.692 73.0679 164.316 73.327 163.726 73.5447C163.286 73.7074 162.919 73.8025 162.627 73.83C162.34 73.8624 162.143 73.8782 162.036 73.8776L161.769 73.3841C161.798 73.3867 161.857 73.3882 161.946 73.3887C162.031 73.3844 162.143 73.3765 162.282 73.3651C162.417 73.3489 162.569 73.323 162.737 73.2876C162.912 73.2497 163.1 73.1937 163.301 73.1195ZM163.572 68.2929L165.575 67.5536L165.978 67.9568L163.975 68.6961L165.99 70.7122C166.205 70.9272 166.403 71.0948 166.586 71.2149C166.769 71.3277 166.943 71.404 167.107 71.4438C167.271 71.4836 167.43 71.4918 167.585 71.4684C167.739 71.445 167.893 71.4046 168.049 71.3471C168.315 71.249 168.507 71.1481 168.625 71.0443C168.738 70.9356 168.821 70.845 168.872 70.7724L169.424 71.1108C169.377 71.1883 169.269 71.2982 169.101 71.4406C168.928 71.5781 168.708 71.6959 168.442 71.794C168.131 71.9089 167.839 71.9765 167.567 71.9968C167.296 72.0098 167.035 71.9792 166.783 71.9048C166.533 71.8232 166.289 71.6991 166.051 71.5325C165.814 71.366 165.568 71.1556 165.314 70.9015L161.826 67.4119L162.37 67.0906L163.572 68.2929ZM168.328 69.1266C167.996 68.7942 167.769 68.4831 167.648 68.1933C167.529 67.8962 167.487 67.6275 167.521 67.3871C167.563 67.1444 167.674 66.9361 167.855 66.7622C168.038 66.581 168.269 66.4389 168.547 66.336C169.163 66.1087 169.804 66.0796 170.47 66.2486C171.143 66.4153 171.794 66.8138 172.424 67.4443C172.463 67.4834 172.499 67.5237 172.532 67.5652C172.571 67.6043 172.604 67.6421 172.632 67.6787L169.102 68.9816C169.585 69.4387 170.094 69.7392 170.629 69.8832C171.163 70.0272 171.741 69.9843 172.364 69.7546C172.707 69.6278 172.955 69.5029 173.107 69.3798C173.26 69.2568 173.364 69.1614 173.42 69.0937L173.947 69.4612C173.896 69.5338 173.77 69.6436 173.571 69.7907C173.379 69.9354 173.114 70.0699 172.777 70.1943C172.336 70.357 171.911 70.4469 171.502 70.464C171.093 70.4811 170.7 70.4388 170.324 70.337C169.947 70.2353 169.593 70.0814 169.263 69.8754C168.928 69.6645 168.616 69.4149 168.328 69.1266ZM171.597 67.5088C171.188 67.1177 170.757 66.8553 170.304 66.7215C169.851 66.5877 169.41 66.5997 168.982 66.7577C168.755 66.8414 168.585 66.951 168.472 67.0864C168.365 67.2194 168.303 67.3697 168.284 67.5373C168.267 67.6975 168.295 67.8678 168.368 68.048C168.448 68.2258 168.565 68.4002 168.718 68.5712L171.597 67.5088ZM179.734 67.3554C179.595 67.4737 179.402 67.6086 179.154 67.7603C178.906 67.9119 178.559 68.0703 178.112 68.2354C177.742 68.3718 177.361 68.4522 176.968 68.4767C176.577 68.4939 176.186 68.4577 175.795 68.368C175.41 68.2759 175.034 68.1303 174.666 67.9314C174.305 67.7301 173.971 67.4755 173.663 67.1676C173.375 66.8793 173.16 66.5974 173.017 66.322C172.877 66.0394 172.816 65.7742 172.835 65.5265C172.853 65.2787 172.953 65.0546 173.134 64.8539C173.322 64.6509 173.597 64.4824 173.96 64.3484C174.291 64.2264 174.612 64.1578 174.926 64.1425C175.24 64.12 175.485 64.1202 175.658 64.1431L173.621 62.105L174.165 61.7838L179.734 67.3554ZM176.12 64.6049C176.027 64.5923 175.916 64.5831 175.786 64.5775C175.663 64.5695 175.526 64.57 175.375 64.5788C175.224 64.5877 175.071 64.6074 174.915 64.6381C174.755 64.664 174.6 64.7044 174.451 64.7594C174.14 64.8743 173.918 65.0127 173.788 65.1747C173.663 65.3344 173.607 65.509 173.619 65.6986C173.626 65.8833 173.696 66.0817 173.828 66.2939C173.955 66.5011 174.124 66.7098 174.334 66.92C174.832 67.4185 175.381 67.7411 175.98 67.8879C176.575 68.0298 177.144 68.0003 177.689 67.7993C178 67.6844 178.24 67.5825 178.408 67.4936C178.578 67.3974 178.7 67.3191 178.773 67.2588L176.12 64.6049Z" fill="black"/>
<path d="M167.603 99.8227C166.541 100.142 165.622 100.344 164.844 100.429C164.07 100.498 163.465 100.526 163.03 100.513L162.241 98.745C162.858 98.7485 163.55 98.7026 164.317 98.6073C165.099 98.5068 165.895 98.3066 166.708 98.0068C167.674 97.6502 168.234 97.2991 168.387 96.9536C168.543 96.5924 168.442 96.2322 168.083 95.8733C167.84 95.6305 167.552 95.4478 167.219 95.3251C166.885 95.2025 166.51 95.1243 166.093 95.0904C165.676 95.0565 165.213 95.0539 164.705 95.0825C164.21 95.1059 163.669 95.1395 163.08 95.1834C162.53 95.2275 161.964 95.2557 161.382 95.2682C160.814 95.2754 160.25 95.2381 159.689 95.1561C159.131 95.0585 158.594 94.8953 158.078 94.6667C157.562 94.4381 157.082 94.102 156.639 93.6586C155.911 92.9302 155.581 92.2066 155.648 91.4879C155.705 90.7587 156.255 90.1005 157.298 89.5134L155.525 87.7398L157.709 86.9335L159.419 88.6438C160.133 88.4379 160.809 88.2896 161.447 88.1987C162.074 88.0974 162.589 88.0373 162.992 88.0186L164.034 89.7802C163.512 89.814 162.918 89.8814 162.253 89.9826C161.601 90.0786 160.918 90.2584 160.204 90.522C159.448 90.8011 158.986 91.116 158.819 91.4667C158.641 91.8068 158.732 92.1564 159.091 92.5153C159.302 92.7265 159.537 92.8853 159.797 92.9917C160.046 93.0876 160.341 93.1523 160.681 93.1857C161.01 93.2086 161.389 93.2134 161.817 93.2001C162.234 93.1762 162.698 93.1421 163.21 93.0978C163.953 93.0548 164.671 93.0353 165.365 93.0393C166.063 93.0275 166.727 93.0786 167.359 93.1924C167.98 93.2957 168.564 93.4775 169.112 93.7378C169.673 93.9929 170.186 94.3527 170.651 94.8173C171.347 95.5141 171.662 96.2218 171.594 96.9404C171.526 97.6591 170.908 98.3353 169.74 98.9689L171.718 100.948L169.534 101.755L167.603 99.8227ZM172.935 86.2351C173.504 85.6925 174.005 85.0813 174.437 84.4014C174.884 83.7164 175.163 82.999 175.277 82.2491L177.062 81.5901L188.032 92.5645L185.49 93.5026L177.085 85.0936C176.928 85.4549 176.668 85.847 176.305 86.2701C175.942 86.6932 175.563 87.0715 175.168 87.4052L172.935 86.2351ZM198.559 77.558C198.939 77.9381 199.209 78.3516 199.368 78.7986C199.517 79.2351 199.597 79.6896 199.609 80.162C199.625 80.6187 199.586 81.0883 199.493 81.5706C199.39 82.0424 199.281 82.5089 199.167 82.9701C199.101 83.2111 199.039 83.4942 198.981 83.8193C198.922 84.1444 198.878 84.4643 198.847 84.779C198.817 85.0937 198.816 85.3903 198.845 85.6686C198.863 85.9364 198.934 86.1415 199.057 86.2839L205.527 83.8961L207.142 85.5113L197.878 88.9303C197.78 88.851 197.673 88.7533 197.556 88.6372C197.43 88.5105 197.335 88.4155 197.272 88.3521C196.765 87.8454 196.406 87.3421 196.194 86.8423C195.985 86.3267 195.871 85.8196 195.852 85.3209C195.833 84.8221 195.876 84.329 195.983 83.8415C196.09 83.354 196.203 82.8718 196.32 82.3949C196.414 82.028 196.498 81.6716 196.574 81.3256C196.65 80.9796 196.689 80.6544 196.692 80.35C196.698 80.0299 196.655 79.7279 196.562 79.4439C196.46 79.1494 196.282 78.8755 196.028 78.6221C195.48 78.0731 194.879 77.76 194.227 77.6828C193.575 77.6056 192.947 77.6781 192.345 77.9004C191.953 78.0451 191.631 78.2217 191.38 78.4302C191.128 78.6387 190.927 78.8501 190.777 79.0645C190.641 79.2736 190.538 79.4777 190.469 79.6768C190.389 79.8653 190.337 80.0146 190.313 80.1246L187.707 79.2437C187.873 78.6044 188.222 78.0133 188.753 77.4705C189.287 76.9119 190.009 76.4647 190.919 76.1287C192.474 75.555 193.895 75.4135 195.182 75.7043C196.473 75.9794 197.599 76.5973 198.559 77.558ZM216.493 78.0277C216.947 78.4816 217.264 78.9427 217.445 79.4108C217.625 79.879 217.648 80.3331 217.512 80.7732C217.377 81.2133 217.074 81.6288 216.602 82.0198C216.144 82.4056 215.509 82.7483 214.697 83.0481C213.744 83.3996 212.853 83.5913 212.022 83.6233C211.192 83.6553 210.434 83.588 209.75 83.4214C209.066 83.2548 208.466 83.0283 207.949 82.7419C207.437 82.4398 207.022 82.1304 206.705 81.8137C206.389 81.4969 206.155 81.1859 206.003 80.8807C205.854 80.5596 205.774 80.2495 205.763 79.9503C205.741 79.6405 205.768 79.3415 205.844 79.0533C205.92 78.765 206.031 78.4927 206.178 78.2364C205.196 78.1363 204.349 77.9504 203.636 77.6786C202.927 77.3912 202.287 76.9624 201.718 76.3923C201.306 75.9805 201.021 75.5512 200.861 75.1041C200.706 74.6414 200.688 74.1925 200.809 73.7576C200.931 73.3226 201.194 72.9147 201.599 72.5339C202.004 72.1531 202.557 71.8335 203.257 71.575C204.084 71.2701 204.873 71.1014 205.627 71.069C206.395 71.0314 207.103 71.0879 207.752 71.2386C208.415 71.3841 209.005 71.6 209.521 71.8864C210.037 72.1727 210.459 72.4796 210.786 72.8069C211.366 73.3875 211.673 73.9823 211.707 74.5914C211.73 75.1898 211.601 75.7218 211.318 76.1873C212.482 76.2202 213.482 76.386 214.317 76.6847C215.166 76.9782 215.892 77.4259 216.493 78.0277ZM209.173 80.8594C209.332 81.0178 209.542 81.1712 209.806 81.3196C210.069 81.4681 210.373 81.5801 210.717 81.6555C211.06 81.731 211.439 81.7646 211.853 81.7565C212.256 81.7378 212.688 81.6432 213.151 81.4726C213.571 81.3175 213.893 81.1409 214.116 80.9428C214.34 80.7446 214.481 80.5407 214.54 80.3311C214.588 80.1109 214.572 79.893 214.49 79.6774C214.399 79.4512 214.258 79.243 214.068 79.053C213.772 78.7574 213.437 78.5272 213.061 78.3623C212.685 78.1975 212.271 78.0901 211.819 78.0403C211.37 77.9748 210.891 77.9563 210.383 77.9849C209.865 78.0029 209.32 78.0523 208.748 78.133C208.487 78.5619 208.376 79.0074 208.417 79.4695C208.446 79.921 208.698 80.3843 209.173 80.8594ZM208.339 73.7534C208.202 73.6161 208.012 73.4838 207.77 73.3565C207.531 73.2134 207.252 73.1068 206.933 73.0368C206.627 72.9615 206.294 72.9255 205.933 72.9287C205.572 72.9319 205.203 73.0033 204.824 73.1428C204.446 73.2824 204.165 73.4513 203.98 73.6497C203.798 73.8324 203.697 74.0286 203.677 74.2384C203.646 74.4377 203.673 74.6373 203.758 74.8372C203.832 75.0266 203.948 75.2005 204.106 75.3588C204.508 75.76 205.083 76.0677 205.834 76.282C206.599 76.491 207.556 76.528 208.706 76.3928C208.981 75.9588 209.113 75.5344 209.101 75.1197C209.078 74.6944 208.824 74.239 208.339 73.7534ZM225.989 71.0329C227.835 72.8804 228.807 74.4658 228.902 75.789C228.987 77.1016 228.239 78.0499 226.656 78.634C225.074 79.218 223.344 79.1845 221.466 78.5335C219.578 77.8719 217.711 76.6173 215.864 74.7698C214.946 73.8513 214.245 72.997 213.762 72.2069C213.283 71.4012 213.017 70.6754 212.966 70.0295C212.929 69.3785 213.092 68.8126 213.454 68.3318C213.831 67.8458 214.412 67.4581 215.196 67.1687C216.779 66.5846 218.514 66.6234 220.402 67.285C222.28 67.9361 224.142 69.1854 225.989 71.0329ZM223.363 72.002C222.793 71.4319 222.218 70.9143 221.638 70.4491C221.058 69.9839 220.491 69.608 219.936 69.3214C219.384 69.0191 218.849 68.8192 218.33 68.7218C217.811 68.6243 217.32 68.6609 216.858 68.8315C216.396 69.002 216.109 69.2523 215.998 69.5823C215.901 69.9072 215.94 70.2905 216.113 70.7324C216.29 71.1586 216.584 71.6352 216.996 72.1624C217.422 72.6845 217.92 73.2306 218.49 73.8007C219.059 74.3708 219.627 74.891 220.193 75.3613C220.773 75.8265 221.339 76.2103 221.89 76.5126C222.445 76.7992 222.982 76.9912 223.501 77.0886C224.035 77.1809 224.532 77.1418 224.994 76.9712C225.456 76.8006 225.736 76.5529 225.833 76.2281C225.93 75.9032 225.89 75.5277 225.714 75.1016C225.54 74.6597 225.248 74.1752 224.836 73.648C224.424 73.1208 223.933 72.5721 223.363 72.002ZM234.53 72.5196C234.737 72.6887 234.883 72.8155 234.968 72.9C235.052 72.9845 235.137 73.0689 235.221 73.1534C235.875 73.8079 236.411 74.5353 236.827 75.3355C237.257 76.1304 237.539 76.9298 237.671 77.7336L235.264 78.0584C234.988 77.322 234.611 76.6376 234.132 76.005C233.678 75.3778 233.229 74.8425 232.786 74.3991C232.659 74.2724 232.494 74.1166 232.29 73.9318C232.1 73.7418 231.95 73.6018 231.841 73.512L234.53 72.5196ZM243.548 64.552C245.395 66.3996 246.366 67.985 246.462 69.3081C246.547 70.6208 245.798 71.5691 244.216 72.1531C242.633 72.7372 240.903 72.7037 239.026 72.0526C237.138 71.391 235.27 70.1364 233.423 68.2889C232.505 67.3704 231.805 66.5161 231.322 65.7261C230.842 64.9203 230.577 64.1945 230.525 63.5486C230.488 62.8976 230.651 62.3317 231.014 61.8509C231.391 61.3649 231.971 60.9772 232.756 60.6878C234.338 60.1038 236.073 60.1425 237.961 60.8042C239.839 61.4552 241.701 62.7045 243.548 64.552ZM240.922 65.5211C240.352 64.951 239.778 64.4334 239.198 63.9682C238.618 63.503 238.05 63.1271 237.495 62.8406C236.944 62.5382 236.409 62.3384 235.889 62.2409C235.37 62.1435 234.88 62.18 234.418 62.3506C233.955 62.5212 233.669 62.7715 233.558 63.1015C233.461 63.4263 233.499 63.8097 233.672 64.2516C233.849 64.6777 234.143 65.1544 234.555 65.6816C234.981 66.2036 235.479 66.7497 236.049 67.3198C236.619 67.8899 237.187 68.4101 237.753 68.8805C238.333 69.3457 238.898 69.7294 239.45 70.0317C240.005 70.3183 240.542 70.5103 241.061 70.6078C241.594 70.7001 242.092 70.6609 242.554 70.4903C243.016 70.3198 243.295 70.0721 243.392 69.7472C243.49 69.4224 243.45 69.0469 243.273 68.6207C243.1 68.1789 242.807 67.6943 242.395 67.1671C241.983 66.6399 241.492 66.0912 240.922 65.5211ZM255.487 60.1457C257.334 61.9932 258.305 63.5786 258.4 64.9018C258.486 66.2144 257.737 67.1627 256.155 67.7468C254.572 68.3308 252.842 68.2973 250.964 67.6462C249.076 66.9846 247.209 65.7301 245.362 63.8825C244.444 62.964 243.743 62.1098 243.26 61.3197C242.781 60.5139 242.516 59.7881 242.464 59.1423C242.427 58.4912 242.59 57.9253 242.953 57.4445C243.33 56.9586 243.91 56.5709 244.694 56.2814C246.277 55.6974 248.012 55.7362 249.9 56.3978C251.778 57.0488 253.64 58.2981 255.487 60.1457ZM252.861 61.1148C252.291 60.5447 251.716 60.027 251.136 59.5618C250.556 59.0967 249.989 58.7208 249.434 58.4342C248.883 58.1319 248.347 57.932 247.828 57.8345C247.309 57.7371 246.818 57.7737 246.356 57.9442C245.894 58.1148 245.608 58.3651 245.497 58.6951C245.4 59.02 245.438 59.4033 245.611 59.8452C245.788 60.2713 246.082 60.748 246.494 61.2752C246.92 61.7973 247.418 62.3433 247.988 62.9134C248.558 63.4835 249.126 64.0037 249.692 64.4741C250.272 64.9393 250.837 65.323 251.389 65.6254C251.944 65.9119 252.48 66.104 253 66.2014C253.533 66.2937 254.03 66.2545 254.493 66.084C254.955 65.9134 255.234 65.6657 255.331 65.3408C255.428 65.016 255.388 64.6405 255.212 64.2143C255.038 63.7725 254.746 63.2879 254.334 62.7607C253.922 62.2335 253.431 61.6849 252.861 61.1148Z" fill="#3F65B3"/>
<path d="M167.603 99.8227C166.541 100.142 165.622 100.344 164.844 100.429C164.07 100.498 163.465 100.526 163.03 100.513L162.241 98.745C162.858 98.7485 163.55 98.7026 164.317 98.6073C165.099 98.5068 165.895 98.3066 166.708 98.0068C167.674 97.6502 168.234 97.2991 168.387 96.9536C168.543 96.5924 168.442 96.2322 168.083 95.8733C167.84 95.6305 167.552 95.4478 167.219 95.3251C166.885 95.2025 166.51 95.1243 166.093 95.0904C165.676 95.0565 165.213 95.0539 164.705 95.0825C164.21 95.1059 163.669 95.1395 163.08 95.1834C162.53 95.2275 161.964 95.2557 161.382 95.2682C160.814 95.2754 160.25 95.2381 159.689 95.1561C159.131 95.0585 158.594 94.8953 158.078 94.6667C157.562 94.4381 157.082 94.102 156.639 93.6586C155.911 92.9302 155.581 92.2066 155.648 91.4879C155.705 90.7587 156.255 90.1005 157.298 89.5134L155.525 87.7398L157.709 86.9335L159.419 88.6438C160.133 88.4379 160.809 88.2896 161.447 88.1987C162.074 88.0974 162.589 88.0373 162.992 88.0186L164.034 89.7802C163.512 89.814 162.918 89.8814 162.253 89.9826C161.601 90.0786 160.918 90.2584 160.204 90.522C159.448 90.8011 158.986 91.116 158.819 91.4667C158.641 91.8068 158.732 92.1564 159.091 92.5153C159.302 92.7265 159.537 92.8853 159.797 92.9917C160.046 93.0876 160.341 93.1523 160.681 93.1857C161.01 93.2086 161.389 93.2134 161.817 93.2001C162.234 93.1762 162.698 93.1421 163.21 93.0978C163.953 93.0548 164.671 93.0353 165.365 93.0393C166.063 93.0275 166.727 93.0786 167.359 93.1924C167.98 93.2957 168.564 93.4775 169.112 93.7378C169.673 93.9929 170.186 94.3527 170.651 94.8173C171.347 95.5141 171.662 96.2218 171.594 96.9404C171.526 97.6591 170.908 98.3353 169.74 98.9689L171.718 100.948L169.534 101.755L167.603 99.8227ZM172.935 86.2351C173.504 85.6925 174.005 85.0813 174.437 84.4014C174.884 83.7164 175.163 82.999 175.277 82.2491L177.062 81.5901L188.032 92.5645L185.49 93.5026L177.085 85.0936C176.928 85.4549 176.668 85.847 176.305 86.2701C175.942 86.6932 175.563 87.0715 175.168 87.4052L172.935 86.2351ZM198.559 77.558C198.939 77.9381 199.209 78.3516 199.368 78.7986C199.517 79.2351 199.597 79.6896 199.609 80.162C199.625 80.6187 199.586 81.0883 199.493 81.5706C199.39 82.0424 199.281 82.5089 199.167 82.9701C199.101 83.2111 199.039 83.4942 198.981 83.8193C198.922 84.1444 198.878 84.4643 198.847 84.779C198.817 85.0937 198.816 85.3903 198.845 85.6686C198.863 85.9364 198.934 86.1415 199.057 86.2839L205.527 83.8961L207.142 85.5113L197.878 88.9303C197.78 88.851 197.673 88.7533 197.556 88.6372C197.43 88.5105 197.335 88.4155 197.272 88.3521C196.765 87.8454 196.406 87.3421 196.194 86.8423C195.985 86.3267 195.871 85.8196 195.852 85.3209C195.833 84.8221 195.876 84.329 195.983 83.8415C196.09 83.354 196.203 82.8718 196.32 82.3949C196.414 82.028 196.498 81.6716 196.574 81.3256C196.65 80.9796 196.689 80.6544 196.692 80.35C196.698 80.0299 196.655 79.7279 196.562 79.4439C196.46 79.1494 196.282 78.8755 196.028 78.6221C195.48 78.0731 194.879 77.76 194.227 77.6828C193.575 77.6056 192.947 77.6781 192.345 77.9004C191.953 78.0451 191.631 78.2217 191.38 78.4302C191.128 78.6387 190.927 78.8501 190.777 79.0645C190.641 79.2736 190.538 79.4777 190.469 79.6768C190.389 79.8653 190.337 80.0146 190.313 80.1246L187.707 79.2437C187.873 78.6044 188.222 78.0133 188.753 77.4705C189.287 76.9119 190.009 76.4647 190.919 76.1287C192.474 75.555 193.895 75.4135 195.182 75.7043C196.473 75.9794 197.599 76.5973 198.559 77.558ZM216.493 78.0277C216.947 78.4816 217.264 78.9427 217.445 79.4108C217.625 79.879 217.648 80.3331 217.512 80.7732C217.377 81.2133 217.074 81.6288 216.602 82.0198C216.144 82.4056 215.509 82.7483 214.697 83.0481C213.744 83.3996 212.853 83.5913 212.022 83.6233C211.192 83.6553 210.434 83.588 209.75 83.4214C209.066 83.2548 208.466 83.0283 207.949 82.7419C207.437 82.4398 207.022 82.1304 206.705 81.8137C206.389 81.4969 206.155 81.1859 206.003 80.8807C205.854 80.5596 205.774 80.2495 205.763 79.9503C205.741 79.6405 205.768 79.3415 205.844 79.0533C205.92 78.765 206.031 78.4927 206.178 78.2364C205.196 78.1363 204.349 77.9504 203.636 77.6786C202.927 77.3912 202.287 76.9624 201.718 76.3923C201.306 75.9805 201.021 75.5512 200.861 75.1041C200.706 74.6414 200.688 74.1925 200.809 73.7576C200.931 73.3226 201.194 72.9147 201.599 72.5339C202.004 72.1531 202.557 71.8335 203.257 71.575C204.084 71.2701 204.873 71.1014 205.627 71.069C206.395 71.0314 207.103 71.0879 207.752 71.2386C208.415 71.3841 209.005 71.6 209.521 71.8864C210.037 72.1727 210.459 72.4796 210.786 72.8069C211.366 73.3875 211.673 73.9823 211.707 74.5914C211.73 75.1898 211.601 75.7218 211.318 76.1873C212.482 76.2202 213.482 76.386 214.317 76.6847C215.166 76.9782 215.892 77.4259 216.493 78.0277ZM209.173 80.8594C209.332 81.0178 209.542 81.1712 209.806 81.3196C210.069 81.4681 210.373 81.5801 210.717 81.6555C211.06 81.731 211.439 81.7646 211.853 81.7565C212.256 81.7378 212.688 81.6432 213.151 81.4726C213.571 81.3175 213.893 81.1409 214.116 80.9428C214.34 80.7446 214.481 80.5407 214.54 80.3311C214.588 80.1109 214.572 79.893 214.49 79.6774C214.399 79.4512 214.258 79.243 214.068 79.053C213.772 78.7574 213.437 78.5272 213.061 78.3623C212.685 78.1975 212.271 78.0901 211.819 78.0403C211.37 77.9748 210.891 77.9563 210.383 77.9849C209.865 78.0029 209.32 78.0523 208.748 78.133C208.487 78.5619 208.376 79.0074 208.417 79.4695C208.446 79.921 208.698 80.3843 209.173 80.8594ZM208.339 73.7534C208.202 73.6161 208.012 73.4838 207.77 73.3565C207.531 73.2134 207.252 73.1068 206.933 73.0368C206.627 72.9615 206.294 72.9255 205.933 72.9287C205.572 72.9319 205.203 73.0033 204.824 73.1428C204.446 73.2824 204.165 73.4513 203.98 73.6497C203.798 73.8324 203.697 74.0286 203.677 74.2384C203.646 74.4377 203.673 74.6373 203.758 74.8372C203.832 75.0266 203.948 75.2005 204.106 75.3588C204.508 75.76 205.083 76.0677 205.834 76.282C206.599 76.491 207.556 76.528 208.706 76.3928C208.981 75.9588 209.113 75.5344 209.101 75.1197C209.078 74.6944 208.824 74.239 208.339 73.7534ZM225.989 71.0329C227.835 72.8804 228.807 74.4658 228.902 75.789C228.987 77.1016 228.239 78.0499 226.656 78.634C225.074 79.218 223.344 79.1845 221.466 78.5335C219.578 77.8719 217.711 76.6173 215.864 74.7698C214.946 73.8513 214.245 72.997 213.762 72.2069C213.283 71.4012 213.017 70.6754 212.966 70.0295C212.929 69.3785 213.092 68.8126 213.454 68.3318C213.831 67.8458 214.412 67.4581 215.196 67.1687C216.779 66.5846 218.514 66.6234 220.402 67.285C222.28 67.9361 224.142 69.1854 225.989 71.0329ZM223.363 72.002C222.793 71.4319 222.218 70.9143 221.638 70.4491C221.058 69.9839 220.491 69.608 219.936 69.3214C219.384 69.0191 218.849 68.8192 218.33 68.7218C217.811 68.6243 217.32 68.6609 216.858 68.8315C216.396 69.002 216.109 69.2523 215.998 69.5823C215.901 69.9072 215.94 70.2905 216.113 70.7324C216.29 71.1586 216.584 71.6352 216.996 72.1624C217.422 72.6845 217.92 73.2306 218.49 73.8007C219.059 74.3708 219.627 74.891 220.193 75.3613C220.773 75.8265 221.339 76.2103 221.89 76.5126C222.445 76.7992 222.982 76.9912 223.501 77.0886C224.035 77.1809 224.532 77.1418 224.994 76.9712C225.456 76.8006 225.736 76.5529 225.833 76.2281C225.93 75.9032 225.89 75.5277 225.714 75.1016C225.54 74.6597 225.248 74.1752 224.836 73.648C224.424 73.1208 223.933 72.5721 223.363 72.002ZM234.53 72.5196C234.737 72.6887 234.883 72.8155 234.968 72.9C235.052 72.9845 235.137 73.0689 235.221 73.1534C235.875 73.8079 236.411 74.5353 236.827 75.3355C237.257 76.1304 237.539 76.9298 237.671 77.7336L235.264 78.0584C234.988 77.322 234.611 76.6376 234.132 76.005C233.678 75.3778 233.229 74.8425 232.786 74.3991C232.659 74.2724 232.494 74.1166 232.29 73.9318C232.1 73.7418 231.95 73.6018 231.841 73.512L234.53 72.5196ZM243.548 64.552C245.395 66.3996 246.366 67.985 246.462 69.3081C246.547 70.6208 245.798 71.5691 244.216 72.1531C242.633 72.7372 240.903 72.7037 239.026 72.0526C237.138 71.391 235.27 70.1364 233.423 68.2889C232.505 67.3704 231.805 66.5161 231.322 65.7261C230.842 64.9203 230.577 64.1945 230.525 63.5486C230.488 62.8976 230.651 62.3317 231.014 61.8509C231.391 61.3649 231.971 60.9772 232.756 60.6878C234.338 60.1038 236.073 60.1425 237.961 60.8042C239.839 61.4552 241.701 62.7045 243.548 64.552ZM240.922 65.5211C240.352 64.951 239.778 64.4334 239.198 63.9682C238.618 63.503 238.05 63.1271 237.495 62.8406C236.944 62.5382 236.409 62.3384 235.889 62.2409C235.37 62.1435 234.88 62.18 234.418 62.3506C233.955 62.5212 233.669 62.7715 233.558 63.1015C233.461 63.4263 233.499 63.8097 233.672 64.2516C233.849 64.6777 234.143 65.1544 234.555 65.6816C234.981 66.2036 235.479 66.7497 236.049 67.3198C236.619 67.8899 237.187 68.4101 237.753 68.8805C238.333 69.3457 238.898 69.7294 239.45 70.0317C240.005 70.3183 240.542 70.5103 241.061 70.6078C241.594 70.7001 242.092 70.6609 242.554 70.4903C243.016 70.3198 243.295 70.0721 243.392 69.7472C243.49 69.4224 243.45 69.0469 243.273 68.6207C243.1 68.1789 242.807 67.6943 242.395 67.1671C241.983 66.6399 241.492 66.0912 240.922 65.5211ZM255.487 60.1457C257.334 61.9932 258.305 63.5786 258.4 64.9018C258.486 66.2144 257.737 67.1627 256.155 67.7468C254.572 68.3308 252.842 68.2973 250.964 67.6462C249.076 66.9846 247.209 65.7301 245.362 63.8825C244.444 62.964 243.743 62.1098 243.26 61.3197C242.781 60.5139 242.516 59.7881 242.464 59.1423C242.427 58.4912 242.59 57.9253 242.953 57.4445C243.33 56.9586 243.91 56.5709 244.694 56.2814C246.277 55.6974 248.012 55.7362 249.9 56.3978C251.778 57.0488 253.64 58.2981 255.487 60.1457ZM252.861 61.1148C252.291 60.5447 251.716 60.027 251.136 59.5618C250.556 59.0967 249.989 58.7208 249.434 58.4342C248.883 58.1319 248.347 57.932 247.828 57.8345C247.309 57.7371 246.818 57.7737 246.356 57.9442C245.894 58.1148 245.608 58.3651 245.497 58.6951C245.4 59.02 245.438 59.4033 245.611 59.8452C245.788 60.2713 246.082 60.748 246.494 61.2752C246.92 61.7973 247.418 62.3433 247.988 62.9134C248.558 63.4835 249.126 64.0037 249.692 64.4741C250.272 64.9393 250.837 65.323 251.389 65.6254C251.944 65.9119 252.48 66.104 253 66.2014C253.533 66.2937 254.03 66.2545 254.493 66.084C254.955 65.9134 255.234 65.6657 255.331 65.3408C255.428 65.016 255.388 64.6405 255.212 64.2143C255.038 63.7725 254.746 63.2879 254.334 62.7607C253.922 62.2335 253.431 61.6849 252.861 61.1148Z" fill="url(#paint5_linear_978_37018)"/>
<g filter="url(#filter3_d_978_37018)">
<rect width="40.999" height="36.9997" rx="10.2485" transform="matrix(0.938142 -0.346251 0.706951 0.707262 82.0471 83.9902)" fill="#D9D9D9"/>
<rect width="40.999" height="36.9997" rx="10.2485" transform="matrix(0.938142 -0.346251 0.706951 0.707262 82.0471 83.9902)" fill="url(#paint6_linear_978_37018)"/>
</g>
<rect width="40.999" height="36.9997" rx="10.2485" transform="matrix(0.938142 -0.346251 0.706951 0.707262 82.0471 79.9902)" fill="url(#paint7_linear_978_37018)"/>
<path d="M108.536 83.339L107.168 81.9735C106.806 81.6114 106.656 81.1913 106.751 80.8056C106.847 80.42 107.18 80.1003 107.678 79.9171L111.431 78.5349C111.929 78.3517 112.55 78.3197 113.159 78.4462C113.767 78.5727 114.313 78.8472 114.675 79.2093L116.043 80.5747M108.885 88.8174L112.379 88.2663C115.912 87.7094 119.038 86.5583 121.481 84.9146L123.899 83.2889" stroke="white" stroke-width="1.5767" stroke-linecap="round"/>
<path d="M106.463 86.4034C106.087 86.0286 105.925 85.5963 106.012 85.2017C106.098 84.8071 106.426 84.4825 106.924 84.2992L118.185 80.1531C118.683 79.9698 119.309 79.943 119.926 80.0784C120.544 80.2138 121.102 80.5004 121.477 80.8752L127.138 86.5278C127.513 86.9025 127.676 87.3348 127.589 87.7294C127.502 88.124 127.174 88.4486 126.676 88.6319L115.416 92.778C114.918 92.9613 114.292 92.9882 113.674 92.8527C113.057 92.7173 112.499 92.4307 112.124 92.0559L106.463 86.4034Z" stroke="white" stroke-width="1.5767" stroke-linejoin="round"/>
<path d="M116.401 86.0579C116.919 85.867 117.022 85.396 116.632 85.0058C116.241 84.6155 115.504 84.4539 114.986 84.6447C114.467 84.8355 114.364 85.3066 114.755 85.6968C115.146 86.087 115.883 86.2487 116.401 86.0579Z" fill="#407CE0"/>
<defs>
<filter id="filter0_ddddd_978_37018" x="0.549508" y="15.5539" width="312.723" height="186.778" filterUnits="userSpaceOnUse" color-interpolation-filters="sRGB">
<feFlood flood-opacity="0" result="BackgroundImageFix"/>
<feColorMatrix in="SourceAlpha" type="matrix" values="0 0 0 0 0 0 0 0 0 0 0 0 0 0 0 0 0 0 127 0" result="hardAlpha"/>
<feOffset/>
<feColorMatrix type="matrix" values="0 0 0 0 0 0 0 0 0 0 0 0 0 0 0 0 0 0 0.05 0"/>
<feBlend mode="normal" in2="BackgroundImageFix" result="effect1_dropShadow_978_37018"/>
<feColorMatrix in="SourceAlpha" type="matrix" values="0 0 0 0 0 0 0 0 0 0 0 0 0 0 0 0 0 0 127 0" result="hardAlpha"/>
<feOffset dx="-0.715527" dy="1.43105"/>
<feGaussianBlur stdDeviation="2.14658"/>
<feColorMatrix type="matrix" values="0 0 0 0 0 0 0 0 0 0 0 0 0 0 0 0 0 0 0.05 0"/>
<feBlend mode="normal" in2="effect1_dropShadow_978_37018" result="effect2_dropShadow_978_37018"/>
<feColorMatrix in="SourceAlpha" type="matrix" values="0 0 0 0 0 0 0 0 0 0 0 0 0 0 0 0 0 0 127 0" result="hardAlpha"/>
<feOffset dx="-4.29316" dy="6.43974"/>
<feGaussianBlur stdDeviation="3.9354"/>
<feColorMatrix type="matrix" values="0 0 0 0 0 0 0 0 0 0 0 0 0 0 0 0 0 0 0.04 0"/>
<feBlend mode="normal" in2="effect2_dropShadow_978_37018" result="effect3_dropShadow_978_37018"/>
<feColorMatrix in="SourceAlpha" type="matrix" values="0 0 0 0 0 0 0 0 0 0 0 0 0 0 0 0 0 0 127 0" result="hardAlpha"/>
<feOffset dx="-9.30185" dy="14.3105"/>
<feGaussianBlur stdDeviation="5.36645"/>
<feColorMatrix type="matrix" values="0 0 0 0 0 0 0 0 0 0 0 0 0 0 0 0 0 0 0.03 0"/>
<feBlend mode="normal" in2="effect3_dropShadow_978_37018" result="effect4_dropShadow_978_37018"/>
<feColorMatrix in="SourceAlpha" type="matrix" values="0 0 0 0 0 0 0 0 0 0 0 0 0 0 0 0 0 0 127 0" result="hardAlpha"/>
<feOffset dx="-17.1726" dy="25.759"/>
<feGaussianBlur stdDeviation="6.08198"/>
<feColorMatrix type="matrix" values="0 0 0 0 0 0 0 0 0 0 0 0 0 0 0 0 0 0 0.01 0"/>
<feBlend mode="normal" in2="effect4_dropShadow_978_37018" result="effect5_dropShadow_978_37018"/>
<feBlend mode="normal" in="SourceGraphic" in2="effect5_dropShadow_978_37018" result="shape"/>
</filter>
<filter id="filter1_i_978_37018" x="29.8878" y="7.41748" width="279.805" height="151.076" filterUnits="userSpaceOnUse" color-interpolation-filters="sRGB">
<feFlood flood-opacity="0" result="BackgroundImageFix"/>
<feBlend mode="normal" in="SourceGraphic" in2="BackgroundImageFix" result="shape"/>
<feColorMatrix in="SourceAlpha" type="matrix" values="0 0 0 0 0 0 0 0 0 0 0 0 0 0 0 0 0 0 127 0" result="hardAlpha"/>
<feOffset dy="5.08566"/>
<feGaussianBlur stdDeviation="8.89991"/>
<feComposite in2="hardAlpha" operator="arithmetic" k2="-1" k3="1"/>
<feColorMatrix type="matrix" values="0 0 0 0 0 0 0 0 0 0 0 0 0 0 0 0 0 0 0.04 0"/>
<feBlend mode="normal" in2="shape" result="effect1_innerShadow_978_37018"/>
</filter>
<filter id="filter2_i_978_37018" x="86.8674" y="91.5186" width="54.9792" height="40.0007" filterUnits="userSpaceOnUse" color-interpolation-filters="sRGB">
<feFlood flood-opacity="0" result="BackgroundImageFix"/>
<feBlend mode="normal" in="SourceGraphic" in2="BackgroundImageFix" result="shape"/>
<feColorMatrix in="SourceAlpha" type="matrix" values="0 0 0 0 0 0 0 0 0 0 0 0 0 0 0 0 0 0 127 0" result="hardAlpha"/>
<feOffset dy="5.08566"/>
<feGaussianBlur stdDeviation="8.89991"/>
<feComposite in2="hardAlpha" operator="arithmetic" k2="-1" k3="1"/>
<feColorMatrix type="matrix" values="0 0 0 0 0 0 0 0 0 0 0 0 0 0 0 0 0 0 0.12 0"/>
<feBlend mode="normal" in2="shape" result="effect1_innerShadow_978_37018"/>
</filter>
<filter id="filter3_d_978_37018" x="71.8888" y="72.519" width="84.9365" height="68.814" filterUnits="userSpaceOnUse" color-interpolation-filters="sRGB">
<feFlood flood-opacity="0" result="BackgroundImageFix"/>
<feColorMatrix in="SourceAlpha" type="matrix" values="0 0 0 0 0 0 0 0 0 0 0 0 0 0 0 0 0 0 127 0" result="hardAlpha"/>
<feOffset dy="18.9204"/>
<feGaussianBlur stdDeviation="7.48931"/>
<feComposite in2="hardAlpha" operator="out"/>
<feColorMatrix type="matrix" values="0 0 0 0 0.00784314 0 0 0 0 0.376471 0 0 0 0 0.968627 0 0 0 0.13 0"/>
<feBlend mode="normal" in2="BackgroundImageFix" result="effect1_dropShadow_978_37018"/>
<feBlend mode="normal" in="SourceGraphic" in2="effect1_dropShadow_978_37018" result="shape"/>
</filter>
<linearGradient id="paint0_linear_978_37018" x1="38.3115" y1="87.189" x2="21.4363" y2="106.618" gradientUnits="userSpaceOnUse">
<stop offset="0.029378" stop-color="#E4E6EF"/>
<stop offset="1" stop-color="#E4E6F3"/>
</linearGradient>
<linearGradient id="paint1_linear_978_37018" x1="122.499" y1="0" x2="122.499" y2="106.999" gradientUnits="userSpaceOnUse">
<stop stop-color="#F2F3F7"/>
<stop offset="1" stop-color="#F9FAFC"/>
</linearGradient>
<linearGradient id="paint2_linear_978_37018" x1="20.4995" y1="0" x2="20.4995" y2="36.9997" gradientUnits="userSpaceOnUse">
<stop stop-color="#F2F3F7"/>
<stop offset="1" stop-color="#F9FAFC"/>
</linearGradient>
<linearGradient id="paint3_linear_978_37018" x1="-15.4625" y1="19.354" x2="-15.4424" y2="19.6024" gradientUnits="userSpaceOnUse">
<stop stop-color="#90B4FF"/>
<stop offset="1" stop-color="#93B0F7"/>
</linearGradient>
<linearGradient id="paint4_linear_978_37018" x1="-15.4625" y1="19.354" x2="-15.4424" y2="19.6024" gradientUnits="userSpaceOnUse">
<stop stop-color="#90B4FF"/>
<stop offset="1" stop-color="#93B0F7"/>
</linearGradient>
<linearGradient id="paint5_linear_978_37018" x1="192.499" y1="110.268" x2="225.097" y2="46.551" gradientUnits="userSpaceOnUse">
<stop stop-color="#3F7BDD"/>
<stop offset="1" stop-color="#4282EC"/>
</linearGradient>
<linearGradient id="paint6_linear_978_37018" x1="-15.4625" y1="19.354" x2="-15.4424" y2="19.6024" gradientUnits="userSpaceOnUse">
<stop stop-color="#90B4FF"/>
<stop offset="1" stop-color="#93B0F7"/>
</linearGradient>
<linearGradient id="paint7_linear_978_37018" x1="20.4995" y1="0" x2="20.4995" y2="36.9997" gradientUnits="userSpaceOnUse">
<stop stop-color="#3F7CDF"/>
<stop offset="1" stop-color="#4182EB"/>
</linearGradient>
</defs>
</svg>
