<svg width="497" height="444" viewBox="0 0 497 444" fill="none" xmlns="http://www.w3.org/2000/svg">
<g filter="url(#filter0_d_994_37182)">
<rect width="331.478" height="175.818" rx="34" transform="matrix(0.938191 -0.346117 0.707107 0.707107 60 230.707)" fill="url(#paint0_linear_994_37182)"/>
</g>
<g filter="url(#filter1_i_994_37182)">
<rect width="331.478" height="175.818" rx="34" transform="matrix(0.938191 -0.346117 0.707107 0.707107 61.6895 219.73)" fill="url(#paint1_linear_994_37182)"/>
</g>
<rect x="2.27467" y="0.499078" width="328.712" height="173.053" rx="32.6175" transform="matrix(0.938191 -0.346117 0.707107 0.707107 61.4771 220.663)" stroke="white" stroke-width="2.76505"/>
<line y1="-0.606136" x2="297.294" y2="-0.606136" transform="matrix(0.938191 -0.346117 0.707107 0.707107 188.55 322.034)" stroke="#C4BEBE" stroke-width="1.21227"/>
<line y1="-0.15991" x2="297.294" y2="-0.15991" transform="matrix(0.938191 -0.346117 0.707107 0.707107 163.976 297.449)" stroke="#C4BEBE" stroke-width="0.31982"/>
<line y1="-0.15991" x2="297.294" y2="-0.15991" transform="matrix(0.938191 -0.346117 0.707107 0.707107 139.893 273.366)" stroke="#C4BEBE" stroke-width="0.31982"/>
<line y1="-0.15991" x2="297.294" y2="-0.15991" transform="matrix(0.938191 -0.346117 0.707107 0.707107 115.809 249.284)" stroke="#C4BEBE" stroke-width="0.31982"/>
<line y1="-0.15991" x2="297.294" y2="-0.15991" transform="matrix(0.938191 -0.346117 0.707107 0.707107 91.7246 225.202)" stroke="#C4BEBE" stroke-width="0.31982"/>
<path d="M186.024 318.562L234.655 300.632L283.217 282.728C292.392 279.345 300.692 275.138 307.938 270.197L322.427 260.317C329.169 255.72 338.039 252.697 348.091 251.572L367.466 249.403C379.406 248.067 387.305 241.58 387.175 233.218V233.218L385.562 207.02L382.237 189.959L374.034 147.054" stroke="url(#paint2_linear_994_37182)" stroke-width="5.33033" stroke-linecap="round"/>
<g filter="url(#filter2_ddddd_994_37182)">
<rect width="198.281" height="229.022" rx="34" transform="matrix(0.938191 -0.346117 0.707107 0.707107 21.957 83.6282)" fill="url(#paint3_linear_994_37182)"/>
</g>
<g filter="url(#filter3_i_994_37182)">
<rect width="198.281" height="229.022" rx="34" transform="matrix(0.938191 -0.346117 0.707107 0.707107 21.958 68.6284)" fill="url(#paint4_linear_994_37182)"/>
</g>
<rect x="1.9901" y="0.436642" width="195.862" height="226.603" rx="32.7904" transform="matrix(0.938191 -0.346117 0.707107 0.707107 21.7723 69.4451)" stroke="white" stroke-width="2.41914"/>
<circle cx="66.0936" cy="66.0936" r="58.7926" transform="matrix(0.938191 -0.346117 0.707107 0.707107 72.5244 76.7534)" stroke="#EBEEF5" stroke-width="14.6021"/>
<g filter="url(#filter4_ddddd_994_37182)">
<path d="M139.703 59.0486C136.847 56.1924 137.584 52.7107 141.666 51.6366C152.162 48.8745 164.016 47.9562 176.274 48.9932C191.4 50.2728 206.482 54.4738 219.657 61.0781C232.833 67.6824 243.527 76.4011 250.421 86.1591C257.314 95.917 260.106 106.287 258.451 115.991C256.797 125.695 250.768 134.308 241.109 140.768C231.45 147.228 218.583 151.252 204.095 152.344C189.607 153.436 174.131 151.549 159.577 146.915C147.782 143.159 137.01 137.733 128.115 131.107C124.655 128.53 125.116 124.993 128.726 123.426C132.337 121.858 137.725 122.862 141.284 125.378C147.928 130.076 155.806 133.938 164.377 136.667C175.71 140.276 187.761 141.746 199.043 140.895C210.325 140.045 220.344 136.911 227.865 131.881C235.387 126.851 240.081 120.144 241.369 112.588C242.658 105.031 240.484 96.9561 235.116 89.3578C229.748 81.7594 221.421 74.9702 211.161 69.8275C200.901 64.6848 189.158 61.4136 177.379 60.4172C168.471 59.6636 159.837 60.2361 152.081 62.0641C147.925 63.0435 142.56 61.9048 139.703 59.0486Z" fill="url(#paint5_linear_994_37182)"/>
</g>
<path d="M139.703 57.117C136.847 54.2608 137.584 50.779 141.666 49.7049C152.162 46.9429 164.016 46.0246 176.274 47.0615C191.4 48.3411 206.482 52.5421 219.657 59.1464C232.833 65.7507 243.527 74.4695 250.421 84.2274C257.314 93.9854 260.106 104.356 258.451 114.06C256.797 123.764 250.768 132.376 241.109 138.836C231.45 145.296 218.583 149.32 204.095 150.413C189.607 151.505 174.131 149.617 159.577 144.983C147.782 141.227 137.01 135.801 128.115 129.175C124.655 126.598 125.116 123.062 128.726 121.494C132.337 119.926 137.725 120.93 141.284 123.447C147.928 128.144 155.806 132.006 164.377 134.736C175.71 138.344 187.761 139.814 199.043 138.964C210.325 138.113 220.344 134.98 227.865 129.949C235.387 124.919 240.081 118.212 241.369 110.656C242.658 103.1 240.484 95.0245 235.116 87.4261C229.748 79.8277 221.421 73.0386 211.161 67.8959C200.901 62.7532 189.158 59.4819 177.379 58.4855C168.471 57.732 159.837 58.3044 152.081 60.1324C147.925 61.1119 142.56 59.9731 139.703 57.117Z" fill="url(#paint6_linear_994_37182)"/>
<path d="M139.703 57.117C136.847 54.2608 137.584 50.779 141.666 49.7049C152.162 46.9429 164.016 46.0246 176.274 47.0615C191.4 48.3411 206.482 52.5421 219.657 59.1464C232.833 65.7507 243.527 74.4695 250.421 84.2274C257.314 93.9854 260.106 104.356 258.451 114.06C256.797 123.764 250.768 132.376 241.109 138.836C231.45 145.296 218.583 149.32 204.095 150.413C189.607 151.505 174.131 149.617 159.577 144.983C147.782 141.227 137.01 135.801 128.115 129.175C124.655 126.598 125.116 123.062 128.726 121.494C132.337 119.926 137.725 120.93 141.284 123.447C147.928 128.144 155.806 132.006 164.377 134.736C175.71 138.344 187.761 139.814 199.043 138.964C210.325 138.113 220.344 134.98 227.865 129.949C235.387 124.919 240.081 118.212 241.369 110.656C242.658 103.1 240.484 95.0245 235.116 87.4261C229.748 79.8277 221.421 73.0386 211.161 67.8959C200.901 62.7532 189.158 59.4819 177.379 58.4855C168.471 57.732 159.837 58.3044 152.081 60.1324C147.925 61.1119 142.56 59.9731 139.703 57.117Z" fill="url(#paint7_linear_994_37182)"/>
<path d="M139.703 55.1853C136.847 52.3292 137.584 48.8474 141.666 47.7733C152.162 45.0112 164.016 44.0929 176.274 45.1299C191.4 46.4095 206.482 50.6105 219.657 57.2148C232.833 63.8191 243.527 72.5378 250.421 82.2958C257.314 92.0537 260.106 102.424 258.451 112.128C256.797 121.832 250.768 130.445 241.109 136.905C231.45 143.365 218.583 147.389 204.095 148.481C189.607 149.573 174.131 147.686 159.577 143.051C147.782 139.296 137.01 133.869 128.115 127.243C124.655 124.667 125.116 121.13 128.726 119.562C132.337 117.995 137.725 118.998 141.284 121.515C147.928 126.212 155.806 130.075 164.377 132.804C175.71 136.413 187.761 137.883 199.043 137.032C210.325 136.181 220.344 133.048 227.865 128.018C235.387 122.987 240.081 116.281 241.369 108.724C242.658 101.168 240.484 93.0929 235.116 85.4945C229.748 77.8961 221.421 71.1069 211.161 65.9642C200.901 60.8216 189.158 57.5503 177.379 56.5539C168.471 55.8003 159.837 56.3728 152.081 58.2008C147.925 59.1802 142.56 58.0415 139.703 55.1853Z" fill="url(#paint8_linear_994_37182)"/>
<path d="M139.703 55.1853C136.847 52.3292 137.584 48.8474 141.666 47.7733C152.162 45.0112 164.016 44.0929 176.274 45.1299C191.4 46.4095 206.482 50.6105 219.657 57.2148C232.833 63.8191 243.527 72.5378 250.421 82.2958C257.314 92.0537 260.106 102.424 258.451 112.128C256.797 121.832 250.768 130.445 241.109 136.905C231.45 143.365 218.583 147.389 204.095 148.481C189.607 149.573 174.131 147.686 159.577 143.051C147.782 139.296 137.01 133.869 128.115 127.243C124.655 124.667 125.116 121.13 128.726 119.562C132.337 117.995 137.725 118.998 141.284 121.515C147.928 126.212 155.806 130.075 164.377 132.804C175.71 136.413 187.761 137.883 199.043 137.032C210.325 136.181 220.344 133.048 227.865 128.018C235.387 122.987 240.081 116.281 241.369 108.724C242.658 101.168 240.484 93.0929 235.116 85.4945C229.748 77.8961 221.421 71.1069 211.161 65.9642C200.901 60.8216 189.158 57.5503 177.379 56.5539C168.471 55.8003 159.837 56.3728 152.081 58.2008C147.925 59.1802 142.56 58.0415 139.703 55.1853Z" fill="url(#paint9_linear_994_37182)"/>
<path d="M139.703 53.2537C136.847 50.3975 137.584 46.9158 141.666 45.8417C152.162 43.0796 164.016 42.1613 176.274 43.1982C191.4 44.4778 206.482 48.6788 219.657 55.2831C232.833 61.8874 243.527 70.6062 250.421 80.3641C257.314 90.1221 260.106 100.492 258.451 110.196C256.797 119.9 250.768 128.513 241.109 134.973C231.45 141.433 218.583 145.457 204.095 146.549C189.607 147.642 174.131 145.754 159.577 141.12C147.782 137.364 137.01 131.938 128.115 125.312C124.655 122.735 125.116 119.198 128.726 117.631C132.337 116.063 137.725 117.067 141.284 119.584C147.928 124.281 155.806 128.143 164.377 130.872C175.71 134.481 187.761 135.951 199.043 135.1C210.325 134.25 220.344 131.116 227.865 126.086C235.387 121.056 240.081 114.349 241.369 106.793C242.658 99.2365 240.484 91.1612 235.116 83.5628C229.748 75.9645 221.421 69.1753 211.161 64.0326C200.901 58.8899 189.158 55.6187 177.379 54.6222C168.471 53.8687 159.837 54.4412 152.081 56.2691C147.925 57.2486 142.56 56.1099 139.703 53.2537Z" fill="url(#paint10_linear_994_37182)"/>
<path d="M139.703 53.2537C136.847 50.3975 137.584 46.9158 141.666 45.8417C152.162 43.0796 164.016 42.1613 176.274 43.1982C191.4 44.4778 206.482 48.6788 219.657 55.2831C232.833 61.8874 243.527 70.6062 250.421 80.3641C257.314 90.1221 260.106 100.492 258.451 110.196C256.797 119.9 250.768 128.513 241.109 134.973C231.45 141.433 218.583 145.457 204.095 146.549C189.607 147.642 174.131 145.754 159.577 141.12C147.782 137.364 137.01 131.938 128.115 125.312C124.655 122.735 125.116 119.198 128.726 117.631C132.337 116.063 137.725 117.067 141.284 119.584C147.928 124.281 155.806 128.143 164.377 130.872C175.71 134.481 187.761 135.951 199.043 135.1C210.325 134.25 220.344 131.116 227.865 126.086C235.387 121.056 240.081 114.349 241.369 106.793C242.658 99.2365 240.484 91.1612 235.116 83.5628C229.748 75.9645 221.421 69.1753 211.161 64.0326C200.901 58.8899 189.158 55.6187 177.379 54.6222C168.471 53.8687 159.837 54.4412 152.081 56.2691C147.925 57.2486 142.56 56.1099 139.703 53.2537Z" fill="url(#paint11_linear_994_37182)"/>
<mask id="path-18-inside-1_994_37182" fill="white">
<path d="M139.703 51.322C136.847 48.4659 137.584 44.9841 141.666 43.91C152.163 41.1478 164.017 40.2296 176.276 41.2668C191.403 42.5466 206.485 46.7482 219.66 53.3531C232.836 59.958 243.53 68.6775 250.423 78.436C257.316 88.1946 260.107 98.5654 258.45 108.269C256.794 117.973 250.764 126.586 241.103 133.045C231.442 139.504 218.574 143.528 204.085 144.618C189.595 145.709 174.119 143.82 159.564 139.184C147.77 135.427 136.999 129.999 128.104 123.372C124.645 120.795 125.107 117.259 128.718 115.691C132.329 114.124 137.717 115.129 141.276 117.646C147.919 122.344 155.796 126.208 164.368 128.938C175.701 132.548 187.752 134.019 199.035 133.169C210.317 132.32 220.338 129.187 227.861 124.157C235.383 119.128 240.079 112.421 241.369 104.865C242.658 97.3084 240.485 89.2328 235.118 81.6339C229.751 74.0351 221.423 67.2454 211.164 62.1022C200.904 56.959 189.16 53.6874 177.38 52.6907C168.472 51.937 159.838 52.5094 152.081 54.3375C147.925 55.3169 142.56 54.1782 139.703 51.322Z"/>
</mask>
<path d="M139.703 51.322C136.847 48.4659 137.584 44.9841 141.666 43.91C152.163 41.1478 164.017 40.2296 176.276 41.2668C191.403 42.5466 206.485 46.7482 219.66 53.3531C232.836 59.958 243.53 68.6775 250.423 78.436C257.316 88.1946 260.107 98.5654 258.45 108.269C256.794 117.973 250.764 126.586 241.103 133.045C231.442 139.504 218.574 143.528 204.085 144.618C189.595 145.709 174.119 143.82 159.564 139.184C147.77 135.427 136.999 129.999 128.104 123.372C124.645 120.795 125.107 117.259 128.718 115.691C132.329 114.124 137.717 115.129 141.276 117.646C147.919 122.344 155.796 126.208 164.368 128.938C175.701 132.548 187.752 134.019 199.035 133.169C210.317 132.32 220.338 129.187 227.861 124.157C235.383 119.128 240.079 112.421 241.369 104.865C242.658 97.3084 240.485 89.2328 235.118 81.6339C229.751 74.0351 221.423 67.2454 211.164 62.1022C200.904 56.959 189.16 53.6874 177.38 52.6907C168.472 51.937 159.838 52.5094 152.081 54.3375C147.925 55.3169 142.56 54.1782 139.703 51.322Z" fill="url(#paint12_linear_994_37182)" stroke="white" stroke-opacity="0.54" stroke-width="1.53706" mask="url(#path-18-inside-1_994_37182)"/>
<path d="M162.665 111.97C161.646 112.276 160.763 112.47 160.016 112.552C159.272 112.618 158.691 112.645 158.274 112.632L157.515 110.935C158.108 110.938 158.773 110.894 159.51 110.803C160.26 110.706 161.025 110.514 161.806 110.226C162.734 109.884 163.271 109.547 163.418 109.215C163.568 108.868 163.471 108.522 163.126 108.178C162.893 107.945 162.617 107.769 162.296 107.651C161.976 107.534 161.615 107.459 161.215 107.426C160.814 107.394 160.37 107.391 159.881 107.418C159.407 107.441 158.887 107.473 158.321 107.515C157.793 107.558 157.249 107.585 156.69 107.597C156.145 107.603 155.603 107.568 155.064 107.489C154.528 107.395 154.012 107.238 153.517 107.019C153.021 106.799 152.56 106.477 152.134 106.051C151.435 105.352 151.118 104.657 151.183 103.967C151.237 103.267 151.765 102.635 152.767 102.071L151.064 100.368L153.162 99.5941L154.804 101.236C155.49 101.039 156.139 100.896 156.752 100.809C157.354 100.712 157.849 100.654 158.236 100.636L159.237 102.328C158.735 102.36 158.165 102.425 157.526 102.522C156.9 102.614 156.244 102.787 155.558 103.04C154.832 103.308 154.388 103.61 154.228 103.947C154.057 104.273 154.144 104.609 154.489 104.953C154.692 105.156 154.918 105.309 155.167 105.411C155.407 105.503 155.69 105.565 156.017 105.597C156.333 105.619 156.697 105.624 157.107 105.611C157.508 105.588 157.954 105.555 158.445 105.513C159.159 105.472 159.849 105.453 160.516 105.457C161.186 105.445 161.824 105.494 162.43 105.604C163.027 105.703 163.588 105.878 164.114 106.128C164.654 106.372 165.146 106.718 165.592 107.164C166.261 107.833 166.563 108.513 166.499 109.203C166.434 109.893 165.84 110.542 164.718 111.15L166.618 113.051L164.52 113.825L162.665 111.97ZM176.221 96.5615C176.586 96.9264 176.845 97.3235 176.998 97.7527C177.141 98.1718 177.218 98.6081 177.23 99.0617C177.245 99.5002 177.208 99.951 177.118 100.414C177.019 100.867 176.914 101.315 176.805 101.758C176.742 101.989 176.682 102.261 176.626 102.573C176.57 102.885 176.527 103.192 176.498 103.495C176.469 103.797 176.468 104.081 176.496 104.349C176.514 104.606 176.582 104.803 176.7 104.939L182.914 102.647L184.465 104.198L175.568 107.48C175.473 107.404 175.37 107.31 175.259 107.199C175.137 107.077 175.046 106.986 174.985 106.925C174.499 106.439 174.153 105.955 173.95 105.475C173.749 104.98 173.64 104.494 173.621 104.015C173.603 103.536 173.645 103.062 173.747 102.594C173.85 102.126 173.958 101.663 174.071 101.205C174.16 100.853 174.242 100.511 174.315 100.179C174.387 99.8466 174.425 99.5344 174.427 99.2421C174.433 98.9348 174.392 98.6448 174.303 98.3721C174.204 98.0894 174.033 97.8263 173.79 97.5831C173.263 97.0559 172.686 96.7553 172.06 96.6812C171.433 96.607 170.831 96.6766 170.252 96.89C169.876 97.0289 169.567 97.1984 169.325 97.3986C169.083 97.5988 168.89 97.8018 168.746 98.0076C168.616 98.2084 168.517 98.4043 168.451 98.5954C168.374 98.7764 168.324 98.9197 168.301 99.0254L165.798 98.1796C165.957 97.5657 166.292 96.9982 166.802 96.477C167.315 95.9408 168.009 95.5114 168.883 95.1889C170.376 94.6381 171.74 94.5024 172.977 94.7816C174.217 95.0457 175.298 95.639 176.221 96.5615ZM187.687 92.3314C188.052 92.6963 188.311 93.0934 188.464 93.5226C188.607 93.9416 188.684 94.378 188.696 94.8316C188.711 95.2701 188.674 95.7209 188.585 96.184C188.485 96.6369 188.381 97.0848 188.271 97.5277C188.208 97.7591 188.148 98.0309 188.092 98.343C188.036 98.6551 187.994 98.9622 187.964 99.2644C187.935 99.5666 187.934 99.8513 187.962 100.119C187.98 100.376 188.048 100.573 188.166 100.709L194.38 98.417L195.931 99.9679L187.034 103.25C186.94 103.174 186.837 103.08 186.725 102.969C186.603 102.847 186.512 102.756 186.451 102.695C185.965 102.208 185.62 101.725 185.416 101.245C185.216 100.75 185.106 100.263 185.088 99.7845C185.069 99.3057 185.111 98.8323 185.214 98.3642C185.316 97.8961 185.424 97.4332 185.537 96.9752C185.627 96.623 185.708 96.2808 185.781 95.9486C185.854 95.6165 185.891 95.3042 185.894 95.012C185.899 94.7046 185.858 94.4146 185.769 94.142C185.671 93.8592 185.5 93.5962 185.256 93.3529C184.729 92.8258 184.152 92.5252 183.526 92.451C182.899 92.3769 182.297 92.4465 181.719 92.6598C181.342 92.7988 181.033 92.9683 180.791 93.1685C180.55 93.3687 180.357 93.5716 180.213 93.7774C180.082 93.9782 179.983 94.1742 179.917 94.3653C179.84 94.5463 179.79 94.6896 179.767 94.7953L177.264 93.9494C177.423 93.3355 177.758 92.768 178.268 92.2469C178.781 91.7107 179.475 91.2813 180.349 90.9588C181.842 90.408 183.207 90.2722 184.443 90.5515C185.683 90.8156 186.764 91.4089 187.687 92.3314ZM200.543 96.8926C200.898 97.2474 201.026 97.5958 200.926 97.9379C200.839 98.2751 200.574 98.5255 200.131 98.6892C199.673 98.8579 199.178 98.8878 198.646 98.779C198.114 98.6701 197.67 98.4382 197.315 98.0834C196.961 97.7287 196.826 97.3827 196.913 97.0456C196.989 96.6983 197.256 96.4403 197.713 96.2716C198.157 96.1079 198.65 96.0855 199.192 96.2045C199.738 96.3085 200.188 96.5378 200.543 96.8926ZM196.076 88.487C196.623 87.966 197.104 87.3792 197.52 86.7265C197.948 86.0688 198.217 85.38 198.325 84.66L200.04 84.0274L210.577 94.5646L208.136 95.4652L200.062 87.3912C199.912 87.738 199.663 88.1145 199.314 88.5207C198.965 88.9269 198.601 89.2901 198.222 89.6105L196.076 88.487Z" fill="#E9C058"/>
<defs>
<filter id="filter0_d_994_37182" x="58.9941" y="125.013" width="437.323" height="318.979" filterUnits="userSpaceOnUse" color-interpolation-filters="sRGB">
<feFlood flood-opacity="0" result="BackgroundImageFix"/>
<feColorMatrix in="SourceAlpha" type="matrix" values="0 0 0 0 0 0 0 0 0 0 0 0 0 0 0 0 0 0 127 0" result="hardAlpha"/>
<feOffset dy="81"/>
<feGaussianBlur stdDeviation="8.5"/>
<feComposite in2="hardAlpha" operator="out"/>
<feColorMatrix type="matrix" values="0 0 0 0 0 0 0 0 0 0 0 0 0 0 0 0 0 0 0.03 0"/>
<feBlend mode="normal" in2="BackgroundImageFix" result="effect1_dropShadow_994_37182"/>
<feBlend mode="normal" in="SourceGraphic" in2="effect1_dropShadow_994_37182" result="shape"/>
</filter>
<filter id="filter1_i_994_37182" x="77.6836" y="114.036" width="403.323" height="228.353" filterUnits="userSpaceOnUse" color-interpolation-filters="sRGB">
<feFlood flood-opacity="0" result="BackgroundImageFix"/>
<feBlend mode="normal" in="SourceGraphic" in2="BackgroundImageFix" result="shape"/>
<feColorMatrix in="SourceAlpha" type="matrix" values="0 0 0 0 0 0 0 0 0 0 0 0 0 0 0 0 0 0 127 0" result="hardAlpha"/>
<feOffset dy="7.37347"/>
<feGaussianBlur stdDeviation="12.9036"/>
<feComposite in2="hardAlpha" operator="arithmetic" k2="-1" k3="1"/>
<feColorMatrix type="matrix" values="0 0 0 0 0 0 0 0 0 0 0 0 0 0 0 0 0 0 0.04 0"/>
<feBlend mode="normal" in2="shape" result="effect1_innerShadow_994_37182"/>
</filter>
<filter id="filter2_ddddd_994_37182" x="0.738427" y="20.4056" width="357.731" height="264.234" filterUnits="userSpaceOnUse" color-interpolation-filters="sRGB">
<feFlood flood-opacity="0" result="BackgroundImageFix"/>
<feColorMatrix in="SourceAlpha" type="matrix" values="0 0 0 0 0 0 0 0 0 0 0 0 0 0 0 0 0 0 127 0" result="hardAlpha"/>
<feOffset/>
<feColorMatrix type="matrix" values="0 0 0 0 0 0 0 0 0 0 0 0 0 0 0 0 0 0 0.05 0"/>
<feBlend mode="normal" in2="BackgroundImageFix" result="effect1_dropShadow_994_37182"/>
<feColorMatrix in="SourceAlpha" type="matrix" values="0 0 0 0 0 0 0 0 0 0 0 0 0 0 0 0 0 0 127 0" result="hardAlpha"/>
<feOffset dx="-0.907628" dy="1.81526"/>
<feGaussianBlur stdDeviation="2.72288"/>
<feColorMatrix type="matrix" values="0 0 0 0 0 0 0 0 0 0 0 0 0 0 0 0 0 0 0.05 0"/>
<feBlend mode="normal" in2="effect1_dropShadow_994_37182" result="effect2_dropShadow_994_37182"/>
<feColorMatrix in="SourceAlpha" type="matrix" values="0 0 0 0 0 0 0 0 0 0 0 0 0 0 0 0 0 0 127 0" result="hardAlpha"/>
<feOffset dx="-5.44577" dy="8.16865"/>
<feGaussianBlur stdDeviation="4.99195"/>
<feColorMatrix type="matrix" values="0 0 0 0 0 0 0 0 0 0 0 0 0 0 0 0 0 0 0.04 0"/>
<feBlend mode="normal" in2="effect2_dropShadow_994_37182" result="effect3_dropShadow_994_37182"/>
<feColorMatrix in="SourceAlpha" type="matrix" values="0 0 0 0 0 0 0 0 0 0 0 0 0 0 0 0 0 0 127 0" result="hardAlpha"/>
<feOffset dx="-11.7992" dy="18.1526"/>
<feGaussianBlur stdDeviation="6.80721"/>
<feColorMatrix type="matrix" values="0 0 0 0 0 0 0 0 0 0 0 0 0 0 0 0 0 0 0.03 0"/>
<feBlend mode="normal" in2="effect3_dropShadow_994_37182" result="effect4_dropShadow_994_37182"/>
<feColorMatrix in="SourceAlpha" type="matrix" values="0 0 0 0 0 0 0 0 0 0 0 0 0 0 0 0 0 0 127 0" result="hardAlpha"/>
<feOffset dx="-21.7831" dy="32.6746"/>
<feGaussianBlur stdDeviation="7.71484"/>
<feColorMatrix type="matrix" values="0 0 0 0 0 0 0 0 0 0 0 0 0 0 0 0 0 0 0.01 0"/>
<feBlend mode="normal" in2="effect4_dropShadow_994_37182" result="effect5_dropShadow_994_37182"/>
<feBlend mode="normal" in="SourceGraphic" in2="effect5_dropShadow_994_37182" result="shape"/>
</filter>
<filter id="filter3_i_994_37182" x="37.9521" y="9.03638" width="315.98" height="218.95" filterUnits="userSpaceOnUse" color-interpolation-filters="sRGB">
<feFlood flood-opacity="0" result="BackgroundImageFix"/>
<feBlend mode="normal" in="SourceGraphic" in2="BackgroundImageFix" result="shape"/>
<feColorMatrix in="SourceAlpha" type="matrix" values="0 0 0 0 0 0 0 0 0 0 0 0 0 0 0 0 0 0 127 0" result="hardAlpha"/>
<feOffset dy="6.45104"/>
<feGaussianBlur stdDeviation="11.2893"/>
<feComposite in2="hardAlpha" operator="arithmetic" k2="-1" k3="1"/>
<feColorMatrix type="matrix" values="0 0 0 0 0 0 0 0 0 0 0 0 0 0 0 0 0 0 0.04 0"/>
<feBlend mode="normal" in2="shape" result="effect1_innerShadow_994_37182"/>
</filter>
<filter id="filter4_ddddd_994_37182" x="105.754" y="39.5786" width="237.162" height="270.067" filterUnits="userSpaceOnUse" color-interpolation-filters="sRGB">
<feFlood flood-opacity="0" result="BackgroundImageFix"/>
<feColorMatrix in="SourceAlpha" type="matrix" values="0 0 0 0 0 0 0 0 0 0 0 0 0 0 0 0 0 0 127 0" result="hardAlpha"/>
<feOffset/>
<feColorMatrix type="matrix" values="0 0 0 0 0.913725 0 0 0 0 0.752941 0 0 0 0 0.345098 0 0 0 0.2 0"/>
<feBlend mode="normal" in2="BackgroundImageFix" result="effect1_dropShadow_994_37182"/>
<feColorMatrix in="SourceAlpha" type="matrix" values="0 0 0 0 0 0 0 0 0 0 0 0 0 0 0 0 0 0 127 0" result="hardAlpha"/>
<feOffset dx="2" dy="7"/>
<feGaussianBlur stdDeviation="8"/>
<feColorMatrix type="matrix" values="0 0 0 0 0.913725 0 0 0 0 0.752941 0 0 0 0 0.345098 0 0 0 0.2 0"/>
<feBlend mode="normal" in2="effect1_dropShadow_994_37182" result="effect2_dropShadow_994_37182"/>
<feColorMatrix in="SourceAlpha" type="matrix" values="0 0 0 0 0 0 0 0 0 0 0 0 0 0 0 0 0 0 127 0" result="hardAlpha"/>
<feOffset dx="9" dy="28"/>
<feGaussianBlur stdDeviation="14.5"/>
<feColorMatrix type="matrix" values="0 0 0 0 0.913725 0 0 0 0 0.752941 0 0 0 0 0.345098 0 0 0 0.17 0"/>
<feBlend mode="normal" in2="effect2_dropShadow_994_37182" result="effect3_dropShadow_994_37182"/>
<feColorMatrix in="SourceAlpha" type="matrix" values="0 0 0 0 0 0 0 0 0 0 0 0 0 0 0 0 0 0 127 0" result="hardAlpha"/>
<feOffset dx="21" dy="62"/>
<feGaussianBlur stdDeviation="19.5"/>
<feColorMatrix type="matrix" values="0 0 0 0 0.913725 0 0 0 0 0.752941 0 0 0 0 0.345098 0 0 0 0.1 0"/>
<feBlend mode="normal" in2="effect3_dropShadow_994_37182" result="effect4_dropShadow_994_37182"/>
<feColorMatrix in="SourceAlpha" type="matrix" values="0 0 0 0 0 0 0 0 0 0 0 0 0 0 0 0 0 0 127 0" result="hardAlpha"/>
<feOffset dx="37" dy="110"/>
<feGaussianBlur stdDeviation="23.5"/>
<feColorMatrix type="matrix" values="0 0 0 0 0.913725 0 0 0 0 0.752941 0 0 0 0 0.345098 0 0 0 0.03 0"/>
<feBlend mode="normal" in2="effect4_dropShadow_994_37182" result="effect5_dropShadow_994_37182"/>
<feBlend mode="normal" in="SourceGraphic" in2="effect5_dropShadow_994_37182" result="shape"/>
</filter>
<linearGradient id="paint0_linear_994_37182" x1="51.8345" y1="143.267" x2="23.8698" y2="169.777" gradientUnits="userSpaceOnUse">
<stop offset="0.029378" stop-color="#E4E6EF"/>
<stop offset="1" stop-color="#E4E6F3"/>
</linearGradient>
<linearGradient id="paint1_linear_994_37182" x1="165.739" y1="0" x2="165.739" y2="175.818" gradientUnits="userSpaceOnUse">
<stop stop-color="#F2F3F7"/>
<stop offset="1" stop-color="#F9FAFC"/>
</linearGradient>
<linearGradient id="paint2_linear_994_37182" x1="286.532" y1="160.736" x2="255.206" y2="340.318" gradientUnits="userSpaceOnUse">
<stop stop-color="#E6BF60"/>
<stop offset="1" stop-color="#E8C35E" stop-opacity="0"/>
</linearGradient>
<linearGradient id="paint3_linear_994_37182" x1="31.006" y1="186.621" x2="4.30555" y2="198.244" gradientUnits="userSpaceOnUse">
<stop offset="0.029378" stop-color="#E4E6EF"/>
<stop offset="1" stop-color="#E4E6F3"/>
</linearGradient>
<linearGradient id="paint4_linear_994_37182" x1="99.1404" y1="0" x2="99.1404" y2="229.022" gradientUnits="userSpaceOnUse">
<stop stop-color="#F2F3F7"/>
<stop offset="1" stop-color="#F9FAFC"/>
</linearGradient>
<linearGradient id="paint5_linear_994_37182" x1="74.6444" y1="142.901" x2="75.0005" y2="143.662" gradientUnits="userSpaceOnUse">
<stop stop-color="#FCD87C"/>
<stop offset="1" stop-color="#F8DE9F"/>
</linearGradient>
<linearGradient id="paint6_linear_994_37182" x1="74.6444" y1="140.97" x2="75.0005" y2="141.73" gradientUnits="userSpaceOnUse">
<stop stop-color="#90B4FF"/>
<stop offset="1" stop-color="#93B0F7"/>
</linearGradient>
<linearGradient id="paint7_linear_994_37182" x1="74.6444" y1="140.97" x2="75.0005" y2="141.73" gradientUnits="userSpaceOnUse">
<stop stop-color="#FCD87C"/>
<stop offset="1" stop-color="#F8DE9F"/>
</linearGradient>
<linearGradient id="paint8_linear_994_37182" x1="74.6444" y1="139.038" x2="75.0005" y2="139.799" gradientUnits="userSpaceOnUse">
<stop stop-color="#90B4FF"/>
<stop offset="1" stop-color="#93B0F7"/>
</linearGradient>
<linearGradient id="paint9_linear_994_37182" x1="74.6444" y1="139.038" x2="75.0005" y2="139.799" gradientUnits="userSpaceOnUse">
<stop stop-color="#FCD87C"/>
<stop offset="1" stop-color="#F8DE9F"/>
</linearGradient>
<linearGradient id="paint10_linear_994_37182" x1="74.6444" y1="137.106" x2="75.0005" y2="137.867" gradientUnits="userSpaceOnUse">
<stop stop-color="#90B4FF"/>
<stop offset="1" stop-color="#93B0F7"/>
</linearGradient>
<linearGradient id="paint11_linear_994_37182" x1="74.6444" y1="137.106" x2="75.0005" y2="137.867" gradientUnits="userSpaceOnUse">
<stop stop-color="#FCD87C"/>
<stop offset="1" stop-color="#F8DE9F"/>
</linearGradient>
<linearGradient id="paint12_linear_994_37182" x1="134.532" y1="46.1505" x2="176.082" y2="158.776" gradientUnits="userSpaceOnUse">
<stop stop-color="#E9C058"/>
<stop offset="1" stop-color="#FEDA80"/>
</linearGradient>
</defs>
</svg>
